<?xml version="1.0" encoding="UTF-8" standalone="no"?>
<svg
xmlns="http://www.w3.org/2000/svg"
xmlns:rdf="http://www.w3.org/1999/02/22-rdf-syntax-ns#"
xmlns:dc="http://purl.org/dc/elements/1.1/"
xmlns:cc="http://creativecommons.org/ns#"
xmlns:svg="http://www.w3.org/2000/svg"
xmlns:inkscape="http://www.inkscape.org/namespaces/inkscape"
xmlns:sodipodi="http://sodipodi.sourceforge.net/DTD/sodipodi-0.dtd"
>
<path
style="fill:#ffffff"
id="path4809"
d="m 8.38559999999995,0.244110000000006 c -3.2613,0.60002 -6.3041,3.59853 -7.7326,7.55646 l -0.653,1.83912 0,40.38236 0,40.38081 0.869,2.27975 c 1.0875,2.8782 3.4167,5.63765 5.5905,6.59706 1.522,0.6797 3.7892,0.72033 43.6964,0.72033 l 42.0811,0 1.7077,-1.03909 c 2.4845,-1.47973 3.8815,-3.23915 5.0308,-6.27673 l 1.0245,-2.6782 0,-39.9808 0,-39.9808 -1.0245,-2.6782 c -1.1178,-2.99852 -2.7333,-4.91732 -5.2178,-6.39705 l -1.522,-0.91878 -41.1488,-0.0407 c -22.6396,-0.0453 -41.8626,0.0751 -42.7013,0.23438 z"
/>
<path
d="m 8.38559999999995,0.244110000000006 c -3.2613,0.60002 -6.3041,3.59853 -7.7326,7.55646 l -0.653,1.83912 0,40.38236 0,40.38081 0.869,2.27975 c 1.0875,2.8782 3.4167,5.63765 5.5905,6.59706 1.522,0.6797 3.7892,0.72033 43.6964,0.72033 l 42.0811,0 1.7077,-1.03909 c 2.4845,-1.47973 3.8815,-3.23915 5.0308,-6.27673 l 1.0245,-2.6782 0,-39.9808 0,-39.9808 -1.0245,-2.6782 c -1.1178,-2.99852 -2.7333,-4.91732 -5.2178,-6.39705 l -1.522,-0.91878 -41.1488,-0.0407 c -22.6396,-0.0453 -41.8626,0.0751 -42.7013,0.23438 z m 81.7698,49.85764 -0.094,37.10258 -40.1246,0.12028 -40.1548,0.0797 0,-37.18228 0,-37.18229 40.218,0 40.218,0 -0.063,37.06197 z"
style="fill:#d4aa00;fill-opacity:1"
id="path4811"
/>
<rect
height="60"
x="15"
y="20"
style="opacity:1;fill:#d4aa00;fill-opacity:1;stroke:none;stroke-width:2;stroke-opacity:1"
id="rect4627"
width="10"
/>
<rect
y="20"
id="rect4629"
width="10"
style="opacity:1;fill:#d4aa00;fill-opacity:1;stroke:none;stroke-width:2;stroke-opacity:1"
x="30"
height="60"
/>
<rect
width="10"
style="opacity:1;fill:#d4aa00;fill-opacity:1;stroke:none;stroke-width:2;stroke-opacity:1"
id="rect4631"
y="20"
height="60"
x="45"
/>
<rect
y="50"
width="10"
id="rect4633"
style="opacity:1;fill:#d4aa00;fill-opacity:1;stroke:none;stroke-width:2;stroke-opacity:1"
x="60"
height="30"
/>
</svg>
