<?xml version="1.0" encoding="UTF-8" standalone="no"?>
<svg
xmlns:dc="http://purl.org/dc/elements/1.1/"
xmlns="http://www.w3.org/2000/svg"
xmlns:rdf="http://www.w3.org/1999/02/22-rdf-syntax-ns#"
xmlns:svg="http://www.w3.org/2000/svg"
xmlns:cc="http://creativecommons.org/ns#"
xmlns:inkscape="http://www.inkscape.org/namespaces/inkscape"
xmlns:sodipodi="http://sodipodi.sourceforge.net/DTD/sodipodi-0.dtd"
>
<circle
style="fill:#add8e6;fill-opacity:1;stroke:none"
id="path2978"
cx="49.94162"
cy="50.0581100000001"
r="48.867359"
/>
<circle
cy="50"
id="path2980"
style="fill:none;stroke:#000000;stroke-width:6.25372839;stroke-linecap:round;stroke-dashoffset:39.87524414;stroke-opacity:1"
cx="50"
r="46.873135"
/>
<path
d="m 91.2276,50.73553 c 1.17302,-2.34691 1.79767,-4.83946 1.10168,-6.82947 -0.91203,-2.60773 -3.47395,-4.49708 -6.18611,-5.70433 -1.88288,-0.83644 -10.96169,-3.51757 -10.00526,-5.01196 1.59795,-2.49744 -1.5407,-3.81739 -3.41185,-5.61602 -4.99096,-4.79604 -6.79575,-7.00858 -11.83766,-9.75317 -4.86336,-2.64735 -11.43149,-3.0566 -15.12879,-2.8249 9.86119,1.25019 18.41992,5.73609 14.73297,9.3565 -2.01282,1.97705 -6.31828,1.70193 -13.67696,-0.66176 -7.76249,-2.49254 -17.96628,-6.90489 -22.77522,-15.30526 2.15953,9.98828 15.11659,16.07141 24.30449,19.35815 -4.36211,1.02658 -6.93136,1.67956 -11.94991,3.99812 -7.02795,-1.62138 -14.59159,-1.8965 -21.45938,4.5085 7.20268,-3.19547 12.80597,-3.49248 14.74371,-1.06005 -3.21751,2.12912 -5.46915,3.94647 -7.43218,6.46651 -6.61755,1.86295 -10.30757,3.77156 -12.12734,9.03239 2.82482,-3.94353 6.21675,-5.71125 9.28873,-4.54183 -1.20614,2.66117 -1.7733,5.5921 -1.63419,8.88419 -2.88305,2.13805 -4.90283,5.0063 -5.38562,11.85348 1.65007,-5.62627 3.90349,-7.80681 5.92053,-7.60355 0.0381,0.20117 0.0806,0.38448 0.12303,0.58176 0.58238,2.62024 1.46467,4.83325 2.55729,6.87491 -2.47163,2.31585 -3.86556,5.42254 -3.05322,13.37871 0.22742,-5.4585 1.77598,-9.528 5.09751,-10.24165 1.62949,2.29503 4.21268,5.87878 6.10484,8.58516 1.21753,1.73991 0.41267,10.13834 0.28047,12.93745 l 34.87539,4.85228 c 2.87576,-14.85734 -12.44901,-30.48548 -18.52014,-35.27538 -2.74626,-2.16486 -4.81507,-6.71142 -3.93337,-9.90953 1.12293,-4.0744 4.48439,-7.84223 8.55379,-9.19635 1.72611,1.35529 2.67614,1.97922 3.34748,3.95409 2.06225,6.06861 3.22676,8.97716 12.5841,13.92264 2.60908,1.37765 5.29137,0.58176 7.61765,0.29049 -1.45773,-0.31069 -2.7229,-0.36428 -4.18092,-0.67574 1.3439,-0.25088 2.39912,-1.35536 2.68459,-2.03522 -1.83994,0.98852 -4.06442,0.81407 -6.67465,-0.5235 1.33472,-0.25709 3.07042,-0.88786 4.06098,-1.37315 -1.91755,0.0893 -4.74534,-0.20117 -5.62819,-1.0154 -0.72304,-0.66642 -1.5454,-1.69525 -1.81399,-2.59787 1.52549,0.83419 3.38538,0.0893 4.65375,-0.003 -2.11212,-0.35108 -5.7853,-2.05308 -6.70265,-3.47975 -1.63955,-2.55134 -2.82481,-4.90975 -3.13405,-7.37162 3.4885,3.05365 7.21723,6.5365 10.51528,9.40591 3.86248,3.36005 8.59865,5.87209 13.11253,6.51412 3.62527,0.51419 4.49665,0.79846 7.06089,3.4281 -1.26137,-3.88566 -4.66525,-4.00014 -6.4302,-4.57157 2.60566,-0.0893 5.21092,0.0893 8.19553,1.82721 -2.816,-3.19974 -5.75311,-2.89263 -8.70015,-2.85799 -3.04441,0.0466 -7.56671,-1.3754 -11.09545,-4.68543 -3.56475,-3.34577 -6.58306,-5.97898 -9.91983,-10.63707 3.82342,0.98184 7.47089,2.987 8.70246,6.70201 0.38625,-1.99265 0.003,-3.87082 -1.15067,-5.63295 2.00634,-0.17864 5.21549,2.86778 8.24765,7.55586 0.0217,-1.67063 0.25654,-2.94025 -0.50502,-5.40957 3.23943,0.49011 5.09827,2.00617 6.94978,5.40957 0.81586,-1.32616 1.20903,-2.91228 -0.16327,-4.70416 3.73181,0.73322 4.64339,3.5408 6.05541,6.25673 0.38665,-1.47607 0.70378,-2.75267 1.01312,-3.43051 0.8096,-0.0155 2.10944,1.16297 2.13158,4.59954 l -6.9e-4,0.004 -2.7e-4,-6.2e-4 2e-4,0.001 z m -4.4847,-10.71621 c 0.64459,0.28816 1.68362,0.94821 1.84531,1.9949 -0.62238,-0.38214 -1.15133,-0.0466 -2.11592,-0.73554 -0.91382,-0.65788 -1.13233,-1.13618 -1.60512,-1.31956 0.63698,-0.11185 1.45684,-0.0893 1.87573,0.0699 l -5e-5,-0.0155 3e-5,0.008 z m -19.4657,-10.70131 c 1.83614,0.82969 2.1327,1.34861 3.40536,3.59066 -1.90592,-1.33299 -2.95626,-0.0893 -4.39167,-1.12048 -1.32577,-0.92367 -2.27223,-2.24408 -4.02532,-2.76766 1.8131,-0.40933 3.81957,-0.25088 5.01163,0.29981 l 0,-7e-4 0,-0.002 z"
class="fil0"
id="path2982"
/>
</svg>
