<?xml version="1.0" encoding="UTF-8" standalone="no"?>
<svg
xmlns:sodipodi="http://sodipodi.sourceforge.net/DTD/sodipodi-0.dtd"
xmlns:inkscape="http://www.inkscape.org/namespaces/inkscape"
xmlns:cc="http://creativecommons.org/ns#"
xmlns:svg="http://www.w3.org/2000/svg"
xmlns:rdf="http://www.w3.org/1999/02/22-rdf-syntax-ns#"
xmlns="http://www.w3.org/2000/svg"
xmlns:dc="http://purl.org/dc/elements/1.1/"
>
<circle
style="fill:#ffd700;fill-opacity:1;stroke:none"
id="path2970"
cy="49.7968100000001"
cx="49.68031"
r="48.867359"
/>
<path
d="m 91.22761,50.73551 c 1.17303,-2.34699 1.79768,-4.83954 1.10169,-6.82955 -0.91203,-2.60766 -3.47395,-4.49709 -6.18612,-5.70433 -1.88288,-0.83644 -10.96168,-3.5175 -10.00526,-5.01189 1.59796,-2.49744 -1.54071,-3.81746 -3.41184,-5.61602 -4.99098,-4.79611 -6.79576,-7.00866 -11.83768,-9.75325 -4.86335,-2.64726 -11.43147,-3.05651 -15.12878,-2.82482 9.86119,1.25012 18.41993,5.7361 14.73298,9.35643 -2.01283,1.97704 -6.3183,1.70201 -13.67697,-0.66176 -7.76249,-2.49255 -17.96628,-6.90481 -22.77522,-15.30526 2.15953,9.98828 15.1166,16.07149 24.3045,19.35822 -4.36212,1.0265 -6.93138,1.67956 -11.94991,3.99813 -7.02795,-1.62147 -14.59159,-1.8965 -21.45939,4.5085 7.20268,-3.19547 12.80598,-3.49249 14.74372,-1.06006 -3.21752,2.12905 -5.46915,3.9464 -7.43219,6.46652 -6.61755,1.86294 -10.30756,3.77155 -12.12734,9.03238 2.82482,-3.94352 6.21676,-5.71124 9.28872,-4.54182 -1.20612,2.66117 -1.77328,5.59209 -1.63418,8.88418 -2.88306,2.13806 -4.90283,5.0063 -5.38562,11.85348 1.65007,-5.62627 3.90349,-7.80681 5.92054,-7.60354 0.0381,0.20117 0.0805,0.38447 0.12303,0.58175 0.58238,2.62032 1.46466,4.83325 2.55728,6.87491 -2.47162,2.31593 -3.86555,5.42254 -3.05322,13.37879 0.22742,-5.4585 1.77598,-9.528 5.09751,-10.24165 1.62949,2.29503 4.21268,5.87878 6.10484,8.58508 1.21754,1.73999 0.41267,10.13842 0.28047,12.93753 l 34.8754,4.85228 c 2.87576,-14.85734 -12.44901,-30.48556 -18.52015,-35.27538 -2.74625,-2.16493 -4.81507,-6.71142 -3.93337,-9.90953 1.12293,-4.07439 4.48439,-7.84222 8.5538,-9.19642 1.72611,1.35536 2.67614,1.97929 3.34748,3.95408 2.06225,6.06869 3.22675,8.97724 12.58409,13.92272 2.60908,1.37765 5.29137,0.58176 7.61765,0.29049 -1.45773,-0.31068 -2.7229,-0.36428 -4.18092,-0.67574 1.34389,-0.25088 2.39913,-1.35528 2.68459,-2.03514 -1.83994,0.98852 -4.06442,0.81407 -6.67465,-0.5235 1.33473,-0.2571 3.07043,-0.88786 4.06099,-1.37323 -1.91756,0.0893 -4.74535,-0.20117 -5.62819,-1.01532 -0.72304,-0.66642 -1.5454,-1.69525 -1.814,-2.59787 1.5255,0.83419 3.38539,0.0893 4.65375,-0.003 -2.11212,-0.35107 -5.78529,-2.05308 -6.70264,-3.47967 -1.63956,-2.55142 -2.82482,-4.90975 -3.13406,-7.37162 3.48851,3.05365 7.21724,6.5365 10.51529,9.40591 3.86247,3.36005 8.59864,5.87202 13.11253,6.51412 3.62526,0.51419 4.49664,0.79846 7.06089,3.4281 -1.26138,-3.88566 -4.66526,-4.00014 -6.43021,-4.57157 2.60566,-0.0893 5.21092,0.0893 8.19554,1.82721 -2.81601,-3.19974 -5.75311,-2.89271 -8.70015,-2.85799 -3.04442,0.0466 -7.56672,-1.37548 -11.09546,-4.68543 -3.56475,-3.34577 -6.58307,-5.97898 -9.91983,-10.63707 3.82342,0.98176 7.4709,2.987 8.70245,6.70201 0.38626,-1.99273 0.003,-3.8709 -1.15066,-5.63302 2.00634,-0.17865 5.21549,2.86785 8.24765,7.55593 0.0217,-1.67063 0.25655,-2.94025 -0.50502,-5.40957 3.23944,0.49011 5.09828,2.00609 6.94978,5.40957 0.81587,-1.32624 1.20904,-2.91236 -0.16326,-4.70416 3.73182,0.73322 4.6434,3.54072 6.05541,6.25673 0.38665,-1.47607 0.70378,-2.75267 1.01312,-3.43051 0.80961,-0.0155 2.10944,1.16297 2.13158,4.59954 l -6.9e-4,0.004 -2.7e-4,-6.2e-4 2e-4,10e-4 z m -4.48469,-10.7163 c 0.64451,0.28816 1.68361,0.94829 1.84531,1.99499 -0.62238,-0.38215 -1.15134,-0.0466 -2.11593,-0.73555 -0.91382,-0.65787 -1.13232,-1.1361 -1.60511,-1.31948 0.63698,-0.11184 1.45684,-0.0893 1.87573,0.0699 l -5e-5,-0.0155 2e-5,0.008 z m -19.4657,-10.70122 c 1.83614,0.82968 2.13269,1.34852 3.40535,3.59058 -1.90592,-1.33292 -2.95625,-0.0893 -4.39166,-1.12041 -1.32578,-0.92366 -2.27223,-2.24407 -4.02533,-2.76765 1.81311,-0.40933 3.81957,-0.25088 5.01164,0.29981 l 0,-6.2e-4 0,-0.002 z"
id="path2972"
class="fil0"
/>
<circle
r="46.873135"
style="fill:none;stroke:#000000;stroke-width:6.25372839;stroke-linecap:round;stroke-dashoffset:39.87524414;stroke-opacity:1"
id="path2974"
cy="50"
cx="50"
/>
</svg>
