<?xml version="1.0" encoding="UTF-8" standalone="no"?>
<svg
xmlns:cc="http://creativecommons.org/ns#"
xmlns:svg="http://www.w3.org/2000/svg"
xmlns="http://www.w3.org/2000/svg"
xmlns:rdf="http://www.w3.org/1999/02/22-rdf-syntax-ns#"
xmlns:dc="http://purl.org/dc/elements/1.1/"
xmlns:sodipodi="http://sodipodi.sourceforge.net/DTD/sodipodi-0.dtd"
xmlns:inkscape="http://www.inkscape.org/namespaces/inkscape"
>
<circle
r="48.867359"
style="fill:#90ee90;fill-opacity:1;stroke:none"
id="path2962"
cy="49.7968100000001"
cx="49.9418"
/>
<path
d="m 91.22751,50.73545 c 1.17294,-2.347 1.79758,-4.83953 1.10174,-6.82955 -0.91201,-2.60766 -3.47397,-4.49709 -6.18613,-5.70433 -1.88295,-0.83643 -10.96171,-3.51749 -10.00526,-5.01189 1.59791,-2.49744 -1.5408,-3.81746 -3.41185,-5.61602 -4.99094,-4.79612 -6.79575,-7.00867 -11.83768,-9.75324 -4.86336,-2.64728 -11.43145,-3.05653 -15.12878,-2.82483 9.8612,1.25013 18.41994,5.7361 14.73298,9.35643 -2.01288,1.97703 -6.31829,1.70201 -13.67697,-0.66177 -7.76247,-2.49254 -17.96627,-6.90482 -22.77522,-15.30527 2.15955,9.9883 15.1166,16.07151 24.30451,19.35824 -4.3621,1.0265 -6.93136,1.67958 -11.94991,3.99814 -7.02796,-1.62148 -14.59161,-1.8965 -21.4594,4.50849 7.20269,-3.19547 12.80598,-3.49248 14.74372,-1.06006 -3.21752,2.12906 -5.46915,3.9464 -7.4322,6.46652 -6.61754,1.86293 -10.30756,3.77156 -12.12731,9.03237 2.82481,-3.94351 6.21675,-5.71123 9.28871,-4.54181 -1.20613,2.66116 -1.77329,5.5921 -1.63418,8.88417 -2.88305,2.13807 -4.90284,5.00631 -5.38563,11.85349 1.65008,-5.62626 3.9035,-7.80681 5.92055,-7.60354 0.038,0.20117 0.0805,0.38445 0.12302,0.58175 0.58238,2.6203 1.46466,4.83325 2.5573,6.87492 -2.47165,2.31591 -3.86558,5.42254 -3.05324,13.37878 0.22743,-5.4585 1.77598,-9.528 5.09751,-10.24164 1.6295,2.29501 4.2127,5.87878 6.10486,8.58507 1.21753,1.73998 0.41267,10.13842 0.28046,12.93754 l 34.8754,4.85226 c 2.87576,-14.85732 -12.449,-30.48556 -18.52015,-35.27538 -2.74624,-2.16491 -4.81508,-6.71141 -3.93336,-9.90952 1.12286,-4.07441 4.48439,-7.84222 8.55381,-9.19642 1.72619,1.35536 2.67612,1.9793 3.34745,3.95408 2.06227,6.06869 3.22678,8.97723 12.5841,13.92272 2.60909,1.37766 5.29137,0.58176 7.61768,0.2905 -1.45768,-0.31069 -2.72292,-0.3643 -4.18093,-0.67573 1.34385,-0.25013 2.39912,-1.35531 2.68459,-2.03515 -1.84003,0.98852 -4.06443,0.81406 -6.67466,-0.52351 1.33462,-0.25709 3.07044,-0.88787 4.06098,-1.37322 -1.91746,0.0893 -4.74536,-0.20119 -5.62817,-1.01534 -0.72306,-0.6664 -1.54542,-1.69524 -1.814,-2.59786 1.52544,0.8342 3.38542,0.0893 4.65376,-0.003 -2.11213,-0.35107 -5.78529,-2.05309 -6.70264,-3.47967 -1.63965,-2.55142 -2.82483,-4.90975 -3.13406,-7.37162 3.48851,3.05366 7.21725,6.53649 10.51528,9.4059 3.86248,3.36005 8.59865,5.87202 13.11253,6.51414 3.62528,0.51417 4.49664,0.79846 7.06091,3.42808 -1.26146,-3.88563 -4.66526,-4.00013 -6.43022,-4.57157 2.60565,-0.0893 5.21092,0.0893 8.19553,1.82723 -2.816,-3.19974 -5.7531,-2.89272 -8.70014,-2.85799 -3.04441,0.0466 -7.56671,-1.3755 -11.09547,-4.68545 -3.56473,-3.34576 -6.58306,-5.97898 -9.91981,-10.63707 3.8234,0.98177 7.4709,2.98701 8.70246,6.70201 0.38624,-1.99271 0.003,-3.87088 -1.15071,-5.63301 2.00636,-0.17865 5.21549,2.86784 8.24763,7.55594 0.0217,-1.67063 0.25639,-2.94024 -0.50503,-5.40958 3.23945,0.4901 5.09831,2.0061 6.94977,5.40958 0.81584,-1.32625 1.20896,-2.91237 -0.16349,-4.70416 3.73182,0.73321 4.6434,3.54072 6.05542,6.25671 0.38666,-1.47606 0.70387,-2.75265 1.01313,-3.43049 0.8097,-0.0154 2.10945,1.16297 2.13164,4.59953 l 0,0.004 0,0 0,0.002 z m -4.48471,-10.71628 c 0.64453,0.28814 1.68368,0.94828 1.84539,1.99498 -0.62236,-0.38214 -1.15144,-0.0466 -2.11593,-0.73557 -0.91387,-0.65707 -1.13228,-1.1361 -1.6051,-1.31946 0.63681,-0.11184 1.45683,-0.0893 1.87566,0.0699 l -2e-5,-0.0154 0,0.008 z m -19.46569,-10.70125 c 1.83623,0.82969 2.13277,1.34853 3.40537,3.59059 -1.90591,-1.33293 -2.95627,-0.0893 -4.39167,-1.12042 -1.32581,-0.92367 -2.27223,-2.24406 -4.02534,-2.76765 1.81319,-0.40933 3.81957,-0.25089 5.01164,0.29981 l 0,0 0,-0.002 z"
class="fil0"
id="path2964"
/>
<circle
r="46.873135"
cy="50"
id="path2966"
style="fill:none;stroke:#000000;stroke-width:6.25372839;stroke-linecap:round;stroke-dashoffset:39.87524414;stroke-opacity:1"
cx="49.99992"
/>
</svg>
