<?xml version="1.0" encoding="UTF-8" standalone="no"?>
<svg
xmlns:svg="http://www.w3.org/2000/svg"
xmlns:cc="http://creativecommons.org/ns#"
xmlns:dc="http://purl.org/dc/elements/1.1/"
xmlns:rdf="http://www.w3.org/1999/02/22-rdf-syntax-ns#"
xmlns="http://www.w3.org/2000/svg"
xmlns:sodipodi="http://sodipodi.sourceforge.net/DTD/sodipodi-0.dtd"
xmlns:inkscape="http://www.inkscape.org/namespaces/inkscape"
>
<circle
r="49.98547"
id="path3782"
style="fill:#ffffff;fill-opacity:1;stroke:none"
cx="50.01459"
cy="49.98517"
/>
<path
class="fil0"
id="path3784"
d="m 91.14683,50.77912 c 1.17187,-2.34487 1.79597,-4.83524 1.10076,-6.82343 -0.91113,-2.60545 -3.47087,-4.49312 -6.18063,-5.69925 -1.88128,-0.83531 -10.95198,-3.51445 -9.99638,-5.00758 1.59647,-2.49523 -1.53943,-3.81402 -3.40883,-5.61101 -4.98654,-4.79183 -6.78974,-7.00234 -11.82718,-9.74459 -4.85905,-2.64486 -11.42134,-3.05381 -15.11537,-2.82235 9.85243,1.2494 18.4036,5.73095 14.7199,9.34821 -2.01107,1.97533 -6.31268,1.70046 -13.66482,-0.66111 -7.75561,-2.49037 -17.95036,-6.89882 -22.75504,-15.29177 2.15761,9.97947 15.1032,16.05725 24.28297,19.3411 -4.35825,1.02522 -6.92523,1.67805 -11.93933,3.9945 -7.02172,-1.61993 -14.57867,-1.8948 -21.44037,4.50454 7.1963,-3.1926 12.79461,-3.48931 14.73065,-1.05949 -3.21466,2.12712 -5.46431,3.94296 -7.4256,6.46074 -6.61169,1.86125 -10.29842,3.76819 -12.11659,9.02437 2.82231,-3.93996 6.21125,-5.70611 9.2805,-4.53781 -1.20514,2.65886 -1.77173,5.58716 -1.63274,8.87629 -2.8805,2.13625 -4.89848,5.00187 -5.38085,11.843 1.6486,-5.62129 3.90003,-7.79995 5.91529,-7.59677 0.0386,0.20134 0.08,0.3841 0.1228,0.58115 0.58186,2.61788 1.46336,4.82896 2.55502,6.86883 -2.46945,2.31374 -3.86214,5.41768 -3.05053,13.36684 0.22718,-5.45365 1.77442,-9.51955 5.093,-10.23263 1.62805,2.29303 4.20895,5.87359 6.09943,8.57757 1.21642,1.73845 0.41223,10.1294 0.28015,12.92605 l 34.84449,4.84795 c 2.87321,-14.84412 -12.43798,-30.45845 -18.50375,-35.24414 -2.74379,-2.16296 -4.8108,-6.70548 -3.92988,-9.9008 1.12189,-4.07075 4.48043,-7.83522 8.54622,-9.18814 1.72466,1.35363 2.67376,1.97747 3.3445,3.95052 2.06044,6.06336 3.22391,8.96925 12.57294,13.91044 2.60677,1.37648 5.28668,0.58115 7.61092,0.28986 -1.45637,-0.30985 -2.72051,-0.36411 -4.17722,-0.67539 1.34264,-0.24988 2.397,-1.35363 2.68221,-2.03345 -1.8384,0.9881 -4.06083,0.81389 -6.66874,-0.5226 1.3335,-0.25702 3.0677,-0.88672 4.05738,-1.3722 -1.91576,0.0857 -4.74114,-0.20133 -5.6232,-1.0138 -0.72251,-0.66539 -1.54403,-1.69361 -1.81237,-2.59546 1.52408,0.83389 3.3824,0.0857 4.64963,-0.003 -2.11025,-0.35126 -5.78015,-2.0513 -6.6967,-3.47661 -1.63819,-2.5492 -2.82231,-4.90549 -3.13127,-7.36516 3.4854,3.05096 7.21085,6.53071 10.50596,9.39761 3.85904,3.35709 8.59101,5.86688 13.10089,6.50843 3.62207,0.51404 4.49267,0.79819 7.05465,3.42492 -1.2604,-3.88213 -4.66113,-3.9965 -6.42452,-4.56751 2.60336,-0.0857 5.2063,0.0857 8.18826,1.82555 -2.8135,-3.19689 -5.74799,-2.89004 -8.69242,-2.85534 -3.04172,0.0428 -7.56001,-1.37362 -11.08562,-4.68131 -3.56158,-3.34282 -6.57723,-5.97369 -9.91104,-10.62759 3.82003,0.98095 7.46429,2.98427 8.69475,6.69605 0.38582,-1.99089 0.003,-3.86742 -1.14973,-5.628 2.00461,-0.17848 5.21086,2.86519 8.24033,7.54922 0.0214,-1.66919 0.25616,-2.93772 -0.50462,-5.40482 3.23657,0.48976 5.09376,2.00432 6.94361,5.40482 0.81504,-1.32507 1.20785,-2.90974 -0.16335,-4.70002 3.72852,0.73251 4.63928,3.53758 6.05006,6.25113 0.38624,-1.47472 0.70323,-2.7501 1.01222,-3.42749 0.8089,-0.0143 2.10757,1.1623 2.12973,4.5955 l -7e-4,0.004 -2.5e-4,-5.7e-4 2e-4,10e-4 z m -4.48075,-10.70684 c 0.64398,0.28843 1.68219,0.94811 1.84377,1.99318 -0.62184,-0.38267 -1.15045,-0.0428 -2.11407,-0.73536 -0.91313,-0.65682 -1.13131,-1.13516 -1.60368,-1.31793 0.63626,-0.11423 1.45554,-0.0857 1.87401,0.0714 l -3e-5,-0.0143 0,0.008 z m -19.44842,-10.6917 c 1.8346,0.8296 2.13087,1.34792 3.40234,3.58741 -1.90423,-1.33221 -2.95364,-0.0857 -4.38776,-1.11946 -1.32465,-0.92241 -2.27024,-2.24206 -4.02178,-2.76509 1.81158,-0.40838 3.81619,-0.24988 5.0072,0.29985 l 0,-7.1e-4 0,-0.002 z"
/>
<circle
cx="49.95569"
id="path3786"
style="fill:none;stroke:#000000;stroke-width:6.24818373;stroke-linecap:round;stroke-dashoffset:39.87524414;stroke-opacity:1"
cy="50.04431"
r="46.831577"
/>
</svg>
