<?xml version="1.0" encoding="UTF-8" standalone="no"?>
<svg
xmlns:sodipodi="http://sodipodi.sourceforge.net/DTD/sodipodi-0.dtd"
xmlns:inkscape="http://www.inkscape.org/namespaces/inkscape"
xmlns:cc="http://creativecommons.org/ns#"
xmlns:svg="http://www.w3.org/2000/svg"
xmlns:rdf="http://www.w3.org/1999/02/22-rdf-syntax-ns#"
xmlns="http://www.w3.org/2000/svg"
xmlns:dc="http://purl.org/dc/elements/1.1/"
>
<circle
id="path2986"
style="fill:#ffa500;fill-opacity:1;stroke:none"
cy="49.7968100000001"
cx="49.94162"
r="48.867359"
/>
<path
d="m 91.22768,50.7356 c 1.17303,-2.34691 1.79768,-4.83946 1.10169,-6.82947 -0.91203,-2.60773 -3.47395,-4.49708 -6.18611,-5.70433 -1.88288,-0.83644 -10.96169,-3.51757 -10.00527,-5.01196 1.59796,-2.49744 -1.5407,-3.81739 -3.41184,-5.61594 -4.99097,-4.79612 -6.79576,-7.00866 -11.83767,-9.75325 -4.86336,-2.64735 -11.43149,-3.0566 -15.12879,-2.8249 9.86119,1.25019 18.41993,5.73609 14.73298,9.3565 -2.01282,1.97704 -6.31829,1.70193 -13.67696,-0.66176 -7.76249,-2.49254 -17.96629,-6.90489 -22.77523,-15.30526 2.15953,9.98828 15.1166,16.07149 24.3045,19.35815 -4.36212,1.02658 -6.93137,1.67964 -11.94992,3.99812 -7.02794,-1.62138 -14.59159,-1.8965 -21.45938,4.5085 7.20268,-3.19547 12.80597,-3.4924 14.74371,-1.06005 -3.21751,2.12912 -5.46914,3.94647 -7.43218,6.46651 -6.61755,1.86295 -10.30757,3.77156 -12.12733,9.03246 2.82481,-3.9436 6.21675,-5.71132 9.28872,-4.54182 -1.20613,2.66117 -1.7733,5.59202 -1.63419,8.88411 -2.88305,2.13805 -4.90283,5.00637 -5.38562,11.85348 1.65007,-5.62627 3.90349,-7.80681 5.92053,-7.60355 0.0381,0.20117 0.0805,0.38448 0.12304,0.58176 0.58237,2.62024 1.46466,4.83325 2.55729,6.87491 -2.47164,2.31585 -3.86556,5.42254 -3.05323,13.37879 0.22742,-5.45858 1.77598,-9.52808 5.09751,-10.24173 1.6295,2.29511 4.21268,5.87878 6.10485,8.58515 1.21752,1.73999 0.41259,10.13835 0.28047,12.93754 l 34.8754,4.8522 c 2.87576,-14.85726 -12.44902,-30.48548 -18.52016,-35.27538 -2.74624,-2.16486 -4.81507,-6.71142 -3.93336,-9.90953 1.12293,-4.0744 4.48439,-7.84215 8.5538,-9.19635 1.7261,1.35529 2.67614,1.9793 3.34748,3.95409 2.06225,6.06861 3.22675,8.97716 12.58408,13.92264 2.6091,1.37765 5.29138,0.58176 7.61766,0.29049 -1.45772,-0.31069 -2.72289,-0.36428 -4.18091,-0.67574 1.34389,-0.2501 2.39912,-1.35536 2.68458,-2.03522 -1.83994,0.98852 -4.06442,0.81407 -6.67465,-0.5235 1.33473,-0.25709 3.07043,-0.88786 4.06098,-1.37315 -1.91755,0.0893 -4.74534,-0.20117 -5.62818,-1.0154 -0.72304,-0.66642 -1.5454,-1.69525 -1.814,-2.59787 1.52549,0.83419 3.38538,0.0893 4.65375,-0.003 -2.11212,-0.35108 -5.78529,-2.05309 -6.70265,-3.47975 -1.63955,-2.55134 -2.82482,-4.90967 -3.13405,-7.37162 3.48851,3.05365 7.21724,6.5365 10.51529,9.40591 3.86247,3.36005 8.59864,5.87209 13.11252,6.5142 3.62527,0.51419 4.49664,0.79838 7.06089,3.42802 -1.26137,-3.88566 -4.66525,-4.00014 -6.43021,-4.57157 2.60567,-0.0893 5.21093,0.0893 8.19554,1.82721 -2.816,-3.19974 -5.75311,-2.89263 -8.70015,-2.85799 -3.04441,0.0466 -7.5667,-1.3754 -11.09545,-4.68535 -3.56475,-3.34577 -6.58306,-5.97898 -9.91983,-10.63715 3.82342,0.98184 7.4709,2.98708 8.70245,6.70201 0.38626,-1.99265 0.003,-3.87082 -1.15066,-5.63295 2.00634,-0.17864 5.21549,2.86778 8.24765,7.55594 0.0217,-1.67071 0.25655,-2.94033 -0.50502,-5.40965 3.23944,0.49011 5.09827,2.00617 6.94978,5.40965 0.81586,-1.32624 1.20903,-2.91236 -0.16326,-4.70424 3.73181,0.73322 4.6434,3.5408 6.05541,6.25673 0.38665,-1.47607 0.70378,-2.75259 1.01312,-3.43051 0.8096,-0.0155 2.10944,1.16297 2.13158,4.59954 l -6.9e-4,0.005 -2.7e-4,-7e-4 2e-4,0.001 z m -4.48469,-10.71621 c 0.64451,0.28816 1.68361,0.94821 1.8453,1.9949 -0.62238,-0.38214 -1.15132,-0.0466 -2.11592,-0.73554 -0.91382,-0.65788 -1.13232,-1.13618 -1.60511,-1.31956 0.6369,-0.11185 1.45683,-0.0893 1.87573,0.0699 l -5e-5,-0.0155 3e-5,0.008 z m -19.46571,-10.70131 c 1.83614,0.82976 2.1327,1.34861 3.40536,3.59066 -1.90591,-1.33291 -2.95625,-0.0893 -4.39166,-1.12048 -1.32577,-0.92367 -2.27223,-2.24408 -4.02533,-2.76766 1.8131,-0.40933 3.81957,-0.25088 5.01163,0.29981 l 0,-7e-4 0,-0.002 z"
id="path2988"
class="fil0"
/>
<circle
r="46.873135"
cx="50"
style="fill:none;stroke:#000000;stroke-width:6.25372839;stroke-linecap:round;stroke-dashoffset:39.87524414;stroke-opacity:1"
id="path2990"
cy="50"
/>
</svg>
