<?xml version="1.0" encoding="UTF-8" standalone="no"?>
<svg
xmlns="http://www.w3.org/2000/svg"
xmlns:sodipodi="http://sodipodi.sourceforge.net/DTD/sodipodi-0.dtd"
xmlns:cc="http://creativecommons.org/ns#"
xmlns:dc="http://purl.org/dc/elements/1.1/"
xmlns:svg="http://www.w3.org/2000/svg"
xmlns:inkscape="http://www.inkscape.org/namespaces/inkscape"
xmlns:rdf="http://www.w3.org/1999/02/22-rdf-syntax-ns#"
>
<path
style="fill:#bce3ff;fill-opacity:1;stroke:#000000;stroke-width:2.9629848;stroke-miterlimit:4;stroke-dasharray:none;stroke-opacity:1"
id="path6187"
d="m 78.5185999999999,37.84384 c 0,6.9954 -2.5105,14.3521 -6.2348,21.4236 -14.074,20.1882 -31.8518,38.6844 -31.8518,38.6844 0,0 -20.4526,-17.8689 -33.5391,-39.0645 -3.2715,-6.6154 -5.4114,-13.6108 -5.4114,-20.6253 -0.021,-19.6749 17.2222,-36.7835 38.4978,-36.7835 21.2963,0 38.5393,16.6713 38.5393,36.3653 z"
/>
<path
style="fill:#000000"
id="path7061"
d="m 37.0752000000002,66.79908 c -0.5918,-0.1624 -1.8279,-0.8021 -2.7471,-1.4216 -1.3518,-0.911 -2.0047,-1.1494 -3.4169,-1.2476 -1.5162,-0.1054 -2.2362,0.063 -5.4745,1.2807 -2.0507,0.7711 -4.1555,1.402 -4.6773,1.402 -1.0536,0 -3.2059,-1.2349 -3.472,-1.9921 -0.1062,-0.3022 0.2896,-1.2007 1.0422,-2.3659 2.4358,-3.7715 3.8106,-7.0567 5.0223,-12.0003 l 0.6697,-2.7324 -1.313,-1.0933 c -5.3645,-4.467 -8.4501,-10.7995 -7.5553,-15.5058 0.3671,-1.9304 1.1253,-2.9518 2.1812,-2.9383 1.1391,0.015 1.6457,0.5965 3.0728,3.5291 1.346,2.766 2.5678,4.0671 3.8192,4.0671 0.5757,0 0.6455,-0.2129 0.9573,-2.9174 0.9119,-7.911 3.9978,-12.6833 9.6499,-14.9234 3.6688,-1.4541 8.3084,-1.2104 11.9894,0.6296 1.9269,0.9633 4.4327,3.7021 5.597,6.1173 1.1114,2.3057 1.9947,5.7824 2.2525,8.8664 l 0.1989,2.3796 0.8345,-0.097 c 1.5552,-0.1814 2.4437,-1.1056 3.8994,-4.0564 1.4976,-3.0355 2.316,-3.8373 3.5668,-3.4945 0.9911,0.2716 1.6284,1.6981 1.7997,4.0284 0.3424,4.6574 -2.4542,9.8076 -8.0877,14.8942 l -1.3282,1.1992 0.7098,2.8903 c 0.8976,3.655 3.0207,8.4161 4.8507,10.8779 0.778,1.0467 1.4146,2.0136 1.4146,2.1488 0,0.5053 -1.6085,1.9037 -2.5287,2.1984 -1.2234,0.3919 -2.5423,0.1473 -5.3682,-0.9956 -1.7461,-0.7062 -2.9018,-0.9551 -4.9853,-1.0738 l -2.7122,-0.1545 -2.3413,1.2782 c -1.971,1.0761 -2.6657,1.2973 -4.3928,1.3983 -1.1283,0.066 -2.5357,-0.013 -3.1274,-0.1753 z"
/>
<path
style="fill:#ffffff;fill-opacity:1"
id="path7063"
d="m 46.0920000000001,45.57428 1.4628,-0.9046 c 1.6672,-1.0309 2.5771,-2.0083 2.3095,-2.4809 -0.2547,-0.45 -18.1564,-0.45 -18.4111,0 -0.2657,0.4695 0.6392,1.448 2.274,2.4591 l 1.4273,0.8826 c 4.267,5.8923 6.9449,6.214 10.9375,0.044 z"
/>
<path
id="path7065"
style="fill:#ffffff;fill-opacity:1"
d="m 35.6974,33.40748 c 1.5324,-1.8309 0.7432,-4.3688 -1.5375,-4.9443 -1.7718,-0.447 -3.671,1.1949 -3.671,3.1736 0,0.4339 0.3697,1.2308 0.8216,1.7707 0.6841,0.8174 1.0513,0.9817 2.1935,0.9817 1.1422,0 1.5093,-0.1643 2.1934,-0.9817 z"
/>
<path
style="fill:#ffffff;fill-opacity:1"
id="path7067"
d="m 48.6974,33.40748 c 1.5324,-1.8308 0.7432,-4.3688 -1.5375,-4.9442 -1.7718,-0.4471 -3.671,1.1949 -3.671,3.1735 0,0.434 0.3697,1.2308 0.8216,1.7707 0.6841,0.8174 1.0513,0.9817 2.1935,0.9817 1.1422,0 1.5093,-0.1643 2.1934,-0.9817 z"
/>
</svg>
