<?xml version="1.0" encoding="UTF-8" standalone="no"?>
<svg
xmlns:inkscape="http://www.inkscape.org/namespaces/inkscape"
xmlns:svg="http://www.w3.org/2000/svg"
xmlns:rdf="http://www.w3.org/1999/02/22-rdf-syntax-ns#"
xmlns="http://www.w3.org/2000/svg"
xmlns:dc="http://purl.org/dc/elements/1.1/"
xmlns:cc="http://creativecommons.org/ns#"
xmlns:sodipodi="http://sodipodi.sourceforge.net/DTD/sodipodi-0.dtd"
>
<path
id="path5735"
style="fill:#6b98ff;fill-opacity:1;stroke:#000000;stroke-width:2.9629848;stroke-miterlimit:4;stroke-dasharray:none;stroke-opacity:1"
d="m 78.5185000000001,37.8435999999999 c 0,6.9954 -2.5104,14.3521 -6.2347,21.4236 -14.074,20.1882 -31.8518,38.6845 -31.8518,38.6845 0,0 -20.4526,-17.869 -33.5391,-39.0646 -3.2715,-6.6154 -5.4114,-13.6108 -5.4114,-20.6253 -0.021,-19.6749 17.2222,-36.7835 38.4978,-36.7835 21.2963,0 38.5392,16.6713 38.5392,36.3653 z"
/>
<path
d="m 37.0752000000002,66.7994000000001 c -0.5918,-0.1624 -1.8279,-0.8022 -2.7471,-1.4216 -1.3518,-0.9111 -2.0047,-1.1495 -3.4169,-1.2477 -1.5162,-0.1054 -2.2362,0.063 -5.4745,1.2807 -2.0507,0.7712 -4.1555,1.4021 -4.6773,1.4021 -1.0536,0 -3.2059,-1.235 -3.472,-1.9922 -0.1062,-0.3021 0.2896,-1.2006 1.0422,-2.3659 2.4358,-3.7715 3.8106,-7.0566 5.0223,-12.0003 l 0.6697,-2.7324 -1.313,-1.0933 c -5.3645,-4.4669 -8.4501,-10.7995 -7.5553,-15.5057 0.3671,-1.9305 1.1253,-2.9519 2.1812,-2.9383 1.1391,0.015 1.6457,0.5964 3.0728,3.5291 1.346,2.7659 2.5678,4.0671 3.8192,4.0671 0.5757,0 0.6455,-0.2129 0.9573,-2.9175 0.9119,-7.911 3.9978,-12.6832 9.6499,-14.9234 3.6688,-1.454 8.3084,-1.2104 11.9894,0.6297 1.9269,0.9632 4.4327,3.702 5.597,6.1173 1.1114,2.3056 1.9947,5.7823 2.2525,8.8663 l 0.1989,2.3797 0.8345,-0.097 c 1.5552,-0.1814 2.4437,-1.1056 3.8994,-4.0565 1.4976,-3.0355 2.316,-3.8372 3.5668,-3.4945 0.9911,0.2717 1.6284,1.6981 1.7997,4.0285 0.3424,4.6574 -2.4542,9.8076 -8.0877,14.8942 l -1.3282,1.1992 0.7098,2.8902 c 0.8976,3.655 3.0207,8.4161 4.8507,10.878 0.778,1.0466 1.4146,2.0136 1.4146,2.1487 0,0.5053 -1.6085,1.9037 -2.5287,2.1985 -1.2234,0.3918 -2.5423,0.1472 -5.3682,-0.9956 -1.7461,-0.7062 -2.9018,-0.9551 -4.9853,-1.0738 l -2.7122,-0.1546 -2.3413,1.2783 c -1.971,1.0761 -2.6657,1.2972 -4.3928,1.3983 -1.1283,0.066 -2.5357,-0.013 -3.1274,-0.1753 z"
id="path5909"
style="fill:#000000"
/>
<path
d="m 46.0920000000001,45.5744999999999 1.4628,-0.9045 c 1.6672,-1.031 2.5771,-2.0083 2.3095,-2.4809 -0.2547,-0.4501 -18.1564,-0.4501 -18.4111,0 -0.2657,0.4695 0.6392,1.448 2.274,2.459 l 1.4273,0.8827 c 4.267,5.8923 6.9449,6.214 10.9375,0.044 z"
id="path5911"
style="fill:#ffffff;fill-opacity:1"
/>
<path
d="m 35.6974,33.4077 c 1.5324,-1.8308 0.7432,-4.3688 -1.5375,-4.9442 -1.7718,-0.4471 -3.671,1.1949 -3.671,3.1735 0,0.434 0.3697,1.2308 0.8216,1.7707 0.6841,0.8174 1.0513,0.9817 2.1935,0.9817 1.1422,0 1.5093,-0.1643 2.1934,-0.9817 z"
id="path5913"
style="fill:#ffffff;fill-opacity:1"
/>
<path
d="m 48.6974,33.4078 c 1.5324,-1.8308 0.7432,-4.3688 -1.5375,-4.9443 -1.7718,-0.447 -3.671,1.1949 -3.671,3.1736 0,0.4339 0.3697,1.2308 0.8216,1.7707 0.6841,0.8174 1.0513,0.9817 2.1935,0.9817 1.1422,0 1.5093,-0.1643 2.1934,-0.9817 z"
style="fill:#ffffff;fill-opacity:1"
id="path5915"
/>
</svg>
