<?xml version="1.0" encoding="UTF-8" standalone="no"?>
<svg
xmlns:inkscape="http://www.inkscape.org/namespaces/inkscape"
xmlns:svg="http://www.w3.org/2000/svg"
xmlns:rdf="http://www.w3.org/1999/02/22-rdf-syntax-ns#"
xmlns="http://www.w3.org/2000/svg"
xmlns:cc="http://creativecommons.org/ns#"
xmlns:dc="http://purl.org/dc/elements/1.1/"
xmlns:sodipodi="http://sodipodi.sourceforge.net/DTD/sodipodi-0.dtd"
>
<path
d="m 78.5185,37.84384 c 0,6.9954 -2.51027,14.3521 -6.23455,21.4236 -14.07407,20.1882 -31.85183,38.6844 -31.85183,38.6844 0,0 -20.45266,-17.8689 -33.53909,-39.0645 -3.2716,-6.6154 -5.41151,-13.6108 -5.41151,-20.6253 -0.0205,-19.6749 17.2222,-36.7835 38.49791,-36.7835 21.29629,0 38.53907,16.6713 38.53907,36.3653 z"
style="fill:#bce3ff;fill-opacity:1;stroke:#000000;stroke-width:2.9629848;stroke-miterlimit:4;stroke-dasharray:none;stroke-opacity:1"
id="path6149"
/>
<path
d="m 22.94081,53.3531 c -0.53314,0.9805 -0.95749,2.4558 -0.95749,3.3854 0,0.2158 0,0.4903 0.0522,0.871 l -6.66339,-11.7351 c -0.21327,-0.3807 -0.37213,-0.927 -0.37213,-1.4192 0,-0.4928 0.15886,-1.0919 0.37214,-1.4733 l 3.19895,-5.7316 -3.57109,-2.0725 11.62078,-0.2202 5.6493,10.4247 -3.62329,-2.1285 -5.70598,10.0993 z m 5.1184,-33.0765 c 1.01193,-1.8032 2.6658,-2.7856 4.68966,-2.7856 2.18701,0 3.89318,1.0384 5.11831,3.1644 l 1.81273,3.1109 -6.29133,11.1378 -10.18011,-6.0595 4.85074,-8.568 z m 0.7442,42.5188 c -3.03794,0 -5.54274,-2.5653 -5.54274,-5.6762 0,-0.8735 0.37429,-2.3487 0.90743,-3.2758 l 1.70393,-3.1109 12.63486,0 0,12.063 -9.70348,0 z m 10.13014,-42.8487 c -0.79872,-1.4173 -1.86501,-2.4023 -3.14459,-2.9486 l 13.11142,0 c 1.17293,0 2.07822,0.4929 2.61359,1.4218 l 3.25123,5.6761 3.51697,-2.1304 -5.65185,10.3731 -11.56419,-0.1668 3.57108,-2.0725 -5.70366,-10.1527 z m 20.20385,30.8953 c 1.59729,0 2.9313,-0.4368 4.04988,-1.3085 l -6.61118,11.7885 c -0.53315,0.927 -1.49064,1.4733 -2.60954,1.4733 l -6.23911,0 0,4.2028 -5.96925,-10.2062 5.96925,-10.2089 0,4.2589 11.40995,0 z m 5.11401,-9.8256 c 0.48094,0.8736 0.74859,1.8006 0.74859,2.7837 0,1.9654 -1.22737,4.0398 -2.9313,5.0204 -0.80079,0.4393 -1.9216,0.7131 -3.03794,0.7131 l -3.52103,0 -6.28726,-11.1378 10.18043,-5.95 4.84851,8.5706 z"
id="path5613"
style="fill:#000000;fill-opacity:1"
/>
</svg>
