<?xml version="1.0" encoding="UTF-8" standalone="no"?>
<svg
xmlns="http://www.w3.org/2000/svg"
xmlns:cc="http://creativecommons.org/ns#"
xmlns:dc="http://purl.org/dc/elements/1.1/"
xmlns:sodipodi="http://sodipodi.sourceforge.net/DTD/sodipodi-0.dtd"
xmlns:inkscape="http://www.inkscape.org/namespaces/inkscape"
xmlns:svg="http://www.w3.org/2000/svg"
xmlns:rdf="http://www.w3.org/1999/02/22-rdf-syntax-ns#"
>
<path
d="m 78.5185,37.8438000000001 c 0,6.9954 -2.51028,14.3521 -6.23456,21.4236 -14.07406,20.1882 -31.85183,38.6844 -31.85183,38.6844 0,0 -20.45267,-17.8689 -33.53908,-39.0645 -3.27161,-6.6154 -5.41152,-13.6108 -5.41152,-20.6253 -0.0206,-19.6749 17.22221,-36.7835 38.49792,-36.7835 21.29629,0 38.53907,16.6713 38.53907,36.3653 z"
id="path6067"
style="fill:#999999;fill-opacity:1;stroke:#000000;stroke-width:2.9629848;stroke-miterlimit:4;stroke-dasharray:none;stroke-opacity:1"
/>
<path
d="m 46.12351,66.6974 c -0.68281,-0.095 -1.46379,-0.3506 -2.09715,-0.6875 -0.80168,-0.4263 -1.78149,-1.2661 -2.37541,-2.0359 -0.1747,-0.2264 -0.31307,-0.4183 -0.30748,-0.4264 0.006,-0.01 0.10005,0.014 0.20992,0.05 1.03043,0.3322 2.43818,0.5655 3.87956,0.6427 2.73735,0.1466 5.48868,-0.4546 7.46156,-1.6306 0.47814,-0.285 1.20046,-0.8167 1.45845,-1.0736 0.13636,-0.1358 0.25814,-0.2468 0.27062,-0.2468 0.0125,0 0.13405,-0.1237 0.27017,-0.2749 l 0.24749,-0.2749 -0.20005,0.3083 c -1.30479,2.0108 -2.50341,3.3293 -3.9241,4.3167 -1.54786,1.0758 -3.30222,1.5538 -4.89358,1.3332 z"
style="fill:#000000;fill-opacity:1;stroke:#000000;stroke-width:0.49598038;stroke-opacity:1"
id="path5380"
/>
<path
d="m 40.54968,60.8638000000001 c 0.024,-0.9815 0.51174,-3.546 1.03529,-5.4432 0.49585,-1.7968 1.438,-4.2924 2.40472,-6.3696 1.16134,-2.4955 1.48607,-3.0509 3.61113,-6.1765 1.74441,-2.5657 2.40286,-3.3833 3.8159,-4.7387 0.62979,-0.6041 0.90371,-0.8535 2.46266,-2.2422 0.89039,-0.7932 1.67438,-1.5338 2.16979,-2.0498 1.50793,-1.5705 2.89226,-3.3584 4.11113,-5.3097 0.50769,-0.8127 0.65426,-1.0652 1.0252,-1.7664 0.22134,-0.4184 0.48855,-0.9218 0.59382,-1.1187 0.10527,-0.1968 0.36753,-0.7523 0.58282,-1.2343 1.13812,-2.5483 1.68546,-4.2049 2.24578,-6.7975 l 0.12088,-0.5593 -0.0177,0.4027 c -0.13095,2.9912 -0.5742,5.9218 -1.28245,8.4793 -0.17559,0.634 -0.83757,2.6195 -0.95921,2.8769 -0.0441,0.093 -0.0802,0.1809 -0.0802,0.1945 0,0.039 -0.32636,0.8004 -0.56334,1.3136 -0.39975,0.8658 -0.93861,1.8796 -1.4151,2.6624 -0.23271,0.3823 -1.26895,1.8985 -1.49945,2.1939 -1.53032,1.9615 -3.00441,3.4537 -4.97047,5.0316 -0.98311,0.789 -2.00645,1.6785 -2.54222,2.2097 -1.26225,1.2514 -2.70085,2.8423 -3.30545,3.6552 -0.0846,0.1138 -0.22313,0.2957 -0.30777,0.4042 -1.79851,2.3047 -3.3742,4.8857 -4.80547,7.8714 -0.61751,1.2882 -0.86915,1.9208 -1.60181,4.0271 -0.55315,1.5903 -0.70433,2.0993 -0.79309,2.6703 l -0.0474,0.3053 0.012,-0.4922 z"
style="fill:#000000;fill-opacity:1;stroke:#000000;stroke-width:0.49598038;stroke-opacity:1"
id="path5382"
/>
<path
id="path5384"
style="fill:#000000;fill-opacity:1;stroke:#000000;stroke-width:0.49598038;stroke-opacity:1"
d="m 50.7401,59.8279 c -0.82122,-0.094 -1.51929,-0.352 -2.13902,-0.7891 l -0.32316,-0.2279 0.16927,-0.039 c 1.86012,-0.4289 2.84322,-0.7326 4.10501,-1.2681 2.12201,-0.9007 3.95087,-2.1669 5.42055,-3.753 0.95907,-1.035 1.90398,-2.3824 2.54878,-3.6345 0.10383,-0.2016 0.19311,-0.3603 0.19841,-0.3526 0.0179,0.026 -0.27218,0.9738 -0.50619,1.6538 -0.7664,2.2272 -1.72654,4.0495 -2.81066,5.3346 -0.28528,0.3381 -1.29958,1.3747 -1.56699,1.6013 -0.6352,0.5384 -1.93323,1.122 -2.98776,1.3434 -0.65,0.1364 -1.56624,0.1934 -2.10824,0.1311 z"
/>
<path
d="m 49.70906,54.6380999999999 c -0.27409,-0.036 -1.03454,-0.1986 -1.20031,-0.2568 l -0.16927,-0.06 0.24621,-0.1675 c 0.4303,-0.2928 0.87197,-0.5597 1.63119,-0.9857 1.17156,-0.6573 1.56293,-0.8973 2.15441,-1.321 2.90273,-2.0792 5.24513,-4.277 6.88541,-6.4602 1.57081,-2.0908 2.70037,-4.2885 3.70346,-7.2054 0.19384,-0.5636 0.35243,-1.0709 0.35243,-1.1271 0,-0.056 0.0138,-0.1148 0.0308,-0.13 0.056,-0.05 0.0326,0.2299 -0.0772,0.9261 -0.84011,5.3247 -2.41219,9.5164 -4.663,12.4331 -1.65666,2.1468 -3.62898,3.5456 -5.79814,4.1122 -0.7703,0.2011 -1.03073,0.2332 -2.00332,0.2467 -0.52476,0.01 -1.01643,0.01 -1.0926,0 z"
style="fill:#000000;fill-opacity:1;stroke:#000000;stroke-width:0.49598038;stroke-opacity:1"
id="path5386"
/>
<path
d="m 49.9245,49.2399 c 1.01993,-0.8993 1.12035,-0.9904 1.18304,-1.0726 0.0328,-0.043 0.07,-0.078 0.0827,-0.078 0.022,0 0.37669,-0.332 0.67327,-0.6301 0.50963,-0.5123 1.17816,-1.1944 1.30803,-1.3347 0.0846,-0.091 0.29238,-0.3152 0.46165,-0.4973 1.53646,-1.6528 2.98066,-3.4904 4.44436,-5.655 2.0691,-3.0598 3.91509,-6.6782 5.34385,-10.4747 0.31946,-0.8488 0.96249,-2.7244 1.15055,-3.3559 0.0733,-0.2461 0.14622,-0.4676 0.16206,-0.4922 0.0185,-0.029 0.0229,-0.021 0.0123,0.022 -0.009,0.037 -0.0519,0.3692 -0.0952,0.7383 -0.53158,4.5327 -1.65202,8.7553 -3.29958,12.4352 -1.47868,3.3028 -2.96195,5.5817 -4.77906,7.3426 -1.63002,1.5796 -3.3364,2.6087 -5.30023,3.1963 -0.4709,0.1409 -1.34862,0.3335 -1.74777,0.3835 l -0.23082,0.029 0.63093,-0.5563 z"
style="fill:#000000;fill-opacity:1;stroke:#000000;stroke-width:0.49598038;stroke-opacity:1"
id="path5388"
/>
<path
d="m 32.2994,66.6748 c -0.0423,-0.01 -0.20158,-0.038 -0.35393,-0.065 -1.19415,-0.2112 -2.66885,-0.9468 -3.89626,-1.9436 -0.81673,-0.6633 -1.37993,-1.3083 -2.50461,-2.8685 -0.5962,-0.827 -0.78192,-1.1258 -0.57839,-0.9304 1.8357,1.7626 4.13783,2.9133 6.60993,3.3041 1.74756,0.2763 3.66802,0.1403 6.23239,-0.4412 0.54328,-0.1232 0.77462,-0.1665 0.78775,-0.1474 0.0322,0.047 -0.21452,0.436 -0.42167,0.6655 -1.16026,1.2855 -2.62854,2.1201 -4.19962,2.3873 -0.35647,0.061 -1.45178,0.086 -1.67559,0.039 z"
style="fill:#000000;fill-opacity:1;stroke:#000000;stroke-width:0.49598038;stroke-opacity:1"
id="path5390"
/>
<path
d="m 39.44199,61.412 c -0.18814,-0.8246 -0.66407,-2.4965 -0.98394,-3.4566 -1.29329,-3.8819 -2.85928,-6.8968 -5.38922,-10.3754 -0.47372,-0.6513 -1.60038,-2.0219 -2.23135,-2.7144 -0.25391,-0.2786 -0.59678,-0.6549 -0.76194,-0.8361 -1.06054,-1.1635 -3.23507,-3.213 -4.45388,-4.1979 -1.03221,-0.8341 -1.10239,-0.8946 -1.67161,-1.4401 -1.77887,-1.7048 -3.43081,-3.8978 -4.96421,-6.5899 -0.42391,-0.7443 -0.8814,-1.6708 -1.29904,-2.6308 -0.25232,-0.58 -0.61254,-1.5856 -0.8537,-2.3832 -0.14468,-0.4786 -0.27685,-0.906 -0.29369,-0.95 -0.0476,-0.1242 -0.28644,-1.0747 -0.40718,-1.6204 -0.44942,-2.0313 -0.75112,-4.3975 -0.86717,-6.8013 l -0.0173,-0.358 0.0945,0.3803 c 0.45423,1.8271 0.96638,3.501 1.5454,5.0511 0.24426,0.6539 0.90799,2.2911 0.94538,2.3319 0.0113,0.012 0.155,0.3108 0.31941,0.6633 1.26505,2.7124 3.03523,5.3635 5.01175,7.5059 0.93595,1.0145 1.49825,1.5438 3.13358,2.9494 1.29666,1.1145 1.86674,1.6403 2.693,2.4838 2.41399,2.4643 4.34819,5.0138 5.93701,7.8255 0.20029,0.3544 0.68944,1.2921 0.88069,1.6883 1.58721,3.2876 2.70655,6.8873 3.39737,10.9257 0.13265,0.7754 0.1717,1.0359 0.29481,1.9665 0.0591,0.4465 0.11434,1.1752 0.0891,1.1752 -0.007,0 -0.0735,-0.2668 -0.14788,-0.5928 z"
id="path5392"
style="fill:#000000;fill-opacity:1;stroke:#000000;stroke-width:0.49598038;stroke-opacity:1"
/>
<path
d="m 27.94443,59.8295000000001 c -1.26826,-0.1467 -2.70962,-0.6824 -3.55478,-1.3213 -0.17402,-0.1315 -0.61631,-0.5685 -1.09258,-1.0795 -0.67636,-0.7257 -0.87453,-0.966 -1.28036,-1.5531 -0.804,-1.1629 -1.41073,-2.3514 -2.06782,-4.0504 -0.28802,-0.7447 -0.74061,-2.0799 -0.71678,-2.1145 0.0239,-0.035 0.30474,0.403 0.72489,1.1301 1.62354,2.8099 3.75452,4.8244 6.63323,6.2705 1.16176,0.5836 2.93093,1.2006 4.33959,1.5134 0.28777,0.064 0.58554,0.1319 0.66171,0.151 l 0.1385,0.035 -0.28167,0.2083 c -0.46255,0.3419 -0.99576,0.5757 -1.6573,0.7267 -0.29846,0.068 -1.50815,0.1231 -1.84663,0.084 z"
style="fill:#000000;fill-opacity:1;stroke:#000000;stroke-width:0.49598038;stroke-opacity:1"
id="path5394"
/>
<path
d="m 28.20603,54.5749000000001 c -2.73517,-0.3421 -5.08988,-1.8872 -7.03235,-4.6144 -2.21669,-3.1123 -3.77862,-7.476 -4.47924,-12.5141 -0.0692,-0.4977 -0.0717,-0.5438 -0.0298,-0.5438 0.017,0 0.0308,0.048 0.0308,0.1063 0,0.1439 0.0534,0.3236 0.36036,1.2136 0.60229,1.7462 1.29969,3.2916 2.15046,4.7655 0.57839,1.0019 1.43434,2.2464 2.15904,3.1391 2.09784,2.584 4.55816,4.6524 8.07191,6.7861 1.00356,0.6093 2.16102,1.3436 2.19518,1.3926 0.0328,0.047 -0.0673,0.073 -0.71848,0.1856 -0.61209,0.1059 -2.14932,0.1533 -2.70779,0.083 z"
id="path5396"
style="fill:#000000;fill-opacity:1;stroke:#000000;stroke-width:0.49598038;stroke-opacity:1"
/>
<path
id="path5398"
style="fill:#000000;fill-opacity:1;stroke:#000000;stroke-width:0.49598038;stroke-opacity:1"
d="m 30.19116,49.6728000000001 c -0.99458,-0.1419 -2.31682,-0.5435 -3.23161,-0.9815 -3.76369,-1.8019 -6.70094,-5.5855 -9.02019,-11.6192 -0.78141,-2.0329 -1.45789,-4.3671 -1.93952,-6.6923 -0.30627,-1.4787 -0.44051,-2.3031 -0.73754,-4.5294 -0.008,-0.062 0.18396,0.4721 0.42704,1.1857 0.24308,0.7137 0.55502,1.5935 0.69321,1.9551 0.13819,0.3616 0.25124,0.6695 0.25124,0.6842 0,0.015 0.0259,0.081 0.0576,0.148 0.0317,0.067 0.17265,0.4031 0.31333,0.7476 2.80571,6.8719 6.7622,12.7866 11.55527,17.2743 0.31443,0.2944 1.54188,1.3671 1.92856,1.6854 0.14114,0.1162 0.22893,0.2096 0.19507,0.2074 -0.0339,0 -0.25545,-0.032 -0.49244,-0.065 z"
/>
</svg>
