<?xml version="1.0" encoding="UTF-8" standalone="no"?>
<svg
xmlns="http://www.w3.org/2000/svg"
xmlns:dc="http://purl.org/dc/elements/1.1/"
xmlns:cc="http://creativecommons.org/ns#"
xmlns:sodipodi="http://sodipodi.sourceforge.net/DTD/sodipodi-0.dtd"
xmlns:inkscape="http://www.inkscape.org/namespaces/inkscape"
xmlns:svg="http://www.w3.org/2000/svg"
xmlns:rdf="http://www.w3.org/1999/02/22-rdf-syntax-ns#"
>
<path
d="m 78.5184999999999,37.8468 c 0,6.9954 -2.5104,14.3521 -6.2347,21.4236 -14.074,20.1882 -31.8518,38.6844 -31.8518,38.6844 0,0 -20.4526,-17.8689 -33.5391,-39.0645 -3.2714,-6.6154 -5.4114,-13.6108 -5.4114,-20.6253 -0.021,-19.6749 17.2222,-36.7835 38.4978,-36.7835 21.2964,0 38.5392,16.6713 38.5392,36.3653 z"
style="fill:#CCCCCC;fill-opacity:1;stroke:#000000;stroke-width:2.9629848;stroke-miterlimit:4;stroke-dasharray:none;stroke-opacity:1"
id="path11955"
/>
<ellipse
rx="23.000095"
cy="42.7373"
ry="22.263815"
id="ellipse12103"
style="fill:#ffffff;stroke:#000000;stroke-width:3.99980831"
cx="40"
/>
<ellipse
cx="50.5037"
style="fill:#ffffff;stroke:#000000;stroke-width:2.49988008"
ry="5.0629668"
id="ellipse12105"
cy="23.3977"
rx="5.2304029"
/>
<ellipse
rx="4.4178076"
cy="54.9123999999999"
ry="4.2763848"
id="ellipse12107"
style="fill:#000000"
cx="46.0016000000001"
/>
<ellipse
cx="34.7602999999999"
style="fill:#000000"
ry="4.2763848"
id="ellipse12109"
cy="55.1545000000001"
rx="4.4178076"
/>
<ellipse
style="fill:#000000"
cx="52.6412"
cy="45.8655000000001"
ry="4.2763848"
id="ellipse12111"
rx="4.4178076"
/>
<ellipse
rx="4.4178076"
cy="46.0461"
ry="4.2763848"
id="ellipse12113"
style="fill:#000000"
cx="27.8184000000001"
/>
<ellipse
id="ellipse12115"
ry="4.2763848"
cy="35.3800000000001"
cx="50.4362000000001"
style="fill:#000000"
rx="4.4178076"
/>
<ellipse
rx="4.4178076"
style="fill:#000000"
cx="39.9477999999999"
cy="30.2755"
ry="4.2763848"
id="ellipse12117"
/>
<ellipse
rx="4.4178076"
cx="29.4376"
style="fill:#000000"
id="ellipse12119"
ry="4.2763848"
cy="35.4513999999999"
/>
</svg>
