<?xml version="1.0" encoding="UTF-8" standalone="no"?>
<svg
xmlns="http://www.w3.org/2000/svg"
xmlns:cc="http://creativecommons.org/ns#"
xmlns:dc="http://purl.org/dc/elements/1.1/"
xmlns:sodipodi="http://sodipodi.sourceforge.net/DTD/sodipodi-0.dtd"
xmlns:inkscape="http://www.inkscape.org/namespaces/inkscape"
xmlns:svg="http://www.w3.org/2000/svg"
xmlns:rdf="http://www.w3.org/1999/02/22-rdf-syntax-ns#"
>
<path
d="m 78.5185000000001,37.8438000000001 c 0,6.9954 -2.5104,14.3521 -6.2347,21.4236 -14.074,20.1882 -31.8518,38.6844 -31.8518,38.6844 0,0 -20.4526,-17.8689 -33.5391,-39.0645 -3.2715,-6.6154 -5.4114,-13.6108 -5.4114,-20.6253 -0.021,-19.6749 17.2222,-36.7835 38.4978,-36.7835 21.2963,0 38.5392,16.6713 38.5392,36.3653 z"
id="path5815"
style="fill:#99ff55;fill-opacity:1;stroke:#000000;stroke-width:2.9629848;stroke-miterlimit:4;stroke-dasharray:none;stroke-opacity:1"
/>
<path
d="m 53.7966000000001,16.9981 -19.284,0 c 3.4233,2.7098 5.6457,7.0467 5.6457,11.9267 l 0,19.8507 24.8417,0 0,-19.8507 c 0,-6.5868 -5.016,-11.9267 -11.2034,-11.9267 z m -15.8104,50 8.5968,0 0,-15.782 -8.5968,0 0,15.782 z m -11.2981,-50 -0.9689,0 c -5.9201,0 -10.7192,5.1087 -10.7192,11.4112 l 0,20.3662 22.407,0 0,-20.3662 c 0,-6.3025 -4.7989,-11.4112 -10.7189,-11.4112 z m 4.389,13.645 -9.7473,0 0,-3.2527 9.7473,0 0,3.2527 z"
id="path4714"
style="fill:#000000;fill-opacity:1"
/>
</svg>
