<?xml version="1.0" encoding="UTF-8" standalone="no"?>
<svg
xmlns="http://www.w3.org/2000/svg"
xmlns:sodipodi="http://sodipodi.sourceforge.net/DTD/sodipodi-0.dtd"
xmlns:cc="http://creativecommons.org/ns#"
xmlns:dc="http://purl.org/dc/elements/1.1/"
xmlns:svg="http://www.w3.org/2000/svg"
xmlns:inkscape="http://www.inkscape.org/namespaces/inkscape"
xmlns:rdf="http://www.w3.org/1999/02/22-rdf-syntax-ns#"
>
<path
id="path6065"
style="fill:#999999;fill-opacity:1;stroke:#000000;stroke-width:2.9629848;stroke-miterlimit:4;stroke-dasharray:none;stroke-opacity:1"
d="m 78.5185,37.8438000000001 c 0,6.9954 -2.51028,14.3521 -6.23456,21.4236 -14.07406,20.1882 -31.85183,38.6844 -31.85183,38.6844 0,0 -20.45267,-17.8689 -33.53908,-39.0645 -3.27161,-6.6154 -5.41152,-13.6108 -5.41152,-20.6253 -0.0206,-19.6749 17.22221,-36.7835 38.49792,-36.7835 21.29629,0 38.53907,16.6713 38.53907,36.3653 z"
/>
<path
d="m 60.21629,30.7030999999999 c 1.17568,-0.016 4.83174,2.0184 2.3179,7.7467 l -3.44578,-2.0911 1.12788,-5.6556 z"
style="fill:#ffffff;fill-opacity:1;stroke:#000000;stroke-width:1.03022242;stroke-miterlimit:4;stroke-dasharray:none;stroke-opacity:1"
id="path5334"
/>
<path
d="m 60.56039,33.1251999999999 c 0,0 1.87821,0.5934 1.61536,2.297 -0.0573,0.3794 -0.6882,0.4521 -0.86503,0.1009 -0.19117,-0.3795 -0.49704,-0.7266 -0.97973,-0.8276 l 0.2294,-1.5703 z"
id="path5336"
style="fill:#000000;fill-opacity:1;stroke-width:2;stroke-miterlimit:4;stroke-dasharray:none"
/>
<path
id="path5338"
style="fill:#ffffff;fill-opacity:1;stroke:#000000;stroke-width:1.03022242;stroke-miterlimit:4;stroke-dasharray:none;stroke-opacity:1"
d="m 19.97573,30.7030999999999 c -1.17568,-0.016 -4.83174,2.0184 -2.3179,7.7467 l 3.44578,-2.0911 -1.12788,-5.6556 z"
/>
<path
d="m 40.09123,16.9981 c -2.12195,0.1171 -8.06723,-0.065 -12.96587,3.1649 0,0 1.19001,-0.2301 1.78263,-0.2301 0,0 -2.71457,0.4844 -4.956,2.2445 -2.40392,1.8892 -3.99538,4.174 -4.05273,6.1642 0,0 0.41579,-0.2422 0.91282,-0.6055 0,0 -2.19364,4.7432 -0.85547,8.227 0,0 -2.96308,2.2647 -4.13876,6.576 0,0 0.96062,-0.9971 2.09328,-1.2716 0,0 -2.2271,2.3292 -2.70979,5.4618 -0.35366,2.305 -0.13381,3.7502 -0.13381,3.7502 0,0 0.60217,-1.3281 1.33338,-1.7157 0,0 -0.60218,6.2208 2.91051,8.6348 0,0 -0.12904,-1.3322 0.32977,-1.8852 0,0 0.82679,1.7883 4.3108,4.0409 2.97742,1.9255 4.03362,4.4606 4.03362,4.4606 0,0 1.29037,-0.876 1.16611,-1.5299 0,0 0.95584,2.2889 3.60827,3.3425 0,0 -0.1147,-0.8881 0.33454,-1.4573 0,0 0.3441,0.7347 1.07531,1.1868 0.80769,0.5006 1.43854,0.7468 2.51863,0.9042 0,0 -0.54005,-0.5046 -0.45881,-0.9648 0,0 0.62129,0.4602 1.83521,0.7146 1.2139,0.2543 1.6488,0.557 2.02636,0.7871 l 0,-50 z"
id="path5340"
style="fill:#000000;fill-opacity:1"
/>
<path
style="fill:#000000;fill-opacity:1"
id="path5342"
d="m 39.90877,16.9981 c 2.12195,0.1171 8.06723,-0.065 12.96587,3.1649 0,0 -1.19001,-0.2301 -1.78263,-0.2301 0,0 2.71457,0.4844 4.95599,2.2445 2.40393,1.8892 3.99539,4.174 4.05274,6.1642 0,0 -0.41579,-0.2422 -0.91282,-0.6055 0,0 2.19363,4.7432 0.85547,8.227 0,0 2.96308,2.2647 4.13876,6.576 0,0 -0.96062,-0.9971 -2.09328,-1.2716 0,0 2.22709,2.3292 2.70978,5.4618 0.35367,2.305 0.13382,3.7502 0.13382,3.7502 0,0 -0.60217,-1.3281 -1.33338,-1.7157 0,0 0.60217,6.2208 -2.91051,8.6348 0,0 0.12903,-1.3322 -0.32977,-1.8852 0,0 -0.82679,1.7883 -4.31081,4.0409 -2.97741,1.9255 -4.03361,4.4606 -4.03361,4.4606 0,0 -1.29037,-0.876 -1.16612,-1.5299 0,0 -0.95583,2.2889 -3.60826,3.3425 0,0 0.1147,-0.8881 -0.33455,-1.4573 0,0 -0.3441,0.7347 -1.07531,1.1868 -0.80767,0.5006 -1.43852,0.7468 -2.51862,0.9042 0,0 0.54005,-0.5046 0.4588,-0.9648 0,0 -0.62129,0.4602 -1.83519,0.7146 -1.21392,0.2543 -1.64882,0.557 -2.02637,0.7871 l 0,-50 z"
/>
<path
d="m 40.27278,35.3898999999999 c -0.81245,0.024 -4.62145,-2.9186 -9.23812,-2.9186 -4.29647,0 -7.05405,3.5564 -6.89634,8.9577 0.0191,0.6902 0.60218,1.2837 1.39552,1.4371 1.89255,0.3673 5.17584,1.3806 5.3431,3.9681 0.23419,3.6453 -2.99653,3.3022 -2.1076,8.3684 0.88892,5.0662 8.75065,5.1429 11.50344,5.1429 l 0,-24.9556 z"
id="path5344"
style="fill:#ffffff;fill-opacity:1"
/>
<path
style="fill:#ffffff;fill-opacity:1"
id="path5346"
d="m 40.0315,35.3898999999999 c 0.81245,0.024 4.62145,-2.9186 9.23812,-2.9186 4.29647,0 7.05405,3.5564 6.89634,8.9577 -0.0191,0.6902 -0.60218,1.2837 -1.39552,1.4371 -1.89255,0.3673 -5.17583,1.3806 -5.3431,3.9681 -0.23418,3.6453 2.99653,3.3022 2.10761,8.3684 -0.88893,5.0662 -8.75065,5.1429 -11.50345,5.1429 l 0,-24.9556 z"
/>
<path
d="m 38.09832,44.4081000000001 c -0.0526,-0.3633 -1.21391,-1.1222 -2.05982,-1.1828 -0.76467,-0.056 -1.78741,0.3634 -2.78626,1.0375 -1.14699,0.7751 -1.42419,1.6995 -1.42419,2.519 0,0.8194 0.1625,2.3292 1.8352,2.8742 0,0 -0.86503,-1.0254 -0.86503,-2.2606 0,-1.3927 0.51615,-1.8489 1.39074,-2.4867 0.81246,-0.5934 1.33339,-0.7872 1.88299,-0.8316 0.92238,-0.069 2.02637,0.331 2.02637,0.331 z"
style="fill:#000000;fill-opacity:1"
id="path5348"
/>
<path
d="m 38.59535,48.2391 c -0.12426,-0.432 -0.31542,-0.8236 -1.61536,-1.3685 -1.29993,-0.549 -2.19363,-0.6499 -2.19363,0.2745 0,0.9244 0.52571,1.542 0.8937,1.7116 0.36322,0.1695 2.30834,0.7872 2.67633,0.549 0.368,-0.2382 0.35844,-0.7468 0.23896,-1.1666 z"
style="fill:#000000;fill-opacity:1"
id="path5350"
/>
<path
d="m 41.89776,44.4081000000001 c 0.0526,-0.3633 1.2139,-1.1222 2.05981,-1.1828 0.76467,-0.056 1.78741,0.3634 2.78626,1.0375 1.147,0.7751 1.42419,1.6995 1.42419,2.519 0,0.8194 -0.16249,2.3292 -1.8352,2.8742 0,0 0.86502,-1.0254 0.86502,-2.2606 0,-1.3927 -0.51614,-1.8489 -1.39073,-2.4867 -0.81246,-0.5934 -1.33339,-0.7872 -1.88299,-0.8316 -0.92238,-0.069 -2.02636,0.331 -2.02636,0.331 z"
id="path5352"
style="fill:#000000;fill-opacity:1"
/>
<path
d="m 41.40072,48.2391 c 0.12426,-0.432 0.31543,-0.8236 1.61536,-1.3685 1.29993,-0.549 2.19364,-0.6499 2.19364,0.2745 0,0.9244 -0.52571,1.542 -0.89371,1.7116 -0.36322,0.1695 -2.30833,0.7872 -2.67633,0.549 -0.36322,-0.2422 -0.36322,-0.7468 -0.23896,-1.1666 z"
id="path5354"
style="fill:#000000;fill-opacity:1"
/>
<ellipse
style="fill:#000000;fill-opacity:1"
cx="47.85258"
cy="38.4498000000001"
ry="2.3130953"
id="ellipse5356"
rx="2.2796614"
/>
<ellipse
rx="2.2796614"
id="ellipse5358"
ry="2.3130953"
cy="38.4498000000001"
cx="31.88063"
style="fill:#000000;fill-opacity:1"
/>
<path
d="m 40.09601,53.7897 c -4.27735,0 -7.69924,3.1043 -8.21538,3.1043 -1.02752,0 -1.65838,-1.1384 -1.65838,-1.1384 0,0 -0.24851,-0.3391 0,-0.5086 0.24852,-0.1736 0.42535,0.097 0.63086,0.222 0.2055,0.1251 0.54482,0.2947 0.97494,0.2705 0.43013,-0.024 3.76598,-2.9873 8.26796,-2.9873 4.50197,0 7.95253,2.9146 8.36353,2.9388 0.41101,0.024 0.74078,-0.024 1.04664,-0.2462 0.23418,-0.1696 0.5066,-0.4199 0.76945,-0.2705 0.26285,0.1494 0.0621,0.4037 -0.12904,0.5853 0,0 -0.63085,1.1384 -1.65837,1.1384 -0.51137,0 -3.93803,-3.1043 -8.21538,-3.1043"
id="path5360"
style="fill:#000000;fill-opacity:1"
/>
<path
id="path5362"
style="fill:#000000;fill-opacity:1;stroke:none;stroke-width:2;stroke-miterlimit:4;stroke-dasharray:none;stroke-opacity:1"
d="m 19.63162,33.1251999999999 c 0,0 -1.8782,0.5934 -1.61535,2.297 0.0574,0.3794 0.6882,0.4521 0.86503,0.1009 0.19116,-0.3795 0.49703,-0.7266 0.97973,-0.8276 l -0.22941,-1.5703 z"
/>
<path
id="path5364"
style="fill:#ffffff;fill-opacity:1"
d="m 34.50439,59.8852999999999 c 0,0 0.56872,0.4844 0.95105,0.7589 0.75989,0.549 1.62491,0.7589 1.62491,0.7589 0,0 -0.74077,-0.5369 -0.59739,-1.3886 l -1.97857,-0.1292 z"
/>
<path
d="m 37.08035,60.1275000000001 c 0,0 0.20551,0.5409 0.89849,0.985 0.67864,0.4319 0.69298,0.8759 0.69298,0.8759 0,0 0.32498,-0.444 0.0669,-1.0011 -0.21985,-0.4804 -0.0239,-0.8598 -0.0239,-0.8598 l -1.63448,0 z"
id="path5366"
style="fill:#ffffff;fill-opacity:1"
/>
<path
style="fill:#ffffff;fill-opacity:1"
id="path5368"
d="m 45.63028,59.8852999999999 c 0,0 -0.56872,0.4844 -0.95105,0.7589 -0.75989,0.549 -1.62492,0.7589 -1.62492,0.7589 0,0 0.74077,-0.5369 0.5974,-1.3886 l 1.97857,-0.1292 z"
/>
<path
d="m 43.05431,60.1275000000001 c 0,0 -0.2055,0.5409 -0.89848,0.985 -0.67864,0.4319 -0.69298,0.8759 -0.69298,0.8759 0,0 -0.32499,-0.444 -0.0669,-1.0011 0.21984,-0.4804 0.0239,-0.8598 0.0239,-0.8598 l 1.63447,0 z"
style="fill:#ffffff;fill-opacity:1"
id="path5370"
/>
<path
d="m 39.35046,60.2324000000001 c 0,0 -0.15771,0.5975 0.3441,1.4291 0.50181,0.8316 0.31065,1.1222 0.31065,1.1222 0,0 0.34409,-0.8195 0.55438,-1.1384 0.2055,-0.3229 0.36321,-1.1182 0.24373,-1.4129 l -1.45286,0 z"
id="path5374"
style="fill:#ffffff;fill-opacity:1"
/>
</svg>
