<?xml version="1.0" encoding="UTF-8" standalone="no"?>
<svg
xmlns:rdf="http://www.w3.org/1999/02/22-rdf-syntax-ns#"
xmlns:inkscape="http://www.inkscape.org/namespaces/inkscape"
xmlns:svg="http://www.w3.org/2000/svg"
xmlns:dc="http://purl.org/dc/elements/1.1/"
xmlns:cc="http://creativecommons.org/ns#"
xmlns:sodipodi="http://sodipodi.sourceforge.net/DTD/sodipodi-0.dtd"
xmlns="http://www.w3.org/2000/svg"
>
<path
d="m 78.51851,37.8436999999999 c 0,6.9954 -2.51028,14.3521 -6.23455,21.4236 -14.07407,20.1882 -31.85185,38.6844 -31.85185,38.6844 0,0 -20.45266,-17.8689 -33.53907,-39.0645 -3.27162,-6.6154 -5.41153,-13.6108 -5.41153,-20.6253 -0.0205,-19.6749 17.22221,-36.7835 38.49792,-36.7835 21.29629,0 38.53908,16.6713 38.53908,36.3653 z"
style="fill:#FF8080;fill-opacity:1;stroke:#000000;stroke-width:2.9629848;stroke-miterlimit:4;stroke-dasharray:none;stroke-opacity:1"
id="path5546"
/>
<path
id="path4146"
style="fill:#000000"
d="m 28.9628,48.3967 4.14315,1.3422 c 5.1503,1.6683 8.61715,1.668 13.2625,0 l 3.6134,-1.2985 c 6.64625,5.0261 10.40625,11.619 15.01815,18.5577 l -50,-0.044 c 3.66595,-6.8813 8.05435,-13.3061 13.9628,-18.5574 z"
/>
<path
style="fill:#000000"
id="path4148"
d="m 35.64685,44.2502999999999 c -6.44685,-2.5116 -9.79375,-7.7555 -9.27185,-14.5253 0.5822,-7.5505 5.9803,-12.7123 13.30845,-12.7267 7.15185,-0.032 12.6628,5.1558 13.3006,12.4778 0.7044,8.0804 -4.75375,14.7557 -12.48655,15.2716 -1.82905,0.1213 -3.7728,-0.077 -4.85065,-0.4974 z"
/>
</svg>
