<?xml version="1.0" encoding="UTF-8" standalone="no"?>
<svg
xmlns:rdf="http://www.w3.org/1999/02/22-rdf-syntax-ns#"
xmlns:inkscape="http://www.inkscape.org/namespaces/inkscape"
xmlns:svg="http://www.w3.org/2000/svg"
xmlns:cc="http://creativecommons.org/ns#"
xmlns:dc="http://purl.org/dc/elements/1.1/"
xmlns:sodipodi="http://sodipodi.sourceforge.net/DTD/sodipodi-0.dtd"
xmlns="http://www.w3.org/2000/svg"
>
<path
id="path6177"
style="fill:#bce3ff;fill-opacity:1;stroke:#000000;stroke-width:2.9629848;stroke-miterlimit:4;stroke-dasharray:none;stroke-opacity:1"
d="m 78.5184999999999,37.84384 c 0,6.9954 -2.5104,14.3521 -6.2347,21.4236 -14.074,20.1882 -31.8518,38.6844 -31.8518,38.6844 0,0 -20.4526,-17.8689 -33.5391,-39.0645 -3.2714,-6.6154 -5.4114,-13.6108 -5.4114,-20.6253 -0.021,-19.6749 17.2222,-36.7835 38.4978,-36.7835 21.2964,0 38.5392,16.6713 38.5392,36.3653 z"
/>
<ellipse
rx="23.000095"
ry="22.263815"
id="ellipse5814"
cy="42.7344399999999"
cx="40"
style="fill:#ffffff;stroke:#000000;stroke-width:3.99980831"
/>
<ellipse
cy="23.39484"
ry="5.0629668"
id="ellipse5816"
style="fill:#ffffff;stroke:#000000;stroke-width:2.49988008"
cx="50.5037"
rx="5.2304029"
/>
<ellipse
ry="4.2763848"
id="ellipse5818"
cy="54.90936"
cx="46.0016000000001"
style="fill:#000000"
rx="4.4178076"
/>
<ellipse
ry="4.2763848"
id="ellipse5820"
cy="55.15167"
cx="34.7602999999999"
style="fill:#000000"
rx="4.4178076"
/>
<ellipse
rx="4.4178076"
cx="52.6412"
style="fill:#000000"
id="ellipse5822"
ry="4.2763848"
cy="45.86249"
/>
<ellipse
rx="4.4178076"
style="fill:#000000"
cx="27.8184000000001"
cy="46.04327"
id="ellipse5824"
ry="4.2763848"
/>
<ellipse
ry="4.2763848"
id="ellipse5826"
cy="35.3771400000001"
cx="50.4362000000001"
style="fill:#000000"
rx="4.4178076"
/>
<ellipse
rx="4.4178076"
ry="4.2763848"
id="ellipse5828"
cy="30.27252"
cx="39.9477999999999"
style="fill:#000000"
/>
<ellipse
rx="4.4178076"
cy="35.44855"
ry="4.2763848"
id="ellipse5830"
style="fill:#000000"
cx="29.4376"
/>
</svg>
