<?xml version="1.0" encoding="UTF-8" standalone="no"?>
<svg
xmlns:inkscape="http://www.inkscape.org/namespaces/inkscape"
xmlns:svg="http://www.w3.org/2000/svg"
xmlns:rdf="http://www.w3.org/1999/02/22-rdf-syntax-ns#"
xmlns="http://www.w3.org/2000/svg"
xmlns:cc="http://creativecommons.org/ns#"
xmlns:dc="http://purl.org/dc/elements/1.1/"
xmlns:sodipodi="http://sodipodi.sourceforge.net/DTD/sodipodi-0.dtd"
>
<path
id="path6167"
style="fill:#bce3ff;fill-opacity:1;stroke:#000000;stroke-width:2.9629848;stroke-miterlimit:4;stroke-dasharray:none;stroke-opacity:1"
d="m 78.5184999999999,37.84384 c 0,6.9954 -2.5104,14.3521 -6.2347,21.4236 -14.074,20.1882 -31.8518,38.6844 -31.8518,38.6844 0,0 -20.4526,-17.8689 -33.5391,-39.0645 -3.2715,-6.6154 -5.4114,-13.6108 -5.4114,-20.6253 -0.021,-19.6749 17.2222,-36.7835 38.4978,-36.7835 21.2963,0 38.5392,16.6713 38.5392,36.3653 z"
/>
<path
style="fill:#000000"
id="path5772"
d="m 15.0003999999999,56.5614 0,-10.4366 2.5707,2.5684 2.5706,2.5684 4.6708,-4.6721 4.6707,-4.672 -4.6798,-4.5839 -4.6797,-4.584 -2.5616,2.5617 -2.5617,2.5617 0,-10.4375 0,-10.4374 10.3576,0 10.3575,0 -2.5527,2.6491 -2.5527,2.649 4.6641,4.5687 4.6641,4.5686 4.7414,-4.6482 4.7414,-4.6482 -2.6483,-2.5639 -2.6482,-2.5639 10.4377,-0.01 10.4377,-0.01 0,10.3732 0,10.3732 -2.5707,-2.5684 -2.5706,-2.5684 -4.6939,4.6952 -4.6938,4.6951 4.6947,4.7022 4.6948,4.7022 2.5645,-2.64 2.5646,-2.64 0,10.4378 0.01,10.4378 -10.4377,0 -10.4377,-0.01 2.6404,-2.5564 2.6404,-2.5564 -4.7336,-4.735 -4.7337,-4.735 -4.6567,4.6555 -4.6567,4.6554 2.5454,2.6415 2.5454,2.6415 -10.3575,0 -10.3576,0 0,-10.4366 z"
/>
</svg>
