<?xml version="1.0" encoding="UTF-8" standalone="no"?>
<svg
xmlns="http://www.w3.org/2000/svg"
xmlns:dc="http://purl.org/dc/elements/1.1/"
xmlns:cc="http://creativecommons.org/ns#"
xmlns:sodipodi="http://sodipodi.sourceforge.net/DTD/sodipodi-0.dtd"
xmlns:inkscape="http://www.inkscape.org/namespaces/inkscape"
xmlns:svg="http://www.w3.org/2000/svg"
xmlns:rdf="http://www.w3.org/1999/02/22-rdf-syntax-ns#"
>
<path
style="fill:#bce3ff;fill-opacity:1;stroke:#000000;stroke-width:2.9629848;stroke-miterlimit:4;stroke-dasharray:none;stroke-opacity:1"
id="path6169"
d="m 78.5184999999999,37.84384 c 0,6.9954 -2.5104,14.3521 -6.2346,21.4236 -14.0741,20.1882 -31.8519,38.6844 -31.8519,38.6844 0,0 -20.4526,-17.8689 -33.539,-39.0645 -3.2716,-6.6154 -5.4115,-13.6108 -5.4115,-20.6253 -0.021,-19.6749 17.2223,-36.7835 38.4978,-36.7835 21.2963,0 38.5392,16.6713 38.5392,36.3653 z"
/>
<path
d="m 26.9831999999999,15.09825 c -1.4247,0.24152 -2.754,1.44843 -3.378,3.04152 l -0.2853,0.74026 0,16.25414 0,16.25352 0.3796,0.91762 c 0.4751,1.15849 1.4926,2.26918 2.4423,2.65535 0.6649,0.27359 1.6553,0.28994 19.0891,0.28994 l 18.3836,0 0.7459,-0.41824 c 1.0854,-0.5956 1.6957,-1.30378 2.1978,-2.52642 l 0.4476,-1.07799 0,-16.09252 0,-16.09251 -0.4476,-1.07799 c -0.4883,-1.20692 -1.194,-1.97925 -2.2794,-2.57485 l -0.6649,-0.36982 -17.9762,-0.0164 c -9.8904,-0.0182 -18.2881,0.0302 -18.6545,0.0943 z"
id="path5774"
style="fill:#ffffff;fill-opacity:1"
/>
<path
id="path5795"
style="fill:#000000"
d="m 26.9833000000001,15.09828 c -1.4248,0.24151 -2.7541,1.44843 -3.3781,3.04152 l -0.2853,0.74025 0,16.25414 0,16.25351 0.3796,0.91761 c 0.4751,1.15849 1.4926,2.26919 2.4423,2.65535 0.6649,0.27359 1.6553,0.28994 19.0893,0.28994 l 18.3836,0 0.746,-0.41824 c 1.0854,-0.5956 1.6956,-1.30378 2.1977,-2.52642 l 0.4476,-1.07799 0,-16.09251 0,-16.0925 -0.4476,-1.07799 c -0.4883,-1.20692 -1.194,-1.97925 -2.2794,-2.57485 l -0.6649,-0.36981 -17.9763,-0.0164 c -9.8904,-0.0182 -18.2881,0.0302 -18.6545,0.0943 z m 35.722,20.06798 -0.041,14.93401 -17.5288,0.0484 -17.5421,0.0321 0,-14.96608 0,-14.96608 17.5696,0 17.5697,0 -0.028,14.91765 z"
/>
<path
id="path5799"
style="fill:#ffffff;fill-opacity:1"
d="m 18.6693,26.84765 c -1.4247,0.24152 -2.754,1.44843 -3.378,3.04152 l -0.2853,0.74026 0,16.25414 0,16.25352 0.3797,0.91762 c 0.475,1.15849 1.4926,2.26918 2.4422,2.65535 0.6649,0.27359 1.6554,0.28994 19.0892,0.28994 l 18.3834,0 0.7461,-0.41824 c 1.0853,-0.5956 1.6957,-1.30378 2.1978,-2.52642 l 0.4475,-1.07799 0,-16.09252 0,-16.09251 -0.4475,-1.07799 c -0.4884,-1.20692 -1.1941,-1.97925 -2.2795,-2.57485 l -0.6649,-0.36982 -17.9762,-0.0164 c -9.8903,-0.0182 -18.2881,0.0302 -18.6545,0.0943 z"
/>
<path
style="fill:#000000"
id="path5804"
d="m 18.9304999999999,23.98565 c -1.5263,0.25872 -2.9504,1.55167 -3.6189,3.25831 l -0.3056,0.79302 0,17.41272 0,17.41205 0.4067,0.98302 c 0.509,1.24107 1.599,2.43093 2.6163,2.84463 0.7124,0.29308 1.7734,0.3106 20.45,0.3106 l 19.6939,0 0.7993,-0.44805 c 1.1627,-0.63806 1.8165,-1.39671 2.3544,-2.70651 l 0.4794,-1.15483 0,-17.23956 0,-17.23956 -0.4794,-1.15483 c -0.5232,-1.29295 -1.2792,-2.12034 -2.442,-2.75839 l -0.7123,-0.39617 -19.2576,-0.0175 c -10.5953,-0.0195 -19.5917,0.0323 -19.9842,0.10106 z m 38.2682,21.49841 -0.044,15.9985 -18.7782,0.0519 -18.7925,0.0344 0,-16.03286 0,-16.03285 18.822,0 18.822,0 -0.03,15.98097 z"
/>
<path
id="path5806"
style="fill:#000000"
d="m 22.3951,57.68236 c -0.07,-0.0702 -0.1268,-3.61331 -0.1268,-7.87362 l 0,-7.74601 0.7239,0 c 0.9706,0 28.8906,2.4465 29.1935,2.55811 0.1869,0.0688 0.2274,1.48835 0.1886,6.58983 l -0.049,6.50217 -14.9014,0.0486 c -8.1957,0.0267 -14.9584,-0.009 -15.0281,-0.079 z"
/>
<path
style="fill:#000000"
id="path5812"
d="m 53.3067000000001,49.44088 c -0.074,-0.0743 -0.1341,-1.05977 -0.1341,-2.19005 0,-1.9286 0.023,-2.05507 0.3769,-2.05507 0.3655,0 0.3769,-0.12647 0.3769,-4.1639 l 0,-4.1639 -1.0835,-0.0569 -1.0836,-0.0569 0,-0.7588 0,-0.75879 1.7902,0 1.7901,0 0,7.11369 0,7.11368 -0.9494,0.0559 c -0.5222,0.0308 -1.0098,-0.005 -1.0835,-0.079 z"
/>
<path
style="fill:#000000"
id="path5814"
d="m 36.5123000000001,41.57632 c -7.9713,-0.71262 -14.6107,-1.34101 -14.7541,-1.39643 -0.1947,-0.0752 -0.2468,-0.4263 -0.2052,-1.38385 l 0.056,-1.28306 15.6199,-0.0485 c 11.3837,-0.0354 15.6895,0.01 15.8761,0.16549 0.1896,0.15828 0.2562,0.79689 0.2562,2.45167 0,1.2307 -0.052,2.37266 -0.1144,2.5377 -0.1641,0.4309 -0.4388,0.41378 -16.7344,-1.043 z"
/>
<path
id="path5816"
style="fill:#000000"
d="m 22.3456000000001,36.58823 c -0.058,-0.15193 -0.078,-0.51821 -0.044,-0.81394 l 0.061,-0.53769 1.6018,0 1.6018,0 0,0.75879 0,0.75879 -1.5577,0.0552 c -1.2264,0.0434 -1.58,-0.004 -1.6628,-0.2211 z"
/>
<path
style="fill:#000000"
id="path5819"
d="m 30.0759,36.59936 c -0.055,-0.1455 -0.075,-0.81041 -0.045,-1.4776 l 0.057,-1.21305 7.2549,0 7.255,0 0,1.42273 0,1.42274 -1.5856,0.0556 c -1.72,0.0603 -1.8925,-0.0267 -1.8977,-0.95667 l -0.01,-0.52167 -3.7574,0 -3.7574,0 -0.059,0.71137 -0.058,0.71137 -1.652,0.0549 c -1.2768,0.0424 -1.6748,-0.005 -1.7528,-0.20968 z"
/>
</svg>
