<?xml version="1.0" encoding="UTF-8" standalone="no"?>
<svg
xmlns:svg="http://www.w3.org/2000/svg"
xmlns:inkscape="http://www.inkscape.org/namespaces/inkscape"
xmlns:rdf="http://www.w3.org/1999/02/22-rdf-syntax-ns#"
xmlns="http://www.w3.org/2000/svg"
xmlns:sodipodi="http://sodipodi.sourceforge.net/DTD/sodipodi-0.dtd"
xmlns:dc="http://purl.org/dc/elements/1.1/"
xmlns:cc="http://creativecommons.org/ns#"
>
<path
id="path5687"
style="fill:#6b98ff;fill-opacity:1;stroke:#000000;stroke-width:2.9629848;stroke-miterlimit:4;stroke-dasharray:none;stroke-opacity:1"
d="m 78.5184999999999,37.8435999999999 c 0,6.9954 -2.5104,14.3521 -6.2347,21.4236 -14.074,20.1882 -31.8518,38.6845 -31.8518,38.6845 0,0 -20.4526,-17.869 -33.5391,-39.0646 -3.2715,-6.6154 -5.4114,-13.6108 -5.4114,-20.6253 -0.021,-19.6749 17.2222,-36.7835 38.4978,-36.7835 21.2963,0 38.5392,16.6713 38.5392,36.3653 z"
/>
<path
style="fill:#000000;fill-opacity:1"
id="path5843"
d="m 23.3389,67.9538 c -1.3316,-0.1873 -1.9239,-0.6636 -3.6046,-2.8993 -1.497,-1.991 -1.7208,-2.5091 -1.7338,-4.0128 -0.012,-1.1314 0.1808,-1.8496 0.7229,-2.7258 0.2594,-0.4192 4.9791,-4.9028 5.2851,-5.0207 0.095,-0.036 7.2521,9.3707 7.2165,9.4847 -0.076,0.2443 -4.967,4.559 -5.4491,4.8073 -0.6907,0.3557 -1.5715,0.4883 -2.4369,0.3666 z m 5.2445,-10.7463 c -1.9413,-2.5692 -3.5425,-4.711 -3.5585,-4.7595 -0.016,-0.049 1.792,-1.7537 4.0176,-3.7892 2.2257,-2.0355 4.3411,-3.9722 4.701,-4.3038 0.3597,-0.3316 2.6737,-2.4469 5.1422,-4.7006 l 4.4883,-4.0978 0.1975,0.2762 c 0.1087,0.1518 1.702,2.2659 3.5407,4.698 1.8387,2.432 3.3481,4.4815 3.3542,4.5544 0.013,0.1147 -1.657,1.6634 -10.0932,9.38 -6.2395,5.7071 -8.124,7.4135 -8.1875,7.4135 -0.04,0 -1.6612,-2.102 -3.6023,-4.6712 z m 10.1356,-11.0115 c 0.4525,-0.2666 3.0677,-2.7481 3.2091,-3.045 0.2075,-0.436 0.076,-0.8801 -0.4573,-1.5474 -0.4121,-0.5156 -0.5205,-0.5864 -0.8968,-0.5864 -0.387,0 -0.5757,0.1353 -1.974,1.4159 -0.8504,0.7788 -1.5938,1.5139 -1.652,1.6337 -0.2004,0.412 -0.1063,0.8085 0.3362,1.4254 0.5701,0.7939 0.9584,0.9844 1.4348,0.7038 z m 15.6827,-1.8659 c -0.4438,-0.5755 -0.8979,-1.1711 -1.0093,-1.3237 l -0.2023,-0.2774 -0.8503,0.7985 c -0.4676,0.4392 -0.8877,0.7524 -0.9335,0.696 -0.046,-0.057 -1.5489,-2.0399 -3.3402,-4.4076 -1.7913,-2.3677 -3.3876,-4.4746 -3.5473,-4.6821 l -0.2903,-0.3771 0.8692,-0.7916 0.8693,-0.7915 -0.919,-1.1932 c -1.0574,-1.3729 -1.1814,-1.5916 -1.0873,-1.9181 0.096,-0.3339 0.5388,-0.6261 0.8065,-0.5326 0.3089,0.1079 11.3512,14.7151 11.3936,15.072 0.058,0.4839 -0.1596,0.7748 -0.5784,0.7748 -0.3362,0 -0.4553,-0.1057 -1.1807,-1.0464 z m 3.029,-1.0484 c -0.239,-0.095 -0.4405,-0.1745 -0.4479,-0.1755 -0.013,-10e-4 -2.3786,-3.1251 -5.2694,-6.9425 -3.2108,-4.2399 -5.3384,-7.1496 -5.4677,-7.4776 -0.1722,-0.4371 -0.1914,-0.6196 -0.1025,-0.9816 0.1063,-0.4309 4.6671,-8.1645 4.8076,-8.151 0.099,0.01 15.1647,19.97 15.2035,20.1415 0.033,0.1413 -7.3297,3.5524 -7.9629,3.6897 -0.1805,0.039 -0.5198,-0.01 -0.7606,-0.103 z m 2.2326,-14.2424 c -4.2099,-5.5655 -7.744,-10.2448 -7.8537,-10.3983 -0.1979,-0.2769 -0.1968,-0.2808 0.125,-0.464 0.387,-0.2202 1.1905,-0.2412 1.5888,-0.042 0.2984,0.1496 14.099,18.3087 14.3723,18.9112 0.2733,0.6028 -0.028,1.9091 -0.4762,2.0741 -0.056,0.021 -3.5466,-4.5161 -7.7562,-10.0816 z"
/>
</svg>
