<?xml version="1.0" encoding="UTF-8" standalone="no"?>
<svg
xmlns="http://www.w3.org/2000/svg"
xmlns:sodipodi="http://sodipodi.sourceforge.net/DTD/sodipodi-0.dtd"
xmlns:cc="http://creativecommons.org/ns#"
xmlns:dc="http://purl.org/dc/elements/1.1/"
xmlns:svg="http://www.w3.org/2000/svg"
xmlns:inkscape="http://www.inkscape.org/namespaces/inkscape"
xmlns:rdf="http://www.w3.org/1999/02/22-rdf-syntax-ns#"
>
<path
d="m 78.5184999999999,37.8438000000001 c 0,6.9954 -2.5104,14.3521 -6.2347,21.4236 -14.074,20.1882 -31.8518,38.6844 -31.8518,38.6844 0,0 -20.4526,-17.8689 -33.5391,-39.0645 -3.2714,-6.6154 -5.4114,-13.6108 -5.4114,-20.6253 -0.021,-19.6749 17.2222,-36.7835 38.4978,-36.7835 21.2964,0 38.5392,16.6713 38.5392,36.3653 z"
id="path5801"
style="fill:#99ff55;fill-opacity:1;stroke:#000000;stroke-width:2.9629848;stroke-miterlimit:4;stroke-dasharray:none;stroke-opacity:1"
/>
<ellipse
rx="23.000095"
cy="42.7344000000001"
ry="22.263815"
id="ellipse4656"
style="fill:#ffffff;stroke:#000000;stroke-width:3.99980831"
cx="40"
/>
<ellipse
ry="5.0629668"
id="ellipse4658"
cy="23.3948"
cx="50.5037"
style="fill:#ffffff;stroke:#000000;stroke-width:2.49988008"
rx="5.2304029"
/>
<ellipse
rx="4.4178076"
style="fill:#000000"
cx="46.0016000000001"
cy="54.9094"
id="ellipse4660"
ry="4.2763848"
/>
<ellipse
ry="4.2763848"
id="ellipse4662"
cy="55.1515999999999"
cx="34.7602999999999"
style="fill:#000000"
rx="4.4178076"
/>
<ellipse
cy="45.8625"
ry="4.2763848"
id="ellipse4664"
style="fill:#000000"
cx="52.6412"
rx="4.4178076"
/>
<ellipse
rx="4.4178076"
style="fill:#000000"
cx="27.8184000000001"
cy="46.0432000000001"
id="ellipse4666"
ry="4.2763848"
/>
<ellipse
style="fill:#000000"
cx="50.4362000000001"
cy="35.3770999999999"
id="ellipse4668"
ry="4.2763848"
rx="4.4178076"
/>
<ellipse
style="fill:#000000"
cx="39.9477999999999"
cy="30.2726"
id="ellipse4670"
ry="4.2763848"
rx="4.4178076"
/>
<ellipse
rx="4.4178076"
style="fill:#000000"
cx="29.4376"
cy="35.4485"
id="ellipse4672"
ry="4.2763848"
/>
</svg>
