<?xml version="1.0" encoding="UTF-8" standalone="no"?>
<svg
xmlns:dc="http://purl.org/dc/elements/1.1/"
xmlns:cc="http://creativecommons.org/ns#"
xmlns:sodipodi="http://sodipodi.sourceforge.net/DTD/sodipodi-0.dtd"
xmlns="http://www.w3.org/2000/svg"
xmlns:rdf="http://www.w3.org/1999/02/22-rdf-syntax-ns#"
xmlns:inkscape="http://www.inkscape.org/namespaces/inkscape"
xmlns:svg="http://www.w3.org/2000/svg"
>
<path
id="path11971"
style="fill:#CCCCCC;fill-opacity:1;stroke:#000000;stroke-width:2.96299362;stroke-miterlimit:4;stroke-dasharray:none;stroke-opacity:1"
d="m 78.5185000000001,37.8467000000001 c 0,6.9955 -2.5104,14.3522 -6.2347,21.4238 -14.074,20.1881 -31.8518,38.6843 -31.8518,38.6843 0,0 -20.4526,-17.8689 -33.539,-39.0646 -3.2715,-6.6153 -5.4115,-13.6107 -5.4115,-20.6253 -0.021,-19.6748 17.2222,-36.7834 38.498,-36.7834 21.2962,0 38.539,16.6713 38.539,36.3652 z"
/>
<rect
x="18.4978000000001"
width="43.133514"
height="31.819805"
id="rect12157"
y="32.7064"
style="opacity:1;fill:#ffffff;fill-opacity:1;stroke:#ffffff;stroke-width:1;stroke-miterlimit:4;stroke-dasharray:none;stroke-opacity:1"
/>
<path
d="m 59.4445000000001,22.001 -2.7778,0 0,-5 -5.5556,0 0,5 -22.2222,0 0,-5 -5.5556,0 0,5 -2.7777,0 c -3.067,0 -5.5273,2.2398 -5.5273,5 l -0.028,35 c 0,2.7602 2.4887,5 5.5556,5 l 38.8889,0 c 3.0668,0 5.5555,-2.2398 5.5555,-5 l 0,-35 c 0,-2.7602 -2.4887,-5 -5.5555,-5 l 0,0 z"
style="fill:#000000"
id="path12159"
/>
<path
style="fill:#ffffff"
id="path12161"
d="m 59.4445000000001,62.001 -38.8889,0 0,-35.1014 38.8889,0 0,35.1014 z"
/>
<path
d="m 40.1361000000002,40.8458000000001 -2.2557,-2.9965 -10.3716,13.8046 -4.507,-5.9987 -2.2513,2.9965 6.7583,9.0009 12.6273,-16.8068 0,0 z"
style="fill:#000000"
id="path12163"
/>
<path
style="fill:#000000"
id="path12165"
d="m 49.4158000000002,40.8458000000001 -2.2557,-2.9965 -10.3715,13.8046 -4.507,-5.9987 -2.2513,2.9965 6.7583,9.0009 12.6272,-16.8068 0,0 z"
/>
<path
d="m 58.6956,40.8458000000001 -2.2557,-2.9965 -10.3716,13.8046 -4.5069,-5.9987 -2.2513,2.9965 6.7582,9.0009 12.6273,-16.8068 0,0 z"
style="fill:#000000"
id="path12167"
/>
<path
id="path12169"
style="fill:#000000;fill-opacity:1;stroke:#000000;stroke-width:0.5;stroke-opacity:1"
d="m 30.4351000000001,36.0124000000001 -1.0877,0 0,-7.0477 -2.2741,4.7955 -0.6483,0 -2.2576,-4.7955 0,7.0477 -1.0163,0 0,-8.1793 1.4832,0 2.1808,4.5538 2.1094,-4.5538 1.5106,0 0,8.1793 z"
/>
<path
d="m 38.5320999999999,36.0124000000001 -5.3888,0 0,-8.1793 5.3888,0 0,0.9668 -4.3011,0 0,2.2412 4.3011,0 0,0.9668 -4.3011,0 0,3.0377 4.3011,0 0,0.9668 z"
style="fill:#000000;fill-opacity:1;stroke:#000000;stroke-width:0.5;stroke-opacity:1"
id="path12171"
/>
<path
d="m 48.585,35.4081000000001 q -0.6702,0.3077 -1.4667,0.5384 -0.7911,0.2252 -1.5326,0.2252 -0.9558,0 -1.7524,-0.2637 -0.7964,-0.2637 -1.3568,-0.791 -0.5657,-0.5328 -0.8733,-1.3294 -0.3077,-0.802 -0.3077,-1.8731 0,-1.9611 1.1426,-3.0927 1.1481,-1.137 3.1476,-1.137 0.6976,0 1.4227,0.1702 0.7306,0.1648 1.5711,0.5658 l 0,1.2909 -0.099,0 q -0.1703,-0.1318 -0.4944,-0.346 -0.3241,-0.2143 -0.6372,-0.3571 -0.3791,-0.1703 -0.8625,-0.2802 -0.4779,-0.1153 -1.0876,-0.1153 -1.3733,0 -2.1752,0.8844 -0.7966,0.8789 -0.7966,2.384 0,1.5875 0.835,2.4719 0.8349,0.879 2.2741,0.879 0.5274,0 1.0492,-0.1044 0.5274,-0.1044 0.9229,-0.2692 l 0,-2.005 -2.1918,0 0,-0.9558 3.2684,0 0,3.5101 z"
style="fill:#000000;fill-opacity:1;stroke:#000000;stroke-width:0.5;stroke-opacity:1"
id="path12173"
/>
<path
d="m 58.4346,36.0124000000001 -1.1591,0 -0.802,-2.2797 -3.5376,0 -0.802,2.2797 -1.1041,0 2.9773,-8.1793 1.4502,0 2.9773,8.1793 z m -2.2961,-3.2135 -1.4338,-4.0155 -1.4392,4.0155 2.873,0 z"
id="path12175"
style="fill:#000000;fill-opacity:1;stroke:#000000;stroke-width:0.5;stroke-opacity:1"
/>
</svg>
