<?xml version="1.0" encoding="UTF-8" standalone="no"?>
<svg
xmlns:rdf="http://www.w3.org/1999/02/22-rdf-syntax-ns#"
xmlns:inkscape="http://www.inkscape.org/namespaces/inkscape"
xmlns:svg="http://www.w3.org/2000/svg"
xmlns:cc="http://creativecommons.org/ns#"
xmlns:dc="http://purl.org/dc/elements/1.1/"
xmlns:sodipodi="http://sodipodi.sourceforge.net/DTD/sodipodi-0.dtd"
xmlns="http://www.w3.org/2000/svg"
>
<path
id="path6181"
style="fill:#bce3ff;fill-opacity:1;stroke:#000000;stroke-width:2.9629848;stroke-miterlimit:4;stroke-dasharray:none;stroke-opacity:1"
d="m 78.5184999999999,37.84384 c 0,6.9954 -2.5104,14.3521 -6.2347,21.4236 -14.074,20.1882 -31.8518,38.6844 -31.8518,38.6844 0,0 -20.4526,-17.8689 -33.5391,-39.0645 -3.2715,-6.6154 -5.4114,-13.6108 -5.4114,-20.6253 -0.021,-19.6749 17.2222,-36.7835 38.4978,-36.7835 21.2963,0 38.5392,16.6713 38.5392,36.3653 z"
/>
<path
id="path5906"
style="fill:#ffffff;stroke:#000000;stroke-width:2.83913827;stroke-opacity:1"
d="m 35.6633999999999,53.3646 c -6.7702,-0.9416 -13.0252,-4.0473 -17.0506,-8.4647 -0.5757,-0.6323 -1.2285,-1.3987 -1.4515,-1.7033 l -0.4053,-0.5545 0.4161,-0.5738 c 1.3795,-1.902 3.9094,-4.2078 6.3145,-5.7543 4.214,-2.7104 9.3234,-4.324 14.5156,-4.5843 6.9388,-0.3487 13.1001,1.1726 18.4107,4.5434 2.4217,1.5368 4.9875,3.8572 6.3539,5.7453 l 0.4584,0.633 -0.7723,0.993 c -1.0114,1.3009 -3.4857,3.6011 -5.0893,4.7313 -3.6824,2.5957 -8.212,4.3188 -13.1092,4.9882 -1.8918,0.2587 -6.7347,0.2587 -8.591,0 z"
/>
<path
d="m 38.2326,47.4847 c -1.9278,-0.588 -3.6011,-2.8023 -3.6011,-4.7654 0,-2.0227 1.6813,-4.1958 3.6863,-4.7647 1.3429,-0.3814 1.8889,-0.3851 3.1667,0 4.3947,1.2525 4.9549,7.213 0.8638,9.1941 -1.2909,0.6251 -2.8048,0.7564 -4.1157,0.3563 z"
id="path5910"
style="fill:#000000"
/>
<path
d="m 35.6633999999999,53.3646 c -6.7702,-0.9416 -13.0252,-4.0473 -17.0506,-8.4647 -0.5757,-0.6323 -1.2285,-1.3987 -1.4515,-1.7033 l -0.4053,-0.5545 0.4161,-0.5738 c 1.3795,-1.902 3.9094,-4.2078 6.3145,-5.7543 4.214,-2.7104 9.3234,-4.324 14.5156,-4.5843 6.9388,-0.3487 13.1001,1.1726 18.4107,4.5434 2.4217,1.5368 4.9875,3.8572 6.3539,5.7453 l 0.4584,0.633 -0.7723,0.993 c -1.0114,1.3009 -3.4857,3.6011 -5.0893,4.7313 -3.6824,2.5957 -8.212,4.3188 -13.1092,4.9882 -1.8918,0.2587 -6.7347,0.2587 -8.591,0 z"
id="path5912"
style="fill:#ffffff;stroke:#000000;stroke-width:2.83913827;stroke-opacity:1"
/>
<path
id="path5914"
style="fill:#c0c0c0;fill-opacity:1;stroke:#000000;stroke-width:1.39719546;stroke-miterlimit:4;stroke-dasharray:none;stroke-opacity:1"
d="m 42.7851000000001,52.0262 c 2.866,-0.8279 5.1396,-2.6939 6.4191,-5.2693 1.3801,-2.7765 1.3275,-5.637 -0.1572,-8.5113 -1.196,-2.3156 -3.189,-3.9652 -5.8766,-4.8644 -1.1028,-0.3675 -1.4447,-0.4136 -3.1695,-0.4103 -1.6882,0 -2.0953,0.053 -3.2044,0.4073 -6.5197,2.0737 -9.0793,9.5949 -5.0853,14.9435 1.4761,1.977 3.5777,3.288 6.2013,3.8677 1.1708,0.2587 3.7058,0.1725 4.8726,-0.165 z"
/>
<path
d="m 38.2326,47.4847 c -1.9278,-0.588 -3.6011,-2.8023 -3.6011,-4.7654 0,-2.0227 1.6813,-4.1958 3.6863,-4.7647 1.3429,-0.3814 1.8889,-0.3851 3.1667,0 4.3947,1.2525 4.9549,7.213 0.8638,9.1941 -1.2909,0.6251 -2.8048,0.7564 -4.1157,0.3563 z"
id="path5916"
style="fill:#000000"
/>
<path
style="fill:#ffffff;stroke:#000000;stroke-width:2.83913827;stroke-opacity:1"
id="path5930"
d="m 35.6633999999999,53.3646 c -6.7702,-0.9416 -13.0252,-4.0473 -17.0506,-8.4647 -0.5757,-0.6323 -1.2285,-1.3987 -1.4515,-1.7033 l -0.4053,-0.5545 0.4161,-0.5738 c 1.3795,-1.902 3.9094,-4.2078 6.3145,-5.7543 4.214,-2.7104 9.3234,-4.324 14.5156,-4.5843 6.9388,-0.3487 13.1001,1.1726 18.4107,4.5434 2.4217,1.5368 4.9875,3.8572 6.3539,5.7453 l 0.4584,0.633 -0.7723,0.993 c -1.0114,1.3009 -3.4857,3.6011 -5.0893,4.7313 -3.6824,2.5957 -8.212,4.3188 -13.1092,4.9882 -1.8918,0.2587 -6.7347,0.2587 -8.591,0 z"
/>
<path
d="m 38.2326,47.4847 c -1.9278,-0.588 -3.6011,-2.8023 -3.6011,-4.7654 0,-2.0227 1.6813,-4.1958 3.6863,-4.7647 1.3429,-0.3814 1.8889,-0.3851 3.1667,0 4.3947,1.2525 4.9549,7.213 0.8638,9.1941 -1.2909,0.6251 -2.8048,0.7564 -4.1157,0.3563 z"
id="path5934"
style="fill:#000000"
/>
<path
d="m 35.6633999999999,53.3646 c -6.7702,-0.9416 -13.0252,-4.0473 -17.0506,-8.4647 -0.5757,-0.6323 -1.2285,-1.3987 -1.4515,-1.7033 l -0.4053,-0.5545 0.4161,-0.5738 c 1.3795,-1.902 3.9094,-4.2078 6.3145,-5.7543 4.214,-2.7104 9.3234,-4.324 14.5156,-4.5843 6.9388,-0.3487 13.1001,1.1726 18.4107,4.5434 2.4217,1.5368 4.9875,3.8572 6.3539,5.7453 l 0.4584,0.633 -0.7723,0.993 c -1.0114,1.3009 -3.4857,3.6011 -5.0893,4.7313 -3.6824,2.5957 -8.212,4.3188 -13.1092,4.9882 -1.8918,0.2587 -6.7347,0.2587 -8.591,0 z"
style="fill:#ffffff;stroke:#000000;stroke-width:2.83913827;stroke-opacity:1"
id="path5936"
/>
<path
style="fill:#c0c0c0;fill-opacity:1;stroke:#000000;stroke-width:1.39719546;stroke-miterlimit:4;stroke-dasharray:none;stroke-opacity:1"
id="path5938"
d="m 42.7851000000001,52.0262 c 2.866,-0.8279 5.1396,-2.6939 6.4191,-5.2693 1.3801,-2.7765 1.3275,-5.637 -0.1572,-8.5113 -1.196,-2.3156 -3.189,-3.9652 -5.8766,-4.8644 -1.1028,-0.3675 -1.4447,-0.4136 -3.1695,-0.4103 -1.6882,0 -2.0953,0.053 -3.2044,0.4073 -6.5197,2.0737 -9.0793,9.5949 -5.0853,14.9435 1.4761,1.977 3.5777,3.288 6.2013,3.8677 1.1708,0.2587 3.7058,0.1725 4.8726,-0.165 z"
/>
<path
style="fill:#000000"
id="path5940"
d="m 38.2326,47.4847 c -1.9278,-0.588 -3.6011,-2.8023 -3.6011,-4.7654 0,-2.0227 1.6813,-4.1958 3.6863,-4.7647 1.3429,-0.3814 1.8889,-0.3851 3.1667,0 4.3947,1.2525 4.9549,7.213 0.8638,9.1941 -1.2909,0.6251 -2.8048,0.7564 -4.1157,0.3563 z"
/>
</svg>
