<?xml version="1.0" encoding="UTF-8" standalone="no"?>
<svg
xmlns:dc="http://purl.org/dc/elements/1.1/"
xmlns:cc="http://creativecommons.org/ns#"
xmlns:sodipodi="http://sodipodi.sourceforge.net/DTD/sodipodi-0.dtd"
xmlns="http://www.w3.org/2000/svg"
xmlns:rdf="http://www.w3.org/1999/02/22-rdf-syntax-ns#"
xmlns:inkscape="http://www.inkscape.org/namespaces/inkscape"
xmlns:svg="http://www.w3.org/2000/svg"
>
<path
id="path6103"
style="fill:#999999;fill-opacity:1;stroke:#000000;stroke-width:2.9629848;stroke-miterlimit:4;stroke-dasharray:none;stroke-opacity:1"
d="m 78.5185000000001,37.8436999999999 c 0,6.9954 -2.5104,14.3522 -6.2347,21.4236 -14.074,20.1883 -31.8518,38.6845 -31.8518,38.6845 0,0 -20.4526,-17.8689 -33.5391,-39.0646 -3.2715,-6.6153 -5.4114,-13.6108 -5.4114,-20.6253 -0.021,-19.6748 17.2222,-36.7835 38.4978,-36.7835 21.2963,0 38.5392,16.6714 38.5392,36.3653 z"
/>
<path
id="path5632"
style="fill:#000000"
d="m 16.2655,59.8688999999999 c -0.103,-0.103 -0.1874,-5.3096 -0.1874,-11.5701 l 0,-11.3825 1.0706,0 c 1.4359,0 42.7376,3.595 43.1857,3.759 0.2763,0.1011 0.3363,2.1871 0.2789,9.6837 l -0.073,9.5547 -22.0435,0.071 c -12.1239,0.039 -22.1278,-0.013 -22.231,-0.1162 z"
/>
<path
style="fill:#000000"
id="path5634"
d="m 61.9924999999998,47.7583 c -0.1086,-0.1091 -0.1983,-1.5573 -0.1983,-3.2183 0,-2.834 0.034,-3.0198 0.5575,-3.0198 0.5408,0 0.5576,-0.1859 0.5576,-6.1188 l 0,-6.1187 -1.6029,-0.084 -1.603,-0.084 0,-1.115 0,-1.1151 2.6483,0 2.6483,0 0,10.4534 0,10.4534 -1.4045,0.082 c -0.7725,0.045 -1.4938,-0.01 -1.603,-0.1162 z"
/>
<path
style="fill:#000000"
id="path5636"
d="m 37.1487999999999,36.2014999999999 c -11.792,-1.0472 -21.6133,-1.9706 -21.8255,-2.052 -0.288,-0.1105 -0.365,-0.6264 -0.3036,-2.0336 l 0.083,-1.8854 23.1064,-0.071 c 16.8397,-0.052 23.2092,0.014 23.4853,0.2432 0.2803,0.2326 0.379,1.171 0.379,3.6027 0,1.8085 -0.076,3.4865 -0.1691,3.7291 -0.243,0.6332 -0.6493,0.608 -24.7551,-1.5327 z"
/>
<path
style="fill:#000000"
id="path5638"
d="m 27.6275000000001,28.8879999999999 c -0.082,-0.2138 -0.1115,-1.1909 -0.066,-2.1713 l 0.084,-1.7826 10.732,0 10.7322,0 0,2.0907 0,2.0907 -2.3457,0.082 c -2.5442,0.089 -2.7995,-0.039 -2.807,-1.4058 l -0.014,-0.7666 -5.5583,0 -5.5585,0 -0.087,1.0454 -0.086,1.0453 -2.4436,0.081 c -1.8888,0.062 -2.4776,-0.01 -2.593,-0.3081 z"
/>
</svg>
