<?xml version="1.0" encoding="UTF-8" standalone="no"?>
<svg
xmlns:cc="http://creativecommons.org/ns#"
xmlns:dc="http://purl.org/dc/elements/1.1/"
xmlns:sodipodi="http://sodipodi.sourceforge.net/DTD/sodipodi-0.dtd"
xmlns="http://www.w3.org/2000/svg"
xmlns:rdf="http://www.w3.org/1999/02/22-rdf-syntax-ns#"
xmlns:inkscape="http://www.inkscape.org/namespaces/inkscape"
xmlns:svg="http://www.w3.org/2000/svg"
>
<path
d="m 78.5184999999999,37.8435999999999 c 0,6.9954 -2.5104,14.3521 -6.2347,21.4236 -14.074,20.1882 -31.8518,38.6845 -31.8518,38.6845 0,0 -20.4526,-17.869 -33.5391,-39.0646 -3.2715,-6.6154 -5.4114,-13.6108 -5.4114,-20.6253 -0.021,-19.6749 17.2222,-36.7835 38.4978,-36.7835 21.2963,0 38.5392,16.6713 38.5392,36.3653 z"
id="path5715"
style="fill:#6b98ff;fill-opacity:1;stroke:#000000;stroke-width:2.9629848;stroke-miterlimit:4;stroke-dasharray:none;stroke-opacity:1"
/>
<ellipse
rx="23.000095"
cx="40"
style="fill:#ffffff;stroke:#000000;stroke-width:3.99980831"
id="ellipse5861"
ry="22.263815"
cy="42.7343000000001"
/>
<ellipse
rx="5.2304029"
cy="23.3947000000001"
ry="5.0629668"
id="ellipse5863"
style="fill:#ffffff;stroke:#000000;stroke-width:2.49988008"
cx="50.5037"
/>
<ellipse
style="fill:#000000"
cx="46.0016000000001"
cy="54.9093"
id="ellipse5865"
ry="4.2763848"
rx="4.4178076"
/>
<ellipse
rx="4.4178076"
ry="4.2763848"
id="ellipse5867"
cy="55.1514999999999"
cx="34.7602999999999"
style="fill:#000000"
/>
<ellipse
rx="4.4178076"
ry="4.2763848"
id="ellipse5869"
cy="45.8624"
cx="52.6412"
style="fill:#000000"
/>
<ellipse
rx="4.4178076"
style="fill:#000000"
cx="27.8184000000001"
cy="46.0431000000001"
id="ellipse5871"
ry="4.2763848"
/>
<ellipse
ry="4.2763848"
id="ellipse5873"
cy="35.377"
cx="50.4362000000001"
style="fill:#000000"
rx="4.4178076"
/>
<ellipse
style="fill:#000000"
cx="39.9477999999999"
cy="30.2725"
id="ellipse5875"
ry="4.2763848"
rx="4.4178076"
/>
<ellipse
cy="35.4484"
ry="4.2763848"
id="ellipse5877"
style="fill:#000000"
cx="29.4376"
rx="4.4178076"
/>
</svg>
