<?xml version="1.0" encoding="UTF-8" standalone="no"?>
<svg
xmlns:inkscape="http://www.inkscape.org/namespaces/inkscape"
xmlns:svg="http://www.w3.org/2000/svg"
xmlns:rdf="http://www.w3.org/1999/02/22-rdf-syntax-ns#"
xmlns="http://www.w3.org/2000/svg"
xmlns:cc="http://creativecommons.org/ns#"
xmlns:dc="http://purl.org/dc/elements/1.1/"
xmlns:sodipodi="http://sodipodi.sourceforge.net/DTD/sodipodi-0.dtd"
>
<path
d="m 78.5184999999999,37.8436999999999 c 0,6.9954 -2.5104,14.3521 -6.2347,21.4236 -14.074,20.1882 -31.8516,38.6844 -31.8516,38.6844 0,0 -20.4527,-17.8689 -33.5392,-39.0645 -3.2715,-6.6154 -5.4115,-13.6108 -5.4115,-20.6253 -0.02,-19.6749 17.2223,-36.7835 38.4979,-36.7835 21.2962,0 38.5391,16.6713 38.5391,36.3653 z"
id="path5524"
style="fill:#FF8080;fill-opacity:1;stroke:#000000;stroke-width:2.96298313;stroke-miterlimit:4;stroke-dasharray:none;stroke-opacity:1"
/>
<path
style="fill:#ffffff;fill-opacity:1"
id="path4329"
d="m 15.0061000000001,66.9920999999999 c 0,-0.5541 0.018,-1.0998 0.039,-1.2128 0.1166,-0.6081 0.5819,-1.1494 1.2165,-1.4154 0.4662,-0.1953 0.5377,-0.2026 1.9743,-0.203 l 1.2995,-5e-4 0.017,-1.1183 c 0.019,-1.2452 0.031,-1.3118 0.2819,-1.7183 0.1866,-0.3013 0.581,-0.6358 0.9275,-0.7866 0.41,-0.1786 0.6141,-0.2183 1.224,-0.2383 l 0.5488,-0.018 0.026,-0.4952 c 0.1847,-3.6137 0.9365,-6.4255 2.3671,-8.8532 0.7686,-1.3042 1.5725,-2.3022 2.7364,-3.3967 0.7296,-0.6862 1.2928,-1.1313 3.112,-2.4596 1.109,-0.8097 1.5335,-1.1996 1.6919,-1.5539 0.056,-0.1247 0.071,-0.2433 0.071,-0.5559 0,-0.3869 -0.01,-0.4029 -0.1262,-0.614 -0.163,-0.2801 -0.6665,-0.7254 -1.524,-1.3478 -0.3507,-0.2546 -0.857,-0.6225 -1.1252,-0.8175 -2.2442,-1.6325 -3.6908,-3.151 -4.8232,-5.063 -1.4333,-2.42 -2.196,-5.2856 -2.381,-8.9451 l -0.026,-0.4965 -0.6046,-0.014 c -0.7113,-0.017 -0.9139,-0.064 -1.3608,-0.3168 -0.3226,-0.1826 -0.5935,-0.4424 -0.7607,-0.7298 -0.226,-0.3882 -0.2348,-0.4463 -0.2544,-1.6642 l -0.018,-1.1166 -1.3557,-0.01 -1.3556,-0.01 -0.2805,-0.087 c -0.5439,-0.1679 -0.9978,-0.4983 -1.2535,-0.9121 -0.2559,-0.4144 -0.2597,-0.4376 -0.276,-1.6901 l -0.014,-1.1338 24.9998,0 24.9998,0 0,1.1038 c 0,1.2077 -0.014,1.3083 -0.2245,1.6723 -0.2211,0.3817 -0.6139,0.6993 -1.0954,0.886 -0.427,0.1655 -0.5517,0.1769 -1.9449,0.1769 l -1.2734,0 0,1.0866 c 0,1.2316 -0.016,1.3336 -0.2642,1.7371 -0.2536,0.4125 -0.6842,0.7322 -1.228,0.912 -0.2251,0.074 -0.314,0.084 -0.8575,0.096 l -0.6064,0.013 -0.021,0.2585 c -0.012,0.1422 -0.031,0.4656 -0.043,0.7186 -0.068,1.4391 -0.3489,3.245 -0.7116,4.5686 -0.8593,3.1355 -2.377,5.5756 -4.7435,7.6267 -0.7485,0.6487 -1.1909,0.9863 -2.4964,1.9043 -1.2918,0.9084 -1.8562,1.3693 -2.024,1.6529 -0.1078,0.1821 -0.1125,0.2076 -0.1125,0.6033 0,0.401 0,0.419 0.1203,0.6186 0.2145,0.3666 0.6788,0.7607 2.0362,1.7284 1.2223,0.8715 1.3596,0.9752 2.0763,1.5696 1.2707,1.0536 2.2139,2.0646 3.0054,3.2212 1.6505,2.4117 2.6134,5.4586 2.8323,8.9627 0.023,0.3577 0.05,0.7682 0.061,0.9122 l 0.02,0.2617 0.3998,0 c 0.5528,0 0.9189,0.063 1.2909,0.2165 0.3849,0.1588 0.6457,0.3514 0.8838,0.6526 0.3522,0.4453 0.3566,0.4664 0.38,1.8107 l 0.021,1.1739 1.3877,0.017 c 1.3081,0.016 1.4001,0.021 1.6065,0.087 0.5626,0.1783 1.0272,0.5173 1.2739,0.9296 0.2427,0.4054 0.2503,0.4572 0.2507,1.7032 l 0,1.1184 -24.9969,0 -24.9968,0 4e-4,-1.0073 z"
/>
<path
d="m 15.0061000000001,66.9920999999999 c 0,-0.5541 0.018,-1.0998 0.039,-1.2128 0.1166,-0.6081 0.5819,-1.1494 1.2165,-1.4154 0.4662,-0.1953 0.5377,-0.2026 1.9744,-0.203 l 1.2994,-5e-4 0.017,-1.1183 c 0.019,-1.2452 0.031,-1.3118 0.2819,-1.7183 0.1866,-0.3013 0.581,-0.6358 0.9275,-0.7866 0.41,-0.1786 0.6141,-0.2183 1.224,-0.2383 l 0.5489,-0.018 0.026,-0.4953 c 0.1847,-3.6137 0.9364,-6.4255 2.3671,-8.8532 0.7685,-1.3042 1.5725,-2.3022 2.7363,-3.3967 0.7296,-0.6862 1.2928,-1.1313 3.112,-2.4596 1.1091,-0.8097 1.5336,-1.1996 1.6919,-1.5538 0.056,-0.1248 0.071,-0.2434 0.071,-0.556 0,-0.3869 0,-0.4029 -0.1261,-0.614 -0.1631,-0.2801 -0.6666,-0.7254 -1.5241,-1.3478 -0.3507,-0.2546 -0.857,-0.6225 -1.1251,-0.8175 -2.2443,-1.6325 -3.6909,-3.151 -4.8232,-5.063 -1.4333,-2.42 -2.196,-5.2856 -2.3811,-8.9451 l -0.025,-0.4965 -0.6046,-0.014 c -0.7112,-0.017 -0.9139,-0.064 -1.3607,-0.3168 -0.3227,-0.1826 -0.5935,-0.4424 -0.7608,-0.7298 -0.2259,-0.3882 -0.2348,-0.4463 -0.2544,-1.6642 l -0.018,-1.1166 -1.3557,-0.01 -1.3556,-0.01 -0.2804,-0.087 c -0.5439,-0.1679 -0.9979,-0.4983 -1.2535,-0.9121 -0.256,-0.4144 -0.2597,-0.4376 -0.2761,-1.6902 l -0.015,-1.1337 24.9998,0 24.9998,0 0,1.1038 c 0,1.2077 -0.014,1.3083 -0.2245,1.6723 -0.2211,0.3817 -0.6139,0.6993 -1.0954,0.886 -0.427,0.1655 -0.5517,0.1769 -1.9449,0.1769 l -1.2733,0 0,1.0866 c 0,1.2316 -0.016,1.3336 -0.2643,1.7371 -0.2537,0.4125 -0.6842,0.7322 -1.228,0.912 -0.2251,0.074 -0.314,0.084 -0.8575,0.096 l -0.6064,0.013 -0.021,0.2585 c -0.012,0.1422 -0.031,0.4656 -0.043,0.7186 -0.068,1.4391 -0.3489,3.245 -0.7116,4.5686 -0.8593,3.1355 -2.377,5.5756 -4.7435,7.6267 -0.7485,0.6488 -1.1909,0.9863 -2.4964,1.9043 -1.2918,0.9084 -1.8562,1.3694 -2.024,1.6529 -0.1078,0.1821 -0.1125,0.2076 -0.1125,0.6033 0,0.401 0,0.419 0.1203,0.6186 0.2145,0.3667 0.6788,0.7607 2.0362,1.7284 1.2224,0.8715 1.3596,0.9753 2.0763,1.5696 1.2707,1.0536 2.214,2.0647 3.0054,3.2212 1.6506,2.4117 2.6134,5.4586 2.8323,8.9628 0.023,0.3577 0.05,0.7681 0.061,0.9121 l 0.02,0.2617 0.3999,0 c 0.5527,0 0.9188,0.063 1.2908,0.2165 0.3849,0.1588 0.6457,0.3514 0.8838,0.6526 0.3522,0.4454 0.3566,0.4664 0.38,1.8107 l 0.021,1.1739 1.3877,0.017 c 1.3081,0.016 1.4002,0.021 1.6065,0.087 0.5627,0.1783 1.0272,0.5173 1.2739,0.9296 0.2427,0.4055 0.2503,0.4573 0.2508,1.7032 l 8e-4,1.1184 -24.9969,0 -24.9968,0 4e-4,-1.0073 z m 15.9904,-6.8495 c 0.013,-0.081 0.024,-0.2558 0.024,-0.3887 4e-4,-0.1328 0.025,-0.4379 0.055,-0.678 0.2933,-2.3377 1.3271,-4.2536 3.4705,-6.4313 0.203,-0.2062 0.7861,-0.7726 1.2959,-1.2587 1.1791,-1.1243 1.3878,-1.333 1.8272,-1.8274 0.8149,-0.9167 1.2766,-1.7141 1.4787,-2.5536 0.092,-0.3823 0.09,-1.6635 -0.01,-2.3246 -0.2047,-1.4439 -0.3728,-2.7363 -0.7821,-4.0135 -0.8445,-2.2455 -1.0478,-2.66 -2.2161,-4.5269 -1.1935,-1.9072 -2.0929,-4.3368 -2.3682,-4.7721 -0.1864,-0.2946 -0.2978,-0.5799 -0.3298,-0.8445 l -0.024,-0.2025 6.7573,0 6.7573,0 -0.023,0.1666 c -1.9062,3.758 -1.7938,3.6288 -2.6575,5.4317 0,0 -1.993,3.6904 -2.3952,4.6868 -0.4254,1.0655 -0.4171,1.4554 -0.7816,3.8187 -0.026,0.1867 -0.1198,1.027 -0.1203,1.4806 0,0.6633 0.034,0.9018 0.089,1.1228 0.2436,0.9645 0.6672,1.8646 1.7851,3.0186 0.2045,0.2112 0.8322,0.8263 1.3948,1.367 1.5662,1.505 2.2908,2.2974 2.9578,3.2343 1.132,1.5902 1.7479,3.3162 1.8234,5.1105 l 0.023,0.5314 2.3758,0 2.3759,0 0,-0.2459 c 0,-0.1352 -0.018,-0.4814 -0.039,-0.7694 -0.2917,-4.0025 -1.4738,-6.9403 -3.7019,-9.2007 -0.7149,-0.725 -1.4987,-1.3577 -3.0855,-2.4904 -0.9158,-0.6537 -1.7222,-1.2989 -2.0622,-1.6499 -0.8714,-0.8996 -1.2379,-1.7687 -1.2379,-2.9347 0,-0.994 0.2472,-1.7209 0.8411,-2.4729 0.4885,-0.6185 1.0222,-1.0636 2.6652,-2.2228 1.5293,-1.0789 2.3303,-1.7356 3.0586,-2.5075 1.7917,-1.8991 2.8344,-4.1688 3.3152,-7.2166 0.1357,-0.86 0.2441,-2.0134 0.2452,-2.6095 l 0,-0.2936 -13.7736,0.01 -13.7735,0.01 0.011,0.3173 c 0.1313,3.8244 1.1558,6.9428 3.0194,9.1911 0.8876,1.0709 1.6563,1.7397 3.7018,3.221 1.1294,0.8179 1.5675,1.1676 1.9556,1.5608 0.9312,0.9436 1.3075,1.8106 1.3071,3.0119 -4e-4,0.8283 -0.1446,1.3721 -0.5442,2.0512 -0.1335,0.2268 -0.3558,0.5409 -0.494,0.698 -0.3672,0.4172 -1.3195,1.2066 -2.4308,2.0151 -1.0486,0.7628 -2.0415,1.5672 -2.5656,2.0789 -1.8664,1.8216 -2.9893,3.9655 -3.5652,6.8067 -0.1893,0.9339 -0.3164,1.967 -0.3572,2.9022 -0.012,0.2782 -0.03,0.5593 -0.04,0.6247 l -0.017,0.1191 2.3769,0 2.3769,0 0.024,-0.1473 z"
style="fill:#000000"
id="path4331"
/>
</svg>
