<?xml version="1.0" encoding="UTF-8" standalone="no"?>
<svg
xmlns:sodipodi="http://sodipodi.sourceforge.net/DTD/sodipodi-0.dtd"
xmlns:dc="http://purl.org/dc/elements/1.1/"
xmlns:cc="http://creativecommons.org/ns#"
xmlns="http://www.w3.org/2000/svg"
xmlns:rdf="http://www.w3.org/1999/02/22-rdf-syntax-ns#"
xmlns:svg="http://www.w3.org/2000/svg"
xmlns:inkscape="http://www.inkscape.org/namespaces/inkscape"
>
<path
d="m 78.5184999999999,37.8438000000001 c 0,6.9954 -2.5104,14.3521 -6.2347,21.4236 -14.074,20.1882 -31.8518,38.6844 -31.8518,38.6844 0,0 -20.4526,-17.8689 -33.5391,-39.0645 -3.2715,-6.6154 -5.4114,-13.6108 -5.4114,-20.6253 -0.021,-19.6749 17.2222,-36.7835 38.4978,-36.7835 21.2963,0 38.5392,16.6713 38.5392,36.3653 z"
style="fill:#999999;fill-opacity:1;stroke:#000000;stroke-width:2.9629848;stroke-miterlimit:4;stroke-dasharray:none;stroke-opacity:1"
id="path6099"
/>
<circle
r="24.999994"
style="opacity:1;fill:#ffffff;fill-opacity:1;stroke:none;stroke-width:0.40000001;stroke-miterlimit:4;stroke-dasharray:none;stroke-opacity:1"
cx="40"
cy="41.9982"
id="circle5626"
/>
<path
id="path5628"
style="fill:#000000"
d="m 36.6497999999999,66.8353 c -3.9149,-0.6175 -8.5107,-2.4554 -11.5166,-4.6054 -6.4716,-4.6291 -10.6024,-13.4771 -10.0904,-21.6135 0.2905,-4.6162 1.6166,-8.5767 4.2242,-12.6159 3.2304,-5.004 8.3029,-8.5838 14.6053,-10.3074 2.1587,-0.5904 2.9915,-0.6865 6.0137,-0.6947 2.5527,-0.01 4.0538,0.1172 5.5125,0.4554 7.3072,1.6946 13.5968,6.606 16.8987,13.1961 7.2501,14.4698 -0.7134,31.8173 -16.3975,35.72 -2.3176,0.5767 -7.0385,0.8142 -9.2499,0.4654 z m 2.1086,-8.6555 0,-6.1535 -0.9396,0.01 c -2.2692,0.021 -6.828,1.0979 -6.828,1.6126 0,0.5261 1.6666,3.5765 2.9564,5.4112 0.9662,1.3744 4.4624,5.2745 4.7283,5.2745 0.045,0 0.083,-2.7691 0.083,-6.1536 z m 6.7403,1.6141 c 1.5502,-2.0496 3.7586,-6.1183 3.4752,-6.4024 -0.3008,-0.3015 -3.99,-1.0966 -5.888,-1.269 l -1.8218,-0.1655 0,6.2424 0,6.2423 1.398,-1.3728 c 0.7689,-0.755 2.0454,-2.2288 2.8366,-3.275 z m -12.7022,1.7138 c -1.0712,-1.4159 -2.4848,-3.6199 -3.1413,-4.8977 -0.6566,-1.2778 -1.259,-2.3232 -1.3387,-2.3232 -0.3166,0 -5.0934,2.606 -5.0934,2.7787 0,0.6771 5.1301,4.5472 7.2067,5.4366 0.7186,0.3078 3.9008,1.4786 4.2543,1.5653 0.033,0.01 -0.8164,-1.1437 -1.8876,-2.5597 z m 16.0085,1.293 c 2.1898,-0.9305 4.6001,-2.4691 6.3555,-4.0572 0.9015,-0.8155 1.639,-1.5617 1.639,-1.6582 0,-0.194 -4.8091,-2.7991 -5.1645,-2.7976 -0.1225,4e-4 -0.4279,0.501 -0.6786,1.1122 -0.6285,1.5321 -2.2799,4.2478 -3.6562,6.0126 -0.6325,0.8109 -1.349,1.7329 -1.5923,2.0487 l -0.4424,0.5741 1.0926,-0.3296 c 0.6009,-0.1813 1.7021,-0.5885 2.4469,-0.905 z m -21.4219,-11.5279 c -0.073,-0.3453 -0.3064,-1.4191 -0.5194,-2.386 -0.2131,-0.967 -0.4596,-2.6341 -0.5477,-3.7047 l -0.1604,-1.9465 -4.3478,0 -4.3478,0 0,0.6385 c 0,2.2947 1.6068,7.257 3.15,9.7285 l 0.9058,1.4506 2.9997,-1.5762 c 2.783,-1.4624 2.9902,-1.6216 2.8676,-2.2042 z m 32.944,0.6279 c 1.0142,-2.1557 1.8299,-4.9473 2.1159,-7.2422 l 0.1774,-1.4229 -4.3771,0 -4.3771,0 -0.1591,1.8863 c -0.088,1.0375 -0.4048,2.9588 -0.7052,4.2695 -0.3004,1.3108 -0.499,2.4298 -0.4415,2.4866 0.058,0.057 1.4014,0.7908 2.9863,1.6308 l 2.8815,1.5273 0.4768,-0.563 c 0.2622,-0.3097 0.9021,-1.4673 1.4221,-2.5724 z m -25.4525,-1.8398 3.7585,-0.6718 0.07,-3.0768 0.07,-3.0767 -5.1557,0 -5.1558,0 0.1242,0.8163 c 0.068,0.4489 0.1929,1.4379 0.2769,2.1976 0.084,0.7598 0.3289,2.0878 0.5441,2.9512 0.4675,1.8752 0.1068,1.8184 5.4671,0.8602 z m 15.7629,-1.1114 c 0.2353,-1.0015 0.5111,-2.6968 0.6131,-3.7674 l 0.1854,-1.9465 -5.0937,0 -5.0936,0 0.07,3.0767 0.07,3.0768 3.6333,0.6584 c 5.4916,0.9951 5.1055,1.0706 5.6148,-1.098 z m -24.3131,-10.2273 c 0.092,-1.101 0.4307,-3.0213 0.7536,-4.2674 0.4225,-1.6306 0.5089,-2.3266 0.308,-2.4831 -0.1535,-0.1196 -1.4949,-0.8661 -2.9809,-1.6589 -2.1446,-1.1441 -2.7747,-1.3808 -3.0551,-1.1475 -0.5999,0.4991 -2.5897,4.8034 -3.118,6.7453 -0.2758,1.0133 -0.5769,2.5109 -0.6691,3.3279 l -0.1676,1.4854 4.3813,0 4.3813,0 0.1665,-2.0017 z m 12.3791,-1.0732 -0.07,-3.0749 -3.7585,-0.6789 c -4.7412,-0.8564 -4.8409,-0.858 -5.1337,-0.086 -0.3016,0.7952 -0.9426,4.1768 -1.0846,5.722 l -0.1097,1.1931 5.1136,0 5.1136,0 -0.07,-3.0749 z m 12.5802,1.8819 c 0,-1.4429 -0.8752,-5.8159 -1.2294,-6.1709 -0.1713,-0.1718 -1.6408,-0.019 -4.522,0.4702 l -4.2682,0.7246 0,3.0845 0,3.0846 5.0114,0 5.0115,0 -0.01,-1.193 z m 11.1593,-0.2298 c -0.3973,-3.1876 -1.9521,-7.6066 -3.387,-9.6265 l -0.5297,-0.7456 -2.9932,1.5041 c -2.49,1.2511 -2.9931,1.5987 -2.992,2.0672 0,0.3097 0.2826,1.8916 0.6264,3.5152 0.3438,1.6237 0.6252,3.3473 0.6252,3.8303 l 0,0.8781 4.4138,0 4.4139,0 -0.1774,-1.4228 z m -23.6846,-13.4507 0,-6.0829 -1.5221,1.4991 c -1.8662,1.8381 -3.6327,4.1596 -4.9517,6.5072 -1.4997,2.6695 -1.5079,2.7784 -0.2349,3.1346 1.5432,0.4319 4.6741,0.9757 5.7691,1.0021 l 0.9396,0.023 0,-6.0828 z m 6.1688,5.6955 c 2.2103,-0.3846 4.1046,-0.8643 4.1046,-1.0394 0,-0.05 -0.4397,-0.968 -0.9771,-2.0393 -1.1757,-2.3441 -3.4586,-5.4514 -5.3818,-7.3254 l -1.4088,-1.3729 0,6.0822 0,6.0821 0.7189,0 c 0.3954,0 1.7203,-0.1743 2.9442,-0.3873 z m -15.5486,-3.4329 c 0.9109,-1.9327 2.6434,-4.6255 4.2324,-6.5785 l 1.2061,-1.4824 -0.8482,0.1681 c -1.7683,0.3502 -4.3838,1.54 -6.4616,2.9392 -1.9962,1.3443 -4.5223,3.6142 -4.2685,3.8357 0.3242,0.2831 4.9114,2.6703 5.1375,2.6737 0.147,0 0.598,-0.6979 1.0023,-1.5558 z m 24.8927,0.2698 c 1.3216,-0.7095 2.4593,-1.343 2.5282,-1.4079 0.237,-0.2231 -3.1013,-3.1022 -4.8996,-4.2257 -1.6865,-1.0537 -5.4303,-2.6207 -6.261,-2.6207 -0.2293,0 0.1922,0.7112 1.1001,1.8564 1.6105,2.0315 2.8645,4.0139 3.9496,6.2436 0.3865,0.7943 0.8101,1.4442 0.9412,1.4442 0.1312,0 1.3199,-0.5804 2.6415,-1.2899 z"
/>
</svg>
