<?xml version="1.0" encoding="UTF-8" standalone="no"?>
<svg
xmlns="http://www.w3.org/2000/svg"
xmlns:dc="http://purl.org/dc/elements/1.1/"
xmlns:cc="http://creativecommons.org/ns#"
xmlns:sodipodi="http://sodipodi.sourceforge.net/DTD/sodipodi-0.dtd"
xmlns:inkscape="http://www.inkscape.org/namespaces/inkscape"
xmlns:svg="http://www.w3.org/2000/svg"
xmlns:rdf="http://www.w3.org/1999/02/22-rdf-syntax-ns#"
>
<path
d="m 78.5184999999999,37.8435999999999 c 0,6.9954 -2.5104,14.3521 -6.2347,21.4236 -14.074,20.1882 -31.8518,38.6845 -31.8518,38.6845 0,0 -20.4526,-17.869 -33.5391,-39.0646 -3.2715,-6.6154 -5.4114,-13.6108 -5.4114,-20.6253 -0.021,-19.6749 17.2222,-36.7835 38.4978,-36.7835 21.2963,0 38.5392,16.6713 38.5392,36.3653 z"
id="path5723"
style="fill:#6b98ff;fill-opacity:1;stroke:#000000;stroke-width:2.9629848;stroke-miterlimit:4;stroke-dasharray:none;stroke-opacity:1"
/>
<path
id="path6021"
style="fill:#ffffff;stroke:#000000;stroke-width:2.83913827;stroke-opacity:1"
d="m 35.6633999999999,53.3644999999999 c -6.7702,-0.9416 -13.0252,-4.0473 -17.0506,-8.4648 -0.5757,-0.6322 -1.2285,-1.3987 -1.4515,-1.7032 l -0.4053,-0.5546 0.4161,-0.5738 c 1.3795,-1.9019 3.9094,-4.2078 6.3145,-5.7542 4.214,-2.7105 9.3234,-4.3241 14.5156,-4.5843 6.9388,-0.3488 13.1001,1.1726 18.4107,4.5434 2.4217,1.5367 4.9875,3.8572 6.3539,5.7453 l 0.4584,0.633 -0.7723,0.993 c -1.0114,1.3008 -3.4857,3.601 -5.0893,4.7313 -3.6824,2.5957 -8.212,4.3188 -13.1092,4.9881 -1.8918,0.2587 -6.7347,0.2587 -8.591,0 z"
/>
<path
id="path6025"
style="fill:#000000"
d="m 38.2326,47.4846 c -1.9278,-0.588 -3.6011,-2.8024 -3.6011,-4.7654 0,-2.0228 1.6813,-4.1959 3.6863,-4.7647 1.3429,-0.3814 1.8889,-0.3852 3.1667,0 4.3947,1.2524 4.9549,7.213 0.8638,9.194 -1.2909,0.6252 -2.8048,0.7565 -4.1157,0.3563 z"
/>
<path
style="fill:#ffffff;stroke:#000000;stroke-width:2.83913827;stroke-opacity:1"
id="path6027"
d="m 35.6633999999999,53.3644999999999 c -6.7702,-0.9416 -13.0252,-4.0473 -17.0506,-8.4648 -0.5757,-0.6322 -1.2285,-1.3987 -1.4515,-1.7032 l -0.4053,-0.5546 0.4161,-0.5738 c 1.3795,-1.9019 3.9094,-4.2078 6.3145,-5.7542 4.214,-2.7105 9.3234,-4.3241 14.5156,-4.5843 6.9388,-0.3488 13.1001,1.1726 18.4107,4.5434 2.4217,1.5367 4.9875,3.8572 6.3539,5.7453 l 0.4584,0.633 -0.7723,0.993 c -1.0114,1.3008 -3.4857,3.601 -5.0893,4.7313 -3.6824,2.5957 -8.212,4.3188 -13.1092,4.9881 -1.8918,0.2587 -6.7347,0.2587 -8.591,0 z"
/>
<path
id="path6029"
style="fill:#c0c0c0;fill-opacity:1;stroke:#000000;stroke-width:1.39719546;stroke-miterlimit:4;stroke-dasharray:none;stroke-opacity:1"
d="m 42.7851000000001,52.0261 c 2.866,-0.828 5.1396,-2.6939 6.4191,-5.2694 1.3801,-2.7765 1.3275,-5.6369 -0.1572,-8.5112 -1.196,-2.3156 -3.189,-3.9652 -5.8766,-4.8645 -1.1028,-0.3675 -1.4447,-0.4136 -3.1695,-0.4102 -1.6882,0 -2.0953,0.053 -3.2044,0.4072 -6.5197,2.0738 -9.0793,9.595 -5.0853,14.9435 1.4761,1.977 3.5777,3.288 6.2013,3.8677 1.1708,0.2588 3.7058,0.1725 4.8726,-0.165 z"
/>
<path
style="fill:#000000"
id="path6031"
d="m 38.2326,47.4846 c -1.9278,-0.588 -3.6011,-2.8024 -3.6011,-4.7654 0,-2.0228 1.6813,-4.1959 3.6863,-4.7647 1.3429,-0.3814 1.8889,-0.3852 3.1667,0 4.3947,1.2524 4.9549,7.213 0.8638,9.194 -1.2909,0.6252 -2.8048,0.7565 -4.1157,0.3563 z"
/>
</svg>
