<?xml version="1.0" encoding="UTF-8" standalone="no"?>
<svg
xmlns:svg="http://www.w3.org/2000/svg"
xmlns:inkscape="http://www.inkscape.org/namespaces/inkscape"
xmlns:rdf="http://www.w3.org/1999/02/22-rdf-syntax-ns#"
xmlns="http://www.w3.org/2000/svg"
xmlns:sodipodi="http://sodipodi.sourceforge.net/DTD/sodipodi-0.dtd"
xmlns:dc="http://purl.org/dc/elements/1.1/"
xmlns:cc="http://creativecommons.org/ns#"
>
<path
d="m 78.5184999999999,37.8434999999999 c 0,6.9955 -2.5103,14.3522 -6.2346,21.4237 -14.074,20.1882 -31.8519,38.6845 -31.8519,38.6845 0,0 -20.4526,-17.869 -33.5391,-39.0647 -3.2715,-6.6153 -5.4114,-13.6107 -5.4114,-20.6253 -0.021,-19.6748 17.2222,-36.7834 38.4979,-36.7834 21.2962,0 38.5391,16.6713 38.5391,36.3652 z"
id="path5675"
style="fill:#6b98ff;fill-opacity:1;stroke:#000000;stroke-width:2.96299458;stroke-miterlimit:4;stroke-dasharray:none;stroke-opacity:1"
/>
<ellipse
cy="34.1876999999999"
id="ellipse5801"
ry="15.943152"
style="fill:#ffffff;fill-opacity:1;stroke:#ffffff;stroke-width:2.49319673;stroke-opacity:1"
cx="39.9945"
rx="15.976786"
/>
<ellipse
rx="15.976786"
ry="15.943152"
id="ellipse5803"
cy="49.8081999999999"
cx="47.7765999999999"
style="fill:#ffffff;fill-opacity:1;stroke:#ffffff;stroke-width:2.49319673;stroke-opacity:1"
/>
<ellipse
cy="49.8081999999999"
id="ellipse5805"
ry="15.943152"
style="fill:#ffffff;fill-opacity:1;stroke:#ffffff;stroke-width:2.49319673;stroke-opacity:1"
cx="32.2234000000001"
rx="15.976786"
/>
<ellipse
style="fill:#c0c0c0;fill-opacity:1"
cx="39.9387999999999"
cy="44.1195"
id="ellipse5807"
ry="7.1427512"
rx="7.6331034"
/>
<ellipse
rx="15.976786"
style="fill:none;stroke:#000000;stroke-width:2.49319673"
cx="39.9945"
cy="34.1876999999999"
id="ellipse5809"
ry="15.943152"
/>
<ellipse
style="fill:none;stroke:#000000;stroke-width:2.49319673"
cx="47.7765999999999"
cy="49.8081999999999"
id="ellipse5811"
ry="15.943152"
rx="15.976786"
/>
<ellipse
cy="49.8081999999999"
ry="15.943152"
id="ellipse5813"
style="fill:none;stroke:#000000;stroke-width:2.49319673"
cx="32.2234000000001"
rx="15.976786"
/>
</svg>
