<?xml version="1.0" encoding="UTF-8" standalone="no"?>
<svg
xmlns:rdf="http://www.w3.org/1999/02/22-rdf-syntax-ns#"
xmlns:inkscape="http://www.inkscape.org/namespaces/inkscape"
xmlns:svg="http://www.w3.org/2000/svg"
xmlns:dc="http://purl.org/dc/elements/1.1/"
xmlns:cc="http://creativecommons.org/ns#"
xmlns:sodipodi="http://sodipodi.sourceforge.net/DTD/sodipodi-0.dtd"
xmlns="http://www.w3.org/2000/svg"
>
<path
style="fill:#CCCCCC;fill-opacity:1;stroke:#000000;stroke-width:2.9629848;stroke-miterlimit:4;stroke-dasharray:none;stroke-opacity:1"
id="path11961"
d="m 78.5185000000001,37.8471 c 0,6.9954 -2.5104,14.3521 -6.2347,21.4235 -14.074,20.1881 -31.8518,38.6842 -31.8518,38.6842 0,0 -20.4526,-17.8688 -33.5391,-39.0643 -3.2715,-6.6153 -5.4114,-13.6107 -5.4114,-20.6252 -0.021,-19.6747 17.2222,-36.7832 38.4978,-36.7832 21.2963,0 38.5392,16.6712 38.5392,36.365 z"
/>
<path
style="fill:#000000"
id="path12125"
d="m 16.2655,59.8717999999999 c -0.103,-0.1031 -0.1874,-5.3097 -0.1874,-11.5701 l 0,-11.3826 1.0706,0 c 1.4359,0 42.7376,3.5951 43.1857,3.7591 0.2763,0.1011 0.3363,2.1871 0.2789,9.6836 l -0.073,9.5548 -22.0435,0.071 c -12.1239,0.039 -22.1278,-0.013 -22.231,-0.1163 z"
/>
<path
style="fill:#000000"
id="path12127"
d="m 61.9924999999998,47.7610999999999 c -0.1086,-0.109 -0.1983,-1.5573 -0.1983,-3.2182 0,-2.834 0.034,-3.0199 0.5575,-3.0199 0.5408,0 0.5576,-0.1858 0.5576,-6.1187 l 0,-6.1187 -1.6029,-0.084 -1.603,-0.084 0,-1.115 0,-1.115 2.6483,0 2.6483,0 0,10.4534 0,10.4533 -1.4045,0.082 c -0.7725,0.045 -1.4938,-0.01 -1.603,-0.1162 z"
/>
<path
style="fill:#000000"
id="path12129"
d="m 37.1487999999999,36.2044000000001 c -11.792,-1.0472 -21.6133,-1.9706 -21.8255,-2.0521 -0.288,-0.1105 -0.365,-0.6264 -0.3036,-2.0335 l 0.083,-1.8854 23.1064,-0.071 c 16.8397,-0.052 23.2092,0.014 23.4853,0.2432 0.2803,0.2325 0.379,1.171 0.379,3.6026 0,1.8085 -0.076,3.4866 -0.1691,3.7291 -0.243,0.6332 -0.6493,0.6081 -24.7551,-1.5326 z"
/>
<path
d="m 27.6275000000001,28.8907999999999 c -0.082,-0.2138 -0.1115,-1.1908 -0.066,-2.1712 l 0.084,-1.7826 10.732,0 10.7322,0 0,2.0907 0,2.0906 -2.3457,0.082 c -2.5442,0.089 -2.7995,-0.039 -2.807,-1.4058 l -0.014,-0.7665 -5.5583,0 -5.5585,0 -0.087,1.0453 -0.086,1.0454 -2.4436,0.08 c -1.8888,0.062 -2.4776,-0.01 -2.593,-0.3081 z"
style="fill:#000000"
id="path12131"
/>
</svg>
