<?xml version="1.0" encoding="UTF-8" standalone="no"?>
<svg
xmlns:sodipodi="http://sodipodi.sourceforge.net/DTD/sodipodi-0.dtd"
xmlns:cc="http://creativecommons.org/ns#"
xmlns:dc="http://purl.org/dc/elements/1.1/"
xmlns="http://www.w3.org/2000/svg"
xmlns:rdf="http://www.w3.org/1999/02/22-rdf-syntax-ns#"
xmlns:svg="http://www.w3.org/2000/svg"
xmlns:inkscape="http://www.inkscape.org/namespaces/inkscape"
>
<path
style="fill:#FF8080;fill-opacity:1;stroke:#000000;stroke-width:2.9629848;stroke-miterlimit:4;stroke-dasharray:none;stroke-opacity:1"
id="path5553"
d="m 78.5185,37.8436999999999 c 0,6.9954 -2.51026,14.3521 -6.23455,21.4236 -14.07407,20.1882 -31.85184,38.6844 -31.85184,38.6844 0,0 -20.45265,-17.8689 -33.53908,-39.0645 -3.2716,-6.6154 -5.41152,-13.6108 -5.41152,-20.6253 -0.0205,-19.6749 17.22222,-36.7835 38.49792,-36.7835 21.2963,0 38.53907,16.6713 38.53907,36.3653 z"
/>
<path
d="m 16.58455,33.6206 c -0.9658,0.3431 -1.46104,0.8284 -1.48316,1.3344 -0.0513,1.1737 2.79481,1.7236 4.56251,2.0464 l 13.96319,2.5456 c 1.76757,0.3229 4.5432,1.2284 5.83555,2.4979 0.12867,0.1263 0.25522,0.2565 0.37939,0.3892 1.23864,1.3227 2.10579,4.1544 2.40457,5.9559 l 2.29041,13.8444 c 0.29906,1.8015 0.82163,4.6996 1.98459,4.6629 0.50581,-0.016 0.99794,-0.5132 1.3552,-1.4881 l 16.79028,-45.8101 c 0.71436,-1.9496 -0.27214,-2.9736 -2.20233,-2.2874 l -45.8802,16.3089 z"
id="path4158"
style="fill:#000000;fill-opacity:1;stroke:#000000;stroke-width:0.20103453;stroke-opacity:1"
/>
</svg>
