<?xml version="1.0" encoding="UTF-8" standalone="no"?>
<svg
xmlns:sodipodi="http://sodipodi.sourceforge.net/DTD/sodipodi-0.dtd"
xmlns:dc="http://purl.org/dc/elements/1.1/"
xmlns:cc="http://creativecommons.org/ns#"
xmlns="http://www.w3.org/2000/svg"
xmlns:rdf="http://www.w3.org/1999/02/22-rdf-syntax-ns#"
xmlns:svg="http://www.w3.org/2000/svg"
xmlns:inkscape="http://www.inkscape.org/namespaces/inkscape"
>
<path
style="fill:#6b98ff;fill-opacity:1;stroke:#000000;stroke-width:2.96081376;stroke-miterlimit:4;stroke-dasharray:none;stroke-opacity:1"
id="path5755"
d="m 78.4611,37.8441 c 0,6.9956 -2.5066,14.3524 -6.2253,21.424 -14.0531,20.1885 -31.8045,38.6851 -31.8045,38.6851 0,0 -20.4222,-17.8693 -33.4892,-39.0652 -3.2667,-6.6155 -5.4034,-13.6111 -5.4034,-20.6257 -0.021,-19.6752 17.1966,-36.7841 38.4406,-36.7841 21.2646,0 38.4818,16.6717 38.4818,36.3659 z"
/>
<path
id="path5763"
style="fill:#6b98ff;fill-opacity:1;stroke:#000000;stroke-width:2.96215296;stroke-miterlimit:4;stroke-dasharray:none;stroke-opacity:1"
d="m 78.5189,37.8786 c 0,6.9914 -2.5104,14.3439 -6.2347,21.4113 -14.0742,20.1767 -31.8522,38.6624 -31.8522,38.6624 0,0 -20.4528,-17.8588 -33.5395,-39.0423 -3.2715,-6.6116 -5.4114,-13.603 -5.4114,-20.6135 -0.021,-19.6636 17.2224,-36.7624 38.4982,-36.7624 21.2965,0 38.5396,16.6618 38.5396,36.3445 z"
/>
<path
id="path5925"
style="fill:#000000;fill-opacity:1"
d="m 53.7968000000001,17.0449000000001 -19.2843,0 c 3.4234,2.7082 5.6458,7.0427 5.6458,11.9198 l 0,19.8393 24.842,0 0,-19.8393 c 0,-6.5829 -5.0161,-11.9198 -11.2035,-11.9198 z m -15.8106,49.9714 8.5969,0 0,-15.773 -8.5969,0 0,15.773 z m -11.2982,-49.9714 -0.969,0 c -5.9201,0 -10.7193,5.1058 -10.7193,11.4046 l 0,20.3545 22.4073,0 0,-20.3545 c 0,-6.2988 -4.799,-11.4046 -10.719,-11.4046 z m 4.389,13.6372 -9.7474,0 0,-3.2508 9.7474,0 0,3.2508 z"
/>
</svg>
