<?xml version="1.0" encoding="UTF-8" standalone="no"?>
<svg
xmlns:sodipodi="http://sodipodi.sourceforge.net/DTD/sodipodi-0.dtd"
xmlns:cc="http://creativecommons.org/ns#"
xmlns:dc="http://purl.org/dc/elements/1.1/"
xmlns="http://www.w3.org/2000/svg"
xmlns:rdf="http://www.w3.org/1999/02/22-rdf-syntax-ns#"
xmlns:svg="http://www.w3.org/2000/svg"
xmlns:inkscape="http://www.inkscape.org/namespaces/inkscape"
>
<path
id="path5965"
style="fill:#C87137;fill-opacity:1;stroke:#000000;stroke-width:2.9629848;stroke-miterlimit:4;stroke-dasharray:none;stroke-opacity:1"
d="m 78.5185,37.8438000000001 c 0,6.9954 -2.51027,14.3521 -6.23455,21.4236 -14.07407,20.1882 -31.85184,38.6844 -31.85184,38.6844 0,0 -20.45266,-17.8689 -33.53908,-39.0645 -3.27161,-6.6154 -5.41152,-13.6108 -5.41152,-20.6253 -0.0205,-19.6749 17.22221,-36.7835 38.49792,-36.7835 21.2963,0 38.53907,16.6713 38.53907,36.3653 z"
/>
<path
d="m 37.38842,66.9595999999999 c -1.81201,-0.1187 -3.93463,-0.4137 -5.05878,-0.7009 -1.58446,-0.4053 -2.95048,-1.115 -2.95048,-1.5331 0,-0.1375 0.20001,-0.7753 1.77042,-5.6462 0.31875,-0.9888 0.96381,-2.9934 1.43351,-4.4547 0.47005,-1.4615 1.17136,-3.6421 1.55856,-4.8456 0.84725,-2.6312 1.77696,-5.5443 1.95856,-6.1349 0.6072,-1.9759 1.02755,-2.8053 1.77946,-3.5122 0.86915,-0.8169 1.79796,-1.0519 2.89236,-0.7325 0.3591,0.1063 0.57351,0.2469 1.04226,0.6853 0.9185,0.8607 1.15135,1.3669 2.32016,5.0441 0.37565,1.1821 0.7741,2.4306 0.88536,2.7746 0.1094,0.3438 0.35285,1.1 0.5372,1.6803 0.1844,0.5803 0.6566,2.0572 1.04915,3.2822 0.39251,1.2253 0.89226,2.7903 1.11006,3.4781 0.21875,0.6875 0.6166,1.9362 0.8863,2.7743 1.36601,4.2463 1.76916,5.5325 1.76916,5.6444 0,0.1468 -0.44845,0.5243 -0.94595,0.7947 -1.18196,0.6418 -3.67057,1.1499 -6.72169,1.3718 -1.02225,0.075 -4.35872,0.094 -5.31562,0.031 z m -16.48228,-19.2642 c -0.71723,-0.3662 -2.12669,-2.1712 -3.14832,-4.0315 -1.30039,-2.3691 -2.14606,-4.9594 -2.59609,-7.9525 -0.21564,-1.4337 -0.21564,-5.1909 0,-6.629 0.53066,-3.5406 1.6501,-6.6112 3.36677,-9.2358 0.61972,-0.9476 1.61353,-2.1825 2.02793,-2.5197 0.98225,-0.7994 2.45265,0 2.21045,1.1875 -0.0312,0.1562 -0.23126,0.4659 -0.47909,0.7412 -0.25002,0.275 -0.39909,0.5084 -0.36315,0.5625 0.0375,0.056 0.0312,0.072 -0.0375,0.038 -0.12188,-0.069 -1.3007,1.5831 -1.2382,1.7334 0.0312,0.056 0,0.084 -0.0344,0.059 -0.26564,-0.15 -1.96981,3.9978 -2.40952,5.8637 -0.71911,3.0513 -0.70286,6.97 0.0407,9.9593 0.29065,1.1613 1.32977,3.9022 1.85418,4.8844 0.56691,1.0616 1.43196,2.3231 2.13544,3.1137 0.50066,0.5628 0.62285,0.8725 0.52847,1.3387 -0.0656,0.3163 -0.38877,0.7019 -0.72848,0.8648 -0.27814,0.1343 -0.891,0.1468 -1.13226,0.031 z m 36.91103,-0.1156 c -0.3869,-0.2313 -0.6166,-0.606 -0.6166,-1.0019 0,-0.3919 0.11875,-0.6169 0.6044,-1.1572 0.65471,-0.7268 1.53226,-2.0103 2.09576,-3.0656 0.52441,-0.9818 1.56511,-3.7231 1.85416,-4.884 0.74411,-2.9897 0.76071,-6.9084 0.0405,-9.9596 -0.44,-1.8656 -2.14511,-6.0153 -2.40981,-5.8634 -0.0405,0.031 -0.0562,0 -0.0345,-0.059 0.0625,-0.15 -1.11791,-1.8028 -1.23821,-1.7337 -0.0625,0.034 -0.075,0.031 -0.0375,-0.037 0.0375,-0.053 -0.1125,-0.2875 -0.36315,-0.5625 -0.4541,-0.5041 -0.5716,-0.8247 -0.47535,-1.3003 0.0781,-0.3847 0.5822,-0.8522 0.99725,-0.9244 0.76316,-0.1313 1.15916,0.1094 2.11982,1.2887 2.32981,2.8635 3.84557,6.5019 4.48432,10.7628 0.21565,1.4381 0.21565,5.1956 0,6.6293 -0.4497,2.9928 -1.29536,5.5831 -2.59606,7.9521 -1.02321,1.864 -2.43362,3.6756 -3.12272,4.0116 -0.3694,0.1812 -0.91256,0.1406 -1.30571,-0.097 z m -30.41157,-4.5634 c -0.54191,-0.15 -1.52415,-1.3285 -2.37545,-2.8494 -1.24821,-2.2303 -1.85387,-4.4884 -1.94888,-7.2684 -0.12188,-3.5668 0.86818,-6.9452 2.8358,-9.6727 1.02757,-1.4247 1.65636,-1.7687 2.51266,-1.375 0.30314,0.1406 0.44784,0.2719 0.59097,0.5331 0.33377,0.6138 0.24064,0.9375 -0.51815,1.83 -1.96919,2.3119 -3.02831,6.1259 -2.66361,9.5946 0.18439,1.7638 0.65567,3.3697 1.43166,4.8878 0.43002,0.8419 0.67035,1.2003 1.41508,2.1134 0.56535,0.6928 0.64067,1.0435 0.34034,1.5844 -0.30627,0.5541 -0.961,0.805 -1.62042,0.6222 z m 24.31494,0.031 c -0.30625,-0.1094 -0.67005,-0.4441 -0.7935,-0.73 -0.23751,-0.5497 -0.15625,-0.8669 0.37565,-1.4791 1.54946,-1.7825 2.57641,-4.3021 2.86206,-7.0227 0.36441,-3.4688 -0.6944,-7.2828 -2.66361,-9.5946 -0.76035,-0.8925 -0.85191,-1.2163 -0.51815,-1.83 0.14375,-0.2625 0.2875,-0.3941 0.59095,-0.5332 0.8563,-0.3937 1.48511,-0.05 2.51266,1.375 3.04552,4.2222 3.72147,10.2228 1.71666,15.2406 -0.6,1.5018 -1.87386,3.518 -2.66766,4.2221 -0.3878,0.3441 -1.00536,0.4978 -1.41506,0.3519 z m -5.70973,-4.7097 c -1.08726,-0.2312 -1.39666,-1.4097 -0.58345,-2.2228 0.6069,-0.6072 1.12975,-2.049 1.20565,-3.3256 0.0969,-1.629 -0.3278,-2.9753 -1.3657,-4.3274 -0.67346,-0.8775 -0.1656,-1.9175 0.9679,-1.9847 0.5597,-0.034 0.83441,0.1 1.30256,0.6294 0.73005,0.8256 1.34666,2.1315 1.66826,3.5327 0.17185,0.7441 0.14375,2.9094 -0.044,3.7122 -0.2344,0.9881 -0.60536,1.8709 -1.12231,2.6659 -0.7216,1.11 -1.28691,1.4781 -2.02761,1.3203 z m -13.04862,-0.075 c -0.3816,-0.1437 -1.05445,-0.9497 -1.53821,-1.8412 -0.95445,-1.7578 -1.2182,-4.329 -0.65535,-6.384 0.4219,-1.5403 1.49131,-3.2166 2.23451,-3.5019 0.3347,-0.1281 1.01506,-0.066 1.27881,0.1188 0.4191,0.2937 0.53505,0.5156 0.53505,1.0272 0,0.3821 -0.0405,0.5287 -0.1875,0.7034 -1.83106,2.14 -1.94391,5.4662 -0.2594,7.6881 0.30315,0.4006 0.44315,0.6665 0.47125,0.8987 0.0938,0.7762 -0.4622,1.3684 -1.27786,1.3591 -0.23755,0 -0.50565,-0.034 -0.5985,-0.069 z m 6.44949,-3.1578 c -2.38832,-0.4909 -3.32397,-3.1687 -1.69386,-4.8481 0.6597,-0.6796 1.89011,-1.0818 2.81951,-0.9215 1.54856,0.2656 2.56707,1.3109 2.65052,2.7168 0.047,0.785 -0.11566,1.3457 -0.53851,1.8766 -0.7694,0.9634 -2.03511,1.4234 -3.23766,1.1762 z"
style="fill:#000000;fill-opacity:1"
id="path5357"
/>
</svg>
