<?xml version="1.0" encoding="UTF-8" standalone="no"?>
<svg
xmlns:sodipodi="http://sodipodi.sourceforge.net/DTD/sodipodi-0.dtd"
xmlns:dc="http://purl.org/dc/elements/1.1/"
xmlns:cc="http://creativecommons.org/ns#"
xmlns="http://www.w3.org/2000/svg"
xmlns:rdf="http://www.w3.org/1999/02/22-rdf-syntax-ns#"
xmlns:svg="http://www.w3.org/2000/svg"
xmlns:inkscape="http://www.inkscape.org/namespaces/inkscape"
>
<path
id="path5551"
style="fill:#FF8080;fill-opacity:1;stroke:#000000;stroke-width:2.9629848;stroke-miterlimit:4;stroke-dasharray:none;stroke-opacity:1"
d="m 78.5185,37.8436999999999 c 0,6.9954 -2.51027,14.3521 -6.23455,21.4236 -14.07406,20.1882 -31.85184,38.6844 -31.85184,38.6844 0,0 -20.45266,-17.8689 -33.53908,-39.0645 -3.27161,-6.6154 -5.41152,-13.6108 -5.41152,-20.6253 -0.0205,-19.6749 17.22221,-36.7835 38.49793,-36.7835 21.29628,0 38.53906,16.6713 38.53906,36.3653 z"
/>
<path
id="path4152"
style="fill:#000000"
d="m 39.21984,18.1423 c -0.3925,-0.3362 -1.0127,-0.6375 -1.9535,-0.8893 -6.0212,-1.6133 -1.53885,4.8977 -7.56,6.511 -6.0207,1.6127 -5.39175,-6.2654 -9.7981,-1.8592 -4.40785,4.4074 3.47165,3.7778 1.85835,9.7982 -1.61345,6.0208 -8.125,1.539 -6.5118,7.5594 1.61345,6.0208 5.0102,-1.1199 9.41795,3.2876 4.40775,4.4074 -2.73345,7.804 3.2877,9.417 6.02115,1.6133 1.53885,-4.8977 7.56,-6.511 6.02114,-1.6133 5.39154,6.2654 9.79934,1.8579 4.4078,-4.4071 -3.47165,-3.7778 -1.8583,-9.7982 1.6134,-6.0208 8.125,-1.539 6.51175,-7.5594 -1.6134,-6.0207 -5.01015,1.1199 -9.41795,-3.2875 -3.71894,-3.7188 0.7852,-6.7132 -1.33409,-8.5278 z m -1.52315,11.3847 c 2.80689,2.8066 2.80684,7.3572 0,10.1638 -2.80685,2.8067 -7.3577,2.8067 -10.16455,0 -2.8068,-2.8066 -2.8068,-7.3572 0,-10.1638 2.80685,-2.8067 7.3577,-2.8067 10.16455,0 z"
/>
<path
style="fill:#000000"
id="path4154"
d="m 49.90683,40.6129000000001 c -0.381,-0.072 -0.89675,-0.034 -1.6024,0.1562 -4.51575,1.21 0.8374,3.7585 -2.4684,7.0639 -3.30575,3.3056 -5.85169,-2.048 -7.06154,2.4676 -1.2099,4.5152 3.67164,1.152 4.88174,5.6676 1.2099,4.5153 -4.70029,4.0459 -1.3946,7.3513 3.3057,3.3053 2.8342,-2.6061 7.3502,-1.3962 4.51575,1.2099 1.15135,6.0939 5.66705,4.8837 4.51575,-1.2096 -0.8374,-3.7581 2.4684,-7.0638 3.30575,-3.3053 5.8517,2.048 7.06155,-2.4673 1.2099,-4.5155 -3.67165,-1.1521 -4.88175,-5.6676 -1.2099,-4.5153 4.7003,-4.046 1.3946,-7.3513 -3.3057,-3.3057 -2.8342,2.606 -7.3502,1.3961 -3.81025,-1.0208 -2.0076,-4.6549 -4.0647,-5.0386 z m 3.2799,7.9675 c 2.8757,0.7705 4.5822,3.7259 3.8116,6.6016 -0.7705,2.8754 -3.7263,4.5815 -6.60195,3.8113 -2.87565,-0.7706 -4.58215,-3.7263 -3.81155,-6.6017 0.7705,-2.8754 3.7263,-4.5818 6.6019,-3.8112 z"
/>
</svg>
