<?xml version="1.0" encoding="UTF-8" standalone="no"?>
<svg
xmlns:rdf="http://www.w3.org/1999/02/22-rdf-syntax-ns#"
xmlns:inkscape="http://www.inkscape.org/namespaces/inkscape"
xmlns:svg="http://www.w3.org/2000/svg"
xmlns:cc="http://creativecommons.org/ns#"
xmlns:dc="http://purl.org/dc/elements/1.1/"
xmlns:sodipodi="http://sodipodi.sourceforge.net/DTD/sodipodi-0.dtd"
xmlns="http://www.w3.org/2000/svg"
>
<path
d="m 78.5184999999999,37.8436999999999 c 0,6.9955 -2.5102,14.3522 -6.2346,21.4237 -14.074,20.1882 -31.8519,38.6844 -31.8519,38.6844 0,0 -20.4526,-17.8689 -33.5391,-39.0646 -3.2715,-6.6153 -5.4114,-13.6107 -5.4114,-20.6253 -0.021,-19.6748 17.2222,-36.7834 38.4979,-36.7834 21.2962,0 38.5391,16.6713 38.5391,36.3652 z"
id="path6085"
style="fill:#999999;fill-opacity:1;stroke:#000000;stroke-width:2.96299458;stroke-miterlimit:4;stroke-dasharray:none;stroke-opacity:1"
/>
<ellipse
cx="39.9945"
style="fill:#ffffff;fill-opacity:1;stroke:#ffffff;stroke-width:2.49319673;stroke-opacity:1"
id="ellipse5548"
ry="15.943152"
cy="34.1878999999999"
rx="15.976786"
/>
<ellipse
style="fill:#ffffff;fill-opacity:1;stroke:#ffffff;stroke-width:2.49319673;stroke-opacity:1"
cx="47.7765999999999"
cy="49.8085000000001"
id="ellipse5550"
ry="15.943152"
rx="15.976786"
/>
<ellipse
rx="15.976786"
ry="15.943152"
id="ellipse5552"
cy="49.8085000000001"
cx="32.2234000000001"
style="fill:#ffffff;fill-opacity:1;stroke:#ffffff;stroke-width:2.49319673;stroke-opacity:1"
/>
<ellipse
style="fill:#c0c0c0;fill-opacity:1"
cx="39.9387999999999"
cy="44.1196"
ry="7.1427512"
id="ellipse5554"
rx="7.6331034"
/>
<ellipse
cx="39.9945"
style="fill:none;stroke:#000000;stroke-width:2.49319673"
ry="15.943152"
id="ellipse5556"
cy="34.1878999999999"
rx="15.976786"
/>
<ellipse
rx="15.976786"
cx="47.7765999999999"
style="fill:none;stroke:#000000;stroke-width:2.49319673"
ry="15.943152"
id="ellipse5558"
cy="49.8085000000001"
/>
<ellipse
rx="15.976786"
style="fill:none;stroke:#000000;stroke-width:2.49319673"
cx="32.2234000000001"
cy="49.8085000000001"
id="ellipse5560"
ry="15.943152"
/>
</svg>
