<?xml version="1.0" encoding="UTF-8" standalone="no"?>
<svg
xmlns:inkscape="http://www.inkscape.org/namespaces/inkscape"
xmlns:svg="http://www.w3.org/2000/svg"
xmlns:rdf="http://www.w3.org/1999/02/22-rdf-syntax-ns#"
xmlns="http://www.w3.org/2000/svg"
xmlns:cc="http://creativecommons.org/ns#"
xmlns:dc="http://purl.org/dc/elements/1.1/"
xmlns:sodipodi="http://sodipodi.sourceforge.net/DTD/sodipodi-0.dtd"
>
<path
d="m 78.5184999999999,37.8435999999999 c 0,6.9954 -2.5104,14.3521 -6.2347,21.4236 -14.074,20.1882 -31.8518,38.6845 -31.8518,38.6845 0,0 -20.4526,-17.869 -33.5391,-39.0646 -3.2715,-6.6154 -5.4114,-13.6108 -5.4114,-20.6253 -0.021,-19.6749 17.2222,-36.7835 38.4978,-36.7835 21.2963,0 38.5392,16.6713 38.5392,36.3653 z"
id="path5719"
style="fill:#6b98ff;fill-opacity:1;stroke:#000000;stroke-width:2.9629848;stroke-miterlimit:4;stroke-dasharray:none;stroke-opacity:1"
/>
<circle
id="circle5881"
cy="41.998"
cx="40"
r="24.999994"
style="opacity:1;fill:#ffffff;fill-opacity:1;stroke:none;stroke-width:0.40000001;stroke-miterlimit:4;stroke-dasharray:none;stroke-opacity:1"
/>
<path
d="m 36.6497999999999,66.8351 c -3.9149,-0.6175 -8.5107,-2.4553 -11.5166,-4.6054 -6.4716,-4.629 -10.6024,-13.4771 -10.0904,-21.6134 0.2905,-4.6163 1.6166,-8.5768 4.2242,-12.6159 3.2304,-5.004 8.3029,-8.5839 14.6053,-10.3074 2.1587,-0.5904 2.9915,-0.6866 6.0137,-0.6947 2.5527,-0.01 4.0538,0.1171 5.5125,0.4554 7.3072,1.6946 13.5968,6.606 16.8987,13.196 7.2501,14.4699 -0.7134,31.8174 -16.3975,35.7201 -2.3176,0.5767 -7.0385,0.8142 -9.2499,0.4653 z m 2.1086,-8.6554 0,-6.1535 -0.9396,0.01 c -2.2692,0.021 -6.828,1.0978 -6.828,1.6126 0,0.526 1.6666,3.5765 2.9564,5.4112 0.9662,1.3743 4.4624,5.2744 4.7283,5.2744 0.045,0 0.083,-2.7691 0.083,-6.1535 z m 6.7403,1.6141 c 1.5502,-2.0496 3.7586,-6.1183 3.4752,-6.4024 -0.3008,-0.3015 -3.99,-1.0967 -5.888,-1.2691 l -1.8218,-0.1654 0,6.2423 0,6.2424 1.398,-1.3728 c 0.7689,-0.7551 2.0454,-2.2288 2.8366,-3.275 z m -12.7022,1.7138 c -1.0712,-1.416 -2.4848,-3.6199 -3.1413,-4.8977 -0.6566,-1.2778 -1.259,-2.3233 -1.3387,-2.3233 -0.3166,0 -5.0934,2.6061 -5.0934,2.7788 0,0.6771 5.1301,4.5471 7.2067,5.4365 0.7186,0.3078 3.9008,1.4787 4.2543,1.5654 0.033,0.01 -0.8164,-1.1438 -1.8876,-2.5597 z m 16.0085,1.2929 c 2.1898,-0.9304 4.6001,-2.469 6.3555,-4.0572 0.9015,-0.8155 1.639,-1.5617 1.639,-1.6582 0,-0.194 -4.8091,-2.799 -5.1645,-2.7975 -0.1225,4e-4 -0.4279,0.501 -0.6786,1.1121 -0.6285,1.5321 -2.2799,4.2479 -3.6562,6.0126 -0.6325,0.811 -1.349,1.7329 -1.5923,2.0487 l -0.4424,0.5742 1.0926,-0.3296 c 0.6009,-0.1813 1.7021,-0.5886 2.4469,-0.9051 z m -21.4219,-11.5278 c -0.073,-0.3454 -0.3064,-1.4191 -0.5194,-2.3861 -0.2131,-0.967 -0.4596,-2.6341 -0.5477,-3.7046 l -0.1604,-1.9466 -4.3478,0 -4.3478,0 0,0.6385 c 0,2.2947 1.6068,7.257 3.15,9.7285 l 0.9058,1.4507 2.9997,-1.5763 c 2.783,-1.4623 2.9902,-1.6216 2.8676,-2.2041 z m 32.944,0.6279 c 1.0142,-2.1558 1.8299,-4.9474 2.1159,-7.2423 l 0.1774,-1.4229 -4.3771,0 -4.3771,0 -0.1591,1.8864 c -0.088,1.0374 -0.4048,2.9587 -0.7052,4.2695 -0.3004,1.3107 -0.499,2.4297 -0.4415,2.4866 0.058,0.057 1.4014,0.7907 2.9863,1.6308 l 2.8815,1.5273 0.4768,-0.5631 c 0.2622,-0.3096 0.9021,-1.4672 1.4221,-2.5723 z m -25.4525,-1.8398 3.7585,-0.6719 0.07,-3.0767 0.07,-3.0768 -5.1557,0 -5.1558,0 0.1242,0.8163 c 0.068,0.449 0.1929,1.4379 0.2769,2.1977 0.084,0.7598 0.3289,2.0878 0.5441,2.9512 0.4675,1.8751 0.1068,1.8184 5.4671,0.8602 z m 15.7629,-1.1114 c 0.2353,-1.0015 0.5111,-2.6969 0.6131,-3.7675 l 0.1854,-1.9465 -5.0937,0 -5.0936,0 0.07,3.0768 0.07,3.0767 3.6333,0.6584 c 5.4916,0.9952 5.1055,1.0707 5.6148,-1.0979 z m -24.3131,-10.2273 c 0.092,-1.101 0.4307,-3.0213 0.7536,-4.2675 0.4225,-1.6305 0.5089,-2.3266 0.308,-2.4831 -0.1535,-0.1195 -1.4949,-0.866 -2.9809,-1.6588 -2.1446,-1.1442 -2.7747,-1.3808 -3.0551,-1.1476 -0.5999,0.4991 -2.5897,4.8035 -3.118,6.7453 -0.2758,1.0134 -0.5769,2.5109 -0.6691,3.3279 l -0.1676,1.4855 4.3813,0 4.3813,0 0.1665,-2.0017 z m 12.3791,-1.0732 -0.07,-3.0749 -3.7585,-0.6789 c -4.7412,-0.8564 -4.8409,-0.8581 -5.1337,-0.086 -0.3016,0.7951 -0.9426,4.1767 -1.0846,5.722 l -0.1097,1.193 5.1136,0 5.1136,0 -0.07,-3.0749 z m 12.5802,1.8819 c 0,-1.443 -0.8752,-5.8159 -1.2294,-6.171 -0.1713,-0.1717 -1.6408,-0.019 -4.522,0.4702 l -4.2682,0.7246 0,3.0846 0,3.0846 5.0114,0 5.0115,0 -0.01,-1.193 z m 11.1593,-0.2299 c -0.3973,-3.1875 -1.9521,-7.6065 -3.387,-9.6265 l -0.5297,-0.7455 -2.9932,1.504 c -2.49,1.2512 -2.9931,1.5987 -2.992,2.0672 0,0.3098 0.2826,1.8916 0.6264,3.5153 0.3438,1.6237 0.6252,3.3473 0.6252,3.8302 l 0,0.8782 4.4138,0 4.4139,0 -0.1774,-1.4229 z m -23.6846,-13.4507 0,-6.0828 -1.5221,1.4991 c -1.8662,1.838 -3.6327,4.1595 -4.9517,6.5072 -1.4997,2.6695 -1.5079,2.7784 -0.2349,3.1346 1.5432,0.4318 4.6741,0.9757 5.7691,1.0021 l 0.9396,0.023 0,-6.0829 z m 6.1688,5.6956 c 2.2103,-0.3847 4.1046,-0.8644 4.1046,-1.0395 0,-0.05 -0.4397,-0.9679 -0.9771,-2.0393 -1.1757,-2.344 -3.4586,-5.4513 -5.3818,-7.3254 l -1.4088,-1.3728 0,6.0821 0,6.0822 0.7189,0 c 0.3954,0 1.7203,-0.1743 2.9442,-0.3873 z m -15.5486,-3.4329 c 0.9109,-1.9327 2.6434,-4.6255 4.2324,-6.5785 l 1.2061,-1.4824 -0.8482,0.168 c -1.7683,0.3503 -4.3838,1.5401 -6.4616,2.9393 -1.9962,1.3442 -4.5223,3.6142 -4.2685,3.8357 0.3242,0.2831 4.9114,2.6703 5.1375,2.6736 0.147,0 0.598,-0.6979 1.0023,-1.5557 z m 24.8927,0.2698 c 1.3216,-0.7095 2.4593,-1.3431 2.5282,-1.408 0.237,-0.2231 -3.1013,-3.1022 -4.8996,-4.2257 -1.6865,-1.0536 -5.4303,-2.6206 -6.261,-2.6206 -0.2293,0 0.1922,0.7112 1.1001,1.8564 1.6105,2.0315 2.8645,4.0138 3.9496,6.2436 0.3865,0.7943 0.8101,1.4442 0.9412,1.4442 0.1312,0 1.3199,-0.5805 2.6415,-1.2899 z"
id="path5883"
style="fill:#000000"
/>
</svg>
