<?xml version="1.0" encoding="UTF-8" standalone="no"?>
<svg
xmlns:rdf="http://www.w3.org/1999/02/22-rdf-syntax-ns#"
xmlns:inkscape="http://www.inkscape.org/namespaces/inkscape"
xmlns:svg="http://www.w3.org/2000/svg"
xmlns:dc="http://purl.org/dc/elements/1.1/"
xmlns:cc="http://creativecommons.org/ns#"
xmlns:sodipodi="http://sodipodi.sourceforge.net/DTD/sodipodi-0.dtd"
xmlns="http://www.w3.org/2000/svg"
>
<path
style="fill:#C87137;fill-opacity:1;stroke:#000000;stroke-width:2.9629848;stroke-miterlimit:4;stroke-dasharray:none;stroke-opacity:1"
id="path5989"
d="m 78.5184999999999,37.8438000000001 c 0,6.9954 -2.5104,14.3521 -6.2347,21.4236 -14.074,20.1882 -31.8518,38.6844 -31.8518,38.6844 0,0 -20.4526,-17.8689 -33.5391,-39.0645 -3.2715,-6.6154 -5.4114,-13.6108 -5.4114,-20.6253 -0.021,-19.6749 17.2222,-36.7835 38.4978,-36.7835 21.2963,0 38.5392,16.6713 38.5392,36.3653 z"
/>
<rect
width="50"
height="50"
x="15"
y="16.9982"
style="fill:#000000;fill-opacity:0"
id="rect5433"
/>
<path
d="m 26.9602,66.9717000000001 c -2.0566,-0.2659 -3.6969,-1.9372 -3.9297,-4.004 -0.028,-0.2441 -0.036,-6.3437 -0.028,-21.1935 0.011,-19.9322 0.014,-20.8624 0.075,-21.1171 0.2253,-0.9392 0.5897,-1.6236 1.2021,-2.258 0.5295,-0.5484 1.1437,-0.9365 1.8467,-1.1668 0.7671,-0.2513 -0.2726,-0.2338 13.9179,-0.2338 14.1904,0 13.1507,-0.017 13.9177,0.2338 0.7031,0.2303 1.3173,0.6184 1.8468,1.1668 0.6124,0.6344 0.9768,1.3188 1.2021,2.258 0.061,0.2547 0.064,1.1849 0.075,21.1171 0.01,14.8498 0,20.9494 -0.027,21.1935 -0.1171,1.0401 -0.5578,1.9461 -1.3109,2.6956 -0.6633,0.6599 -1.3493,1.0353 -2.3121,1.2652 -0.2533,0.061 -0.9058,0.064 -13.2492,0.069 -7.3898,0 -13.088,-0.01 -13.2267,-0.026 z"
style="fill:#ffffff;fill-opacity:1"
id="path5435"
/>
<path
style="fill:#000000;fill-opacity:1"
id="path5437"
d="m 26.9601,66.9716000000001 c -2.0565,-0.2659 -3.6968,-1.9371 -3.9297,-4.0039 -0.028,-0.2441 -0.036,-6.3437 -0.028,-21.1935 0.011,-19.9322 0.014,-20.8625 0.075,-21.1171 0.2254,-0.9393 0.5897,-1.6237 1.2022,-2.2581 0.5294,-0.5484 1.1437,-0.9365 1.8467,-1.1668 0.7671,-0.2513 -0.2726,-0.2338 13.9178,-0.2338 14.1904,0 13.1508,-0.017 13.9178,0.2338 0.703,0.2303 1.3173,0.6184 1.8467,1.1668 0.6125,0.6344 0.9769,1.3188 1.2022,2.2581 0.061,0.2546 0.064,1.1849 0.075,21.1171 0.01,14.8498 0,20.9494 -0.027,21.1935 -0.1172,1.0401 -0.5579,1.9461 -1.311,2.6955 -0.6632,0.6599 -1.3493,1.0353 -2.312,1.2652 -0.2533,0.061 -0.9059,0.064 -13.2493,0.069 -7.3898,0 -13.0879,-0.01 -13.2267,-0.026 z m 26.2925,-2.3461 c 0.7027,-0.2567 1.2357,-0.7946 1.4721,-1.4855 l 0.079,-0.2309 0.01,-20.79 c 0.01,-18.2289 0.01,-20.8215 -0.043,-21.0461 -0.1717,-0.8372 -0.906,-1.5744 -1.7417,-1.7483 -0.3753,-0.078 -25.5904,-0.078 -25.9657,0 -0.832,0.1732 -1.5677,0.9088 -1.7409,1.7408 -0.078,0.3772 -0.078,41.5054 0,41.876 0.1428,0.674 0.6074,1.2567 1.2513,1.5697 0.4926,0.2394 -0.5717,0.2225 13.561,0.2156 l 12.8585,-0.01 0.2606,-0.095 z m -14.1491,-2.1995 c -1.3828,-0.1131 -2.875,-0.5325 -4.1204,-1.158 -2.993,-1.503 -5.136,-4.1593 -5.9531,-7.3789 -1.5828,-6.2365 2.3323,-12.5405 8.6349,-13.9037 2.6301,-0.5689 5.4708,-0.1569 7.8224,1.1347 4.5407,2.4937 6.8268,7.6978 5.5846,12.7128 -0.2093,0.8448 -0.4732,1.5578 -0.8709,2.3529 -1.105,2.2092 -2.8738,3.9737 -5.0963,5.0841 -1.8334,0.916 -3.951,1.324 -6.0012,1.1561 z m 1.7405,-2.2705 c 2.1817,-0.202 4.1227,-1.1178 5.6559,-2.6685 1.4284,-1.4448 2.2852,-3.1939 2.5726,-5.2519 0.068,-0.4872 0.058,-1.8986 -0.017,-2.3908 -0.3089,-2.0299 -1.1875,-3.7838 -2.5985,-5.188 -1.2463,-1.2403 -2.832,-2.0994 -4.5272,-2.4528 -0.7069,-0.1474 -1.0473,-0.1798 -1.8851,-0.1798 -0.8378,0 -1.1782,0.033 -1.8851,0.1798 -2.2832,0.4759 -4.3056,1.8371 -5.6427,3.7977 -0.7925,1.1621 -1.2942,2.4869 -1.4998,3.9605 -0.062,0.4436 -0.062,1.8298 0,2.2734 0.2877,2.0625 1.1747,3.8641 2.6049,5.2908 1.5515,1.5478 3.5167,2.4538 5.7301,2.6418 0.3289,0.028 1.1289,0.021 1.4918,-0.012 z m -1.3768,-5.7009 c -0.38,-0.072 -0.6676,-0.173 -1.0117,-0.3551 -0.8564,-0.4531 -1.443,-1.1888 -1.7036,-2.1362 -0.084,-0.3067 -0.096,-0.4134 -0.096,-0.8649 0,-0.5547 0.044,-0.807 0.2142,-1.238 0.1781,-0.4519 0.4005,-0.7837 0.7778,-1.1597 0.425,-0.4236 0.7835,-0.6506 1.3018,-0.8242 1.8802,-0.6298 3.876,0.4464 4.3899,2.3671 0.078,0.2905 0.091,0.4145 0.091,0.8548 0,0.4418 -0.013,0.5639 -0.092,0.859 -0.3278,1.2262 -1.3004,2.171 -2.5356,2.4632 -0.3458,0.082 -0.9967,0.098 -1.3361,0.034 z m 1.0599,-2.3275 c 0.221,-0.1069 0.4389,-0.325 0.5496,-0.5501 0.1249,-0.2537 0.1249,-0.7035 0,-0.9572 -0.1109,-0.2254 -0.328,-0.4425 -0.5533,-0.5534 -0.1455,-0.072 -0.2301,-0.087 -0.4786,-0.087 -0.2486,0 -0.3332,0.015 -0.4786,0.087 -0.6328,0.3114 -0.846,1.0767 -0.4622,1.6598 0.1327,0.2017 0.3733,0.3865 0.5996,0.4606 0.217,0.071 0.6126,0.042 0.8235,-0.06 z m -12.1935,-14.7347 c -0.3337,-0.1155 -0.5087,-0.2703 -0.6898,-0.61 l -0.085,-0.1587 0,-7.122 0,-7.1219 0.098,-0.1853 c 0.1298,-0.2463 0.3147,-0.4253 0.5564,-0.5386 l 0.1984,-0.093 11.6331,0 11.633,0 0.1985,0.093 c 0.2522,0.1183 0.4427,0.3088 0.561,0.561 l 0.093,0.1984 0,7.0864 0,7.0864 -0.093,0.1985 c -0.1183,0.2522 -0.3088,0.4427 -0.561,0.561 l -0.1985,0.093 -11.5797,0.01 c -11.0702,0.01 -11.588,0.01 -11.7645,-0.056 z m 21.9412,-7.8907 0,-5.6833 -10.23,0 -10.23,0 0,5.6833 0,5.6834 10.23,0 10.23,0 0,-5.6834 z"
/>
</svg>
