<?xml version="1.0" encoding="UTF-8" standalone="no"?>
<svg
xmlns:svg="http://www.w3.org/2000/svg"
xmlns:inkscape="http://www.inkscape.org/namespaces/inkscape"
xmlns:rdf="http://www.w3.org/1999/02/22-rdf-syntax-ns#"
xmlns="http://www.w3.org/2000/svg"
xmlns:sodipodi="http://sodipodi.sourceforge.net/DTD/sodipodi-0.dtd"
xmlns:dc="http://purl.org/dc/elements/1.1/"
xmlns:cc="http://creativecommons.org/ns#"
>
<path
id="path5671"
style="fill:#6b98ff;fill-opacity:1;stroke:#000000;stroke-width:2.9629848;stroke-miterlimit:4;stroke-dasharray:none;stroke-opacity:1"
d="m 78.5185,37.8435999999999 c 0,6.9954 -2.51027,14.3521 -6.23455,21.4236 -14.07407,20.1882 -31.85184,38.6845 -31.85184,38.6845 0,0 -20.45266,-17.869 -33.53908,-39.0646 -3.27161,-6.6154 -5.41152,-13.6108 -5.41152,-20.6253 -0.0205,-19.6749 17.22221,-36.7835 38.49792,-36.7835 21.29629,0 38.53907,16.6713 38.53907,36.3653 z"
/>
<path
d="m 16.58455,33.6205 c -0.9658,0.3431 -1.46104,0.8283 -1.48316,1.3343 -0.0513,1.1738 2.79481,1.7237 4.56251,2.0464 l 13.96319,2.5457 c 1.76757,0.3229 4.5432,1.2284 5.83555,2.4979 0.12867,0.1263 0.25522,0.2565 0.37939,0.3891 1.23864,1.3228 2.10579,4.1545 2.40457,5.956 l 2.29041,13.8444 c 0.29906,1.8014 0.82163,4.6995 1.98459,4.6628 0.50581,-0.016 0.99794,-0.5131 1.3552,-1.488 l 16.79028,-45.8101 c 0.71436,-1.9496 -0.27214,-2.9737 -2.20233,-2.2874 l -45.8802,16.3089 z"
style="fill:#000000;fill-opacity:1;stroke:#000000;stroke-width:0.20103453;stroke-opacity:1"
id="path5797"
/>
</svg>
