<?xml version="1.0" encoding="UTF-8" standalone="no"?>
<svg
xmlns:inkscape="http://www.inkscape.org/namespaces/inkscape"
xmlns:svg="http://www.w3.org/2000/svg"
xmlns:rdf="http://www.w3.org/1999/02/22-rdf-syntax-ns#"
xmlns="http://www.w3.org/2000/svg"
xmlns:dc="http://purl.org/dc/elements/1.1/"
xmlns:cc="http://creativecommons.org/ns#"
xmlns:sodipodi="http://sodipodi.sourceforge.net/DTD/sodipodi-0.dtd"
>
<path
d="m 78.5185,37.8438000000001 c 0,6.9954 -2.51027,14.3521 -6.23455,21.4236 -14.07407,20.1882 -31.85183,38.6844 -31.85183,38.6844 0,0 -20.45266,-17.8689 -33.53909,-39.0645 -3.2716,-6.6154 -5.41151,-13.6108 -5.41151,-20.6253 -0.0205,-19.6749 17.2222,-36.7835 38.49791,-36.7835 21.2963,0 38.53907,16.6713 38.53907,36.3653 z"
style="fill:#999999;fill-opacity:1;stroke:#000000;stroke-width:2.9629848;stroke-miterlimit:4;stroke-dasharray:none;stroke-opacity:1"
id="path6075"
/>
<path
style="fill:#000000"
id="path5418"
d="m 22.5001,66.9824000000001 c 0.45929,-0.043 0.6807,-0.1129 0.6807,-0.2171 0,-0.1373 -0.38707,-0.4706 -0.71943,-0.6193 -0.16842,-0.075 -0.32818,-0.1371 -0.35503,-0.1371 -0.10965,0 -0.37467,-0.2037 -0.47313,-0.3637 -0.0578,-0.094 -0.12174,-0.2651 -0.14205,-0.3803 -0.0615,-0.3493 -0.0675,-4.4803 -0.007,-5.0443 0.12293,-1.1519 0.26012,-1.7051 0.66531,-2.6834 0.65138,-2.0448 0.74775,-2.643 2.39804,-5.397 0.24214,-0.1 0.33045,-0.1675 0.55695,-0.4286 0.63015,-0.7262 1.27991,-1.419 1.30531,-1.3917 0.0734,0.079 0.14788,0.7723 0.14634,1.3625 -0.004,1.5004 -0.26355,3.0566 -0.80999,4.8549 l -0.26897,0.8852 c 0.011,0.012 -0.007,0.032 -0.0108,0.048 l 0.0194,0.2307 c 0.0303,0.3588 0.1515,0.5507 1.62028,2.5649 1.1169,1.5318 1.41794,1.9715 2.1854,3.1922 0.62002,0.9862 0.69213,1.0893 1.07038,1.5298 0.40191,0.468 0.50546,0.6354 0.53826,0.8706 0.0168,0.1205 0.0663,0.246 0.11979,0.3035 0.087,0.094 1.10653,0.099 2.0211,0.127 1.28982,0.039 1.53497,-0.025 1.53497,-0.4017 0,-0.1923 -0.13991,-0.3447 -0.37687,-0.4106 -0.099,-0.027 -0.21721,-0.061 -0.26259,-0.075 l -0.31243,-0.076 c -0.26401,-0.05 -0.96209,-0.6097 -1.61454,-1.2947 -0.55306,-0.5807 -0.90775,-1.0733 -1.37044,-1.9034 -0.13042,-0.1816 -0.23007,-0.3834 -0.34238,-0.5766 l -0.0686,-0.1331 c -0.0377,-0.073 -0.14218,-0.2529 -0.2321,-0.3992 -0.0899,-0.1463 -0.18283,-0.3139 -0.20645,-0.3724 l -0.043,-0.1062 c -0.01,0.01 -0.0268,-0.01 -0.0402,-0.012 l -0.16561,-0.413 c -0.34295,-0.8553 -0.52071,-1.7304 -0.47697,-2.3482 0.0953,-2.4406 0.52464,-5.137 1.307,-7.1431 0.44559,-0.754 0.59266,-1.0681 0.59259,-1.2659 -4e-5,-0.112 -0.2144,-0.6106 -0.33087,-0.7698 -0.0457,-0.062 -0.11059,-0.2153 -0.14414,-0.3395 -0.0751,-0.2779 -0.18427,-1.1968 -0.18472,-1.5544 0.002,-0.1024 0.006,-0.2084 0.008,-0.3126 l -0.0269,-0.255 c -0.0148,-0.1403 -0.0213,-0.255 -0.0144,-0.255 0.0306,0 0.29064,0.094 0.67212,0.2441 1.44582,0.5672 2.5963,0.8693 4.21017,1.1053 1.23236,0.1803 1.93781,0.2465 3.11262,0.2919 1.2589,0.048 1.10114,0.076 1.62447,0.2863 0.38845,0.1559 0.90645,0.2592 1.58769,0.3164 0.19917,0.016 0.36881,0.043 0.37699,0.058 0.008,0.015 -0.0293,0.2965 -0.0832,0.6258 -0.0539,0.3294 -0.14581,0.8982 -0.20409,1.2641 -0.33024,2.0732 -0.68652,3.6706 -1.01068,4.5313 -0.28277,0.751 -0.37152,1.0856 -0.38041,1.4344 -0.008,0.3127 0.1884,1.4919 0.28283,1.6986 0.0312,0.068 0.0383,0.1119 0.0159,0.097 -0.0266,-0.017 -0.0299,0.1543 -0.01,0.4969 0.0336,0.5642 0.0398,3.9384 0.009,4.8486 l -0.0188,0.5544 0.13408,0.2182 c 0.15684,0.2554 0.16651,0.3953 0.0516,0.747 -0.14217,0.4348 -0.10467,0.5939 0.17671,0.7498 0.15729,0.087 1.30457,0.099 2.14386,0.127 0.51053,0.017 1.11388,0.015 1.34078,-0.01 0.22691,-0.02 0.42506,-0.037 0.44033,-0.038 0.0153,0 0.0849,-0.053 0.15471,-0.1167 0.17493,-0.1583 0.17231,-0.3321 -0.007,-0.4763 -0.0737,-0.059 -0.33829,-0.1703 -0.58789,-0.247 -0.72521,-0.2226 -0.73655,-0.2272 -0.9337,-0.3811 -0.24319,-0.1897 -0.39916,-0.481 -0.47075,-0.8791 -0.0757,-0.4211 -0.18211,-2.4472 -0.18559,-3.5347 -0.005,-1.3897 0.0714,-1.8976 0.414,-2.7721 0.29003,-0.7404 0.33031,-0.9127 0.33032,-1.4123 0,-0.5169 0.05,-0.8299 0.3117,-1.9519 0.44718,-1.9172 -0.0972,-1.2712 0.49176,-2.5649 0.23628,-0.519 0.51781,-2.2669 0.62562,-2.5263 l 0.196,-0.4716 0.25101,0.1058 c 0.36144,0.1523 0.75142,0.4131 1.06309,0.7111 0.27213,0.2601 0.3535,0.352 1.07291,1.2112 0.21366,0.2552 0.66694,0.7842 1.0073,1.1755 0.34036,0.3914 0.73021,0.8511 0.86635,1.0215 0.13615,0.1704 0.26988,0.3355 0.29718,0.3668 0.22496,0.2584 0.69198,0.9817 0.78627,1.2178 0.0265,0.066 0.0775,0.246 0.11337,0.3992 0.0358,0.1532 0.13122,0.4206 0.21195,0.5942 0.12228,0.2631 0.15033,0.3777 0.16828,0.6875 0.0222,0.3836 -0.0294,1.4616 -0.13667,2.8557 -0.0338,0.4391 -0.078,1.4171 -0.0982,2.1734 -0.0497,1.8627 -0.0966,2.1832 -0.36756,2.5151 -0.15522,0.19 -0.17001,0.4039 -0.0468,0.6774 0.11692,0.2596 0.29975,0.4303 0.70733,0.6601 0.19591,0.1105 1.54144,0.3016 1.71692,0.4249 0.48644,0.3413 0.64762,0.3671 1.06223,0.1695 0.21311,-0.1015 0.72059,-0.158 0.73195,-0.3764 -0.17544,-0.561 -0.63362,-0.7277 -1.01382,-1.0324 -0.37539,-0.3097 -0.36256,-0.254 -0.37709,-1.6386 -0.007,-0.6722 0.007,-1.5715 0.0321,-1.9984 0.0246,-0.427 0.0591,-1.385 0.0766,-2.129 0.0358,-1.5255 0.0294,-1.4916 0.3699,-1.9433 0.11608,-0.154 0.22505,-0.3336 0.24215,-0.3992 0.0494,-0.1896 0.031,-1.2425 -0.0277,-1.5829 -0.0672,-0.3894 -0.25409,-0.7135 -0.69067,-1.1976 -0.37819,-0.4194 -1.53971,-1.9248 -1.89935,-2.4617 -0.76199,-1.1375 -2.1926,-1.9305 -2.76526,-3.514 l -0.15602,-0.4315 0.22209,-0.2087 c 0.50215,-0.4719 0.78801,-0.8534 1.24271,-1.6586 0.0635,-0.1124 0.0712,-0.1138 1.04813,-0.1917 1.79593,-0.1432 2.8547,-0.2728 3.70699,-0.4538 0.78221,-0.1661 1.98525,-0.58 2.48927,-0.8565 0.0831,-0.045 0.16569,-0.084 0.18357,-0.085 0.058,-0.01 0.65956,-0.368 1.01766,-0.6175 0.78768,-0.5487 1.61399,-1.3082 2.03927,-1.8745 0.37554,-0.5001 1.0754,-1.6442 1.53004,-2.5013 0.72807,-1.3726 1.35772,-2.272 1.77421,-2.5344 0.21137,-0.1332 1.25256,-0.5916 1.85731,-0.8177 1.1124,-0.416 1.55473,-0.4824 1.82663,-0.2742 0.29148,0.2231 0.82876,0.303 1.08392,0.1611 0.0982,-0.055 0.12175,-0.096 0.12175,-0.2167 0,-0.1412 0.01,-0.1506 0.17531,-0.1783 0.30412,-0.051 0.40223,-0.1922 0.40223,-0.5798 0,-0.1769 -0.0358,-0.343 -0.12337,-0.5685 -0.0679,-0.1752 -0.15222,-0.4377 -0.18748,-0.5833 -0.0353,-0.1456 -0.0958,-0.3031 -0.13448,-0.3499 -0.10227,-0.1238 -0.37712,-0.248 -0.55138,-0.2491 -0.11369,-5e-4 -0.20391,-0.046 -0.36491,-0.1828 -0.37138,-0.3156 -0.46706,-0.3427 -1.39335,-0.3943 -1.17056,-0.065 -1.23504,-0.082 -2.06253,-0.5277 -0.67886,-0.3659 -0.8335,-0.4043 -1.62984,-0.4043 -0.65265,0 -0.65475,-3e-4 -0.82676,-0.1271 -0.28421,-0.2096 -0.58896,-0.3649 -0.65933,-0.3358 -0.10285,0.043 -0.17321,0.3158 -0.10474,0.4066 0.0486,0.08 -0.0132,0.021 -0.0466,0.074 0,0.037 -0.0762,0.1329 -0.16926,0.2133 -0.23559,0.2035 -0.28453,0.3279 -0.28453,0.7229 0,0.4427 -0.0528,0.5477 -0.8254,1.6411 -0.42096,0.5957 -0.55622,0.8139 -1.35787,2.1903 -1.13792,1.9537 -0.87121,1.5049 -1.15105,1.9591 -0.37804,0.4419 -0.48849,2.1068 -5.43923,0.7054 -0.73606,-0.2084 -1.72849,-1.2691 -2.18934,-1.5954 -0.54605,-0.7048 -0.37503,-0.5486 -0.94052,-1.2583 -0.77953,-0.6967 -1.16228,-1.4061 -1.43862,-1.9599 -0.0617,-0.1238 -0.22416,-0.3723 -0.36095,-0.5522 -0.21925,-0.2885 -0.61254,-1.0278 -0.61254,-1.1514 -0.10189,-0.2164 0,0 -0.14036,-0.3761 -0.30484,-0.69 -0.65151,-1.4531 -1.10127,-2.082 -0.21922,-0.2119 -0.61318,-0.3854 -0.90208,-0.3972 -0.0869,0 -0.14798,-0.024 -0.13575,-0.046 0.0123,-0.022 -0.0369,-0.03 -0.1092,-0.019 -0.0723,0.011 -0.14047,0.01 -0.1515,-0.014 -0.011,-0.019 -0.13091,-0.049 -0.26634,-0.065 -0.13546,-0.016 -0.24629,-0.036 -0.24629,-0.045 0,-0.055 0.21323,-1.9324 0.23254,-2.0475 l 0.0242,-0.1442 -0.27275,0 c -0.19447,0 -0.27275,0.016 -0.27275,0.057 0,0.1356 -0.24591,2.0334 -0.26859,2.0729 -0.0138,0.024 -0.0886,0.043 -0.16624,0.043 -0.15754,0 -0.15992,-0.01 -0.20662,-0.465 -0.0409,-0.4027 -0.12004,-0.561 -0.44914,-0.8986 -0.23873,-0.2449 -0.33988,-0.3916 -0.48506,-0.7038 -0.16214,-0.3486 -0.26835,-0.6109 -0.30328,-0.7491 -0.0664,-0.2628 -0.1097,-0.8162 -0.1197,-1.5303 -0.0103,-0.7334 -0.0255,-0.9111 -0.1,-1.1689 -0.11144,-0.3855 -0.11023,-0.4342 0.0138,-0.5595 0.0925,-0.093 0.12534,-0.1 0.36098,-0.072 0.69333,0.083 0.68882,0.083 0.79509,0.01 0.067,-0.047 0.10364,-0.1141 0.10364,-0.1891 0,-0.064 0.0413,-0.2051 0.0918,-0.3138 0.0858,-0.1848 0.0872,-0.2014 0.0214,-0.2532 -0.0646,-0.051 -0.0619,-0.06 0.0319,-0.1056 0.0836,-0.041 0.10242,-0.082 0.10242,-0.2236 0,-0.1631 0.009,-0.1751 0.14439,-0.2025 0.16255,-0.033 0.17067,-0.067 0.081,-0.3403 -0.0466,-0.142 -0.0561,-0.2736 -0.0357,-0.4954 0.0265,-0.2895 0.0334,-0.3046 0.16456,-0.3635 0.11667,-0.052 0.14715,-0.099 0.20634,-0.3184 0.0438,-0.1622 0.0682,-0.4024 0.066,-0.6518 -0.005,-0.5144 -0.0803,-0.6458 -0.55256,-0.9582 -0.88369,-0.5847 -1.95113,-0.7857 -2.54925,-0.48 -0.30237,0.1546 -0.5716,0.4099 -0.66478,0.6304 -0.13144,0.3112 -0.0796,0.7988 0.11384,1.0715 l 0.10677,0.1505 -0.10947,0.3175 c -0.0881,0.2556 -0.11239,0.4136 -0.12448,0.8096 -0.0197,0.6447 -0.0423,0.7018 -0.30676,0.7747 -0.48556,0.1337 -1.09633,0.7277 -1.54923,1.5066 -0.47927,0.8243 -1.00157,2.1387 -1.13086,2.8461 -0.0791,0.4326 -0.13359,1.3786 -0.12159,2.1092 l 0.0117,0.7123 -0.17453,0.2493 c -0.2921,0.4174 -0.30952,0.7919 -0.0531,1.1426 0.0624,0.085 0.12733,0.2029 0.14424,0.2612 l 0.0307,0.106 -0.42746,-0.028 c -0.23511,-0.016 -1.21647,-0.041 -2.18081,-0.056 -1.61162,-0.026 -2.78652,0.01 -3.53583,0.1014 l -0.21478,0.027 -0.58459,-0.9585 -0.58459,-0.9586 -0.11908,0.091 -0.11909,0.091 0.23519,0.4734 c 0.12937,0.2604 0.32171,0.6454 0.42746,0.8557 0.35397,0.704 0.36161,0.7292 0.40318,1.3253 0.0213,0.305 0.0352,0.559 0.031,0.5646 -0.005,0.01 -0.3401,0.035 -0.74641,0.066 l -0.73874,0.056 -0.046,0.1774 c -0.0536,0.2068 0.0275,0.187 -0.95956,0.2351 -0.75474,0.037 -0.78954,0.048 -0.79095,0.2598 -0.002,0.1149 0.0984,0.1323 0.96887,0.1698 0.31766,0.014 0.68294,0.036 0.81173,0.05 0.22261,0.024 0.23381,0.031 0.22691,0.1431 l -0.007,0.118 0.51234,0.022 c 0.33291,0.014 0.51786,0.04 0.52807,0.073 0.009,0.028 0.0812,0.1414 0.1613,0.2519 0.19475,0.2688 0.18068,0.3984 -0.0466,0.429 -0.16426,0.022 -0.16508,0.023 -0.17759,0.2328 l -0.0125,0.2107 0.18792,0 0.1879,0 0,0.36 c 0,0.3578 -0.002,0.3608 -0.15139,0.509 -0.094,0.092 -0.32079,0.221 -0.59794,0.3386 l -0.44655,0.1896 -0.002,0.377 c -0.002,0.4473 -0.087,0.9213 -0.21693,1.1976 -0.0727,0.1546 -0.168,0.2523 -0.42298,0.4335 -0.21632,0.1538 -0.60487,0.5279 -1.13361,1.0914 -0.44246,0.4716 -0.92515,0.9543 -1.07263,1.0727 -0.37147,0.2981 -1.25276,1.2318 -1.40763,1.4913 -0.28753,0.4816 -0.5819,1.6166 -0.71687,2.7638 -0.12174,1.0346 -0.19585,1.3301 -0.41161,1.6411 -0.13654,0.1968 -0.25003,0.4552 -0.32825,0.7474 -0.0382,0.1427 -0.14262,0.4631 -0.23202,0.7119 -0.18544,0.5162 -0.25453,0.6021 -0.78222,0.9722 -0.31616,0.2217 -0.46436,0.3581 -0.54875,0.5049 -0.0157,0.027 0.11177,-0.029 0.28325,-0.1238 0.2367,-0.1317 0.35849,-0.173 0.50554,-0.1715 l 0.19375,0 -0.24753,0.1246 c -0.13614,0.068 -0.33107,0.2067 -0.43317,0.3073 l -0.18565,0.1829 0.2292,-0.082 c 0.12606,-0.045 0.3117,-0.096 0.41255,-0.1121 0.10084,-0.016 0.23441,-0.041 0.2968,-0.053 0.0953,-0.019 0.11345,-0.01 0.11345,0.072 0,0.2306 -0.16667,0.368 -0.51435,0.4241 -0.17648,0.028 -0.24292,0.072 -0.49451,0.3276 -0.31868,0.3231 -0.40939,0.3752 -0.80379,0.4615 -0.31089,0.068 -0.2834,0.1051 0.13483,0.182 l 0.29577,0.054 -0.21478,0.118 c -0.11815,0.065 -0.3666,0.1651 -0.55215,0.2227 l -0.33735,0.1048 0.13543,0.05 c 0.19352,0.072 0.60716,0.063 0.86855,-0.02 0.47969,-0.1531 1.06473,-0.5487 1.50999,-1.0212 0.28222,-0.2996 0.32484,-0.3718 0.65541,-1.1108 0.31738,-0.7097 0.3576,-0.8285 0.39327,-1.1624 0.0474,-0.4432 0.0858,-0.628 0.2225,-1.0695 l 0.10301,-0.3327 -0.024,0.4879 c -0.0405,0.8265 -0.11781,1.1281 -0.50022,1.9517 -0.27443,0.5911 -0.40048,0.9752 -0.58932,1.7962 -0.20669,0.8986 -0.3718,1.4046 -0.66574,2.0403 -0.30077,0.6506 -1.07378,1.9436 -1.63921,2.742 -0.46424,0.6554 -0.61065,0.8795 -0.71415,1.093 -0.0991,0.2044 -0.0973,-0.1882 -0.02,4.2154 0.0294,1.6832 0.0406,3.25 0.0245,3.4818 -0.016,0.2317 -0.0682,0.5479 -0.11602,0.7025 -0.10403,0.3366 -0.11012,0.5733 -0.0205,0.7958 0.14368,0.3566 0.14295,0.4356 -0.008,0.8556 -0.15533,0.4324 -0.18284,0.7557 -0.078,0.9167 0.0924,0.1418 0.70122,0.1885 1.26624,0.1887 0.27685,0 1.2869,0.018 1.39578,0.042 0.34184,0.071 0.43663,0.077 0.77557,0.045 z m 5.7817,-38.6442 c 0,-0.01 0.0417,-0.053 0.0928,-0.1 l 0.0928,-0.084 -0.0786,0.1 c -0.0738,0.094 -0.10705,0.12 -0.10705,0.085 z"
/>
</svg>
