<?xml version="1.0" encoding="UTF-8" standalone="no"?>
<svg
xmlns:rdf="http://www.w3.org/1999/02/22-rdf-syntax-ns#"
xmlns:inkscape="http://www.inkscape.org/namespaces/inkscape"
xmlns:svg="http://www.w3.org/2000/svg"
xmlns:dc="http://purl.org/dc/elements/1.1/"
xmlns:cc="http://creativecommons.org/ns#"
xmlns:sodipodi="http://sodipodi.sourceforge.net/DTD/sodipodi-0.dtd"
xmlns="http://www.w3.org/2000/svg"
>
<path
d="m 78.5185,37.8438000000001 c 0,6.9954 -2.51026,14.3521 -6.23455,21.4236 -14.07407,20.1882 -31.85184,38.6844 -31.85184,38.6844 0,0 -20.45266,-17.8689 -33.53908,-39.0645 -3.27161,-6.6154 -5.41152,-13.6108 -5.41152,-20.6253 -0.0205,-19.6749 17.22222,-36.7835 38.49792,-36.7835 21.29629,0 38.53907,16.6713 38.53907,36.3653 z"
style="fill:#999999;fill-opacity:1;stroke:#000000;stroke-width:2.9629848;stroke-miterlimit:4;stroke-dasharray:none;stroke-opacity:1"
id="path6077"
/>
<rect
id="rect5526"
style="opacity:1;fill:#ffffff;fill-opacity:1;stroke:#ffffff;stroke-width:1;stroke-miterlimit:4;stroke-dasharray:none;stroke-opacity:1"
y="32.7035000000001"
width="43.133514"
height="31.819805"
x="18.4978"
/>
<path
style="fill:#000000;fill-opacity:1"
id="path5528"
d="m 52.58504,42.1460999999999 -2.94785,-2.648 -13.55442,12.199 -5.89002,-5.301 -2.94218,2.648 8.8322,7.954 16.50227,-14.852 0,0 z m 6.8594,-20.148 -2.77778,0 0,-5 -5.55555,0 0,5 -22.22222,0 0,-5 -5.55556,0 0,5 -2.77778,0 c -3.06689,0 -5.52721,2.2398 -5.52721,5 l -0.0283,35 c 0,2.7603 2.48866,5 5.55556,5 l 38.88888,0 c 3.06689,0 5.55556,-2.2397 5.55556,-5 l 0,-35 c 0,-2.7602 -2.48867,-5 -5.55556,-5 l 0,0 z m 0,40 -38.88889,0 0,-27.5 38.88889,0 0,27.5 z"
/>
</svg>
