<?xml version="1.0" encoding="UTF-8" standalone="no"?>
<svg
xmlns="http://www.w3.org/2000/svg"
xmlns:sodipodi="http://sodipodi.sourceforge.net/DTD/sodipodi-0.dtd"
xmlns:dc="http://purl.org/dc/elements/1.1/"
xmlns:cc="http://creativecommons.org/ns#"
xmlns:svg="http://www.w3.org/2000/svg"
xmlns:inkscape="http://www.inkscape.org/namespaces/inkscape"
xmlns:rdf="http://www.w3.org/1999/02/22-rdf-syntax-ns#"
>
<path
d="m 78.5184999999999,37.8436999999999 c 0,6.9954 -2.5104,14.3521 -6.2346,21.4236 -14.0741,20.1882 -31.8519,38.6844 -31.8519,38.6844 0,0 -20.4526,-17.8689 -33.539,-39.0645 -3.2716,-6.6154 -5.4115,-13.6108 -5.4115,-20.6253 -0.021,-19.6749 17.2223,-36.7835 38.4978,-36.7835 21.2963,0 38.5392,16.6713 38.5392,36.3653 z"
style="fill:#ff8080;fill-opacity:1;stroke:#000000;stroke-width:2.9629848;stroke-miterlimit:4;stroke-dasharray:none;stroke-opacity:1"
id="path5559"
/>
<path
d="m 26.9772,15.0981999999999 c -1.4247,0.2416 -2.754,1.4485 -3.378,3.0416 l -0.2853,0.7402 0,16.2542 0,16.2535 0.3796,0.9176 c 0.4751,1.1585 1.4926,2.2692 2.4423,2.6554 0.6649,0.2735 1.6553,0.2899 19.0891,0.2899 l 18.3836,0 0.7459,-0.4182 c 1.0854,-0.5956 1.6957,-1.3038 2.1978,-2.5265 l 0.4476,-1.078 0,-16.0925 0,-16.0925 -0.4476,-1.078 c -0.4883,-1.2069 -1.194,-1.9792 -2.2794,-2.5748 l -0.6649,-0.3698 -17.9762,-0.016 c -9.8904,-0.018 -18.2881,0.03 -18.6545,0.094 z"
id="path6028"
style="fill:#ffffff;fill-opacity:1"
/>
<path
d="m 26.9773,15.0983000000001 c -1.4248,0.2415 -2.7541,1.4484 -3.3781,3.0415 l -0.2853,0.7402 0,16.2542 0,16.2535 0.3796,0.9176 c 0.4751,1.1585 1.4926,2.2692 2.4423,2.6554 0.6649,0.2735 1.6553,0.2899 19.0893,0.2899 l 18.3836,0 0.746,-0.4182 c 1.0854,-0.5956 1.6956,-1.3038 2.1977,-2.5265 l 0.4476,-1.078 0,-16.0925 0,-16.0925 -0.4476,-1.078 c -0.4883,-1.2069 -1.194,-1.9792 -2.2794,-2.5748 l -0.6649,-0.3698 -17.9763,-0.016 c -9.8904,-0.018 -18.2881,0.03 -18.6545,0.094 z m 35.722,20.068 -0.041,14.934 -17.5288,0.048 -17.5421,0.032 0,-14.9661 0,-14.9661 17.5696,0 17.5697,0 -0.028,14.9177 z"
style="fill:#000000"
id="path6030"
/>
<path
id="path6032"
style="fill:#ffffff;fill-opacity:1"
d="m 18.6632999999999,26.8476000000001 c -1.4247,0.2416 -2.754,1.4485 -3.378,3.0416 l -0.2853,0.7402 0,16.2542 0,16.2535 0.3797,0.9176 c 0.475,1.1585 1.4926,2.2692 2.4422,2.6554 0.6649,0.2736 1.6554,0.2899 19.0892,0.2899 l 18.3834,0 0.7461,-0.4182 c 1.0853,-0.5956 1.6957,-1.3038 2.1978,-2.5265 l 0.4475,-1.0779 0,-16.0926 0,-16.0925 -0.4475,-1.078 c -0.4884,-1.2069 -1.1941,-1.9792 -2.2795,-2.5748 l -0.6649,-0.3698 -17.9762,-0.016 c -9.8903,-0.018 -18.2881,0.03 -18.6545,0.094 z"
/>
<path
d="m 18.9245000000001,23.9856 c -1.5263,0.2588 -2.9504,1.5517 -3.6189,3.2584 l -0.3056,0.793 0,17.4127 0,17.412 0.4067,0.9831 c 0.509,1.241 1.599,2.4309 2.6163,2.8446 0.7124,0.2931 1.7734,0.3106 20.45,0.3106 l 19.6939,0 0.7993,-0.4481 c 1.1627,-0.638 1.8165,-1.3967 2.3544,-2.7065 l 0.4794,-1.1548 0,-17.2395 0,-17.2396 -0.4794,-1.1548 c -0.5232,-1.293 -1.2792,-2.1204 -2.442,-2.7584 l -0.7123,-0.3962 -19.2576,-0.017 c -10.5953,-0.02 -19.5917,0.032 -19.9842,0.1011 z m 38.2682,21.4985 -0.044,15.9985 -18.7782,0.052 -18.7925,0.034 0,-16.0329 0,-16.0329 18.822,0 18.822,0 -0.03,15.981 z"
id="path6034"
style="fill:#000000"
/>
<path
d="m 22.3891000000001,57.6823999999999 c -0.07,-0.07 -0.1268,-3.6134 -0.1268,-7.8737 l 0,-7.746 0.7239,0 c 0.9706,0 28.8906,2.4465 29.1935,2.5581 0.1869,0.069 0.2274,1.4884 0.1886,6.5899 l -0.049,6.5021 -14.9014,0.049 c -8.1957,0.027 -14.9584,-0.01 -15.0281,-0.079 z"
id="path6036"
style="fill:#000000"
/>
<path
id="path6038"
style="fill:#000000"
d="m 53.3007,49.4409000000001 c -0.074,-0.074 -0.1341,-1.0598 -0.1341,-2.1901 0,-1.9286 0.023,-2.055 0.3769,-2.055 0.3655,0 0.3769,-0.1265 0.3769,-4.1639 l 0,-4.1639 -1.0835,-0.057 -1.0836,-0.057 0,-0.7588 0,-0.7588 1.7902,0 1.7901,0 0,7.1137 0,7.1136 -0.9494,0.056 c -0.5222,0.031 -1.0098,-0.01 -1.0835,-0.079 z"
/>
<path
d="m 36.5063,41.5762999999999 c -7.9713,-0.7126 -14.6107,-1.341 -14.7541,-1.3964 -0.1947,-0.075 -0.2468,-0.4263 -0.2052,-1.3839 l 0.056,-1.283 15.6199,-0.048 c 11.3837,-0.035 15.6895,0.01 15.8761,0.1655 0.1896,0.1582 0.2562,0.7969 0.2562,2.4516 0,1.2307 -0.052,2.3727 -0.1144,2.5377 -0.1641,0.4309 -0.4388,0.4138 -16.7344,-1.043 z"
id="path6040"
style="fill:#000000"
/>
<path
d="m 22.3396,36.5881999999999 c -0.058,-0.1519 -0.078,-0.5182 -0.044,-0.8139 l 0.061,-0.5377 1.6018,0 1.6018,0 0,0.7588 0,0.7588 -1.5577,0.055 c -1.2264,0.043 -1.58,0 -1.6628,-0.2211 z"
style="fill:#000000"
id="path6042"
/>
<path
id="path6044"
style="fill:#000000"
d="m 30.0699,36.5994000000001 c -0.055,-0.1455 -0.075,-0.8105 -0.045,-1.4776 l 0.057,-1.2131 7.2549,0 7.255,0 0,1.4227 0,1.4228 -1.5856,0.056 c -1.72,0.06 -1.8925,-0.027 -1.8977,-0.9567 l -0.01,-0.5217 -3.7574,0 -3.7574,0 -0.059,0.7114 -0.058,0.7114 -1.652,0.055 c -1.2768,0.042 -1.6748,0 -1.7528,-0.2097 z"
/>
</svg>
