<?xml version="1.0" encoding="UTF-8" standalone="no"?>
<svg
xmlns="http://www.w3.org/2000/svg"
xmlns:sodipodi="http://sodipodi.sourceforge.net/DTD/sodipodi-0.dtd"
xmlns:cc="http://creativecommons.org/ns#"
xmlns:dc="http://purl.org/dc/elements/1.1/"
xmlns:svg="http://www.w3.org/2000/svg"
xmlns:inkscape="http://www.inkscape.org/namespaces/inkscape"
xmlns:rdf="http://www.w3.org/1999/02/22-rdf-syntax-ns#"
>
<path
d="m 78.5185000000001,37.8436999999999 c 0,6.9955 -2.5104,14.3522 -6.2347,21.4238 -14.074,20.1881 -31.8518,38.6843 -31.8518,38.6843 0,0 -20.4526,-17.8689 -33.539,-39.0646 -3.2715,-6.6153 -5.4115,-13.6107 -5.4115,-20.6253 -0.021,-19.6748 17.2222,-36.7834 38.498,-36.7834 21.2962,0 38.539,16.6713 38.539,36.3652 z"
style="fill:#99ff55;fill-opacity:1;stroke:#000000;stroke-width:2.96299362;stroke-miterlimit:4;stroke-dasharray:none;stroke-opacity:1"
id="path5818"
/>
<rect
id="rect4728"
style="opacity:1;fill:#ffffff;fill-opacity:1;stroke:#ffffff;stroke-width:1;stroke-miterlimit:4;stroke-dasharray:none;stroke-opacity:1"
y="32.7035000000001"
height="31.819805"
width="43.133514"
x="18.4978000000001"
/>
<path
d="m 59.4445000000001,21.9981 -2.7778,0 0,-5 -5.5556,0 0,5 -22.2222,0 0,-5 -5.5556,0 0,5 -2.7777,0 c -3.067,0 -5.5273,2.2398 -5.5273,5 l -0.028,35 c 0,2.7602 2.4887,5 5.5556,5 l 38.8889,0 c 3.0668,0 5.5555,-2.2398 5.5555,-5 l 0,-35 c 0,-2.7602 -2.4887,-5 -5.5555,-5 l 0,0 z"
style="fill:#000000"
id="path4730"
/>
<path
d="m 59.4445000000001,61.9981 -38.8889,0 0,-35.1014 38.8889,0 0,35.1014 z"
id="path4732"
style="fill:#ffffff"
/>
<path
style="fill:#000000"
id="path4734"
d="m 40.1361000000002,40.8430000000001 -2.2557,-2.9965 -10.3716,13.8046 -4.507,-5.9988 -2.2513,2.9965 6.7583,9.001 12.6273,-16.8068 0,0 z"
/>
<path
d="m 49.4158000000002,40.8430000000001 -2.2557,-2.9965 -10.3715,13.8046 -4.507,-5.9988 -2.2513,2.9965 6.7583,9.001 12.6272,-16.8068 0,0 z"
style="fill:#000000"
id="path4736"
/>
<path
id="path4738"
style="fill:#000000"
d="m 58.6956,40.8430000000001 -2.2557,-2.9965 -10.3716,13.8046 -4.5069,-5.9988 -2.2513,2.9965 6.7582,9.001 12.6273,-16.8068 0,0 z"
/>
<path
id="path4740"
style="fill:#000000;fill-opacity:1;stroke:#000000;stroke-width:0.5;stroke-opacity:1"
d="m 30.4351000000001,36.0094999999999 -1.0877,0 0,-7.0477 -2.2741,4.7955 -0.6483,0 -2.2576,-4.7955 0,7.0477 -1.0163,0 0,-8.1793 1.4832,0 2.1808,4.5538 2.1094,-4.5538 1.5106,0 0,8.1793 z"
/>
<path
d="m 38.5320999999999,36.0094999999999 -5.3888,0 0,-8.1793 5.3888,0 0,0.9668 -4.3011,0 0,2.2412 4.3011,0 0,0.9668 -4.3011,0 0,3.0377 4.3011,0 0,0.9668 z"
id="path4742"
style="fill:#000000;fill-opacity:1;stroke:#000000;stroke-width:0.5;stroke-opacity:1"
/>
<path
id="path4744"
style="fill:#000000;fill-opacity:1;stroke:#000000;stroke-width:0.5;stroke-opacity:1"
d="m 48.585,35.4052999999999 q -0.6702,0.3076 -1.4667,0.5383 -0.7911,0.2252 -1.5326,0.2252 -0.9558,0 -1.7524,-0.2636 -0.7964,-0.2637 -1.3568,-0.7911 -0.5657,-0.5328 -0.8733,-1.3293 -0.3077,-0.802 -0.3077,-1.8732 0,-1.961 1.1426,-3.0926 1.1481,-1.1371 3.1476,-1.1371 0.6976,0 1.4227,0.1703 0.7306,0.1648 1.5711,0.5658 l 0,1.2909 -0.099,0 q -0.1703,-0.1319 -0.4944,-0.3461 -0.3241,-0.2142 -0.6372,-0.3571 -0.3791,-0.1703 -0.8625,-0.2801 -0.4779,-0.1154 -1.0876,-0.1154 -1.3733,0 -2.1752,0.8844 -0.7966,0.8789 -0.7966,2.3841 0,1.5875 0.835,2.4719 0.8349,0.8789 2.2741,0.8789 0.5274,0 1.0492,-0.1044 0.5274,-0.1043 0.9229,-0.2691 l 0,-2.005 -2.1918,0 0,-0.9559 3.2684,0 0,3.5102 z"
/>
<path
d="m 58.4346,36.0094999999999 -1.1591,0 -0.802,-2.2796 -3.5376,0 -0.802,2.2796 -1.1041,0 2.9773,-8.1793 1.4502,0 2.9773,8.1793 z m -2.2961,-3.2135 -1.4338,-4.0155 -1.4392,4.0155 2.873,0 z"
style="fill:#000000;fill-opacity:1;stroke:#000000;stroke-width:0.5;stroke-opacity:1"
id="path4746"
/>
</svg>
