<?xml version="1.0" encoding="UTF-8" standalone="no"?>
<svg
xmlns:rdf="http://www.w3.org/1999/02/22-rdf-syntax-ns#"
xmlns:inkscape="http://www.inkscape.org/namespaces/inkscape"
xmlns:svg="http://www.w3.org/2000/svg"
xmlns:dc="http://purl.org/dc/elements/1.1/"
xmlns:cc="http://creativecommons.org/ns#"
xmlns:sodipodi="http://sodipodi.sourceforge.net/DTD/sodipodi-0.dtd"
xmlns="http://www.w3.org/2000/svg"
>
<path
style="fill:#6b98ff;fill-opacity:1;stroke:#000000;stroke-width:2.9629848;stroke-miterlimit:4;stroke-dasharray:none;stroke-opacity:1"
id="path3945"
d="m 78.5185,37.8435999999999 c 0,6.9954 -2.51028,14.3521 -6.23456,21.4236 -14.07406,20.1882 -31.85183,38.6845 -31.85183,38.6845 0,0 -20.45267,-17.869 -33.53908,-39.0646 -3.27161,-6.6154 -5.41152,-13.6108 -5.41152,-20.6253 -0.0206,-19.6749 17.22221,-36.7835 38.49792,-36.7835 21.29629,0 38.53907,16.6713 38.53907,36.3653 z"
/>
<path
d="m 46.12351,66.6972000000001 c -0.68281,-0.095 -1.46379,-0.3506 -2.09715,-0.6874 -0.80168,-0.4263 -1.78149,-1.2661 -2.37541,-2.0359 -0.1747,-0.2265 -0.31307,-0.4184 -0.30748,-0.4265 0.006,-0.01 0.10005,0.014 0.20992,0.05 1.03043,0.3323 2.43818,0.5655 3.87956,0.6427 2.73735,0.1467 5.48868,-0.4546 7.46156,-1.6305 0.47814,-0.285 1.20046,-0.8168 1.45845,-1.0736 0.13636,-0.1358 0.25814,-0.2469 0.27062,-0.2469 0.0125,0 0.13405,-0.1237 0.27017,-0.2749 l 0.24749,-0.2748 -0.20005,0.3083 c -1.30479,2.0107 -2.50341,3.3293 -3.9241,4.3167 -1.54786,1.0757 -3.30222,1.5537 -4.89358,1.3332 z"
id="path5254"
style="fill:#000000;fill-opacity:1;stroke:#000000;stroke-width:0.49598038;stroke-opacity:1"
/>
<path
d="m 40.54968,60.8637000000001 c 0.024,-0.9815 0.51174,-3.546 1.03529,-5.4432 0.49585,-1.7968 1.438,-4.2924 2.40472,-6.3697 1.16134,-2.4954 1.48607,-3.0508 3.61113,-6.1764 1.74441,-2.5657 2.40286,-3.3834 3.8159,-4.7387 0.62979,-0.6041 0.90371,-0.8535 2.46266,-2.2423 0.89039,-0.7932 1.67438,-1.5338 2.16979,-2.0498 1.50793,-1.5705 2.89226,-3.3584 4.11113,-5.3096 0.50769,-0.8127 0.65426,-1.0653 1.0252,-1.7665 0.22134,-0.4183 0.48855,-0.9217 0.59382,-1.1186 0.10527,-0.1969 0.36753,-0.7524 0.58282,-1.2344 1.13812,-2.5482 1.68546,-4.2049 2.24578,-6.7974 l 0.12088,-0.5594 -0.0177,0.4027 c -0.13095,2.9912 -0.5742,5.9218 -1.28245,8.4793 -0.17559,0.6341 -0.83757,2.6195 -0.95921,2.8769 -0.0441,0.093 -0.0802,0.181 -0.0802,0.1946 0,0.039 -0.32636,0.8004 -0.56334,1.3136 -0.39975,0.8657 -0.93861,1.8795 -1.4151,2.6624 -0.23271,0.3823 -1.26895,1.8985 -1.49945,2.1939 -1.53032,1.9614 -3.00441,3.4536 -4.97047,5.0315 -0.98311,0.7891 -2.00645,1.6786 -2.54222,2.2097 -1.26225,1.2515 -2.70085,2.8423 -3.30545,3.6553 -0.0846,0.1138 -0.22313,0.2956 -0.30777,0.4041 -1.79851,2.3047 -3.3742,4.8858 -4.80547,7.8715 -0.61751,1.2882 -0.86915,1.9208 -1.60181,4.0271 -0.55315,1.5902 -0.70433,2.0992 -0.79309,2.6703 l -0.0474,0.3053 0.012,-0.4922 z"
style="fill:#000000;fill-opacity:1;stroke:#000000;stroke-width:0.49598038;stroke-opacity:1"
id="path5256"
/>
<path
d="m 50.7401,59.8277 c -0.82122,-0.094 -1.51929,-0.3519 -2.13902,-0.789 l -0.32316,-0.228 0.16927,-0.039 c 1.86012,-0.4288 2.84322,-0.7325 4.10501,-1.268 2.12201,-0.9007 3.95087,-2.167 5.42055,-3.753 0.95907,-1.035 1.90398,-2.3825 2.54878,-3.6346 0.10383,-0.2016 0.19311,-0.3603 0.19841,-0.3526 0.0179,0.026 -0.27218,0.9738 -0.50619,1.6539 -0.7664,2.2272 -1.72654,4.0495 -2.81066,5.3345 -0.28528,0.3382 -1.29958,1.3747 -1.56699,1.6014 -0.6352,0.5384 -1.93323,1.122 -2.98776,1.3433 -0.65,0.1365 -1.56624,0.1934 -2.10824,0.1311 z"
style="fill:#000000;fill-opacity:1;stroke:#000000;stroke-width:0.49598038;stroke-opacity:1"
id="path5258"
/>
<path
d="m 49.70906,54.6378999999999 c -0.27409,-0.036 -1.03454,-0.1986 -1.20031,-0.2568 l -0.16927,-0.06 0.24621,-0.1675 c 0.4303,-0.2927 0.87197,-0.5596 1.63119,-0.9856 1.17156,-0.6574 1.56293,-0.8974 2.15441,-1.321 2.90273,-2.0793 5.24513,-4.277 6.88541,-6.4603 1.57081,-2.0907 2.70037,-4.2884 3.70346,-7.2053 0.19384,-0.5637 0.35243,-1.0709 0.35243,-1.1272 0,-0.056 0.0138,-0.1148 0.0308,-0.13 0.056,-0.05 0.0326,0.2299 -0.0772,0.9262 -0.84011,5.3247 -2.41219,9.5164 -4.663,12.4331 -1.65666,2.1468 -3.62898,3.5456 -5.79814,4.1121 -0.7703,0.2012 -1.03073,0.2333 -2.00332,0.2467 -0.52476,0.01 -1.01643,0 -1.0926,-0.01 z"
style="fill:#000000;fill-opacity:1;stroke:#000000;stroke-width:0.49598038;stroke-opacity:1"
id="path5260"
/>
<path
style="fill:#000000;fill-opacity:1;stroke:#000000;stroke-width:0.49598038;stroke-opacity:1"
id="path5262"
d="m 49.9245,49.2397000000001 c 1.01993,-0.8993 1.12035,-0.9903 1.18304,-1.0726 0.0328,-0.043 0.07,-0.078 0.0827,-0.078 0.022,0 0.37669,-0.3321 0.67327,-0.6302 0.50963,-0.5122 1.17816,-1.1944 1.30803,-1.3347 0.0846,-0.091 0.29238,-0.3152 0.46165,-0.4973 1.53646,-1.6528 2.98066,-3.4904 4.44436,-5.6549 2.0691,-3.0598 3.91509,-6.6782 5.34385,-10.4747 0.31946,-0.8489 0.96249,-2.7244 1.15055,-3.3559 0.0733,-0.2461 0.14622,-0.4676 0.16206,-0.4922 0.0185,-0.029 0.0229,-0.021 0.0123,0.022 -0.009,0.037 -0.0519,0.3691 -0.0952,0.7383 -0.53158,4.5326 -1.65202,8.7553 -3.29958,12.4352 -1.47868,3.3027 -2.96195,5.5816 -4.77906,7.3426 -1.63002,1.5796 -3.3364,2.6086 -5.30023,3.1963 -0.4709,0.1409 -1.34862,0.3335 -1.74777,0.3834 l -0.23082,0.029 0.63093,-0.5563 z"
/>
<path
d="m 32.2994,66.6746000000001 c -0.0423,-0.01 -0.20158,-0.038 -0.35393,-0.065 -1.19415,-0.2111 -2.66885,-0.9468 -3.89626,-1.9436 -0.81673,-0.6632 -1.37993,-1.3083 -2.50461,-2.8684 -0.5962,-0.8271 -0.78192,-1.1258 -0.57839,-0.9304 1.8357,1.7625 4.13783,2.9133 6.60993,3.3041 1.74756,0.2762 3.66802,0.1403 6.23239,-0.4412 0.54328,-0.1232 0.77462,-0.1665 0.78775,-0.1475 0.0322,0.047 -0.21452,0.4361 -0.42167,0.6656 -1.16026,1.2854 -2.62854,2.1201 -4.19962,2.3872 -0.35647,0.061 -1.45178,0.086 -1.67559,0.039 z"
id="path5264"
style="fill:#000000;fill-opacity:1;stroke:#000000;stroke-width:0.49598038;stroke-opacity:1"
/>
<path
d="m 39.44199,61.4118000000001 c -0.18814,-0.8245 -0.66407,-2.4965 -0.98394,-3.4566 -1.29329,-3.8819 -2.85928,-6.8967 -5.38922,-10.3753 -0.47372,-0.6514 -1.60038,-2.0219 -2.23135,-2.7144 -0.25391,-0.2787 -0.59678,-0.6549 -0.76194,-0.8361 -1.06054,-1.1635 -3.23507,-3.2131 -4.45388,-4.198 -1.03221,-0.8341 -1.10239,-0.8945 -1.67161,-1.44 -1.77887,-1.7049 -3.43081,-3.8978 -4.96421,-6.59 -0.42391,-0.7442 -0.8814,-1.6708 -1.29904,-2.6308 -0.25232,-0.58 -0.61254,-1.5856 -0.8537,-2.3832 -0.14468,-0.4785 -0.27685,-0.906 -0.29369,-0.9499 -0.0476,-0.1242 -0.28644,-1.0748 -0.40718,-1.6205 -0.44942,-2.0312 -0.75112,-4.3974 -0.86717,-6.8013 l -0.0173,-0.358 0.0945,0.3804 c 0.45423,1.827 0.96638,3.501 1.5454,5.051 0.24426,0.6539 0.90799,2.2912 0.94538,2.332 0.0113,0.012 0.155,0.3108 0.31941,0.6633 1.26505,2.7123 3.03523,5.3635 5.01175,7.5059 0.93595,1.0145 1.49825,1.5437 3.13358,2.9494 1.29666,1.1145 1.86674,1.6403 2.693,2.4838 2.41399,2.4643 4.34819,5.0137 5.93701,7.8254 0.20029,0.3545 0.68944,1.2922 0.88069,1.6883 1.58721,3.2876 2.70655,6.8874 3.39737,10.9257 0.13265,0.7755 0.1717,1.036 0.29481,1.9666 0.0591,0.4465 0.11434,1.1752 0.0891,1.1752 -0.007,0 -0.0735,-0.2668 -0.14788,-0.5929 z"
id="path5266"
style="fill:#000000;fill-opacity:1;stroke:#000000;stroke-width:0.49598038;stroke-opacity:1"
/>
<path
id="path5268"
style="fill:#000000;fill-opacity:1;stroke:#000000;stroke-width:0.49598038;stroke-opacity:1"
d="m 27.94443,59.8294000000001 c -1.26826,-0.1467 -2.70962,-0.6824 -3.55478,-1.3213 -0.17402,-0.1316 -0.61631,-0.5686 -1.09258,-1.0796 -0.67636,-0.7256 -0.87453,-0.966 -1.28036,-1.553 -0.804,-1.163 -1.41073,-2.3514 -2.06782,-4.0504 -0.28802,-0.7447 -0.74061,-2.0799 -0.71678,-2.1146 0.0239,-0.035 0.30474,0.403 0.72489,1.1302 1.62354,2.8099 3.75452,4.8243 6.63323,6.2704 1.16176,0.5836 2.93093,1.2006 4.33959,1.5134 0.28777,0.064 0.58554,0.1319 0.66171,0.1511 l 0.1385,0.035 -0.28167,0.2082 c -0.46255,0.342 -0.99576,0.5758 -1.6573,0.7268 -0.29846,0.068 -1.50815,0.123 -1.84663,0.084 z"
/>
<path
id="path5270"
style="fill:#000000;fill-opacity:1;stroke:#000000;stroke-width:0.49598038;stroke-opacity:1"
d="m 28.20603,54.5746999999999 c -2.73517,-0.3421 -5.08988,-1.8872 -7.03235,-4.6144 -2.21669,-3.1122 -3.77862,-7.4759 -4.47924,-12.5141 -0.0692,-0.4976 -0.0717,-0.5438 -0.0298,-0.5438 0.017,0 0.0308,0.048 0.0308,0.1064 0,0.1438 0.0534,0.3236 0.36036,1.2136 0.60229,1.7462 1.29969,3.2916 2.15046,4.7654 0.57839,1.002 1.43434,2.2465 2.15904,3.1391 2.09784,2.584 4.55816,4.6524 8.07191,6.7861 1.00356,0.6094 2.16102,1.3437 2.19518,1.3926 0.0328,0.047 -0.0673,0.073 -0.71848,0.1856 -0.61209,0.106 -2.14932,0.1534 -2.70779,0.083 z"
/>
<path
d="m 30.19116,49.6727000000001 c -0.99458,-0.142 -2.31682,-0.5435 -3.23161,-0.9815 -3.76369,-1.8019 -6.70094,-5.5855 -9.02019,-11.6192 -0.78141,-2.0329 -1.45789,-4.3672 -1.93952,-6.6924 -0.30627,-1.4787 -0.44051,-2.303 -0.73754,-4.5294 -0.008,-0.062 0.18396,0.4721 0.42704,1.1858 0.24308,0.7137 0.55502,1.5935 0.69321,1.9551 0.13819,0.3616 0.25124,0.6694 0.25124,0.6841 0,0.015 0.0259,0.081 0.0576,0.148 0.0317,0.067 0.17265,0.4032 0.31333,0.7477 2.80571,6.8719 6.7622,12.7865 11.55527,17.2742 0.31443,0.2944 1.54188,1.3671 1.92856,1.6855 0.14114,0.1162 0.22893,0.2095 0.19507,0.2074 -0.0339,0 -0.25545,-0.032 -0.49244,-0.065 z"
id="path5272"
style="fill:#000000;fill-opacity:1;stroke:#000000;stroke-width:0.49598038;stroke-opacity:1"
/>
</svg>
