<?xml version="1.0" encoding="UTF-8" standalone="no"?>
<svg
xmlns="http://www.w3.org/2000/svg"
xmlns:sodipodi="http://sodipodi.sourceforge.net/DTD/sodipodi-0.dtd"
xmlns:dc="http://purl.org/dc/elements/1.1/"
xmlns:cc="http://creativecommons.org/ns#"
xmlns:svg="http://www.w3.org/2000/svg"
xmlns:inkscape="http://www.inkscape.org/namespaces/inkscape"
xmlns:rdf="http://www.w3.org/1999/02/22-rdf-syntax-ns#"
>
<path
id="path6185"
style="fill:#bce3ff;fill-opacity:1;stroke:#000000;stroke-width:2.96299529;stroke-miterlimit:4;stroke-dasharray:none;stroke-opacity:1"
d="m 78.5185000000001,37.84367 c 0,6.99555 -2.5104,14.35222 -6.2346,21.42378 -14.074,20.18815 -31.8519,38.68437 -31.8519,38.68437 0,0 -20.4526,-17.8689 -33.539,-39.06458 -3.2716,-6.61535 -5.4114,-13.61081 -5.4114,-20.62536 -0.021,-19.67485 17.2222,-36.78343 38.4978,-36.78343 21.2962,0 38.5391,16.67127 38.5391,36.36522 z"
/>
<path
style="fill:#000000"
id="path5850"
d="m 56.3528999999999,30.9672 q 0,3.3246 -0.9667,5.892 -0.9344,2.5346 -2.6746,4.4108 -1.7401,1.8763 -4.1891,3.3575 -2.4168,1.4812 -5.4782,2.6991 l 0,7.505 -11.3428,0 0,-11.0928 q 2.2879,-0.6254 4.1248,-1.2838 1.869,-0.6583 3.8991,-2.1395 1.9012,-1.3167 2.9646,-3.0613 1.0956,-1.7445 1.0956,-3.9499 0,-3.2917 -2.0947,-4.6742 -2.0622,-1.4154 -5.8324,-1.4154 -2.3201,0 -5.2526,1.0204 -2.9002,1.0204 -5.3169,2.6333 l -1.289,0 0,-10.0394 q 2.0624,-0.8888 6.3481,-1.8434 4.2859,-0.9875 8.7006,-0.9875 7.9594,0 12.6317,3.5879 4.6725,3.5879 4.6725,9.3812 z m -12.4061,37.0309 -13.0186,0 0,-8.6899 13.0186,0 0,8.6899 z"
/>
</svg>
