<?xml version="1.0" encoding="UTF-8" standalone="no"?>
<svg
xmlns:rdf="http://www.w3.org/1999/02/22-rdf-syntax-ns#"
xmlns:inkscape="http://www.inkscape.org/namespaces/inkscape"
xmlns:svg="http://www.w3.org/2000/svg"
xmlns:dc="http://purl.org/dc/elements/1.1/"
xmlns:cc="http://creativecommons.org/ns#"
xmlns:sodipodi="http://sodipodi.sourceforge.net/DTD/sodipodi-0.dtd"
xmlns="http://www.w3.org/2000/svg"
>
<path
style="fill:#99ff55;fill-opacity:1;stroke:#000000;stroke-width:2.9629848;stroke-miterlimit:4;stroke-dasharray:none;stroke-opacity:1"
id="path5813"
d="m 78.5185000000001,37.8438000000001 c 0,6.9954 -2.5104,14.3521 -6.2347,21.4236 -14.074,20.1882 -31.8518,38.6844 -31.8518,38.6844 0,0 -20.4525,-17.8689 -33.5391,-39.0645 -3.2715,-6.6154 -5.4114,-13.6108 -5.4114,-20.6253 -0.021,-19.6749 17.2222,-36.7835 38.4978,-36.7835 21.2963,0 38.5392,16.6713 38.5392,36.3653 z"
/>
<path
id="path4708"
style="fill:#000000"
d="m 20.1064999999999,66.8081 c -0.8205,-0.3213 -1.5947,-1.3242 -1.5947,-2.0665 0,-1.8421 2.7756,-4.9152 5.8399,-6.466 l 1.8451,-0.9336 2.3352,1.0592 c 3.9879,1.8092 5.943,2.2393 10.8498,2.3871 5.2019,0.157 7.679,-0.2981 12.1324,-2.2259 l 2.7843,-1.2056 1.5083,0.7425 c 3.12,1.5363 6.1609,4.7838 6.1682,6.5871 0,0.3991 -0.3207,1.0659 -0.7161,1.4816 -0.6704,0.7043 -0.8686,0.7547 -2.9029,0.7385 -1.7663,-0.013 -2.9793,-0.2559 -6.3519,-1.2663 -7.159,-2.1454 -8.7365,-2.4346 -12.4878,-2.2907 -3.4506,0.1323 -4.2758,0.3031 -11.0313,2.2827 -4.2073,1.2329 -7.1695,1.6487 -8.3785,1.1759 z m 16.304,-8.9433 c -4.1239,-0.6199 -8.5462,-2.6433 -11.8044,-5.4011 -7.2632,-6.1484 -9.1972,-16.1718 -4.6928,-24.3272 2.6944,-4.879 8.3461,-9.0598 14.2282,-10.5256 2.4024,-0.5984 7.6054,-0.8072 10.1452,-0.4069 5.4378,0.8569 10.6034,3.7039 13.9596,7.694 2.7785,3.3037 4.1559,6.4088 4.6115,10.3981 0.729,6.3694 -1.5484,12.2086 -6.5116,16.6986 -5.3198,4.8132 -12.6358,6.9674 -19.9358,5.8702 z m 8.8432,-11.8125 c 2.1771,-1.054 3.6715,-2.4881 4.7781,-4.5865 0.6743,-1.2775 0.7818,-1.8343 0.7818,-4.0409 0,-3.0497 -0.6039,-4.4331 -2.8955,-6.6341 -2.1363,-2.0516 -4.4307,-2.927 -7.6736,-2.927 -3.2771,0 -5.5286,0.8701 -7.7483,2.9941 -2.2609,2.1627 -2.8193,3.4646 -2.8201,6.567 -4e-4,2.1942 0.113,2.7724 0.7742,4.0532 0.9735,1.8779 2.3521,3.3094 4.0579,4.2142 2.3057,1.2227 3.315,1.4439 6.1836,1.3549 2.3808,-0.074 2.8889,-0.1844 4.5619,-0.9949 z m -6.4992,-2.9386 c -2.8062,-0.8244 -4.7613,-2.8802 -4.7613,-5.0067 0,-0.7903 -0.066,-0.7685 1.1539,-0.3839 1.3151,0.4151 2.8449,0.089 4.0412,-0.8615 1.3748,-1.0922 1.8432,-3.2223 1.0161,-4.6225 -0.2369,-0.3967 -0.1458,-0.4705 0.5511,-0.4655 1.9099,0.013 4.7176,1.9038 5.4634,3.6784 0.7264,1.7291 0.095,4.6128 -1.2991,5.9691 -1.4142,1.3723 -4.4339,2.2013 -6.1653,1.6927 z"
/>
<rect
width="50"
height="50"
x="15"
id="rect4710"
y="16.9982"
style="fill:#000000;fill-opacity:0"
/>
</svg>
