<?xml version="1.0" encoding="UTF-8" standalone="no"?>
<svg
xmlns:dc="http://purl.org/dc/elements/1.1/"
xmlns:cc="http://creativecommons.org/ns#"
xmlns:sodipodi="http://sodipodi.sourceforge.net/DTD/sodipodi-0.dtd"
xmlns="http://www.w3.org/2000/svg"
xmlns:rdf="http://www.w3.org/1999/02/22-rdf-syntax-ns#"
xmlns:inkscape="http://www.inkscape.org/namespaces/inkscape"
xmlns:svg="http://www.w3.org/2000/svg"
>
<path
d="m 78.5184999999999,37.8436999999999 c 0,6.9954 -2.5104,14.3521 -6.2347,21.4236 -14.074,20.1882 -31.8518,38.6844 -31.8518,38.6844 0,0 -20.4525,-17.8689 -33.5391,-39.0645 -3.2715,-6.6154 -5.4114,-13.6108 -5.4114,-20.6253 -0.021,-19.6749 17.2222,-36.7835 38.4978,-36.7835 21.2963,0 38.5392,16.6713 38.5392,36.3653 z"
style="fill:#FF8080;fill-opacity:1;stroke:#000000;stroke-width:2.9629848;stroke-miterlimit:4;stroke-dasharray:none;stroke-opacity:1"
id="path5563"
/>
<path
d="m 19.1928,17.1202000000001 c -1.6306,0.3 -3.152,1.7993 -3.8663,3.7782 l -0.3265,0.9196 0,20.1912 0,20.1904 0.4345,1.1398 c 0.5438,1.4391 1.7084,2.8189 2.7953,3.2986 0.761,0.3398 1.8946,0.3601 21.8481,0.3601 l 21.0406,0 0.8539,-0.5195 c 1.2422,-0.7399 1.9407,-1.6196 2.5154,-3.1384 l 0.5122,-1.3391 0,-19.9904 0,-19.9904 -0.5122,-1.3391 c -0.5589,-1.4992 -1.3667,-2.4586 -2.6089,-3.1985 l -0.761,-0.4594 -20.5744,-0.02 c -11.3198,-0.023 -20.9313,0.038 -21.3507,0.1172 z"
style="fill:#ffffff;fill-opacity:1"
id="path4206"
/>
<path
d="m 19.1928,17.1202000000001 c -1.6306,0.3 -3.152,1.7993 -3.8663,3.7782 l -0.3265,0.9196 0,20.1912 0,20.1904 0.4345,1.1398 c 0.5438,1.4391 1.7084,2.8189 2.7953,3.2986 0.761,0.3398 1.8946,0.3601 21.8481,0.3601 l 21.0406,0 0.8539,-0.5195 c 1.2422,-0.7399 1.9407,-1.6196 2.5154,-3.1384 l 0.5122,-1.3391 0,-19.9904 0,-19.9904 -0.5122,-1.3391 c -0.5589,-1.4992 -1.3667,-2.4586 -2.6089,-3.1985 l -0.761,-0.4594 -20.5744,-0.02 c -11.3198,-0.023 -20.9313,0.038 -21.3507,0.1172 z m 40.8849,24.9288 -0.047,18.5513 -20.0623,0.06 -20.0774,0.04 0,-18.5911 0,-18.5912 20.109,0 20.109,0 -0.031,18.531 z"
id="path4208"
style="fill:#000000;fill-opacity:1"
/>
</svg>
