<?xml version="1.0" encoding="UTF-8" standalone="no"?>
<svg
xmlns:inkscape="http://www.inkscape.org/namespaces/inkscape"
xmlns:sodipodi="http://sodipodi.sourceforge.net/DTD/sodipodi-0.dtd"
xmlns:dc="http://purl.org/dc/elements/1.1/"
xmlns:rdf="http://www.w3.org/1999/02/22-rdf-syntax-ns#"
xmlns="http://www.w3.org/2000/svg"
xmlns:svg="http://www.w3.org/2000/svg"
xmlns:cc="http://creativecommons.org/ns#"
>
<path
style="font-style:normal;font-variant:normal;font-weight:bold;font-stretch:normal;font-size:32.53910446px;line-height:100%;font-family:'Courier New';-inkscape-font-specification:'Courier New Bold';letter-spacing:0px;word-spacing:0px;fill:#00874f;fill-opacity:0.99607843;stroke:none;stroke-width:1px;stroke-opacity:1"
id="path4801"
d="m 10.6759,1.66544999999996 0,-1.1164 3.3103,0 q 1.0207,0 1.4483,0.53074 0.4413,0.51245 0.4413,1.35432 0,0.82357 -0.4413,1.35432 -0.4276,0.51245 -1.4483,0.51245 l -0.4827,0 0,13.653 q 0,1.97658 -0.6345,3.4407 -0.6208,1.48243 -1.9173,2.54393 Q 9.65509999999995,25 8.02759999999989,25 l -3.2,0 q -1.0207,0 -1.4621,-0.53074 -0.4276,-0.51245 -0.4276,-1.33602 0,-0.84188 0.4276,-1.37262 0.4414,-0.51245 1.4621,-0.51245 l 3.1172,0 q 1.2966,0 2.0138,-0.93338 0.7173,-0.93338 0.7173,-2.36091 l 0,-1.83016 q -0.938,0.80528 -1.9173,1.20791 -0.9655,0.40263 -1.9862,0.40263 -2.8827,0 -4.8276,-2.54393 -1.9448,-2.56222 -1.9448,-6.31405 0,-3.77013 1.9448,-6.31406 1.9449,-2.56222 4.8276,-2.56222 1.0759,0 2.0414,0.42094 0.9793,0.40263 1.8621,1.24451 z m -0.014,7.19253 q 0,-2.06809 -1.1586,-3.58712 -1.1448,-1.51903 -2.7587,-1.51903 -1.6138,0 -2.7724,1.51903 -1.1448,1.51903 -1.1448,3.58712 0,2.08638 1.1448,3.60542 1.1586,1.50073 2.7724,1.50073 1.6139,0 2.7587,-1.50073 1.1586,-1.51904 1.1586,-3.60542 z"
/>
<path
d="m 30.4276,8.23572000000001 -11.8069,0 0,-3.4224 11.8069,0 0,3.4224 z"
style="font-style:normal;font-variant:normal;font-weight:bold;font-stretch:normal;font-size:32.53910446px;line-height:100%;font-family:'Courier New';-inkscape-font-specification:'Courier New Bold';letter-spacing:0px;word-spacing:0px;fill:#00874f;fill-opacity:0.99607843;stroke:none;stroke-width:1px;stroke-opacity:1"
id="path4805"
/>
<path
style="font-style:normal;font-variant:normal;font-weight:bold;font-stretch:normal;font-size:32.53910446px;line-height:100%;font-family:'Courier New';-inkscape-font-specification:'Courier New Bold';letter-spacing:0px;word-spacing:0px;fill:#00874f;fill-opacity:0.99607843;stroke:none;stroke-width:1px;stroke-opacity:1"
id="path4813"
d="m 47.3655000000001,8.23572000000001 -11.8068,0 0,-3.4224 11.8068,0 0,3.4224 z"
/>
<path
d="m 64.3033999999998,8.23572000000001 -11.8069,0 0,-3.4224 11.8069,0 0,3.4224 z"
id="path4834"
style="font-style:normal;font-variant:normal;font-weight:bold;font-stretch:normal;font-size:32.53910446px;line-height:100%;font-family:'Courier New';-inkscape-font-specification:'Courier New Bold';letter-spacing:0px;word-spacing:0px;fill:#00874f;fill-opacity:0.99607843;stroke:none;stroke-width:1px;stroke-opacity:1"
/>
<path
d="m 81.2413999999999,8.23572000000001 -11.8069,0 0,-3.4224 11.8069,0 0,3.4224 z"
id="path4836"
style="font-style:normal;font-variant:normal;font-weight:bold;font-stretch:normal;font-size:32.53910446px;line-height:100%;font-family:'Courier New';-inkscape-font-specification:'Courier New Bold';letter-spacing:0px;word-spacing:0px;fill:#00874f;fill-opacity:0.99607843;stroke:none;stroke-width:1px;stroke-opacity:1"
/>
<path
style="font-style:normal;font-variant:normal;font-weight:bold;font-stretch:normal;font-size:32.53910446px;line-height:100%;font-family:'Courier New';-inkscape-font-specification:'Courier New Bold';letter-spacing:0px;word-spacing:0px;fill:#00874f;fill-opacity:0.99607843;stroke:none;stroke-width:1px;stroke-opacity:1"
id="path4839"
d="m 98.1792999999998,8.23572000000001 -11.8069,0 0,-3.4224 11.8069,0 0,3.4224 z"
/>
<path
id="path4783"
style="font-style:normal;font-variant:normal;font-weight:bold;font-stretch:normal;font-size:34.84971619px;line-height:100%;font-family:'Courier New';-inkscape-font-specification:'Courier New Bold';letter-spacing:0px;word-spacing:0px;fill:#ff5a00;fill-opacity:1;stroke:none;stroke-width:1px;stroke-opacity:1"
d="m 12.009,36.72607 -12.009,0 0,-3.85965 12.009,0 0,3.85965 z"
/>
<path
id="path4785"
style="font-style:normal;font-variant:normal;font-weight:bold;font-stretch:normal;font-size:34.84971619px;line-height:100%;font-family:'Courier New';-inkscape-font-specification:'Courier New Bold';letter-spacing:0px;word-spacing:0px;fill:#ff5a00;fill-opacity:1;stroke:none;stroke-width:1px;stroke-opacity:1"
d="m 27.6936000000001,28.82101 q 0.5191,-0.72239 1.0663,-0.72239 0.6172,0 1.0101,0.66047 0.4068,0.63984 0.4068,2.14654 l 0,2.72447 q 0,1.52735 -0.4068,2.16718 -0.3929,0.63984 -1.0382,0.63984 -0.5893,0 -0.9961,-0.49537 -0.2946,-0.3715 -0.463,-1.5067 -0.1683,-1.15583 -0.8136,-1.71311 -1.1364,-0.99071 -2.904,-0.99071 -2.0343,0 -3.2689,1.75438 -1.2205,1.75439 -1.2205,4.43757 0,2.47678 1.1785,3.92157 1.1784,1.42415 3.9141,1.42415 1.7957,0 2.9321,-0.53663 0.6734,-0.33025 1.2766,-1.11456 0.6033,-0.80495 1.0943,-0.80495 0.5892,0 1.0101,0.63984 0.4349,0.63983 0.4349,1.5067 0,1.40351 -1.3047,2.66254 -1.936,1.87822 -5.6678,1.87822 -3.3529,0 -5.2188,-2.04334 -2.5253,-2.7451 -2.5253,-7.5129 0,-4.52013 2.0482,-7.47162 2.0483,-2.97213 5.3452,-2.97213 1.1925,0 2.2166,0.33023 1.0241,0.33024 1.8939,0.99071 z"
/>
<path
style="font-style:normal;font-variant:normal;font-weight:bold;font-stretch:normal;font-size:34.84971619px;line-height:100%;font-family:'Courier New';-inkscape-font-specification:'Courier New Bold';letter-spacing:0px;word-spacing:0px;fill:#ff5a00;fill-opacity:1;stroke:none;stroke-width:1px;stroke-opacity:1"
id="path4787"
d="m 46.4646,36.72607 -12.0089,0 0,-3.85965 12.0089,0 0,3.85965 z"
/>
<path
d="m 63.6925000000001,36.72607 -12.0089,0 0,-3.85965 12.0089,0 0,3.85965 z"
id="path4789"
style="font-style:normal;font-variant:normal;font-weight:bold;font-stretch:normal;font-size:34.84971619px;line-height:100%;font-family:'Courier New';-inkscape-font-specification:'Courier New Bold';letter-spacing:0px;word-spacing:0px;fill:#ff5a00;fill-opacity:1;stroke:none;stroke-width:1px;stroke-opacity:1"
/>
<path
id="path4791"
style="font-style:normal;font-variant:normal;font-weight:bold;font-stretch:normal;font-size:34.84971619px;line-height:100%;font-family:'Courier New';-inkscape-font-specification:'Courier New Bold';letter-spacing:0px;word-spacing:0px;fill:#ff5a00;fill-opacity:1;stroke:none;stroke-width:1px;stroke-opacity:1"
d="m 80.9204,36.72607 -12.009,0 0,-3.85965 12.009,0 0,3.85965 z"
/>
<path
d="m 94.7111,46.79831 0,-0.99071 q -1.0803,0.84624 -2.385,1.25903 -1.3048,0.43343 -2.3709,0.43343 -2.3148,0 -3.7599,-1.79566 -1.445,-1.81631 -1.445,-4.00413 0,-2.66254 1.8378,-4.93292 1.8519,-2.29102 5.1066,-2.29102 1.3048,0 3.0164,0.41279 l 0,-1.01134 q 0,-0.94944 -0.5612,-1.548 -0.5471,-0.59855 -2.1044,-0.59855 -1.2767,0 -3.3109,0.74304 -0.7575,0.26831 -1.1784,0.26831 -0.5752,0 -0.9821,-0.59856 -0.3928,-0.61919 -0.3928,-1.56862 0,-0.53664 0.1403,-0.92879 0.1403,-0.39216 0.3928,-0.61919 0.2525,-0.24769 1.0522,-0.57792 1.0662,-0.43344 2.1745,-0.68112 1.1083,-0.26831 2.0062,-0.26831 2.6796,0 4.1526,1.71309 1.4871,1.69247 1.4871,4.64397 l 0,8.71002 0.491,0 q 1.0382,0 1.4731,0.59855 0.449,0.57791 0.449,1.52735 0,0.92879 -0.449,1.52735 -0.4349,0.57791 -1.4731,0.57791 l -3.3669,0 z m 0,-7.57482 q -1.7257,-0.49536 -3.1847,-0.49536 -1.7536,0 -3.0163,1.25904 -0.7856,0.80495 -0.7856,1.63054 0,0.59856 0.3788,0.97007 0.7014,0.68112 1.922,0.68112 1.0382,0 2.3429,-0.59855 1.3187,-0.59856 2.3429,-1.63055 l 0,-1.81631 z"
id="path4797"
style="font-style:normal;font-variant:normal;font-weight:bold;font-stretch:normal;font-size:34.84971619px;line-height:100%;font-family:'Courier New';-inkscape-font-specification:'Courier New Bold';letter-spacing:0px;word-spacing:0px;fill:#ff5a00;fill-opacity:1;stroke:none;stroke-width:1px;stroke-opacity:1"
/>
<path
style="font-style:normal;font-variant:normal;font-weight:bold;font-stretch:normal;font-size:35.17694855px;line-height:100%;font-family:'Courier New';-inkscape-font-specification:'Courier New Bold';letter-spacing:0px;word-spacing:0px;fill:#0a6b9e;fill-opacity:1;stroke:none;stroke-width:1px;stroke-opacity:1"
id="path4770"
d="m 12.2356,61.72604 -12.2355,0 0,-3.85965 12.2355,0 0,3.85965 z"
/>
<path
d="m 29.7886000000001,61.72604 -12.2356,0 0,-3.85965 12.2356,0 0,3.85965 z"
id="path4772"
style="font-style:normal;font-variant:normal;font-weight:bold;font-stretch:normal;font-size:35.17694855px;line-height:100%;font-family:'Courier New';-inkscape-font-specification:'Courier New Bold';letter-spacing:0px;word-spacing:0px;fill:#0a6b9e;fill-opacity:1;stroke:none;stroke-width:1px;stroke-opacity:1"
/>
<path
d="m 43.8394000000001,71.79828 0,-0.99071 q -1.1006,0.84624 -2.4299,1.25903 -1.3293,0.43343 -2.4157,0.43343 -2.3585,0 -3.8308,-1.79566 -1.4722,-1.81631 -1.4722,-4.00413 0,-2.66254 1.8725,-4.93293 1.8867,-2.29101 5.2029,-2.29101 1.3294,0 3.0732,0.4128 l 0,-1.01136 q 0,-0.94943 -0.5717,-1.54799 -0.5575,-0.59855 -2.1441,-0.59855 -1.3007,0 -3.3734,0.74304 -0.7719,0.26832 -1.2007,0.26832 -0.586,0 -1.0005,-0.59856 -0.4002,-0.6192 -0.4002,-1.56863 0,-0.53663 0.1429,-0.92879 0.1429,-0.39216 0.4002,-0.6192 0.2573,-0.24767 1.0721,-0.57791 1.0863,-0.43344 2.2155,-0.68112 1.1292,-0.26832 2.044,-0.26832 2.7302,0 4.2311,1.71311 1.5151,1.69247 1.5151,4.64396 l 0,8.71001 0.5002,0 q 1.0578,0 1.5009,0.59856 0.4575,0.57792 0.4575,1.52734 0,0.92879 -0.4575,1.52735 -0.4431,0.57792 -1.5009,0.57792 l -3.4305,0 z m 0,-7.57482 q -1.7582,-0.49535 -3.2447,-0.49535 -1.7867,0 -3.0732,1.25903 -0.8004,0.80494 -0.8004,1.63054 0,0.59855 0.3859,0.97008 0.7147,0.68111 1.9583,0.68111 1.0577,0 2.3871,-0.59856 1.3436,-0.59855 2.387,-1.63054 l 0,-1.81631 z"
style="font-style:normal;font-variant:normal;font-weight:bold;font-stretch:normal;font-size:35.17694855px;line-height:100%;font-family:'Courier New';-inkscape-font-specification:'Courier New Bold';letter-spacing:0px;word-spacing:0px;fill:#0a6b9e;fill-opacity:1;stroke:none;stroke-width:1px;stroke-opacity:1"
id="path4774"
/>
<path
id="path4776"
style="font-style:normal;font-variant:normal;font-weight:bold;font-stretch:normal;font-size:35.17694855px;line-height:100%;font-family:'Courier New';-inkscape-font-specification:'Courier New Bold';letter-spacing:0px;word-spacing:0px;fill:#0a6b9e;fill-opacity:1;stroke:none;stroke-width:1px;stroke-opacity:1"
d="m 64.8942999999999,61.72604 -12.2355,0 0,-3.85965 12.2355,0 0,3.85965 z"
/>
<path
d="m 80.8748999999998,53.82098 q 0.5289,-0.72239 1.0863,-0.72239 0.6289,0 1.0292,0.66047 0.4145,0.63984 0.4145,2.14655 l 0,2.72446 q 0,1.52735 -0.4145,2.16718 -0.4003,0.63983 -1.0578,0.63983 -0.6003,0 -1.0148,-0.49535 -0.3002,-0.37152 -0.4717,-1.50671 -0.1715,-1.15583 -0.829,-1.71311 -1.1579,-0.99071 -2.9589,-0.99071 -2.0726,0 -3.3305,1.75438 -1.2435,1.75439 -1.2435,4.43757 0,2.47678 1.2006,3.92157 1.2007,1.42415 3.9881,1.42415 1.8295,0 2.9874,-0.53664 0.6861,-0.33023 1.3007,-1.11455 0.6146,-0.80495 1.1149,-0.80495 0.6004,0 1.0292,0.63983 0.4431,0.63984 0.4431,1.50671 0,1.40351 -1.3294,2.66253 -1.9725,1.87823 -5.7747,1.87823 -3.4162,0 -5.3173,-2.04334 -2.5729,-2.7451 -2.5729,-7.5129 0,-4.52013 2.0869,-7.47162 2.0869,-2.97214 5.4459,-2.97214 1.215,0 2.2585,0.33024 1.0434,0.33024 1.9297,0.99071 z"
style="font-style:normal;font-variant:normal;font-weight:bold;font-stretch:normal;font-size:35.17694855px;line-height:100%;font-family:'Courier New';-inkscape-font-specification:'Courier New Bold';letter-spacing:0px;word-spacing:0px;fill:#0a6b9e;fill-opacity:1;stroke:none;stroke-width:1px;stroke-opacity:1"
id="path4778"
/>
<path
d="m 100.0001,61.72604 -12.2356,0 0,-3.85965 12.2356,0 0,3.85965 z"
id="path4780"
style="font-style:normal;font-variant:normal;font-weight:bold;font-stretch:normal;font-size:35.17694855px;line-height:100%;font-family:'Courier New';-inkscape-font-specification:'Courier New Bold';letter-spacing:0px;word-spacing:0px;fill:#0a6b9e;fill-opacity:1;stroke:none;stroke-width:1px;stroke-opacity:1"
/>
<path
d="m 12.2355,83.23578 -12.2355,0 0,-3.4224 12.2355,0 0,3.4224 z"
id="path4755"
style="font-style:normal;font-variant:normal;font-weight:bold;font-stretch:normal;font-size:33.12453079px;line-height:100%;font-family:'Courier New';-inkscape-font-specification:'Courier New Bold';letter-spacing:0px;word-spacing:0px;fill:#ffcc00;fill-opacity:1;stroke:none;stroke-width:1px;stroke-opacity:1"
/>
<path
d="m 29.7883999999999,83.23578 -12.2355,0 0,-3.4224 12.2355,0 0,3.4224 z"
id="path4757"
style="font-style:normal;font-variant:normal;font-weight:bold;font-stretch:normal;font-size:33.12453079px;line-height:100%;font-family:'Courier New';-inkscape-font-specification:'Courier New Bold';letter-spacing:0px;word-spacing:0px;fill:#ffcc00;fill-opacity:1;stroke:none;stroke-width:1px;stroke-opacity:1"
/>
<path
d="m 47.3413,83.23578 -12.2356,0 0,-3.4224 12.2356,0 0,3.4224 z"
id="path4759"
style="font-style:normal;font-variant:normal;font-weight:bold;font-stretch:normal;font-size:33.12453079px;line-height:100%;font-family:'Courier New';-inkscape-font-specification:'Courier New Bold';letter-spacing:0px;word-spacing:0px;fill:#ffcc00;fill-opacity:1;stroke:none;stroke-width:1px;stroke-opacity:1"
/>
<path
d="m 61.9782,76.6655 0,-1.1164 3.4306,0 q 1.0577,0 1.5008,0.53075 0.4575,0.51244 0.4575,1.35432 0,0.82357 -0.4575,1.35431 -0.4431,0.51246 -1.5008,0.51246 l -0.5003,0 0,13.653 q 0,1.97657 -0.6575,3.44069 -0.6432,1.48244 -1.9869,2.54393 -1.3436,1.06154 -3.0303,1.06154 l -3.3162,0 q -1.0577,0 -1.5151,-0.53079 -0.4431,-0.51244 -0.4431,-1.33602 0,-0.84188 0.4431,-1.37262 0.4574,-0.51245 1.5151,-0.51245 l 3.2305,0 q 1.3436,0 2.0869,-0.93338 0.7432,-0.93338 0.7432,-2.3609 l 0,-1.83016 q -0.9719,0.80527 -1.9868,1.2079 -1.0006,0.40264 -2.0583,0.40264 -2.9874,0 -5.0029,-2.54393 -2.0154,-2.56222 -2.0154,-6.31405 0,-3.77013 2.0154,-6.31406 2.0155,-2.56222 5.0029,-2.56222 1.1149,0 2.1154,0.42093 1.0149,0.40264 1.9297,1.24451 z m -0.014,7.19253 q 0,-2.06808 -1.2007,-3.58712 -1.1863,-1.51903 -2.8587,-1.51903 -1.6725,0 -2.8731,1.51903 -1.1864,1.51904 -1.1864,3.58712 0,2.08639 1.1864,3.60542 1.2006,1.50073 2.8731,1.50073 1.6724,0 2.8587,-1.50073 1.2007,-1.51903 1.2007,-3.60542 z"
style="font-style:normal;font-variant:normal;font-weight:bold;font-stretch:normal;font-size:33.12453079px;line-height:100%;font-family:'Courier New';-inkscape-font-specification:'Courier New Bold';letter-spacing:0px;word-spacing:0px;fill:#ffcc00;fill-opacity:1;stroke:none;stroke-width:1px;stroke-opacity:1"
id="path4762"
/>
<path
d="m 82.4470999999999,83.23578 -12.2356,0 0,-3.4224 12.2356,0 0,3.4224 z"
id="path4764"
style="font-style:normal;font-variant:normal;font-weight:bold;font-stretch:normal;font-size:33.12453079px;line-height:100%;font-family:'Courier New';-inkscape-font-specification:'Courier New Bold';letter-spacing:0px;word-spacing:0px;fill:#ffcc00;fill-opacity:1;stroke:none;stroke-width:1px;stroke-opacity:1"
/>
<path
d="m 100,83.23578 -12.2356,0 0,-3.4224 12.2356,0 0,3.4224 z"
style="font-style:normal;font-variant:normal;font-weight:bold;font-stretch:normal;font-size:33.12453079px;line-height:100%;font-family:'Courier New';-inkscape-font-specification:'Courier New Bold';letter-spacing:0px;word-spacing:0px;fill:#ffcc00;fill-opacity:1;stroke:none;stroke-width:1px;stroke-opacity:1"
id="path4767"
/>
</svg>
