<?xml version="1.0" encoding="UTF-8" standalone="no"?>
<svg
xmlns:sodipodi="http://sodipodi.sourceforge.net/DTD/sodipodi-0.dtd"
xmlns:inkscape="http://www.inkscape.org/namespaces/inkscape"
xmlns:svg="http://www.w3.org/2000/svg"
xmlns:cc="http://creativecommons.org/ns#"
xmlns:dc="http://purl.org/dc/elements/1.1/"
xmlns:rdf="http://www.w3.org/1999/02/22-rdf-syntax-ns#"
xmlns="http://www.w3.org/2000/svg"
>
<path
d="m 17.5066999999999,99.96474 c -7.0389,-0.91126 -11.9888,-4.0975 -14.8166,-9.53752 -0.7268,-1.39821 -1.4924,-3.51191 -1.8422,-5.08563 l -0.1088,-0.49349 3.6149,-6.23613 c 3.9161,-6.75635 3.8047,-6.56717 3.8419,-6.52992 0.022,0.0131 2.181,6.21939 4.8158,13.78966 2.6345,7.57028 4.8227,13.84869 4.8623,13.95202 0.078,0.20419 0.089,0.20004 -0.3664,0.14101 z m 8.1519,-0.34598 c 0.022,-0.0658 2.0215,-8.04443 4.4474,-17.73038 2.4257,-9.68595 4.4283,-17.6287 4.4501,-17.65057 0.033,-0.0332 33.4127,12.86627 33.6922,13.02029 0.1501,0.0822 -3.1671,2.99193 -6.1774,5.41961 -11.6303,9.37878 -23.1314,14.88334 -35.2847,16.88766 -1.2472,0.20573 -1.1735,0.20223 -1.1276,0.0534 z m 19.0761,-0.91943 c 0.022,-0.0175 0.4929,-0.24237 1.0538,-0.49795 6.4856,-2.9553 13.6614,-7.61538 20.4634,-13.28931 1.8444,-1.53845 5.1635,-4.46818 6.6357,-5.85707 l 0.245,-0.23122 9.001,8.03623 c 4.9504,4.41994 9.1537,8.12671 9.3408,8.23729 0.1871,0.11063 0.4553,0.22027 0.5963,0.24375 0.1414,0.0234 0.2687,0.0623 0.2835,0.0866 0.022,0.024 -10.5023,0.76085 -23.3714,1.63719 -12.8691,0.87634 -23.5972,1.61012 -23.8402,1.63061 -0.243,0.0197 -0.4267,0.0223 -0.4079,0.004 z m -28.1441,-15.80383 c -2.7786,-7.98597 -5.0398,-14.5298 -5.0252,-14.54186 0.052,-0.0431 18.3644,-4.14818 18.4155,-4.12829 0.059,0.0225 -8.2347,33.19007 -8.2983,33.19007 -0.022,0 -2.3134,-6.53396 -5.092,-14.51992 z m 77.9256,9.45828 c -0.1066,-0.26109 -0.2919,-0.51032 -0.6118,-0.82427 -0.2521,-0.24751 -4.2827,-3.85585 -8.9566,-8.01855 -4.6741,-4.1627 -8.5361,-7.60309 -8.5822,-7.64531 -0.065,-0.0592 0.2298,-0.42062 1.286,-1.57833 5.7244,-6.27406 10.0968,-11.77377 13.686,-17.21537 2.4639,-3.73545 4.143,-6.64737 5.9881,-10.38477 0.5378,-1.0897 0.9787,-1.94674 0.9796,-1.9045 0,0.0536 -2.9768,39.32461 -3.6151,47.67577 l -0.022,0.26957 -0.1523,-0.37424 z m -94.5157,-27.76159 c 0,-7.06084 0.022,-12.82506 0.026,-12.80941 0.022,0.0219 6.0408,14.37434 6.2024,14.78577 0.022,0.0376 -1.3805,2.4968 -3.1009,5.4649 l -3.128,5.39658 0,-12.83784 z m 53.8441,2.3829 c -9.0301,-3.50665 -16.5222,-6.4162 -16.649,-6.46565 l -0.2308,-0.0899 10.9335,-10.21387 c 6.0134,-5.61764 11.0593,-10.32624 11.2133,-10.46356 l 0.28,-0.24968 4.8196,14.80202 c 2.6509,8.14111 5.1316,15.76278 5.513,16.93705 0.3838,1.18126 0.659,2.13152 0.6161,2.12717 -0.041,-0.004 -7.4655,-2.87691 -16.4957,-6.38355 z m 20.5137,4.36575 c -0.094,-0.15697 -10.9233,-33.52855 -10.8918,-33.56014 0.046,-0.0459 31.4713,-0.76357 32.5069,-0.74234 l 0.7597,0.0153 -0.5267,1.36642 c -3.1206,8.09467 -7.7684,15.96176 -14.2965,24.19898 -1.9492,2.45929 -3.2656,4.01851 -5.7568,6.8182 -1.8359,2.06338 -1.7524,1.97494 -1.7948,1.9033 z m -68.1514,-16.10754 -3.7535,-8.9778 5.5126,-9.51988 c 3.032,-5.23593 5.6235,-9.64843 5.759,-9.80558 0.3035,-0.35177 19.8421,-18.63497 20.1495,-18.85476 0.2874,-0.20551 17.3993,-6.51726 17.4887,-6.45073 0.037,0.0278 3.2548,2.28729 7.1499,5.02095 6.9782,4.89751 7.0811,4.97295 7.0217,5.15249 -0.033,0.10013 -1.6386,5.22352 -3.5676,11.38514 -1.9288,6.1616 -3.5302,11.21905 -3.5585,11.23877 -0.061,0.0426 -25.8733,24.14008 -26.326,24.57729 l -0.3126,0.30194 -10.701,2.41264 c -5.8854,1.32693 -10.7927,2.43167 -10.9048,2.45498 l -0.2045,0.0424 -3.7534,-8.97779 z m 57.1852,-22.00288 c 0.1001,-0.37514 5.8816,-18.77568 5.9077,-18.8018 0.022,-0.0175 5.6474,4.06807 12.5133,9.07711 l 12.4834,9.10736 -0.3914,0.0485 c -0.2154,0.0267 -6.9688,0.18824 -15.008,0.35932 -8.0392,0.17096 -14.8249,0.31939 -15.0794,0.32977 -0.4362,0.0175 -0.4604,0.0109 -0.4256,-0.12024 z m 21.8825,-12.59423 c -7.2987,-5.32443 -13.2718,-9.69618 -13.2739,-9.71496 0,-0.0197 3.6444,-2.07212 8.1033,-4.56296 l 8.1071,-4.52878 0.4758,0.18998 c 0.7042,0.28109 2.1746,1.04552 2.9241,1.52007 3.8783,2.45535 6.4911,6.12876 7.6563,10.76354 0.4876,1.93953 0.6686,3.39632 0.7192,5.78733 0.041,1.9582 0,2.70466 -0.2921,4.73408 -0.3194,2.25164 -0.9555,5.50213 -1.0756,5.49617 -0.041,-0.002 -6.0456,-4.36003 -13.3442,-9.68449 z m -22.8821,-16.605 -5.6953,-4.00714 6.4654,-0.0175 c 3.5559,-0.009 9.3574,-0.009 12.8919,0 l 6.4265,0.0175 -7.1559,3.99678 c -3.9355,2.19822 -7.174,4.00143 -7.1966,4.00712 -0.022,0.007 -2.6037,-1.79285 -5.736,-3.99676 z"
id="path5106"
style="fill:#0000ff"
/>
</svg>
