<?xml version="1.0" encoding="UTF-8" standalone="no"?>
<svg
xmlns:svg="http://www.w3.org/2000/svg"
xmlns:cc="http://creativecommons.org/ns#"
xmlns:dc="http://purl.org/dc/elements/1.1/"
xmlns="http://www.w3.org/2000/svg"
xmlns:rdf="http://www.w3.org/1999/02/22-rdf-syntax-ns#"
xmlns:sodipodi="http://sodipodi.sourceforge.net/DTD/sodipodi-0.dtd"
xmlns:inkscape="http://www.inkscape.org/namespaces/inkscape"
>
<path
id="path3960-6"
style="fill:#606060"
d="m 99.9898000000001,21.76968 c 0,-6.49762 -5.0913,-11.76968 -11.3662,-11.76968 l -77.2574,0 C 5.09130000000005,10 0,15.27206 0,21.76968 l 0,56.46064 c 0,6.49762 5.0913,11.76968 11.3662,11.76968 l 77.2676,0 c 6.2749,0 11.3662,-5.27206 11.3662,-11.76968 l 0,-56.46064 z m -12.8564,10.29266 0,37.64467 -21.0787,-19.78097 z m -4.9077,-8.79345 c -10.126,10.126 -18.5596,16.34743 -28.2924,24.73111 -0.7857,1.36292 -2.2345,2.35605 -3.918,2.35605 -1.6733,0 -3.1323,-0.99313 -3.918,-2.35605 -9.4627,-7.99839 -28.2312,-24.74168 -28.2312,-24.74168 m -4.724,8.83888 20.8848,17.82884 c -7.5733,7.86294 -13.2133,12.81108 -20.8644,20.02959 0.035,-15.77766 -0.1321,-24.27847 -0.02,-37.85843 z m 4.469,44.47544 c 0,0 15.6852,-12.53914 23.3949,-19.81828 2.0712,2.79979 5.3362,4.60644 9.0093,4.60644 3.6935,0 6.9687,-1.82778 9.0399,-4.6487 7.4593,7.45933 23.4052,19.84997 23.4052,19.84997 -18.714,0 -45.1313,0.0906 -64.8493,0.0106 z"
/>
</svg>
