<?xml version="1.0" encoding="UTF-8" standalone="no"?>
<svg
xmlns:inkscape="http://www.inkscape.org/namespaces/inkscape"
xmlns:sodipodi="http://sodipodi.sourceforge.net/DTD/sodipodi-0.dtd"
xmlns:dc="http://purl.org/dc/elements/1.1/"
xmlns="http://www.w3.org/2000/svg"
xmlns:rdf="http://www.w3.org/1999/02/22-rdf-syntax-ns#"
xmlns:svg="http://www.w3.org/2000/svg"
xmlns:cc="http://creativecommons.org/ns#"
>
<path
d="m 93.7954999999999,24.39091 c -2.1228,-3.50909 -4.741,-6.94546 -7.9455,-10.13182 -3.2409,-3.21818 -6.7364,-5.85454 -10.3136,-7.97273 L 81.8181999999999,0 c 0,0 9.0909,0 13.6363,4.54545 4.5455,4.54546 4.5455,13.63637 4.5455,13.63637 l -6.2045,6.20909 z m -52.8864,52.88182 -18.1818,0 0,-18.18182 2.1818,-2.18182 c 3.6954,1.75 7.3682,4.20909 10.6727,7.50909 3.3091,3.31364 5.7637,6.97727 7.5091,10.67273 l -2.1818,2.18182 z m 47.6364,-47.63637 -40.2091,40.20455 c -2.1228,-3.50455 -4.7409,-6.95 -7.9455,-10.13182 -3.2364,-3.22273 -6.7364,-5.85454 -10.3136,-7.97273 l 40.2863,-40.28181 c 3.6955,1.7409 7.3682,4.2 10.6728,7.50454 3.3136,3.30909 5.7681,6.98182 7.5091,10.67727 z m -74.9091,-16 0,72.72728 72.7272,0 0,-31.81819 13.6364,-13.80909 0,50.17273 c 0,5.02273 -4.0727,9.09091 -9.0909,9.09091 l -81.8182,0 c -5.0182,0 -9.0909,-4.06818 -9.0909,-9.09091 l 0,-81.81818 c 0,-5.01818 4.0727,-9.09091 9.0909,-9.09091 l 50.0455,0 -13.6409,13.63636 -31.8591,0 z"
id="path3979"
style="fill:#606060"
/>
</svg>
