<?xml version="1.0" encoding="UTF-8" standalone="no"?>
<svg
xmlns:cc="http://creativecommons.org/ns#"
xmlns:svg="http://www.w3.org/2000/svg"
xmlns:rdf="http://www.w3.org/1999/02/22-rdf-syntax-ns#"
xmlns="http://www.w3.org/2000/svg"
xmlns:dc="http://purl.org/dc/elements/1.1/"
xmlns:sodipodi="http://sodipodi.sourceforge.net/DTD/sodipodi-0.dtd"
xmlns:inkscape="http://www.inkscape.org/namespaces/inkscape"
>
<path
id="path3915"
style="fill:#606060"
d="m 87.5,20.00436 -6.2551,0 -12.4898,-20.00435 -25,0 -12.5,20.00435 -6.2551,0 c 0,-7.36831 -5.5918,-13.33261 -12.5,-13.33261 -6.9082,0 -12.5,5.9643 -12.5,13.33261 l 0,13.33261 0,53.33043 C 0,94.0357 5.59180000000003,100 12.5,100 l 75,0 c 6.9082,0 12.5,-5.9643 12.5,-13.3326 l 0,-53.33043 c 0,-7.36831 -5.5918,-13.33261 -12.5,-13.33261 z m -71.8775,23.33478 -6.2551,0 c -1.7245,0 -3.1225,-1.49107 -3.1225,-3.33043 0,-1.83935 1.398,-3.33043 3.1225,-3.33043 l 6.2551,0 c 1.7244,0 3.1224,1.49108 3.1224,3.33043 0,1.83936 -1.3877,3.33043 -3.1224,3.33043 z M 12.5,26.66522 c -3.449,0 -6.2551,-2.98215 -6.2551,-6.67174 0,-3.6896 2.7959,-6.67175 6.2551,-6.67175 3.4592,0 6.2551,2.98215 6.2551,6.67175 0,3.68959 -2.8061,6.67174 -6.2551,6.67174 z m 43.7551,60.00218 c -15.5102,0 -28.1224,-13.45233 -28.1224,-29.99565 0,-16.54332 12.6122,-29.99564 28.1224,-29.99564 15.5102,0 28.1225,13.45232 28.1225,29.99564 0,16.54332 -12.6225,29.99565 -28.1225,29.99565 z m 15.6225,-29.99565 c 0,9.20766 -6.9898,16.66304 -15.6225,16.66304 -8.6326,0 -15.6224,-7.45538 -15.6224,-16.66304 0,-9.20766 6.9898,-16.66304 15.6224,-16.66304 8.6225,-0.0109 15.6225,7.45538 15.6225,16.66304 z"
/>
<circle
r="24"
style="fill:#008000;fill-opacity:1;stroke:none;stroke-width:3;stroke-linecap:butt;stroke-linejoin:round;stroke-dashoffset:0;stroke-opacity:1;color-rendering:auto;image-rendering:auto;shape-rendering:auto;text-rendering:auto;enable-background:accumulate"
id="path3942"
cx="76"
cy="75.70703"
/>
<path
id="path3939"
style="fill:#ffffff"
d="m 70.51375,95.54286 c -0.18963,-0.25468 -0.3553,-0.46307 -0.36815,-0.46307 -0.0124,0 -0.23947,-0.28427 -0.50363,-0.63172 -0.53952,-0.70956 -0.64775,-0.84549 -0.67351,-0.84549 -0.009,0 -0.20064,-0.24485 -0.42395,-0.54417 -0.2233,-0.29936 -0.42023,-0.54425 -0.43757,-0.54425 -0.0175,0 -0.0247,-0.0154 -0.0162,-0.0326 0.008,-0.0177 -0.017,-0.053 -0.0566,-0.0769 -0.0396,-0.0238 -0.0719,-0.0611 -0.0719,-0.0833 0,-0.0219 -0.0124,-0.0397 -0.0291,-0.0397 -0.0159,0 -0.23907,-0.27989 -0.49589,-0.62203 -0.25681,-0.34212 -0.47988,-0.62193 -0.49571,-0.62193 -0.0158,0 -0.21151,-0.24493 -0.43482,-0.54428 -0.22331,-0.2993 -0.41748,-0.54422 -0.43147,-0.54422 -0.0139,0 -0.23058,-0.26679 -0.48126,-0.59281 -0.2507,-0.32606 -0.52263,-0.67147 -0.60432,-0.76775 -0.0818,-0.0963 -0.31163,-0.38919 -0.511,-0.65118 -0.19939,-0.26187 -0.3813,-0.47616 -0.40428,-0.47616 -0.023,0 -0.0419,-0.0267 -0.0419,-0.0596 0,-0.0326 -0.0221,-0.0709 -0.0491,-0.0847 -0.0271,-0.0139 -0.2488,-0.2888 -0.4929,-0.61107 -0.24411,-0.32216 -0.4986,-0.64702 -0.56551,-0.72194 -0.0669,-0.0748 -0.2978,-0.36777 -0.51304,-0.65111 -0.21525,-0.28326 -0.40324,-0.51506 -0.41777,-0.51506 -0.0139,0 -0.22046,-0.25801 -0.45763,-0.57332 -0.23718,-0.31537 -0.48232,-0.6249 -0.54476,-0.68775 -0.0624,-0.0628 -0.32717,-0.39959 -0.58826,-0.74826 -0.26111,-0.34875 -0.48695,-0.63399 -0.50189,-0.63399 -0.0154,0 -0.204,-0.23182 -0.42014,-0.51506 -0.21612,-0.28333 -0.45301,-0.5821 -0.52638,-0.66398 -0.0734,-0.0817 -0.12469,-0.16764 -0.11401,-0.1906 0.0105,-0.0238 0.006,-0.0307 -0.0124,-0.0159 -0.0181,0.0154 -0.21543,-0.2173 -0.45731,-0.53817 -0.234,-0.31047 -0.4372,-0.56451 -0.45155,-0.56451 -0.0139,0 -0.22911,-0.26681 -0.4772,-0.59281 -0.24809,-0.32605 -0.50351,-0.64527 -0.56761,-0.70947 -0.0642,-0.0642 -0.11712,-0.13905 -0.11789,-0.1665 -3.7e-4,-0.0276 0.12978,-0.224 0.29024,-0.43663 0.16036,-0.21269 0.28806,-0.40009 0.28379,-0.41653 -0.005,-0.0163 0.0216,-0.0471 0.0578,-0.0678 0.0359,-0.0207 0.0655,-0.0582 0.0655,-0.0831 0,-0.0249 0.18992,-0.30137 0.42206,-0.61516 0.23213,-0.31385 0.42205,-0.5842 0.42205,-0.60084 0,-0.0163 0.18994,-0.28733 0.42205,-0.60165 0.23215,-0.31422 0.42207,-0.5796 0.42207,-0.58966 0,-0.0292 0.1842,-0.28966 0.63307,-0.89626 0.22815,-0.30823 0.41479,-0.57872 0.41479,-0.60109 0,-0.0223 0.0124,-0.0296 0.0291,-0.0163 0.0159,0.0139 0.029,0 0.029,-0.0357 0,-0.0326 0.0392,-0.0983 0.0873,-0.1457 0.0481,-0.0476 0.0873,-0.10094 0.0873,-0.11867 0,-0.0177 0.19401,-0.29079 0.43113,-0.60649 0.23712,-0.31567 0.43974,-0.60388 0.45026,-0.64048 0.0448,-0.15599 0.12592,-0.0769 0.68969,0.67201 0.16898,0.22454 0.35288,0.45428 0.40867,0.51058 0.0558,0.0559 0.32196,0.39306 0.59151,0.74833 0.26956,0.35527 0.5008,0.64588 0.51389,0.64588 0.0124,0 0.2219,0.26246 0.46403,0.58318 0.24213,0.32071 0.44518,0.58303 0.45123,0.58303 0.0182,0 0.22487,0.25958 0.68878,0.86495 0.24165,0.31535 0.45034,0.57336 0.46373,0.57336 0.0139,0 0.22849,0.27115 0.47796,0.60255 0.24948,0.33138 0.47302,0.60253 0.49673,0.60253 0.0238,0 0.0431,0.0263 0.0431,0.0582 0,0.0323 0.0124,0.0582 0.0271,0.0582 0.0154,0 0.21694,0.25212 0.44901,0.56009 0.23206,0.30802 0.42943,0.55002 0.43863,0.53778 0.009,-0.0124 0.0167,0.008 0.0167,0.0427 0,0.0355 0.0139,0.065 0.0293,0.065 0.0414,0 0.16189,0.14524 0.57208,0.68991 0.19721,0.26196 0.36698,0.47626 0.37727,0.47626 0.0223,0 0.13102,0.13642 0.60413,0.75802 0.19529,0.25653 0.40041,0.51253 0.45582,0.56879 0.0554,0.0559 0.27917,0.33784 0.49724,0.62559 0.21809,0.28784 0.41783,0.53428 0.44389,0.54763 0.0259,0.0139 0.0475,0.0506 0.0475,0.0838 0,0.0337 0.0253,0.0596 0.0582,0.0596 0.0329,0 0.0582,0.0263 0.0582,0.0598 0,0.0326 0.0229,0.0709 0.051,0.0848 0.028,0.0139 0.068,0.0575 0.089,0.0959 0.0209,0.0386 0.058,0.0709 0.0821,0.0709 0.0483,0 0.13227,-0.0966 0.12438,-0.14292 -0.004,-0.0163 0.019,-0.0471 0.0482,-0.0694 0.084,-0.0634 0.18577,-0.20464 0.1664,-0.23046 -0.009,-0.0124 -0.001,-0.0238 0.0159,-0.0238 0.0186,0 0.30189,-0.35423 0.62972,-0.78721 0.61293,-0.80944 0.80172,-1.04984 0.80172,-1.02096 0,0.009 0.28992,-0.36751 0.64427,-0.83688 0.35434,-0.46945 0.65568,-0.85354 0.66966,-0.85354 0.0139,0 0.30511,-0.37177 0.64703,-0.82608 0.67369,-0.89513 0.97501,-1.2731 1.01503,-1.2731 0.0139,0 0.0177,-0.0163 0.009,-0.0367 -0.009,-0.0204 0.0105,-0.0567 0.0435,-0.0804 0.0334,-0.0238 0.32695,-0.39646 0.65234,-0.82798 0.66925,-0.8876 0.82042,-1.07612 0.86303,-1.07612 0.0163,0 0.0219,-0.0173 0.0124,-0.0386 -0.009,-0.0218 -0.004,-0.0386 0.0124,-0.0386 0.017,0 0.32613,-0.39415 0.68689,-0.87601 0.36074,-0.4818 0.66881,-0.86525 0.68457,-0.85228 0.0159,0.0124 0.0252,0 0.0207,-0.0218 -0.005,-0.0247 0.017,-0.0657 0.0475,-0.0904 0.0305,-0.0247 0.33863,-0.42104 0.68474,-0.88071 0.34616,-0.45972 0.66509,-0.86064 0.70871,-0.89095 0.0435,-0.0307 0.0792,-0.0693 0.0792,-0.087 0,-0.0426 0.0945,-0.18823 0.12221,-0.18823 0.0124,0 0.31986,-0.39574 0.68407,-0.87929 0.36418,-0.48364 0.70752,-0.92535 0.76291,-0.98156 0.0554,-0.0559 0.42682,-0.53521 0.8253,-1.06438 0.39848,-0.52919 0.74315,-0.96214 0.76595,-0.96214 0.023,0 0.0382,-0.0156 0.0342,-0.0351 -0.005,-0.0195 0.005,-0.0411 0.0204,-0.0485 0.0154,-0.008 0.34115,-0.42901 0.72421,-0.93684 0.383,-0.50775 0.70764,-0.92317 0.72137,-0.92317 0.0139,0 0.27907,-0.33676 0.5896,-0.74832 0.75975,-1.007 0.96626,-1.27315 0.98792,-1.27315 0.009,0 0.30807,-0.38481 0.66227,-0.85518 0.35421,-0.47036 0.66239,-0.85519 0.68487,-0.85519 0.0225,0 0.0407,-0.0187 0.0407,-0.0418 0,-0.0232 0.0196,-0.068 0.0438,-0.1 0.0242,-0.0321 0.0435,-0.0485 0.0435,-0.0373 0,0.0124 0.29337,-0.36751 0.6519,-0.84272 0.80471,-1.06649 0.9781,-1.28919 0.9781,-1.25629 0,0.0139 0.13056,-0.14971 0.29009,-0.36437 0.15953,-0.21449 0.29706,-0.39004 0.30563,-0.39004 0.009,0 0.0156,0.0232 0.0156,0.0506 0,0.0285 0.0263,0.0886 0.0582,0.13442 0.0318,0.0462 0.0582,0.10665 0.0582,0.13472 0,0.0285 0.0263,0.0767 0.0582,0.10736 0.0319,0.0306 0.0582,0.0833 0.0582,0.11669 0,0.0335 0.0263,0.0859 0.0582,0.11669 0.0318,0.0306 0.0582,0.0872 0.0582,0.12516 0,0.038 0.0105,0.0693 0.0241,0.0693 0.0139,0 0.0427,0.0477 0.0653,0.10689 0.0225,0.059 0.0641,0.13519 0.0922,0.16971 0.0281,0.0343 0.0511,0.0795 0.0511,0.0995 0,0.0202 0.023,0.0716 0.051,0.11401 0.0281,0.0425 0.0652,0.11144 0.0829,0.15312 0.0175,0.0419 0.0502,0.11928 0.0728,0.17247 0.0225,0.053 0.0638,0.1253 0.0918,0.1601 0.0278,0.0351 0.051,0.0918 0.051,0.1267 0,0.035 0.0105,0.0635 0.0242,0.0635 0.0139,0 0.0427,0.0477 0.0653,0.10689 0.0225,0.059 0.0641,0.13519 0.0922,0.16979 0.0281,0.0343 0.0511,0.0915 0.0511,0.12639 0,0.0351 0.0105,0.0635 0.024,0.0635 0.0139,0 0.0428,0.0477 0.0655,0.10689 0.0225,0.0591 0.0643,0.1409 0.0923,0.18227 0.0278,0.0411 0.051,0.0983 0.051,0.12638 0,0.0285 0.009,0.0509 0.0223,0.0509 0.0124,0 0.0545,0.0701 0.0943,0.15546 0.0396,0.0856 0.0819,0.15549 0.0943,0.15549 0.0124,0 0.0223,0.035 0.0223,0.0777 0,0.0425 0.0105,0.0777 0.0242,0.0777 0.0139,0 0.0428,0.0477 0.0655,0.10689 0.0225,0.059 0.0643,0.14075 0.0922,0.18225 0.0278,0.0411 0.051,0.0983 0.051,0.12639 0,0.0285 0.0124,0.0506 0.0289,0.0506 0.0159,0 0.0294,0.0314 0.0294,0.0694 0,0.038 0.0263,0.0944 0.0582,0.12515 0.0319,0.0306 0.0582,0.0739 0.0582,0.0961 2e-5,0.0216 0.0323,0.0902 0.072,0.15172 0.0396,0.0611 0.0797,0.14447 0.0893,0.18466 0.009,0.0404 0.0296,0.073 0.0445,0.073 0.0154,0 0.0271,0.0232 0.0271,0.0509 0,0.0285 0.0263,0.0886 0.0582,0.13442 0.0318,0.0462 0.0582,0.10397 0.0582,0.12917 0,0.0253 0.023,0.0739 0.0511,0.10841 0.0281,0.0343 0.0697,0.11097 0.0923,0.1698 0.0225,0.059 0.0519,0.10689 0.0653,0.10689 0.0139,0 0.024,0.0314 0.024,0.0694 0,0.038 0.0263,0.0944 0.0582,0.12515 0.0319,0.0306 0.0582,0.0833 0.0582,0.11668 0,0.0335 0.0263,0.0858 0.0582,0.11669 0.0319,0.0306 0.0582,0.0872 0.0582,0.1253 0,0.038 0.0124,0.0693 0.0271,0.0693 0.0154,0 0.0349,0.0328 0.0445,0.073 0.009,0.0404 0.0497,0.1233 0.0893,0.18465 0.0395,0.0611 0.072,0.13349 0.072,0.16026 5e-5,0.0268 0.0105,0.0485 0.0242,0.0485 0.0139,0 0.0428,0.0477 0.0655,0.10689 0.0225,0.059 0.0643,0.14091 0.0922,0.18227 0.0278,0.0411 0.051,0.0983 0.051,0.1264 0,0.0285 0.0124,0.0506 0.0289,0.0506 0.0159,0 0.0294,0.0232 0.0294,0.0509 0,0.0285 0.0263,0.0886 0.0582,0.13441 0.0319,0.0462 0.0582,0.10163 0.0582,0.12392 0,0.0224 0.009,0.0403 0.0219,0.0403 0.0124,0 0.0406,0.0567 0.0634,0.12623 0.0225,0.0694 0.0652,0.15465 0.0944,0.18921 0.0294,0.0343 0.0532,0.083 0.0532,0.10759 0,0.0649 -1.54373,2.1037 -1.59316,2.1037 -0.005,0 -0.24789,0.31922 -0.54095,0.70943 -0.29305,0.39021 -0.61583,0.80561 -0.71737,0.92324 -0.10151,0.11758 -0.48506,0.61175 -0.85239,1.09815 -0.36729,0.48635 -0.67851,0.88432 -0.69157,0.88432 -0.0124,0 -0.33748,0.41554 -0.72093,0.9233 -0.38347,0.50779 -0.79113,1.03691 -0.90598,1.17585 -0.11482,0.1389 -0.45743,0.58071 -0.76131,0.98155 -0.30386,0.40093 -0.56312,0.72896 -0.57609,0.72896 -0.0124,0 -0.0397,0.0396 -0.0593,0.0874 -0.0196,0.0476 -0.0805,0.13119 -0.13535,0.18468 -0.0547,0.0538 -0.10735,0.12777 -0.1168,0.16514 -0.009,0.0371 -0.0359,0.068 -0.059,0.068 -0.023,0 -0.30841,0.35415 -0.63413,0.78715 -0.32569,0.43296 -0.66071,0.86594 -0.74449,0.96211 -0.0838,0.0963 -0.45977,0.58163 -0.83563,1.07874 -0.37585,0.49708 -0.6948,0.9038 -0.70881,0.9038 -0.0139,0 -0.3331,0.40674 -0.70911,0.90385 -0.80634,1.06594 -0.9072,1.19524 -0.93186,1.19524 -0.0105,0 -0.29887,0.37179 -0.64139,0.82611 -0.34252,0.45431 -0.66335,0.87393 -0.71297,0.93233 -0.0496,0.0582 -0.0902,0.12407 -0.0902,0.14586 0,0.0219 -0.0196,0.0397 -0.0433,0.0397 -0.0238,0 -0.30947,0.35419 -0.63483,0.7872 -0.32532,0.43284 -0.63466,0.83091 -0.68741,0.88434 -0.0526,0.0538 -0.41265,0.51704 -0.79978,1.03013 -0.38713,0.51318 -0.7506,0.97999 -0.80767,1.03746 -0.0572,0.0575 -0.41905,0.52111 -0.80432,1.03023 -0.68249,0.90168 -0.92957,1.2171 -0.95345,1.2171 -0.006,0 -0.27455,0.34993 -0.59583,0.77747 -0.3213,0.42761 -0.59367,0.77741 -0.60531,0.77741 -0.0105,0 -0.0536,0.0523 -0.0933,0.11669 -0.0397,0.0642 -0.0909,0.11669 -0.11365,0.11669 -0.023,0 -0.0334,0.0105 -0.0233,0.0238 0.0219,0.0294 -0.0505,0.13148 -0.0936,0.13148 -0.017,0 -0.0312,0.0267 -0.0312,0.0596 0,0.0326 -0.0215,0.0701 -0.0477,0.084 -0.0263,0.0139 -0.28937,0.34525 -0.58471,0.73732 -0.29534,0.39214 -0.54893,0.71294 -0.56351,0.71294 -0.0139,0 -0.0266,0.0263 -0.0266,0.0582 0,0.0323 -0.0105,0.0582 -0.0254,0.0582 -0.0411,0 -0.17553,0.16716 -0.83598,1.0398 -0.34382,0.45431 -0.63483,0.82609 -0.64671,0.82609 -0.0124,0 -0.044,0.0352 -0.0715,0.0777 -0.0273,0.0426 -0.0729,0.0762 -0.10105,0.0746 -0.0281,0 -0.20639,-0.21187 -0.39603,-0.46652 z"
/>
</svg>
