<?xml version="1.0" encoding="UTF-8" standalone="no"?>
<svg
xmlns:rdf="http://www.w3.org/1999/02/22-rdf-syntax-ns#"
xmlns="http://www.w3.org/2000/svg"
xmlns:dc="http://purl.org/dc/elements/1.1/"
xmlns:cc="http://creativecommons.org/ns#"
xmlns:svg="http://www.w3.org/2000/svg"
xmlns:inkscape="http://www.inkscape.org/namespaces/inkscape"
xmlns:sodipodi="http://sodipodi.sourceforge.net/DTD/sodipodi-0.dtd"
>
<path
style="font-style:normal;font-variant:normal;font-weight:bold;font-stretch:normal;font-size:25.52108002px;line-height:100%;font-family:'Courier New';-inkscape-font-specification:'Courier New Bold';letter-spacing:0px;word-spacing:0px;fill:#ffcc00;fill-opacity:1;stroke:none;stroke-width:1px;stroke-opacity:1"
id="path4356"
d="m 9.4194,8.34195999999997 0,3.31614 q 0,2.94769 -1.2222,5.6448 -1.2117,2.69713 -3.477,2.69713 -1.3065,0 -2.2126,-0.79587 -0.8956,-0.81061 -1.7069,-2.96242 Q 0,14.0752 0,11.6581 l 0,-3.31614 q 0,-2.93294 1.2117,-5.63007 1.2116,-2.71186 3.4769,-2.71186 1.296,0 2.1915,0.79587 0.9062,0.79588 1.7174,2.96243 0.8219,2.1518 0.8219,4.58363 z m -2.1705,0 q 0,-2.46131 -0.9798,-4.3036 -0.5585,-1.01696 -1.57,-1.01696 -0.9798,0 -1.6014,1.12013 -0.9378,1.6949 -0.9378,4.20043 l 0,3.31614 q 0,2.47605 0.9904,4.30361 0.5479,1.01695 1.5699,1.01695 0.9694,0 1.591,-1.12012 0.9377,-1.69491 0.9377,-4.20044 l 0,-3.31614 z"
/>
<path
style="font-style:normal;font-variant:normal;font-weight:bold;font-stretch:normal;font-size:25.52108002px;line-height:100%;font-family:'Courier New';-inkscape-font-specification:'Courier New Bold';letter-spacing:0px;word-spacing:0px;fill:#ffcc00;fill-opacity:1;stroke:none;stroke-width:1px;stroke-opacity:1"
id="path4358"
d="m 18.7439999999999,3.00000000379441e-05 0,16.53648 2.1811,0 q 0.7796,0 1.1062,0.42741 0.3372,0.41268 0.3372,1.09065 0,0.66322 -0.3372,1.09064 -0.3266,0.41267 -1.1062,0.41267 l -6.522,0 q -0.7797,0 -1.1169,-0.41267 -0.3266,-0.42742 -0.3266,-1.10538 0,-0.66323 0.3266,-1.07591 0.3372,-0.42741 1.1169,-0.42741 l 2.181,0 0,-12.60133 -1.9281,0.70745 q -0.4636,0.17685 -0.6955,0.17685 -0.4109,0 -0.7165,-0.45688 -0.295,-0.4569 -0.295,-1.12012 0,-0.60427 0.2213,-0.94326 0.2213,-0.35372 0.9272,-0.61901 l 4.6465,-1.68018 z"
/>
<path
style="font-style:normal;font-variant:normal;font-weight:bold;font-stretch:normal;font-size:25.52108002px;line-height:100%;font-family:'Courier New';-inkscape-font-specification:'Courier New Bold';letter-spacing:0px;word-spacing:0px;fill:#ffcc00;fill-opacity:1;stroke:none;stroke-width:1px;stroke-opacity:1"
id="path4360"
d="m 35.2964999999999,8.34195999999997 0,3.31614 q 0,2.94769 -1.2221,5.6448 -1.2117,2.69713 -3.477,2.69713 -1.3065,0 -2.2126,-0.79587 -0.8956,-0.81061 -1.707,-2.96242 -0.8007,-2.16654 -0.8007,-4.58364 l 0,-3.31614 q 0,-2.93294 1.2117,-5.63007 1.2117,-2.71186 3.4769,-2.71186 1.296,0 2.1916,0.79587 0.9061,0.79588 1.7174,2.96243 0.8218,2.1518 0.8218,4.58363 z m -2.1705,0 q 0,-2.46131 -0.9798,-4.3036 -0.5584,-1.01696 -1.5699,-1.01696 -0.9799,0 -1.6015,1.12013 -0.9378,1.6949 -0.9378,4.20043 l 0,3.31614 q 0,2.47605 0.9904,4.30361 0.5479,1.01695 1.57,1.01695 0.9693,0 1.591,-1.12012 0.9376,-1.69491 0.9376,-4.20044 l 0,-3.31614 z"
/>
<path
d="m 48.2351000000001,8.34195999999997 0,3.31614 q 0,2.94769 -1.2222,5.6448 -1.2116,2.69713 -3.4769,2.69713 -1.3066,0 -2.2127,-0.79587 -0.8956,-0.81061 -1.7069,-2.96242 -0.8008,-2.16654 -0.8008,-4.58364 l 0,-3.31614 q 0,-2.93294 1.2117,-5.63007 1.2117,-2.71186 3.477,-2.71186 1.296,0 2.1916,0.79587 0.9061,0.79588 1.7174,2.96243 0.8218,2.1518 0.8218,4.58363 z m -2.1705,0 q 0,-2.46131 -0.9798,-4.3036 -0.5585,-1.01696 -1.57,-1.01696 -0.9798,0 -1.6015,1.12013 -0.9377,1.6949 -0.9377,4.20043 l 0,3.31614 q 0,2.47605 0.9904,4.30361 0.5479,1.01695 1.57,1.01695 0.9693,0 1.5909,-1.12012 0.9377,-1.69491 0.9377,-4.20044 l 0,-3.31614 z"
style="font-style:normal;font-variant:normal;font-weight:bold;font-stretch:normal;font-size:25.52108002px;line-height:100%;font-family:'Courier New';-inkscape-font-specification:'Courier New Bold';letter-spacing:0px;word-spacing:0px;fill:#ffcc00;fill-opacity:1;stroke:none;stroke-width:1px;stroke-opacity:1"
id="path4362"
/>
<path
style="font-style:normal;font-variant:normal;font-weight:bold;font-stretch:normal;font-size:25.52108002px;line-height:100%;font-family:'Courier New';-inkscape-font-specification:'Courier New Bold';letter-spacing:0px;word-spacing:0px;fill:#ffcc00;fill-opacity:1;stroke:none;stroke-width:1px;stroke-opacity:1"
id="path4365"
d="m 61.1737000000001,8.34195999999997 0,3.31614 q 0,2.94769 -1.2222,5.6448 -1.2117,2.69713 -3.477,2.69713 -1.3065,0 -2.2126,-0.79587 -0.8956,-0.81061 -1.7069,-2.96242 -0.8008,-2.16654 -0.8008,-4.58364 l 0,-3.31614 q 0,-2.93294 1.2117,-5.63007 1.2117,-2.71186 3.477,-2.71186 1.2959,0 2.1915,0.79587 0.9061,0.79588 1.7175,2.96243 0.8218,2.1518 0.8218,4.58363 z m -2.1705,0 q 0,-2.46131 -0.9798,-4.3036 -0.5585,-1.01696 -1.57,-1.01696 -0.9798,0 -1.6015,1.12013 -0.9377,1.6949 -0.9377,4.20043 l 0,3.31614 q 0,2.47605 0.9904,4.30361 0.5479,1.01695 1.5699,1.01695 0.9693,0 1.591,-1.12012 0.9377,-1.69491 0.9377,-4.20044 l 0,-3.31614 z"
/>
<path
id="path4367"
style="font-style:normal;font-variant:normal;font-weight:bold;font-stretch:normal;font-size:25.52108002px;line-height:100%;font-family:'Courier New';-inkscape-font-specification:'Courier New Bold';letter-spacing:0px;word-spacing:0px;fill:#ffcc00;fill-opacity:1;stroke:none;stroke-width:1px;stroke-opacity:1"
d="m 70.4983999999999,3.00000000379441e-05 0,16.53648 2.181,0 q 0.7796,0 1.1062,0.42741 0.3372,0.41268 0.3372,1.09065 0,0.66322 -0.3372,1.09064 -0.3266,0.41267 -1.1062,0.41267 l -6.5221,0 q -0.7796,0 -1.1168,-0.41267 -0.3266,-0.42742 -0.3266,-1.10538 0,-0.66323 0.3266,-1.07591 0.3372,-0.42741 1.1168,-0.42741 l 2.1811,0 0,-12.60133 -1.9282,0.70745 q -0.4636,0.17685 -0.6954,0.17685 -0.4108,0 -0.7164,-0.45688 -0.2951,-0.4569 -0.2951,-1.12012 0,-0.60427 0.2213,-0.94326 0.2213,-0.35372 0.9272,-0.61901 l 4.6466,-1.68018 z"
/>
<path
d="m 83.4368999999999,3.00000000379441e-05 0,16.53648 2.181,0 q 0.7797,0 1.1063,0.42741 0.3372,0.41268 0.3372,1.09065 0,0.66322 -0.3372,1.09064 -0.3266,0.41267 -1.1063,0.41267 l -6.522,0 q -0.7796,0 -1.1168,-0.41267 -0.3266,-0.42742 -0.3266,-1.10538 0,-0.66323 0.3266,-1.07591 0.3372,-0.42741 1.1168,-0.42741 l 2.181,0 0,-12.60133 -1.9281,0.70745 q -0.4636,0.17685 -0.6954,0.17685 -0.4109,0 -0.7165,-0.45688 -0.295,-0.4569 -0.295,-1.12012 0,-0.60427 0.2213,-0.94326 0.2212,-0.35372 0.9272,-0.61901 l 4.6465,-1.68018 z"
style="font-style:normal;font-variant:normal;font-weight:bold;font-stretch:normal;font-size:25.52108002px;line-height:100%;font-family:'Courier New';-inkscape-font-specification:'Courier New Bold';letter-spacing:0px;word-spacing:0px;fill:#ffcc00;fill-opacity:1;stroke:none;stroke-width:1px;stroke-opacity:1"
id="path4369"
/>
<path
d="m 96.3755000000001,3.00000000379441e-05 0,16.53648 2.181,0 q 0.7797,0 1.1063,0.42741 0.3372,0.41268 0.3372,1.09065 0,0.66322 -0.3372,1.09064 -0.3266,0.41267 -1.1063,0.41267 l -6.522,0 q -0.7797,0 -1.1168,-0.41267 -0.3266,-0.42742 -0.3266,-1.10538 0,-0.66323 0.3266,-1.07591 0.3371,-0.42741 1.1168,-0.42741 l 2.181,0 0,-12.60133 -1.9281,0.70745 q -0.4636,0.17685 -0.6954,0.17685 -0.4109,0 -0.7165,-0.45688 -0.295,-0.4569 -0.295,-1.12012 0,-0.60427 0.2213,-0.94326 0.2212,-0.35372 0.9272,-0.61901 l 4.6465,-1.68018 z"
style="font-style:normal;font-variant:normal;font-weight:bold;font-stretch:normal;font-size:25.52108002px;line-height:100%;font-family:'Courier New';-inkscape-font-specification:'Courier New Bold';letter-spacing:0px;word-spacing:0px;fill:#ffcc00;fill-opacity:1;stroke:none;stroke-width:1px;stroke-opacity:1"
id="path4374"
/>
<path
d="m 9.4194,35.84195 0,3.31614 q 0,2.94768 -1.2222,5.64481 -1.2117,2.69712 -3.477,2.69712 -1.3065,0 -2.2126,-0.79587 -0.8956,-0.81061 -1.7069,-2.96242 Q 0,41.57519 0,39.15809 l 0,-3.31614 q 0,-2.93293 1.2117,-5.63006 1.2116,-2.71187 3.4769,-2.71187 1.296,0 2.1915,0.79588 0.9062,0.79587 1.7174,2.96241 0.8219,2.15181 0.8219,4.58364 z m -2.1705,0 q 0,-2.46131 -0.9798,-4.30361 -0.5585,-1.01695 -1.57,-1.01695 -0.9798,0 -1.6014,1.12012 -0.9378,1.69492 -0.9378,4.20044 l 0,3.31614 q 0,2.47605 0.9904,4.30362 0.5479,1.01694 1.5699,1.01694 0.9694,0 1.591,-1.12011 0.9377,-1.69492 0.9377,-4.20045 l 0,-3.31614 z"
style="font-style:normal;font-variant:normal;font-weight:bold;font-stretch:normal;font-size:25.52108002px;line-height:100%;font-family:'Courier New';-inkscape-font-specification:'Courier New Bold';letter-spacing:0px;word-spacing:0px;fill:#008444;fill-opacity:1;stroke:none;stroke-width:1px;stroke-opacity:1"
id="path4339"
/>
<path
style="font-style:normal;font-variant:normal;font-weight:bold;font-stretch:normal;font-size:25.52108002px;line-height:100%;font-family:'Courier New';-inkscape-font-specification:'Courier New Bold';letter-spacing:0px;word-spacing:0px;fill:#008444;fill-opacity:1;stroke:none;stroke-width:1px;stroke-opacity:1"
id="path4341"
d="m 18.7439999999999,27.5000199999999 0,16.53648 2.1811,0 q 0.7796,0 1.1062,0.42742 0.3372,0.41267 0.3372,1.09063 0,0.66323 -0.3372,1.09064 -0.3266,0.41268 -1.1062,0.41268 l -6.522,0 q -0.7797,0 -1.1169,-0.41268 -0.3266,-0.42741 -0.3266,-1.10538 0,-0.66322 0.3266,-1.07589 0.3372,-0.42742 1.1169,-0.42742 l 2.181,0 0,-12.60133 -1.9281,0.70744 q -0.4636,0.17687 -0.6955,0.17687 -0.4109,0 -0.7165,-0.4569 -0.295,-0.45688 -0.295,-1.12011 0,-0.60428 0.2213,-0.94326 0.2213,-0.35372 0.9272,-0.61901 l 4.6465,-1.68018 z"
/>
<path
d="m 35.2964999999999,35.84195 0,3.31614 q 0,2.94768 -1.2221,5.64481 -1.2117,2.69712 -3.477,2.69712 -1.3065,0 -2.2126,-0.79587 -0.8956,-0.81061 -1.707,-2.96242 -0.8007,-2.16654 -0.8007,-4.58364 l 0,-3.31614 q 0,-2.93293 1.2117,-5.63006 1.2117,-2.71187 3.4769,-2.71187 1.296,0 2.1916,0.79588 0.9061,0.79587 1.7174,2.96241 0.8218,2.15181 0.8218,4.58364 z m -2.1705,0 q 0,-2.46131 -0.9798,-4.30361 -0.5584,-1.01695 -1.5699,-1.01695 -0.9799,0 -1.6015,1.12012 -0.9378,1.69492 -0.9378,4.20044 l 0,3.31614 q 0,2.47605 0.9904,4.30362 0.5479,1.01694 1.57,1.01694 0.9693,0 1.591,-1.12011 0.9376,-1.69492 0.9376,-4.20045 l 0,-3.31614 z"
style="font-style:normal;font-variant:normal;font-weight:bold;font-stretch:normal;font-size:25.52108002px;line-height:100%;font-family:'Courier New';-inkscape-font-specification:'Courier New Bold';letter-spacing:0px;word-spacing:0px;fill:#008444;fill-opacity:1;stroke:none;stroke-width:1px;stroke-opacity:1"
id="path4343"
/>
<path
d="m 48.2351000000001,35.84195 0,3.31614 q 0,2.94768 -1.2222,5.64481 -1.2116,2.69712 -3.4769,2.69712 -1.3066,0 -2.2127,-0.79587 -0.8956,-0.81061 -1.7069,-2.96242 -0.8008,-2.16654 -0.8008,-4.58364 l 0,-3.31614 q 0,-2.93293 1.2117,-5.63006 1.2117,-2.71187 3.477,-2.71187 1.296,0 2.1916,0.79588 0.9061,0.79587 1.7174,2.96241 0.8218,2.15181 0.8218,4.58364 z m -2.1705,0 q 0,-2.46131 -0.9798,-4.30361 -0.5585,-1.01695 -1.57,-1.01695 -0.9798,0 -1.6015,1.12012 -0.9377,1.69492 -0.9377,4.20044 l 0,3.31614 q 0,2.47605 0.9904,4.30362 0.5479,1.01694 1.57,1.01694 0.9693,0 1.5909,-1.12011 0.9377,-1.69492 0.9377,-4.20045 l 0,-3.31614 z"
style="font-style:normal;font-variant:normal;font-weight:bold;font-stretch:normal;font-size:25.52108002px;line-height:100%;font-family:'Courier New';-inkscape-font-specification:'Courier New Bold';letter-spacing:0px;word-spacing:0px;fill:#008444;fill-opacity:1;stroke:none;stroke-width:1px;stroke-opacity:1"
id="path4345"
/>
<path
id="path4347"
style="font-style:normal;font-variant:normal;font-weight:bold;font-stretch:normal;font-size:25.52108002px;line-height:100%;font-family:'Courier New';-inkscape-font-specification:'Courier New Bold';letter-spacing:0px;word-spacing:0px;fill:#008444;fill-opacity:1;stroke:none;stroke-width:1px;stroke-opacity:1"
d="m 61.1737000000001,35.84195 0,3.31614 q 0,2.94768 -1.2222,5.64481 -1.2117,2.69712 -3.477,2.69712 -1.3065,0 -2.2126,-0.79587 -0.8956,-0.81061 -1.7069,-2.96242 -0.8008,-2.16654 -0.8008,-4.58364 l 0,-3.31614 q 0,-2.93293 1.2117,-5.63006 1.2117,-2.71187 3.477,-2.71187 1.2959,0 2.1915,0.79588 0.9061,0.79587 1.7175,2.96241 0.8218,2.15181 0.8218,4.58364 z m -2.1705,0 q 0,-2.46131 -0.9798,-4.30361 -0.5585,-1.01695 -1.57,-1.01695 -0.9798,0 -1.6015,1.12012 -0.9377,1.69492 -0.9377,4.20044 l 0,3.31614 q 0,2.47605 0.9904,4.30362 0.5479,1.01694 1.5699,1.01694 0.9693,0 1.591,-1.12011 0.9377,-1.69492 0.9377,-4.20045 l 0,-3.31614 z"
/>
<path
d="m 74.1122,35.84195 0,3.31614 q 0,2.94768 -1.2221,5.64481 -1.2117,2.69712 -3.477,2.69712 -1.3065,0 -2.2127,-0.79587 -0.8955,-0.81061 -1.7068,-2.96242 -0.8008,-2.16654 -0.8008,-4.58364 l 0,-3.31614 q 0,-2.93293 1.2117,-5.63006 1.2116,-2.71187 3.4769,-2.71187 1.296,0 2.1916,0.79588 0.9061,0.79587 1.7174,2.96241 0.8218,2.15181 0.8218,4.58364 z m -2.1704,0 q 0,-2.46131 -0.9798,-4.30361 -0.5585,-1.01695 -1.57,-1.01695 -0.9799,0 -1.6015,1.12012 -0.9377,1.69492 -0.9377,4.20044 l 0,3.31614 q 0,2.47605 0.9904,4.30362 0.5479,1.01694 1.5699,1.01694 0.9693,0 1.591,-1.12011 0.9377,-1.69492 0.9377,-4.20045 l 0,-3.31614 z"
style="font-style:normal;font-variant:normal;font-weight:bold;font-stretch:normal;font-size:25.52108002px;line-height:100%;font-family:'Courier New';-inkscape-font-specification:'Courier New Bold';letter-spacing:0px;word-spacing:0px;fill:#008444;fill-opacity:1;stroke:none;stroke-width:1px;stroke-opacity:1"
id="path4349"
/>
<path
id="path4351"
style="font-style:normal;font-variant:normal;font-weight:bold;font-stretch:normal;font-size:25.52108002px;line-height:100%;font-family:'Courier New';-inkscape-font-specification:'Courier New Bold';letter-spacing:0px;word-spacing:0px;fill:#008444;fill-opacity:1;stroke:none;stroke-width:1px;stroke-opacity:1"
d="m 83.4368999999999,27.5000199999999 0,16.53648 2.181,0 q 0.7797,0 1.1063,0.42742 0.3372,0.41267 0.3372,1.09063 0,0.66323 -0.3372,1.09064 -0.3266,0.41268 -1.1063,0.41268 l -6.522,0 q -0.7796,0 -1.1168,-0.41268 -0.3266,-0.42741 -0.3266,-1.10538 0,-0.66322 0.3266,-1.07589 0.3372,-0.42742 1.1168,-0.42742 l 2.181,0 0,-12.60133 -1.9281,0.70744 q -0.4636,0.17687 -0.6954,0.17687 -0.4109,0 -0.7165,-0.4569 -0.295,-0.45688 -0.295,-1.12011 0,-0.60428 0.2213,-0.94326 0.2212,-0.35372 0.9272,-0.61901 l 4.6465,-1.68018 z"
/>
<path
id="path4353"
style="font-style:normal;font-variant:normal;font-weight:bold;font-stretch:normal;font-size:25.52108002px;line-height:100%;font-family:'Courier New';-inkscape-font-specification:'Courier New Bold';letter-spacing:0px;word-spacing:0px;fill:#008444;fill-opacity:1;stroke:none;stroke-width:1px;stroke-opacity:1"
d="m 96.3755000000001,27.5000199999999 0,16.53648 2.181,0 q 0.7797,0 1.1063,0.42742 0.3372,0.41267 0.3372,1.09063 0,0.66323 -0.3372,1.09064 -0.3266,0.41268 -1.1063,0.41268 l -6.522,0 q -0.7797,0 -1.1168,-0.41268 -0.3266,-0.42741 -0.3266,-1.10538 0,-0.66322 0.3266,-1.07589 0.3371,-0.42742 1.1168,-0.42742 l 2.181,0 0,-12.60133 -1.9281,0.70744 q -0.4636,0.17687 -0.6954,0.17687 -0.4109,0 -0.7165,-0.4569 -0.295,-0.45688 -0.295,-1.12011 0,-0.60428 0.2213,-0.94326 0.2212,-0.35372 0.9272,-0.61901 l 4.6465,-1.68018 z"
/>
<path
d="m 9.4194,60.84195 0,3.31613 q 0,2.94769 -1.2222,5.64482 -1.2117,2.69711 -3.477,2.69711 -1.3065,0 -2.2126,-0.79587 -0.8956,-0.81061 -1.7069,-2.96241 Q 0,66.57518 0,64.15808 l 0,-3.31613 q 0,-2.93295 1.2117,-5.63006 1.2116,-2.71187 3.4769,-2.71187 1.296,0 2.1915,0.79588 0.9062,0.79586 1.7174,2.96241 0.8219,2.1518 0.8219,4.58364 z m -2.1705,0 q 0,-2.46131 -0.9798,-4.30361 -0.5585,-1.01695 -1.57,-1.01695 -0.9798,0 -1.6014,1.12012 -0.9378,1.69492 -0.9378,4.20044 l 0,3.31613 q 0,2.47606 0.9904,4.30362 0.5479,1.01694 1.5699,1.01694 0.9694,0 1.591,-1.12011 0.9377,-1.69492 0.9377,-4.20045 l 0,-3.31613 z"
id="path4318"
style="font-style:normal;font-variant:normal;font-weight:bold;font-stretch:normal;font-size:25.52108002px;line-height:100%;font-family:'Courier New';-inkscape-font-specification:'Courier New Bold';letter-spacing:0px;word-spacing:0px;fill:#ff5a00;fill-opacity:1;stroke:none;stroke-width:1px;stroke-opacity:1"
/>
<path
d="m 18.7439999999999,52.5000199999999 0,16.53648 2.1811,0 q 0.7796,0 1.1062,0.42741 0.3372,0.41267 0.3372,1.09064 0,0.66323 -0.3372,1.09064 -0.3266,0.41268 -1.1062,0.41268 l -6.522,0 q -0.7797,0 -1.1169,-0.41268 -0.3266,-0.42741 -0.3266,-1.10538 0,-0.66323 0.3266,-1.0759 0.3372,-0.42741 1.1169,-0.42741 l 2.181,0 0,-12.60133 -1.9281,0.70744 q -0.4636,0.17686 -0.6955,0.17686 -0.4109,0 -0.7165,-0.45689 -0.295,-0.45689 -0.295,-1.12011 0,-0.60428 0.2213,-0.94327 0.2213,-0.35371 0.9272,-0.61901 l 4.6465,-1.68017 z"
id="path4320"
style="font-style:normal;font-variant:normal;font-weight:bold;font-stretch:normal;font-size:25.52108002px;line-height:100%;font-family:'Courier New';-inkscape-font-specification:'Courier New Bold';letter-spacing:0px;word-spacing:0px;fill:#ff5a00;fill-opacity:1;stroke:none;stroke-width:1px;stroke-opacity:1"
/>
<path
d="m 35.2964999999999,60.84195 0,3.31613 q 0,2.94769 -1.2221,5.64482 -1.2117,2.69711 -3.477,2.69711 -1.3065,0 -2.2126,-0.79587 -0.8956,-0.81061 -1.707,-2.96241 -0.8007,-2.16655 -0.8007,-4.58365 l 0,-3.31613 q 0,-2.93295 1.2117,-5.63006 1.2117,-2.71187 3.4769,-2.71187 1.296,0 2.1916,0.79588 0.9061,0.79586 1.7174,2.96241 0.8218,2.1518 0.8218,4.58364 z m -2.1705,0 q 0,-2.46131 -0.9798,-4.30361 -0.5584,-1.01695 -1.5699,-1.01695 -0.9799,0 -1.6015,1.12012 -0.9378,1.69492 -0.9378,4.20044 l 0,3.31613 q 0,2.47606 0.9904,4.30362 0.5479,1.01694 1.57,1.01694 0.9693,0 1.591,-1.12011 0.9376,-1.69492 0.9376,-4.20045 l 0,-3.31613 z"
id="path4322"
style="font-style:normal;font-variant:normal;font-weight:bold;font-stretch:normal;font-size:25.52108002px;line-height:100%;font-family:'Courier New';-inkscape-font-specification:'Courier New Bold';letter-spacing:0px;word-spacing:0px;fill:#ff5a00;fill-opacity:1;stroke:none;stroke-width:1px;stroke-opacity:1"
/>
<path
d="m 48.2351000000001,60.84195 0,3.31613 q 0,2.94769 -1.2222,5.64482 -1.2116,2.69711 -3.4769,2.69711 -1.3066,0 -2.2127,-0.79587 -0.8956,-0.81061 -1.7069,-2.96241 -0.8008,-2.16655 -0.8008,-4.58365 l 0,-3.31613 q 0,-2.93295 1.2117,-5.63006 1.2117,-2.71187 3.477,-2.71187 1.296,0 2.1916,0.79588 0.9061,0.79586 1.7174,2.96241 0.8218,2.1518 0.8218,4.58364 z m -2.1705,0 q 0,-2.46131 -0.9798,-4.30361 -0.5585,-1.01695 -1.57,-1.01695 -0.9798,0 -1.6015,1.12012 -0.9377,1.69492 -0.9377,4.20044 l 0,3.31613 q 0,2.47606 0.9904,4.30362 0.5479,1.01694 1.57,1.01694 0.9693,0 1.5909,-1.12011 0.9377,-1.69492 0.9377,-4.20045 l 0,-3.31613 z"
style="font-style:normal;font-variant:normal;font-weight:bold;font-stretch:normal;font-size:25.52108002px;line-height:100%;font-family:'Courier New';-inkscape-font-specification:'Courier New Bold';letter-spacing:0px;word-spacing:0px;fill:#ff5a00;fill-opacity:1;stroke:none;stroke-width:1px;stroke-opacity:1"
id="path4324"
/>
<path
d="m 61.1737000000001,60.84195 0,3.31613 q 0,2.94769 -1.2222,5.64482 -1.2117,2.69711 -3.477,2.69711 -1.3065,0 -2.2126,-0.79587 -0.8956,-0.81061 -1.7069,-2.96241 -0.8008,-2.16655 -0.8008,-4.58365 l 0,-3.31613 q 0,-2.93295 1.2117,-5.63006 1.2117,-2.71187 3.477,-2.71187 1.2959,0 2.1915,0.79588 0.9061,0.79586 1.7175,2.96241 0.8218,2.1518 0.8218,4.58364 z m -2.1705,0 q 0,-2.46131 -0.9798,-4.30361 -0.5585,-1.01695 -1.57,-1.01695 -0.9798,0 -1.6015,1.12012 -0.9377,1.69492 -0.9377,4.20044 l 0,3.31613 q 0,2.47606 0.9904,4.30362 0.5479,1.01694 1.5699,1.01694 0.9693,0 1.591,-1.12011 0.9377,-1.69492 0.9377,-4.20045 l 0,-3.31613 z"
style="font-style:normal;font-variant:normal;font-weight:bold;font-stretch:normal;font-size:25.52108002px;line-height:100%;font-family:'Courier New';-inkscape-font-specification:'Courier New Bold';letter-spacing:0px;word-spacing:0px;fill:#ff5a00;fill-opacity:1;stroke:none;stroke-width:1px;stroke-opacity:1"
id="path4326"
/>
<path
d="m 74.1122,60.84195 0,3.31613 q 0,2.94769 -1.2221,5.64482 -1.2117,2.69711 -3.477,2.69711 -1.3065,0 -2.2127,-0.79587 -0.8955,-0.81061 -1.7068,-2.96241 -0.8008,-2.16655 -0.8008,-4.58365 l 0,-3.31613 q 0,-2.93295 1.2117,-5.63006 1.2116,-2.71187 3.4769,-2.71187 1.296,0 2.1916,0.79588 0.9061,0.79586 1.7174,2.96241 0.8218,2.1518 0.8218,4.58364 z m -2.1704,0 q 0,-2.46131 -0.9798,-4.30361 -0.5585,-1.01695 -1.57,-1.01695 -0.9799,0 -1.6015,1.12012 -0.9377,1.69492 -0.9377,4.20044 l 0,3.31613 q 0,2.47606 0.9904,4.30362 0.5479,1.01694 1.5699,1.01694 0.9693,0 1.591,-1.12011 0.9377,-1.69492 0.9377,-4.20045 l 0,-3.31613 z"
style="font-style:normal;font-variant:normal;font-weight:bold;font-stretch:normal;font-size:25.52108002px;line-height:100%;font-family:'Courier New';-inkscape-font-specification:'Courier New Bold';letter-spacing:0px;word-spacing:0px;fill:#ff5a00;fill-opacity:1;stroke:none;stroke-width:1px;stroke-opacity:1"
id="path4329"
/>
<path
d="m 87.0508,60.84195 0,3.31613 q 0,2.94769 -1.2222,5.64482 -1.2117,2.69711 -3.4769,2.69711 -1.3065,0 -2.2127,-0.79587 -0.8955,-0.81061 -1.7069,-2.96241 -0.8007,-2.16655 -0.8007,-4.58365 l 0,-3.31613 q 0,-2.93295 1.2116,-5.63006 1.2117,-2.71187 3.477,-2.71187 1.296,0 2.1916,0.79588 0.9061,0.79586 1.7174,2.96241 0.8218,2.1518 0.8218,4.58364 z m -2.1705,0 q 0,-2.46131 -0.9798,-4.30361 -0.5584,-1.01695 -1.5699,-1.01695 -0.9799,0 -1.6016,1.12012 -0.9376,1.69492 -0.9376,4.20044 l 0,3.31613 q 0,2.47606 0.9903,4.30362 0.5479,1.01694 1.57,1.01694 0.9692,0 1.591,-1.12011 0.9376,-1.69492 0.9376,-4.20045 l 0,-3.31613 z"
style="font-style:normal;font-variant:normal;font-weight:bold;font-stretch:normal;font-size:25.52108002px;line-height:100%;font-family:'Courier New';-inkscape-font-specification:'Courier New Bold';letter-spacing:0px;word-spacing:0px;fill:#ff5a00;fill-opacity:1;stroke:none;stroke-width:1px;stroke-opacity:1"
id="path4331"
/>
<path
d="m 96.3755000000001,52.5000199999999 0,16.53648 2.181,0 q 0.7797,0 1.1063,0.42741 0.3372,0.41267 0.3372,1.09064 0,0.66323 -0.3372,1.09064 -0.3266,0.41268 -1.1063,0.41268 l -6.522,0 q -0.7797,0 -1.1168,-0.41268 -0.3266,-0.42741 -0.3266,-1.10538 0,-0.66323 0.3266,-1.0759 0.3371,-0.42741 1.1168,-0.42741 l 2.181,0 0,-12.60133 -1.9281,0.70744 q -0.4636,0.17686 -0.6954,0.17686 -0.4109,0 -0.7165,-0.45689 -0.295,-0.45689 -0.295,-1.12011 0,-0.60428 0.2213,-0.94327 0.2212,-0.35371 0.9272,-0.61901 l 4.6465,-1.68017 z"
style="font-style:normal;font-variant:normal;font-weight:bold;font-stretch:normal;font-size:25.52108002px;line-height:100%;font-family:'Courier New';-inkscape-font-specification:'Courier New Bold';letter-spacing:0px;word-spacing:0px;fill:#ff5a00;fill-opacity:1;stroke:none;stroke-width:1px;stroke-opacity:1"
id="path4333"
/>
<path
style="font-style:normal;font-variant:normal;font-weight:bold;font-stretch:normal;font-size:25.52108002px;line-height:100%;font-family:'Courier New';-inkscape-font-specification:'Courier New Bold';letter-spacing:0px;word-spacing:0px;fill:#0a6b9e;fill-opacity:1;stroke:none;stroke-width:1px;stroke-opacity:1"
id="path4301"
d="m 9.4194,88.34194 0,3.31614 q 0,2.94767 -1.2222,5.6448 -1.2117,2.69712 -3.477,2.69712 -1.3065,0 -2.2126,-0.79587 -0.8956,-0.81061 -1.7069,-2.96241 Q 0,94.07517 0,91.65808 l 0,-3.31614 q 0,-2.93294 1.2117,-5.63007 1.2116,-2.71187 3.4769,-2.71187 1.296,0 2.1915,0.79588 0.9062,0.79587 1.7174,2.96242 0.8219,2.1518 0.8219,4.58364 z m -2.1705,0 q 0,-2.46131 -0.9798,-4.30362 -0.5585,-1.01695 -1.57,-1.01695 -0.9798,0 -1.6014,1.12012 -0.9378,1.69492 -0.9378,4.20045 l 0,3.31614 q 0,2.47605 0.9904,4.30361 0.5479,1.01695 1.5699,1.01695 0.9694,0 1.591,-1.12012 0.9377,-1.69492 0.9377,-4.20044 l 0,-3.31614 z"
/>
<path
id="path4303"
style="font-style:normal;font-variant:normal;font-weight:bold;font-stretch:normal;font-size:25.52108002px;line-height:100%;font-family:'Courier New';-inkscape-font-specification:'Courier New Bold';letter-spacing:0px;word-spacing:0px;fill:#0a6b9e;fill-opacity:1;stroke:none;stroke-width:1px;stroke-opacity:1"
d="m 22.3579999999999,88.34194 0,3.31614 q 0,2.94767 -1.2222,5.6448 -1.2117,2.69712 -3.477,2.69712 -1.3065,0 -2.2126,-0.79587 -0.8956,-0.81061 -1.707,-2.96241 -0.8007,-2.16655 -0.8007,-4.58364 l 0,-3.31614 q 0,-2.93294 1.2117,-5.63007 1.2117,-2.71187 3.477,-2.71187 1.296,0 2.1915,0.79588 0.9062,0.79587 1.7174,2.96242 0.8219,2.1518 0.8219,4.58364 z m -2.1705,0 q 0,-2.46131 -0.9799,-4.30362 -0.5584,-1.01695 -1.5699,-1.01695 -0.9798,0 -1.6015,1.12012 -0.9377,1.69492 -0.9377,4.20045 l 0,3.31614 q 0,2.47605 0.9903,4.30361 0.5479,1.01695 1.57,1.01695 0.9694,0 1.591,-1.12012 0.9377,-1.69492 0.9377,-4.20044 l 0,-3.31614 z"
/>
<path
id="path4305"
style="font-style:normal;font-variant:normal;font-weight:bold;font-stretch:normal;font-size:25.52108002px;line-height:100%;font-family:'Courier New';-inkscape-font-specification:'Courier New Bold';letter-spacing:0px;word-spacing:0px;fill:#0a6b9e;fill-opacity:1;stroke:none;stroke-width:1px;stroke-opacity:1"
d="m 31.6826000000001,80 0,16.53649 2.181,0 q 0.7797,0 1.1063,0.42741 0.3372,0.41267 0.3372,1.09064 0,0.66322 -0.3372,1.09063 -0.3266,0.41269 -1.1063,0.41269 l -6.522,0 q -0.7797,0 -1.1168,-0.41269 -0.3266,-0.42741 -0.3266,-1.10538 0,-0.66322 0.3266,-1.07589 0.3371,-0.42741 1.1168,-0.42741 l 2.181,0 0,-12.60134 -1.9281,0.70745 q -0.4636,0.17686 -0.6954,0.17686 -0.4109,0 -0.7165,-0.45688 -0.295,-0.4569 -0.295,-1.12013 0,-0.60428 0.2213,-0.94325 0.2213,-0.35372 0.9272,-0.61902 L 31.6826000000001,80 Z"
/>
<path
d="m 48.2351000000001,88.34194 0,3.31614 q 0,2.94767 -1.2222,5.6448 -1.2116,2.69712 -3.4769,2.69712 -1.3066,0 -2.2127,-0.79587 -0.8956,-0.81061 -1.7069,-2.96241 -0.8008,-2.16655 -0.8008,-4.58364 l 0,-3.31614 q 0,-2.93294 1.2117,-5.63007 1.2117,-2.71187 3.477,-2.71187 1.296,0 2.1916,0.79588 0.9061,0.79587 1.7174,2.96242 0.8218,2.1518 0.8218,4.58364 z m -2.1705,0 q 0,-2.46131 -0.9798,-4.30362 -0.5585,-1.01695 -1.57,-1.01695 -0.9798,0 -1.6015,1.12012 -0.9377,1.69492 -0.9377,4.20045 l 0,3.31614 q 0,2.47605 0.9904,4.30361 0.5479,1.01695 1.57,1.01695 0.9693,0 1.5909,-1.12012 0.9377,-1.69492 0.9377,-4.20044 l 0,-3.31614 z"
style="font-style:normal;font-variant:normal;font-weight:bold;font-stretch:normal;font-size:25.52108002px;line-height:100%;font-family:'Courier New';-inkscape-font-specification:'Courier New Bold';letter-spacing:0px;word-spacing:0px;fill:#0a6b9e;fill-opacity:1;stroke:none;stroke-width:1px;stroke-opacity:1"
id="path4307"
/>
<path
d="m 61.1737000000001,88.34194 0,3.31614 q 0,2.94767 -1.2222,5.6448 -1.2117,2.69712 -3.477,2.69712 -1.3065,0 -2.2126,-0.79587 -0.8956,-0.81061 -1.7069,-2.96241 -0.8008,-2.16655 -0.8008,-4.58364 l 0,-3.31614 q 0,-2.93294 1.2117,-5.63007 1.2117,-2.71187 3.477,-2.71187 1.2959,0 2.1915,0.79588 0.9061,0.79587 1.7175,2.96242 0.8218,2.1518 0.8218,4.58364 z m -2.1705,0 q 0,-2.46131 -0.9798,-4.30362 -0.5585,-1.01695 -1.57,-1.01695 -0.9798,0 -1.6015,1.12012 -0.9377,1.69492 -0.9377,4.20045 l 0,3.31614 q 0,2.47605 0.9904,4.30361 0.5479,1.01695 1.5699,1.01695 0.9693,0 1.591,-1.12012 0.9377,-1.69492 0.9377,-4.20044 l 0,-3.31614 z"
id="path4309"
style="font-style:normal;font-variant:normal;font-weight:bold;font-stretch:normal;font-size:25.52108002px;line-height:100%;font-family:'Courier New';-inkscape-font-specification:'Courier New Bold';letter-spacing:0px;word-spacing:0px;fill:#0a6b9e;fill-opacity:1;stroke:none;stroke-width:1px;stroke-opacity:1"
/>
<path
id="path4311"
style="font-style:normal;font-variant:normal;font-weight:bold;font-stretch:normal;font-size:25.52108002px;line-height:100%;font-family:'Courier New';-inkscape-font-specification:'Courier New Bold';letter-spacing:0px;word-spacing:0px;fill:#0a6b9e;fill-opacity:1;stroke:none;stroke-width:1px;stroke-opacity:1"
d="m 74.1122,88.34194 0,3.31614 q 0,2.94767 -1.2221,5.6448 -1.2117,2.69712 -3.477,2.69712 -1.3065,0 -2.2127,-0.79587 -0.8955,-0.81061 -1.7068,-2.96241 -0.8008,-2.16655 -0.8008,-4.58364 l 0,-3.31614 q 0,-2.93294 1.2117,-5.63007 1.2116,-2.71187 3.4769,-2.71187 1.296,0 2.1916,0.79588 0.9061,0.79587 1.7174,2.96242 0.8218,2.1518 0.8218,4.58364 z m -2.1704,0 q 0,-2.46131 -0.9798,-4.30362 -0.5585,-1.01695 -1.57,-1.01695 -0.9799,0 -1.6015,1.12012 -0.9377,1.69492 -0.9377,4.20045 l 0,3.31614 q 0,2.47605 0.9904,4.30361 0.5479,1.01695 1.5699,1.01695 0.9693,0 1.591,-1.12012 0.9377,-1.69492 0.9377,-4.20044 l 0,-3.31614 z"
/>
<path
d="m 87.0508,88.34194 0,3.31614 q 0,2.94767 -1.2222,5.6448 -1.2117,2.69712 -3.4769,2.69712 -1.3065,0 -2.2127,-0.79587 -0.8955,-0.81061 -1.7069,-2.96241 -0.8007,-2.16655 -0.8007,-4.58364 l 0,-3.31614 q 0,-2.93294 1.2116,-5.63007 Q 80.0546999999999,80 82.3199999999999,80 q 1.296,0 2.1916,0.79588 0.9061,0.79587 1.7174,2.96242 0.8218,2.1518 0.8218,4.58364 z m -2.1705,0 q 0,-2.46131 -0.9798,-4.30362 -0.5584,-1.01695 -1.5699,-1.01695 -0.9799,0 -1.6016,1.12012 -0.9376,1.69492 -0.9376,4.20045 l 0,3.31614 q 0,2.47605 0.9903,4.30361 0.5479,1.01695 1.57,1.01695 0.9692,0 1.591,-1.12012 0.9376,-1.69492 0.9376,-4.20044 l 0,-3.31614 z"
id="path4313"
style="font-style:normal;font-variant:normal;font-weight:bold;font-stretch:normal;font-size:25.52108002px;line-height:100%;font-family:'Courier New';-inkscape-font-specification:'Courier New Bold';letter-spacing:0px;word-spacing:0px;fill:#0a6b9e;fill-opacity:1;stroke:none;stroke-width:1px;stroke-opacity:1"
/>
<path
d="m 96.3755000000001,80 0,16.53649 2.181,0 q 0.7797,0 1.1063,0.42741 0.3372,0.41267 0.3372,1.09064 0,0.66322 -0.3372,1.09063 -0.3266,0.41269 -1.1063,0.41269 l -6.522,0 q -0.7797,0 -1.1168,-0.41269 -0.3266,-0.42741 -0.3266,-1.10538 0,-0.66322 0.3266,-1.07589 0.3371,-0.42741 1.1168,-0.42741 l 2.181,0 0,-12.60134 -1.9281,0.70745 q -0.4636,0.17686 -0.6954,0.17686 -0.4109,0 -0.7165,-0.45688 -0.295,-0.4569 -0.295,-1.12013 0,-0.60428 0.2213,-0.94325 0.2212,-0.35372 0.9272,-0.61902 L 96.3755000000001,80 Z"
style="font-style:normal;font-variant:normal;font-weight:bold;font-stretch:normal;font-size:25.52108002px;line-height:100%;font-family:'Courier New';-inkscape-font-specification:'Courier New Bold';letter-spacing:0px;word-spacing:0px;fill:#0a6b9e;fill-opacity:1;stroke:none;stroke-width:1px;stroke-opacity:1"
id="path4315"
/>
</svg>
