<?xml version="1.0" encoding="UTF-8" standalone="no"?>
<svg
xmlns:inkscape="http://www.inkscape.org/namespaces/inkscape"
xmlns:sodipodi="http://sodipodi.sourceforge.net/DTD/sodipodi-0.dtd"
xmlns="http://www.w3.org/2000/svg"
xmlns:rdf="http://www.w3.org/1999/02/22-rdf-syntax-ns#"
xmlns:dc="http://purl.org/dc/elements/1.1/"
xmlns:cc="http://creativecommons.org/ns#"
xmlns:svg="http://www.w3.org/2000/svg"
>
<path
id="path4270"
style="fill:#303030"
d="m 10.2129,99.619902 c -1.6409,-0.642496 -3.1893,-2.648347 -3.1893,-4.13288 0,-3.684258 5.5512,-9.830568 11.6797,-12.932023 l 3.6902,-1.867258 4.6705,2.118386 c 7.9758,3.618414 11.886,4.478657 21.6996,4.774249 10.4039,0.313987 15.3581,-0.596323 24.2648,-4.451945 l 5.5686,-2.411139 3.0166,1.485125 c 6.24,3.072495 12.3219,9.567503 12.3364,13.174116 0,0.798103 -0.6415,2.131843 -1.4323,2.963263 -1.3407,1.408473 -1.7372,1.509262 -5.8057,1.477009 -3.5326,-0.02638 -5.9586,-0.511882 -12.7039,-2.532645 -14.3179,-4.290734 -17.4729,-4.869242 -24.9756,-4.581439 -6.9012,0.26452 -8.5516,0.606212 -22.0625,4.565344 -8.4146,2.465756 -14.3391,3.297505 -16.7571,2.351837 z m 32.608,-17.886561 c -8.2477,-1.239737 -17.0924,-5.286594 -23.6087,-10.802163 -14.5264,-12.296787 -18.3944,-32.343677 -9.3857,-48.654413 5.3888,-9.757937 16.6923,-18.1196108 28.4565,-21.0512025 4.8048,-1.19693068 15.2109,-1.61435595 20.2904,-0.81374218 10.8756,1.71362598 21.2067,7.40761958 27.9192,15.38788868 5.557,6.607406 8.3118,12.81764 9.2231,20.796253 1.4579,12.738813 -3.0968,24.417251 -13.0232,33.397201 -10.6396,9.626277 -25.2716,13.934689 -39.8716,11.740379 z m 17.6865,-23.624944 c 4.3542,-2.107969 7.343,-4.976174 9.5562,-9.172969 1.3486,-2.555008 1.5636,-3.668691 1.5636,-8.081914 0,-6.099417 -1.2078,-8.866168 -5.791,-13.268246 -4.2726,-4.103193 -8.8614,-5.854031 -15.3472,-5.854031 -6.5542,0 -11.0572,1.740284 -15.4966,5.988329 -4.5218,4.325299 -5.6386,6.929183 -5.6401,13.133948 -8e-4,4.388358 0.2259,5.54472 1.5483,8.106516 1.9471,3.755624 4.7041,6.618752 8.1158,8.428291 4.6115,2.445439 6.63,2.887738 12.3671,2.709759 4.7617,-0.147754 5.7779,-0.36874 9.1239,-1.989683 z m -12.9984,-5.877186 c -5.6124,-1.64891 -9.5227,-5.760419 -9.5227,-10.013486 0,-1.580638 -0.1312,-1.537103 2.308,-0.767824 2.6301,0.830228 5.6897,0.178097 8.0822,-1.722934 2.7497,-2.184348 3.6864,-6.444539 2.0323,-9.244999 -0.4737,-0.793553 -0.2916,-0.941053 1.1022,-0.931154 3.8199,0.02639 9.4352,3.807738 10.9268,7.356833 1.4528,3.458186 0.1895,9.225739 -2.5981,11.938328 -2.8285,2.74446 -8.868,4.402478 -12.3307,3.385373 z"
/>
<rect
height="100"
x="0"
width="100"
style="fill:#303030;fill-opacity:0"
id="rect4541-2-9-4"
y="0"
/>
</svg>
