<?xml version="1.0" encoding="UTF-8" standalone="no"?>
<svg
xmlns:sodipodi="http://sodipodi.sourceforge.net/DTD/sodipodi-0.dtd"
xmlns:inkscape="http://www.inkscape.org/namespaces/inkscape"
xmlns:svg="http://www.w3.org/2000/svg"
xmlns:cc="http://creativecommons.org/ns#"
xmlns:dc="http://purl.org/dc/elements/1.1/"
xmlns="http://www.w3.org/2000/svg"
xmlns:rdf="http://www.w3.org/1999/02/22-rdf-syntax-ns#"
>
<path
d="m 8.38560000000007,0.24411 c -3.2613,0.60002 -6.3041,3.59853 -7.7326,7.55646 l -0.653,1.83912 0,40.38236 0,40.38081 0.869,2.27975 c 1.0875,2.8782 3.4167,5.63765 5.5905,6.59706 1.522,0.6797 3.7892,0.72033 43.6964,0.72033 l 42.0811,0 1.7077,-1.03909 c 2.4845,-1.47973 3.8815,-3.23915 5.0308,-6.27673 l 1.0245,-2.6782 0,-39.9808 0,-39.9808 -1.0245,-2.6782 c -1.1178,-2.99852 -2.7333,-4.91732 -5.2178,-6.39705 l -1.522,-0.91878 -41.1488,-0.0407 c -22.6396,-0.0453 -41.8626,0.0751 -42.7013,0.23438 z"
id="path4838"
style="fill:#303030;fill-opacity:1"
/>
<path
d="m 18.5420999999999,89.929418 c -2.1307,-0.299592 -3.0783,-1.061728 -5.7676,-4.63884 -2.3951,-3.185671 -2.7532,-4.014511 -2.7739,-6.420535 -0.016,-1.810264 0.2892,-2.95928 1.1566,-4.36124 0.4149,-0.670776 7.9665,-7.844432 8.4561,-8.033048 0.1513,-0.05832 11.6034,14.993048 11.5464,15.175408 -0.1219,0.390848 -7.9472,7.294391 -8.7185,7.691727 -1.1051,0.56916 -2.5145,0.781205 -3.8991,0.586528 z m 8.3911,-17.194103 c -3.106,-4.110736 -5.668,-7.537576 -5.6936,-7.615224 -0.026,-0.0776 2.8673,-2.805816 6.4282,-6.0626 3.5612,-3.256799 6.9458,-6.355551 7.5215,-6.886119 0.5756,-0.530568 4.2781,-3.91504 8.2277,-7.521031 l 7.1811,-6.55636 0.316,0.441792 c 0.1739,0.242992 2.7232,3.625568 5.6653,7.51684 2.9419,3.891271 5.357,7.170479 5.3667,7.287135 0.015,0.183464 -2.6512,2.661288 -16.1492,15.007895 -9.9831,9.131456 -12.9984,11.861712 -13.1,11.861712 -0.064,0 -2.6579,-3.36332 -5.7637,-7.47404 z M 43.1501000000001,55.1169 c 0.724,-0.426432 4.9085,-4.39684 5.1346,-4.871864 0.3321,-0.697648 0.1222,-1.408192 -0.7315,-2.476 -0.6595,-0.824928 -0.8328,-0.938208 -1.435,-0.938208 -0.6193,0 -0.9211,0.216488 -3.1585,2.265488 -1.3606,1.246024 -2.5499,2.422264 -2.6432,2.613872 -0.3205,0.659264 -0.1708,1.293704 0.538,2.280712 0.9123,1.270264 1.5334,1.57496 2.2956,1.126 z m 25.0925,-2.985336 c -0.71,-0.920776 -1.4367,-1.873864 -1.6148,-2.117992 l -0.3238,-0.443824 -1.3605,1.277664 c -0.7482,0.702704 -1.4204,1.203776 -1.4936,1.11348 -0.074,-0.09029 -2.4782,-3.26372 -5.3443,-7.052071 -2.8661,-3.788344 -5.4203,-7.15944 -5.6757,-7.491312 l -0.4646,-0.603408 1.3909,-1.26652 1.3908,-1.266528 -1.4704,-1.909095 c -1.6919,-2.196584 -1.8903,-2.546568 -1.7396,-3.06892 0.154,-0.534232 0.8619,-1.001744 1.2903,-0.852112 0.4942,0.172648 18.162,23.544134 18.2299,24.11511 0.092,0.77428 -0.2554,1.239672 -0.9255,1.239672 -0.5379,0 -0.7286,-0.168952 -1.8891,-1.674144 z m 4.8464,-1.677456 c -0.3824,-0.152864 -0.7049,-0.279216 -0.7167,-0.280808 -0.013,-0.0016 -3.8057,-5.000183 -8.431,-11.108007 -5.1373,-6.783879 -8.5415,-11.439415 -8.7483,-11.964215 -0.2757,-0.699344 -0.3062,-0.991392 -0.1642,-1.570536 0.1691,-0.689376 7.4675,-13.063182 7.6923,-13.041534 0.1568,0.01512 24.2635,31.951885 24.3254,32.226341 0.052,0.22612 -11.7275,5.683855 -12.7406,5.903599 -0.2888,0.06264 -0.8318,-0.01088 -1.2169,-0.16484 z m 3.5721,-22.787934 c -6.7357,-8.904775 -12.3903,-16.39155 -12.5659,-16.63727 -0.3166,-0.443 -0.3149,-0.449248 0.2001,-0.742352 0.6191,-0.3523998 1.9046,-0.3859278 2.542,-0.06632 0.4774,0.2394 22.5585,29.293861 22.9956,30.257909 0.4375,0.96452 -0.043,3.054584 -0.7618,3.318528 -0.09,0.03296 -5.6744,-7.225744 -12.41,-16.130519 z"
style="fill:#ffffff;fill-opacity:1"
id="path4920"
/>
</svg>
