<?xml version="1.0" encoding="UTF-8" standalone="no"?>
<svg
xmlns:svg="http://www.w3.org/2000/svg"
xmlns:cc="http://creativecommons.org/ns#"
xmlns:dc="http://purl.org/dc/elements/1.1/"
xmlns="http://www.w3.org/2000/svg"
xmlns:rdf="http://www.w3.org/1999/02/22-rdf-syntax-ns#"
xmlns:sodipodi="http://sodipodi.sourceforge.net/DTD/sodipodi-0.dtd"
xmlns:inkscape="http://www.inkscape.org/namespaces/inkscape"
>
<rect
style="opacity:1;fill:#ffffff;fill-opacity:1;stroke:#ffffff;stroke-width:2;stroke-opacity:1"
id="rect4671"
width="86.267029"
y="31.410643"
x="6.99556999999999"
height="63.63961"
/>
<path
d="m 75.17007,50.29592 -5.89569,-5.295918 -27.10885,24.39796 -11.78004,-10.602042 -5.88436,5.295919 17.6644,15.908164 33.00454,-29.704083 0,0 z M 88.8888899999999,10 l -5.55556,0 0,-10 -11.11111,0 0,10 -44.44444,0 0,-10 -11.11111,0 0,10 -5.55556,0 c -6.13378,0 -11.05442,4.479592 -11.05442,10.000001 L 0,90.000003 C 0,95.520412 4.97732999999999,100 11.11111,100 l 77.77778,0 C 95.0226699999999,100 100,95.520412 100,90.000003 l 0,-70.000002 C 100,14.479592 95.0226699999999,10 88.8888899999999,10 l 0,0 z m 0,80.000003 -77.77778,0 0,-55.000002 77.77778,0 0,55.000002 z"
style="fill:#303030;fill-opacity:1"
id="path4659"
/>
</svg>
