<?xml version="1.0" encoding="UTF-8" standalone="no"?>
<svg
xmlns:inkscape="http://www.inkscape.org/namespaces/inkscape"
xmlns:sodipodi="http://sodipodi.sourceforge.net/DTD/sodipodi-0.dtd"
xmlns:rdf="http://www.w3.org/1999/02/22-rdf-syntax-ns#"
xmlns="http://www.w3.org/2000/svg"
xmlns:dc="http://purl.org/dc/elements/1.1/"
xmlns:cc="http://creativecommons.org/ns#"
xmlns:svg="http://www.w3.org/2000/svg"
>
<path
d="m 37.0976899999999,98.73937 c -0.51141,-0.6868 -0.95818,-1.2488 -0.99282,-1.2488 -0.0347,0 -0.6458,-0.7666 -1.35815,-1.7036 -1.455,-1.9135 -1.74687,-2.2801 -1.81635,-2.2801 -0.0265,0 -0.54103,-0.6603 -1.14324,-1.4675 -0.60223,-0.8073 -1.13326,-1.4677 -1.18008,-1.4677 -0.0469,0 -0.0665,-0.04 -0.0437,-0.088 0.0228,-0.048 -0.0458,-0.1429 -0.15237,-0.2076 -0.10655,-0.064 -0.19376,-0.165 -0.19376,-0.2247 0,-0.059 -0.0351,-0.1069 -0.0781,-0.1069 -0.0429,0 -0.64472,-0.7548 -1.33729,-1.6775 -0.69258,-0.9226 -1.29417,-1.6772 -1.33687,-1.6772 -0.0426,0 -0.57036,-0.6605 -1.17258,-1.4678 -0.60222,-0.8071 -1.12584,-1.4676 -1.16359,-1.4676 -0.0377,0 -0.62178,-0.7195 -1.29784,-1.5987 -0.67606,-0.8793 -1.40943,-1.8108 -1.62969,-2.0704 -0.22027,-0.2595 -0.84039,-1.0496 -1.37807,-1.7561 -0.53768,-0.7062 -1.02829,-1.2841 -1.09026,-1.2841 -0.0619,0 -0.11274,-0.072 -0.11274,-0.161 0,-0.088 -0.0595,-0.1911 -0.13232,-0.2283 -0.0728,-0.039 -0.67098,-0.7788 -1.32928,-1.6479 -0.65829,-0.8688 -1.34456,-1.7449 -1.52504,-1.9469 -0.18048,-0.2016 -0.80307,-0.9918 -1.38353,-1.7559 -0.58047,-0.7639 -1.08746,-1.389 -1.12665,-1.389 -0.0392,0 -0.59454,-0.6958 -1.23413,-1.5461 -0.6396,-0.8505 -1.30068,-1.6852 -1.46908,-1.8547 -0.16841,-0.169 -0.88229,-1.0776 -1.58641,-2.0179 -0.70413,-0.9405 -1.31318,-1.7097 -1.35347,-1.7097 -0.0402,0 -0.55013,-0.6252 -1.13299,-1.389 -0.58286,-0.7641 -1.22167,-1.5698 -1.41957,-1.7906 -0.19792,-0.2206 -0.33634,-0.4521 -0.30765,-0.514 0.03,-0.064 0.0155,-0.083 -0.0336,-0.043 -0.0488,0.04 -0.58093,-0.586 -1.23323,-1.4513 -0.63105,-0.8373 -1.17905,-1.5224 -1.21778,-1.5224 -0.0387,0 -0.61781,-0.7195 -1.28686,-1.5986 -0.66904,-0.8793 -1.35785,-1.7402 -1.5307,-1.9133 -0.17284,-0.1731 -0.31591,-0.3749 -0.3179,-0.449 -10e-4,-0.0744 0.35022,-0.6041 0.7827,-1.1775 0.43247,-0.5736 0.77687,-1.079 0.76533,-1.1233 -0.0121,-0.044 0.0585,-0.1269 0.15562,-0.1831 0.0971,-0.056 0.17662,-0.1571 0.17662,-0.2241 0,-0.067 0.51218,-0.8127 1.1382,-1.6589 0.62599,-0.8464 1.13817,-1.57545 1.13817,-1.62033 0,-0.0441 0.5122,-0.77486 1.13819,-1.6225 0.62601,-0.84738 1.13819,-1.56308 1.13819,-1.59019 0,-0.0788 0.49678,-0.78114 1.70728,-2.417 0.61522,-0.83122 1.11857,-1.56067 1.11857,-1.62103 0,-0.0601 0.0353,-0.0801 0.0785,-0.0441 0.0431,0.0361 0.0785,0 0.0785,-0.0962 0,-0.0881 0.10595,-0.2651 0.23549,-0.39291 0.12946,-0.12821 0.23549,-0.27191 0.23549,-0.31998 0,-0.0481 0.52319,-0.78421 1.16266,-1.6356 0.63947,-0.85125 1.18588,-1.62851 1.21423,-1.72721 0.12087,-0.42068 0.33966,-0.20727 1.85993,1.81228 0.45571,0.60552 0.95164,1.22506 1.10208,1.37691 0.15041,0.15105 0.86828,1.05999 1.5952,2.01808 0.72691,0.95809 1.35053,1.74177 1.38582,1.74177 0.0353,0 0.59842,0.70782 1.25138,1.57269 0.65297,0.86487 1.20057,1.57229 1.21689,1.57229 0.049,0 0.60642,0.70007 1.85744,2.3326 0.6517,0.85043 1.21449,1.54623 1.2506,1.54623 0.0362,0 0.61616,0.7312 1.28894,1.6249 0.67279,0.8937 1.27561,1.6249 1.33958,1.6249 0.064,0 0.11635,0.071 0.11635,0.1569 0,0.087 0.0329,0.1571 0.0731,0.1571 0.0402,0 0.58505,0.6799 1.21087,1.5104 0.62581,0.8307 1.15811,1.4833 1.18291,1.4503 0.0247,-0.032 0.0451,0.02 0.0451,0.1148 0,0.096 0.0356,0.1752 0.0791,0.1752 0.11182,0 0.43653,0.3915 1.54273,1.8605 0.5318,0.7065 0.98963,1.2844 1.01741,1.2844 0.0601,0 0.35336,0.3679 1.62921,2.0442 0.52665,0.6918 1.07979,1.3822 1.22922,1.5339 0.14951,0.151 0.75287,0.9111 1.34096,1.6871 0.58809,0.7762 1.12677,1.4408 1.19706,1.4768 0.0702,0.036 0.1278,0.1369 0.1278,0.226 0,0.091 0.0683,0.161 0.15699,0.161 0.0886,0 0.15699,0.071 0.15699,0.1611 0,0.088 0.0618,0.1911 0.1373,0.2288 0.0755,0.039 0.18352,0.155 0.23993,0.2588 0.0564,0.1042 0.15608,0.1912 0.22147,0.1912 0.13022,0 0.35672,-0.2604 0.3354,-0.3855 -0.007,-0.044 0.0511,-0.1269 0.12991,-0.1873 0.22655,-0.171 0.50097,-0.5519 0.44872,-0.6215 -0.0262,-0.035 -0.006,-0.064 0.0431,-0.064 0.0499,0 0.81408,-0.9553 1.69822,-2.1229 1.65292,-2.1829 2.16204,-2.8312 2.16204,-2.7533 0,0.024 0.78183,-0.9911 1.73742,-2.2569 0.95557,-1.266 1.76821,-2.3018 1.80586,-2.3018 0.0377,0 0.82287,-1.0026 1.74496,-2.2277 1.81677,-2.414 2.62939,-3.4333 2.73726,-3.4333 0.0378,0 0.0481,-0.044 0.0228,-0.099 -0.0253,-0.055 0.0276,-0.1529 0.1177,-0.2168 0.0901,-0.064 0.88176,-1.0692 1.75919,-2.2329 1.8048,-2.39363 2.21257,-2.90206 2.32739,-2.90206 0.0443,0 0.0586,-0.0467 0.0319,-0.10417 -0.0267,-0.0588 -0.0105,-0.10417 0.0351,-0.10417 0.046,0 0.87954,-1.06293 1.85242,-2.36237 0.97286,-1.29932 1.80363,-2.3334 1.84614,-2.29841 0.0425,0.0347 0.0677,0 0.0558,-0.0588 -0.0121,-0.0668 0.0457,-0.17709 0.12781,-0.24373 0.0821,-0.0668 0.91313,-1.13545 1.84662,-2.37506 0.9335,-1.23975 1.79352,-2.32098 1.91115,-2.40271 0.11771,-0.0828 0.21391,-0.18711 0.21391,-0.23465 0,-0.11485 0.25487,-0.50763 0.32936,-0.50763 0.0324,0 0.8626,-1.0672 1.84479,-2.37119 0.98216,-1.30425 1.90803,-2.49548 2.05746,-2.64705 0.14936,-0.15096 1.15094,-1.44337 2.22556,-2.87041 1.07464,-1.42707 2.00417,-2.59468 2.06562,-2.59468 0.0615,0 0.10293,-0.0422 0.0921,-0.0946 -0.0106,-0.0524 0.0136,-0.11072 0.0553,-0.13088 0.0412,-0.0202 0.92003,-1.15694 1.95297,-2.52644 1.03293,-1.36929 1.90839,-2.4896 1.94544,-2.4896 0.0371,0 0.75256,-0.90817 1.58998,-2.01802 2.0489,-2.71563 2.60581,-3.43338 2.66421,-3.43338 0.0271,0 0.8308,-1.03778 1.78599,-2.30625 0.95518,-1.26845 1.78628,-2.30623 1.84689,-2.30623 0.0606,0 0.11017,-0.0504 0.11017,-0.11271 0,-0.0624 0.053,-0.18317 0.11771,-0.26971 0.0648,-0.0865 0.11771,-0.13088 0.11771,-0.1007 0,0.0322 0.79111,-0.9911 1.75803,-2.27263 2.17014,-2.87606 2.63773,-3.47667 2.63773,-3.38791 0,0.0382 0.35199,-0.40396 0.78223,-0.98262 0.43022,-0.57848 0.80111,-1.05189 0.8242,-1.05189 0.0231,0 0.0421,0.0624 0.0421,0.13688 0,0.0765 0.0707,0.23872 0.15698,0.36249 0.0864,0.12474 0.157,0.28743 0.157,0.36352 0,0.0765 0.0707,0.20651 0.15699,0.28963 0.0864,0.0825 0.15698,0.22463 0.15698,0.3144 0,0.0906 0.0707,0.23146 0.157,0.31459 0.0864,0.0825 0.157,0.23509 0.157,0.33754 0,0.1027 0.0293,0.1872 0.0653,0.1872 0.0359,0 0.11514,0.12887 0.17607,0.28843 0.0609,0.159 0.17291,0.36451 0.24875,0.45769 0.0758,0.0925 0.1379,0.21416 0.1379,0.2685 0,0.0544 0.0618,0.19324 0.1373,0.30755 0.0755,0.11472 0.176,0.30053 0.22324,0.41304 0.0472,0.11271 0.13548,0.32164 0.19624,0.46515 0.0607,0.14292 0.17219,0.33774 0.24774,0.43175 0.0755,0.0946 0.13729,0.24756 0.13729,0.34176 0,0.0946 0.0294,0.17108 0.0653,0.17108 0.0359,0 0.11514,0.12888 0.17609,0.28823 0.0609,0.15901 0.1729,0.36471 0.24876,0.45791 0.0758,0.0926 0.1379,0.24656 0.1379,0.34076 0,0.0946 0.0294,0.17108 0.0653,0.17108 0.0359,0 0.1153,0.12888 0.17662,0.28823 0.0612,0.15901 0.17319,0.37983 0.24874,0.49153 0.0755,0.11072 0.13731,0.26509 0.13731,0.34077 0,0.0765 0.027,0.13686 0.06,0.13686 0.033,0 0.14725,0.18921 0.25402,0.41926 0.10671,0.23067 0.22104,0.41927 0.25403,0.41927 0.033,0 0.06,0.0946 0.06,0.20973 0,0.11472 0.0293,0.20972 0.0652,0.20972 0.0359,0 0.1153,0.12888 0.17662,0.28823 0.0612,0.15901 0.1732,0.37981 0.24876,0.49152 0.0755,0.11072 0.13729,0.26509 0.13729,0.34076 0,0.0765 0.0353,0.13687 0.0785,0.13687 0.0431,0 0.0785,0.0845 0.0785,0.18719 0,0.1027 0.0707,0.25442 0.15698,0.33756 0.0864,0.0825 0.15705,0.19926 0.15709,0.25903 6e-5,0.0584 0.0874,0.24335 0.19399,0.409 0.10671,0.16504 0.21497,0.38968 0.24069,0.49796 0.0258,0.10871 0.0797,0.19725 0.11997,0.19725 0.0402,0 0.0732,0.0624 0.0732,0.13687 0,0.0765 0.0707,0.23872 0.15699,0.36251 0.0864,0.12473 0.157,0.28057 0.157,0.3482 0,0.0684 0.0621,0.19926 0.13789,0.29265 0.0758,0.0925 0.18779,0.2993 0.24875,0.45791 0.061,0.159 0.14017,0.28823 0.17609,0.28823 0.0359,0 0.0653,0.0845 0.0653,0.18718 0,0.1027 0.0707,0.25443 0.15699,0.33756 0.0864,0.0825 0.15699,0.22462 0.15699,0.31459 0,0.0906 0.0707,0.23127 0.157,0.3144 0.0864,0.0825 0.15698,0.2351 0.15698,0.33774 0,0.10271 0.033,0.18719 0.0732,0.18719 0.0402,0 0.0942,0.0885 0.11997,0.19725 0.0258,0.10871 0.13398,0.3323 0.24069,0.49796 0.1067,0.16504 0.19393,0.36008 0.19399,0.43214 4e-5,0.0725 0.0294,0.13088 0.0653,0.13088 0.0359,0 0.11529,0.12888 0.17662,0.28823 0.0612,0.15901 0.1732,0.37982 0.24875,0.49152 0.0755,0.11071 0.13729,0.2651 0.13729,0.34078 0,0.0765 0.0353,0.13686 0.0785,0.13686 0.0431,0 0.0785,0.0624 0.0785,0.13687 0,0.0765 0.0707,0.23872 0.157,0.36251 0.0864,0.12473 0.157,0.27414 0.157,0.33431 0,0.0604 0.0267,0.10871 0.0594,0.10871 0.0326,0 0.10942,0.15299 0.17068,0.34057 0.0612,0.18719 0.17582,0.41704 0.25465,0.51023 0.0788,0.0926 0.14332,0.22383 0.14332,0.29005 0,0.17511 -4.16317,5.67321 -4.2964,5.67321 -0.0121,0 -0.66851,0.86087 -1.45881,1.91314 -0.79028,1.05229 -1.66086,2.17257 -1.93459,2.48976 -0.27373,0.31705 -1.30814,1.64975 -2.29869,2.96148 -0.99054,1.3116 -1.8298,2.38481 -1.86503,2.38481 -0.0353,0 -0.91012,1.12063 -1.94419,2.48992 -1.0341,1.36943 -2.13356,2.79628 -2.44327,3.17102 -0.3097,0.37475 -1.23356,1.56602 -2.05302,2.64698 -0.81946,1.08122 -1.5186,1.96586 -1.55365,1.96586 -0.0351,0 -0.10701,0.10684 -0.15995,0.23585 -0.0529,0.12821 -0.2171,0.35391 -0.36487,0.49801 -0.14769,0.1449 -0.28941,0.34456 -0.3148,0.44539 -0.0255,0.10017 -0.0971,0.18323 -0.15911,0.18323 -0.0621,0 -0.83161,0.95508 -1.71001,2.12278 -0.87837,1.1676 -1.78186,2.3352 -2.00773,2.5946 -0.22587,0.2595 -1.23994,1.5685 -2.25351,2.9091 -1.01356,1.3405 -1.87374,2.4373 -1.91149,2.4373 -0.0378,0 -0.8983,1.0969 -1.91232,2.4375 -2.17446,2.8746 -2.44649,3.2233 -2.51299,3.2233 -0.0276,0 -0.80596,1.0026 -1.7297,2.2278 -0.92373,1.2252 -1.78894,2.3568 -1.9227,2.5143 -0.13368,0.1571 -0.24317,0.3346 -0.24317,0.3932 0,0.059 -0.0526,0.1069 -0.1168,0.1069 -0.0644,0 -0.83467,0.9552 -1.712,2.1229 -0.87732,1.1673 -1.71153,2.2408 -1.8538,2.3849 -0.14227,0.1449 -1.11284,1.3943 -2.15684,2.778 -1.04401,1.3839 -2.02416,2.6428 -2.17813,2.7978 -0.15398,0.155 -1.13008,1.4053 -2.16911,2.7783 -1.84049,2.4316 -2.50673,3.2822 -2.57111,3.2822 -0.0173,0 -0.74045,0.9437 -1.60688,2.0967 -0.86642,1.1531 -1.60098,2.0965 -1.63234,2.0965 -0.0313,0 -0.14453,0.1409 -0.25155,0.3146 -0.10701,0.1731 -0.24496,0.3144 -0.30658,0.3144 -0.0616,0 -0.0903,0.028 -0.0635,0.064 0.0595,0.079 -0.13609,0.3545 -0.25231,0.3545 -0.0463,0 -0.0841,0.072 -0.0841,0.161 0,0.088 -0.0579,0.1893 -0.12871,0.2267 -0.0708,0.036 -0.7804,0.9311 -1.57685,1.9884 -0.79645,1.0575 -1.48031,1.9226 -1.51966,1.9226 -0.0393,0 -0.0716,0.071 -0.0716,0.1571 0,0.087 -0.0309,0.1569 -0.0686,0.1569 -0.11092,0 -0.47338,0.4508 -2.25441,2.8041 -0.92721,1.2252 -1.71204,2.2278 -1.74408,2.2278 -0.0321,0 -0.11876,0.095 -0.19268,0.2098 -0.0738,0.1149 -0.19658,0.2054 -0.27255,0.2013 -0.076,0 -0.55657,-0.5714 -1.06799,-1.2581 z"
id="path4593"
style="fill:#008000"
/>
</svg>
