<?xml version="1.0" encoding="UTF-8" standalone="no"?>
<svg
xmlns:svg="http://www.w3.org/2000/svg"
xmlns:cc="http://creativecommons.org/ns#"
xmlns:dc="http://purl.org/dc/elements/1.1/"
xmlns="http://www.w3.org/2000/svg"
xmlns:rdf="http://www.w3.org/1999/02/22-rdf-syntax-ns#"
xmlns:sodipodi="http://sodipodi.sourceforge.net/DTD/sodipodi-0.dtd"
xmlns:inkscape="http://www.inkscape.org/namespaces/inkscape"
>
<path
d="m 50.40111,0.401100000000042 0,13.2751 c 19.81579,0.055 35.86767,16.1069 35.92271,35.9227 l 13.27509,0 c -3e-5,-27.172 -22.02576,-49.1978 -49.1978,-49.1978 z m 35.92271,49.1978 0,0.1016 c -3e-5,-0.034 6e-5,-0.067 0,-0.1016 z"
id="path6124"
style="fill:#008751;fill-opacity:1;stroke:#c0c0c0;stroke-width:0.80220228;stroke-opacity:1"
/>
<path
d="m 99.5969,49.9031 -13.27403,0 c -0.0552,20.0156 -16.10555,36.2292 -35.91975,36.2847 l 0,13.4091 c 27.16981,-10e-5 49.19378,-22.2477 49.19378,-49.6938 z m -49.19378,36.2847 -0.10163,0 c 0.0341,0 0.0675,10e-5 0.10163,0 z"
id="path6126"
style="fill:#ef6b00;fill-opacity:1;stroke:#c0c0c0;stroke-width:0.8062191;stroke-opacity:1"
/>
<path
style="fill:#0054a0;fill-opacity:1;stroke:#c0c0c0;stroke-width:0.81024092;stroke-opacity:1"
id="path6128"
d="m 50.09488,99.5949000000001 0,-13.408 c -20.01396,-0.055 -36.22636,-16.268 -36.28193,-36.2823 l -13.40783,0 c 10e-6,27.4439 22.24602,49.6903 49.68976,49.6903 z m -36.28193,-49.6903 0,-0.1026 c 2e-5,0.035 -4e-5,0.067 0,0.1026 z"
/>
<path
d="m 0.403120000000001,49.5969 13.40893,0 c 0.0554,-19.8142 16.26926,-35.8648 36.28485,-35.9198 l 0,-13.274 c -27.44598,0 -49.69378,22.024 -49.69378,49.1938 z m 49.69378,-35.9198 0.10243,0 c -0.0344,0 -0.0682,0 -0.10243,0 z"
style="fill:#fcd116;fill-opacity:1;stroke:#c0c0c0;stroke-width:0.80621928;stroke-opacity:1"
id="path6130"
/>
<circle
cy="50"
id="circle6132"
cx="50"
style="fill:none;stroke:#c0c0c0;stroke-width:2;stroke-opacity:1"
r="49"
/>
<circle
cy="50.0144"
id="path3918"
cx="49.66187"
style="fill:#4d4e53;fill-opacity:1;stroke:#c0c0c0;stroke-width:0.55534571;stroke-opacity:1"
r="36.753414"
/>
<path
id="path3124"
style="fill:#c0c0c0;fill-opacity:1"
d="m 25.38172,41.5911000000001 c 0.84892,0.7481 2.1658,2.2623 2.838,3.2633 0.4061,0.6048 0.59173,0.7971 1.09497,1.1343 0.76757,0.5144 1.8777,1.6684 2.54907,2.6498 1.04548,1.5283 1.5857,3.0512 1.10653,3.1194 -0.1284,0.018 -0.21459,-0.041 -0.30057,-0.2053 -0.18863,-0.3613 -1.55612,-1.5594 -1.43035,-1.2531 0.36289,0.8837 0.42305,0.9868 0.5481,0.9392 0.10223,-0.039 0.1094,-0.028 0.0325,0.049 -0.0767,0.077 -0.0702,0.1648 0.0297,0.3949 0.0706,0.1625 0.34255,0.8109 0.60441,1.4407 l 0.47609,1.1452 0.43851,-0.037 c 0.24117,-0.02 0.91921,-0.036 1.50676,-0.035 0.99986,0 1.09815,0.016 1.53414,0.2291 0.33378,0.1633 0.53491,0.3322 0.70954,0.5959 0.30784,0.4647 0.81329,2.0053 0.88383,2.6938 0.0497,0.4852 0.034,0.561 -0.21121,1.0211 -0.35045,0.6575 -1.02673,1.4675 -1.66273,1.9914 -0.28342,0.2335 -0.54645,0.4534 -0.58451,0.4886 -0.0513,0.048 0.70322,2.5818 0.79964,2.6859 0.009,0.01 0.19538,-0.036 0.4143,-0.1023 0.67196,-0.2023 2.89605,-0.679 4.16491,-0.8929 2.04896,-0.3453 2.61251,-0.8122 2.61395,-2.1658 0,-0.7382 -0.19482,-1.2157 -1.61528,-3.9436 l -0.74004,-1.4212 -0.56706,-0.018 c -0.46911,-0.015 -0.60741,-0.054 -0.8007,-0.2211 -0.36647,-0.3178 -0.63543,-0.8489 -0.91929,-1.8153 -0.32297,-1.0994 -0.57193,-1.4865 -1.04636,-1.6267 -0.61803,-0.1826 -1.47905,-0.6894 -2.00152,-1.1781 -0.82187,-0.7689 -1.07936,-1.4743 -0.83535,-2.2887 0.0931,-0.3108 0.087,-0.3295 -0.20172,-0.6254 -0.37969,-0.3891 -0.97491,-1.4315 -1.29961,-2.2759 -0.13894,-0.3613 -0.38084,-0.8689 -0.53755,-1.1281 -0.70514,-1.1661 -0.90485,-2.0488 -1.01348,-4.4792 -0.16661,-3.7277 -0.0923,-4.9809 0.41978,-7.0793 0.55774,-2.2856 1.26167,-3.5601 2.79652,-5.0636 1.95408,-1.914 4.1923,-2.8855 7.25355,-3.1484 1.20432,-0.1034 2.28982,-0.053 3.61304,0.1686 2.24953,0.3764 4.18176,1.3213 6.23255,3.0479 0.44716,0.3764 1.0199,0.843 1.27278,1.0368 0.25288,0.1938 0.73693,0.6204 1.07565,0.9478 0.77112,0.7455 1.2464,1.1263 2.14986,1.7223 1.002,0.6611 1.94244,1.6041 2.26776,2.2739 0.39819,0.82 0.69785,2.1038 0.65784,2.8185 -0.0307,0.5485 -0.20769,1.081 -0.48269,1.4524 -0.0733,0.099 -0.0298,0.1899 0.21586,0.4503 0.57865,0.6136 0.69637,1.078 0.51824,2.0447 -0.0889,0.4825 -0.0817,0.5302 0.17365,1.1591 0.30184,0.7433 0.49144,1.3859 0.49288,1.6704 0,0.112 0.15432,0.3637 0.36607,0.5993 0.84692,0.942 0.93425,2.2982 0.20644,3.2057 -0.22936,0.286 -0.24308,0.3453 -0.24308,1.0502 0,0.9917 -0.11107,1.9461 -0.50195,4.3126 -0.61658,3.7333 -0.67112,4.514 -0.54337,7.7764 0.0809,2.0668 0.0762,2.3209 -0.0516,2.7807 -0.13417,0.4825 -0.13388,0.511 0.006,0.6141 0.12008,0.089 0.9545,0.3659 1.10088,0.3659 0.0221,0 0.0253,-0.7483 0.007,-1.6628 -0.0381,-1.913 0.0728,-3.1925 0.52503,-6.056 0.97767,-6.1908 2.12744,-10.3821 3.5704,-13.0151 1.66572,-3.0396 3.9199,-4.8558 6.73458,-5.4261 0.99621,-0.2019 2.57289,-0.1283 3.56114,0.1662 3.57162,1.0642 6.6406,4.4891 10.48408,11.6999 0.15238,0.2858 0.29913,0.4174 0.68702,0.6158 0.72084,0.3688 1.03596,0.6374 1.59405,1.3589 0.9215,1.1912 1.04357,1.8381 0.5342,2.8307 -1.42297,1.711 -0.15296,0.2674 -1.45482,1.7909 -0.32555,0.2827 -0.7859,0.6375 -1.02298,0.7887 -0.23711,0.1511 -0.43112,0.2997 -0.43112,0.3301 0,0.03 0.25911,0.1221 0.57581,0.2037 0.64378,0.1659 2.15352,0.8726 2.4497,1.1468 0.43542,0.4031 0.5164,0.8201 0.28892,1.4877 -0.24849,0.7293 -0.75573,1.1249 -1.68456,1.314 -0.31407,0.064 -1.14196,0.7584 -1.08404,0.9094 0.0256,0.067 0.20623,0.192 0.40134,0.2783 0.59135,0.2616 0.88462,0.851 0.97612,1.9617 0.0451,0.5476 0.0306,0.6316 -0.16725,0.9692 l -0.21665,0.3697 -0.55155,0.5107 -0.47339,0.23 c -0.74056,0.3598 -1.48391,0.497 -2.66462,0.492 -1.1384,-0.01 -2.29826,-0.1971 -3.22957,-0.5352 -0.90358,-0.1447 -0.0108,0.017 -0.90104,-0.2258 -0.32976,-0.5769 -0.30469,-0.6129 0.4708,-0.6776 0.37241,-0.031 0.93121,-0.1143 1.2418,-0.1849 l 0.56472,-0.1285 -0.23588,-0.2303 c -0.2225,-0.2172 -0.29838,-0.2354 -1.33567,-0.3196 -1.43354,-0.3054 -1.55302,-0.1275 -2.00961,-0.165 -0.20705,-0.017 -0.17065,-0.025 -0.95529,-0.1464 0,0.018 0.18392,0.4972 0.40871,1.0636 0.71344,1.7976 1.26095,3.8946 1.60273,6.1383 -1.03173,-1.2545 -0.23672,-0.064 -1.2523,-1.437 -0.22757,-0.4516 -0.5007,-0.9013 -0.60697,-0.9993 -0.50979,-0.4701 -2.8195,-1.4655 -4.74257,-2.0439 l -1.01841,-0.3063 -0.28268,0.1522 c -0.41932,0.2259 -0.97521,0.888 -1.15996,1.3818 -0.70095,1.8735 -0.66308,4.5632 0.15586,11.0627 -0.0601,4.448 -1.30702,-7.0726 -1.24019,-8.8964 0.16241,-1.7738 0.5029,-2.7616 1.21404,-3.5218 0.25986,-0.2778 0.33855,-0.4109 0.25997,-0.4395 -0.062,-0.023 -0.4822,-0.1299 -0.93382,-0.2384 l -0.82115,-0.1974 -0.14996,0.3398 c -0.35763,0.8104 -0.68229,2.3316 -0.92225,4.3214 -0.13706,1.1363 -0.22375,1.443 -0.38056,1.3461 -0.0621,-0.038 -0.0749,-0.4737 -0.0416,-1.4188 0.0659,-1.868 0.32834,-3.3325 0.75901,-4.2346 0.13649,-0.286 0.1669,-0.4251 0.10173,-0.4654 -0.0511,-0.032 -1.07497,-0.2471 -2.27522,-0.479 -1.20024,-0.2318 -2.36318,-0.4574 -2.58429,-0.5012 -0.22111,-0.044 -0.41413,-0.068 -0.42893,-0.053 -0.0148,0.015 0.099,0.3204 0.2528,0.6792 0.83279,1.9421 0.6897,3.9495 -0.36711,5.1501 -1.08302,1.2304 -3.78002,2.1748 -7.59465,2.6596 -1.62701,0.2068 -5.25613,0.209 -6.36389,0 -1.38053,-0.2556 -2.36757,-0.6507 -3.32563,-1.331 -0.68529,-0.4867 -1.78469,-1.6528 -2.47762,-2.628 -0.50809,-0.715 -2.62714,-4.0596 -3.25634,-5.1395 -0.16815,-0.2887 -0.29609,-0.4022 -0.54618,-0.4848 -0.30117,-0.099 -0.42107,-0.084 -1.53953,0.2017 -1.83265,0.4675 -3.7339,1.0997 -3.66396,1.2184 0.032,0.054 0.17484,0.2463 0.31753,0.427 0.67341,0.8526 1.21534,2.0224 1.57531,3.4007 0.25256,0.9672 0.34713,2.8863 0.1951,3.9603 -0.34804,2.4587 -1.46763,4.7391 -3.13938,6.3944 -0.83235,0.8241 -2.38865,1.7663 -2.58616,1.5757 -0.11592,-0.1118 0.46205,-0.5455 0.91579,-0.8712 0.24576,-0.1764 0.72454,-0.6013 1.06401,-0.9443 1.87258,-1.8922 3.00473,-4.5063 3.13288,-7.2339 0.0788,-1.6762 -0.24707,-3.2673 -0.96696,-4.7216 -0.35495,-0.717 -0.93292,-1.5769 -1.15113,-1.7126 -0.16557,-0.1029 -1.48139,0.4016 -3.63935,1.3955 -1.66616,0.7674 -1.92294,0.9857 -2.47443,2.1042 l -0.37395,0.7585 0.049,1.0462 c 0.0662,1.4129 0.25198,2.6801 0.58072,3.9619 0.31771,1.239 0.65485,2.1601 1.62385,4.4365 0.41578,0.9698 0.50751,1.9444 -0.62816,0.2449 -1.78183,-3.5213 -2.30687,-5.4412 -2.40279,-8.7862 -0.0423,-1.475 0.0639,-2.8287 0.26247,-3.3462 0.0507,-0.1321 0.0338,-0.1342 -0.22061,-0.027 -0.20167,0.085 -0.26888,0.1608 -0.25071,0.2819 0.0135,0.091 -0.0563,0.3244 -0.15536,0.5187 -0.0991,0.1942 -0.24313,0.5383 -0.32005,0.7647 -0.10232,0.3009 -0.18192,0.4115 -0.29628,0.4115 -0.13567,0 -0.15415,-0.056 -0.13944,-0.4209 0.009,-0.2314 0.0895,-0.6118 0.17819,-0.8451 0.14532,-0.3824 0.14769,-0.4204 0.0241,-0.3853 -0.8855,0.2515 -1.49739,0.395 -2.14893,0.504 -0.6998,0.1171 -0.80312,0.1575 -1.0037,0.3926 -0.12299,0.1441 -0.22459,0.3035 -0.22582,0.3541 -0.003,0.1218 1.62547,0.2275 2.33478,0.1516 0.4587,-0.049 0.54247,-0.038 0.58795,0.081 0.0291,0.076 0.014,0.2188 -0.0339,0.3173 -0.0478,0.099 -0.11044,0.4741 -0.13921,0.8345 -0.0288,0.3603 -0.0691,0.672 -0.0896,0.6925 -0.10019,0.1002 -0.21719,-0.1883 -0.25773,-0.6356 l -0.0451,-0.4975 -0.73247,0.3679 c -2.54039,1.2759 -5.65394,1.5973 -7.32891,0.7567 -1.708,-0.8604 -1.65975,-1.3733 -1.45103,-3.169 0.13902,-0.6653 0.38157,-1.0687 0.79195,-1.3173 0.39093,-0.2367 0.53837,-0.4864 0.35559,-0.6019 -1.11158,-0.7026 -1.16483,-0.7263 -1.62989,-0.7263 -1.15198,0 -2.21273,-1.1288 -2.11933,-2.2554 0.046,-0.5547 0.20796,-0.767 1.0506,-1.3773 0.68314,-0.4947 2.29468,-1.3763 2.51597,-1.3763 0.25909,0 0.0752,-0.173 -0.44257,-0.4163 -1.46426,-0.6882 -3.15373,-2.1214 -3.62947,-3.0791 -0.26484,-0.5331 -0.31224,-1.2005 -0.1259,-1.7724 0.1965,-0.603 0.97321,-1.9098 1.41734,-2.3847 0.20165,-0.2155 0.56376,-0.5228 0.80471,-0.6827 0.24094,-0.1599 0.46071,-0.3274 0.48842,-0.3722 0.0277,-0.045 0.0786,-0.064 0.11319,-0.043 0.0346,0.021 0.33686,-0.055 0.67177,-0.1707 0.86162,-0.2966 1.98194,-0.5223 2.59214,-0.5223 0.47307,0 0.52128,-0.016 0.52128,-0.1707 0,-0.094 -0.12869,-0.7691 -0.28599,-1.5005 -0.42888,-1.9943 -0.45828,-2.1765 -0.46078,-2.8563 -0.004,-0.9674 0.31605,-1.528 1.10647,-1.9409 0.58086,-0.3035 1.25098,-0.2894 2.58366,0.054 1.54636,0.3991 2.41342,0.5044 4.47562,0.5437 l 1.87624,0.036 -0.22785,-0.3058 c -1.45285,-1.95 -3.16616,-3.4475 -5.04241,-4.4072 -1.74864,-0.8945 -5.63629,-1.1284 -7.55575,-1.1218 -0.16967,-0.6595 0.59575,-0.9958 2.25287,-0.9096 1.32803,0.069 3.40211,0.094 5.91083,1.2756 0.8955,0.4218 1.69756,1.2887 2.74861,1.942 z"
/>
<path
d="m 55.03383,72.999 c 2.18051,-0.2601 4.40033,-0.7927 5.63254,-1.3515 0.64104,-0.2906 1.42441,-0.8298 1.651,-1.1362 0.88493,-1.197 0.89599,-2.9718 0.03,-4.8257 l -0.3097,-0.6631 -0.77164,-0.1474 c -0.42438,-0.081 -0.94671,-0.2132 -1.16071,-0.2936 l -0.38911,-0.146 -0.0926,0.3407 c -0.17523,0.6447 -0.31411,1.5735 -0.31697,2.12 -0.003,0.649 -0.0523,0.8074 -0.24921,0.8074 -0.202,0 -0.25244,-0.1705 -0.30517,-1.0314 -0.0405,-0.6608 0.0306,-1.39 0.19458,-1.9957 0.0446,-0.1647 -0.027,-0.1296 -0.47271,0.2319 -0.60977,0.4946 -1.81152,1.0998 -2.43845,1.2281 -0.63343,0.1296 -1.92463,0.1097 -2.49629,-0.038 -0.4084,-0.1058 -0.80233,-0.2732 -1.988,-0.8444 -0.0411,-0.02 -0.052,0.015 -0.0243,0.078 0.59349,1.3411 1.43478,3.5735 1.37078,3.6375 -0.0527,0.053 -0.12296,0.025 -0.20307,-0.079 -0.20425,-0.2664 -1.03015,-1.9962 -1.37007,-2.8696 -0.17579,-0.4516 -0.3549,-0.9049 -0.39805,-1.0072 -0.0431,-0.1023 -0.24821,-0.2871 -0.45574,-0.4106 -1.66939,-0.9932 -4.06667,-2.6941 -5.46772,-3.8794 -0.37111,-0.314 -0.68493,-0.5607 -0.69735,-0.5483 -0.0125,0.013 0.0849,0.3568 0.21625,0.7654 0.71967,2.2378 0.83054,5.1278 0.23436,6.1082 -0.27007,0.4441 -0.33217,0.2137 -0.22563,-0.8371 0.073,-0.7197 0.0729,-1.138 0,-1.7575 -0.0879,-0.7454 -0.39867,-2.4187 -0.46157,-2.4852 -0.0146,-0.015 -0.0835,0.082 -0.15309,0.2164 -0.36653,0.7088 -1.34275,1.2069 -2.87264,1.4657 -0.86821,0.1469 -0.88002,0.1519 -0.82987,0.3517 0.0896,0.3571 2.93446,4.8476 3.71228,5.8598 1.60291,2.0858 3.19939,2.9915 5.74142,3.2569 1.01432,0.106 4.03942,0.038 5.36654,-0.12 l 4e-5,0 z"
id="path3122"
style="fill:#4d4e53;fill-opacity:1"
/>
<path
d="m 20.34043,70.7835 c 0.31613,-0.066 0.99975,-0.2586 1.51911,-0.4272 1.0829,-0.3514 1.13347,-0.3093 -0.65691,-0.5463 -0.51938,-0.069 -1.26942,-0.2201 -1.66676,-0.3364 -0.47949,-0.1403 -0.76944,-0.1871 -0.86221,-0.139 -0.0769,0.04 -0.32451,0.097 -0.55032,0.1265 -0.68862,0.091 -1.17763,0.2217 -1.27789,0.3426 -0.27096,0.3264 0.25093,0.8039 1.1567,1.0582 0.51607,0.1449 1.41982,0.1146 2.33828,-0.078 z"
style="fill:#4d4e53;fill-opacity:1"
id="path3120"
/>
<path
d="m 16.3108,70.3439000000001 c -0.42189,-1.7069 2.72716,-1.5041 3.7552,-1.4126 0.4353,0.086 0.54641,0.081 0.80052,-0.034 0.16228,-0.073 0.3778,-0.26 0.47895,-0.4148 0.26551,-0.4063 0.5342,-0.5505 1.24192,-0.6669 2.51904,-0.4139 3.6919,-0.904 4.6726,-1.9523 0.53762,-0.5748 0.83709,-1.1266 1.28932,-2.3759 0.15501,-0.4282 0.3952,-1.0286 0.53377,-1.3342 0.1606,-0.3542 0.22088,-0.5749 0.16627,-0.6086 -0.0471,-0.029 -0.31092,-0.017 -0.58622,0.028 -0.3574,0.058 -0.5757,0.053 -0.76335,-0.014 -0.14455,-0.052 -0.34115,-0.095 -0.43691,-0.095 -0.24527,0 -0.29788,-0.1322 -0.12244,-0.3077 0.096,-0.096 0.48647,-0.2159 1.09103,-0.3352 1.12527,-0.222 1.70381,-0.4771 2.2554,-0.9946 0.63624,-0.6541 1.53185,-0.9262 2.34316,-1.3037 0.23113,-0.053 0.53805,-0.097 0.68207,-0.097 0.24153,0 0.2737,-0.033 0.41408,-0.4286 0.18912,-0.5325 0.65332,-1.0324 0.82574,-0.8893 0.0986,0.082 0.0798,0.1735 -0.12412,0.6045 -0.1322,0.2795 -0.24039,0.6313 -0.24043,0.7819 l -6e-5,0.2739 0.42113,-0.3353 c 0.54673,-0.4353 0.99348,-0.5773 1.29091,-0.4104 0.41438,0.2326 0.44232,0.9213 0.0555,1.3678 -0.28359,0.3273 -0.41139,0.1721 -0.27576,-0.335 0.1303,-0.4871 0.0348,-0.6214 -0.33348,-0.4689 -0.3478,0.1441 -0.94019,0.7987 -1.67531,1.8512 -0.34697,0.4968 -0.71212,1.0102 -0.81144,1.1409 -0.17398,0.229 -0.15231,0.2231 0.59295,-0.1618 1.3786,-0.712 2.42675,-1.6148 3.12989,-2.6957 0.39111,-0.6013 0.39805,-0.816 0.063,-1.9474 -0.28464,-0.961 -0.51487,-1.4255 -0.81506,-1.6444 -0.55785,-0.4067 -2.44847,-0.3781 -4.17745,0.063 -1.63741,0.4178 -2.45728,0.503 -3.28103,0.3407 -0.85918,-0.1692 -1.41072,-0.428 -2.04292,-0.9582 -0.46838,-0.3929 -0.52436,-0.4758 -0.68781,-1.0187 -0.27988,-0.9298 -0.41117,-1.1966 -0.72403,-1.4713 -0.32568,-0.2859 -1.55262,-0.8816 -1.83652,-0.8917 -0.10082,0 -0.13844,-0.025 -0.0836,-0.047 0.0556,-0.023 -0.12456,-0.2101 -0.40784,-0.4246 -0.57824,-0.4378 -1.05896,-1.0323 -1.21359,-1.5008 -0.0582,-0.1762 -0.13927,-0.3204 -0.18025,-0.3204 -0.041,0 -0.0542,0.065 -0.0293,0.1437 0.10338,0.3286 0.21213,1.0536 0.21109,1.4072 -0.002,0.5736 -0.0723,0.7612 -0.27569,0.7321 -0.14538,-0.021 -0.18994,-0.1174 -0.27667,-0.5997 -0.0569,-0.3161 -0.1829,-0.8434 -0.28009,-1.1717 -0.22193,-0.7498 -0.16874,-0.8857 0.47434,-1.2115 0.74737,-0.3787 1.43007,-0.3808 2.87488,-0.01 1.21083,0.3116 3.06362,0.6574 4.01246,0.7489 0.31615,0.031 0.6487,0.073 0.73904,0.095 0.0903,0.022 -0.10155,-0.1105 -0.42637,-0.2942 -0.64468,-0.3646 -0.74718,-0.4657 -0.61043,-0.6025 0.0657,-0.066 0.21946,-0.05 0.56356,0.057 0.60434,0.1881 2.21052,0.9468 2.69087,1.271 0.20294,0.137 0.36867,0.2225 0.3683,0.1902 0,-0.032 -0.24032,-0.3823 -0.5332,-0.7776 -0.53066,-0.7163 -0.53585,-0.7204 -1.45687,-1.1661 -0.90039,-0.4357 -1.94646,-0.7838 -2.35524,-0.7838 -0.17423,0 -0.14871,0.034 0.18311,0.2445 0.67066,0.4253 0.40749,0.6684 -0.35109,0.3243 -0.61568,-0.2792 -0.91873,-0.5523 -0.88977,-0.8018 0.0581,-0.5004 0.89604,-0.5094 2.34357,-0.025 0.37337,0.1249 0.67883,0.2186 0.67883,0.2083 0,-0.01 -0.2254,-0.1692 -0.50091,-0.3531 -0.86041,-0.5746 -1.30513,-0.6659 -3.6048,-0.7403 -1.10651,-0.036 -2.04455,-0.036 -2.08455,10e-5 -0.04,0.036 -0.12069,0.017 -0.17932,-0.042 -0.0586,-0.059 -0.30304,-0.1323 -0.54313,-0.1638 -0.24009,-0.031 -0.92142,-0.2412 -1.54012,-0.3966 -0.837,-0.159 -1.34184,-0.2778 -1.65358,-0.2958 -0.26221,-0.015 -0.41378,0.1628 -0.66495,0.3553 -0.19675,0.1337 -0.34745,0.3304 -0.4412,0.5759 -0.17571,0.4601 -0.14246,0.8458 0.24422,2.8333 0.15383,0.7908 0.30386,1.6595 0.33334,1.9305 l 0.0536,0.4926 0.77044,0.4008 c 0.75097,0.3906 2.0831,1.3355 3.15969,2.2412 0.98967,0.8326 2.55168,2.4428 3.30663,3.4087 0.41249,0.5277 0.7795,0.9412 0.81559,0.9189 0.45392,0.9797 -0.04,-0.01 0.54553,0.9966 0.21109,0.3461 0.4477,1.0899 0.39249,1.2337 -0.0687,0.1789 -0.28443,0.1459 -0.55956,-0.086 -0.13454,-0.1132 -0.27267,-0.1885 -0.30692,-0.1673 -1.66445,-1.1203 0.0398,0.014 -1.66677,-1.1287 l -1.58268,-1.0286 -0.41915,0.043 c -0.58789,0.06 -1.16828,-0.1292 -2.50887,-0.818 l -1.13544,-0.5835 c -0.30972,-0.2015 0.50701,0.2516 -0.34284,-0.2165 -0.37768,-0.2352 -1.36176,-0.71 -1.76958,-0.8539 l -0.33724,-0.119 -0.34409,0.4906 c -0.3797,0.5413 -0.5426,0.5806 -0.51503,0.1243 0.01,-0.1644 0,-0.299 -0.0233,-0.299 -0.0227,0 -0.21934,0.09 -0.43689,0.2005 l -0.39557,0.2004 0.0542,0.3568 c 0.0298,0.1963 0.0805,0.3995 0.11269,0.4516 0.18413,0.6335 -0.0591,-0.2814 0.12509,0.4767 0.0216,0.2507 0.002,0.2949 -0.12122,0.2712 -0.25438,-0.049 -0.63816,-0.687 -0.64722,-1.076 -0.004,-0.1911 -0.0403,-0.4185 -0.0797,-0.5054 -0.0565,-0.1244 -0.0169,-0.2036 0.18669,-0.3736 0.37999,-0.3172 1.24284,-0.8134 1.60433,-0.9226 0.55753,-0.1685 0.66564,-0.1241 4.51316,1.8537 0.75868,0.3899 1.44228,0.7065 1.51912,0.7035 0.10702,0 0.0965,-0.027 -0.045,-0.095 -0.10163,-0.049 -0.18476,-0.1405 -0.18476,-0.2033 0,-0.063 -0.15904,-0.288 -0.35342,-0.5006 -1.02005,-1.1156 -1.35916,-1.8552 -0.99086,-2.1608 0.1798,-0.1492 0.67345,-0.1272 1.00629,0.045 0.14913,0.077 0.2827,0.1283 0.29684,0.1137 0.0419,-0.043 -1.5898,-1.3176 -2.28736,-1.7861 -0.35482,-0.2384 -0.89062,-0.5497 -1.19065,-0.6919 -0.50924,-0.2412 -0.60285,-0.2579 -1.40772,-0.2507 -0.96866,0.01 -2.05677,0.2579 -3.00615,0.6884 -1.37292,0.6225 -2.60685,2.5991 -2.37938,3.8116 0.12825,0.6837 1.46805,1.9934 2.92181,2.8563 0.47437,0.2815 0.97334,0.6234 1.10884,0.7598 0.24038,0.2419 0.26323,0.2473 0.94431,0.2241 3.53089,0.1968 5.90901,0.4923 9.16314,1.8727 0.59349,0.2691 0.72268,0.4506 0.46772,0.6571 -0.13478,0.1091 -0.51656,0.1559 -1.92286,0.2358 -3.25136,0.1846 -4.25115,0.2974 -4.83994,0.546 -0.97966,0.4138 -1.29898,0.4807 -2.29325,0.4809 -1.02134,2e-4 -1.42599,-0.098 -1.38051,-0.3367 0.0234,-0.1228 0.16294,-0.151 0.97081,-0.196 1.0749,-0.06 1.60126,-0.1633 2.32247,-0.4564 0.36165,-0.1469 0.76389,-0.2261 1.41099,-0.2778 0.49782,-0.04 1.18227,-0.1271 1.52099,-0.1942 0.33871,-0.067 1.01652,-0.1476 1.50624,-0.1789 0.48972,-0.031 0.84075,-0.083 0.78008,-0.1159 -0.39178,-0.2101 -4.43464,-0.9864 -5.16616,-0.992 -0.8152,-0.01 -2.53972,0.4992 -2.53972,0.7444 0,0.087 0.74302,0.3773 1.17259,0.4579 0.36338,0.068 0.59691,0.2281 0.51845,0.355 -0.0824,0.1334 -0.61383,0.1174 -1.30149,-0.039 -0.64101,-0.1458 -1.04648,-0.4457 -1.04648,-0.7742 0,-0.2695 0.48522,-0.6774 1.02344,-0.8603 l 0.47457,-0.1613 -0.37734,-0.063 c -0.52443,-0.088 -1.37184,0.1036 -2.22259,0.5023 -0.5222,0.3061 -0.0892,0.01 -0.80635,0.4283 -0.81625,0.4776 -0.12613,0.056 -0.87944,0.4962 -0.66695,0.6332 -1.02635,0.9442 -0.66291,1.6875 0.45635,0.7957 0.46168,0.7973 2.95419,0.8813 1.5481,0.052 2.24122,0.047 2.41218,-0.017 0.27751,-0.1048 0.64745,0.04 0.7916,0.309 0.12125,0.2265 0.10421,0.5769 -0.0305,0.6286 -0.0633,0.024 -0.13373,0.1155 -0.15655,0.2027 -0.0525,0.2008 0.15734,0.2131 0.36887,0.022 0.36698,-0.3321 1.02054,-0.01 1.22427,0.6118 0.1498,0.4539 -0.0552,0.4965 -0.46288,0.096 -0.19763,-0.194 -0.36391,-0.297 -0.41061,-0.2545 -0.10511,0.096 -1.65904,0.4447 -1.74456,0.3918 -0.1094,-0.068 -1.84738,0.4272 -2.06197,0.5871 -0.10839,0.081 -0.25621,0.2361 -0.32846,0.3452 -0.35724,1.294 -0.28472,1.2282 0.16882,2.4614 0.18519,0.1747 0.74516,0.502 0.78822,0.4607 0.0115,-0.011 -0.0376,-0.1372 -0.109,-0.2804 l -4e-5,0 z"
id="path3118"
style="fill:#4d4e53;fill-opacity:1"
/>
<path
d="m 28.634,66.8221000000001 c 0.9074,-0.4539 4.56962,-1.9164 5.84569,-2.3346 0.57856,-0.1895 1.06069,-0.3498 1.0714,-0.3561 0.0252,-0.015 -0.80172,-2.2874 -0.84981,-2.3355 -0.02,-0.02 -0.24788,0.068 -0.50632,0.1965 -1.39599,0.6923 -3.1832,1.1552 -3.5172,0.911 -0.18774,-0.1373 -0.0988,-0.3385 0.18069,-0.4086 0.36334,-0.091 1.3419,-0.7649 1.79318,-1.2346 0.42718,-0.4447 1.06209,-1.4686 1.15947,-1.87 0.0728,-0.2999 -0.0967,-0.3599 -0.66004,-0.2339 -0.93377,0.209 -1.59072,0.6706 -2.43297,1.7094 -0.75749,0.9343 -0.93829,1.2684 -1.41434,2.6138 -0.54664,1.5448 -0.95159,2.3178 -1.54854,2.956 -0.46451,0.4965 -0.64032,0.8008 -0.64032,1.1082 0,0.1408 0.0466,0.1281 0.43109,-0.1176 0.23711,-0.1515 0.72672,-0.4233 1.08802,-0.604 z"
id="path3084"
style="fill:#4d4e53;fill-opacity:1"
/>
<path
d="m 85.06784,66.3931 c 0.39005,-0.1701 0.92319,-0.6422 0.92319,-0.8173 0,-0.1716 -0.28109,-0.2595 -1.02017,-0.319 -0.76622,-0.062 -0.81718,-0.055 -1.34565,0.1729 -0.57862,0.2496 -1.88296,0.6557 -2.43789,0.759 l -0.32844,0.061 0.53374,0.1146 c 1.01246,0.2174 1.44003,0.2611 2.34026,0.2391 0.72862,-0.018 0.98673,-0.058 1.33496,-0.2105 z"
style="fill:#4d4e53;fill-opacity:1"
id="path3080"
/>
<path
id="path3078"
style="fill:#4d4e53;fill-opacity:1"
d="m 17.26067,66.1396999999999 c 0.45405,-0.1176 0.98584,-0.3822 0.98584,-0.4907 0,-0.044 -0.23478,-0.08 -0.5217,-0.08 -0.28693,0 -0.75806,-0.024 -1.04696,-0.053 l -0.52527,-0.053 0.22582,0.2131 c 0.13444,0.1269 0.22582,0.3 0.22582,0.4278 0,0.1657 0.0328,0.2053 0.14369,0.1731 0.079,-0.023 0.30978,-0.085 0.51276,-0.1373 z"
/>
<path
style="fill:#4d4e53;fill-opacity:1"
id="path3076"
d="m 86.66477,65.8135 c 0.0948,-0.3105 0.3223,-0.5077 0.36695,-0.6973 0.17842,-0.7579 -0.15648,-0.7929 -0.30095,-1.6406 -0.26565,-0.3201 -0.79293,-0.431 -2.32888,-0.4897 -0.99421,-0.7807 -0.75102,-0.6533 -0.77679,-0.6865 -0.21667,-0.2166 -0.23075,-0.5097 -0.0359,-0.7471 0.11736,-0.1429 0.25659,-0.1815 0.75956,-0.2102 0.90646,-0.052 3.43537,-0.5085 3.67121,-0.663 0.28896,-0.1893 0.63222,-0.9676 0.55245,-1.2526 -0.77112,-0.7218 0.0206,-0.063 -0.85842,-0.7073 -0.55238,-0.2563 -1.58299,-0.7093 -3.3242,-0.7655 l -0.41057,0.086 0.4393,0.1005 c 0.573,0.1311 0.86746,0.353 0.89994,0.6783 0.0216,0.2165 -0.0212,0.2849 -0.2874,0.4594 -0.55508,0.3639 -1.58558,0.5679 -1.58558,0.3138 0,-0.038 0.27557,-0.1909 0.61241,-0.3389 0.33682,-0.1481 0.65062,-0.3152 0.69733,-0.3715 0.13017,-0.1569 -0.21763,-0.278 -1.11419,-0.3882 -0.62741,-0.077 -0.86715,-0.075 -1.20767,0.012 -0.57604,0.1467 -2.93596,0.9372 -3.54523,1.1877 l -0.4927,0.2025 1.97076,-0.028 c 1.53851,-0.022 2.09577,0 2.54082,0.096 0.41228,0.09 0.87254,0.1141 1.66281,0.087 1.00879,-0.034 1.09275,-0.026 1.09275,0.1098 0,0.1883 -0.64137,0.3917 -1.43701,0.4556 -0.44357,0.036 -0.74126,0 -1.30401,-0.14 -0.6402,-0.1635 -0.8507,-0.1799 -1.72441,-0.1341 -1.79773,0.094 -3.45566,0.2092 -3.79058,0.2627 -0.25961,0.042 -0.37197,0.018 -0.53164,-0.1113 -0.20123,-0.163 -0.2015,-0.165 -0.0431,-0.3401 0.18219,-0.2013 2.03854,-1.1189 2.83635,-1.402 0.29355,-0.1042 0.54858,-0.2011 0.56672,-0.2155 l 0.42537,-0.1676 0.42774,-0.125 c 0.23527,-0.069 1.01898,-0.3003 1.74157,-0.5146 0.72262,-0.2144 1.56233,-0.4089 1.86605,-0.4323 0.44934,-0.035 0.56145,-0.072 0.6019,-0.1992 0.0274,-0.086 0.37535,-0.4135 0.77331,-0.7275 1.16457,-0.9186 1.9929,-1.9188 2.22178,-2.6828 0.13619,-0.4545 -0.055,-0.9876 -0.62083,-1.731 -0.87074,-1.144 -1.9546,-1.5731 -3.98,-1.5754 -0.82581,0 -1.24453,0.1603 -2.01417,0.7759 -0.59182,0.4734 -1.62864,1.473 -1.8625,1.7956 l -0.1694,0.2337 0.25351,-0.131 c 0.38632,-0.1998 0.73931,-0.1718 0.84825,0.067 0.12823,0.2814 -0.0637,0.7951 -0.60872,1.6293 -0.24324,0.3722 -0.47083,0.7255 -0.50577,0.785 -0.13714,0.2337 0.78977,-0.3379 1.9255,-1.1873 0.65579,-0.4904 1.46393,-1.053 1.79592,-1.2502 0.72195,-0.4289 0.97519,-0.4304 1.88414,-0.011 0.65614,0.3024 0.9155,0.5272 0.77294,0.6698 -0.0611,0.061 -0.0653,0.1572 -0.0129,0.295 0.0605,0.1591 0.0318,0.3049 -0.12923,0.6565 -0.17851,0.39 -0.22438,0.4376 -0.3338,0.3468 -0.0698,-0.058 -0.10429,-0.164 -0.0766,-0.2358 0.0276,-0.072 0.0657,-0.3398 0.0845,-0.5955 l 0.0343,-0.4649 -0.38282,-0.1304 c -0.21051,-0.072 -0.39376,-0.1304 -0.40718,-0.1304 -0.0133,0 0.0129,0.098 0.0587,0.2186 0.0582,0.153 0.0559,0.2455 -0.008,0.3079 -0.0656,0.065 -0.17559,-0.01 -0.3983,-0.2701 -0.25705,-0.3002 -0.33921,-0.3493 -0.4997,-0.2984 -0.33898,0.1076 -0.93418,0.4943 -2.00554,1.3031 -1.37055,1.0346 -1.99273,1.38 -2.59679,1.4417 -0.46878,0.048 -0.47617,0.053 -1.94269,1.3263 -0.80966,0.703 -1.51647,1.2634 -1.57068,1.2454 -0.14789,-0.049 -0.11914,-0.456 0.0725,-1.0248 l 0.17105,-0.5077 -0.34765,-0.7665 c -0.24876,-0.5486 -0.32243,-0.7918 -0.25901,-0.8552 0.1215,-0.1215 0.45574,0.2484 0.64889,0.7181 0.0822,0.1999 0.17311,0.3636 0.20207,0.3637 0.0289,2e-4 0.27507,-0.381 0.54695,-0.8471 0.27188,-0.4661 0.82324,-1.2882 1.22527,-1.827 0.85617,-1.1475 2.78588,-3.1243 3.56283,-3.6499 l 0.54293,-0.3672 0.0585,-2.066 c 0.0641,-2.2626 0.0482,-2.3671 -0.41478,-2.7313 -0.32909,-0.2588 -0.45778,-0.2279 -0.30723,0.074 0.21696,0.4349 -0.0173,0.5611 -0.30126,0.1623 -0.14265,-0.2003 -0.15788,-0.2728 -0.0776,-0.3695 0.0816,-0.098 0.0718,-0.1199 -0.0539,-0.1185 -0.1494,0 -0.31023,0.057 -2.04238,0.6976 -0.96204,0.356 -1.4388,0.4668 -3.17369,0.7373 -1.45674,0.2272 -1.97692,0.4194 -2.53328,0.9359 l -0.36951,0.3431 0.4927,-0.2401 c 0.57878,-0.2819 1.291,-0.5048 1.61326,-0.5048 0.28886,0 0.44624,0.2502 0.31347,0.4983 -0.10882,0.2033 -1.05471,0.8313 -1.15697,0.7681 -0.12829,-0.079 -0.0767,-0.1967 0.19511,-0.444 0.14678,-0.1335 0.21865,-0.2439 0.15973,-0.2452 -0.22808,-0.01 -1.31757,0.5199 -1.90466,0.9178 -0.68304,0.4629 -0.7245,0.5095 -1.18626,1.3341 l -0.32405,0.5786 0.28299,-0.2254 c 0.50451,-0.402 1.60305,-1.1141 2.07748,-1.3468 0.34118,-0.1674 0.48689,-0.2029 0.5546,-0.1351 0.127,0.127 0.0457,0.2293 -0.44483,0.5596 -0.23319,0.157 -0.40309,0.2855 -0.3775,0.2855 0.36325,0 3.92779,-1.1802 4.59087,-1.5201 0.3709,-0.1901 1.09161,-0.2327 1.57187,-0.093 0.24192,0.07 0.51069,0.1798 0.59728,0.2432 0.17748,0.1298 0.17898,0.2273 0.023,1.4932 -0.0769,0.6242 -0.13032,0.8212 -0.22257,0.8212 -0.19275,0 -0.34057,-0.5933 -0.31207,-1.2525 0.0272,-0.6279 -0.043,-0.7983 -0.12373,-0.3006 -0.10454,0.6442 -0.7407,1.3792 -1.85754,2.146 -0.38009,0.261 -0.7617,0.571 -0.84802,0.6888 -0.0865,0.1182 -0.21044,0.5233 -0.27621,0.9033 -0.1305,0.7539 -0.33711,1.133 -0.86252,1.5828 -0.905,0.7746 -2.1554,1.0238 -3.9303,0.783 -1.26048,-0.1709 -2.79813,-0.043 -3.43498,0.2868 -0.3194,0.1652 -0.55063,0.7673 -0.67897,1.768 -0.11306,0.8816 -0.0694,1.0306 0.46246,1.5778 0.84581,0.8702 1.82885,1.4612 3.07013,1.8458 l 0.36294,0.1125 -0.32236,-0.3082 c -0.17729,-0.1696 -0.57326,-0.5923 -0.87991,-0.9394 -0.60918,-0.6896 -1.20436,-1.1343 -1.51802,-1.1343 -0.21315,0 -0.21155,-0.023 -0.045,0.6364 0.073,0.2889 -0.19227,0.2322 -0.38391,-0.082 -0.54362,-0.8916 0.28463,-1.3753 1.22273,-0.7141 l 0.36144,0.2548 0.40859,-0.4645 c 0.43189,-0.071 0.41047,-0.049 1.51199,0.027 0.63071,0.331 0.67062,0.3733 0.87948,0.4792 0.14088,0.072 0.42243,0.2476 0.62566,0.3914 0.47076,0.3331 0.90096,0.45 1.95382,0.5309 0.80914,0.062 1.12919,0.1707 0.95714,0.3246 -0.18634,0.1666 -0.81454,0.3408 -1.22928,0.3408 -0.24748,0 -0.44996,0.021 -0.44996,0.047 0,0.026 0.0868,0.1642 0.19281,0.308 0.10605,0.1437 0.37072,0.5939 0.58812,1.0004 0.81708,1.5275 1.29542,2.0731 2.22324,2.5359 0.74622,0.3721 1.04269,0.436 2.53855,0.5468 1.55429,0.1151 1.5396,0.1118 1.8381,0.4103 0.38682,0.3868 0.68152,0.4572 1.18732,0.2834 0.35599,-0.1223 0.44955,-0.1991 0.58762,-0.4829 0.17948,-0.3687 0.39542,-0.4442 0.43682,-0.1526 0.0319,0.2243 0.0264,0.224 0.42539,0.02 0.38657,-0.1972 0.38055,-0.1967 0.44207,-0.036 0.0296,0.077 -0.0322,0.2031 -0.15563,0.3175 l -0.20467,0.1897 0.55445,-0.035 c 0.91762,-0.058 1.42538,0.3512 1.19432,0.9634 -0.11576,0.3067 -0.0551,0.3059 0.32127,0 l 0,0 z"
/>
<path
style="fill:#4d4e53;fill-opacity:1"
id="path3046"
d="m 56.30582,65.3230000000001 c 1.24069,-0.4281 2.52141,-1.4817 2.79183,-2.2968 0.13486,-0.4066 0.14188,-0.6028 0.0748,-2.094 -0.0407,-0.9049 -0.0633,-2.2735 -0.0502,-3.0413 0.0131,-0.7678 0.0283,-2.0057 0.0337,-2.7509 0.005,-0.7451 0.0359,-1.4472 0.0677,-1.5601 l 0.0578,-0.2053 0.081,0.2023 c 0.0686,0.1713 0.10827,0.058 0.25861,-0.739 0.24713,-1.31 0.48403,-2.967 0.54728,-3.8282 l 0.0533,-0.7262 -0.58945,1.1906 c -0.32422,0.6549 -0.61774,1.367 -0.65231,1.5824 -0.0345,0.2155 -0.0851,0.414 -0.11233,0.4413 -0.10298,0.1029 -0.28141,-0.048 -0.32714,-0.2765 -0.0785,-0.3924 0.0788,-0.8704 0.6351,-1.9306 0.75041,-1.4299 0.98271,-2.1626 0.91581,-2.8887 -0.13442,-1.4591 -0.76539,-3.2788 -1.93858,-5.591 -1.17148,-2.3087 -1.15365,-2.2819 -1.70031,-2.5579 -0.43332,-0.2188 -0.64558,-0.4157 -2.12646,-1.9724 -0.40251,-0.4231 -0.61781,-0.4482 -0.93458,-0.1091 -0.28041,0.3002 -0.41058,0.3132 -0.41058,0.041 0,-0.146 -0.0445,-0.2052 -0.15396,-0.2052 -0.0847,0 -0.26098,-0.022 -0.3918,-0.048 -0.21227,-0.043 -0.25805,-0.012 -0.42609,0.2874 -0.18544,0.3299 -0.42409,0.4504 -0.42409,0.214 0,-0.067 0.0798,-0.2852 0.17727,-0.4859 l 0.17728,-0.3649 -0.21436,-0.2547 c -0.1179,-0.1401 -0.33303,-0.4774 -0.47806,-0.7495 -0.26577,-0.4986 -0.84689,-1.2265 -0.97922,-1.2265 -0.10328,0 -0.16224,0.4196 -0.19034,1.3549 -0.0283,0.9411 -0.17894,1.3768 -0.66006,1.9094 -0.98706,1.0925 -2.85962,0.868 -3.66793,-0.4399 l -0.1758,-0.2845 -0.22688,0.3518 c -0.48884,0.758 -0.99854,1.0498 -1.83364,1.0498 -0.39441,0 -0.62147,-0.05 -0.92642,-0.2049 -0.48153,-0.2443 -0.44484,-0.2393 -0.44582,-0.062 -0.002,0.2255 -0.36357,0.9471 -0.63147,1.2576 -0.32107,0.3722 -0.39207,0.5695 -0.20497,0.5695 0.20734,0 1.43224,0.4818 1.57033,0.6176 0.21838,0.2149 -0.14309,0.2407 -0.72885,0.052 -0.79735,-0.2568 -1.22859,-0.2384 -1.51918,0.065 l -0.23182,0.242 0.23699,0.054 c 0.91164,0.2065 1.21538,0.3605 1.04733,0.5311 -0.07,0.071 -0.3034,0.063 -0.94433,-0.033 l -0.85139,-0.1271 -0.36951,0.3679 -0.36951,0.3679 0,0.5942 c 0,0.5308 0.0388,0.6773 0.36263,1.3705 0.42193,0.9031 0.49601,1.3817 0.30451,1.9672 -0.0734,0.2243 -0.1334,0.4768 -0.1334,0.5611 0,0.2635 -0.44751,0.8738 -0.9811,1.3379 -0.57722,0.5021 -0.76825,0.7941 -0.65358,0.999 0.0414,0.074 0.37082,0.3416 0.73195,0.5947 0.36114,0.2531 0.74854,0.599 0.86092,0.7688 0.27425,0.4145 0.3434,0.9564 0.17381,1.3623 l -0.13171,0.3152 0.56847,1.0373 c 0.31266,0.5705 1.06861,2.0535 1.6799,3.2955 1.30244,2.6462 1.57893,3.0892 2.51326,4.0267 1.18192,1.1859 3.57285,3.027 3.99054,3.0729 0.10884,0.012 0.38045,0.1925 0.60356,0.4012 0.6417,0.6002 2.98279,2.0477 3.95223,2.4436 1.07371,0.4385 2.32997,0.4977 3.31916,0.1564 z"
/>
<path
d="m 50.10768,62.8598 c -0.20809,-0.2922 -0.69618,-1.3447 -0.77162,-1.6638 -0.0368,-0.1558 -0.0211,-0.2257 0.0508,-0.2255 0.10321,0 1.05008,1.8344 1.04906,2.032 0,0.1761 -0.14623,0.113 -0.32828,-0.1427 z"
id="path3044"
style="fill:#c0c0c0;fill-opacity:1"
/>
<path
d="m 55.1980600000001,62.8226 c 0,-0.031 0.0382,-0.1282 0.085,-0.2155 0.0774,-0.1447 0.0559,-0.1589 -0.24151,-0.1589 -0.4687,0 -0.4813,-0.1277 -0.0288,-0.292 0.21484,-0.078 0.77727,-0.3024 1.24986,-0.4985 0.93785,-0.3893 1.15986,-0.3729 0.75037,0.056 -0.19478,0.2038 -0.23338,0.2922 -0.16407,0.3757 0.0719,0.087 -0.0427,0.1702 -0.5543,0.404 -0.65576,0.2996 -1.09657,0.4321 -1.09657,0.3296 z"
id="path3042"
style="fill:#c0c0c0;fill-opacity:1"
/>
<path
style="fill:#c0c0c0;fill-opacity:1"
id="path3040"
d="m 52.91776,61.1713 c -0.62243,-0.1675 -0.83226,-0.2952 -1.29632,-0.7885 -0.8506,-0.9043 -1.99875,-2.7518 -2.20694,-3.5513 -0.0694,-0.2665 -0.14373,-0.5022 -0.16521,-0.5236 -0.1783,-0.1783 1.41667,-1.7698 2.43291,-2.4276 1.17296,-0.7592 2.10592,-1.0376 3.4822,-1.0388 0.8272,0 1.88735,0.2556 2.15225,0.5204 0.17867,0.1787 0.18426,0.2174 0.10325,0.7167 -0.0471,0.2902 -0.0859,0.9002 -0.0862,1.3554 0,0.8163 0.005,0.8381 0.37034,1.5799 0.49454,1.0026 0.53885,1.351 0.24763,1.9462 -0.31404,0.6419 -1.19085,1.5079 -1.85326,1.8303 -1.02501,0.4989 -2.21364,0.6413 -3.18062,0.3809 z"
/>
<path
id="path3038"
style="fill:#4d4e53;fill-opacity:1"
d="m 55.16294,60.5508 c 0.27421,-0.084 0.72689,-0.3005 1.0059,-0.4809 0.43757,-0.2828 0.50728,-0.362 0.50728,-0.5762 l 0,-0.2484 -0.28299,0.3133 c -0.38186,0.4226 -0.98614,0.7371 -1.70433,0.8868 -0.66182,0.138 -0.68068,0.1467 -0.5997,0.2778 0.0637,0.103 0.29947,0.065 1.07384,-0.1724 z"
/>
<path
style="fill:#4d4e53;fill-opacity:1"
id="path3036"
d="m 53.27594,59.9680000000001 c -0.2403,-0.4157 -0.47572,-0.7688 -0.52316,-0.7846 -0.10454,-0.035 -0.22348,0.9531 -0.14465,1.2015 0.0586,0.1845 0.4003,0.3191 0.84142,0.3315 l 0.26327,0.01 -0.43688,-0.7558 0,0 z"
/>
<path
d="m 52.3574,59.1020000000001 c 0.0706,-0.218 0.31434,-0.3679 0.48907,-0.3008 0.11144,0.043 0.43532,0.485 0.82946,1.1326 0.1374,0.2258 0.16469,0.2345 0.60718,0.193 0.67809,-0.064 1.36805,-0.3532 1.77818,-0.7461 0.44643,-0.4278 0.5046,-0.6564 0.33688,-1.3241 -0.22392,-0.8914 -0.18133,-1.1625 0.17532,-1.1162 0.0615,0.01 0.10263,-0.082 0.10263,-0.2245 0,-0.1309 0.0204,-0.4743 0.0451,-0.7632 l 0.0451,-0.5253 -0.17805,0.3285 c -0.23905,0.441 -0.40174,0.6159 -0.57301,0.6159 -0.17096,0 -0.24017,-0.156 -0.24888,-0.561 l -0.006,-0.3012 -0.11981,0.3378 c -0.16222,0.4574 -0.60285,0.9536 -1.00986,1.1371 -0.38011,0.1714 -0.37853,0.1673 -0.21442,0.5601 0.17692,0.4234 0.28344,0.9562 0.20134,1.007 -0.0391,0.024 -0.24065,-0.2939 -0.44799,-0.7067 -0.35403,-0.7049 -0.38578,-0.7426 -0.52216,-0.6192 -0.18836,0.1705 -0.27186,0.1657 -0.52034,-0.03 l -0.20493,-0.1611 0.009,0.3048 c 0.009,0.3037 0.008,0.3048 -0.29871,0.278 -0.24632,-0.022 -0.29836,0 -0.26055,0.096 0.026,0.068 0.004,0.2042 -0.0491,0.3033 -0.0793,0.1481 -0.14602,0.172 -0.37582,0.1347 -0.22802,-0.037 -0.27946,-0.019 -0.27946,0.097 0,0.079 -0.0454,0.1881 -0.10096,0.2436 -0.0799,0.08 -0.0545,0.1391 0.12158,0.2833 0.18297,0.1499 0.47208,0.6623 0.47208,0.8367 0,0.1439 -0.23286,0 -0.38912,-0.2422 -0.10108,-0.1561 -0.30352,-0.3457 -0.44984,-0.4213 l -0.26605,-0.1376 0.23892,0.3197 c 0.1314,0.1759 0.38926,0.5024 0.57302,0.7257 l 0.33411,0.406 0.0483,-0.4881 c 0.0266,-0.2684 0.0753,-0.5712 0.10821,-0.6729 l 0,0 z"
style="fill:#4d4e53;fill-opacity:1"
id="path3034"
/>
<path
d="m 57.49726,58.5672999999999 c 0,-0.083 -0.0524,-0.2506 -0.1164,-0.3726 -0.14129,-0.2691 -0.81525,-0.9287 -0.77199,-0.7554 0.0169,0.068 0.12123,0.506 0.23179,0.9739 l 0.20105,0.8507 0.22777,-0.2728 c 0.1253,-0.1501 0.22778,-0.3408 0.22778,-0.4238 z"
style="fill:#4d4e53;fill-opacity:1"
id="path3032"
/>
<path
id="path3030"
style="fill:#4d4e53;fill-opacity:1"
d="m 51.33867,58.1442 c 0,-0.064 -0.15038,-0.4 -0.3342,-0.747 -0.18381,-0.3469 -0.31309,-0.6519 -0.2873,-0.6776 0.0258,-0.026 0.32005,0.2179 0.65391,0.5416 0.33387,0.3238 0.62779,0.5886 0.65319,0.5886 0.078,0 -0.18615,-0.6727 -0.4426,-1.1271 -0.13365,-0.2368 -0.243,-0.4681 -0.243,-0.5139 0,-0.197 0.2345,-0.055 0.51405,0.3119 0.16582,0.2174 0.38115,0.4669 0.47855,0.5543 l 0.17709,0.159 -0.0611,-0.3695 c -0.07,-0.423 -0.42386,-1.4298 -0.59889,-1.7039 -0.23219,-0.3637 -0.56188,-0.1861 -0.6488,0.3495 -0.0452,0.2784 -0.0671,0.299 -0.27484,0.2574 -0.24474,-0.049 -0.32161,0.08 -0.3239,0.5427 0,0.1827 -0.0384,0.2258 -0.19636,0.2258 -0.58212,0 -0.44964,0.6813 0.25448,1.3089 0.47112,0.4199 0.67977,0.5118 0.67977,0.2993 z"
/>
<path
id="path3022"
style="fill:#4d4e53;fill-opacity:1"
d="m 53.2739,55.7176999999999 c -0.16388,-0.8087 -0.16469,-0.874 -0.009,-0.7449 0.0657,0.054 0.25798,0.4563 0.42722,0.8928 0.35355,0.9118 0.4163,0.8704 0.43047,-0.2842 0.009,-0.736 0.0756,-1.1804 0.17677,-1.1804 0.0813,0 0.34909,0.7133 0.48547,1.2933 0.0557,0.2371 0.13013,0.4311 0.16532,0.4311 0.15869,0 0.57361,-1.5664 0.55465,-2.0939 -0.006,-0.1807 0.0183,-0.3931 0.0549,-0.4722 0.0528,-0.1138 0.0286,-0.1436 -0.11638,-0.1436 -0.15471,0 -0.16696,0.019 -0.0792,0.1251 0.14103,0.1699 0.0516,0.2375 -0.16263,0.1229 -0.0963,-0.052 -0.29344,-0.082 -0.43815,-0.068 -0.23055,0.022 -0.27697,0.069 -0.3754,0.3805 l -0.11234,0.355 -0.22061,-0.2113 c -0.25403,-0.2434 -0.46595,-0.2665 -0.73241,-0.08 -0.23488,0.1645 -0.31413,0.095 -0.19357,-0.1695 l 0.0924,-0.2029 -0.28255,0.1348 -0.28252,0.1347 0.2445,0.1487 c 0.13446,0.082 0.24451,0.2046 0.24451,0.2731 0,0.1486 -0.11121,0.1588 -0.3187,0.029 -0.22752,-0.142 -0.39969,-0.034 -0.59901,0.3764 l -0.17911,0.3686 0.47649,0.722 c 0.26207,0.3971 0.55503,0.8086 0.65104,0.9144 l 0.17456,0.1924 0.0261,-0.3045 c 0.0144,-0.1674 -0.0319,-0.5903 -0.10265,-0.9396 z"
/>
<path
d="m 56.61514,54.3607 c 0.1145,-0.5459 0.038,-0.728 -0.32101,-0.7643 -0.15888,-0.016 -0.29184,0.03 -0.38634,0.1347 -0.13284,0.1468 -0.13471,0.1968 -0.0242,0.6404 0.066,0.2646 0.147,0.6659 0.18013,0.8917 l 0.0602,0.4106 0.19736,-0.4266 c 0.10854,-0.2347 0.24077,-0.6336 0.29382,-0.8865 z"
style="fill:#4d4e53;fill-opacity:1"
id="path3018"
/>
<path
id="path3012"
style="fill:#c0c0c0;fill-opacity:1"
d="m 54.27342,53.4519 c -0.0108,-0.01 -0.14525,0 -0.29874,0.026 l -0.27909,0.043 0.19697,0.1079 c 0.16883,0.092 0.2115,0.089 0.29875,-0.026 0.056,-0.073 0.0929,-0.1412 0.0821,-0.1504 z"
/>
<path
d="m 58.01221,57.2254 c 0.0273,-0.027 0.0981,-0.03 0.15738,-0.01 0.0655,0.026 0.046,0.046 -0.0496,0.05 -0.0866,0 -0.13506,-0.016 -0.10777,-0.043 l 0,0 z"
style="fill:#c0c0c0;fill-opacity:1"
id="path3010"
/>
<path
d="m 46.7813200000001,57.0637999999999 c -0.10088,-0.076 -0.2434,-0.1052 -0.36951,-0.074 -0.18767,0.046 -0.19251,0.041 -0.0563,-0.061 0.143,-0.1064 0.14212,-0.1195 -0.0216,-0.3277 -0.29644,-0.3769 -0.97023,-0.8121 -1.70164,-1.0993 -0.92183,-0.3619 -1.31259,-0.5966 -1.90344,-1.1437 -0.46599,-0.4314 -0.67901,-0.7789 -0.47661,-0.7774 0.0522,0 0.39148,0.2128 0.75391,0.4721 0.73124,0.5232 1.0924,0.7178 2.03096,1.0941 0.35038,0.1405 0.7976,0.3905 0.99381,0.5555 0.41339,0.3476 1.32545,1.4085 1.2109,1.4085 -0.0426,0 -0.12671,0.018 -0.18685,0.039 -0.0601,0.021 -0.18326,-0.017 -0.27359,-0.086 z"
id="path3006"
style="fill:#c0c0c0;fill-opacity:1"
/>
<path
id="path3004"
style="fill:#c0c0c0;fill-opacity:1"
d="m 58.58178,56.9566 c 0.16063,-0.141 0.34176,-0.2564 0.40253,-0.2564 0.16115,0 -0.256,0.3817 -0.49549,0.4533 -0.1716,0.051 -0.15877,0.024 0.093,-0.1969 z"
/>
<path
d="m 46.59656,55.2499 c -0.19386,-0.078 -0.10231,-0.2729 0.19609,-0.4171 0.21336,-0.1031 0.32482,-0.2265 0.39003,-0.4318 0.12369,-0.3893 0.33001,-0.3796 0.36295,0.017 0.0331,0.3981 -0.0977,0.627 -0.43983,0.77 -0.29294,0.1224 -0.34382,0.1286 -0.50924,0.062 z"
style="fill:#c0c0c0;fill-opacity:1"
id="path3000"
/>
<path
style="fill:#c0c0c0;fill-opacity:1"
id="path2998"
d="m 48.00416,52.6294 c -0.0308,-0.1228 -0.0206,-0.5411 0.0229,-0.9297 0.0697,-0.6239 0.0606,-0.7482 -0.0778,-1.0638 -0.17753,-0.4051 -0.14394,-0.7928 0.0942,-1.0869 0.2275,-0.2809 0.33913,-0.1299 0.33913,0.4589 0,0.299 0.0396,0.5485 0.0922,0.581 0.0507,0.031 0.41099,0.05 0.80062,0.042 0.81767,-0.017 1.44374,0.096 2.01263,0.3648 0.22052,0.1042 0.46072,0.1698 0.53374,0.1458 0.073,-0.024 0.0219,0.052 -0.11354,0.168 -0.13551,0.1164 -0.34495,0.213 -0.46545,0.2146 -0.1205,0 -0.2683,0.016 -0.32847,0.031 -0.0601,0.015 -0.0816,0.012 -0.0478,-0.01 0.12036,-0.067 0.0588,-0.1678 -0.13206,-0.2158 -0.50022,-0.1255 -1.43772,-0.2149 -1.75511,-0.1673 -0.27006,0.04 -0.36084,0.094 -0.38973,0.2281 -0.28961,1.3475 -0.46476,1.7175 -0.58545,1.2366 l 0,0 z"
/>
<path
d="m 57.92106,52.2409 c -0.15034,-0.1812 -0.2818,-0.9608 -0.22807,-1.3528 0.0643,-0.4692 0.33876,-0.9213 0.55933,-0.9213 0.18031,0 0.1794,0.081 -0.009,0.7801 -0.0492,0.1828 -0.0665,0.5666 -0.0389,0.8653 0.0385,0.4182 0.0227,0.5591 -0.0717,0.6374 -0.0961,0.08 -0.1399,0.078 -0.21186,-0.01 z"
style="fill:#c0c0c0;fill-opacity:1"
id="path2996"
/>
<path
id="path2990-7"
style="fill:#c0c0c0;fill-opacity:1"
d="m 52.09254,51.4308000000001 c 0.0169,-0.1143 0.11473,-0.2066 0.27257,-0.2571 0.36169,-0.1156 0.50913,-0.2738 0.83776,-0.8992 0.32639,-0.6211 0.71035,-0.9879 1.20757,-1.1537 0.3963,-0.1321 0.47705,-0.3483 0.33657,-0.9015 -0.0749,-0.2952 -0.0756,-0.4073 -0.003,-0.4676 0.14475,-0.1202 0.42588,0.1158 0.53615,0.4499 0.0521,0.1579 0.12757,0.2872 0.16767,0.2872 0.2487,0 1.14609,1.1147 1.14609,1.4236 0,0.2407 -0.1789,0.1485 -0.72026,-0.3714 -0.4852,-0.4659 -0.53587,-0.4947 -0.61254,-0.349 -0.12221,0.2325 -0.31486,0.3643 -0.5323,0.3643 -0.2754,0 -0.88315,0.5948 -1.2532,1.2266 -0.35019,0.5978 -0.65659,0.8262 -1.10846,0.8262 -0.26221,0 -0.29759,-0.023 -0.27473,-0.1783 z"
/>
<path
d="m 42.96298,50.1895999999999 c 0,-0.2651 0.56902,-1.0428 0.96236,-1.3154 0.31267,-0.2166 0.59782,-0.2893 0.59782,-0.1522 0,0.084 -1.28719,1.5056 -1.44669,1.5979 -0.0832,0.048 -0.11349,0.013 -0.11349,-0.1303 z"
id="path2984"
style="fill:#c0c0c0;fill-opacity:1"
/>
<path
id="path2980-4"
style="fill:#c0c0c0;fill-opacity:1"
d="m 45.0984099999999,49.3304000000001 c 0,-0.183 0.0825,-0.4411 0.20271,-0.6364 0.25323,-0.4111 0.25313,-0.4223 -0.005,-0.4871 -0.28703,-0.072 -0.13663,-0.2554 0.27252,-0.3321 0.46399,-0.087 1.05757,-0.4221 1.31141,-0.7403 0.2748,-0.3444 0.51724,-0.3833 0.51724,-0.083 0,0.2567 -0.49735,0.8196 -0.91025,1.0303 -0.36522,0.1863 -0.72158,0.6005 -0.98829,1.1486 -0.23738,0.4879 -0.40082,0.5288 -0.40024,0.1 l 0,0 z"
/>
<path
d="m 42.88088,49.2635 c 0,-0.1727 0.5178,-0.6926 0.68976,-0.6926 0.20382,0 0.15619,0.1573 -0.12804,0.4228 -0.37228,0.3477 -0.56172,0.4387 -0.56172,0.2698 z"
id="path2978-2"
style="fill:#c0c0c0;fill-opacity:1"
/>
<path
style="fill:#c0c0c0;fill-opacity:1"
id="path2976"
d="m 48.85245,49.0134 c -0.0877,-0.088 0.18767,-0.3604 0.36398,-0.3604 0.0968,0 0.15151,0.059 0.15151,0.1642 0,0.09 -0.0277,0.1647 -0.0616,0.1654 -0.0339,0 -0.13642,0.021 -0.2279,0.046 -0.0915,0.025 -0.19317,0.018 -0.22598,-0.015 z"
/>
<path
id="path2974-3"
style="fill:#c0c0c0;fill-opacity:1"
d="m 49.91536,49.0088000000001 c -0.1,-0.1 -0.0566,-0.2737 0.0684,-0.2737 0.0684,0 0.12317,0.073 0.12317,0.1642 0,0.1636 -0.0875,0.2136 -0.19159,0.1095 l 0,0 z"
/>
<path
d="m 52.57217,47.6882000000001 c -0.45459,-0.5458 -0.92502,-1.5951 -0.9362,-2.0883 -0.0119,-0.5235 0.10837,-0.6251 0.2775,-0.2344 0.0678,0.1565 0.37251,0.7792 0.67722,1.3837 0.30474,0.6045 0.5335,1.1323 0.50839,1.173 -0.0919,0.1486 -0.27634,0.067 -0.52691,-0.234 z"
id="path2972-8"
style="fill:#c0c0c0;fill-opacity:1"
/>
<path
d="m 53.50703,47.5730000000001 c -0.0672,-0.1087 0.18023,-0.3159 0.37719,-0.3159 0.19699,0 0.44443,0.2072 0.37722,0.3159 -0.0322,0.052 -0.20188,0.095 -0.37722,0.095 -0.17531,0 -0.34505,-0.043 -0.37719,-0.095 z"
style="fill:#c0c0c0;fill-opacity:1"
id="path2970-9"
/>
<path
d="m 44.04184,47.3684000000001 c -0.56478,-0.1446 -0.58616,-0.1602 -0.58616,-0.4283 0,-0.3109 0.72368,-1.1071 1.26197,-1.3884 0.54709,-0.2859 1.56749,-0.3234 1.84977,-0.068 0.32594,0.295 0.22736,0.3875 -0.34999,0.3283 -0.67451,-0.069 -1.22032,0.1055 -1.72879,0.5531 -0.20681,0.1821 -0.37605,0.3592 -0.37605,0.3937 0,0.034 0.14961,0.1301 0.33243,0.2125 0.42007,0.1894 0.44842,0.2394 0.22071,0.3886 -0.15952,0.1045 -0.24394,0.1056 -0.62389,0.01 z"
id="path2968"
style="fill:#c0c0c0;fill-opacity:1"
/>
<path
d="m 45.50854,47.2582 c 0,-0.044 0.21248,-0.1883 0.47216,-0.3194 0.25969,-0.1313 0.54255,-0.3165 0.62859,-0.4118 0.16186,-0.1792 0.37732,-0.2329 0.37732,-0.094 0,0.1318 -0.50149,0.6602 -0.74714,0.7872 -0.26165,0.1353 -0.73093,0.1597 -0.73093,0.038 z"
id="path2966-1"
style="fill:#c0c0c0;fill-opacity:1"
/>
<path
d="m 56.59401,45.7075 c -0.87585,-0.4504 -1.28017,-0.541 -1.92837,-0.4321 -0.3173,0.053 -0.70608,0.073 -0.86392,0.044 -0.3862,-0.071 -0.66187,-0.252 -0.60614,-0.3972 0.0344,-0.09 0.19415,-0.114 0.67481,-0.1028 0.5672,0.013 0.68178,-0.012 1.15463,-0.2565 0.35511,-0.1835 0.55191,-0.2443 0.60828,-0.188 0.0564,0.056 0.0484,0.1255 -0.0247,0.2135 -0.13267,0.1599 -0.0597,0.2302 0.3695,0.3561 0.29128,0.085 0.77221,0.4625 1.09809,0.861 0.15875,0.1942 0.0381,0.1697 -0.48222,-0.098 z"
style="fill:#c0c0c0;fill-opacity:1"
id="path2964-1"
/>
<path
d="m 43.45568,45.5509 c 0,-0.088 0.25282,-0.447 0.4068,-0.5774 0.0698,-0.059 0.32311,-0.2014 0.56287,-0.3162 0.38022,-0.1819 0.52186,-0.2049 1.10854,-0.1797 0.74858,0.032 1.20416,0.2129 1.48479,0.5887 0.27784,0.3722 0.0723,0.4266 -0.53179,0.1409 -0.81191,-0.3842 -1.68695,-0.3086 -2.4527,0.2117 -0.28179,0.1915 -0.57851,0.2592 -0.57851,0.132 z"
id="path2962-5"
style="fill:#c0c0c0;fill-opacity:1"
/>
<path
style="fill:#c0c0c0;fill-opacity:1"
id="path2960"
d="m 42.17192,44.8357000000001 c -0.0258,-0.067 0.0528,-0.2922 0.17461,-0.5001 0.31532,-0.5381 0.83771,-0.772 1.725,-0.7725 0.7217,0 1.19903,0.101 1.39395,0.2959 0.23281,0.2328 0.0545,0.2836 -0.80481,0.2291 -1.06748,-0.068 -1.42903,0.027 -1.94169,0.506 -0.42682,0.3992 -0.47791,0.4218 -0.54706,0.2416 z"
/>
<path
d="m 57.98996,44.6251999999999 c -0.20324,-0.036 -0.56049,-0.068 -0.79389,-0.072 -0.49937,-0.01 -0.68419,-0.065 -0.68419,-0.2147 0,-0.2367 0.84494,-0.3296 1.49168,-0.1639 1.17059,0.2999 1.15976,0.6592 -0.0135,0.4504 z"
style="fill:#c0c0c0;fill-opacity:1"
id="path2958"
/>
<path
d="m 46.94965,44.5539000000001 c -0.0633,-0.1023 0.17988,-0.335 0.35076,-0.3356 0.19609,0 0.60068,-0.2843 0.72471,-0.5078 0.0579,-0.1043 0.10658,-0.3445 0.10819,-0.5338 0.003,-0.3915 0.0965,-0.4948 0.28046,-0.3109 0.38153,0.3815 0.12579,1.3187 -0.44051,1.6143 -0.30015,0.1566 -0.94375,0.203 -1.02361,0.074 z"
style="fill:#c0c0c0;fill-opacity:1"
id="path2956"
/>
<path
d="m 53.43259,44.4768999999999 c -0.13915,-0.031 -0.24634,-0.1077 -0.24634,-0.1768 0,-0.092 0.11171,-0.1254 0.45163,-0.1345 0.24841,-0.01 0.55566,-0.053 0.68279,-0.1027 0.33876,-0.1325 0.55397,-0.117 0.49534,0.036 -0.1061,0.2765 -0.88268,0.4888 -1.38342,0.3782 z"
id="path2954"
style="fill:#c0c0c0;fill-opacity:1"
/>
<path
style="fill:#c0c0c0;fill-opacity:1"
id="path2952"
d="m 57.67008,43.9675 c -0.75181,-0.074 -0.91394,-0.1514 -0.69741,-0.3311 0.30848,-0.256 1.99214,-0.01 1.89777,0.2828 -0.0397,0.121 -0.34303,0.1332 -1.20036,0.048 z"
/>
<path
d="m 52.81674,43.5578 c 0,-0.4251 0.46814,-0.9497 1.10855,-1.2421 0.68578,-0.3131 2.15079,-0.2195 2.29119,0.1464 0.056,0.146 -0.19648,0.6728 -0.41436,0.8643 -0.20207,0.1776 -0.52195,0.2734 -0.52195,0.1563 0,-0.05 0.0554,-0.223 0.12317,-0.3851 0.0678,-0.1621 0.12319,-0.3272 0.12319,-0.3669 0,-0.1238 -0.93646,-0.079 -1.35951,0.065 -0.26428,0.09 -0.53649,0.2741 -0.78939,0.5337 -0.41976,0.431 -0.56089,0.4883 -0.56089,0.228 z"
id="path2950"
style="fill:#c0c0c0;fill-opacity:1"
/>
<path
d="m 50.46429,43.5543 c -0.32423,-0.094 -0.76791,-0.5894 -0.76791,-0.8575 0,-0.2838 0.17773,-0.2546 0.51732,0.085 0.24197,0.242 0.34389,0.2869 0.6446,0.2845 0.19646,0 0.44957,-0.056 0.56249,-0.1203 0.47508,-0.2715 0.65739,-0.063 0.26686,0.3055 -0.18502,0.1745 -0.7573,0.4128 -0.92377,0.3846 -0.0226,0 -0.1574,-0.041 -0.29959,-0.082 z"
style="fill:#c0c0c0;fill-opacity:1"
id="path2948-7"
/>
<path
id="path2946-7"
style="fill:#c0c0c0;fill-opacity:1"
d="m 52.25273,43.4999 c -0.26634,-0.4976 0.46657,-1.6259 1.33928,-2.0618 0.48057,-0.24 1.25388,-0.3207 1.47491,-0.154 0.22231,0.1677 0.11119,0.2797 -0.34001,0.3425 -0.55649,0.077 -1.36655,0.4921 -1.66266,0.851 -0.13805,0.1673 -0.31943,0.4874 -0.40303,0.7113 -0.16911,0.4528 -0.28528,0.5413 -0.40849,0.311 z"
/>
<path
style="fill:#c0c0c0;fill-opacity:1"
id="path2944-8"
d="m 57.86679,43.1513 c -0.031,-0.05 0.0949,-0.082 0.32361,-0.082 0.2059,0 0.37436,0.037 0.37436,0.082 0,0.045 -0.14563,0.082 -0.32361,0.082 -0.17798,0 -0.34644,-0.037 -0.37436,-0.082 z"
/>
<path
id="path2942-6"
style="fill:#c0c0c0;fill-opacity:1"
d="m 52.59524,41.5373999999999 c -0.14247,-0.3712 0.82747,-1.47 1.56061,-1.7679 0.4408,-0.1792 0.74379,-0.1826 1.18678,-0.013 0.24346,0.093 0.34684,0.177 0.32834,0.2669 -0.0219,0.1063 -0.12329,0.1267 -0.5347,0.1076 -0.67201,-0.031 -1.03783,0.1591 -1.80529,0.9388 -0.32688,0.3322 -0.61441,0.6039 -0.63897,0.6039 -0.0246,0 -0.0681,-0.061 -0.0968,-0.1359 z"
/>
<path
d="m 46.32512,40.8891000000001 c -0.15557,-0.1152 -0.84635,-0.5617 -1.53508,-0.9922 -1.23379,-0.7712 -1.56107,-1.0941 -0.98537,-0.972 0.65728,0.1393 2.71525,1.4334 2.93623,1.8463 0.20223,0.3779 0.009,0.4326 -0.41578,0.1179 z"
id="path2940"
style="fill:#c0c0c0;fill-opacity:1"
/>
<path
d="m 49.63069,40.1787999999999 c -0.13513,-0.1352 -0.12246,-0.3918 0.0625,-1.2679 0.24049,-1.1391 0.76442,-2.4109 0.99325,-2.4109 0.13207,0 0.0839,0.4248 -0.121,1.0675 -0.10798,0.3387 -0.3128,1.0593 -0.45513,1.6013 -0.14232,0.5419 -0.28628,1.0131 -0.31991,1.0469 -0.0336,0.034 -0.1055,0.017 -0.15969,-0.037 z"
style="fill:#c0c0c0;fill-opacity:1"
id="path2938"
/>
<path
style="fill:#4d4e53;fill-opacity:1;stroke:none"
id="path2932"
d="m 26.2001,58.5682999999999 c -0.45281,-0.663 -1.76035,-1.9542 -2.67135,-2.6379 -0.67548,-0.507 -1.97786,-1.2481 -2.05599,-1.17 -0.0676,0.068 0.21024,0.5118 0.78619,1.257 0.5642,0.7301 0.99181,1.0934 1.2868,1.0934 0.0812,0 0.12323,0.024 0.0933,0.054 -0.0299,0.03 0.26882,0.2491 0.66377,0.4872 0.39496,0.238 1.03219,0.6532 1.41609,0.9226 0.38388,0.2694 0.72804,0.4936 0.76479,0.4982 0.0368,0 -0.0909,-0.2225 -0.28363,-0.5048 z"
/>
<path
id="path2928"
style="fill:#4d4e53;fill-opacity:1"
d="m 77.99981,56.3125 c 0.36951,-0.3061 0.83469,-0.6764 1.03373,-0.8229 0.26316,-0.1937 0.47635,-0.4737 0.78158,-1.0264 0.23084,-0.4181 0.44399,-0.8248 0.47364,-0.9039 0.2463,-0.6562 -1.89669,1.1883 -2.78929,2.4008 -0.3357,0.456 -0.8695,1.4022 -0.8695,1.5412 0,0.025 0.15705,-0.1073 0.34899,-0.2935 0.19194,-0.1863 0.65132,-0.5891 1.02085,-0.8953 z"
/>
<path
d="m 31.21794,54.6483000000001 c 0.42757,-0.095 0.7848,-0.1809 0.79383,-0.1899 0.0232,-0.023 -1.53468,-3.6098 -1.82546,-4.2026 l -0.24088,-0.4911 -1.1484,-0.1032 c -1.48008,-0.133 -3.26036,-0.4381 -4.68019,-0.802 -0.61943,-0.1587 -1.26988,-0.2886 -1.44543,-0.2886 -0.27946,0 -0.31917,0.024 -0.31917,0.1912 0,0.2835 0.44887,0.9095 0.92269,1.2868 0.22927,0.1826 0.8397,0.5423 1.35651,0.7994 0.52878,0.2631 1.08323,0.6068 1.268,0.7861 0.36535,0.3546 0.67821,0.9782 0.76569,1.5262 0.10733,0.6723 1.07512,1.4348 2.09204,1.6484 0.52204,0.1096 1.55085,0.042 2.46077,-0.1607 z"
style="fill:#4d4e53;fill-opacity:1"
id="path2926"
/>
<path
id="path2924"
style="fill:#4d4e53;fill-opacity:1"
d="m 40.91013,54.8074999999999 c 0,-0.047 -0.0581,-0.1985 -0.12909,-0.3358 -0.11792,-0.2281 -0.14117,-0.2387 -0.26857,-0.1234 -0.0767,0.069 -0.22994,0.1596 -0.34055,0.2006 l -0.20106,0.074 0.24381,0.132 c 0.27726,0.15 0.69546,0.1815 0.69546,0.052 z"
/>
<path
id="path2922"
style="fill:#4d4e53;fill-opacity:1"
d="m 40.25986,53.8855000000001 c 0.14198,-0.3117 -0.0271,-0.5991 -0.46678,-0.7936 -0.2125,-0.094 -0.40257,-0.1548 -0.42236,-0.135 -0.0778,0.078 0.23665,0.9497 0.37059,1.0277 0.23421,0.1365 0.42809,0.099 0.51855,-0.099 z"
/>
<path
style="fill:#4d4e53;fill-opacity:1"
id="path2920"
d="m 39.58224,51.9581000000001 c -0.13752,-0.3048 -0.25977,-0.5649 -0.27163,-0.5779 -0.0393,-0.043 -0.45334,0.172 -0.45334,0.2354 0,0.1825 0.14413,0.3657 0.48391,0.6151 0.20806,0.1527 0.40369,0.2785 0.43471,0.2796 0.0311,0 -0.0561,-0.2473 -0.19365,-0.5522 z"
/>
<path
d="m 38.69935,51.0406 c 0.43699,-0.4369 0.21852,-1.1115 -0.45674,-1.4102 -0.42695,-0.1888 -0.49287,-0.2672 -0.33503,-0.3982 0.17198,-0.1427 0.72618,0.031 1.07394,0.336 0.15746,0.1383 0.28632,0.2106 0.28632,0.1608 0,-0.1239 -0.50707,-0.5909 -1.14961,-1.0588 -0.86623,-0.6307 -0.90764,-1.112 -0.16075,-1.8683 l 0.4157,-0.4209 -0.25066,0.037 c -0.39688,0.058 -0.31127,-0.1547 0.23165,-0.5763 1.01751,-0.7902 1.18088,-1.2787 0.75906,-2.27 -0.13992,-0.3288 -0.33046,-0.7046 -0.42342,-0.8352 -0.26845,-0.377 -0.85633,-0.8172 -1.37043,-1.0261 -0.59032,-0.2399 -0.62795,-0.4116 -0.0862,-0.3933 0.25559,0.01 0.54239,0.097 0.84167,0.259 l 0.45396,0.2459 0,-0.3649 c 0,-0.5112 0.24286,-0.9316 0.8319,-1.4402 0.89412,-0.7721 1.0316,-0.9093 0.85145,-0.8496 -0.34917,0.1158 -0.91806,0.1387 -1.24625,0.05 -0.53906,-0.1454 -0.99909,-0.8261 -0.64908,-0.9604 0.0931,-0.036 0.0765,-0.1036 -0.0821,-0.3373 -0.36428,-0.5368 -0.21638,-1.3607 0.29141,-1.6232 0.47807,-0.2473 0.55132,-0.098 0.16692,0.3396 -0.52268,0.5952 -0.12305,1.3491 0.84431,1.5927 0.75287,0.1896 1.52532,-0.1585 1.8756,-0.8451 0.36632,-0.718 0.13286,-1.6643 -0.61622,-2.4974 -0.20861,-0.2321 -0.37928,-0.4605 -0.37928,-0.5076 0,-0.1896 0.19042,-0.182 0.49526,0.02 l 0.32155,0.2127 0.17569,-0.4084 c 0.26561,-0.6174 1.14246,-1.3521 1.14246,-0.9572 0,0.062 -0.11556,0.2555 -0.25684,0.4311 -0.55074,0.6845 -0.62984,1.3343 -0.25346,2.0819 0.58051,1.1529 2.11134,1.3469 2.76337,0.3502 0.11021,-0.1685 0.22686,-0.4149 0.25924,-0.5477 l 0.0589,-0.2414 -0.30082,0.3009 c -0.35438,0.3543 -1.05604,0.596 -1.47107,0.5066 -0.80477,-0.1732 -1.26553,-0.7909 -1.09548,-1.4684 0.0721,-0.2872 0.52603,-0.786 0.7153,-0.786 0.1999,0 0.19382,0.053 -0.0517,0.4516 -0.28282,0.4592 -0.2672,0.7937 0.0495,1.0602 0.30396,0.2558 0.83874,0.2869 1.28567,0.075 0.31186,-0.148 0.76004,-0.7645 0.76214,-1.0484 0.002,-0.2832 0.12871,-0.4226 0.27417,-0.3018 0.10215,0.085 0.1399,0.072 0.21678,-0.071 0.13646,-0.255 0.57449,-0.4932 0.90375,-0.4915 0.56505,0 1.19996,0.4242 1.38818,0.921 0.16737,0.4418 -0.13657,0.671 -0.31587,0.2381 -0.1365,-0.3295 -0.54072,-0.6022 -0.96333,-0.6498 -0.50709,-0.057 -0.68437,0.1174 -0.68199,0.6715 0.006,1.4395 1.61255,2.5073 2.78264,1.8497 0.58412,-0.3283 0.76339,-0.7938 0.90329,-2.3452 0.10886,-1.2071 0.35953,-1.5695 0.93442,-1.3509 0.20081,0.076 0.22254,0.067 0.22184,-0.098 -0.002,-0.301 -0.47251,-1.0297 -0.81046,-1.2534 -0.5817,-0.3849 -1.20703,-0.3458 -1.7481,0.1095 -0.30817,0.2593 -0.55676,0.7754 -0.55922,1.1611 -0.003,0.4169 0.28657,0.9542 0.57887,1.0753 0.36386,0.1507 0.73135,0.017 0.97216,-0.3531 0.15924,-0.2449 0.22049,-0.2858 0.31322,-0.2088 0.23059,0.1914 -0.0355,0.7042 -0.48637,0.9374 -1.13115,0.5849 -2.21375,-0.9841 -1.59534,-2.3122 0.53595,-1.1509 1.84943,-1.5237 2.82279,-0.8011 0.17167,0.1275 0.26659,0.1601 0.26609,0.091 0,-0.1303 -0.35945,-0.8772 -0.50939,-1.0612 -0.21207,-0.2604 -0.6791,-0.482 -1.01636,-0.4823 -0.45188,0 -1.26996,0.4168 -1.62063,0.8265 -0.29695,0.3469 -0.46587,0.411 -0.46587,0.1769 0,-0.3578 0.57324,-0.9646 1.19065,-1.2603 0.85475,-0.4093 1.64895,-0.2946 2.26684,0.3275 0.47699,0.4802 0.66389,0.9748 0.93604,2.4769 0.30597,1.6888 0.73706,2.6919 1.32149,3.0748 0.19623,0.1286 0.27472,0.1342 0.66156,0.048 0.24142,-0.054 0.43892,-0.1094 0.43892,-0.123 0,-0.014 -0.0773,-0.1995 -0.17177,-0.4131 -0.20826,-0.4708 -0.16309,-0.8346 0.13879,-1.118 0.28839,-0.2706 0.9833,-0.2693 1.51104,0 0.66587,0.3435 0.61739,0.559 -0.0838,0.3724 -1.03013,-0.2742 -1.50958,0 -1.08584,0.622 0.21713,0.3184 1.06496,1.3689 1.56978,1.945 0.45416,0.5183 0.66671,0.6463 0.34041,0.205 -0.33941,-0.4591 -0.37407,-1.258 -0.0572,-1.319 0.1051,-0.02 0.13779,0.034 0.13779,0.2284 0,0.5918 0.50995,1.2174 1.14823,1.4086 0.63706,0.1909 1.32351,-0.2107 1.65983,-0.971 0.18471,-0.4176 0.27659,-1.2987 0.16515,-1.5838 -0.0682,-0.1744 -0.081,-0.1385 -0.0851,0.2384 -0.008,0.7175 -0.58142,1.601 -0.94804,1.4603 -0.1046,-0.04 -0.0782,-0.1392 0.15782,-0.592 0.31963,-0.6132 0.34744,-0.9168 0.12823,-1.3995 -0.31705,-0.698 -1.11319,-1.3692 -2.3698,-1.9978 -0.61885,-0.3096 -0.80148,-0.4971 -0.60343,-0.6195 0.11686,-0.072 1.06592,0.2556 1.63885,0.566 0.66945,0.3627 0.46436,0.098 -0.31693,-0.4085 -0.86085,-0.5585 -1.8887,-0.9563 -3.44868,-1.3349 -0.1786,-0.043 -0.29825,-0.1267 -0.31631,-0.2205 -0.0268,-0.139 0.0212,-0.1472 0.61574,-0.1048 0.35461,0.025 0.71868,0.072 0.80899,0.1031 0.31755,0.1106 -0.4218,-0.3197 -1.47805,-0.8602 -1.50768,-0.7715 -2.87937,-1.0666 -4.96794,-1.0687 -1.73181,0 -3.43822,0.3171 -4.85038,0.9065 -1.14742,0.4789 -1.06883,0.4209 -0.67118,0.4955 0.41422,0.078 0.77589,0.2424 0.81817,0.3725 0.0214,0.066 -0.20613,0.09 -0.77402,0.082 -0.7415,-0.01 -0.84635,0.01 -1.34197,0.2435 -0.29571,0.1402 -0.6701,0.3711 -0.832,0.5132 -0.1619,0.1422 -0.34769,0.2585 -0.4129,0.2585 -0.0652,0 -0.20682,0.094 -0.31472,0.2088 l -0.19617,0.2088 0.45793,-0.2096 c 0.81277,-0.3721 2.0555,-0.4169 2.67522,-0.096 0.54679,0.2827 0.55527,0.6566 0.01,0.4287 -0.48135,-0.2011 -1.04782,-0.2352 -1.68354,-0.1013 -0.9439,0.1988 -1.46522,0.4909 -2.20803,1.2373 -0.71572,0.7192 -1.10681,1.3711 -1.43276,2.3884 -0.10129,0.3161 -0.25236,0.6302 -0.33571,0.6979 -0.15082,0.1226 -0.57129,1.5807 -0.69344,2.4048 l -0.0583,0.3929 0.39151,-0.2082 c 0.55606,-0.2956 0.92919,-0.2654 0.64189,0.052 -0.11729,0.1296 -0.11884,0.1503 -0.0113,0.1503 0.22607,0 0.55022,0.329 0.60339,0.6125 0.0623,0.3323 -0.10398,0.7276 -0.32399,0.77 -0.1355,0.026 -0.147,-0.01 -0.097,-0.2726 0.10377,-0.5532 -0.24949,-0.8324 -0.79216,-0.6261 -0.32728,0.1245 -0.78358,0.6676 -1.13895,1.3557 -0.33177,0.6425 -0.33765,0.668 -0.24658,1.0722 0.0615,0.2726 0.29998,0.7278 0.69874,1.3334 0.33301,0.5056 0.66877,1.0968 0.74616,1.3138 0.0774,0.2169 0.16055,0.4499 0.18482,0.5176 0.0826,0.2305 0.18927,-0.6139 0.13746,-1.088 -0.0432,-0.3954 -0.0307,-0.4722 0.0767,-0.4722 0.17013,0 0.28609,0.232 0.38593,0.772 0.11348,0.6139 -0.0688,1.4352 -0.52883,2.3823 -0.60016,1.2357 -0.73468,1.8501 -0.50255,2.2952 0.14336,0.2749 0.15823,0.4628 0.0366,0.4628 -0.12046,0 -0.48876,-0.4113 -0.48876,-0.5458 0,-0.061 -0.037,-0.1111 -0.0821,-0.1111 -0.0452,0 -0.0821,0.1123 -0.0821,0.2496 0,0.7364 1.16461,1.9351 2.24172,2.3072 0.58057,0.2007 0.68912,0.1909 0.96706,-0.087 z"
id="path2918"
style="fill:#4d4e53;fill-opacity:1"
/>
<path
d="m 84.84144,49.7503999999999 c -4e-5,-0.034 -1.10861,-1.9805 -1.45878,-2.5614 l -0.41224,-0.6839 -0.0482,0.4786 c -0.0265,0.2633 -0.0684,0.7742 -0.093,1.1355 -0.0247,0.3614 -0.0642,0.8787 -0.088,1.1497 l -0.0432,0.4926 1.07173,0 c 0.58945,0 1.07171,-0.01 1.07169,-0.011 z"
style="fill:#4d4e53;fill-opacity:1"
id="path2916"
/>
<path
id="path2914"
style="fill:#4d4e53;fill-opacity:1"
d="m 35.63024,47.0311999999999 c 0.28457,-0.5156 0.31007,-0.6774 0.10681,-0.6774 -0.0963,0 -0.25133,0.041 -0.34442,0.091 -0.14079,0.075 -0.23,0.048 -0.53074,-0.1643 -0.19882,-0.1401 -0.3819,-0.2548 -0.40686,-0.2548 -0.0687,0 0.28844,0.5714 0.60316,0.9649 0.15352,0.1919 0.30682,0.349 0.34063,0.349 0.0338,0 0.13798,-0.1386 0.23142,-0.308 z"
/>
<path
id="path2912"
style="fill:#4d4e53;fill-opacity:1"
d="m 61.19022,45.5326 c 0.002,-0.2484 -0.0819,-0.5444 -0.25434,-0.9032 l -0.2564,-0.5338 -0.0843,0.2423 c -0.0628,0.1806 -0.0481,0.4316 0.0579,0.9854 0.0782,0.4087 0.16338,0.8539 0.18927,0.9894 l 0.0471,0.2464 0.14937,-0.3285 c 0.0822,-0.1806 0.15034,-0.4947 0.15149,-0.698 z"
/>
<path
d="m 36.04962,45.5389 c 0.0365,-0.6417 -0.1626,-1.1587 -0.82026,-2.1301 -0.64648,-0.9549 -0.79598,-1.266 -0.89317,-1.8587 -0.037,-0.2258 -0.15971,-0.6692 -0.27261,-0.9854 -0.25157,-0.7044 -0.37809,-1.4516 -0.3789,-2.2376 0,-0.3764 -0.0337,-0.5953 -0.0906,-0.5953 -0.16223,0 -0.57691,-0.3437 -0.82058,-0.6801 l -0.23905,-0.33 0,0.7719 c 0,0.9449 0.17778,2.1519 0.4207,2.8658 0.0999,0.2936 0.47093,1.0976 0.82454,1.7866 0.35361,0.6891 0.64293,1.308 0.64293,1.3754 0,0.4453 -0.69679,-0.3795 -1.63068,-1.9303 -0.22728,-0.3773 -0.23272,-0.1664 -0.0173,0.6755 0.20994,0.8209 0.62711,1.6305 1.22231,2.3722 0.64898,0.8087 0.9794,1.1114 1.37162,1.2568 0.55603,0.2062 0.65151,0.1561 0.68066,-0.3567 l 0,0 z"
style="fill:#4d4e53;fill-opacity:1"
id="path2910"
/>
<path
d="m 59.96504,42.6822999999999 c -0.0544,-0.2162 -0.20692,-0.6396 -0.33898,-0.9407 -0.13209,-0.3011 -0.24015,-0.6454 -0.24015,-0.7651 0,-0.1877 -0.0254,-0.2098 -0.18476,-0.1608 -0.10163,0.031 -0.19427,0.065 -0.2059,0.075 -0.0117,0.01 0.20084,0.4819 0.47216,1.049 0.27132,0.5672 0.4933,1.0781 0.4933,1.1353 0,0.057 0.0232,0.081 0.0516,0.053 0.0284,-0.028 0.007,-0.2285 -0.0473,-0.4448 l 0,0 z"
id="path2908"
style="fill:#4d4e53;fill-opacity:1"
/>
<path
style="fill:#4d4e53;fill-opacity:1"
id="path2906"
d="m 59.25674,40.2304999999999 c 0.34094,-0.3409 0.25411,-0.9377 -0.21378,-1.4693 -0.2668,-0.3031 -0.37572,-0.3737 -0.51126,-0.3317 -0.0947,0.029 -0.3308,0.091 -0.52462,0.1369 l -0.35238,0.083 0.17078,0.2595 c 0.0939,0.1427 0.3205,0.5274 0.50351,0.8548 0.29121,0.521 0.36182,0.5953 0.56578,0.5953 0.12819,0 0.29107,-0.058 0.36197,-0.1289 z"
/>
<path
id="path2904"
style="fill:#4d4e53;fill-opacity:1"
d="m 34.5873,40.1258 c 0,-0.038 0.14655,-0.2961 0.32567,-0.5732 0.26557,-0.4109 0.34978,-0.6444 0.45645,-1.265 0.78777,-4.5848 2.87248,-7.5294 6.55652,-9.2612 2.16059,-1.0156 4.2832,-1.3889 7.00149,-1.2314 1.25129,0.072 1.8207,0.1696 2.61653,0.4462 0.0903,0.031 0.0349,-0.015 -0.12317,-0.1029 -0.46361,-0.2581 -1.6697,-0.656 -2.57114,-0.8483 -1.19823,-0.2557 -3.36036,-0.2557 -4.52312,0 -2.0895,0.4594 -4.05969,1.3339 -5.67497,2.5188 -2.61006,1.9147 -4.2087,4.7884 -4.36729,7.8506 -0.0505,0.9754 0.0919,2.5358 0.23149,2.5358 0.0394,0 0.0715,-0.031 0.0715,-0.069 z"
/>
<path
d="m 39.14665,38.5861 c -0.17957,-0.066 -0.36247,-0.1555 -0.40647,-0.1995 -0.10917,-0.1092 -0.23431,-0.1015 -0.16529,0.01 0.075,0.1214 0.5303,0.3145 0.73399,0.3113 0.0941,0 0.0248,-0.054 -0.16223,-0.1221 z"
id="path2902"
style="fill:#000000"
/>
<path
style="fill:#c0c0c0;fill-opacity:1"
id="path2900"
d="m 58.52918,37.6921 c 0.30409,-0.2319 0.60828,-0.7694 0.60495,-1.0689 -0.002,-0.1187 -0.0458,-0.081 -0.1605,0.1361 -0.41614,0.7877 -1.33228,1.1483 -2.16409,0.8518 -0.44543,-0.1588 -0.24747,0.01 0.24294,0.2062 0.55001,0.2208 1.08217,0.1757 1.4767,-0.1252 z"
/>
<path
id="path2898"
style="fill:#c0c0c0;fill-opacity:1"
d="m 56.4297800000001,37.4544000000001 c 0,-0.017 -0.0647,-0.082 -0.14369,-0.1437 -0.13023,-0.1021 -0.13315,-0.099 -0.031,0.031 0.10725,0.1368 0.17469,0.1803 0.17469,0.1127 z"
/>
<path
style="fill:#4d4e53;fill-opacity:1"
id="path2896"
d="m 33.9764300000001,35.7476999999999 c 0.20311,-0.875 0.20313,-0.8758 0.0435,-1.1496 -0.31266,-0.5365 -0.44831,-1.2744 -0.45387,-2.469 l -0.005,-1.1274 -0.22475,0.669 c -0.39434,1.1735 -0.66,2.503 -0.66964,3.3513 -0.008,0.6797 0.0185,0.8386 0.20473,1.2354 0.11746,0.2505 0.33918,0.5987 0.49268,0.7737 l 0.27911,0.3184 0.0651,-0.3631 c 0.0358,-0.1998 0.15654,-0.7572 0.26833,-1.2387 l 0,0 z"
/>
<path
d="m 35.48517,32.2791 c 0.952,-1.4108 2.18597,-2.579 3.72948,-3.5308 l 0.78587,-0.4846 -0.19506,-0.2318 c -0.42266,-0.5023 -0.47658,-1.3126 -0.13824,-2.0774 0.14505,-0.3279 0.14961,-0.3757 0.0359,-0.3757 -0.37155,0 -2.41211,1.0372 -3.06298,1.5569 l -0.2053,0.1639 0.36951,0.014 c 0.20323,0.01 0.48957,0.01 0.63631,0 0.20163,-0.014 0.32694,0.042 0.51322,0.2281 0.6448,0.6448 -0.0265,1.947 -1.05463,2.0458 -0.51626,0.05 -0.75181,-0.1468 -0.75181,-0.6271 0,-0.3504 0.20482,-0.6243 0.29372,-0.3927 0.0271,0.071 0.0252,0.1675 -0.004,0.2153 -0.0763,0.1233 0.0233,0.3901 0.16609,0.4449 0.33003,0.1266 1.06902,-0.4554 1.15413,-0.909 0.0793,-0.4228 -0.38787,-0.9853 -0.65,-0.7827 -0.0536,0.041 -0.2984,0.1394 -0.54405,0.2177 -1.1045,0.3523 -1.97281,1.3724 -2.34968,2.7604 -0.26234,0.9662 -0.23459,2.5521 0.0621,3.5483 l 0.0919,0.3086 0.34594,-0.728 c 0.19025,-0.4003 0.53762,-1.012 0.77189,-1.3592 l 0,0 z"
id="path2894"
style="fill:#4d4e53;fill-opacity:1"
/>
<path
style="fill:#4d4e53;fill-opacity:1"
id="path2892"
d="m 40.85667,27.8666000000001 0.36148,-0.1756 -0.19506,-0.2875 c -0.34828,-0.5132 -0.19557,-1.4187 0.31917,-1.8925 0.29722,-0.2735 0.34013,-0.102 0.10234,0.4088 -0.11242,0.2415 -0.20476,0.561 -0.20522,0.71 -0.002,0.5681 0.41433,0.9728 0.79217,0.7706 0.13183,-0.071 0.8576,-0.2777 2.06052,-0.5882 0.32697,-0.084 0.34899,-0.1083 0.34899,-0.3776 0,-0.3763 0.26563,-0.8867 0.58326,-1.1207 l 0.25349,-0.1867 -0.39785,-0.054 c -0.98137,-0.1342 -3.54987,0.021 -4.1508,0.2508 -0.54292,0.2076 -0.98846,1.3161 -0.80135,1.9938 0.0857,0.3105 0.36776,0.7248 0.49339,0.7248 0.0407,0 0.23663,-0.079 0.43547,-0.1756 z"
/>
<path
id="path2890"
style="fill:#4d4e53;fill-opacity:1"
d="m 50.35329,26.9226000000001 c -0.61103,-0.3982 -1.94935,-1.0376 -2.75083,-1.3143 -1.42784,-0.4928 -2.53343,-0.1764 -2.72056,0.7785 l -0.0537,0.2742 0.48391,-0.067 c 0.26613,-0.037 1.00121,-0.063 1.63349,-0.058 1.19473,0.01 2.29578,0.1814 3.24353,0.5092 0.64824,0.2242 0.67068,0.2074 0.16421,-0.1226 z"
/>
<path
style="fill:#c0c0c0;fill-opacity:1"
id="path2882"
d="m 35.82533,80.8214 c 0.36871,-1.1045 0.67118,-2.5069 0.8546,-3.962 0.1635,-1.2973 0.1955,-1.4371 0.32909,-1.4371 0.22142,0 0.26315,0.7184 0.11823,2.0356 -0.15006,1.364 -0.43963,2.5321 -0.91521,3.6919 -0.21946,0.5353 -0.26688,0.5954 -0.46959,0.5954 l -0.22548,0 0.30836,-0.9238 z"
/>
<path
d="m 45.06895,80.8607999999999 c -0.0295,-0.4865 -0.12671,-1.3271 -0.21592,-1.8682 -0.1923,-1.1661 -0.20543,-1.4614 -0.063,-1.4168 0.28591,0.09 0.80063,2.4206 0.80063,3.6256 0,0.5431 0,0.5438 -0.23401,0.5438 l -0.234,0 -0.0537,-0.8844 z"
id="path2880"
style="fill:#c0c0c0;fill-opacity:1"
/>
<path
d="m 46.75946,81.0165999999999 c -0.0546,-0.4007 -0.24709,-1.2413 -0.4278,-1.8681 -0.33759,-1.1709 -0.38386,-1.4269 -0.25775,-1.4269 0.30417,0 1.11227,2.3435 1.26707,3.6746 0.0402,0.346 0.0383,0.349 -0.22086,0.349 l -0.26143,0 -0.0992,-0.7286 z"
id="path2878"
style="fill:#c0c0c0;fill-opacity:1"
/>
<path
d="m 38.63285,79.7620999999999 c 0.0243,-0.1061 0.1366,-0.544 0.24954,-0.9731 0.43689,-1.6597 0.49031,-4.0412 0.1407,-6.2726 -0.19459,-1.242 -0.20774,-1.5556 -0.0632,-1.5085 0.44519,0.145 0.96287,3.3697 0.84708,5.2766 -0.10532,1.7343 -0.63941,3.5632 -1.06351,3.6418 -0.12498,0.023 -0.14629,-0.01 -0.11062,-0.1642 z"
style="fill:#c0c0c0;fill-opacity:1"
id="path2868"
/>
<path
id="path2866"
style="fill:#c0c0c0;fill-opacity:1"
d="m 66.21046,78.2662 c -0.1998,-0.2407 -0.28968,-2.4477 -0.18476,-4.5363 0.141,-2.8066 0.29739,-3.8913 0.56102,-3.8913 0.11882,0 0.12665,0.1304 0.0752,1.2522 -0.16475,3.5887 -0.20989,4.8034 -0.2174,5.8507 -0.005,0.6322 -0.0351,1.2178 -0.0679,1.3012 -0.0535,0.1361 -0.0706,0.1385 -0.16608,0.024 z"
/>
<path
d="m 38.11823,75.4834000000001 c 0,-1.6293 -0.30403,-3.809 -0.74726,-5.3574 -0.0905,-0.3162 -0.35266,-1.1207 -0.5826,-1.788 -0.22994,-0.6672 -0.39588,-1.2353 -0.36878,-1.2623 0.1319,-0.132 0.3423,0.1149 0.64062,0.7515 0.71387,1.5233 1.28046,3.6846 1.47445,5.6244 0.14288,1.4286 -0.0142,3.0382 -0.29643,3.0382 -0.0987,0 -0.12,-0.1783 -0.12,-1.0064 z"
style="fill:#c0c0c0;fill-opacity:1"
id="path2864"
/>
<path
id="path2862"
style="fill:#c0c0c0;fill-opacity:1"
d="m 51.44957,75.7541000000001 c -1.20011,-0.1873 -2.03576,-0.3877 -2.36904,-0.568 l -0.24636,-0.1333 0.3307,-0.024 c 0.18188,-0.013 0.89835,0.051 1.5922,0.1439 3.01263,0.402 4.51591,0.3121 7.04555,-0.4212 0.7066,-0.2049 0.50493,0.1626 -0.2868,0.5225 -0.98633,0.4484 -1.70653,0.5744 -3.46736,0.6067 -1.27749,0.023 -1.80296,0 -2.59889,-0.1263 z"
/>
<path
style="fill:#c0c0c0;fill-opacity:1"
id="path2860"
d="m 61.19242,72.8501000000001 c 0,-0.06 0.23095,-0.2972 0.51322,-0.5273 0.70019,-0.5709 1.04221,-0.9406 1.53179,-1.6558 0.51697,-0.7553 0.73916,-1.3278 0.86077,-2.2181 0.10181,-0.7453 0.22407,-0.9076 0.36947,-0.4905 0.32646,0.9365 -0.25739,2.5141 -1.36693,3.6935 -0.85344,0.9072 -1.90832,1.5695 -1.90832,1.1982 z"
/>
<path
style="fill:#4d4e53;fill-opacity:1"
id="path3088"
d="m 77.5857999999999,67.7823000000001 c -0.54772,-1.8528 -1.4733,-4.0317 -2.0499,-4.8258 -0.15379,-0.2118 -0.51386,-0.847 -0.80016,-1.4115 -0.45253,-0.8924 -0.61666,-1.1259 -1.25638,-1.7875 -0.83648,-0.8652 -1.40576,-1.201 -2.28218,-1.3462 -0.82016,-0.1359 -0.89168,-0.053 -0.47313,0.5514 0.18615,0.2686 0.47336,0.6299 0.63822,0.803 0.36763,0.3859 1.21815,0.8984 1.80231,1.0862 0.3153,0.1013 0.42807,0.1764 0.4097,0.2727 -0.0202,0.1057 -0.15159,0.1381 -0.64035,0.1579 -0.78147,0.032 -1.45591,-0.086 -2.47466,-0.4317 l -0.80904,-0.2747 -0.66919,-0.386 -0.49395,-0.3285 c -0.70172,-0.4666 -1.5046,-1.35 -1.61221,-1.774 -0.0474,-0.1866 -0.0735,-0.381 -0.0582,-0.4322 0.0154,-0.051 0.0496,-0.3597 0.0762,-0.6857 l 0.0482,-0.5928 c -1.00495,0.5222 -0.0304,0.091 0.12609,-0.4372 0.0786,-0.3648 0.26194,-0.7152 0.51696,-0.9877 0.43167,-0.4612 2.00368,-0.7307 3.62623,-0.6218 1.50856,0.1013 2.4915,0.079 2.92098,-0.066 0.55281,-0.1867 0.94167,-0.4431 1.29118,-0.8514 0.23661,-0.2765 0.30461,-0.4354 0.34528,-0.8072 0.1141,-1.0433 0.40046,-1.442 1.61624,-2.2502 0.8825,-0.5867 1.39257,-1.2039 1.47493,-1.7847 0.0268,-0.1893 0.007,-0.2033 -0.25828,-0.1794 -0.15806,0.014 -0.63845,0.1681 -1.0675,0.3421 -1.51097,0.6125 -2.86981,1.0229 -4.49014,1.3561 l -0.97048,0.1996 -0.66518,0.6848 c -0.36586,0.3766 -0.71739,0.7936 -0.78121,0.9267 -0.15417,0.3217 -0.43207,0.3305 -0.46836,0.015 -0.0171,-0.1488 -0.0596,-0.2071 -0.12317,-0.169 -0.073,0.044 -0.0742,0.029 -0.005,-0.06 0.0507,-0.065 0.19152,-0.4286 0.31301,-0.8077 0.23865,-0.7449 0.74718,-1.8136 1.12473,-2.3637 l 1.09779,-1.4374 0.53375,-0.4025 c 0.66853,-0.5041 1.21629,-0.6878 2.66872,-0.8952 1.14686,-0.1636 1.74337,-0.2799 1.81777,-0.3543 1.13263,-0.3131 -0.0516,0.091 0.87252,-0.3355 0.25921,0.025 1.21232,-0.2654 1.20796,-0.3681 l 0.53593,-0.2636 0.66854,-0.058 0.66855,-0.058 -0.52947,-0.698 c -2.18684,-2.8829 -4.24186,-4.4321 -6.49849,-4.8989 -0.98907,-0.2045 -2.38341,-0.1195 -3.38279,0.2063 -2.92766,0.9546 -5.00263,3.4228 -6.49909,7.7308 -0.40433,1.164 -1.24358,4.416 -1.19126,4.6161 0.0211,0.081 0.009,0.1466 -0.0269,0.1466 -0.0698,0 -0.55205,2.4135 -0.82043,4.1057 -0.0895,0.5645 -0.19982,1.2296 -0.24511,1.478 -0.36693,2.0127 -0.63091,6.0905 -0.44072,6.8078 l 0.0742,0.2796 2.37811,0.4331 c 1.30797,0.2383 2.96844,0.6292 3.71482,0.7256 1.49725,0.1932 0.0143,0.013 1.49511,0.1934 4.16136,1.2949 -0.0694,-0.046 4.12596,1.2887 0.0121,0.01 0.47389,0.1917 1.02623,0.4087 0.98423,0.3866 2.36672,1.1085 2.85513,1.4907 0.13548,0.1061 0.25609,0.1645 0.268,0.1299 0.0119,-0.035 -0.1035,-0.4863 -0.2565,-1.0038 z"
/>
<path
id="path2858"
style="fill:#c0c0c0;fill-opacity:1"
d="m 42.51224,70.3928000000001 c -0.4203,-0.49 -1.25748,-1.7355 -2.35969,-3.5104 -1.17424,-1.8908 -1.25474,-2.0441 -1.13578,-2.1631 0.14551,-0.1455 0.32734,0.017 0.86692,0.7775 0.43176,0.6081 0.8357,1.2543 2.68406,4.2937 0.56238,0.9248 0.52926,1.2841 -0.0555,0.6023 z"
/>
<path
id="path4334-9"
style="fill:#000000"
d="m 36.04722,62.7724000000001 c -0.18282,-0.6289 -0.3324,-1.2267 -0.3324,-1.3284 0,-0.1017 0.41923,-0.5964 0.93162,-1.0993 1.41883,-1.3925 1.63023,-1.9727 1.25024,-3.4316 -0.58764,-2.2561 -0.85825,-2.4792 -3.1731,-2.616 l -1.76297,-0.1041 -0.51331,-1.3542 c -0.28233,-0.7448 -0.60665,-1.5274 -0.72071,-1.7391 -0.33762,-0.6266 -0.0865,-0.5927 0.55274,0.074 0.70076,0.7315 0.93543,0.7811 0.93543,0.1979 0,-1.0604 -1.975,-3.9468 -3.49428,-5.1069 -0.49872,-0.3808 -1.24303,-1.1435 -1.65404,-1.6949 -1.1942,-1.6021 -2.13609,-2.5351 -3.87386,-3.8372 -2.07943,-1.558 -3.62591,-2.0731 -6.65524,-2.2169 -1.45441,-0.069 -2.23902,-0.1882 -2.23789,-0.3399 0.003,-0.4377 1.98976,-4.8122 2.84975,-6.2755 6.96782,-11.8564 19.43517,-18.7218 32.98262,-18.1626 4.65008,0.192 8.00518,0.9162 12.47013,2.6917 8.02351,3.1906 14.9829,9.7384 18.86698,17.7511 1.82308,3.761 2.79058,7.0094 3.34182,11.2203 0.17701,1.3523 0.32184,2.9454 0.32184,3.5404 l 0,1.0817 -1.1641,-2.0663 c -2.48958,-4.4192 -5.15191,-7.6586 -7.41071,-9.0171 -5.02607,-3.0229 -10.55541,-0.4707 -13.31226,6.1444 -1.42343,3.4156 -3.02485,11.3545 -3.25767,16.1497 -0.10618,2.1869 -0.18281,2.6456 -0.42634,2.5522 -0.16329,-0.063 -0.35955,-0.114 -0.43611,-0.114 -0.0766,0 -0.1276,-1.8516 -0.11341,-4.1147 0.0192,-3.0658 0.13488,-4.7784 0.45373,-6.7188 0.23535,-1.4324 0.49334,-3.2605 0.5733,-4.0626 0.08,-0.8021 0.28453,-1.7315 0.45459,-2.0652 0.36244,-0.7113 0.24641,-2.064 -0.22185,-2.5865 -0.49772,-0.5554 -1.18141,-2.8468 -1.18141,-3.9597 0,-0.7033 -0.12889,-1.184 -0.41498,-1.5477 -0.38977,-0.4955 -0.39538,-0.5745 -0.0924,-1.2997 0.33792,-0.8088 0.29524,-1.3461 -0.24119,-3.0365 -0.32689,-1.03 -0.98319,-1.7529 -3.08976,-3.4032 -0.74437,-0.5832 -2.30321,-1.8367 -3.46411,-2.7856 -3.46075,-2.829 -5.46519,-3.6204 -9.1563,-3.6152 -3.64221,0.01 -6.2053,0.9862 -8.45576,3.2366 -1.5407,1.5407 -2.242,2.8545 -2.81976,5.2825 -0.37649,1.5822 -0.42295,2.3143 -0.35362,5.5716 l 0.0798,3.7501 1.00499,2.1875 c 0.55275,1.2032 1.23196,2.4893 1.50935,2.8581 0.35215,0.4682 0.4661,0.823 0.37761,1.1755 -0.25468,1.0148 0.93804,2.4231 2.66237,3.1435 0.633,0.2645 0.82504,0.5072 1.20045,1.5169 0.63023,1.6952 0.94363,2.1018 1.73424,2.2501 0.62771,0.1178 0.78557,0.3129 1.67711,2.0732 1.23476,2.438 1.44453,3.1452 1.17507,3.9616 -0.2898,0.8781 -0.66558,1.0555 -3.47014,1.6378 -1.35723,0.2817 -2.71656,0.5757 -3.02073,0.6531 -0.52384,0.1334 -0.57058,0.08 -0.88544,-1.0026 z"
/>
<path
d="m 66.43233,29.0762999999999 0.19859,0.6714 -0.58141,-0.3902 -0.57722,0.3964 0.19142,-0.6735 -0.55533,-0.4265 0.69971,-0.026 0.23401,-0.6599 0.24103,0.6574 0.69995,0.019 z"
style="fill:#c0c0c0;fill-opacity:1"
id="path3419"
/>
<path
d="m 62.51502,20.3319 0.22984,1.2519 -0.85019,-0.9472 -0.83545,0.9602 0.21046,-1.2553 -1.27163,-0.054 1.11263,-0.6181 -0.75024,-1.0281 1.17696,0.4845 0.33609,-1.2276 0.35503,1.2222 1.16933,-0.5026 -0.73426,1.0396 1.12206,0.6009 z"
id="path3421"
style="fill:#c0c0c0;fill-opacity:1"
/>
<path
id="path3423"
style="fill:#c0c0c0;fill-opacity:1"
d="m 66.58347,35.5102999999999 0.22984,1.2519 -0.85019,-0.9472 -0.83545,0.9602 0.21046,-1.2553 -1.27163,-0.054 1.11263,-0.6181 -0.75024,-1.0281 1.17696,0.4845 0.33609,-1.2276 0.35503,1.2222 1.16933,-0.5026 -0.73426,1.0396 1.12206,0.6009 z"
/>
<path
d="m 69.30136,25.1827000000001 0.22984,1.2519 -0.85019,-0.9472 -0.83545,0.9602 0.21046,-1.2553 -1.27163,-0.054 1.11263,-0.6181 -0.75024,-1.0281 1.17696,0.4845 0.33609,-1.2276 0.35503,1.2222 1.16933,-0.5026 -0.73426,1.0396 1.12206,0.6009 z"
style="fill:#c0c0c0;fill-opacity:1"
id="path3425"
/>
<path
id="path3427"
style="fill:#c0c0c0;fill-opacity:1"
d="m 59.91263,27.6864 0.22984,1.2519 -0.85019,-0.9472 -0.83545,0.9602 0.21046,-1.2553 -1.27163,-0.054 1.11263,-0.6181 -0.75024,-1.0281 1.17696,0.4845 0.33609,-1.2276 0.35503,1.2222 1.16933,-0.5026 -0.73426,1.0396 1.12206,0.6009 z"
/>
</svg>
