<?xml version="1.0" encoding="UTF-8" standalone="no"?>
<svg
xmlns:sodipodi="http://sodipodi.sourceforge.net/DTD/sodipodi-0.dtd"
xmlns:inkscape="http://www.inkscape.org/namespaces/inkscape"
xmlns:svg="http://www.w3.org/2000/svg"
xmlns:cc="http://creativecommons.org/ns#"
xmlns:dc="http://purl.org/dc/elements/1.1/"
xmlns="http://www.w3.org/2000/svg"
xmlns:rdf="http://www.w3.org/1999/02/22-rdf-syntax-ns#"
>
<path
style="fill:#ffcc00;stroke:#ffcc00;stroke-width:14.94785023;stroke-linecap:butt;stroke-linejoin:round;stroke-miterlimit:12"
id="path3820"
d="m 92.5264999999999,92.52612 -42.5266,0 -42.5264,0 21.2632,-42.52653 21.2632,-42.52654 21.2634,42.52654 z"
/>
<path
d="m 48.4137000000001,89.82296 c -3.7261,-0.60931 -7.0123,-4.27455 -5.9876,-8.09041 1.3868,-5.24123 8.8851,-6.84153 12.7953,-3.3312 2.8772,2.164 3.2666,6.73841 0.5662,9.19739 -1.6942,1.65134 -4.206,2.48858 -6.5497,2.39411 -0.275,-0.0553 -0.5495,-0.1128 -0.8242,-0.16989 z"
id="path4626"
style="fill:#ff2a2a"
/>
<path
d="m 47.5682000000002,69.68135 c -3.7173,-1.16211 -5.3033,-5.01775 -6.7936,-8.16931 -2.0087,-4.71506 -4.1667,-9.44725 -5.2174,-14.46629 -0.2487,-2.71413 -1.1186,-4.50565 0,-8.84292 2.3369,-6.14554 7.7545,-8.15374 14.1207,-8.19608 6.5061,-0.17084 14.06,2.92789 15.1316,8.81762 0.8798,5.71353 -1.4609,12.64108 -3.4707,17.91341 -1.6267,3.78684 -2.9474,7.85731 -5.7282,11.02873 -2.0578,2.08837 -5.2308,2.67571 -8.0407,1.91491 z"
id="path4628"
style="fill:#ff2a2a"
/>
</svg>
