<?xml version="1.0" encoding="UTF-8" standalone="no"?>
<svg
xmlns:cc="http://creativecommons.org/ns#"
xmlns:svg="http://www.w3.org/2000/svg"
xmlns:rdf="http://www.w3.org/1999/02/22-rdf-syntax-ns#"
xmlns="http://www.w3.org/2000/svg"
xmlns:dc="http://purl.org/dc/elements/1.1/"
xmlns:sodipodi="http://sodipodi.sourceforge.net/DTD/sodipodi-0.dtd"
xmlns:inkscape="http://www.inkscape.org/namespaces/inkscape"
>
<path
d="m 87.5,20.00436 -6.2551,0 -12.4898,-20.00435 -25,0 -12.5,20.00435 -6.2551,0 c 0,-7.36831 -5.5918,-13.33261 -12.5,-13.33261 -6.9082,0 -12.5,5.9643 -12.5,13.33261 l 0,13.33261 0,53.33043 C 0,94.0357 5.59180000000003,100 12.5,100 l 75,0 c 6.9082,0 12.5,-5.9643 12.5,-13.3326 l 0,-53.33043 c 0,-7.36831 -5.5918,-13.33261 -12.5,-13.33261 z m -71.8775,23.33478 -6.2551,0 c -1.7245,0 -3.1225,-1.49107 -3.1225,-3.33043 0,-1.83935 1.398,-3.33043 3.1225,-3.33043 l 6.2551,0 c 1.7244,0 3.1224,1.49108 3.1224,3.33043 0,1.83936 -1.3877,3.33043 -3.1224,3.33043 z M 12.5,26.66522 c -3.449,0 -6.2551,-2.98215 -6.2551,-6.67174 0,-3.6896 2.7959,-6.67175 6.2551,-6.67175 3.4592,0 6.2551,2.98215 6.2551,6.67175 0,3.68959 -2.8061,6.67174 -6.2551,6.67174 z m 43.7551,60.00218 c -15.5102,0 -28.1224,-13.45233 -28.1224,-29.99565 0,-16.54332 12.6122,-29.99564 28.1224,-29.99564 15.5102,0 28.1225,13.45232 28.1225,29.99564 0,16.54332 -12.6225,29.99565 -28.1225,29.99565 z m 15.6225,-29.99565 c 0,9.20766 -6.9898,16.66304 -15.6225,16.66304 -8.6326,0 -15.6224,-7.45538 -15.6224,-16.66304 0,-9.20766 6.9898,-16.66304 15.6224,-16.66304 8.6225,-0.0109 15.6225,7.45538 15.6225,16.66304 z"
id="path3907"
style="fill:#606060"
/>
</svg>
