<?xml version="1.0" encoding="UTF-8" standalone="no"?>
<svg
xmlns:cc="http://creativecommons.org/ns#"
xmlns:svg="http://www.w3.org/2000/svg"
xmlns="http://www.w3.org/2000/svg"
xmlns:rdf="http://www.w3.org/1999/02/22-rdf-syntax-ns#"
xmlns:dc="http://purl.org/dc/elements/1.1/"
xmlns:sodipodi="http://sodipodi.sourceforge.net/DTD/sodipodi-0.dtd"
xmlns:inkscape="http://www.inkscape.org/namespaces/inkscape"
>
<path
id="path4982"
style="fill:#ffffff"
d="m 8.38560000000007,0.24411 c -3.2613,0.60002 -6.3041,3.59853 -7.7326,7.55646 l -0.653,1.83912 0,40.38236 0,40.38081 0.869,2.27975 c 1.0875,2.8782 3.4167,5.63765 5.5905,6.59706 1.522,0.6797 3.7892,0.72033 43.6964,0.72033 l 42.0811,0 1.7077,-1.03909 c 2.4845,-1.47973 3.8815,-3.23915 5.0308,-6.27673 l 1.0245,-2.6782 0,-39.9808 0,-39.9808 -1.0245,-2.6782 c -1.1178,-2.99852 -2.7333,-4.91732 -5.2178,-6.39705 l -1.522,-0.91878 -41.1488,-0.0407 c -22.6396,-0.0453 -41.8626,0.0751 -42.7013,0.23438 z"
/>
<path
id="path4984"
style="fill:#303030"
d="m 8.38560000000007,0.24411 c -3.2613,0.60002 -6.3041,3.59853 -7.7326,7.55646 l -0.653,1.83912 0,40.38236 0,40.38081 0.869,2.27975 c 1.0875,2.8782 3.4167,5.63765 5.5905,6.59706 1.522,0.6797 3.7892,0.72033 43.6964,0.72033 l 42.0811,0 1.7077,-1.03909 c 2.4845,-1.47973 3.8815,-3.23915 5.0308,-6.27673 l 1.0245,-2.6782 0,-39.9808 0,-39.9808 -1.0245,-2.6782 c -1.1178,-2.99852 -2.7333,-4.91732 -5.2178,-6.39705 l -1.522,-0.91878 -41.1488,-0.0407 c -22.6396,-0.0453 -41.8626,0.0751 -42.7013,0.23438 z m 81.7698,49.85764 -0.094,37.10258 -40.1246,0.12028 -40.1548,0.0797 0,-37.18228 0,-37.18229 40.218,0 40.218,0 -0.063,37.06197 z"
/>
<path
d="m 43.1492000000001,67.427927 c -10.8541,-1.509624 -20.8823,-6.488708 -27.3359,-13.57093 -0.923,-1.013597 -1.9697,-2.242405 -2.3272,-2.730635 l -0.6498,-0.889132 0.6672,-0.919875 c 2.2117,-3.049281 6.2676,-6.746067 10.1236,-9.225414 6.756,-4.345481 14.9475,-6.93245 23.2718,-7.349679 11.1244,-0.559116 21.0023,1.879947 29.5164,7.284144 3.8826,2.463721 7.9961,6.183954 10.1868,9.210978 l 0.735,1.014824 -1.2382,1.592046 c -1.6215,2.085531 -5.5884,5.773268 -8.1594,7.585342 -5.9036,4.161514 -13.1656,6.924033 -21.017,7.997104 -3.0329,0.414829 -10.7972,0.414829 -13.7733,0 z"
id="path4224"
style="fill:#ffffff;stroke:#303030;stroke-width:4.55178261;stroke-opacity:1"
/>
<path
style="fill:#303030"
id="path4220"
d="m 47.2682,58.001081 c -3.0906,-0.942649 -5.7734,-4.492782 -5.7734,-7.639998 0,-3.242908 2.6956,-6.726866 5.91,-7.638894 2.153,-0.611417 3.0284,-0.617426 5.0769,0 7.0457,2.008013 7.9439,11.56409 1.385,14.740211 -2.0697,1.002211 -4.4968,1.212691 -6.5985,0.571178 z"
/>
<path
id="path4195"
style="fill:#ffffff;stroke:#303030;stroke-width:4.55178261;stroke-opacity:1"
d="m 43.1492000000001,67.427927 c -10.8541,-1.509624 -20.8823,-6.488708 -27.3359,-13.57093 -0.923,-1.013597 -1.9697,-2.242405 -2.3272,-2.730635 l -0.6498,-0.889132 0.6672,-0.919875 c 2.2117,-3.049281 6.2676,-6.746067 10.1236,-9.225414 6.756,-4.345481 14.9475,-6.93245 23.2718,-7.349679 11.1244,-0.559116 21.0023,1.879947 29.5164,7.284144 3.8826,2.463721 7.9961,6.183954 10.1868,9.210978 l 0.735,1.014824 -1.2382,1.592046 c -1.6215,2.085531 -5.5884,5.773268 -8.1594,7.585342 -5.9036,4.161514 -13.1656,6.924033 -21.017,7.997104 -3.0329,0.414829 -10.7972,0.414829 -13.7733,0 z"
/>
<path
d="m 54.5669,65.282221 c 4.5948,-1.327435 8.24,-4.319002 10.2913,-8.448021 2.2126,-4.451351 2.1283,-9.037268 -0.2521,-13.645477 -1.9174,-3.712412 -5.1126,-6.357095 -9.4214,-7.798774 -1.7681,-0.589177 -2.3162,-0.66313 -5.0815,-0.657717 -2.7066,0.0035 -3.3592,0.08417 -5.1374,0.652909 -10.4526,3.324639 -14.5561,15.382888 -8.1529,23.957828 2.3666,3.169551 5.7359,5.271374 9.9421,6.200797 1.8771,0.414829 5.9412,0.276524 7.8119,-0.264523 z"
id="path4197"
style="fill:#c0c0c0;fill-opacity:1;stroke:#303030;stroke-width:2.24002123;stroke-opacity:1"
/>
<path
d="m 47.2682,58.001081 c -3.0906,-0.942649 -5.7734,-4.492782 -5.7734,-7.639998 0,-3.242908 2.6956,-6.726866 5.91,-7.638894 2.153,-0.611417 3.0284,-0.617426 5.0769,0 7.0457,2.008013 7.9439,11.56409 1.385,14.740211 -2.0697,1.002211 -4.4968,1.212691 -6.5985,0.571178 z"
style="fill:#303030"
id="path4199"
/>
</svg>
