<?xml version="1.0" encoding="UTF-8" standalone="no"?>
<svg
xmlns:cc="http://creativecommons.org/ns#"
xmlns:svg="http://www.w3.org/2000/svg"
xmlns="http://www.w3.org/2000/svg"
xmlns:rdf="http://www.w3.org/1999/02/22-rdf-syntax-ns#"
xmlns:dc="http://purl.org/dc/elements/1.1/"
xmlns:sodipodi="http://sodipodi.sourceforge.net/DTD/sodipodi-0.dtd"
xmlns:inkscape="http://www.inkscape.org/namespaces/inkscape"
>
<circle
r="48.038498"
cx="50"
cy="50"
style="fill:#ffffff;fill-opacity:1;stroke:#c0c0c0;stroke-width:3.9230032;stroke-opacity:1"
id="path3900"
/>
<path
d="m 86.16054,43.9897000000001 a 11.188986,11.188986 0 0 1 -8.22525,10.7894 11.188986,11.188986 0 0 1 -12.58265,-5.0736 11.188986,11.188986 0 0 1 1.55947,-13.4771 11.188986,11.188986 0 0 1 13.4088,-2.0661"
id="path4172"
style="fill:none;stroke:#c0c0c0;stroke-width:7.79808378;stroke-opacity:1"
/>
<path
style="fill:none;stroke:#de1818;stroke-width:6.23846674;stroke-opacity:1"
id="path4142"
d="m 86.16054,43.9897000000001 a 11.188986,11.188986 0 0 1 -8.23442,10.7919 11.188986,11.188986 0 0 1 -12.58319,-5.0925 11.188986,11.188986 0 0 1 1.58899,-13.4812 11.188986,11.188986 0 0 1 13.42236,-2.0273"
/>
<path
id="path3737"
style="fill:none;stroke:#c0c0c0;stroke-width:0.74141884;stroke-opacity:1"
d="m 82.16514,30.6812 -3.5713,6.8931"
/>
<path
d="m 85.43134,39.1632999999999 a 11.188986,11.188986 0 0 1 0.68212,5.3566"
style="fill:none;stroke:#c0c0c0;stroke-width:7.79808378;stroke-opacity:1"
id="path3741"
/>
<path
id="rect4776"
style="fill:#de1818;fill-opacity:1;stroke:#c0c0c0;stroke-width:0.76630473;stroke-opacity:1"
d="m 76.8773,41.1217999999999 11.51426,-2.6117 1.17802,5.2822 -11.51426,2.6118 z"
/>
<path
d="m 85.37285,39.8658 a 11.188986,11.188986 0 0 1 0.37545,7.1339"
id="path3739"
style="fill:none;stroke:#de1818;stroke-width:6.23846674;stroke-opacity:1"
/>
<path
style="fill:none;stroke:#c0c0c0;stroke-width:7.79808378;stroke-opacity:1"
id="path3873"
d="m 61.20668,43.9897000000001 a 11.188986,11.188986 0 0 1 -8.22525,10.7894 11.188986,11.188986 0 0 1 -12.58265,-5.0736 11.188986,11.188986 0 0 1 1.55947,-13.4771 11.188986,11.188986 0 0 1 13.4088,-2.0661"
/>
<path
d="m 61.20668,43.9897000000001 a 11.188986,11.188986 0 0 1 -8.23442,10.7919 11.188986,11.188986 0 0 1 -12.58318,-5.0925 11.188986,11.188986 0 0 1 1.58898,-13.4812 11.188986,11.188986 0 0 1 13.42237,-2.0273"
id="path3875"
style="fill:none;stroke:#000000;stroke-width:6.23846674;stroke-opacity:1"
/>
<path
d="m 57.10424,30.6812 -3.5714,6.8931"
id="path3877"
style="fill:none;stroke:#c0c0c0;stroke-width:0.74141884;stroke-opacity:1"
/>
<path
id="path3879"
style="fill:none;stroke:#c0c0c0;stroke-width:7.79808378;stroke-opacity:1"
d="m 60.47741,39.1632999999999 a 11.188986,11.188986 0 0 1 0.68213,5.3566"
/>
<path
id="rect3881"
style="fill:#000000;fill-opacity:1;stroke:#c0c0c0;stroke-width:0.76630473;stroke-opacity:1"
d="m 51.92329,41.1217999999999 11.51426,-2.6118 1.17799,5.2822 -11.51425,2.6118 z"
/>
<path
d="m 60.41885,39.8655000000001 a 11.188986,11.188986 0 0 1 0.37541,7.1339"
id="path3883"
style="fill:none;stroke:#000000;stroke-width:6.23846674;stroke-opacity:1"
/>
<path
style="fill:none;stroke:#c0c0c0;stroke-width:7.79808378;stroke-opacity:1"
id="path3887"
d="m 36.2527,43.9897000000001 a 11.188986,11.188986 0 0 1 -8.22525,10.7894 11.188986,11.188986 0 0 1 -12.58265,-5.0736 11.188986,11.188986 0 0 1 1.55947,-13.4771 11.188986,11.188986 0 0 1 13.4088,-2.0661"
/>
<path
d="m 36.2527,43.9897000000001 a 11.188986,11.188986 0 0 1 -8.23442,10.7919 11.188986,11.188986 0 0 1 -12.58318,-5.0925 11.188986,11.188986 0 0 1 1.58898,-13.4812 11.188986,11.188986 0 0 1 13.42237,-2.0273"
style="fill:none;stroke:#00298c;stroke-width:6.23846674;stroke-opacity:1"
id="path3889"
/>
<path
d="m 32.08754,30.6497999999999 -3.5714,6.8931"
style="fill:none;stroke:#c0c0c0;stroke-width:0.74141884;stroke-opacity:1"
id="path3891"
/>
<path
id="path3893"
style="fill:none;stroke:#c0c0c0;stroke-width:7.79808378;stroke-opacity:1"
d="m 35.52358,39.1632999999999 a 11.188986,11.188986 0 0 1 0.68215,5.3567"
/>
<path
id="rect3895"
style="fill:#00298c;fill-opacity:1;stroke:#c0c0c0;stroke-width:0.76630473;stroke-opacity:1"
d="m 26.9695,41.1219000000001 11.51425,-2.6118 1.178,5.2821 -11.51425,2.6118 z"
/>
<path
d="m 35.46497,39.8655000000001 a 11.188986,11.188986 0 0 1 0.3754,7.1339"
style="fill:none;stroke:#00298c;stroke-width:6.23846674;stroke-opacity:1"
id="path3897"
/>
<path
id="path3901"
style="fill:none;stroke:#c0c0c0;stroke-width:7.79808378;stroke-opacity:1"
d="m 73.68349,62.7052000000001 a 11.188986,11.188986 0 0 1 -8.22525,10.7893 11.188986,11.188986 0 0 1 -12.58266,-5.0736 11.188986,11.188986 0 0 1 1.55948,-13.4771 11.188986,11.188986 0 0 1 13.4088,-2.066"
/>
<path
id="path3903"
style="fill:none;stroke:#087b39;stroke-width:6.23846674;stroke-opacity:1"
d="m 73.68349,62.7052000000001 a 11.188986,11.188986 0 0 1 -8.23442,10.7918 11.188986,11.188986 0 0 1 -12.58319,-5.0924 11.188986,11.188986 0 0 1 1.58899,-13.4813 11.188986,11.188986 0 0 1 13.42236,-2.0273"
/>
<path
id="path3905-4"
style="fill:none;stroke:#c0c0c0;stroke-width:0.74141884;stroke-opacity:1"
d="m 69.58114,49.3966 -3.5714,6.8931"
/>
<path
id="path3907-1"
style="fill:none;stroke:#c0c0c0;stroke-width:7.79808378;stroke-opacity:1"
d="m 72.95445,57.8788 a 11.188986,11.188986 0 0 1 0.68213,5.3566"
/>
<path
id="rect3909"
style="fill:#087b39;fill-opacity:1;stroke:#c0c0c0;stroke-width:0.76630473;stroke-opacity:1"
d="m 64.40028,59.8372999999999 11.51426,-2.6118 1.178,5.2822 -11.51426,2.6117 z"
/>
<path
style="fill:none;stroke:#087b39;stroke-width:6.23846674;stroke-opacity:1"
id="path3911"
d="m 72.8958,58.5809999999999 a 11.188986,11.188986 0 0 1 0.37541,7.1338"
/>
<path
id="path3915-3"
style="fill:none;stroke:#c0c0c0;stroke-width:7.79808378;stroke-opacity:1"
d="m 48.7297600000001,62.7052000000001 a 11.188986,11.188986 0 0 1 -8.22526,10.7893 11.188986,11.188986 0 0 1 -12.58265,-5.0736 11.188986,11.188986 0 0 1 1.55947,-13.4771 11.188986,11.188986 0 0 1 13.4088,-2.066"
/>
<path
style="fill:none;stroke:#ffef08;stroke-width:6.23846674;stroke-opacity:1"
id="path3917"
d="m 48.7297600000001,62.7052000000001 a 11.188986,11.188986 0 0 1 -8.23443,10.7918 11.188986,11.188986 0 0 1 -12.58318,-5.0924 11.188986,11.188986 0 0 1 1.58899,-13.4813 11.188986,11.188986 0 0 1 13.42236,-2.0273"
/>
<path
id="path3919"
style="fill:none;stroke:#c0c0c0;stroke-width:0.74141884;stroke-opacity:1"
d="m 44.7344399999999,49.3966 -3.5714,6.8931"
/>
<path
id="path3921"
style="fill:none;stroke:#c0c0c0;stroke-width:7.79808378;stroke-opacity:1"
d="m 48.0005,57.8788999999999 a 11.188986,11.188986 0 0 1 0.68216,5.3566"
/>
<path
id="rect3923"
style="fill:#ffef08;fill-opacity:1;stroke:#c0c0c0;stroke-width:0.76630473;stroke-opacity:1"
d="m 39.44638,59.8371999999999 11.51427,-2.6118 1.17799,5.2821 -11.51426,2.6118 z"
/>
<path
id="path3925"
style="fill:none;stroke:#ffef08;stroke-width:6.23846674;stroke-opacity:1"
d="m 47.94196,58.5809999999999 a 11.188986,11.188986 0 0 1 0.37541,7.1339"
/>
</svg>
