<?xml version="1.0" encoding="UTF-8" standalone="no"?>
<svg
xmlns:inkscape="http://www.inkscape.org/namespaces/inkscape"
xmlns:sodipodi="http://sodipodi.sourceforge.net/DTD/sodipodi-0.dtd"
xmlns:dc="http://purl.org/dc/elements/1.1/"
xmlns="http://www.w3.org/2000/svg"
xmlns:rdf="http://www.w3.org/1999/02/22-rdf-syntax-ns#"
xmlns:svg="http://www.w3.org/2000/svg"
xmlns:cc="http://creativecommons.org/ns#"
>
<path
id="path4232"
style="font-style:normal;font-variant:normal;font-weight:bold;font-stretch:normal;font-size:32.41279602px;line-height:100%;font-family:'Courier New';-inkscape-font-specification:'Courier New Bold';letter-spacing:0px;word-spacing:0px;fill:#008444;fill-opacity:1;stroke:none;stroke-width:1px;stroke-opacity:1"
d="m 11.8353,19.4890799999999 0,-0.72126 q -1.2835,0.61608 -2.8338,0.9166 -1.5503,0.31556 -2.8172,0.31556 -2.7504,0 -4.4673,-1.3073 -1.717,-1.32231 -1.717,-2.9151 0,-1.93838 2.1837,-3.59128 2.2003,-1.66792 6.0677,-1.66792 1.5503,0 3.5839,0.30053 l 0,-0.73629 q 0,-0.69122 -0.6668,-1.12698 -0.6501,-0.43576 -2.5004,-0.43576 -1.517,0 -3.934,0.54095 -0.9001,0.19534 -1.4002,0.19534 -0.6834,0 -1.1669,-0.43577 -0.4667,-0.45078 -0.4667,-1.14199 0,-0.39068 0.1666,-0.67618 0.1668,-0.2855 0.4668,-0.4508 0.3,-0.18031 1.2503,-0.42073 1.2668,-0.31555 2.5837,-0.49587 1.3169,-0.19534 2.3837,-0.19534 3.1839,0 4.9341,1.24718 1.7671,1.23216 1.7671,3.38092 l 0,6.3411 0.5834,0 q 1.2336,0 1.7503,0.43576 0.5334,0.42074 0.5334,1.11194 0,0.67619 -0.5334,1.11195 -0.5167,0.42074 -1.7503,0.42074 l -4.0007,0 z m 0,-5.51466 q -2.0504,-0.36062 -3.7839,-0.36062 -2.0837,0 -3.584,0.9166 -0.9335,0.58602 -0.9335,1.18708 0,0.43577 0.4501,0.70623 0.8334,0.49587 2.2837,0.49587 1.2335,0 2.7838,-0.43576 1.567,-0.43576 2.7838,-1.18708 l 0,-1.32232 z"
/>
<path
style="font-style:normal;font-variant:normal;font-weight:bold;font-stretch:normal;font-size:32.41279602px;line-height:100%;font-family:'Courier New';-inkscape-font-specification:'Courier New Bold';letter-spacing:0px;word-spacing:0px;fill:#008444;fill-opacity:1;stroke:none;stroke-width:1px;stroke-opacity:1"
id="path4234"
d="m 32.3053,19.4890799999999 0,-0.72126 q -1.2835,0.61608 -2.8337,0.9166 -1.5503,0.31556 -2.8172,0.31556 -2.7505,0 -4.4674,-1.3073 -1.7169,-1.32231 -1.7169,-2.9151 0,-1.93838 2.1836,-3.59128 2.2005,-1.66792 6.0677,-1.66792 1.5503,0 3.5839,0.30053 l 0,-0.73629 q 0,-0.69122 -0.6667,-1.12698 -0.6501,-0.43576 -2.5004,-0.43576 -1.5169,0 -3.934,0.54095 -0.9001,0.19534 -1.4002,0.19534 -0.6835,0 -1.1669,-0.43577 -0.4667,-0.45078 -0.4667,-1.14199 0,-0.39068 0.1666,-0.67618 0.1667,-0.2855 0.4668,-0.4508 0.3001,-0.18031 1.2502,-0.42073 1.2669,-0.31555 2.5838,-0.49587 1.3169,-0.19534 2.3837,-0.19534 3.1839,0 4.9342,1.24718 1.7669,1.23216 1.7669,3.38092 l 0,6.3411 0.5834,0 q 1.2336,0 1.7503,0.43576 0.5334,0.42074 0.5334,1.11194 0,0.67619 -0.5334,1.11195 -0.5167,0.42074 -1.7503,0.42074 l -4.0007,0 z m 0,-5.51466 q -2.0502,-0.36062 -3.7839,-0.36062 -2.0836,0 -3.5839,0.9166 -0.9335,0.58602 -0.9335,1.18708 0,0.43577 0.45,0.70623 0.8335,0.49587 2.2838,0.49587 1.2335,0 2.7838,-0.43576 1.5669,-0.43576 2.7837,-1.18708 l 0,-1.32232 z"
/>
<path
id="path4236"
style="font-style:normal;font-variant:normal;font-weight:bold;font-stretch:normal;font-size:32.41279602px;line-height:100%;font-family:'Courier New';-inkscape-font-specification:'Courier New Bold';letter-spacing:0px;word-spacing:0px;fill:#008444;fill-opacity:1;stroke:none;stroke-width:1px;stroke-opacity:1"
d="m 45.3909000000001,-3.00000000379441e-05 0,6.9121 q 1.2502,-0.73629 2.5337,-1.09692 1.3003,-0.37566 2.6172,-0.37566 3.5505,0 6.0176,2.20887 2.4671,2.20887 2.4671,5.33433 0,2.99024 -2.3504,5.00376 -2.3504,1.9985 -6.201,1.9985 -1.3669,0 -2.6338,-0.31556 -1.2668,-0.31555 -2.4504,-0.93163 l 0,0.75132 -4.0007,0 q -1.2336,0 -1.7669,-0.42074 -0.5168,-0.43576 -0.5168,-1.12697 0,-0.67618 0.5334,-1.09692 0.5335,-0.43576 1.7503,-0.43576 l 0.5834,0 0,-13.32832 -0.5834,0 q -1.2336,0 -1.7669,-0.42075 -0.5168,-0.43576 -0.5168,-1.12697 0,-0.67618 0.5168,-1.09692 0.5333,-0.43576 1.7669,-0.43576 l 4.0007,0 z m 10.2184,13.07288 q 0,-1.90834 -1.4836,-3.23065 -1.4836,-1.32232 -3.634,-1.32232 -2.1337,0 -3.6173,1.32232 -1.4835,1.32231 -1.4835,3.18557 0,1.69797 1.3335,2.79489 1.3336,1.08189 3.7673,1.08189 2.4338,0 3.7673,-1.08189 1.3503,-1.09692 1.3503,-2.74981 z"
/>
<path
style="font-style:normal;font-variant:normal;font-weight:bold;font-stretch:normal;font-size:32.41279602px;line-height:100%;font-family:'Courier New';-inkscape-font-specification:'Courier New Bold';letter-spacing:0px;word-spacing:0px;fill:#008444;fill-opacity:1;stroke:none;stroke-width:1px;stroke-opacity:1"
id="path4238"
d="m 65.8610000000001,-3.00000000379441e-05 0,6.9121 q 1.2502,-0.73629 2.5337,-1.09692 1.3002,-0.37566 2.6171,-0.37566 3.5507,0 6.0177,2.20887 2.4671,2.20887 2.4671,5.33433 0,2.99024 -2.3504,5.00376 -2.3504,1.9985 -6.201,1.9985 -1.367,0 -2.6338,-0.31556 -1.2669,-0.31555 -2.4504,-0.93163 l 0,0.75132 -4.0007,0 q -1.2335,0 -1.767,-0.42074 -0.5167,-0.43576 -0.5167,-1.12697 0,-0.67618 0.5334,-1.09692 0.5335,-0.43576 1.7503,-0.43576 l 0.5834,0 0,-13.32832 -0.5834,0 q -1.2335,0 -1.767,-0.42075 -0.5167,-0.43576 -0.5167,-1.12697 0,-0.67618 0.5167,-1.09692 0.5335,-0.43576 1.767,-0.43576 l 4.0007,0 z m 10.2184,13.07288 q 0,-1.90834 -1.4837,-3.23065 -1.4836,-1.32232 -3.6339,-1.32232 -2.1337,0 -3.6172,1.32232 -1.4836,1.32231 -1.4836,3.18557 0,1.69797 1.3335,2.79489 1.3335,1.08189 3.7673,1.08189 2.4338,0 3.7673,-1.08189 1.3503,-1.09692 1.3503,-2.74981 z"
/>
<path
id="path4240"
style="font-style:normal;font-variant:normal;font-weight:bold;font-stretch:normal;font-size:32.41279602px;line-height:100%;font-family:'Courier New';-inkscape-font-specification:'Courier New Bold';letter-spacing:0px;word-spacing:0px;fill:#008444;fill-opacity:1;stroke:none;stroke-width:1px;stroke-opacity:1"
d="m 93.7156,19.4890799999999 0,-0.72126 q -1.2836,0.61608 -2.8338,0.9166 -1.5502,0.31556 -2.8171,0.31556 -2.7505,0 -4.4674,-1.3073 -1.717,-1.32231 -1.717,-2.9151 0,-1.93838 2.1837,-3.59128 2.2004,-1.66792 6.0677,-1.66792 1.5502,0 3.5839,0.30053 l 0,-0.73629 q 0,-0.69122 -0.6668,-1.12698 -0.6501,-0.43576 -2.5004,-0.43576 -1.5169,0 -3.9339,0.54095 -0.9003,0.19534 -1.4003,0.19534 -0.6835,0 -1.1668,-0.43577 -0.4668,-0.45078 -0.4668,-1.14199 0,-0.39068 0.1667,-0.67618 0.1667,-0.2855 0.4667,-0.4508 0.3001,-0.18031 1.2502,-0.42073 1.2669,-0.31555 2.5838,-0.49587 1.3168,-0.19534 2.3837,-0.19534 3.1839,0 4.9342,1.24718 1.7669,1.23216 1.7669,3.38092 l 0,6.3411 0.5835,0 q 1.2335,0 1.7502,0.43576 0.5335,0.42074 0.5335,1.11194 0,0.67619 -0.5335,1.11195 -0.5167,0.42074 -1.7502,0.42074 l -4.0007,0 z m 0,-5.51466 q -2.0503,-0.36062 -3.784,-0.36062 -2.0837,0 -3.5839,0.9166 -0.9335,0.58602 -0.9335,1.18708 0,0.43577 0.4501,0.70623 0.8335,0.49587 2.2837,0.49587 1.2336,0 2.7838,-0.43576 1.5669,-0.43576 2.7838,-1.18708 l 0,-1.32232 z"
/>
<path
id="path4221"
style="font-style:normal;font-variant:normal;font-weight:bold;font-stretch:normal;font-size:32.41279602px;line-height:100%;font-family:'Courier New';-inkscape-font-specification:'Courier New Bold';letter-spacing:0px;word-spacing:0px;fill:#0a6b9e;fill-opacity:1;stroke:none;stroke-width:1px;stroke-opacity:1"
d="m 11.8353,46.98909 0,-0.72126 q -1.2835,0.61608 -2.8338,0.91661 -1.5503,0.31554 -2.8172,0.31554 -2.7504,0 -4.4673,-1.30728 -1.717,-1.32231 -1.717,-2.9151 0,-1.93839 2.1837,-3.59129 2.2003,-1.66791 6.0677,-1.66791 1.5503,0 3.5839,0.30052 l 0,-0.73628 q 0,-0.69122 -0.6668,-1.12698 -0.6501,-0.43577 -2.5004,-0.43577 -1.517,0 -3.934,0.54096 -0.9001,0.19533 -1.4002,0.19533 -0.6834,0 -1.1669,-0.43576 -0.4667,-0.45078 -0.4667,-1.14199 0,-0.39069 0.1666,-0.67619 0.1668,-0.28549 0.4668,-0.45079 0.3,-0.18032 1.2503,-0.42073 1.2668,-0.31556 2.5837,-0.49587 1.3169,-0.19534 2.3837,-0.19534 3.1839,0 4.9341,1.24718 1.7671,1.23216 1.7671,3.38092 l 0,6.3411 0.5834,0 q 1.2336,0 1.7503,0.43576 0.5334,0.42073 0.5334,1.11194 0,0.67619 -0.5334,1.11195 -0.5167,0.42073 -1.7503,0.42073 l -4.0007,0 z m 0,-5.51465 q -2.0504,-0.36063 -3.7839,-0.36063 -2.0837,0 -3.584,0.91661 -0.9335,0.58602 -0.9335,1.18708 0,0.43576 0.4501,0.70623 0.8334,0.49587 2.2837,0.49587 1.2335,0 2.7838,-0.43577 1.567,-0.43576 2.7838,-1.18707 l 0,-1.32232 z"
/>
<path
d="m 32.3053,46.98909 0,-0.72126 q -1.2835,0.61608 -2.8337,0.91661 -1.5503,0.31554 -2.8172,0.31554 -2.7505,0 -4.4674,-1.30728 -1.7169,-1.32231 -1.7169,-2.9151 0,-1.93839 2.1836,-3.59129 2.2005,-1.66791 6.0677,-1.66791 1.5503,0 3.5839,0.30052 l 0,-0.73628 q 0,-0.69122 -0.6667,-1.12698 -0.6501,-0.43577 -2.5004,-0.43577 -1.5169,0 -3.934,0.54096 -0.9001,0.19533 -1.4002,0.19533 -0.6835,0 -1.1669,-0.43576 -0.4667,-0.45078 -0.4667,-1.14199 0,-0.39069 0.1666,-0.67619 0.1667,-0.28549 0.4668,-0.45079 0.3001,-0.18032 1.2502,-0.42073 1.2669,-0.31556 2.5838,-0.49587 1.3169,-0.19534 2.3837,-0.19534 3.1839,0 4.9342,1.24718 1.7669,1.23216 1.7669,3.38092 l 0,6.3411 0.5834,0 q 1.2336,0 1.7503,0.43576 0.5334,0.42073 0.5334,1.11194 0,0.67619 -0.5334,1.11195 -0.5167,0.42073 -1.7503,0.42073 l -4.0007,0 z m 0,-5.51465 q -2.0502,-0.36063 -3.7839,-0.36063 -2.0836,0 -3.5839,0.91661 -0.9335,0.58602 -0.9335,1.18708 0,0.43576 0.45,0.70623 0.8335,0.49587 2.2838,0.49587 1.2335,0 2.7838,-0.43577 1.5669,-0.43576 2.7837,-1.18707 l 0,-1.32232 z"
id="path4223"
style="font-style:normal;font-variant:normal;font-weight:bold;font-stretch:normal;font-size:32.41279602px;line-height:100%;font-family:'Courier New';-inkscape-font-specification:'Courier New Bold';letter-spacing:0px;word-spacing:0px;fill:#0a6b9e;fill-opacity:1;stroke:none;stroke-width:1px;stroke-opacity:1"
/>
<path
d="m 52.7754,46.98909 0,-0.72126 q -1.2835,0.61608 -2.8338,0.91661 -1.5502,0.31554 -2.8171,0.31554 -2.7504,0 -4.4674,-1.30728 -1.7169,-1.32231 -1.7169,-2.9151 0,-1.93839 2.1837,-3.59129 2.2003,-1.66791 6.0676,-1.66791 1.5503,0 3.5839,0.30052 l 0,-0.73628 q 0,-0.69122 -0.6667,-1.12698 -0.6502,-0.43577 -2.5004,-0.43577 -1.5169,0 -3.9341,0.54096 -0.9001,0.19533 -1.4002,0.19533 -0.6834,0 -1.1669,-0.43576 -0.4667,-0.45078 -0.4667,-1.14199 0,-0.39069 0.1668,-0.67619 0.1666,-0.28549 0.4667,-0.45079 0.3,-0.18032 1.2502,-0.42073 1.2668,-0.31556 2.5837,-0.49587 1.3169,-0.19534 2.3838,-0.19534 3.1839,0 4.9342,1.24718 1.7669,1.23216 1.7669,3.38092 l 0,6.3411 0.5834,0 q 1.2336,0 1.7503,0.43576 0.5335,0.42073 0.5335,1.11194 0,0.67619 -0.5335,1.11195 -0.5167,0.42073 -1.7503,0.42073 l -4.0007,0 z m 0,-5.51465 q -2.0503,-0.36063 -3.7839,-0.36063 -2.0837,0 -3.5839,0.91661 -0.9335,0.58602 -0.9335,1.18708 0,0.43576 0.45,0.70623 0.8336,0.49587 2.2838,0.49587 1.2335,0 2.7837,-0.43577 1.567,-0.43576 2.7838,-1.18707 l 0,-1.32232 z"
style="font-style:normal;font-variant:normal;font-weight:bold;font-stretch:normal;font-size:32.41279602px;line-height:100%;font-family:'Courier New';-inkscape-font-specification:'Courier New Bold';letter-spacing:0px;word-spacing:0px;fill:#0a6b9e;fill-opacity:1;stroke:none;stroke-width:1px;stroke-opacity:1"
id="path4225"
/>
<path
d="m 65.8610000000001,27.4999800000001 0,6.9121 q 1.2502,-0.73628 2.5337,-1.09692 1.3002,-0.37565 2.6171,-0.37565 3.5507,0 6.0177,2.20886 2.4671,2.20887 2.4671,5.33434 0,2.99023 -2.3504,5.00376 -2.3504,1.99849 -6.201,1.99849 -1.367,0 -2.6338,-0.31555 -1.2669,-0.31556 -2.4504,-0.93163 l 0,0.75131 -4.0007,0 q -1.2335,0 -1.767,-0.42073 -0.5167,-0.43576 -0.5167,-1.12697 0,-0.67619 0.5334,-1.09692 0.5335,-0.43576 1.7503,-0.43576 l 0.5834,0 0,-13.32833 -0.5834,0 q -1.2335,0 -1.767,-0.42074 -0.5167,-0.43576 -0.5167,-1.12697 0,-0.67618 0.5167,-1.09692 0.5335,-0.43577 1.767,-0.43577 l 4.0007,0 z m 10.2184,13.07288 q 0,-1.90833 -1.4837,-3.23065 -1.4836,-1.32232 -3.6339,-1.32232 -2.1337,0 -3.6172,1.32232 -1.4836,1.32232 -1.4836,3.18558 0,1.69797 1.3335,2.79489 1.3335,1.08189 3.7673,1.08189 2.4338,0 3.7673,-1.08189 1.3503,-1.09692 1.3503,-2.74982 z"
id="path4227"
style="font-style:normal;font-variant:normal;font-weight:bold;font-stretch:normal;font-size:32.41279602px;line-height:100%;font-family:'Courier New';-inkscape-font-specification:'Courier New Bold';letter-spacing:0px;word-spacing:0px;fill:#0a6b9e;fill-opacity:1;stroke:none;stroke-width:1px;stroke-opacity:1"
/>
<path
d="m 93.7156,46.98909 0,-0.72126 q -1.2836,0.61608 -2.8338,0.91661 -1.5502,0.31554 -2.8171,0.31554 -2.7505,0 -4.4674,-1.30728 -1.717,-1.32231 -1.717,-2.9151 0,-1.93839 2.1837,-3.59129 2.2004,-1.66791 6.0677,-1.66791 1.5502,0 3.5839,0.30052 l 0,-0.73628 q 0,-0.69122 -0.6668,-1.12698 -0.6501,-0.43577 -2.5004,-0.43577 -1.5169,0 -3.9339,0.54096 -0.9003,0.19533 -1.4003,0.19533 -0.6835,0 -1.1668,-0.43576 -0.4668,-0.45078 -0.4668,-1.14199 0,-0.39069 0.1667,-0.67619 0.1667,-0.28549 0.4667,-0.45079 0.3001,-0.18032 1.2502,-0.42073 1.2669,-0.31556 2.5838,-0.49587 1.3168,-0.19534 2.3837,-0.19534 3.1839,0 4.9342,1.24718 1.7669,1.23216 1.7669,3.38092 l 0,6.3411 0.5835,0 q 1.2335,0 1.7502,0.43576 0.5335,0.42073 0.5335,1.11194 0,0.67619 -0.5335,1.11195 -0.5167,0.42073 -1.7502,0.42073 l -4.0007,0 z m 0,-5.51465 q -2.0503,-0.36063 -3.784,-0.36063 -2.0837,0 -3.5839,0.91661 -0.9335,0.58602 -0.9335,1.18708 0,0.43576 0.4501,0.70623 0.8335,0.49587 2.2837,0.49587 1.2336,0 2.7838,-0.43577 1.5669,-0.43576 2.7838,-1.18707 l 0,-1.32232 z"
id="path4229"
style="font-style:normal;font-variant:normal;font-weight:bold;font-stretch:normal;font-size:32.41279602px;line-height:100%;font-family:'Courier New';-inkscape-font-specification:'Courier New Bold';letter-spacing:0px;word-spacing:0px;fill:#0a6b9e;fill-opacity:1;stroke:none;stroke-width:1px;stroke-opacity:1"
/>
<path
d="m 11.8353,71.98909 0,-0.72128 q -1.2835,0.61608 -2.8338,0.91658 -1.5503,0.31559 -2.8172,0.31559 -2.7504,0 -4.4673,-1.30727 -1.717,-1.32238 -1.717,-2.91515 0,-1.93837 2.1837,-3.59124 2.2003,-1.66797 6.0677,-1.66797 1.5503,0 3.5839,0.30059 l 0,-0.73628 q 0,-0.69129 -0.6668,-1.12698 -0.6501,-0.43579 -2.5004,-0.43579 -1.517,0 -3.934,0.54089 -0.9001,0.19539 -1.4002,0.19539 -0.6834,0 -1.1669,-0.43579 -0.4667,-0.45079 -0.4667,-1.14198 0,-0.39069 0.1666,-0.67619 0.1668,-0.28549 0.4668,-0.45079 0.3,-0.1803 1.2503,-0.42069 1.2668,-0.3156 2.5837,-0.49589 1.3169,-0.1954 2.3837,-0.1954 3.1839,0 4.9341,1.24728 1.7671,1.23208 1.7671,3.38084 l 0,6.34109 0.5834,0 q 1.2336,0 1.7503,0.43579 0.5334,0.42079 0.5334,1.11198 0,0.67619 -0.5334,1.11188 -0.5167,0.42079 -1.7503,0.42079 l -4.0007,0 z m 0,-5.5147 q -2.0504,-0.36059 -3.7839,-0.36059 -2.0837,0 -3.584,0.91658 -0.9335,0.58609 -0.9335,1.18708 0,0.43579 0.4501,0.70628 0.8334,0.4958 2.2837,0.4958 1.2335,0 2.7838,-0.4357 1.567,-0.43579 2.7838,-1.18707 l 0,-1.32238 z"
id="path4206"
style="font-style:normal;font-variant:normal;font-weight:bold;font-stretch:normal;font-size:32.41279602px;line-height:100%;font-family:'Courier New';-inkscape-font-specification:'Courier New Bold';letter-spacing:0px;word-spacing:0px;fill:#ff5a00;fill-opacity:1;stroke:none;stroke-width:1px;stroke-opacity:1"
/>
<path
style="font-style:normal;font-variant:normal;font-weight:bold;font-stretch:normal;font-size:32.41279602px;line-height:100%;font-family:'Courier New';-inkscape-font-specification:'Courier New Bold';letter-spacing:0px;word-spacing:0px;fill:#ff5a00;fill-opacity:1;stroke:none;stroke-width:1px;stroke-opacity:1"
id="path4208"
d="m 32.3053,71.98909 0,-0.72128 q -1.2835,0.61608 -2.8337,0.91658 -1.5503,0.31559 -2.8172,0.31559 -2.7505,0 -4.4674,-1.30727 -1.7169,-1.32238 -1.7169,-2.91515 0,-1.93837 2.1836,-3.59124 2.2005,-1.66797 6.0677,-1.66797 1.5503,0 3.5839,0.30059 l 0,-0.73628 q 0,-0.69129 -0.6667,-1.12698 -0.6501,-0.43579 -2.5004,-0.43579 -1.5169,0 -3.934,0.54089 -0.9001,0.19539 -1.4002,0.19539 -0.6835,0 -1.1669,-0.43579 -0.4667,-0.45079 -0.4667,-1.14198 0,-0.39069 0.1666,-0.67619 0.1667,-0.28549 0.4668,-0.45079 0.3001,-0.1803 1.2502,-0.42069 1.2669,-0.3156 2.5838,-0.49589 1.3169,-0.1954 2.3837,-0.1954 3.1839,0 4.9342,1.24728 1.7669,1.23208 1.7669,3.38084 l 0,6.34109 0.5834,0 q 1.2336,0 1.7503,0.43579 0.5334,0.42079 0.5334,1.11198 0,0.67619 -0.5334,1.11188 -0.5167,0.42079 -1.7503,0.42079 l -4.0007,0 z m 0,-5.5147 q -2.0502,-0.36059 -3.7839,-0.36059 -2.0836,0 -3.5839,0.91658 -0.9335,0.58609 -0.9335,1.18708 0,0.43579 0.45,0.70628 0.8335,0.4958 2.2838,0.4958 1.2335,0 2.7838,-0.4357 1.5669,-0.43579 2.7837,-1.18707 l 0,-1.32238 z"
/>
<path
id="path4210"
style="font-style:normal;font-variant:normal;font-weight:bold;font-stretch:normal;font-size:32.41279602px;line-height:100%;font-family:'Courier New';-inkscape-font-specification:'Courier New Bold';letter-spacing:0px;word-spacing:0px;fill:#ff5a00;fill-opacity:1;stroke:none;stroke-width:1px;stroke-opacity:1"
d="m 52.7754,71.98909 0,-0.72128 q -1.2835,0.61608 -2.8338,0.91658 -1.5502,0.31559 -2.8171,0.31559 -2.7504,0 -4.4674,-1.30727 -1.7169,-1.32238 -1.7169,-2.91515 0,-1.93837 2.1837,-3.59124 2.2003,-1.66797 6.0676,-1.66797 1.5503,0 3.5839,0.30059 l 0,-0.73628 q 0,-0.69129 -0.6667,-1.12698 -0.6502,-0.43579 -2.5004,-0.43579 -1.5169,0 -3.9341,0.54089 -0.9001,0.19539 -1.4002,0.19539 -0.6834,0 -1.1669,-0.43579 -0.4667,-0.45079 -0.4667,-1.14198 0,-0.39069 0.1668,-0.67619 0.1666,-0.28549 0.4667,-0.45079 0.3,-0.1803 1.2502,-0.42069 1.2668,-0.3156 2.5837,-0.49589 1.3169,-0.1954 2.3838,-0.1954 3.1839,0 4.9342,1.24728 1.7669,1.23208 1.7669,3.38084 l 0,6.34109 0.5834,0 q 1.2336,0 1.7503,0.43579 0.5335,0.42079 0.5335,1.11198 0,0.67619 -0.5335,1.11188 -0.5167,0.42079 -1.7503,0.42079 l -4.0007,0 z m 0,-5.5147 q -2.0503,-0.36059 -3.7839,-0.36059 -2.0837,0 -3.5839,0.91658 -0.9335,0.58609 -0.9335,1.18708 0,0.43579 0.45,0.70628 0.8336,0.4958 2.2838,0.4958 1.2335,0 2.7837,-0.4357 1.567,-0.43579 2.7838,-1.18707 l 0,-1.32238 z"
/>
<path
style="font-style:normal;font-variant:normal;font-weight:bold;font-stretch:normal;font-size:32.41279602px;line-height:100%;font-family:'Courier New';-inkscape-font-specification:'Courier New Bold';letter-spacing:0px;word-spacing:0px;fill:#ff5a00;fill-opacity:1;stroke:none;stroke-width:1px;stroke-opacity:1"
id="path4212"
d="m 73.2456,71.98909 0,-0.72128 q -1.2836,0.61608 -2.8339,0.91658 -1.5502,0.31559 -2.8171,0.31559 -2.7504,0 -4.4675,-1.30727 -1.7169,-1.32238 -1.7169,-2.91515 0,-1.93837 2.1837,-3.59124 2.2004,-1.66797 6.0676,-1.66797 1.5503,0 3.5841,0.30059 l 0,-0.73628 q 0,-0.69129 -0.6668,-1.12698 -0.6501,-0.43579 -2.5005,-0.43579 -1.5169,0 -3.934,0.54089 -0.9001,0.19539 -1.4002,0.19539 -0.6835,0 -1.1668,-0.43579 -0.4668,-0.45079 -0.4668,-1.14198 0,-0.39069 0.1667,-0.67619 0.1667,-0.28549 0.4667,-0.45079 0.3001,-0.1803 1.2502,-0.42069 1.2669,-0.3156 2.5838,-0.49589 1.3169,-0.1954 2.3837,-0.1954 3.1839,0 4.9342,1.24728 1.767,1.23208 1.767,3.38084 l 0,6.34109 0.5834,0 q 1.2335,0 1.7503,0.43579 0.5334,0.42079 0.5334,1.11198 0,0.67619 -0.5334,1.11188 -0.5168,0.42079 -1.7503,0.42079 l -4.0006,0 z m 0,-5.5147 q -2.0504,-0.36059 -3.7841,-0.36059 -2.0836,0 -3.5839,0.91658 -0.9335,0.58609 -0.9335,1.18708 0,0.43579 0.4502,0.70628 0.8334,0.4958 2.2836,0.4958 1.2336,0 2.7838,-0.4357 1.5669,-0.43579 2.7839,-1.18707 l 0,-1.32238 z"
/>
<path
d="m 93.7156,71.98909 0,-0.72128 q -1.2836,0.61608 -2.8338,0.91658 -1.5502,0.31559 -2.8171,0.31559 -2.7505,0 -4.4674,-1.30727 -1.717,-1.32238 -1.717,-2.91515 0,-1.93837 2.1837,-3.59124 2.2004,-1.66797 6.0677,-1.66797 1.5502,0 3.5839,0.30059 l 0,-0.73628 q 0,-0.69129 -0.6668,-1.12698 -0.6501,-0.43579 -2.5004,-0.43579 -1.5169,0 -3.9339,0.54089 -0.9003,0.19539 -1.4003,0.19539 -0.6835,0 -1.1668,-0.43579 -0.4668,-0.45079 -0.4668,-1.14198 0,-0.39069 0.1667,-0.67619 0.1667,-0.28549 0.4667,-0.45079 0.3001,-0.1803 1.2502,-0.42069 1.2669,-0.3156 2.5838,-0.49589 1.3168,-0.1954 2.3837,-0.1954 3.1839,0 4.9342,1.24728 1.7669,1.23208 1.7669,3.38084 l 0,6.34109 0.5835,0 q 1.2335,0 1.7502,0.43579 0.5335,0.42079 0.5335,1.11198 0,0.67619 -0.5335,1.11188 -0.5167,0.42079 -1.7502,0.42079 l -4.0007,0 z m 0,-5.5147 q -2.0503,-0.36059 -3.784,-0.36059 -2.0837,0 -3.5839,0.91658 -0.9335,0.58609 -0.9335,1.18708 0,0.43579 0.4501,0.70628 0.8335,0.4958 2.2837,0.4958 1.2336,0 2.7838,-0.4357 1.5669,-0.43579 2.7838,-1.18707 l 0,-1.32238 z"
id="path4217"
style="font-style:normal;font-variant:normal;font-weight:bold;font-stretch:normal;font-size:32.41279602px;line-height:100%;font-family:'Courier New';-inkscape-font-specification:'Courier New Bold';letter-spacing:0px;word-spacing:0px;fill:#ff5a00;fill-opacity:1;stroke:none;stroke-width:1px;stroke-opacity:1"
/>
<path
id="path4192"
style="font-style:normal;font-variant:normal;font-weight:bold;font-stretch:normal;font-size:32.41279602px;line-height:100%;font-family:'Courier New';-inkscape-font-specification:'Courier New Bold';letter-spacing:0px;word-spacing:0px;fill:#ffcc00;fill-opacity:1;stroke:none;stroke-width:1px;stroke-opacity:1"
d="m 11.8353,99.48911 0,-0.72129 q -1.2835,0.61609 -2.8338,0.91659 -1.5503,0.31559 -2.8172,0.31559 -2.7504,0 -4.4673,-1.30728 -1.717,-1.32237 -1.717,-2.91515 0,-1.93836 2.1837,-3.59123 2.2003,-1.66797 6.0677,-1.66797 1.5503,0 3.5839,0.30059 l 0,-0.73629 q 0,-0.69128 -0.6668,-1.12698 -0.6501,-0.43579 -2.5004,-0.43579 -1.517,0 -3.934,0.54089 -0.9001,0.1954 -1.4002,0.1954 -0.6834,0 -1.1669,-0.43579 -0.4667,-0.4508 -0.4667,-1.14198 0,-0.3907 0.1666,-0.67619 0.1668,-0.2855 0.4668,-0.45079 0.3,-0.1803 1.2503,-0.4207 1.2668,-0.31559 2.5837,-0.49589 1.3169,-0.19539 2.3837,-0.19539 3.1839,0 4.9341,1.24727 1.7671,1.23208 1.7671,3.38085 l 0,6.34108 0.5834,0 q 1.2336,0 1.7503,0.43579 0.5334,0.42079 0.5334,1.11198 0,0.67619 -0.5334,1.11189 -0.5167,0.42079 -1.7503,0.42079 l -4.0007,0 z m 0,-5.5147 q -2.0504,-0.3606 -3.7839,-0.3606 -2.0837,0 -3.584,0.91659 -0.9335,0.58608 -0.9335,1.18708 0,0.43579 0.4501,0.70628 0.8334,0.4958 2.2837,0.4958 1.2335,0 2.7838,-0.4357 1.567,-0.43579 2.7838,-1.18708 l 0,-1.32237 z"
/>
<path
id="path4194"
style="font-style:normal;font-variant:normal;font-weight:bold;font-stretch:normal;font-size:32.41279602px;line-height:100%;font-family:'Courier New';-inkscape-font-specification:'Courier New Bold';letter-spacing:0px;word-spacing:0px;fill:#ffcc00;fill-opacity:1;stroke:none;stroke-width:1px;stroke-opacity:1"
d="m 32.3053,99.48911 0,-0.72129 q -1.2835,0.61609 -2.8337,0.91659 -1.5503,0.31559 -2.8172,0.31559 -2.7505,0 -4.4674,-1.30728 -1.7169,-1.32237 -1.7169,-2.91515 0,-1.93836 2.1836,-3.59123 2.2005,-1.66797 6.0677,-1.66797 1.5503,0 3.5839,0.30059 l 0,-0.73629 q 0,-0.69128 -0.6667,-1.12698 -0.6501,-0.43579 -2.5004,-0.43579 -1.5169,0 -3.934,0.54089 -0.9001,0.1954 -1.4002,0.1954 -0.6835,0 -1.1669,-0.43579 -0.4667,-0.4508 -0.4667,-1.14198 0,-0.3907 0.1666,-0.67619 0.1667,-0.2855 0.4668,-0.45079 0.3001,-0.1803 1.2502,-0.4207 1.2669,-0.31559 2.5838,-0.49589 1.3169,-0.19539 2.3837,-0.19539 3.1839,0 4.9342,1.24727 1.7669,1.23208 1.7669,3.38085 l 0,6.34108 0.5834,0 q 1.2336,0 1.7503,0.43579 0.5334,0.42079 0.5334,1.11198 0,0.67619 -0.5334,1.11189 -0.5167,0.42079 -1.7503,0.42079 l -4.0007,0 z m 0,-5.5147 q -2.0502,-0.3606 -3.7839,-0.3606 -2.0836,0 -3.5839,0.91659 -0.9335,0.58608 -0.9335,1.18708 0,0.43579 0.45,0.70628 0.8335,0.4958 2.2838,0.4958 1.2335,0 2.7838,-0.4357 1.5669,-0.43579 2.7837,-1.18708 l 0,-1.32237 z"
/>
<path
id="path4198"
style="font-style:normal;font-variant:normal;font-weight:bold;font-stretch:normal;font-size:32.41279602px;line-height:100%;font-family:'Courier New';-inkscape-font-specification:'Courier New Bold';letter-spacing:0px;word-spacing:0px;fill:#ffcc00;fill-opacity:1;stroke:none;stroke-width:1px;stroke-opacity:1"
d="m 45.3909000000001,79.99995 0,6.91218 q 1.2502,-0.73639 2.5337,-1.09698 1.3003,-0.37569 2.6172,-0.37569 3.5505,0 6.0176,2.20895 2.4671,2.20887 2.4671,5.33431 0,2.99025 -2.3504,5.00372 -2.3504,1.99856 -6.201,1.99856 -1.3669,0 -2.6338,-0.3156 -1.2668,-0.31559 -2.4504,-0.93158 l 0,0.75129 -4.0007,0 q -1.2336,0 -1.7669,-0.42079 -0.5168,-0.4357 -0.5168,-1.12698 0,-0.6761 0.5334,-1.09689 0.5335,-0.43579 1.7503,-0.43579 l 0.5834,0 0,-13.32826 -0.5834,0 q -1.2336,0 -1.7669,-0.42079 -0.5168,-0.4357 -0.5168,-1.12698 0,-0.67619 0.5168,-1.09689 0.5333,-0.43579 1.7669,-0.43579 l 4.0007,0 z m 10.2184,13.07287 q 0,-1.90827 -1.4836,-3.23064 -1.4836,-1.32228 -3.634,-1.32228 -2.1337,0 -3.6173,1.32228 -1.4835,1.32237 -1.4835,3.18564 0,1.69797 1.3335,2.79485 1.3336,1.08188 3.7673,1.08188 2.4338,0 3.7673,-1.08188 1.3503,-1.09688 1.3503,-2.74985 z"
/>
<path
style="font-style:normal;font-variant:normal;font-weight:bold;font-stretch:normal;font-size:32.41279602px;line-height:100%;font-family:'Courier New';-inkscape-font-specification:'Courier New Bold';letter-spacing:0px;word-spacing:0px;fill:#ffcc00;fill-opacity:1;stroke:none;stroke-width:1px;stroke-opacity:1"
id="path4201"
d="m 65.8610000000001,79.99995 0,6.91218 q 1.2502,-0.73639 2.5337,-1.09698 1.3002,-0.37569 2.6171,-0.37569 3.5507,0 6.0177,2.20895 2.4671,2.20887 2.4671,5.33431 0,2.99025 -2.3504,5.00372 -2.3504,1.99856 -6.201,1.99856 -1.367,0 -2.6338,-0.3156 -1.2669,-0.31559 -2.4504,-0.93158 l 0,0.75129 -4.0007,0 q -1.2335,0 -1.767,-0.42079 -0.5167,-0.4357 -0.5167,-1.12698 0,-0.6761 0.5334,-1.09689 0.5335,-0.43579 1.7503,-0.43579 l 0.5834,0 0,-13.32826 -0.5834,0 q -1.2335,0 -1.767,-0.42079 -0.5167,-0.4357 -0.5167,-1.12698 0,-0.67619 0.5167,-1.09689 0.5335,-0.43579 1.767,-0.43579 l 4.0007,0 z m 10.2184,13.07287 q 0,-1.90827 -1.4837,-3.23064 -1.4836,-1.32228 -3.6339,-1.32228 -2.1337,0 -3.6172,1.32228 -1.4836,1.32237 -1.4836,3.18564 0,1.69797 1.3335,2.79485 1.3335,1.08188 3.7673,1.08188 2.4338,0 3.7673,-1.08188 1.3503,-1.09688 1.3503,-2.74985 z"
/>
<path
d="m 93.7156,99.48911 0,-0.72129 q -1.2836,0.61609 -2.8338,0.91659 -1.5502,0.31559 -2.8171,0.31559 -2.7505,0 -4.4674,-1.30728 -1.717,-1.32237 -1.717,-2.91515 0,-1.93836 2.1837,-3.59123 2.2004,-1.66797 6.0677,-1.66797 1.5502,0 3.5839,0.30059 l 0,-0.73629 q 0,-0.69128 -0.6668,-1.12698 -0.6501,-0.43579 -2.5004,-0.43579 -1.5169,0 -3.9339,0.54089 -0.9003,0.1954 -1.4003,0.1954 -0.6835,0 -1.1668,-0.43579 -0.4668,-0.4508 -0.4668,-1.14198 0,-0.3907 0.1667,-0.67619 0.1667,-0.2855 0.4667,-0.45079 0.3001,-0.1803 1.2502,-0.4207 1.2669,-0.31559 2.5838,-0.49589 1.3168,-0.19539 2.3837,-0.19539 3.1839,0 4.9342,1.24727 1.7669,1.23208 1.7669,3.38085 l 0,6.34108 0.5835,0 q 1.2335,0 1.7502,0.43579 0.5335,0.42079 0.5335,1.11198 0,0.67619 -0.5335,1.11189 -0.5167,0.42079 -1.7502,0.42079 l -4.0007,0 z m 0,-5.5147 q -2.0503,-0.3606 -3.784,-0.3606 -2.0837,0 -3.5839,0.91659 -0.9335,0.58608 -0.9335,1.18708 0,0.43579 0.4501,0.70628 0.8335,0.4958 2.2837,0.4958 1.2336,0 2.7838,-0.4357 1.5669,-0.43579 2.7838,-1.18708 l 0,-1.32237 z"
id="path4203"
style="font-style:normal;font-variant:normal;font-weight:bold;font-stretch:normal;font-size:32.41279602px;line-height:100%;font-family:'Courier New';-inkscape-font-specification:'Courier New Bold';letter-spacing:0px;word-spacing:0px;fill:#ffcc00;fill-opacity:1;stroke:none;stroke-width:1px;stroke-opacity:1"
/>
</svg>
