<?xml version="1.0" encoding="UTF-8" standalone="no"?>
<svg
xmlns:cc="http://creativecommons.org/ns#"
xmlns:svg="http://www.w3.org/2000/svg"
xmlns="http://www.w3.org/2000/svg"
xmlns:rdf="http://www.w3.org/1999/02/22-rdf-syntax-ns#"
xmlns:dc="http://purl.org/dc/elements/1.1/"
xmlns:sodipodi="http://sodipodi.sourceforge.net/DTD/sodipodi-0.dtd"
xmlns:inkscape="http://www.inkscape.org/namespaces/inkscape"
>
<path
style="fill:#606060"
id="path3977"
d="M 50.0102000000002,0 C 22.3878,0 0,22.36278 0,49.9796 0,77.59641 22.3878,100 50.0102000000002,100 77.6327000000001,100 100,77.59641 100,49.9796 100,22.36278 77.6224999999999,0 50.0102000000002,0 Z m 0.02,88.68598 c -21.3775,0 -38.7347,-17.33319 -38.7347,-38.71659 0,-21.36298 17.347,-38.66558 38.7347,-38.66558 21.347,0 38.6735,17.3026 38.6735,38.66558 -0.01,21.3936 -17.3265,38.71659 -38.6735,38.71659 z"
/>
<path
d="m 45.6837,64.8439100000001 9.4898,0 0,-7.41685 c 0,-1.9996 0.9388,-3.87676 3.449,-5.52949 2.4796,-1.64252 9.4591,-4.95817 9.4591,-13.68088 0,-8.74311 -7.3265,-14.76229 -13.4693,-16.03754 -6.1735,-1.27525 -12.847,-0.43869 -17.5613,4.74393 -4.2449,4.6215 -5.1326,8.31463 -5.1326,16.41501 l 9.4898,0 0,-1.89757 c 0,-4.29504 0.5,-8.86554 6.6734,-10.11018 3.3674,-0.68353 6.5307,0.38768 8.398,2.20363 2.1531,2.10161 2.1531,6.80474 -1.2551,9.1716 l -5.3571,3.62171 c -3.1225,2.02 -4.1735,4.24403 -4.1735,7.51887 l 0,10.99776 -0.01,0 z"
style="fill:#606060"
id="path3979-5"
/>
<path
d="m 50.4387999999999,68.55744 c 2.6837,0 4.8775,2.18323 4.8775,4.88676 0,2.70353 -2.1938,4.87655 -4.8775,4.87655 -2.7143,0 -4.9286,-2.18323 -4.9286,-4.87655 0.01,-2.70353 2.2143,-4.88676 4.9286,-4.88676 z"
id="path3981"
style="fill:#606060"
/>
</svg>
