<?xml version="1.0" encoding="UTF-8" standalone="no"?>
<svg
xmlns="http://www.w3.org/2000/svg"
xmlns:rdf="http://www.w3.org/1999/02/22-rdf-syntax-ns#"
xmlns:dc="http://purl.org/dc/elements/1.1/"
xmlns:cc="http://creativecommons.org/ns#"
xmlns:svg="http://www.w3.org/2000/svg"
xmlns:inkscape="http://www.inkscape.org/namespaces/inkscape"
xmlns:sodipodi="http://sodipodi.sourceforge.net/DTD/sodipodi-0.dtd"
>
<path
style="fill:#ffffff"
id="path4988"
d="m 8.38560000000007,0.24411 c -3.2613,0.60002 -6.3041,3.59853 -7.7326,7.55646 l -0.653,1.83912 0,40.38236 0,40.38081 0.869,2.27975 c 1.0875,2.8782 3.4167,5.63765 5.5905,6.59706 1.522,0.6797 3.7892,0.72033 43.6964,0.72033 l 42.0811,0 1.7077,-1.03909 c 2.4845,-1.47973 3.8815,-3.23915 5.0308,-6.27673 l 1.0245,-2.6782 0,-39.9808 0,-39.9808 -1.0245,-2.6782 c -1.1178,-2.99852 -2.7333,-4.91732 -5.2178,-6.39705 l -1.522,-0.91878 -41.1488,-0.0407 c -22.6396,-0.0453 -41.8626,0.0751 -42.7013,0.23438 z"
/>
<path
d="m 8.38560000000007,0.24411 c -3.2613,0.60002 -6.3041,3.59853 -7.7326,7.55646 l -0.653,1.83912 0,40.38236 0,40.38081 0.869,2.27975 c 1.0875,2.8782 3.4167,5.63765 5.5905,6.59706 1.522,0.6797 3.7892,0.72033 43.6964,0.72033 l 42.0811,0 1.7077,-1.03909 c 2.4845,-1.47973 3.8815,-3.23915 5.0308,-6.27673 l 1.0245,-2.6782 0,-39.9808 0,-39.9808 -1.0245,-2.6782 c -1.1178,-2.99852 -2.7333,-4.91732 -5.2178,-6.39705 l -1.522,-0.91878 -41.1488,-0.0407 c -22.6396,-0.0453 -41.8626,0.0751 -42.7013,0.23438 z m 81.7698,49.85764 -0.094,37.10258 -40.1246,0.12028 -40.1548,0.0797 0,-37.18228 0,-37.18229 40.218,0 40.218,0 -0.063,37.06197 z"
id="path4990"
style="fill:#303030"
/>
<path
d="m 72,33.63792 q 0,4.521396 -1.3148,8.013166 -1.2709,3.447005 -3.6375,5.998684 -2.3665,2.551679 -5.6972,4.566162 -3.2868,2.014483 -7.4502,3.670836 l 0,10.206714 -15.4262,0 0,-15.08624 q 3.1116,-0.85056 5.6096,-1.745886 2.5418,-0.895326 5.3028,-2.909809 2.5856,-1.790652 4.0318,-4.163264 1.4901,-2.372616 1.4901,-5.371956 0,-4.47663 -2.8487,-6.356814 -2.8048,-1.924951 -7.9322,-1.924951 -3.1554,0 -7.1434,1.387756 -3.9443,1.387754 -7.2311,3.581303 l -1.753,0 0,-13.65372 q 2.8048,-1.20869 8.6334,-2.506911 Q 42.4621999999999,16 48.4661999999998,16 q 10.8247,0 17.1792,4.879527 Q 72,25.759052 72,33.63792 Z M 55.1275000000001,84 l -17.7052,0 0,-11.818302 17.7052,0 0,11.818302 z"
style="fill:#303030"
id="path4337"
/>
</svg>
