<?xml version="1.0" encoding="UTF-8" standalone="no"?>
<svg
xmlns:dc="http://purl.org/dc/elements/1.1/"
xmlns="http://www.w3.org/2000/svg"
xmlns:rdf="http://www.w3.org/1999/02/22-rdf-syntax-ns#"
xmlns:svg="http://www.w3.org/2000/svg"
xmlns:cc="http://creativecommons.org/ns#"
xmlns:inkscape="http://www.inkscape.org/namespaces/inkscape"
xmlns:sodipodi="http://sodipodi.sourceforge.net/DTD/sodipodi-0.dtd"
>
<path
d="m 44.06773,98.9435000000001 c -14.47932,-1.8082 -27.2231,-9.6537 -35.08852,-21.6016 -13.3899,-20.3401 -10.04561,-47.3483 7.88322,-63.6645 7.14218,-6.4997 15.79117,-10.66 25.6001,-12.3142 3.02883,-0.5108 9.8438,-0.696 12.84143,-0.349 11.59492,1.3419 21.67952,6.1188 29.58939,14.0159 7.20617,7.1946 11.49558,15.2945 13.67846,25.8299 0.5778,2.7886 0.61885,3.3766 0.62539,8.9538 0.007,6.4786 -0.13885,7.7586 -1.48136,12.9469 -3.38805,13.0935 -12.74226,24.7019 -24.98428,31.0051 -4.81314,2.4782 -9.76974,4.0659 -15.47846,4.9583 -3.28742,0.5139 -9.94097,0.6246 -13.18537,0.2194 z"
id="path3768"
style="fill:#c0c0c0;fill-opacity:1;stroke:#c0c0c0;stroke-width:1.60613585;stroke-opacity:1"
/>
<ellipse
ry="35.370007"
cy="50.0030999999999"
cx="49.88683"
id="path3774"
style="fill:#000000;fill-opacity:1;stroke:#c0c0c0;stroke-width:0.69335914;stroke-linecap:round;stroke-opacity:1"
rx="35.327705"
/>
<path
id="path2987-4"
style="fill:#c0c0c0;fill-opacity:1"
d="m 48.62831,28.7307000000001 c -0.3762,-0.322 -0.97071,-0.6105 -1.87252,-0.8521 -5.77155,-1.5457 -1.47504,4.693 -7.24657,6.2389 -5.7711,1.5451 -5.16825,-6.0033 -9.3919,-1.7817 -4.22508,4.223 3.32772,3.6197 1.7813,9.3885 -1.54652,5.7688 -7.78814,1.4745 -6.24181,7.2431 1.54653,5.7688 4.80245,-1.0731 9.0275,3.15 4.22501,4.2229 -2.62011,7.4773 3.15141,9.0231 5.77151,1.5457 1.47503,-4.6931 7.24656,-6.2388 5.77152,-1.5458 5.16807,6.0034 9.3931,1.7803 4.22502,-4.2228 -3.32772,-3.6197 -1.78127,-9.3884 1.54651,-5.7689 7.78815,-1.4745 6.24178,-7.2432 -1.54652,-5.7687 -4.80246,1.0731 -9.02747,-3.1498 -3.56478,-3.5631 0.75265,-6.4322 -1.27879,-8.1711 z m -1.46,10.9085 c 2.69057,2.6893 2.69049,7.0493 0,9.7384 -2.69048,2.6892 -7.05263,2.6892 -9.74311,0 -2.69051,-2.6891 -2.69051,-7.0491 0,-9.7384 2.69048,-2.6892 7.05263,-2.6892 9.74311,0 z"
/>
<path
id="path2992-5"
style="fill:#c0c0c0;fill-opacity:1"
d="m 58.87223,50.2614000000001 c -0.36519,-0.068 -0.85957,-0.033 -1.53592,0.1485 -4.32853,1.1591 0.80269,3.6009 -2.36608,6.7681 -3.16871,3.1672 -5.60911,-1.9622 -6.76878,2.3643 -1.15979,4.3264 3.51939,1.1038 4.67933,5.4303 1.15975,4.3266 -4.50542,3.8768 -1.33676,7.0439 3.16865,3.1671 2.71666,-2.4971 7.04549,-1.3377 4.32852,1.1591 1.1036,5.8388 5.43207,4.6794 4.32852,-1.1592 -0.80268,-3.6011 2.36607,-6.7682 3.16871,-3.1672 5.60911,1.9623 6.7688,-2.3643 1.15975,-4.3264 -3.51941,-1.1038 -4.67934,-5.4304 -1.15977,-4.3264 4.50542,-3.8768 1.33676,-7.0438 -3.16864,-3.1671 -2.71667,2.4971 -7.0455,1.3379 -3.65227,-0.9782 -1.92436,-4.4602 -3.89616,-4.828 z m 3.14399,7.6341 c 2.75644,0.7382 4.39219,3.5701 3.65357,6.3252 -0.73859,2.7551 -3.57183,4.3901 -6.32826,3.6518 -2.75643,-0.7383 -4.39219,-3.5702 -3.65357,-6.3252 0.7386,-2.7551 3.57183,-4.3901 6.32826,-3.6518 z"
/>
<path
d="m 49.9514,1.21679999999992 c -3.33496,0 -6.58474,0.3494 -9.73711,0.9884 l 0,7.5274 c -4.22347,1.0207 -8.17916,2.6578 -11.7819,4.8663 l -5.33105,-5.3225 c -2.72638,1.8081 -5.22152,3.9292 -7.53408,6.2348 -2.30041,2.3052 -4.43039,4.7991 -6.23175,7.5278 l 5.31889,5.3224 c -2.20302,3.6096 -3.84615,7.5572 -4.86855,11.7848 l -7.52191,0 c -0.64508,3.1448 -0.99806,6.4002 -0.99806,9.7324 0,3.3321 0.35298,6.5876 0.99806,9.7323 l 7.52191,0 c 1.0224,4.2276 2.66553,8.1753 4.86855,11.7859 l -5.31889,5.3225 c 1.80136,2.7275 3.93134,5.2214 6.23175,7.5268 2.31256,2.3054 4.8077,4.427 7.53408,6.2348 l 5.33105,-5.3224 c 3.60274,2.2092 7.55843,3.8455 11.7819,4.8662 l 0,7.528 c 3.15237,0.6386 6.40215,0.9878 9.73711,0.9878 3.33496,0 6.59687,-0.3492 9.73709,-0.9878 l 0,-7.528 c 4.23564,-1.0207 8.17915,-2.657 11.79406,-4.8662 l 5.33106,5.3224 c 2.72639,-1.8078 5.22153,-3.9294 7.5219,-6.2348 2.31257,-2.3054 4.4304,-4.7993 6.24393,-7.5268 l -5.33107,-5.3225 c 2.2152,-3.6106 3.84615,-7.5583 4.86856,-11.7859 l 7.53407,0 c 0.6451,-3.1447 0.98589,-6.4002 0.98589,-9.7323 0,-3.3322 -0.34079,-6.5876 -0.98589,-9.7324 l -7.53407,0 c -1.02241,-4.2276 -2.65336,-8.1752 -4.86856,-11.7848 l 5.33107,-5.3224 c -1.81353,-2.7287 -3.93136,-5.2226 -6.24393,-7.5278 -2.30037,-2.3056 -4.79551,-4.4267 -7.5219,-6.2348 l -5.33106,5.3225 c -3.61491,-2.2085 -7.55842,-3.8456 -11.79406,-4.8663 l 0,-7.5274 c -3.14022,-0.639 -6.40213,-0.9884 -9.73709,-0.9884 z m 0,24.331 c 13.43719,0 24.34274,10.9003 24.34274,24.331 0,13.4307 -10.90555,24.331 -24.34274,24.331 -13.43721,0 -24.34277,-10.9003 -24.34277,-24.331 0,-13.4307 10.90556,-24.331 24.34277,-24.331 z"
style="fill:#000000;fill-opacity:1;stroke:#c0c0c0;stroke-width:2.43368745;stroke-linecap:round;stroke-linejoin:round;stroke-dashoffset:162;stroke-opacity:1"
id="path58241"
/>
</svg>
