<?xml version="1.0" encoding="UTF-8" standalone="no"?>
<svg
xmlns:inkscape="http://www.inkscape.org/namespaces/inkscape"
xmlns:sodipodi="http://sodipodi.sourceforge.net/DTD/sodipodi-0.dtd"
xmlns:dc="http://purl.org/dc/elements/1.1/"
xmlns:rdf="http://www.w3.org/1999/02/22-rdf-syntax-ns#"
xmlns="http://www.w3.org/2000/svg"
xmlns:svg="http://www.w3.org/2000/svg"
xmlns:cc="http://creativecommons.org/ns#"
>
<path
d="m 96.6441,13.52223 -7.0097,-4.2e-4 0,-8.97131 c 0,-2.05394 -1.2155,-3.799 -2.8586,-4.10289 -0.2869,-0.0533 -7.1158,-1.27965 -15.339,0.57031 -9.1673,2.06227 -16.4784,7.14799 -21.437,14.83632 -4.9589,-7.68833 -12.27,-12.77405 -21.4369,-14.83632 -8.2236,-1.84954 -15.0525,-0.62359 -15.339,-0.57031 -1.6431,0.30431 -2.8586,2.04936 -2.8586,4.10289 l 0,8.97131 -7.0098,0 c -1.8528,0 -3.3555,1.85787 -3.3555,4.14909 l 0,78.18 c 0,1.34335 0.5259,2.60344 1.4118,3.38189 0.8858,0.77844 2.0215,0.97826 3.0474,0.53617 0.2519,-0.10782 25.3976,-10.71804 44.148,-0.14362 0.8849,0.49912 1.9007,0.49912 2.7856,0 18.6979,-10.54444 43.8975,0.0366 44.148,0.14362 0.3595,0.15486 0.7319,0.23104 1.103,0.23104 0.6879,0 1.3687,-0.26143 1.9444,-0.7668 0.8859,-0.77845 1.4118,-2.03853 1.4118,-3.38188 l 0,-78.18 c -3e-4,-2.29122 -1.5027,-4.14909 -3.3559,-4.14909 z m -89.9327,76.77754 0,-68.48019 3.6539,0 0,55.25156 c 0,1.20555 0.4266,2.35033 1.1643,3.13835 0.7377,0.78803 1.7188,1.14145 2.6831,0.96536 0.1852,-0.0333 14.763,-2.50769 25.4134,6.5269 -13.1195,-2.77369 -26.2501,0.4346 -32.9147,2.59802 z m 39.9329,-6.33957 c -4.6909,-5.24017 -10.801,-8.78357 -18.0814,-10.42122 -3.5037,-0.78844 -6.7542,-1.01823 -9.3535,-1.01823 -0.7718,0 -1.4862,0.0204 -2.1324,0.0525 l 0,-64.21288 -3e-4,0 c 6.4495,-0.35967 22.1387,0.49288 29.5676,16.06311 l 0,59.53677 z m 6.7111,-59.53636 c 7.4023,-15.50362 23.1161,-16.39488 29.5676,-16.05311 l 0,64.20247 c -2.8226,-0.1407 -6.9428,-0.0566 -11.4862,0.96578 -7.2805,1.63765 -13.3905,5.18064 -18.0814,10.42122 l 0,-59.53636 z m 7.007,63.28041 c 10.6518,-9.04 25.2373,-6.56312 25.4191,-6.52981 0.9667,0.17941 1.9472,-0.17193 2.6872,-0.95954 0.7401,-0.78844 1.1657,-1.93571 1.1657,-3.14376 l 0,-55.25115 3.6538,0 0,68.47978 c -6.6666,-2.16425 -19.8026,-5.37379 -32.9258,-2.59552 z"
style="fill:#666666"
id="path3997"
/>
</svg>
