<?xml version="1.0" encoding="UTF-8" standalone="no"?>
<svg
xmlns:cc="http://creativecommons.org/ns#"
xmlns:svg="http://www.w3.org/2000/svg"
xmlns:rdf="http://www.w3.org/1999/02/22-rdf-syntax-ns#"
xmlns="http://www.w3.org/2000/svg"
xmlns:dc="http://purl.org/dc/elements/1.1/"
xmlns:sodipodi="http://sodipodi.sourceforge.net/DTD/sodipodi-0.dtd"
xmlns:inkscape="http://www.inkscape.org/namespaces/inkscape"
>
<circle
r="49"
cy="50"
id="circle5563"
cx="50"
style="fill:#000000"
/>
<path
d="m 50.40111,0.401100000000042 0,13.2751 c 19.81579,0.055 35.86767,16.1069 35.92271,35.9227 l 13.27509,0 c -3e-5,-27.172 -22.02576,-49.1978 -49.1978,-49.1978 z m 35.92271,49.1978 0,0.1016 c -3e-5,-0.034 6e-5,-0.067 0,-0.1016 z"
style="fill:#008751;fill-opacity:1;stroke:#c0c0c0;stroke-width:0.80220228;stroke-opacity:1"
id="path5565"
/>
<path
d="m 99.5969,49.9031 -13.27403,0 c -0.0552,20.0156 -16.10555,36.2292 -35.91975,36.2847 l 0,13.4091 c 27.16981,-10e-5 49.19378,-22.2477 49.19378,-49.6938 z m -49.19378,36.2847 -0.10163,0 c 0.0341,0 0.0675,10e-5 0.10163,0 z"
style="fill:#ef6b00;fill-opacity:1;stroke:#c0c0c0;stroke-width:0.8062191;stroke-opacity:1"
id="path5567"
/>
<path
d="m 50.09488,99.5949000000001 0,-13.408 c -20.01396,-0.055 -36.22636,-16.268 -36.28193,-36.2823 l -13.40783,0 c 10e-6,27.4439 22.24602,49.6903 49.68976,49.6903 z m -36.28193,-49.6903 0,-0.1026 c 2e-5,0.035 -4e-5,0.067 0,0.1026 z"
style="fill:#0054a0;fill-opacity:1;stroke:#c0c0c0;stroke-width:0.81024092;stroke-opacity:1"
id="path5569"
/>
<path
style="fill:#fcd116;fill-opacity:1;stroke:#c0c0c0;stroke-width:0.80621928;stroke-opacity:1"
id="path5571"
d="m 0.403120000000001,49.5969 13.40893,0 c 0.0554,-19.8142 16.26926,-35.8648 36.28485,-35.9198 l 0,-13.274 c -27.44598,0 -49.69378,22.024 -49.69378,49.1938 z m 49.69378,-35.9198 0.10243,0 c -0.0344,0 -0.0682,0 -0.10243,0 z"
/>
<circle
id="circle5573"
cy="50"
cx="50"
style="fill:none;stroke:#c0c0c0;stroke-width:2;stroke-opacity:1"
r="49"
/>
<path
d="m 55.53088,54.2731000000001 c 1.82127,-1.076 -0.002,0 1.82031,-1.0735 -0.16545,2.2928 0,0 -0.16419,2.2943 -1.65675,-1.2207 -0.004,2e-4 -1.65612,-1.2208 z m -13.62043,-5.8886 2.83278,-2.2371 1.02886,-2.4428 c 1.85125,0 0.0254,-0.01 1.85201,-0.01 0.19207,-1.0755 0.14427,-0.7797 0.34679,-1.7654 l 2.82579,0.093 0,0.7487 0,0.7487 c 0.61573,0.2925 1.19316,0.673 1.82251,0.9371 l 0.0363,-3.6523 c 0.53212,0.1566 0.009,0.01 0.53077,0.1596 0.14468,0.1837 3.06209,3.8807 4.82394,6.1443 l -1.0835,5.6756 c -1.81543,0.7968 -0.009,0 -1.82007,0.7978 -0.0133,-0.04 -0.15328,-0.2657 -0.31101,-0.5015 -1.24581,-1.8626 -3.88807,-2.4242 -6.62455,-1.5013 -1.33255,0.4882 -2.65531,1.2982 -3.77658,2.1138 -0.89449,-1.6987 -1.69512,-3.5452 -2.48405,-5.3089 z"
style="fill:#c0c0c0;fill-opacity:1;stroke:#c0c0c0;stroke-width:0.37891406;stroke-opacity:1"
id="path3160-6"
/>
<circle
r="11.639915"
id="path5900"
cy="27.7180000000001"
cx="50.35944"
style="fill:none;fill-opacity:1;stroke:#c0c0c0;stroke-width:0.95841068;stroke-opacity:1"
/>
<circle
r="9.2209721"
cy="27.7476999999999"
cx="50.29468"
style="fill:#ff0000;fill-opacity:1;stroke:#c0c0c0;stroke-width:0.75923902;stroke-opacity:1"
id="path6286"
/>
<circle
id="path6294"
cy="42.8615"
cx="70.55078"
style="fill:none;fill-opacity:1;stroke:#c0c0c0;stroke-width:0.95841068;stroke-opacity:1"
r="11.639915"
/>
<circle
cy="42.8910000000001"
cx="70.48602"
style="fill:#0054a0;fill-opacity:1;stroke:#c0c0c0;stroke-width:0.75923902;stroke-opacity:1"
id="path6296"
r="9.2209721"
/>
<circle
cy="67.1600000000001"
cx="62.85959"
id="path6300"
style="fill:none;fill-opacity:1;stroke:#c0c0c0;stroke-width:0.95841068;stroke-opacity:1"
r="11.639915"
/>
<circle
cx="62.7948"
cy="67.1895999999999"
id="path6302"
style="fill:#fcd116;fill-opacity:1;stroke:#c0c0c0;stroke-width:0.75923902;stroke-opacity:1"
r="9.2209721"
/>
<circle
r="11.639915"
cy="67.1600000000001"
id="path6306"
cx="37.65305"
style="fill:none;fill-opacity:1;stroke:#c0c0c0;stroke-width:0.95841068;stroke-opacity:1"
/>
<circle
style="fill:#008751;fill-opacity:1;stroke:#c0c0c0;stroke-width:0.75923902;stroke-opacity:1"
cy="67.1896999999999"
cx="37.58829"
id="path6308"
r="9.2209721"
/>
<circle
cy="42.8615"
id="path6312"
cx="30.09567"
style="fill:none;fill-opacity:1;stroke:#c0c0c0;stroke-width:0.95841068;stroke-opacity:1"
r="11.639915"
/>
<circle
id="path6314"
cy="42.8910000000001"
cx="30.03094"
style="fill:#ef6b00;fill-opacity:1;stroke:#c0c0c0;stroke-width:0.75923902;stroke-opacity:1"
r="9.2209721"
/>
</svg>
