<?xml version="1.0" encoding="UTF-8" standalone="no"?>
<svg
xmlns:inkscape="http://www.inkscape.org/namespaces/inkscape"
xmlns:sodipodi="http://sodipodi.sourceforge.net/DTD/sodipodi-0.dtd"
xmlns:dc="http://purl.org/dc/elements/1.1/"
xmlns:rdf="http://www.w3.org/1999/02/22-rdf-syntax-ns#"
xmlns="http://www.w3.org/2000/svg"
xmlns:svg="http://www.w3.org/2000/svg"
xmlns:cc="http://creativecommons.org/ns#"
>
<path
d="m 16.5884000000001,30.326933 c -0.1201,-0.312388 -0.1611,-1.065469 -0.091,-1.67351 l 0.1266,-1.105542 3.3153,0 3.3153,0 0,1.560135 0,1.560127 -3.2239,0.113382 c -2.5385,0.08928 -3.2703,-0.0074 -3.4418,-0.454592 z"
style="fill:#303030"
id="path4723"
/>
<path
style="fill:#ffffff"
id="path4937"
d="m 8.38560000000007,0.24411 c -3.2613,0.60002 -6.3041,3.59853 -7.7326,7.55646 l -0.653,1.83912 0,40.38236 0,40.38081 0.869,2.27975 c 1.0875,2.8782 3.4167,5.63765 5.5905,6.59706 1.522,0.6797 3.7892,0.72033 43.6964,0.72033 l 42.0811,0 1.7077,-1.03909 c 2.4845,-1.47973 3.8815,-3.23915 5.0308,-6.27673 l 1.0245,-2.6782 0,-39.9808 0,-39.9808 -1.0245,-2.6782 c -1.1178,-2.99852 -2.7333,-4.91732 -5.2178,-6.39705 l -1.522,-0.91878 -41.1488,-0.0407 c -22.6396,-0.0453 -41.8626,0.0751 -42.7013,0.23438 z"
/>
<path
d="m 8.38560000000007,0.24411 c -3.2613,0.60002 -6.3041,3.59853 -7.7326,7.55646 l -0.653,1.83912 0,40.38236 0,40.38081 0.869,2.27975 c 1.0875,2.8782 3.4167,5.63765 5.5905,6.59706 1.522,0.6797 3.7892,0.72033 43.6964,0.72033 l 42.0811,0 1.7077,-1.03909 c 2.4845,-1.47973 3.8815,-3.23915 5.0308,-6.27673 l 1.0245,-2.6782 0,-39.9808 0,-39.9808 -1.0245,-2.6782 c -1.1178,-2.99852 -2.7333,-4.91732 -5.2178,-6.39705 l -1.522,-0.91878 -41.1488,-0.0407 c -22.6396,-0.0453 -41.8626,0.0751 -42.7013,0.23438 z m 81.7698,49.85764 -0.094,37.10258 -40.1246,0.12028 -40.1548,0.0797 0,-37.18228 0,-37.18229 40.218,0 40.218,0 -0.063,37.06197 z"
id="path4939"
style="fill:#303030"
/>
<path
d="m 16.6908000000001,73.69789 c -0.1443,-0.14429 -0.2623,-7.429203 -0.2623,-16.188688 l 0,-15.92633 1.4981,0 c 2.009,0 59.7971,5.030176 60.4242,5.259649 0.3866,0.141436 0.4706,3.060152 0.3901,13.549151 l -0.1026,13.368895 -30.8426,0.09984 c -16.9634,0.05492 -30.9605,-0.01819 -31.1049,-0.162515 z"
style="fill:#303030"
id="path4733"
/>
<path
d="m 80.6707999999999,56.752843 c -0.1526,-0.15265 -0.2774,-2.178948 -0.2774,-4.502894 0,-3.965332 0.048,-4.225354 0.78,-4.225354 0.7565,0 0.7802,-0.260023 0.7802,-8.561252 l 0,-8.561258 -2.2428,-0.116971 -2.2428,-0.116971 0,-1.560127 0,-1.560135 3.7054,0 3.7053,0 0,14.626226 0,14.626218 -1.9652,0.115034 c -1.0808,0.06324 -2.09,-0.0099 -2.2427,-0.162516 z"
id="path4727"
style="fill:#303030"
/>
<path
d="m 45.9102,40.582778 c -16.4989,-1.465186 -30.2408,-2.757209 -30.5377,-2.871158 -0.403,-0.15463 -0.5107,-0.876488 -0.4247,-2.845274 l 0.1156,-2.638069 32.3297,-0.09978 c 23.5617,-0.07272 32.4737,0.01959 32.86,0.340281 0.3923,0.325428 0.5302,1.638454 0.5302,5.040789 0,2.530402 -0.1064,4.878359 -0.2366,5.217681 -0.3399,0.88596 -0.9084,0.850778 -34.6365,-2.144474 z"
id="path4725"
style="fill:#303030"
/>
<path
d="m 32.5881999999999,30.349809 c -0.1148,-0.299144 -0.1557,-1.666255 -0.091,-3.038032 l 0.1177,-2.494127 15.016,0 15.0162,0 0,2.925243 0,2.925243 -3.2818,0.114319 c -3.5599,0.124003 -3.9171,-0.05485 -3.9277,-1.966972 l -0.01,-1.07259 -7.777,0 -7.7771,0 -0.1211,1.462624 -0.1209,1.462619 -3.4191,0.112787 c -2.6428,0.08718 -3.4666,-0.01071 -3.628,-0.431114 z"
style="fill:#303030"
id="path4706"
/>
</svg>
