<?xml version="1.0" encoding="UTF-8" standalone="no"?>
<svg
xmlns:cc="http://creativecommons.org/ns#"
xmlns:svg="http://www.w3.org/2000/svg"
xmlns:rdf="http://www.w3.org/1999/02/22-rdf-syntax-ns#"
xmlns="http://www.w3.org/2000/svg"
xmlns:dc="http://purl.org/dc/elements/1.1/"
xmlns:sodipodi="http://sodipodi.sourceforge.net/DTD/sodipodi-0.dtd"
xmlns:inkscape="http://www.inkscape.org/namespaces/inkscape"
>
<path
d="m 8.38560000000007,0.244110000000006 c -3.2613,0.60002 -6.3041,3.59853 -7.7326,7.55646 l -0.653,1.83912 0,40.38236 0,40.38081 0.869,2.27975 c 1.0875,2.8782 3.4167,5.63765 5.5905,6.59706 1.522,0.6797 3.7892,0.72033 43.6964,0.72033 l 42.0811,0 1.7077,-1.03909 c 2.4845,-1.47973 3.8815,-3.23915 5.0308,-6.27673 l 1.0245,-2.6782 0,-39.9808 0,-39.9808 -1.0245,-2.6782 c -1.1178,-2.99852 -2.7333,-4.91732 -5.2178,-6.39705 l -1.522,-0.91878 -41.1488,-0.0407 c -22.6396,-0.0453 -41.8626,0.0751 -42.7013,0.23438 z"
style="fill:#ffffff"
id="path4448"
/>
<path
id="path4450"
style="fill:#404040;fill-opacity:1"
d="m 8.38560000000007,0.244110000000006 c -3.2613,0.60002 -6.3041,3.59853 -7.7326,7.55646 l -0.653,1.83912 0,40.38236 0,40.38081 0.869,2.27975 c 1.0875,2.8782 3.4167,5.63765 5.5905,6.59706 1.522,0.6797 3.7892,0.72033 43.6964,0.72033 l 42.0811,0 1.7077,-1.03909 c 2.4845,-1.47973 3.8815,-3.23915 5.0308,-6.27673 l 1.0245,-2.6782 0,-39.9808 0,-39.9808 -1.0245,-2.6782 c -1.1178,-2.99852 -2.7333,-4.91732 -5.2178,-6.39705 l -1.522,-0.91878 -41.1488,-0.0407 c -22.6396,-0.0453 -41.8626,0.0751 -42.7013,0.23438 z m 81.7698,49.85764 -0.094,37.10258 -40.1246,0.12028 -40.1548,0.0797 0,-37.18228 0,-37.18229 40.218,0 40.218,0 -0.063,37.06197 z"
/>
<path
style="fill:#404040"
id="path4598"
d="m 45.9052999999999,84.72194 c -0.8284,-0.22739 -2.559,-1.12299 -3.8459,-1.99023 -1.8925,-1.27548 -2.8066,-1.60927 -4.7837,-1.74673 -2.1227,-0.14758 -3.1307,0.0882 -7.6642,1.79297 -2.8711,1.0796 -5.8178,1.96291 -6.5483,1.96291 -1.475,0 -4.4882,-1.72893 -4.8607,-2.78904 -0.1487,-0.42298 0.4054,-1.68087 1.459,-3.31224 3.4101,-5.28011 5.3349,-9.87931 7.0312,-16.80044 l 0.9376,-3.82531 -1.8382,-1.53067 c -7.5103,-6.25374 -11.8301,-15.1193 -10.5774,-21.70802 0.5139,-2.70265 1.5754,-4.13258 3.0537,-4.11365 1.5947,0.0205 2.3039,0.83505 4.3019,4.94078 1.8844,3.87231 3.5949,5.69389 5.3469,5.69389 0.8059,0 0.9037,-0.29806 1.3402,-4.08437 1.2767,-11.07542 5.5969,-17.75657 13.5098,-20.89276 5.1363,-2.03572 11.6318,-1.6946 16.7852,0.88152 2.6976,1.34855 6.2058,5.18282 7.8359,8.56418 1.5559,3.2279 2.7925,8.09529 3.1534,12.41286 l 0.2785,3.33153 1.1683,-0.13624 c 2.1773,-0.25391 3.4211,-1.54784 5.4592,-5.67899 2.0966,-4.24974 3.2423,-5.37221 4.9935,-4.8923 1.3875,0.38026 2.2797,2.37734 2.5195,5.63981 0.4794,6.52033 -3.4359,13.73062 -11.3228,20.85189 l -1.8594,1.6789 0.9937,4.04632 c 1.2567,5.11699 4.2289,11.78253 6.791,15.22909 1.0892,1.46531 1.9804,2.81904 1.9804,3.00829 0,0.70738 -2.2519,2.66516 -3.5401,3.0778 -1.7129,0.54862 -3.5593,0.20616 -7.5156,-1.39386 -2.4444,-0.98861 -4.0625,-1.33713 -6.9793,-1.50331 l -3.7971,-0.21633 -3.2778,1.78955 c -2.7595,1.50653 -3.7321,1.81612 -6.1499,1.95758 -1.5797,0.0924 -3.55,-0.018 -4.3785,-0.24538 z"
/>
<path
style="fill:#ffffff;fill-opacity:1"
id="path4600"
d="m 58.5288999999998,55.00719 2.0479,-1.26637 c 2.3341,-1.44333 3.6079,-2.81164 3.2333,-3.47332 -0.3566,-0.63004 -25.4189,-0.63004 -25.7756,0 -0.372,0.65729 0.8949,2.02726 3.1836,3.44268 l 1.9982,1.23572 c 5.2494,7.00332 10.061,7.9042 15.3126,0.0613 z"
/>
<path
d="m 43.9765000000002,37.97365 c 2.1453,-2.56317 1.0404,-6.11631 -2.1525,-6.92196 -2.4806,-0.62585 -5.1395,1.67282 -5.1395,4.44295 0,0.60756 0.5176,1.72311 1.1502,2.47901 0.9578,1.14433 1.4719,1.37437 3.0709,1.37437 1.5991,0 2.1131,-0.23004 3.0709,-1.37437 z"
style="fill:#ffffff;fill-opacity:1"
id="path4604"
/>
<path
id="path4606"
style="fill:#ffffff;fill-opacity:1"
d="m 62.1765,37.97374 c 2.1453,-2.56318 1.0405,-6.11631 -2.1525,-6.92196 -2.4805,-0.62586 -5.1395,1.67282 -5.1395,4.44295 0,0.60755 0.5177,1.72311 1.1502,2.47901 0.9579,1.14433 1.4719,1.37436 3.0709,1.37436 1.5991,0 2.1131,-0.23003 3.0709,-1.37436 z"
/>
</svg>
