<?xml version="1.0" encoding="UTF-8" standalone="no"?>
<svg
xmlns:svg="http://www.w3.org/2000/svg"
xmlns:cc="http://creativecommons.org/ns#"
xmlns:dc="http://purl.org/dc/elements/1.1/"
xmlns="http://www.w3.org/2000/svg"
xmlns:rdf="http://www.w3.org/1999/02/22-rdf-syntax-ns#"
xmlns:sodipodi="http://sodipodi.sourceforge.net/DTD/sodipodi-0.dtd"
xmlns:inkscape="http://www.inkscape.org/namespaces/inkscape"
>
<path
id="path4082"
style="fill:#606060"
d="m 91.1331,32.725 c -3.9061,-1.025 -13.0899,-1.0125 -26.5237,-1.36875 0.6344,-2.93125 0.7813,-5.575 0.7813,-10.26875 0,-11.2125 -8.1684,-21.0875 -15.3931,-21.0875 -5.1029,0 -9.309,4.17187 -9.3745,9.30313 -0.069,6.29374 -2.0156,17.1625 -12.4994,22.67499 -0.7688,0.40625 -2.9686,1.49063 -3.2905,1.63125 l 0.1656,0.14063 c -1.6405,-1.41562 -3.9154,-2.5 -6.2497,-2.5 l -9.3745,0 c -5.1685,0 -9.3746,4.20625 -9.3746,9.375 l 0,50 c 0,5.16875 4.2061,9.375 9.3746,9.375 l 9.3745,0 c 3.7186,0 6.831,-2.24688 8.3371,-5.39688 0.037,0.0125 0.1031,0.0312 0.1469,0.0375 0.2062,0.0562 0.45,0.11563 0.7468,0.19376 0.056,0.0156 0.084,0.0219 0.1438,0.0375 1.7999,0.44687 5.2653,1.275 12.6712,2.97812 1.5875,0.3625 9.9746,2.15 18.6616,2.15 l 17.0835,0 c 5.2061,0 8.959,-2.00312 11.1933,-6.025 0.031,-0.0625 0.75,-1.46563 1.3374,-3.3625 0.4406,-1.42812 0.6031,-3.45 0.072,-5.5 3.3561,-2.30625 4.4373,-5.79375 5.1404,-8.0625 1.178,-3.72188 0.8249,-6.51875 0.01,-8.52187 1.8875,-1.78125 3.4967,-4.49688 4.1749,-8.64376 0.4218,-2.56875 -0.031,-5.2125 -1.2157,-7.4125 1.7687,-1.9875 2.5749,-4.4875 2.6687,-6.8 l 0.038,-0.65312 c 0.022,-0.40938 0.041,-0.6625 0.041,-1.5625 0,-3.94688 -2.7343,-8.98125 -8.8621,-10.73125 z m -71.2591,55.9 c 0,1.72812 -1.3968,3.125 -3.1248,3.125 l -5.3747,0 c -1.7281,0 -3.1249,-1.39688 -3.1249,-3.125 l 0,-46 c 0,-1.72812 1.3968,-3.125 3.1249,-3.125 l 5.3747,0 c 1.728,0 3.1248,1.39688 3.1248,3.125 z m 71.7997,-43.20313 c -0.062,1.54376 -0.7093,4.57813 -6.1778,4.57813 l -12.2494,0 c -0.8656,0 -1.5624,0.7 -1.5624,1.5625 0,0.8625 0.6968,1.9501 1.5624,1.9501 l 12.0557,0 c 4.6873,0 5.3029,3.4999 4.9998,5.3749 -0.3876,2.33125 -1.4813,6.3499 -6.7591,6.3499 l -13.4213,0 c -0.8655,0 -1.5624,1.08447 -1.5624,1.9501 0,0.85937 0.6969,1.9501 1.5624,1.9501 l 12.1526,0 c 5.2747,0 4.8091,3.63428 4.053,6.03427 -0.9969,3.15313 -1.6063,5.30294 -8.2528,5.30294 l -11.0964,0 c -0.8656,0 -1.5624,1.47206 -1.5624,2.33769 0,0.85937 0.6968,1.5625 1.5624,1.5625 l 10.8996,0 c 3.4185,0 3.5779,3.23437 3.2216,4.39375 -0.3906,1.26875 -0.8531,2.20937 -0.8719,2.25313 -0.9436,1.70312 -2.4687,1.55115 -5.6872,1.40641 L 59.4564999999998,91.75 c -8.5721,-0.38549 -17.0929,-1.94687 -17.3116,-1.99688 -6.6847,-1.70027 0,0 -17.1242,-4.20625 l -0.022,-41.1625 c 0,-1.46562 0.9344,-2.79062 2.4811,-3.25625 0.1938,-0.075 0.4563,-0.15625 0.6438,-0.23437 14.2743,-5.9125 18.621,-18.875 18.7491,-29.51875 0.019,-1.49688 1.1718,-3.125 3.1248,-3.125 3.3029,0 9.1434,6.63125 9.1434,14.8375 0,7.40938 -0.3,8.69063 -2.8937,16.4125 31.2485,0 29.0299,-0.45371 31.786,0.26816 3.4186,0.97813 3.7123,2.71309 3.7123,3.68809 0,1.07188 -0.031,0.91563 -0.072,1.96562 z"
/>
<path
id="path4084"
style="fill:#606060"
d="m 14.0617999999999,81.25 c -2.5874,0 -4.6872,2.1 -4.6872,4.6875 0,2.5875 2.0998,4.6875 4.6872,4.6875 2.5874,0 4.6873,-2.1 4.6873,-4.6875 0,-2.5875 -2.0999,-4.6875 -4.6873,-4.6875 z m 0,6.25 c -0.8593,0 -1.5624,-0.70313 -1.5624,-1.5625 0,-0.85938 0.7031,-1.5625 1.5624,-1.5625 0.8594,0 1.5625,0.70312 1.5625,1.5625 0,0.85937 -0.7031,1.5625 -1.5625,1.5625 z"
/>
</svg>
