<?xml version="1.0" encoding="UTF-8" standalone="no"?>
<svg
xmlns:dc="http://purl.org/dc/elements/1.1/"
xmlns:rdf="http://www.w3.org/1999/02/22-rdf-syntax-ns#"
xmlns="http://www.w3.org/2000/svg"
xmlns:svg="http://www.w3.org/2000/svg"
xmlns:cc="http://creativecommons.org/ns#"
xmlns:inkscape="http://www.inkscape.org/namespaces/inkscape"
xmlns:sodipodi="http://sodipodi.sourceforge.net/DTD/sodipodi-0.dtd"
>
<path
style="fill:#606060"
id="path4751"
d="M 11.84834,0 C 5.33175000000006,0 0,4.73685 0,10.52632 l 0,78.94736 C 0,95.26315 5.33175000000006,100 11.84834,100 l 39.06547,0 c -2.96209,-3.1579 -4.70232,-6.8421 -6.47957,-10.52632 l -32.5859,0 0,-78.94736 76.30332,0 0,41.85526 c 4.14692,1.05263 8.29384,3.125 11.84834,5.75658 l 0,-47.61184 C 100,4.73685 94.6682499999999,0 88.15166,0 Z"
/>
<path
d="m 63.04545,52.54545 c 7.52064,0 13.63637,6.11573 13.63637,13.63637 0,7.52063 -6.11573,13.63636 -13.63637,13.63636 -7.52063,0 -13.63636,-6.11573 -13.63636,-13.63636 0,-7.52064 6.11573,-13.63637 13.63636,-13.63637 z m 0,-9.0909 c -12.47936,0 -22.72727,10.2479 -22.72727,22.72727 0,12.47932 10.24791,22.72727 22.72727,22.72727 4.6106,0 8.90287,-1.29977 12.5,-3.69318 L 88.47159,98 l 6.39205,-6.39205 -12.78409,-12.92613 c 2.3934,-3.59714 3.69318,-7.88941 3.69318,-12.5 0,-12.47937 -10.24796,-22.72727 -22.72728,-22.72727 z"
style="fill:#606060"
id="path4738"
/>
<path
d="m 20,24.99654 0,5.00346 30.00006,0 29.99994,0 0,-5 0,-5 -29.99994,0 -30.00006,0 0,4.99654 z"
id="path4773"
style="fill:#606060;fill-opacity:1"
/>
<path
style="fill:#606060;fill-opacity:1"
id="path4803"
d="m 20,44.99654 0,5.00346 9.99993,0 10.00007,0 0,-5 0,-5 -10.00007,0 -9.99993,0 0,4.99654 z"
/>
<path
d="m 20,64.99654 0,5.00346 4.99996,0 5.00004,0 0,-5 0,-5 -5.00004,0 -4.99996,0 0,4.99654 z"
id="path4807"
style="fill:#606060;fill-opacity:1"
/>
</svg>
