<?xml version="1.0" encoding="UTF-8" standalone="no"?>
<svg
xmlns:inkscape="http://www.inkscape.org/namespaces/inkscape"
xmlns:sodipodi="http://sodipodi.sourceforge.net/DTD/sodipodi-0.dtd"
xmlns:dc="http://purl.org/dc/elements/1.1/"
xmlns="http://www.w3.org/2000/svg"
xmlns:rdf="http://www.w3.org/1999/02/22-rdf-syntax-ns#"
xmlns:svg="http://www.w3.org/2000/svg"
xmlns:cc="http://creativecommons.org/ns#"
>
<path
id="path4627"
style="fill:#303030;fill-opacity:1"
d="m 15.88163,72.709997 c -1.06628,1.960999 -1.91499,4.911543 -1.91499,6.770669 0,0.431612 0,0.980581 0.10442,1.742096 L 0.744280000000003,57.752555 C 0.317709999999977,56.99104 0,55.898481 0,54.914152 c 0,-0.985634 0.31771,-2.183813 0.74428,-2.946632 L 7.14217000000002,40.504374 0,36.359399 l 23.24156,-0.440576 11.29861,20.849402 -7.24659,-4.256952 -11.41195,20.198724 z M 26.11842,6.5568188 c 2.02386,-3.6062748 5.3316,-5.57118519 9.37932,-5.57118519 4.37403,0 7.78635,2.07688829 10.23663,6.32878809 l 3.62544,6.2218633 -12.58265,22.275613 -20.36023,-12.119039 9.70149,-17.1360402 z m 1.48841,85.0376702 c -6.07589,0 -11.08549,-5.130608 -11.08549,-11.352308 0,-1.747149 0.74859,-4.69753 1.81487,-6.551603 l 3.40786,-6.221863 25.26972,0 0,24.125937 -19.40696,0 z M 47.8671,5.8971761 C 46.26966,3.0625219 44.13708,1.0925586 41.57793,0 l 26.22283,0 c 2.34587,0 4.15644,0.98563361 5.22719,2.843456 l 6.50246,11.352308 7.03394,-4.2608641 L 75.26064,30.681126 52.13226,30.347475 59.27443,26.2025 47.8671,5.8971761 Z m 40.40771,61.7904419 c 3.19456,0 5.86259,-0.873493 8.09975,-2.616892 L 83.1522,88.647694 c -1.06629,1.854074 -2.98128,2.946632 -5.21907,2.946632 l -12.47823,0 0,8.405674 -11.93849,-20.412572 11.93849,-20.41779 0,8.517817 22.81991,0 z m 10.22802,-19.65106 C 99.46471,49.783706 100,51.63778 100,53.603831 c 0,3.930962 -2.45474,8.079686 -5.8626,10.040847 -1.60158,0.878709 -3.84319,1.426211 -6.07588,1.426211 l -7.04206,0 -12.57453,-22.275613 20.36087,-11.899974 9.69703,17.141256 z"
/>
</svg>
