<?xml version="1.0" encoding="UTF-8" standalone="no"?>
<svg
xmlns:inkscape="http://www.inkscape.org/namespaces/inkscape"
xmlns:sodipodi="http://sodipodi.sourceforge.net/DTD/sodipodi-0.dtd"
xmlns:dc="http://purl.org/dc/elements/1.1/"
xmlns:rdf="http://www.w3.org/1999/02/22-rdf-syntax-ns#"
xmlns="http://www.w3.org/2000/svg"
xmlns:svg="http://www.w3.org/2000/svg"
xmlns:cc="http://creativecommons.org/ns#"
>
<path
d="m 62.24709,99.398476 c -1.36564,-0.189236 -2.9276,-0.701242 -4.19433,-1.374885 -1.60336,-0.85266 -3.56298,-2.53221 -4.75082,-4.071831 -0.34941,-0.452879 -0.62614,-0.836698 -0.61497,-0.85294 0.0112,-0.01625 0.2001,0.02844 0.41985,0.0993 2.06086,0.66456 4.87636,1.130997 7.75913,1.285432 5.47472,0.293279 10.9774,-0.909212 14.92316,-3.261124 0.9563,-0.570015 2.40093,-1.633436 2.91692,-2.147194 0.27272,-0.271533 0.51628,-0.493705 0.54124,-0.493705 0.0249,0 0.2681,-0.24738 0.54035,-0.549734 l 0.49498,-0.549735 -0.4001,0.616585 c -2.6096,4.021563 -5.00684,6.658633 -7.84823,8.633394 -3.09573,2.151533 -6.60447,3.107478 -9.78718,2.666438 z"
id="path4832"
style="fill:#303030;fill-opacity:1;stroke:#303030;stroke-width:0.99196476;stroke-opacity:1"
/>
<path
d="m 51.09939,87.731364 c 0.0479,-1.962977 1.02348,-7.091958 2.07059,-10.886369 0.9917,-3.593636 2.876,-8.584764 4.80944,-12.739261 2.3227,-4.990922 2.97215,-6.101701 7.22229,-12.352855 3.48883,-5.131414 4.80573,-6.766774 7.63182,-9.477481 1.25958,-1.208152 1.80742,-1.706968 4.92533,-4.484433 1.78079,-1.586351 3.34877,-3.067596 4.3396,-4.099545 3.01586,-3.141017 5.78453,-6.716844 8.22228,-10.619289 1.01538,-1.62548 1.30852,-2.130553 2.0504,-3.532919 0.44268,-0.836741 0.97711,-1.843516 1.18765,-2.237277 0.21054,-0.393759 0.73507,-1.504685 1.16565,-2.468717 2.27624,-5.0964494 3.37092,-8.4097762 4.49156,-13.5949188 l 0.24177,-1.11863773 -0.0353,0.80541916 c -0.26191,5.98231437 -1.1484,11.84351137 -2.56491,16.95854537 -0.35119,1.268119 -1.67515,5.238966 -1.91843,5.753772 -0.0882,0.186763 -0.16046,0.361856 -0.16046,0.3891 0,0.07878 -0.65271,1.600842 -1.12667,2.627249 -0.79951,1.731482 -1.87723,3.759065 -2.83022,5.324714 -0.46542,0.764626 -2.5379,3.796975 -2.9989,4.387845 -3.06065,3.922833 -6.00885,6.907246 -9.94097,10.063057 -1.96622,1.578042 -4.01292,3.357037 -5.08445,4.419401 -2.52452,2.502936 -5.40173,5.684609 -6.61093,7.31049 -0.16926,0.227602 -0.44626,0.591313 -0.61554,0.80823 -3.59703,4.609476 -6.74842,9.771497 -9.61096,15.742936 -1.23503,2.576323 -1.73831,3.841599 -3.20364,8.054192 -1.10631,3.180476 -1.40867,4.198463 -1.58618,5.340546 l -0.0949,0.610606 0.0241,-0.9844 z"
style="fill:#303030;fill-opacity:1;stroke:#303030;stroke-width:0.99196476;stroke-opacity:1"
id="path4826"
/>
<path
d="m 71.48029,85.659444 c -1.64244,-0.18881 -3.0386,-0.703823 -4.27806,-1.578068 l -0.64632,-0.455886 0.33854,-0.07806 c 3.72026,-0.857681 5.68646,-1.465064 8.21004,-2.536174 4.24404,-1.801328 7.90178,-4.333781 10.84113,-7.505889 1.91815,-2.070035 3.80798,-4.764905 5.09758,-7.269087 0.20767,-0.403247 0.38622,-0.720593 0.39682,-0.705207 0.0358,0.05208 -0.54435,1.947628 -1.01237,3.307687 -1.53282,4.45437 -3.45309,8.098971 -5.62135,10.669047 -0.57056,0.676291 -2.59917,2.749394 -3.13398,3.202695 -1.2704,1.076818 -3.86647,2.244065 -5.97554,2.686743 -1.30001,0.272866 -3.13248,0.386808 -4.21649,0.262193 z"
style="fill:#303030;fill-opacity:1;stroke:#303030;stroke-width:0.99196476;stroke-opacity:1"
id="path4822"
/>
<path
d="m 69.4182,75.279863 c -0.54819,-0.07177 -2.06909,-0.397152 -2.40062,-0.51359 l -0.33855,-0.118906 0.49242,-0.335019 c 0.86061,-0.585496 1.74395,-1.119226 3.2624,-1.971253 2.34313,-1.31475 3.12587,-1.794708 4.30883,-2.642052 5.80547,-4.158425 10.49029,-8.553938 13.77086,-12.920436 3.14162,-4.181537 5.40076,-8.576847 7.40694,-14.410611 0.38768,-1.127341 0.70487,-2.141806 0.70487,-2.254367 0,-0.112559 0.0277,-0.229545 0.0616,-0.259965 0.11194,-0.100579 0.0653,0.459805 -0.15451,1.852272 -1.68023,10.64945 -4.82439,19.032748 -9.32603,24.866164 -3.31333,4.293566 -7.25798,7.091161 -11.59632,8.224251 -1.54059,0.402371 -2.06146,0.466518 -4.00665,0.493401 -1.04951,0.01451 -2.03285,0.01005 -2.1852,-0.0098 z"
id="path4820"
style="fill:#303030;fill-opacity:1;stroke:#303030;stroke-width:0.99196476;stroke-opacity:1"
/>
<path
d="m 69.84909,64.483488 c 2.03986,-1.798572 2.24069,-1.980668 2.36607,-2.145206 0.0656,-0.08613 0.14002,-0.156609 0.16533,-0.156609 0.0439,0 0.75338,-0.664132 1.34654,-1.260338 1.01927,-1.024502 2.35633,-2.388811 2.61608,-2.669367 0.16927,-0.182838 0.58475,-0.630409 0.9233,-0.994602 3.07293,-3.305646 5.96133,-6.980793 8.88874,-11.309859 4.13822,-6.11961 7.83021,-13.356384 10.68773,-20.949352 0.63892,-1.697736 1.92498,-5.448902 2.3011,-6.711825 0.1466,-0.492201 0.29245,-0.935182 0.32413,-0.984402 0.037,-0.05745 0.0457,-0.04143 0.0246,0.04474 -0.0181,0.07383 -0.10388,0.738302 -0.19046,1.476601 -1.06317,9.065268 -3.30405,17.510525 -6.59918,24.870367 -2.95736,6.60543 -5.92391,11.163226 -9.55815,14.685101 -3.26005,3.159237 -6.67281,5.2173 -10.60049,6.39262 -0.9418,0.281826 -2.69724,0.666977 -3.49554,0.766927 l -0.46165,0.0578 1.26187,-1.112608 z"
id="path4816"
style="fill:#303030;fill-opacity:1;stroke:#303030;stroke-width:0.99196476;stroke-opacity:1"
/>
<path
id="path4830"
style="fill:#303030;fill-opacity:1;stroke:#303030;stroke-width:0.99196476;stroke-opacity:1"
d="m 34.59879,99.353249 c -0.0847,-0.01778 -0.40318,-0.0764 -0.70788,-0.130281 -2.38829,-0.422318 -5.33771,-1.893586 -7.79254,-3.887185 -1.63346,-1.326553 -2.75987,-2.6166 -5.00923,-5.736937 -1.1924,-1.654091 -1.56384,-2.251594 -1.15679,-1.860769 3.67141,3.525067 8.2757,5.82658 13.21991,6.60815 3.49513,0.552507 7.33606,0.280599 12.46482,-0.882408 1.08656,-0.246396 1.54924,-0.332972 1.57549,-0.294813 0.0643,0.09346 -0.42903,0.872119 -0.84333,1.33111 -2.32053,2.570836 -5.2571,4.240093 -8.39927,4.774468 -0.71294,0.121243 -2.90356,0.172666 -3.35118,0.07866 z"
/>
<path
d="m 48.884,88.827628 c -0.37628,-1.649043 -1.32814,-4.992945 -1.96788,-6.91318 -2.58659,-7.763766 -5.71858,-13.793457 -10.77847,-20.75064 -0.94744,-1.302702 -3.20077,-4.043813 -4.46271,-5.428759 -0.50782,-0.55733 -1.19358,-1.309825 -1.5239,-1.67222 -2.12108,-2.326966 -6.47015,-6.426125 -8.90778,-8.395876 -2.06442,-1.668189 -2.20478,-1.789105 -3.34323,-2.880163 -3.55775,-3.409651 -6.86164,-7.795502 -9.92844,-13.179841 -0.84782,-1.488476 -1.76282,-3.341535 -2.5981,-5.261586 -0.50464,-1.160012 -1.22508,-3.171213 -1.70739,-4.766332 -0.28938,-0.957082 -0.55371,-1.812064 -0.5874,-1.899963 -0.0951,-0.248381 -0.57288,-2.149457 -0.81436,-3.240845 C 1.3655,10.37574 0.762110000000007,5.6432592 0.530000000000001,0.83558956 l -0.0346,-0.71592809 0.18911,0.76067357 c 0.90846,3.65410186 1.93276,7.00199406 3.0908,10.10207996 0.48853,1.307806 1.81599,4.58225 1.89076,4.663937 0.0226,0.02461 0.31,0.621581 0.63883,1.326601 2.53011,5.424673 6.07047,10.726886 10.02352,15.011692 1.87192,2.029029 2.99652,3.087525 6.26718,5.898769 2.59333,2.229057 3.7335,3.280664 5.38603,4.967636 4.82799,4.928623 8.69639,10.027464 11.87405,15.650838 0.40058,0.708913 1.37887,2.584296 1.76138,3.376595 3.17443,6.575237 5.41312,13.774681 6.79476,21.851398 0.2653,1.550843 0.3434,2.071897 0.58962,3.93304 0.11813,0.893013 0.22868,2.350463 0.17828,2.350463 -0.0139,0 -0.14695,-0.533591 -0.29576,-1.185756 z"
style="fill:#303030;fill-opacity:1;stroke:#303030;stroke-width:0.99196476;stroke-opacity:1"
id="path4828"
/>
<path
d="m 25.88881,85.66276 c -2.53652,-0.293361 -5.41925,-1.364825 -7.10957,-2.642545 -0.34804,-0.263093 -1.23262,-1.137109 -2.18518,-2.159096 -1.35271,-1.45131 -1.74906,-1.932055 -2.56072,-3.10609 -1.60801,-2.325914 -2.82147,-4.702806 -4.13566,-8.100851 -0.57603,-1.489416 -1.48122,-4.159747 -1.43356,-4.229043 0.0479,-0.06962 0.60949,0.80593 1.44978,2.260242 3.24709,5.619819 7.50908,9.648705 13.2665,12.540903 2.32353,1.167213 5.86188,2.401187 8.67921,3.026809 0.57554,0.127803 1.17108,0.263766 1.32342,0.302132 l 0.277,0.06976 -0.56333,0.416465 c -0.9251,0.683907 -1.99153,1.151525 -3.31461,1.453422 -0.59693,0.136195 -3.01631,0.246182 -3.69328,0.167894 z"
id="path4824"
style="fill:#303030;fill-opacity:1;stroke:#303030;stroke-width:0.99196476;stroke-opacity:1"
/>
<path
d="m 26.41202,75.153537 c -5.47035,-0.684194 -10.17979,-3.77439 -14.06475,-9.228868 -4.43338,-6.224439 -7.55725,-14.951869 -8.9585,-25.028126 -0.1384,-0.995238 -0.14348,-1.087624 -0.0597,-1.087624 0.0339,0 0.0616,0.09575 0.0616,0.2128 0,0.287652 0.10675,0.647153 0.72072,2.427185 1.20459,3.49231 2.59938,6.583145 4.30094,9.530792 1.15677,2.003909 2.86869,4.492914 4.31809,6.278198 4.19569,5.167998 9.11634,9.304791 16.14387,13.57218 2.00712,1.218797 4.32205,2.68737 4.39036,2.785212 0.0656,0.09407 -0.13456,0.145806 -1.43695,0.371236 -1.2242,0.211894 -4.29866,0.306712 -5.4156,0.167015 z"
id="path4818"
style="fill:#303030;fill-opacity:1;stroke:#303030;stroke-width:0.99196476;stroke-opacity:1"
/>
<path
d="m 30.38229,65.349422 c -1.98917,-0.283865 -4.63366,-1.087039 -6.46324,-1.962967 -7.5274,-3.60385 -13.40191,-11.170968 -18.04043,-23.238389 -1.56283,-4.065811 -2.9158,-8.734256 -3.87905,-13.384725 -0.61255,-2.957337 -0.88102,-4.606029 -1.47508,-9.058702 -0.0164,-0.12305 0.36791,0.944129 0.85408,2.37151 0.48615,1.427383 1.11004,3.186936 1.38642,3.910119 0.27637,0.72318 0.50248,1.338943 0.50248,1.36836 0,0.02942 0.0518,0.162599 0.11515,0.29596 0.0634,0.133363 0.34532,0.806271 0.62668,1.495352 5.61143,13.743734 13.52443,25.572969 23.1106,34.548374 0.62887,0.588814 3.08376,2.734236 3.85712,3.370902 0.28229,0.232399 0.45787,0.419087 0.39015,0.414864 -0.0677,-0.0042 -0.5109,-0.06302 -0.98488,-0.130658 z"
id="path4814"
style="fill:#303030;fill-opacity:1;stroke:#303030;stroke-width:0.99196476;stroke-opacity:1"
/>
</svg>
