<?xml version="1.0" encoding="UTF-8" standalone="no"?>
<svg
xmlns:inkscape="http://www.inkscape.org/namespaces/inkscape"
xmlns:sodipodi="http://sodipodi.sourceforge.net/DTD/sodipodi-0.dtd"
xmlns:dc="http://purl.org/dc/elements/1.1/"
xmlns="http://www.w3.org/2000/svg"
xmlns:rdf="http://www.w3.org/1999/02/22-rdf-syntax-ns#"
xmlns:svg="http://www.w3.org/2000/svg"
xmlns:cc="http://creativecommons.org/ns#"
>
<path
style="fill:#ffffff;fill-opacity:1;stroke:#303030;stroke-width:2.06044483;stroke-opacity:1"
id="path193"
d="m 90.43259,27.409978 c 2.35135,-0.0323 9.66347,4.036815 4.63579,15.493298 l -6.89156,-4.182141 2.25577,-11.311157 z"
/>
<path
d="m 91.12079,32.254156 c 0,0 3.75642,1.186824 3.23071,4.593896 -0.11469,0.758921 -1.37639,0.904247 -1.73006,0.201842 -0.38233,-0.758923 -0.99407,-1.453254 -1.95945,-1.655096 l 0.4588,-3.140642 z"
style="fill:#303030;fill-opacity:1;stroke-width:2;stroke-miterlimit:4;stroke-dasharray:none"
id="path195"
/>
<path
style="fill:#ffffff;fill-opacity:1;stroke:#303030;stroke-width:2.06044483;stroke-opacity:1"
id="path197"
d="m 9.95146,27.409978 c -2.35135,-0.0323 -9.66348,4.036815 -4.63579,15.493298 l 6.89155,-4.182141 -2.25576,-11.311157 z"
/>
<path
style="fill:#303030;fill-opacity:1"
id="path199"
d="M 50.18247,-9.779392e-08 C 45.93857,0.2341352 34.04801,-0.12917828 24.25072,6.3297266 c 0,0 2.38002,-0.4601969 3.56526,-0.4601969 0,0 -5.42914,0.9688357 -9.91199,4.4889383 -4.80785,3.77846 -7.99077,8.348135 -8.10547,12.328436 0,0 0.83158,-0.484419 1.82565,-1.211046 0,0 -4.38728,9.486517 -1.71095,16.454061 0,0 -5.92616,4.529307 -8.27751,13.151945 0,0 1.92123,-1.994187 4.18655,-2.543194 0,0 -4.45419,4.658486 -5.41957,10.923623 -0.707325,4.610043 -0.26763,7.500404 -0.26763,7.500404 0,0 1.20434,-2.656225 2.66677,-3.431294 0,0 -1.20436,12.441465 5.82101,17.269497 0,0 -0.25807,-2.664298 0.65954,-3.770385 0,0 1.65358,3.576618 8.62161,8.081704 5.95484,3.851122 8.06723,8.921363 8.06723,8.921363 0,0 2.58074,-1.751978 2.33223,-3.059906 0,0 1.91167,4.577748 7.21654,6.684966 0,0 -0.2294,-1.776199 0.66908,-2.91458 0,0 0.6882,1.4694 2.15062,2.373647 1.61537,1.00113 2.87707,1.493622 5.03725,1.808493 0,0 -1.08009,-1.009204 -0.91761,-1.929598 0,0 1.24258,0.920394 3.67041,1.429033 2.42781,0.508639 3.29761,1.114161 4.05273,1.574358 l 0,-99.999995097793913 z"
/>
<path
d="M 49.81754,-9.779392e-08 C 54.06144,0.2341352 65.952,-0.12917828 75.74928,6.3297266 c 0,0 -2.38002,-0.4601969 -3.56525,-0.4601969 0,0 5.42913,0.9688357 9.91198,4.4889383 4.80785,3.77846 7.99077,8.348135 8.10547,12.328436 0,0 -0.83158,-0.484419 -1.82564,-1.211046 0,0 4.38727,9.486517 1.71094,16.454061 0,0 5.92617,4.529307 8.27752,13.151945 0,0 -1.92123,-1.994187 -4.18655,-2.543194 0,0 4.45418,4.658486 5.41956,10.923623 0.70733,4.610043 0.26764,7.500404 0.26764,7.500404 0,0 -1.20435,-2.656225 -2.66677,-3.431294 0,0 1.20435,12.441465 -5.82102,17.269497 0,0 0.25807,-2.664298 -0.65953,-3.770385 0,0 -1.65359,3.576618 -8.62162,8.081704 -5.95483,3.851122 -8.06723,8.921363 -8.06723,8.921363 0,0 -2.58074,-1.751978 -2.33223,-3.059906 0,0 -1.91166,4.577748 -7.21653,6.684966 0,0 0.2294,-1.776199 -0.66909,-2.91458 0,0 -0.6882,1.4694 -2.15062,2.373647 -1.61535,1.00113 -2.87705,1.493622 -5.03724,1.808493 0,0 1.0801,-1.009204 0.9176,-1.929598 0,0 -1.24258,0.920394 -3.67039,1.429033 -2.42783,0.508639 -3.29763,1.114161 -4.05274,1.574358 l 0,-99.999995097793913 z"
id="path201"
style="fill:#303030;fill-opacity:1"
/>
<path
style="fill:#ffffff;fill-opacity:1"
id="path203"
d="m 50.54557,36.783464 c -1.62491,0.04844 -9.24291,-5.837236 -18.47625,-5.837236 -8.59293,0 -14.10809,7.11287 -13.79267,17.915387 0.0382,1.380592 1.20436,2.567415 2.79103,2.874213 3.7851,0.734701 10.35168,2.761182 10.68621,7.936379 0.46837,7.29049 -5.99307,6.604231 -4.21521,16.736638 1.77784,10.132407 17.5013,10.285806 23.00689,10.285806 l 0,-49.911187 z"
/>
<path
d="m 50.063,36.783464 c 1.62491,0.04844 9.2429,-5.837236 18.47625,-5.837236 8.59294,0 14.1081,7.11287 13.79267,17.915387 -0.0382,1.380592 -1.20435,2.567415 -2.79103,2.874213 -3.7851,0.734701 -10.35167,2.761182 -10.68621,7.936379 -0.46836,7.29049 5.99307,6.604231 4.21522,16.736638 -1.77785,10.132407 -17.5013,10.285806 -23.0069,10.285806 l 0,-49.911187 z"
id="path205"
style="fill:#ffffff;fill-opacity:1"
/>
<path
style="fill:#303030;fill-opacity:1"
id="path207"
d="m 46.19664,54.819955 c -0.10515,-0.726627 -2.42781,-2.244469 -4.11964,-2.365573 -1.52934,-0.113032 -3.57481,0.726626 -5.57251,2.074923 -2.29399,1.550137 -2.84838,3.398998 -2.84838,5.037945 0,1.638948 0.32499,4.658485 3.6704,5.748426 0,0 -1.73006,-2.050702 -1.73006,-4.521233 0,-2.785403 1.0323,-3.697723 2.78148,-4.973357 1.62491,-1.186824 2.66677,-1.574359 3.76598,-1.663169 1.84476,-0.137252 4.05273,0.662038 4.05273,0.662038 z"
/>
<path
id="path209"
style="fill:#303030;fill-opacity:1"
d="m 47.19071,62.481831 c -0.24852,-0.863879 -0.63085,-1.647021 -3.23072,-2.73696 -2.59987,-1.098015 -4.38727,-1.299855 -4.38727,0.549006 0,1.848862 1.05142,3.084127 1.7874,3.42322 0.72644,0.339092 4.61668,1.574357 5.35267,1.098013 0.73599,-0.476344 0.71688,-1.493621 0.47792,-2.333279 z"
/>
<path
d="m 53.79552,54.819955 c 0.10513,-0.726627 2.42781,-2.244469 4.11963,-2.365573 1.52933,-0.113032 3.57482,0.726626 5.57251,2.074923 2.294,1.550137 2.84838,3.398998 2.84838,5.037945 0,1.638948 -0.32498,4.658485 -3.6704,5.748426 0,0 1.73005,-2.050702 1.73005,-4.521233 0,-2.785403 -1.03229,-3.697723 -2.78147,-4.973357 -1.62491,-1.186824 -2.66677,-1.574359 -3.76597,-1.663169 -1.84476,-0.137252 -4.05273,0.662038 -4.05273,0.662038 z"
style="fill:#303030;fill-opacity:1"
id="path211"
/>
<path
d="m 52.80145,62.481831 c 0.24851,-0.863879 0.63085,-1.647021 3.23071,-2.73696 2.59986,-1.098015 4.38728,-1.299855 4.38728,0.549006 0,1.848862 -1.05142,3.084127 -1.78742,3.42322 -0.72643,0.339092 -4.61666,1.574357 -5.35266,1.098013 -0.72643,-0.484417 -0.72643,-1.493621 -0.47791,-2.333279 z"
id="path213"
style="fill:#303030;fill-opacity:1"
/>
<ellipse
ry="4.6261907"
id="ellipse215"
cy="42.903275"
style="fill:#303030;fill-opacity:1"
cx="65.70518"
rx="4.5593228"
/>
<ellipse
rx="4.5593228"
ry="4.6261907"
id="ellipse217"
style="fill:#303030;fill-opacity:1"
cy="42.903275"
cx="33.76126"
/>
<path
d="m 50.19202,73.583074 c -8.5547,0 -15.39847,6.208622 -16.43076,6.208622 -2.05504,0 -3.31675,-2.276764 -3.31675,-2.276764 0,0 -0.49702,-0.678185 0,-1.017277 0.49703,-0.347166 0.8507,0.193767 1.26171,0.44405 0.411,0.250282 1.08964,0.589375 1.94989,0.540933 0.86025,-0.04844 7.53196,-5.974487 16.53591,-5.974487 9.00395,0 15.90506,5.829162 16.72707,5.877603 0.82202,0.04844 1.48155,-0.04844 2.09328,-0.492491 0.46836,-0.339093 1.01319,-0.839658 1.53889,-0.540934 0.52571,0.298725 0.12426,0.807363 -0.25807,1.170677 0,0 -1.2617,2.276764 -3.31674,2.276764 -1.02274,0 -7.87606,-6.208623 -16.43077,-6.208623"
style="fill:#303030;fill-opacity:1"
id="path219"
/>
<path
d="m 9.26325,32.254156 c 0,0 -3.75641,1.186824 -3.23071,4.593896 0.1147,0.758921 1.3764,0.904247 1.73006,0.201842 0.38233,-0.758923 0.99407,-1.453254 1.95946,-1.655096 l -0.45881,-3.140642 z"
id="path221"
style="fill:#303030;fill-opacity:1;stroke:none;stroke-width:2;stroke-opacity:1"
/>
<path
id="path225"
style="fill:#ffffff;fill-opacity:1"
d="m 39.00878,85.774257 c 0,0 1.13744,0.968836 1.9021,1.517843 1.51978,1.098013 3.24983,1.517842 3.24983,1.517842 0,0 -1.48154,-1.073792 -1.19478,-2.777329 l -3.95715,-0.258356 z"
/>
<path
style="fill:#ffffff;fill-opacity:1"
id="path227"
d="m 44.16071,86.258675 c 0,0 0.41101,1.081866 1.79697,1.969966 1.35728,0.863878 1.38596,1.751978 1.38596,1.751978 0,0 0.64996,-0.8881 0.13382,-2.002261 -0.43969,-0.960762 -0.0478,-1.719683 -0.0478,-1.719683 l -3.26896,0 z"
/>
<path
d="m 61.26057,85.774257 c 0,0 -1.13745,0.968836 -1.90211,1.517843 -1.51977,1.098013 -3.24984,1.517842 -3.24984,1.517842 0,0 1.48154,-1.073792 1.1948,-2.777329 l 3.95715,-0.258356 z"
id="path229"
style="fill:#ffffff;fill-opacity:1"
/>
<path
style="fill:#ffffff;fill-opacity:1"
id="path231"
d="m 56.10862,86.258675 c 0,0 -0.411,1.081866 -1.79696,1.969966 -1.35728,0.863878 -1.38595,1.751978 -1.38595,1.751978 0,0 -0.64998,-0.8881 -0.13382,-2.002261 0.43968,-0.960762 0.0478,-1.719683 0.0478,-1.719683 l 3.26894,0 z"
/>
<path
id="path233"
style="fill:#ffffff;fill-opacity:1"
d="m 48.70093,86.468589 c 0,0 -0.31543,1.194897 0.68819,2.858066 1.00363,1.663168 0.6213,2.244469 0.6213,2.244469 0,0 0.68819,-1.638947 1.10876,-2.276764 0.41101,-0.64589 0.72643,-2.236396 0.48747,-2.825771 l -2.90572,0 z"
/>
</svg>
