<?xml version="1.0" encoding="UTF-8" standalone="no"?>
<svg
xmlns:dc="http://purl.org/dc/elements/1.1/"
xmlns="http://www.w3.org/2000/svg"
xmlns:rdf="http://www.w3.org/1999/02/22-rdf-syntax-ns#"
xmlns:svg="http://www.w3.org/2000/svg"
xmlns:cc="http://creativecommons.org/ns#"
xmlns:inkscape="http://www.inkscape.org/namespaces/inkscape"
xmlns:sodipodi="http://sodipodi.sourceforge.net/DTD/sodipodi-0.dtd"
>
<path
id="path4731"
style="fill:#666666"
d="m 45.40164,99.86861 c -12.16979,-1.25464 -22.91265,-6.4278 -31.31077,-15.07754 -7.35819,-7.57863 -11.98144,-16.89302 -13.63159,-27.46334 -0.61192,-3.9198 -0.61249,-10.74614 -10e-4,-14.67294 0.84736,-5.44344 2.24493,-9.83449 4.73229,-14.86857 2.61106,-5.28442 5.71684,-9.53707 10.00369,-13.69776 7.56826,-7.34555 16.92841,-11.9903 27.46816,-13.63042 3.92748,-0.61117 10.75502,-0.6106 14.6755,0.001 14.26865,2.22672 26.5393,10.08885 34.55854,22.14254 1.57763,2.37133 4.14958,7.46509 5.14517,10.19003 0.99986,2.73666 2.01351,6.73498 2.50044,9.86297 0.61057,3.92233 0.61057,10.75061 0,14.67294 -0.83258,5.34846 -2.23391,9.78961 -4.62981,14.67293 -2.58638,5.27157 -5.27568,9.00818 -9.58237,13.31413 -4.30671,4.30593 -8.04397,6.99476 -13.31646,9.58069 -4.8732,2.39009 -9.42518,3.82555 -14.61513,4.60886 -3.01402,0.4549 -9.27365,0.64498 -11.99645,0.36427 z m 9.29961,-8.40688 c 9.57613,-1.1589 17.96707,-5.23308 24.75475,-12.01959 6.7877,-6.7865 10.8626,-15.17596 12.02169,-24.75041 0.25815,-2.1324 0.25815,-7.26854 0,-9.40094 -0.52198,-4.31168 -1.86313,-9.10159 -3.56835,-12.7443 -6.22045,-13.28819 -18.62187,-22.26049 -33.20809,-24.0257 -2.13277,-0.2581 -7.26981,-0.2581 -9.40258,0 -9.56392,1.15741 -18.00839,5.2519 -24.76601,12.00833 -6.75762,6.75644 -10.85282,15.19943 -12.01043,24.76167 -0.25815,2.1324 -0.25815,7.26854 0,9.40094 1.76551,14.58366 10.73938,26.98291 24.0299,33.20227 3.51844,1.64647 8.40649,3.03811 12.45816,3.54689 1.95224,0.24515 7.7347,0.25758 9.69096,0.0208 z m -6.37116,-12.58374 c -0.79248,-0.35908 -1.84592,-1.43433 -2.17372,-2.21871 -0.21397,-0.51203 -0.26555,-3.00067 -0.26555,-12.81218 l 0,-12.17674 -5.23426,5.19044 c -4.34806,4.31164 -5.37063,5.22945 -6.03966,5.4209 -1.23124,0.35231 -2.05264,0.27931 -3.18062,-0.28269 -1.76166,-0.87771 -2.61632,-2.72018 -2.16265,-4.66226 0.22195,-0.95012 0.56241,-1.32174 9.05983,-9.8888 5.82551,-5.87323 9.15304,-9.08461 9.78103,-9.43958 1.30451,-0.73738 2.63005,-0.73683 3.8422,0.002 0.48429,0.29503 4.85369,4.54212 9.70977,9.43799 8.54694,8.61698 8.83672,8.93367 9.06376,9.90517 0.44229,1.89253 -0.4551,3.79318 -2.20183,4.66346 -1.09418,0.54516 -1.92268,0.61499 -3.14537,0.26512 -0.669,-0.19144 -1.69108,-1.10873 -6.03537,-5.41664 l -5.22998,-5.18616 -0.0532,12.42758 -0.0532,12.42759 -0.53493,0.7657 c -0.86216,1.2341 -1.75569,1.72503 -3.2593,1.79072 -0.79595,0.0347 -1.52158,-0.047 -1.88695,-0.2125 z m -20.37474,-45.79505 c -1.2271,-0.3863 -1.93558,-0.98489 -2.49556,-2.10842 -0.55872,-1.12101 -0.62831,-1.95114 -0.26538,-3.1656 0.31063,-1.03938 1.57976,-2.30829 2.61932,-2.61886 1.16659,-0.3485 43.20588,-0.3485 44.37246,0 1.11491,0.33307 2.32794,1.59069 2.65262,2.75015 0.53992,1.92807 -0.30765,3.93301 -2.03933,4.82409 l -0.9713,0.49982 -21.52939,0.0376 c -17.28674,0.0301 -21.68981,-0.0129 -22.34344,-0.21873 z"
/>
</svg>
