<?xml version="1.0" encoding="UTF-8" standalone="no"?>
<svg
xmlns:sodipodi="http://sodipodi.sourceforge.net/DTD/sodipodi-0.dtd"
xmlns:inkscape="http://www.inkscape.org/namespaces/inkscape"
xmlns:cc="http://creativecommons.org/ns#"
xmlns:svg="http://www.w3.org/2000/svg"
xmlns="http://www.w3.org/2000/svg"
xmlns:rdf="http://www.w3.org/1999/02/22-rdf-syntax-ns#"
xmlns:dc="http://purl.org/dc/elements/1.1/"
>
<ellipse
rx="48.038464"
cy="50.0001"
cx="50"
style="fill:#dfe5e6;fill-opacity:1;stroke:#000000;stroke-width:3.92308545;stroke-opacity:1"
id="path2953-1"
ry="48.038368"
/>
<path
d="m 86.54543,53.5146999999999 c 1.0346,-2.0699 1.5854,-4.268 0.9715,-6.0231 -0.8042,-2.2998 -3.0636,-3.9659 -5.4555,-5.0307 -1.6605,-0.7377 -9.6671,-3.1021 -8.8238,-4.42 1.4092,-2.2025 -1.3587,-3.3666 -3.0089,-4.9528 -4.4016,-4.2298 -5.9932,-6.181 -10.4398,-8.6015 -4.289,-2.3346 -10.0815,-2.6957 -13.3423,-2.4913 8.6969,1.1025 16.2448,5.0587 12.9932,8.2515 -1.7751,1.7436 -5.5721,1.501 -12.0619,-0.5836 -6.8457,-2.1981 -15.8445,-6.0893 -20.0856,-13.4978 1.9044,8.8087 13.3315,14.1735 21.4344,17.0721 -3.847,0.9054 -6.1129,1.4813 -10.5387,3.5261 -6.1981,-1.4299 -12.8686,-1.6726 -18.9253,3.9761 6.3521,-2.8182 11.2937,-3.0802 13.0026,-0.9349 -2.8376,1.8776 -4.8233,3.4803 -6.5545,5.7029 -5.8361,1.6428 -9.0905,3.3262 -10.6953,7.9657 2.4913,-3.4778 5.4828,-5.0369 8.192,-4.0054 -1.0637,2.3467 -1.5639,4.9316 -1.4413,7.835 -2.5426,1.8855 -4.3238,4.415 -4.7496,10.4536 1.4552,-4.9618 3.4426,-6.8848 5.2214,-6.7056 0.033,0.1774 0.071,0.3391 0.1084,0.5131 0.5137,2.3109 1.2918,4.2624 2.2554,6.0629 -2.1798,2.0425 -3.4091,4.7823 -2.6927,11.7989 0.2005,-4.8139 1.5663,-8.4027 4.4954,-9.0322 1.4371,2.0241 3.7154,5.1846 5.384,7.5713 1.0739,1.5345 -1.5926,12.9335 -1.7092,15.4022 l 15.3871,4.1446 16.9811,-1.9773 c 2.5361,-13.1028 -10.6336,-28.7659 -15.9878,-32.9901 -2.4218,-1.9093 -4.2464,-5.9189 -3.4688,-8.7394 0.9903,-3.5931 3.9549,-6.916 7.5437,-8.1104 1.5222,1.1954 2.3601,1.7457 2.9521,3.4872 1.8188,5.352 2.8457,7.917 11.098,12.2785 2.301,1.215 4.6666,0.5131 6.7182,0.2562 -1.2856,-0.274 -2.4014,-0.3212 -3.6872,-0.5959 1.1852,-0.2213 2.1157,-1.1952 2.3675,-1.7948 -1.6226,0.8718 -3.5845,0.718 -5.8864,-0.4617 1.1771,-0.2266 2.7078,-0.783 3.5814,-1.2111 -1.6911,0.079 -4.185,-0.1773 -4.9636,-0.8953 -0.6377,-0.5878 -1.3629,-1.4952 -1.5997,-2.2911 1.3453,0.7356 2.9856,0.079 4.1042,0 -1.8627,-0.3096 -5.1022,-1.8106 -5.9112,-3.0688 -1.4459,-2.2501 -2.4913,-4.3299 -2.7639,-6.5009 3.0764,2.6928 6.3649,5.7645 9.2735,8.295 3.4063,2.9633 7.5832,5.1785 11.5641,5.7448 3.1972,0.4536 3.9656,0.7043 6.2271,3.0234 -1.1125,-3.4269 -4.1144,-3.5279 -5.671,-4.0318 2.2981,-0.079 4.5956,0.079 7.2278,1.6115 -2.4834,-2.8219 -5.0737,-2.5512 -7.6727,-2.5205 -2.685,0.041 -6.6732,-1.2131 -9.7852,-4.1321 -3.1439,-2.9507 -5.8058,-5.2731 -8.7485,-9.3809 3.372,0.8658 6.5887,2.6342 7.6748,5.9105 0.3407,-1.7575 0,-3.4138 -1.0147,-4.9678 1.7695,-0.1576 4.5996,2.5292 7.2735,6.6637 0.019,-1.4735 0.2264,-2.5931 -0.4452,-4.7708 2.8568,0.4323 4.4961,1.7692 6.129,4.7708 0.7195,-1.1697 1.0663,-2.5685 -0.144,-4.1488 3.2913,0.6466 4.0952,3.1228 5.3404,5.518 0.341,-1.3018 0.6207,-2.4277 0.8935,-3.0254 0.714,-0.014 1.8604,1.0256 1.8799,4.0564 l 0,0 -3e-4,0 3e-4,0 0,0 2e-4,0 z m -3.9551,-9.4509 c 0.5685,0.254 1.4847,0.8364 1.6274,1.7594 -0.5488,-0.3369 -1.0155,-0.041 -1.8661,-0.6487 -0.8059,-0.5801 -0.9985,-1.0019 -1.4156,-1.1636 0.5618,-0.098 1.2848,-0.079 1.6543,0.062 l 0,-0.014 0,0.01 0,0 0,2e-4 z m -17.167,-9.4375 c 1.6193,0.7318 1.8808,1.1894 3.0033,3.1666 -1.681,-1.1755 -2.6073,-0.079 -3.8732,-0.9881 -1.1692,-0.8146 -2.0039,-1.979 -3.55,-2.4409 1.5991,-0.3609 3.3687,-0.2211 4.4199,0.2645 l 0,0 0,0 0,-10e-5 0,2e-4 z"
class="fil0"
style="fill:#000000;fill-opacity:1"
id="path2955-0"
/>
</svg>
