<?xml version="1.0" encoding="UTF-8" standalone="no"?>
<svg
xmlns:dc="http://purl.org/dc/elements/1.1/"
xmlns:rdf="http://www.w3.org/1999/02/22-rdf-syntax-ns#"
xmlns="http://www.w3.org/2000/svg"
xmlns:svg="http://www.w3.org/2000/svg"
xmlns:cc="http://creativecommons.org/ns#"
xmlns:inkscape="http://www.inkscape.org/namespaces/inkscape"
xmlns:sodipodi="http://sodipodi.sourceforge.net/DTD/sodipodi-0.dtd"
>
<circle
style="fill:#008000"
id="circle4081"
cx="50"
cy="50"
r="50"
/>
<circle
r="35"
cx="50"
cy="50"
style="fill:#ffffff"
id="circle4083"
/>
<path
d="m 37.0248999999999,85.12388 c -0.3657,-0.47733 -0.6851,-0.86792 -0.7099,-0.86792 -0.025,0 -0.4617,-0.53279 -0.9711,-1.184 -1.0403,-1.32988 -1.249,-1.58467 -1.2987,-1.58467 -0.019,0 -0.3868,-0.45891 -0.8174,-1.01991 -0.4306,-0.56108 -0.8103,-1.02006 -0.8437,-1.02006 -0.034,0 -0.048,-0.0278 -0.031,-0.0612 0.016,-0.0334 -0.033,-0.0993 -0.1089,-0.14428 -0.076,-0.0445 -0.1386,-0.11467 -0.1386,-0.15616 0,-0.041 -0.025,-0.0743 -0.056,-0.0743 -0.031,0 -0.461,-0.52458 -0.9562,-1.16586 -0.4952,-0.64121 -0.9253,-1.16566 -0.9558,-1.16566 -0.031,0 -0.4078,-0.45904 -0.8384,-1.02012 -0.4306,-0.56093 -0.805,-1.01998 -0.832,-1.01998 -0.027,0 -0.4446,-0.50005 -0.9279,-1.11109 -0.4834,-0.61112 -1.0078,-1.25851 -1.1653,-1.43893 -0.1575,-0.18035 -0.6009,-0.72947 -0.9853,-1.22049 -0.3844,-0.49081 -0.7352,-0.89245 -0.7795,-0.89245 -0.044,0 -0.081,-0.05 -0.081,-0.1119 0,-0.0612 -0.043,-0.13281 -0.095,-0.15866 -0.052,-0.0271 -0.4798,-0.54127 -0.9505,-1.14529 -0.4707,-0.60382 -0.9613,-1.21271 -1.0904,-1.3531 -0.129,-0.14011 -0.5742,-0.6893 -0.9892,-1.22035 -0.415,-0.53091 -0.7775,-0.96535 -0.8056,-0.96535 -0.028,0 -0.4251,-0.48359 -0.8824,-1.07454 -0.4573,-0.5911 -0.93,-1.17122 -1.0504,-1.28902 -0.1204,-0.11745 -0.6308,-0.74893 -1.1342,-1.40244 -0.5035,-0.65365 -0.939,-1.18824 -0.9678,-1.18824 -0.029,0 -0.3933,-0.43452 -0.8101,-0.96536 -0.4167,-0.53105 -0.8735,-1.09101 -1.015,-1.24446 -0.1415,-0.15332 -0.2404,-0.31421 -0.2199,-0.35723 0.021,-0.0445 0.011,-0.0577 -0.024,-0.0299 -0.035,0.0278 -0.4154,-0.40727 -0.8818,-1.00865 -0.4512,-0.58192 -0.843,-1.05807 -0.8707,-1.05807 -0.028,0 -0.4418,-0.50005 -0.9201,-1.11103 -0.4784,-0.61111 -0.9709,-1.20943 -1.0945,-1.32974 -0.1236,-0.1203 -0.2259,-0.26055 -0.2273,-0.31205 -7e-4,-0.0517 0.2504,-0.41985 0.5597,-0.81837 0.3092,-0.39865 0.5554,-0.7499 0.5472,-0.78069 -0.01,-0.0306 0.042,-0.0882 0.1112,-0.12725 0.069,-0.0389 0.1263,-0.10919 0.1263,-0.15575 0,-0.0466 0.3662,-0.56483 0.8138,-1.15294 0.4476,-0.58825 0.8138,-1.09494 0.8138,-1.12613 0,-0.0306 0.3662,-0.53853 0.8138,-1.12764 0.4476,-0.58892 0.8138,-1.08634 0.8138,-1.10518 0,-0.0548 0.3552,-0.54289 1.2207,-1.67981 0.4399,-0.5777 0.7998,-1.08467 0.7998,-1.12662 0,-0.0418 0.025,-0.0557 0.056,-0.0307 0.031,0.0251 0.056,0 0.056,-0.0669 0,-0.0612 0.076,-0.18424 0.1683,-0.27307 0.093,-0.0891 0.1684,-0.18898 0.1684,-0.22238 0,-0.0334 0.3741,-0.54503 0.8313,-1.13675 0.4572,-0.59162 0.8479,-1.13181 0.8682,-1.20041 0.086,-0.29237 0.2429,-0.14405 1.3298,1.25954 0.3259,0.42083 0.6805,0.85141 0.788,0.95695 0.1076,0.10498 0.6209,0.73669 1.1406,1.40256 0.5197,0.66588 0.9656,1.21053 0.9909,1.21053 0.025,0 0.4278,0.49194 0.8947,1.09302 0.4669,0.60109 0.8584,1.09275 0.8701,1.09275 0.035,0 0.4336,0.48654 1.328,1.62115 0.466,0.59105 0.8684,1.07463 0.8942,1.07463 0.026,0 0.4406,0.50819 0.9216,1.12931 0.4811,0.62112 0.9121,1.1293 0.9578,1.1293 0.046,0 0.083,0.0494 0.083,0.10905 0,0.0605 0.024,0.10918 0.052,0.10918 0.029,0 0.4183,0.47253 0.8657,1.04973 0.4475,0.57734 0.8281,1.03089 0.8458,1.00796 0.018,-0.0222 0.032,0.0139 0.032,0.0798 0,0.0667 0.025,0.12177 0.056,0.12177 0.08,0 0.3121,0.27209 1.1031,1.29305 0.3802,0.49101 0.7076,0.89265 0.7274,0.89265 0.043,0 0.2527,0.25569 1.1649,1.42072 0.3766,0.4808 0.7721,0.96063 0.8789,1.06606 0.1069,0.10495 0.5383,0.63322 0.9588,1.17254 0.4205,0.53946 0.8056,1.00135 0.8559,1.02637 0.05,0.025 0.091,0.0951 0.091,0.15707 0,0.0633 0.049,0.1119 0.1122,0.1119 0.063,0 0.1123,0.0493 0.1123,0.11196 0,0.0612 0.044,0.13282 0.098,0.15902 0.054,0.0271 0.1312,0.10772 0.1716,0.17986 0.04,0.0724 0.1116,0.13289 0.1583,0.13289 0.093,0 0.2551,-0.18098 0.2398,-0.26792 0,-0.0306 0.037,-0.0882 0.093,-0.13018 0.162,-0.11884 0.3582,-0.38357 0.3209,-0.43194 -0.019,-0.0243 0,-0.0445 0.031,-0.0445 0.036,0 0.582,-0.66393 1.2142,-1.47542 1.1818,-1.51711 1.5459,-1.96768 1.5459,-1.91354 0,0.0167 0.559,-0.68881 1.2422,-1.56854 0.6833,-0.87987 1.2643,-1.59975 1.2912,-1.59975 0.027,0 0.5884,-0.69681 1.2477,-1.54826 1.2989,-1.67773 1.88,-2.38614 1.9571,-2.38614 0.027,0 0.034,-0.0306 0.016,-0.0688 -0.018,-0.0382 0.02,-0.10627 0.084,-0.15068 0.064,-0.0445 0.6304,-0.74309 1.2578,-1.55187 1.2904,-1.66357 1.582,-2.01693 1.6641,-2.01693 0.032,0 0.042,-0.0325 0.023,-0.0724 -0.019,-0.0409 -0.01,-0.0724 0.025,-0.0724 0.033,0 0.6288,-0.73874 1.3244,-1.64185 0.6956,-0.90303 1.2896,-1.62171 1.32,-1.59739 0.03,0.0241 0.048,0 0.04,-0.0409 -0.01,-0.0464 0.033,-0.12308 0.091,-0.16939 0.059,-0.0464 0.6529,-0.78914 1.3203,-1.65067 0.6675,-0.86162 1.2824,-1.61308 1.3665,-1.66988 0.084,-0.0575 0.153,-0.13004 0.153,-0.16308 0,-0.0798 0.1822,-0.35281 0.2355,-0.35281 0.023,0 0.6167,-0.7417 1.319,-1.64797 0.7022,-0.90646 1.3642,-1.73436 1.4711,-1.8397 0.1068,-0.10492 0.8229,-1.00314 1.5912,-1.99494 0.7684,-0.99181 1.433,-1.8033 1.477,-1.8033 0.044,0 0.074,-0.0293 0.066,-0.0657 -0.01,-0.0364 0.01,-0.077 0.04,-0.091 0.03,-0.014 0.6579,-0.80407 1.3964,-1.75587 0.7386,-0.95166 1.3645,-1.73028 1.391,-1.73028 0.026,0 0.5381,-0.63117 1.1368,-1.40252 1.465,-1.88736 1.8632,-2.3862 1.905,-2.3862 0.019,0 0.594,-0.72125 1.2769,-1.60284 0.683,-0.88157 1.2772,-1.60283 1.3206,-1.60283 0.043,0 0.079,-0.035 0.079,-0.0783 0,-0.0434 0.038,-0.12731 0.084,-0.18745 0.046,-0.0601 0.084,-0.091 0.084,-0.07 0,0.0224 0.5656,-0.68881 1.257,-1.57948 1.5516,-1.99886 1.8859,-2.41628 1.8859,-2.35459 0,0.0266 0.2517,-0.28076 0.5593,-0.68292 0.3076,-0.40205 0.5728,-0.73107 0.5893,-0.73107 0.016,0 0.03,0.0434 0.03,0.0951 0,0.0532 0.051,0.16591 0.1123,0.25193 0.062,0.0867 0.1122,0.19977 0.1122,0.25265 0,0.0532 0.051,0.14353 0.1123,0.20129 0.062,0.0573 0.1122,0.15612 0.1122,0.21851 0,0.063 0.051,0.16087 0.1123,0.21864 0.062,0.0573 0.1122,0.16339 0.1122,0.23459 0,0.0714 0.021,0.13011 0.047,0.13011 0.026,0 0.082,0.0896 0.1259,0.20045 0.043,0.11051 0.1236,0.25334 0.1779,0.3181 0.054,0.0643 0.099,0.14884 0.099,0.18661 0,0.0378 0.044,0.1343 0.098,0.21374 0.054,0.0797 0.1259,0.20887 0.1596,0.28707 0.034,0.0783 0.097,0.22354 0.1404,0.32328 0.043,0.0993 0.1231,0.23473 0.1771,0.30006 0.054,0.0657 0.098,0.17206 0.098,0.23753 0,0.0657 0.021,0.1189 0.047,0.1189 0.026,0 0.082,0.0896 0.1259,0.20032 0.044,0.11051 0.1237,0.25347 0.1779,0.31824 0.054,0.0644 0.099,0.17136 0.099,0.23683 0,0.0657 0.021,0.1189 0.047,0.1189 0.026,0 0.082,0.0896 0.1263,0.20032 0.044,0.11051 0.1238,0.26398 0.1778,0.34161 0.054,0.077 0.098,0.18424 0.098,0.23684 0,0.0532 0.019,0.0951 0.043,0.0951 0.024,0 0.1053,0.1315 0.1816,0.29138 0.076,0.16032 0.1581,0.2914 0.1817,0.2914 0.024,0 0.043,0.0657 0.043,0.14576 0,0.0797 0.021,0.14575 0.047,0.14575 0.026,0 0.082,0.0896 0.1263,0.20032 0.044,0.11052 0.1238,0.26397 0.1778,0.34161 0.054,0.077 0.098,0.18424 0.098,0.23683 0,0.0532 0.025,0.0951 0.056,0.0951 0.031,0 0.056,0.0587 0.056,0.1301 0,0.0714 0.051,0.17682 0.1123,0.2346 0.062,0.0573 0.1123,0.13849 0.1123,0.18003 0,0.0406 0.062,0.16913 0.1387,0.28425 0.076,0.11471 0.1537,0.27083 0.1721,0.34609 0.018,0.0756 0.057,0.13709 0.086,0.13709 0.029,0 0.052,0.0434 0.052,0.0951 0,0.0532 0.051,0.16591 0.1123,0.25194 0.062,0.0867 0.1122,0.195 0.1122,0.242 0,0.0475 0.044,0.13849 0.099,0.20339 0.054,0.0643 0.1343,0.20802 0.1779,0.31825 0.044,0.11051 0.1002,0.20032 0.1259,0.20032 0.026,0 0.047,0.0587 0.047,0.13009 0,0.0714 0.051,0.17683 0.1122,0.23461 0.062,0.0573 0.1123,0.15611 0.1123,0.21864 0,0.063 0.051,0.16073 0.1122,0.2185 0.062,0.0573 0.1123,0.1634 0.1123,0.23473 0,0.0714 0.024,0.1301 0.052,0.1301 0.029,0 0.067,0.0615 0.086,0.13709 0.018,0.0755 0.096,0.23095 0.1721,0.34608 0.076,0.1147 0.1386,0.25026 0.1387,0.30034 0,0.0504 0.021,0.091 0.047,0.091 0.026,0 0.082,0.0896 0.1262,0.20032 0.044,0.11051 0.1239,0.26397 0.1779,0.34161 0.054,0.0769 0.098,0.18424 0.098,0.23684 0,0.0532 0.025,0.0951 0.056,0.0951 0.031,0 0.056,0.0434 0.056,0.0951 0,0.0532 0.051,0.16591 0.1123,0.25195 0.062,0.0867 0.1122,0.19052 0.1122,0.23234 0,0.042 0.019,0.0756 0.043,0.0756 0.023,0 0.078,0.10633 0.122,0.2367 0.044,0.1301 0.1257,0.28984 0.1821,0.35461 0.056,0.0644 0.1025,0.15556 0.1025,0.20158 0,0.12171 -2.9767,3.94288 -3.0719,3.94288 -0.01,0 -0.478,0.59831 -1.0431,1.32964 -0.565,0.73134 -1.1875,1.50993 -1.3832,1.73038 -0.1957,0.22035 -0.9353,1.14658 -1.6436,2.05823 -0.7082,0.91156 -1.3083,1.65744 -1.3335,1.65744 -0.025,0 -0.6507,0.77884 -1.3901,1.73049 -0.7394,0.95176 -1.5255,1.94342 -1.7469,2.20386 -0.2215,0.26045 -0.882,1.08839 -1.4679,1.83965 -0.5859,0.75145 -1.0858,1.36628 -1.1109,1.36628 -0.025,0 -0.076,0.0743 -0.1144,0.16391 -0.038,0.0891 -0.1552,0.24597 -0.2608,0.34612 -0.1056,0.1007 -0.207,0.23947 -0.2251,0.30955 -0.018,0.0696 -0.069,0.12734 -0.1138,0.12734 -0.044,0 -0.5946,0.66378 -1.2226,1.47533 -0.6281,0.81148 -1.2741,1.62297 -1.4356,1.80325 -0.1615,0.18035 -0.8865,1.09011 -1.6112,2.02182 -0.7247,0.93165 -1.3397,1.69393 -1.3667,1.69393 -0.027,0 -0.6423,0.76234 -1.3673,1.69406 -1.5548,1.99784 -1.7493,2.24019 -1.7968,2.24019 -0.02,0 -0.5763,0.69681 -1.2368,1.54832 -0.6604,0.85152 -1.2791,1.63798 -1.3747,1.74744 -0.096,0.10918 -0.1739,0.23255 -0.1739,0.27327 0,0.041 -0.038,0.0743 -0.083,0.0743 -0.046,0 -0.5968,0.66386 -1.2241,1.47541 -0.6272,0.81128 -1.2237,1.55736 -1.3254,1.65751 -0.1018,0.10071 -0.7957,0.96904 -1.5422,1.93071 -0.7464,0.96181 -1.4472,1.83674 -1.5573,1.94447 -0.1101,0.10772 -0.808,0.97668 -1.5509,1.93092 -1.316,1.68996 -1.7924,2.28113 -1.8384,2.28113 -0.012,0 -0.5294,0.65587 -1.1489,1.4572 -0.6195,0.80141 -1.1447,1.45707 -1.1671,1.45707 -0.022,0 -0.1034,0.0979 -0.1799,0.21865 -0.076,0.1203 -0.1751,0.21851 -0.2192,0.21851 -0.044,0 -0.065,0.0195 -0.045,0.0445 0.043,0.0549 -0.097,0.24637 -0.1804,0.24637 -0.033,0 -0.06,0.05 -0.06,0.1119 0,0.0612 -0.041,0.13156 -0.092,0.15755 -0.051,0.025 -0.5579,0.64712 -1.1274,1.38194 -0.5695,0.73496 -1.0584,1.33621 -1.0866,1.33621 -0.028,0 -0.051,0.0493 -0.051,0.10918 0,0.0605 -0.022,0.10905 -0.049,0.10905 -0.079,0 -0.3385,0.3133 -1.6119,1.94885 -0.663,0.85151 -1.2241,1.54832 -1.247,1.54832 -0.023,0 -0.085,0.066 -0.1378,0.14581 -0.053,0.0799 -0.1405,0.14275 -0.1949,0.1399 -0.054,0 -0.3979,-0.39712 -0.7636,-0.87438 z"
style="fill:#008000"
id="path4085"
/>
<path
style="fill:#008000"
id="path4090"
d="m 63.4740999999999,85.12388 c 0.3657,-0.47733 0.6851,-0.86792 0.7099,-0.86792 0.025,0 0.4617,-0.53279 0.9711,-1.184 1.0403,-1.32988 1.249,-1.58467 1.2987,-1.58467 0.019,0 0.3868,-0.45891 0.8174,-1.01991 0.4306,-0.56108 0.8103,-1.02006 0.8437,-1.02006 0.034,0 0.048,-0.0278 0.031,-0.0612 -0.016,-0.0334 0.033,-0.0993 0.1089,-0.14428 0.076,-0.0445 0.1386,-0.11467 0.1386,-0.15616 0,-0.041 0.025,-0.0743 0.056,-0.0743 0.031,0 0.461,-0.52458 0.9562,-1.16586 0.4952,-0.64121 0.9253,-1.16566 0.9558,-1.16566 0.031,0 0.4078,-0.45904 0.8384,-1.02012 0.4306,-0.56093 0.805,-1.01998 0.832,-1.01998 0.027,0 0.4446,-0.50005 0.9279,-1.11109 0.4834,-0.61112 1.0078,-1.25851 1.1653,-1.43893 0.1575,-0.18035 0.6009,-0.72947 0.9853,-1.22049 0.3844,-0.49081 0.7352,-0.89245 0.7795,-0.89245 0.044,0 0.081,-0.05 0.081,-0.1119 0,-0.0612 0.043,-0.13281 0.095,-0.15866 0.052,-0.0271 0.4798,-0.54127 0.9505,-1.14529 0.4707,-0.60382 0.9613,-1.21271 1.0904,-1.3531 0.129,-0.14011 0.5742,-0.6893 0.9892,-1.22035 0.415,-0.53091 0.7775,-0.96535 0.8056,-0.96535 0.028,0 0.4251,-0.48359 0.8824,-1.07454 0.4573,-0.5911 0.93,-1.17122 1.0504,-1.28902 0.1204,-0.11745 0.6308,-0.74893 1.1342,-1.40244 0.5035,-0.65365 0.939,-1.18824 0.9678,-1.18824 0.029,0 0.3933,-0.43452 0.8101,-0.96536 0.4167,-0.53105 0.8735,-1.09101 1.015,-1.24446 0.1415,-0.15332 0.2404,-0.31421 0.2199,-0.35723 -0.021,-0.0445 -0.011,-0.0577 0.024,-0.0299 0.035,0.0278 0.4154,-0.40727 0.8818,-1.00865 0.4512,-0.58192 0.843,-1.05807 0.8707,-1.05807 0.028,0 0.4418,-0.50005 0.9201,-1.11103 0.4784,-0.61111 0.9709,-1.20943 1.0945,-1.32974 0.1236,-0.1203 0.2259,-0.26055 0.2273,-0.31205 7e-4,-0.0517 -0.2504,-0.41985 -0.5597,-0.81837 -0.3092,-0.39865 -0.5554,-0.7499 -0.5472,-0.78069 0.01,-0.0306 -0.042,-0.0882 -0.1112,-0.12725 -0.069,-0.0389 -0.1263,-0.10919 -0.1263,-0.15575 0,-0.0466 -0.3662,-0.56483 -0.8138,-1.15294 -0.4476,-0.58825 -0.8138,-1.09494 -0.8138,-1.12613 0,-0.0306 -0.3662,-0.53853 -0.8138,-1.12764 -0.4476,-0.58892 -0.8138,-1.08634 -0.8138,-1.10518 0,-0.0548 -0.3552,-0.54289 -1.2207,-1.67981 -0.4399,-0.5777 -0.7998,-1.08467 -0.7998,-1.12662 0,-0.0418 -0.025,-0.0557 -0.056,-0.0307 -0.031,0.0251 -0.056,0 -0.056,-0.0669 0,-0.0612 -0.076,-0.18424 -0.1683,-0.27307 -0.093,-0.0891 -0.1684,-0.18898 -0.1684,-0.22238 0,-0.0334 -0.3741,-0.54503 -0.8313,-1.13675 -0.4572,-0.59162 -0.8479,-1.13181 -0.8682,-1.20041 -0.086,-0.29237 -0.2429,-0.14405 -1.3298,1.25954 -0.3259,0.42083 -0.6805,0.85141 -0.788,0.95695 -0.1076,0.10498 -0.6209,0.73669 -1.1406,1.40256 -0.5197,0.66588 -0.9656,1.21053 -0.9909,1.21053 -0.025,0 -0.4278,0.49194 -0.8947,1.09302 -0.4669,0.60109 -0.8584,1.09275 -0.8701,1.09275 -0.035,0 -0.4336,0.48654 -1.328,1.62115 -0.466,0.59105 -0.8684,1.07463 -0.8942,1.07463 -0.026,0 -0.4406,0.50819 -0.9216,1.12931 -0.4811,0.62112 -0.9121,1.1293 -0.9578,1.1293 -0.046,0 -0.083,0.0494 -0.083,0.10905 0,0.0605 -0.024,0.10918 -0.052,0.10918 -0.029,0 -0.4183,0.47253 -0.8657,1.04973 -0.4475,0.57734 -0.8281,1.03089 -0.8458,1.00796 -0.018,-0.0222 -0.032,0.0139 -0.032,0.0798 0,0.0667 -0.025,0.12177 -0.056,0.12177 -0.08,0 -0.3121,0.27209 -1.1031,1.29305 -0.3802,0.49101 -0.7076,0.89265 -0.7274,0.89265 -0.043,0 -0.2527,0.25569 -1.1649,1.42072 -0.3766,0.4808 -0.7721,0.96063 -0.8789,1.06606 -0.1069,0.10495 -0.5383,0.63322 -0.9588,1.17254 -0.4205,0.53946 -0.8056,1.00135 -0.8559,1.02637 -0.05,0.025 -0.091,0.0951 -0.091,0.15707 0,0.0633 -0.049,0.1119 -0.1122,0.1119 -0.063,0 -0.1123,0.0493 -0.1123,0.11196 0,0.0612 -0.044,0.13282 -0.098,0.15902 -0.054,0.0271 -0.1312,0.10772 -0.1716,0.17986 -0.04,0.0724 -0.1116,0.13289 -0.1583,0.13289 -0.093,0 -0.2551,-0.18098 -0.2398,-0.26792 0,-0.0306 -0.037,-0.0882 -0.093,-0.13018 -0.162,-0.11884 -0.3582,-0.38357 -0.3209,-0.43194 0.019,-0.0243 0,-0.0445 -0.031,-0.0445 -0.036,0 -0.582,-0.66393 -1.2142,-1.47542 -1.1818,-1.51711 -1.5459,-1.96768 -1.5459,-1.91354 0,0.0167 -0.559,-0.68881 -1.2422,-1.56854 -0.6833,-0.87987 -1.2643,-1.59975 -1.2912,-1.59975 -0.027,0 -0.5884,-0.69681 -1.2477,-1.54826 -1.2989,-1.67773 -1.88,-2.38614 -1.9571,-2.38614 -0.027,0 -0.034,-0.0306 -0.016,-0.0688 0.018,-0.0382 -0.02,-0.10627 -0.084,-0.15068 -0.064,-0.0445 -0.6304,-0.74309 -1.2578,-1.55187 -1.2904,-1.66357 -1.582,-2.01693 -1.6641,-2.01693 -0.032,0 -0.042,-0.0325 -0.023,-0.0724 0.019,-0.0409 0.01,-0.0724 -0.025,-0.0724 -0.033,0 -0.6288,-0.73874 -1.3244,-1.64185 -0.6956,-0.90303 -1.2896,-1.62171 -1.32,-1.59739 -0.03,0.0241 -0.048,0 -0.04,-0.0409 0.01,-0.0464 -0.033,-0.12308 -0.091,-0.16939 -0.059,-0.0464 -0.6529,-0.78914 -1.3203,-1.65067 -0.6675,-0.86162 -1.2824,-1.61308 -1.3665,-1.66988 -0.084,-0.0575 -0.153,-0.13004 -0.153,-0.16308 0,-0.0798 -0.1822,-0.35281 -0.2355,-0.35281 -0.023,0 -0.6167,-0.7417 -1.319,-1.64797 -0.7022,-0.90646 -1.3642,-1.73436 -1.4711,-1.8397 -0.1068,-0.10492 -0.8229,-1.00314 -1.5912,-1.99494 -0.7684,-0.99181 -1.433,-1.8033 -1.477,-1.8033 -0.044,0 -0.074,-0.0293 -0.066,-0.0657 0.01,-0.0364 -0.01,-0.077 -0.04,-0.091 -0.03,-0.014 -0.6579,-0.80407 -1.3964,-1.75587 -0.7386,-0.95166 -1.3645,-1.73028 -1.391,-1.73028 -0.026,0 -0.5381,-0.63117 -1.1368,-1.40252 -1.465,-1.88736 -1.8632,-2.3862 -1.905,-2.3862 -0.019,0 -0.594,-0.72125 -1.2769,-1.60284 -0.683,-0.88157 -1.2772,-1.60283 -1.3206,-1.60283 -0.043,0 -0.079,-0.035 -0.079,-0.0783 0,-0.0434 -0.038,-0.12731 -0.084,-0.18745 -0.046,-0.0601 -0.084,-0.091 -0.084,-0.07 0,0.0224 -0.5656,-0.68881 -1.257,-1.57948 -1.5516,-1.99886 -1.8859,-2.41628 -1.8859,-2.35459 0,0.0266 -0.2517,-0.28076 -0.5593,-0.68292 -0.3076,-0.40205 -0.5728,-0.73107 -0.5893,-0.73107 -0.016,0 -0.03,0.0434 -0.03,0.0951 0,0.0532 -0.051,0.16591 -0.1123,0.25193 -0.062,0.0867 -0.1122,0.19977 -0.1122,0.25265 0,0.0532 -0.051,0.14353 -0.1123,0.20129 -0.062,0.0573 -0.1122,0.15612 -0.1122,0.21851 0,0.063 -0.051,0.16087 -0.1123,0.21864 -0.062,0.0573 -0.1122,0.16339 -0.1122,0.23459 0,0.0714 -0.021,0.13011 -0.047,0.13011 -0.026,0 -0.082,0.0896 -0.1259,0.20045 -0.043,0.11051 -0.1236,0.25334 -0.1779,0.3181 -0.054,0.0643 -0.099,0.14884 -0.099,0.18661 0,0.0378 -0.044,0.1343 -0.098,0.21374 -0.054,0.0797 -0.1259,0.20887 -0.1596,0.28707 -0.034,0.0783 -0.097,0.22354 -0.1404,0.32328 -0.043,0.0993 -0.1231,0.23473 -0.1771,0.30006 -0.054,0.0657 -0.098,0.17206 -0.098,0.23753 0,0.0657 -0.021,0.1189 -0.047,0.1189 -0.026,0 -0.082,0.0896 -0.1259,0.20032 -0.044,0.11051 -0.1237,0.25347 -0.1779,0.31824 -0.054,0.0644 -0.099,0.17136 -0.099,0.23683 0,0.0657 -0.021,0.1189 -0.047,0.1189 -0.026,0 -0.082,0.0896 -0.1263,0.20032 -0.044,0.11051 -0.1238,0.26398 -0.1778,0.34161 -0.054,0.077 -0.098,0.18424 -0.098,0.23684 0,0.0532 -0.019,0.0951 -0.043,0.0951 -0.024,0 -0.1053,0.1315 -0.1816,0.29138 -0.076,0.16032 -0.1581,0.2914 -0.1817,0.2914 -0.024,0 -0.043,0.0657 -0.043,0.14576 0,0.0797 -0.021,0.14575 -0.047,0.14575 -0.026,0 -0.082,0.0896 -0.1263,0.20032 -0.044,0.11052 -0.1238,0.26397 -0.1778,0.34161 -0.054,0.077 -0.098,0.18424 -0.098,0.23683 0,0.0532 -0.025,0.0951 -0.056,0.0951 -0.031,0 -0.056,0.0587 -0.056,0.1301 0,0.0714 -0.051,0.17682 -0.1123,0.2346 -0.062,0.0573 -0.1123,0.13849 -0.1123,0.18003 0,0.0406 -0.062,0.16913 -0.1387,0.28425 -0.076,0.11471 -0.1537,0.27083 -0.1721,0.34609 -0.018,0.0756 -0.057,0.13709 -0.086,0.13709 -0.029,0 -0.052,0.0434 -0.052,0.0951 0,0.0532 -0.051,0.16591 -0.1123,0.25194 -0.062,0.0867 -0.1122,0.195 -0.1122,0.242 0,0.0475 -0.044,0.13849 -0.099,0.20339 -0.054,0.0643 -0.1343,0.20802 -0.1779,0.31825 -0.044,0.11051 -0.1002,0.20032 -0.1259,0.20032 -0.026,0 -0.047,0.0587 -0.047,0.13009 0,0.0714 -0.051,0.17683 -0.1122,0.23461 -0.062,0.0573 -0.1123,0.15611 -0.1123,0.21864 0,0.063 -0.051,0.16073 -0.1122,0.2185 -0.062,0.0573 -0.1123,0.1634 -0.1123,0.23473 0,0.0714 -0.024,0.1301 -0.052,0.1301 -0.029,0 -0.067,0.0615 -0.086,0.13709 -0.018,0.0755 -0.096,0.23095 -0.1721,0.34608 -0.076,0.1147 -0.1386,0.25026 -0.1387,0.30034 0,0.0504 -0.021,0.091 -0.047,0.091 -0.026,0 -0.082,0.0896 -0.1262,0.20032 -0.044,0.11051 -0.1239,0.26397 -0.1779,0.34161 -0.054,0.0769 -0.098,0.18424 -0.098,0.23684 0,0.0532 -0.025,0.0951 -0.056,0.0951 -0.031,0 -0.056,0.0434 -0.056,0.0951 0,0.0532 -0.051,0.16591 -0.1123,0.25195 -0.062,0.0867 -0.1122,0.19052 -0.1122,0.23234 0,0.042 -0.019,0.0756 -0.043,0.0756 -0.023,0 -0.078,0.10633 -0.122,0.2367 -0.044,0.1301 -0.1257,0.28984 -0.1821,0.35461 -0.056,0.0644 -0.1025,0.15556 -0.1025,0.20158 0,0.12171 2.9767,3.94288 3.0719,3.94288 0.01,0 0.478,0.59831 1.0431,1.32964 0.565,0.73134 1.1875,1.50993 1.3832,1.73038 0.1957,0.22035 0.9353,1.14658 1.6436,2.05823 0.7082,0.91156 1.3083,1.65744 1.3335,1.65744 0.025,0 0.6507,0.77884 1.3901,1.73049 0.7394,0.95176 1.5255,1.94342 1.7469,2.20386 0.2215,0.26045 0.882,1.08839 1.4679,1.83965 0.5859,0.75145 1.0858,1.36628 1.1109,1.36628 0.025,0 0.076,0.0743 0.1144,0.16391 0.038,0.0891 0.1552,0.24597 0.2608,0.34612 0.1056,0.1007 0.207,0.23947 0.2251,0.30955 0.018,0.0696 0.069,0.12734 0.1138,0.12734 0.044,0 0.5946,0.66378 1.2226,1.47533 0.6281,0.81148 1.2741,1.62297 1.4356,1.80325 0.1615,0.18035 0.8865,1.09011 1.6112,2.02182 0.7247,0.93165 1.3397,1.69393 1.3667,1.69393 0.027,0 0.6423,0.76234 1.3673,1.69406 1.5548,1.99784 1.7493,2.24019 1.7968,2.24019 0.02,0 0.5763,0.69681 1.2368,1.54832 0.6604,0.85152 1.2791,1.63798 1.3747,1.74744 0.096,0.10918 0.1739,0.23255 0.1739,0.27327 0,0.041 0.038,0.0743 0.083,0.0743 0.046,0 0.5968,0.66386 1.2241,1.47541 0.6272,0.81128 1.2237,1.55736 1.3254,1.65751 0.1018,0.10071 0.7957,0.96904 1.5422,1.93071 0.7464,0.96181 1.4472,1.83674 1.5573,1.94447 0.1101,0.10772 0.808,0.97668 1.5509,1.93092 1.316,1.68996 1.7924,2.28113 1.8384,2.28113 0.012,0 0.5294,0.65587 1.1489,1.4572 0.6195,0.80141 1.1447,1.45707 1.1671,1.45707 0.022,0 0.1034,0.0979 0.1799,0.21865 0.076,0.1203 0.1751,0.21851 0.2192,0.21851 0.044,0 0.065,0.0195 0.045,0.0445 -0.043,0.0549 0.097,0.24637 0.1804,0.24637 0.033,0 0.06,0.05 0.06,0.1119 0,0.0612 0.041,0.13156 0.092,0.15755 0.051,0.025 0.5579,0.64712 1.1274,1.38194 0.5695,0.73496 1.0584,1.33621 1.0866,1.33621 0.028,0 0.051,0.0493 0.051,0.10918 0,0.0605 0.022,0.10905 0.049,0.10905 0.079,0 0.3385,0.3133 1.6119,1.94885 0.663,0.85151 1.2241,1.54832 1.247,1.54832 0.023,0 0.085,0.066 0.1378,0.14581 0.053,0.0799 0.1405,0.14275 0.1949,0.1399 0.054,0 0.3979,-0.39712 0.7636,-0.87438 z"
/>
</svg>
