<?xml version="1.0" encoding="UTF-8" standalone="no"?>
<svg
xmlns:sodipodi="http://sodipodi.sourceforge.net/DTD/sodipodi-0.dtd"
xmlns:inkscape="http://www.inkscape.org/namespaces/inkscape"
xmlns:cc="http://creativecommons.org/ns#"
xmlns:svg="http://www.w3.org/2000/svg"
xmlns="http://www.w3.org/2000/svg"
xmlns:rdf="http://www.w3.org/1999/02/22-rdf-syntax-ns#"
xmlns:dc="http://purl.org/dc/elements/1.1/"
>
<path
d="m 8.38560000000007,0.244110000000006 c -3.2613,0.60002 -6.3041,3.59853 -7.7326,7.55646 l -0.653,1.83912 0,40.38236 0,40.38081 0.869,2.27975 c 1.0875,2.8782 3.4167,5.63765 5.5905,6.59706 1.522,0.6797 3.7892,0.72033 43.6964,0.72033 l 42.0811,0 1.7077,-1.03909 c 2.4845,-1.47973 3.8815,-3.23915 5.0308,-6.27673 l 1.0245,-2.6782 0,-39.9808 0,-39.9808 -1.0245,-2.6782 c -1.1178,-2.99852 -2.7333,-4.91732 -5.2178,-6.39705 l -1.522,-0.91878 -41.1488,-0.0407 c -22.6396,-0.0453 -41.8626,0.0751 -42.7013,0.23438 z"
id="path4404"
style="fill:#ffffff"
/>
<path
d="m 8.38560000000007,0.244110000000006 c -3.2613,0.60002 -6.3041,3.59853 -7.7326,7.55646 l -0.653,1.83912 0,40.38236 0,40.38081 0.869,2.27975 c 1.0875,2.8782 3.4167,5.63765 5.5905,6.59706 1.522,0.6797 3.7892,0.72033 43.6964,0.72033 l 42.0811,0 1.7077,-1.03909 c 2.4845,-1.47973 3.8815,-3.23915 5.0308,-6.27673 l 1.0245,-2.6782 0,-39.9808 0,-39.9808 -1.0245,-2.6782 c -1.1178,-2.99852 -2.7333,-4.91732 -5.2178,-6.39705 l -1.522,-0.91878 -41.1488,-0.0407 c -22.6396,-0.0453 -41.8626,0.0751 -42.7013,0.23438 z m 81.7698,49.85764 -0.094,37.10258 -40.1246,0.12028 -40.1548,0.0797 0,-37.18228 0,-37.18229 40.218,0 40.218,0 -0.063,37.06197 z"
id="path4406"
style="fill:#404040;fill-opacity:1"
/>
<path
id="path4547"
style="fill:#404040;fill-opacity:1"
d="m 81.4838999999999,50.0293 q 0,14.34082 -8.2178,22.80029 -8.2178,8.41919 -22.7197,8.41919 -14.4617,0 -22.6795,-8.41919 -8.2177,-8.45947 -8.2177,-22.80029 0,-14.46167 8.2177,-22.84058 8.2178,-8.41919 22.6795,-8.41919 14.4214,0 22.6794,8.41919 8.2581,8.37891 8.2581,22.84058 z m -20.5042,15.18676 q 2.2559,-2.73925 3.3435,-6.44531 1.0877,-3.74634 1.0877,-8.78174 0,-5.39795 -1.2488,-9.18457 -1.2488,-3.78662 -3.2629,-6.12304 -2.0545,-2.417 -4.7534,-3.50464 -2.6587,-1.08765 -5.5591,-1.08765 -2.9407,0 -5.5591,1.04737 -2.5781,1.04736 -4.7534,3.46435 -2.0142,2.25586 -3.3033,6.2439 -1.2487,3.94775 -1.2487,9.18457 0,5.35766 1.2085,9.14428 1.2487,3.74634 3.2629,6.12305 2.0142,2.37671 4.7131,3.50464 2.699,1.12793 5.68,1.12793 2.9809,0 5.6799,-1.12793 2.699,-1.16821 4.7131,-3.58521 z"
/>
</svg>
