<?xml version="1.0" encoding="UTF-8" standalone="no"?>
<svg
xmlns:svg="http://www.w3.org/2000/svg"
xmlns:cc="http://creativecommons.org/ns#"
xmlns:dc="http://purl.org/dc/elements/1.1/"
xmlns="http://www.w3.org/2000/svg"
xmlns:rdf="http://www.w3.org/1999/02/22-rdf-syntax-ns#"
xmlns:sodipodi="http://sodipodi.sourceforge.net/DTD/sodipodi-0.dtd"
xmlns:inkscape="http://www.inkscape.org/namespaces/inkscape"
>
<circle
cy="50"
id="path4633"
cx="50"
style="fill:#ff0000;"
r="50"
/>
<path
d="m 47.8861000000001,89.75647 c -4.96833,-0.83778 -9.35011,-5.87755 -7.98375,-11.1243 1.84914,-7.20671 11.8472,-9.40715 17.06097,-4.58037 3.83642,2.97547 4.35566,9.2653 0.75505,12.64641 -2.25902,2.2706 -5.60821,3.42178 -8.73321,3.29189 -0.36683,-0.0756 -0.73282,-0.15518 -1.09906,-0.23363 z"
id="path4766"
style="fill:#ffffff"
/>
<path
style="fill:#ffffff"
id="path4647"
d="m 46.7587,62.06182 c -4.95662,-1.59798 -7.07127,-6.89943 -9.05846,-11.23286 -2.6783,-6.48317 -5.55574,-12.98995 -6.95677,-19.89113 -0.33168,-3.73193 -1.49159,-6.19526 -0.002,-12.15901 3.11593,-8.45011 10.3398,-11.21138 18.82821,-11.2696 8.6752,-0.2349 18.74745,4.02584 20.17629,12.12422 1.17303,7.8561 -1.94797,17.38148 -4.62783,24.63092 -2.16887,5.2069 -3.92995,10.80384 -7.63778,15.16451 -2.74387,2.87154 -6.97476,3.67909 -10.72144,2.63295 z"
/>
</svg>
