<?xml version="1.0" encoding="UTF-8" standalone="no"?>
<svg
xmlns:sodipodi="http://sodipodi.sourceforge.net/DTD/sodipodi-0.dtd"
xmlns:inkscape="http://www.inkscape.org/namespaces/inkscape"
xmlns:cc="http://creativecommons.org/ns#"
xmlns:svg="http://www.w3.org/2000/svg"
xmlns:rdf="http://www.w3.org/1999/02/22-rdf-syntax-ns#"
xmlns="http://www.w3.org/2000/svg"
xmlns:dc="http://purl.org/dc/elements/1.1/"
>
<rect
id="rect4541-2-9"
style="fill:#303030;fill-opacity:0"
y="1.4210855e-14"
width="100"
height="100"
x="0"
/>
<path
d="m 23.9204,99.947077 c -4.1132,-0.531809 -7.3938,-3.874355 -7.8595,-8.00789 -0.055,-0.488249 -0.071,-12.687444 -0.055,-42.386966 0.021,-39.8644005 0.028,-41.724878 0.1503,-42.2342175 0.4506,-1.8785283 1.1793,-3.2473156 2.4042,-4.5160445 1.0589,-1.0968186 2.2874,-1.87302765 3.6935,-2.333627 1.5341,-0.50253944 -0.5453,-0.46760944082 27.8356,-0.46760944082 28.3808,0 26.3014,-0.0349004292 27.8355,0.46760944082 1.4061,0.46059935 2.6346,1.2368084 3.6936,2.333627 1.2248,1.2687289 1.9535,2.6375162 2.4042,4.5160445 0.1223,0.5093395 0.1289,2.369817 0.1502,42.2342175 0.016,29.699522 0,41.898717 -0.055,42.386966 -0.2343,2.080148 -1.1157,3.892196 -2.6219,5.391043 -1.3265,1.319848 -2.6985,2.070678 -4.624,2.530437 -0.5067,0.12095 -1.8118,0.12777 -26.4985,0.13835 -14.7797,0.006 -26.1759,-0.016 -26.4535,-0.0519 z"
id="path4393"
style="fill:#ffffff;fill-opacity:1"
/>
<path
style="fill:#303030;fill-opacity:1"
id="path4364"
d="m 23.9202,99.947003 c -4.1131,-0.53181 -7.3937,-3.874364 -7.8594,-8.007908 -0.055,-0.488248 -0.071,-12.687458 -0.055,-42.387015 0.021,-39.864449 0.028,-41.7249268 0.1502,-42.2342675 0.4507,-1.878534 1.1794,-3.2473185 2.4043,-4.5160497 1.0589,-1.0968229 2.2874,-1.87303475 3.6935,-2.33363744 1.5341,-0.50253381 -0.5452,-0.46760528562 27.8356,-0.46760528562 28.3808,0 26.3015,-0.0349285244 27.8356,0.46760528562 1.4061,0.46060269 2.6346,1.23681454 3.6935,2.33363744 1.2249,1.2687312 1.9536,2.6375157 2.4043,4.5160497 0.1223,0.5093407 0.1289,2.3698185 0.1502,42.2342675 0.016,29.699557 0,41.898767 -0.055,42.387015 -0.2344,2.080157 -1.1157,3.892201 -2.622,5.391053 -1.3264,1.319855 -2.6985,2.07068 -4.624,2.53044 -0.5066,0.120956 -1.8117,0.127768 -26.4985,0.138347 -14.7797,0.0063 -26.1759,-0.01604 -26.4535,-0.05193 z m 52.585,-4.692344 c 1.4054,-0.513348 2.4714,-1.589145 2.9441,-2.971019 l 0.158,-0.461771 0.018,-41.579955 c 0.016,-36.457743 0.01,-41.643056 -0.087,-42.0921839 -0.3433,-1.6744637 -1.812,-3.148778 -3.4833,-3.4965867 -0.7505,-0.15618 -51.1809,-0.15618 -51.9314,0 -1.6641,0.3463068 -3.1354,1.817565 -3.4817,3.4816482 -0.1569,0.7543511 -0.1564,83.0108314 0,83.7518954 0.2856,1.348058 1.2146,2.513455 2.5025,3.139438 0.9851,0.478757 -1.1435,0.444913 27.122,0.431272 l 25.717,-0.0124 0.5211,-0.190334 z m -28.2983,-4.398836 c -2.7655,-0.226331 -5.7499,-1.06507 -8.2408,-2.316015 -5.9859,-3.006057 -10.2719,-8.318637 -11.9062,-14.757932 -3.1655,-12.472869 4.6646,-25.080881 17.2698,-27.807434 5.2603,-1.13783 10.9416,-0.313721 15.6449,2.269415 9.0813,4.987533 13.6535,15.395744 11.1691,25.425617 -0.4185,1.689569 -0.9463,3.115674 -1.7418,4.705927 -2.21,4.418267 -5.7476,7.947296 -10.1926,10.168087 -3.6668,1.832001 -7.902,2.647928 -12.0024,2.312335 z m 3.481,-4.541118 c 4.3635,-0.404028 8.2454,-2.235581 11.3118,-5.336984 2.8568,-2.889498 4.5704,-6.387739 5.1452,-10.503871 0.1361,-0.974365 0.1162,-3.797043 -0.034,-4.781474 -0.618,-4.059787 -2.375,-7.567694 -5.1971,-10.376119 -2.4926,-2.480567 -5.664,-4.198807 -9.0543,-4.905532 -1.4139,-0.294745 -2.0947,-0.359685 -3.7703,-0.359685 -1.6756,0 -2.3564,0.06494 -3.7703,0.359685 -4.5663,0.951873 -8.6111,3.674186 -11.2853,7.595312 -1.5851,2.324369 -2.5885,4.973943 -2.9997,7.921146 -0.1238,0.887076 -0.1238,3.659591 0,4.546667 0.5755,4.125112 2.3495,7.728245 5.2098,10.58167 3.1031,3.095675 7.0334,4.907707 11.4602,5.283645 0.6578,0.05587 2.2579,0.04275 2.9837,-0.02446 z m -2.7535,-11.401739 c -0.7601,-0.14413 -1.3353,-0.346016 -2.0235,-0.710203 -1.7127,-0.906251 -2.886,-2.377545 -3.4072,-4.272532 -0.1687,-0.61331 -0.1923,-0.826682 -0.1911,-1.729715 0,-1.109393 0.089,-1.614031 0.4284,-2.476043 0.3561,-0.903827 0.8011,-1.567305 1.5555,-2.319268 0.85,-0.847232 1.5671,-1.301261 2.6037,-1.648458 3.7603,-1.259565 7.752,0.892855 8.7797,4.734251 0.1554,0.580851 0.1818,0.828857 0.1818,1.709518 0,0.88366 -0.026,1.127886 -0.1839,1.717916 -0.6557,2.452451 -2.6009,4.342166 -5.0712,4.926561 -0.6916,0.163595 -1.9934,0.196707 -2.6722,0.06797 z m 2.1197,-4.654948 c 0.442,-0.213957 0.8778,-0.650159 1.0993,-1.100294 0.2497,-0.507443 0.2497,-1.406973 0,-1.914416 -0.2218,-0.450695 -0.656,-0.884937 -1.1067,-1.106723 -0.2909,-0.143127 -0.4601,-0.173881 -0.9572,-0.173881 -0.4971,0 -0.6663,0.03075 -0.9572,0.173881 -1.2656,0.622766 -1.6918,2.15338 -0.9243,3.319557 0.2654,0.403317 0.7465,0.772912 1.1992,0.921212 0.434,0.142162 1.2252,0.08483 1.6469,-0.119336 z m -24.387,-29.469562 c -0.6673,-0.230964 -1.0174,-0.540579 -1.3795,-1.219909 l -0.1692,-0.317508 0,-14.243853 0,-14.243853 0.1953,-0.370594 c 0.2597,-0.4926739 0.6294,-0.8505776 1.1128,-1.0772476 l 0.3969,-0.1861174 23.2661,0 23.2661,0 0.3969,0.1861174 c 0.5045,0.2365718 0.8854,0.617543 1.122,1.1220106 l 0.1861,0.396873 0,14.172811 0,14.172812 -0.1861,0.396872 c -0.2366,0.504468 -0.6175,0.885439 -1.122,1.122011 l -0.3969,0.186116 -23.1595,0.01566 c -22.1404,0.01498 -23.1759,0.01004 -23.529,-0.112206 z m 43.8824,-15.78127 0,-11.366666 -20.46,0 -20.46,0 0,11.366666 0,11.366666 20.46,0 20.46,0 0,-11.366666 z"
/>
</svg>
