<?xml version="1.0" encoding="UTF-8" standalone="no"?>
<svg
xmlns:rdf="http://www.w3.org/1999/02/22-rdf-syntax-ns#"
xmlns="http://www.w3.org/2000/svg"
xmlns:dc="http://purl.org/dc/elements/1.1/"
xmlns:cc="http://creativecommons.org/ns#"
xmlns:svg="http://www.w3.org/2000/svg"
xmlns:inkscape="http://www.inkscape.org/namespaces/inkscape"
xmlns:sodipodi="http://sodipodi.sourceforge.net/DTD/sodipodi-0.dtd"
>
<path
d="m 28,0 c -4.29687,0 -8.10156,2.85156 -10.1875,7.10937 2.20313,-0.97656 4.82813,-1.64062 8,-1.64062 6.45313,0 10.94531,3.93555 14.125,7.8125 C 39.26563,5.72266000000002 34.25781,0 28,0 Z m 44,0 c -6.375,0 -11.42969,5.9668 -11.9375,13.75 3.22656,-4.0332 7.85938,-8.28125 14.5625,-8.28125 2.9375,0 5.33594,0.60547 7.4375,1.48437 C 79.96094,2.79297000000003 76.24219,0 72,0 Z m -46.1875,10.46875 c -12.07031,0 -14.3125,9.66797 -15.5,14.76562 -1.50781,5.79102 -3.96875,17.37305 -5.9375,27.03125 C 8.57812999999999,47.75391 14.03906,45 20,45 c 13.23438,0 24,13.45703 24,30 0,1.25 -0.0703,2.46094 -0.1875,3.67187 0.0391,0.0195 0.0781,0.0586 0.125,0.0781 0.20313,0.0879 0.41406,0.14647 0.625,0.23437 0.22656,0.0879 0.45313,0.15625 0.6875,0.23438 0.25781,0.0781 0.53906,0.16602 0.8125,0.23437 0.21875,0.0586 0.39844,0.18556 0.625,0.23438 0.32813,0.0684 0.65625,0.10743 1,0.15625 0.19532,0.0293 0.42969,0.0586 0.625,0.0781 0.55469,0.0586 1.09375,0.0781 1.6875,0.0781 0.59375,0 1.14063,-0.0195 1.6875,-0.0781 0.19532,-0.0195 0.375,-0.0488 0.5625,-0.0781 0.35156,-0.0488 0.73438,-0.0879 1.0625,-0.15625 0.21875,-0.0488 0.41406,-0.17578 0.625,-0.23438 0.27344,-0.0684 0.55469,-0.15625 0.8125,-0.23437 0.23438,-0.0781 0.46875,-0.14648 0.6875,-0.23438 0.21875,-0.0781 0.42188,-0.13672 0.625,-0.23437 0.0391,-0.0195 0.0781,-0.0684 0.125,-0.0781 C 56.07031,77.4609400000001 56,76.25 56,75 c 0,-16.54297 10.76563,-30 24,-30 6.17188,0 11.80469,2.92969 16.0625,7.73437 -2.01562,-9.74609 -4.50781,-21.59179 -5.9375,-27.5 -1.46094,-5.49804 -3.92187,-14.76562 -15.5,-14.76562 -7.24219,0 -11.625,6.35742 -14.5,10.54687 -0.61719,0.89844 -1.35937,2.09961 -1.875,2.65625 -2.34375,-2.1582 -5.28125,-3.4375 -8.0625,-3.4375 -2.92969,0 -5.98437,1.34766 -8.0625,3.4375 -0.52344,-0.54687 -1.35937,-1.7871 -2,-2.73437 -2.83594,-4.16016 -7.11719,-10.46875 -14.3125,-10.46875 z M 20,50 c -7.9375,0 -14.77344,5.83008 -18,14.21875 -0.60937,1.5918 -1.10156,3.26172 -1.4375,5 -0.0156,0.0781 -0.0469,0.15625 -0.0625,0.23437 -0.14062,0.76172 -0.23437,1.55274 -0.3125,2.34375 -0.0156,0.15625 -0.0469,0.3125 -0.0625,0.46875 C 0.0390600000000063,73.1640599999999 0,74.0625 0,75 c 0,13.78906 8.96875,25 20,25 0.67969,0 1.33594,-0.0781 2,-0.15625 0.33594,-0.0488 0.67188,-0.0977 1,-0.15625 0.32031,-0.0586 0.625,-0.0781 0.9375,-0.15625 0.44531,-0.11717 0.875,-0.32227 1.3125,-0.46875 0.17968,-0.0586 0.38281,-0.0879 0.5625,-0.15625 0.51563,-0.19533 1.00781,-0.38086 1.5,-0.625 0.0859,-0.0488 0.21875,-0.10743 0.3125,-0.15625 0.55469,-0.2832 1.09375,-0.58594 1.625,-0.9375 0.0234,-0.0195 0.0391,-0.0586 0.0625,-0.0781 6.09375,-4.02343 10.29688,-11.82617 10.625,-20.9375 C 39.95313,75.79102 40,75.38086 40,75 c 0,-13.80859 -8.95312,-25 -20,-25 z m 60,0 c -11.03125,0 -20,11.21094 -20,25 0,0.38086 0.0547,0.79102 0.0625,1.17187 0.14844,4.13086 1.05469,7.94922 2.625,11.32813 0.0156,0.0293 0.0469,0.0586 0.0625,0.0781 0.29688,0.64454 0.59375,1.26954 0.9375,1.875 0.0313,0.0488 0.0937,0.10743 0.125,0.15625 0.32813,0.57618 0.69531,1.10352 1.0625,1.64063 0.0625,0.0879 0.11718,0.2246 0.1875,0.3125 0.34375,0.47852 0.69531,0.95703 1.0625,1.40625 0.0781,0.0977 0.17188,0.2246 0.25,0.3125 0.36719,0.43945 0.72656,0.84961 1.125,1.25 0.13282,0.13672 0.29688,0.25391 0.4375,0.39062 0.35938,0.3418 0.6875,0.63477 1.0625,0.9375 0.1875,0.15625 0.375,0.32227 0.5625,0.46875 0.34375,0.26368 0.70313,0.53711 1.0625,0.78125 0.24219,0.15625 0.49219,0.23438 0.75,0.39063 0.32031,0.19533 0.67188,0.45898 1,0.625 0.3125,0.15625 0.61719,0.24415 0.9375,0.39062 0.28906,0.12695 0.52344,0.28321 0.8125,0.39063 0.32031,0.12695 0.67188,0.21485 1,0.3125 0.28906,0.0879 0.64063,0.23437 0.9375,0.3125 0.21875,0.0586 0.39844,0.0391 0.625,0.0781 0.22656,0.0488 0.46094,0.11718 0.6875,0.15625 0.19532,0.0391 0.42188,0.0488 0.625,0.0781 0.66406,0.0684 1.32031,0.15625 2,0.15625 11.03125,0 20,-11.21094 20,-25 0,-0.78125 -0.0703,-1.50391 -0.125,-2.26563 -0.0234,-0.2832 -0.0312,-0.57617 -0.0625,-0.85937 -0.0391,-0.44922 -0.0625,-0.88867 -0.125,-1.32813 -0.0469,-0.35156 -0.125,-0.67382 -0.1875,-1.01562 -0.0625,-0.37109 -0.17187,-0.81055 -0.25,-1.17188 -0.0781,-0.36132 -0.15625,-0.66406 -0.25,-1.01562 C 96.39844,57.3046900000001 88.875,50 80,50 Z m -30,5 c 2.21094,0 4,2.23633 4,5 0,2.76367 -1.78906,5 -4,5 -2.20312,0 -4,-2.23633 -4,-5 0,-2.76367 1.79688,-5 4,-5 z m -40,17.5 c 1.10156,0 2,1.11328 2,2.5 0,5.60547 3.51563,10 8,10 1.10156,0 2,1.11328 2,2.5 0,1.38672 -0.89844,2.5 -2,2.5 -6.72656,0 -12,-6.5918 -12,-15 0,-1.38672 0.89844,-2.5 2,-2.5 z m 62,0 c 1.10938,0 2,1.11328 2,2.5 0,5.60547 3.51563,10 8,10 1.10938,0 2,1.11328 2,2.5 0,1.38672 -0.89062,2.5 -2,2.5 -6.72656,0 -12,-6.5918 -12,-15 0,-1.38672 0.89063,-2.5 2,-2.5 z"
id="path3872"
style="fill:#606060"
/>
</svg>
