<?xml version="1.0" encoding="UTF-8" standalone="no"?>
<svg
xmlns:sodipodi="http://sodipodi.sourceforge.net/DTD/sodipodi-0.dtd"
xmlns:inkscape="http://www.inkscape.org/namespaces/inkscape"
xmlns:cc="http://creativecommons.org/ns#"
xmlns:svg="http://www.w3.org/2000/svg"
xmlns="http://www.w3.org/2000/svg"
xmlns:rdf="http://www.w3.org/1999/02/22-rdf-syntax-ns#"
xmlns:dc="http://purl.org/dc/elements/1.1/"
>
<circle
cy="50"
style="fill:#000000"
cx="50"
id="circle6350"
r="49"
/>
<path
d="m 50.40111,0.401100000000042 0,13.2751 c 19.81579,0.055 35.86767,16.1069 35.92271,35.9227 l 13.27509,0 c -3e-5,-27.172 -22.02576,-49.1978 -49.1978,-49.1978 z m 35.92271,49.1978 0,0.1016 c -3e-5,-0.034 6e-5,-0.067 0,-0.1016 z"
style="fill:#008751;fill-opacity:1;stroke:#c0c0c0;stroke-width:0.80220228;stroke-opacity:1"
id="path6352"
/>
<path
style="fill:#ef6b00;fill-opacity:1;stroke:#c0c0c0;stroke-width:0.8062191;stroke-opacity:1"
id="path6354"
d="m 99.5969,49.9031 -13.27403,0 c -0.0552,20.0156 -16.10555,36.2292 -35.91975,36.2847 l 0,13.4091 c 27.16981,-10e-5 49.19378,-22.2477 49.19378,-49.6938 z m -49.19378,36.2847 -0.10163,0 c 0.0341,0 0.0675,10e-5 0.10163,0 z"
/>
<path
d="m 50.09488,99.5949000000001 0,-13.408 c -20.01396,-0.055 -36.22636,-16.268 -36.28193,-36.2823 l -13.40783,0 c 10e-6,27.4439 22.24602,49.6903 49.68976,49.6903 z m -36.28193,-49.6903 0,-0.1026 c 2e-5,0.035 -4e-5,0.067 0,0.1026 z"
id="path6356"
style="fill:#0054a0;fill-opacity:1;stroke:#c0c0c0;stroke-width:0.81024092;stroke-opacity:1"
/>
<path
id="path6358"
style="fill:#fcd116;fill-opacity:1;stroke:#c0c0c0;stroke-width:0.80621928;stroke-opacity:1"
d="m 0.403119999999944,49.5969 13.40893,0 c 0.0554,-19.8142 16.26926,-35.8648 36.28485,-35.9198 l 0,-13.274 c -27.44598,0 -49.69378,22.024 -49.69378,49.1938 z m 49.69378,-35.9198 0.10243,0 c -0.0344,0 -0.0682,0 -0.10243,0 z"
/>
<circle
r="49"
cy="50"
style="fill:none;stroke:#c0c0c0;stroke-width:2;stroke-opacity:1"
cx="50"
id="circle6360"
/>
<path
style="fill:#c0c0cf;fill-opacity:1"
id="path3587"
d="m 67.68668,59.6989000000001 c -0.26369,-0.2963 -0.44518,-0.5858 -0.54128,-0.8632 -0.0631,-0.1821 -0.18144,-0.8822 -0.18069,-1.0686 2e-4,-0.065 -0.1552,-0.3375 -0.18814,-0.6491 -0.0855,-0.8085 -0.16532,-1.1707 -0.13151,-1.7666 0.0973,-1.7139 0.17773,-2.5164 0.86595,-3.7485 0.27466,-0.4918 0.66539,-0.7927 1.07083,-0.9745 0.22254,-0.1 0.37162,-0.1287 0.76204,-0.1476 0.49652,-0.024 0.82451,0.021 1.17862,0.1623 0.16005,0.064 0.25509,0.1335 0.47435,0.3479 0.17206,0.1683 0.2788,0.253 0.28655,0.2274 0.007,-0.022 0.14245,-0.472 0.30145,-0.9992 0.567,-1.88 1.14775,-3.0806 1.85614,-3.8371 0.44992,-0.4805 0.8415,-0.7048 1.30839,-0.7492 0.60104,-0.057 1.17514,0.2613 1.5238,0.8455 0.45205,0.7575 0.30987,1.5211 -0.55364,2.9736 -0.1362,0.2291 -0.41705,0.701 -0.62411,1.0488 -0.3232,0.5427 -1.10345,1.9765 -1.17049,2.1508 -0.0243,0.063 0.88173,-0.5484 2.06512,-1.3941 1.52664,-1.091 2.1843,-1.4076 2.97358,-1.4318 0.95327,-0.029 1.78539,0.7069 1.77331,1.5687 -0.005,0.3674 -0.10931,0.6235 -0.41677,1.0247 -0.36529,0.4766 -0.82824,0.8331 -1.67704,1.2914 -0.39203,0.2116 -2.18948,1.0509 -2.51721,1.1753 -0.1352,0.051 -0.24537,0.1036 -0.24482,0.116 6e-4,0.012 0.0444,0.041 0.0975,0.064 0.0531,0.023 0.17104,0.1155 0.2621,0.2061 0.31476,0.3129 0.37986,0.7477 0.17535,1.1712 l -0.0813,0.1682 0.13643,0.1175 c 0.34082,0.2933 0.39048,0.7473 0.13432,1.228 -0.33598,0.6304 -1.32544,1.3947 -2.20105,1.7002 -0.21664,0.076 -0.49178,0.2277 -0.97665,0.5401 -0.37127,0.2392 -0.79332,0.4962 -0.93789,0.5712 -0.53517,0.2775 -1.12313,0.4088 -1.50435,0.3358 -0.13198,-0.025 -0.23258,-0.01 -0.39703,0.066 -0.14682,0.067 -0.35002,0.108 -0.60942,0.1231 -0.50909,0.03 -0.69041,-0.043 -1.12496,-0.4476 -0.67235,-0.6268 -0.92725,-0.8773 -1.16753,-1.1473 z"
/>
<path
d="m 64.52136,82.184 c 0.47416,-0.1807 0.54673,-0.3429 0.54673,-1.2222 0,-0.6549 -0.0167,-0.7728 -0.15051,-1.0625 -0.17979,-0.3892 -0.65507,-0.9677 -1.11274,-1.3544 l -0.33214,-0.2806 0,-0.6722 0,-0.6721 0.46657,-0.1184 c 1.28339,-0.3254 3.50922,-1.0948 4.61227,-1.5941 l 0.41308,-0.187 -0.0412,-0.5951 c -0.21232,-3.0646 -0.91099,-7.2047 -1.65002,-9.7776 l -0.17577,-0.6119 2.7917,-2.6793 c -2.49422,-2.9881 -3.69913,-4.094 -3.0779,-7.3647 -10e-4,-0.6921 -0.0362,-1.5253 -0.0772,-1.8517 -0.0931,-0.7406 -0.35393,-2.2145 -0.43125,-2.4372 -0.0698,-0.2011 -0.0597,-0.2025 0.2401,-0.035 0.38439,0.2147 0.38379,0.2158 0.34301,-0.6099 -0.11087,-2.245 -0.98882,-4.2281 -2.62819,-5.9365 -0.46569,-0.4853 -1.15563,-1.0807 -1.50186,-1.296 -0.0686,-0.043 -0.0591,-0.082 0.0504,-0.2091 0.6718,-0.7791 0.47594,-2.0998 -0.37581,-2.534 -0.17186,-0.088 -0.42182,-0.1596 -0.55546,-0.16 l -0.24299,0 -0.23131,-0.6428 c -0.5939,-1.6504 -1.59855,-3.006 -2.93986,-3.9669 -0.3064,-0.2195 -0.60053,-0.4366 -0.65362,-0.4824 -0.0531,-0.046 -0.28087,-0.6617 -0.50616,-1.3687 -0.85406,-2.6805 -2.69476,-8.0945 -3.56388,-10.4825 -1.56929,-4.3117 -2.70678,-6.7349 -3.32604,-7.0856 -0.22455,-0.1272 -0.50155,-0.1281 -0.72332,0 -0.63825,0.3614 -1.79133,2.8276 -3.37578,7.22 -0.88457,2.4522 -2.53656,7.3102 -3.54712,10.431 l -0.39964,1.2341 -0.65922,0.4767 c -1.45324,1.0509 -2.60937,2.635 -3.09901,4.2463 l -0.12866,0.4233 -0.25096,0 c -0.33943,0 -0.83103,0.2631 -1.03067,0.5497 -0.17378,0.2495 -0.33427,0.7429 -0.33371,1.0259 6e-4,0.2996 0.11724,0.646 0.33339,0.9901 0.11556,0.184 0.18597,0.3345 0.15647,0.3345 -0.14546,0 -1.31917,1.0566 -1.84992,1.6654 -1.43959,1.6511 -2.19741,3.49 -2.29557,5.5701 -0.0389,0.8252 -0.0396,0.8242 0.34412,0.6098 0.29981,-0.1675 0.30989,-0.166 0.2401,0.035 -0.0761,0.2192 -0.33641,1.6859 -0.43257,2.4373 -0.0418,0.3263 -0.0741,1.1718 -0.0718,1.8789 0.004,1.3761 0.0837,2.092 0.35729,3.2239 0.0824,0.3408 0.50378,1.4925 0.49496,1.5002 -0.0341,0.157 -3.23609,-1.1976 -3.27006,-1.0162 -0.84344,1.8487 -0.70763,1.6247 -1.5458,3.7198 -0.004,0.069 3.79851,2.586 3.78966,2.6475 -0.35868,1.2401 -1.13063,3.9842 -1.39309,5.6484 -0.17795,1.1283 -0.57374,4.6036 -0.57573,5.0553 l -10e-4,0.2425 0.76759,0.3265 c 1.2237,0.5205 3.17193,1.1746 4.36473,1.4654 l 0.34617,0.084 0,0.6682 0,0.6682 -0.29807,0.2489 c -0.43755,0.3654 -0.98777,1.0344 -1.15294,1.4018 -0.11751,0.2615 -0.14768,0.4439 -0.16213,0.9805 -0.0207,0.7683 0.0655,1.0317 0.40908,1.2504 0.2101,0.1337 0.25174,0.1341 14.50898,0.148 13.3592,0.013 14.31773,0.01 14.5944,-0.099 z"
style="fill:#c0c0cf;fill-opacity:1"
id="path2933"
/>
<path
id="path2931-9"
style="fill:#fcd116;fill-opacity:1"
d="m 50.28818,80.8948 c 0,-0.4475 0.0177,-1.1744 0.0394,-1.6152 l 0.0394,-0.8015 0.90885,0 c 3.47164,0 7.72389,-0.481 10.86225,-1.2226 0.37516,-0.089 0.69348,-0.1612 0.70739,-0.1612 0.0139,0 0.0253,0.321 0.0253,0.7133 l 0,0.7132 0.48235,0.416 c 0.26529,0.2289 0.63614,0.5977 0.82411,0.8196 l 0.34176,0.4035 c 0.1342,0.4435 0.31683,1.2893 -0.098,1.5057 -0.0414,0.018 -3.23818,0.035 -7.10399,0.038 l -7.02873,0.01 0,-0.8137 z"
/>
<path
d="m 35.6548299999999,81.6403 c -0.10299,-0.06 -0.11645,-0.143 -0.11645,-0.7153 0,-0.6074 0.0105,-0.6628 0.1717,-0.9042 0.21043,-0.3151 0.70532,-0.8269 1.16783,-1.2076 l 0.34616,-0.285 0,-0.7244 0,-0.7244 0.16191,0.044 c 0.37017,0.1017 1.67266,0.3792 2.48704,0.5298 2.70932,0.501 6.19349,0.8219 8.94598,0.8238 l 0.90885,0 0.0394,0.8015 c 0.0217,0.4408 0.0394,1.1676 0.0394,1.6152 l 0,0.8137 -7.01764,0 c -4.72231,0 -7.05573,-0.022 -7.13409,-0.068 z"
style="fill:#fcd116;fill-opacity:1"
id="path2929-4"
/>
<path
id="path2927-3"
style="fill:#c0c0cf;fill-opacity:1"
d="m 44.47857,77.6649 c -4.77766,-0.4832 -8.99803,-1.463 -12.38683,-2.8757 l -0.34616,-0.1443 0,-0.2837 c 0,-0.156 0.0159,-0.3706 0.0352,-0.4767 l 0.0353,-0.193 1.27417,0.4683 c 3.31327,1.2177 6.92486,2.0005 11.29802,2.449 1.37797,0.1413 8.19483,0.2058 9.90344,0.094 4.75292,-0.3118 9.3147,-1.2425 13.04314,-2.6609 l 0.94228,-0.3585 0.036,0.1973 c 0.0198,0.1084 0.036,0.3244 0.036,0.4798 l 0,0.2827 -0.46657,0.1948 c -1.20946,0.505 -3.20261,1.1525 -4.73168,1.5372 -2.98479,0.751 -5.73,1.1728 -9.13013,1.403 -0.18211,0.012 -2.17333,0.015 -4.42493,0.01 -3.15077,-0.012 -4.32959,-0.04 -5.11728,-0.1194 z"
/>
<path
style="fill:#0054a0;fill-opacity:1"
id="path2925-7"
d="m 46.9168,76.4327000000001 c -1.85928,-0.078 -3.21848,-0.197 -4.93667,-0.4331 -3.40623,-0.4681 -7.15537,-1.423 -9.61983,-2.4501 l -0.55924,-0.2331 0.0329,-0.2705 c 0.14052,-1.1555 0.33866,-2.6161 0.36515,-2.6917 0.026,-0.074 0.22649,-0.036 1.03854,0.1966 0.55351,0.1586 1.18247,0.3445 1.39769,0.4131 0.95358,0.3038 3.99542,0.8997 6.23104,1.2206 1.09762,0.1576 3.19396,0.3565 4.15403,0.3942 1.41978,0.056 1.65559,0.088 1.65559,0.225 0,0.3427 0.64057,1.0131 1.04544,1.0942 0.1038,0.021 1.22037,0.029 2.48128,0.018 l 2.29255,-0.02 0.29353,-0.1988 c 0.26482,-0.1794 0.51969,-0.5597 0.64007,-0.9552 0.0177,-0.058 0.23925,-0.091 0.74502,-0.109 2.66855,-0.098 6.50201,-0.5982 9.56973,-1.2493 0.57243,-0.1214 3.72215,-0.976 3.95517,-1.0731 0.13446,-0.056 0.1674,-0.048 0.19169,0.045 0.0278,0.1067 0.21762,1.5777 0.32699,2.5347 l 0.0508,0.4445 -0.33582,0.14 c -1.08122,0.4509 -2.39671,0.8895 -4.12862,1.3767 -3.1734,0.8926 -7.37264,1.5008 -11.07741,1.6044 -1.68365,0.047 -4.38924,0.036 -5.80961,-0.023 z"
/>
<path
d="m 47.57937,73.3193000000001 c -0.18899,-0.1054 -0.30595,-0.2324 -0.40407,-0.4389 -0.13445,-0.2829 -0.13809,-0.3396 -0.13809,-2.1487 0,-1.816 0.003,-1.8648 0.13953,-2.1471 0.10213,-0.2115 0.21876,-0.3336 0.43516,-0.4554 l 0.29563,-0.1665 2.16201,0.015 c 2.05552,0.014 2.17483,0.022 2.42222,0.153 0.15372,0.081 0.31659,0.2372 0.39794,0.3805 0.13406,0.236 0.13822,0.2939 0.15612,2.1697 0.0162,1.7025 0.006,1.9546 -0.0837,2.1628 -0.10692,0.2468 -0.39182,0.5219 -0.59689,0.5765 -0.0662,0.018 -1.11028,0.035 -2.32012,0.04 -2.16907,0.01 -2.20342,0.01 -2.46571,-0.1407 z"
style="fill:#c0c0cf;fill-opacity:1"
id="path2923-2"
/>
<path
id="path2921-0"
style="fill:#000000;fill-opacity:1"
d="m 51.97387,71.7536 0,-0.5934 -0.62783,0 c -0.4789,0 -0.64934,-0.024 -0.71849,-0.099 -0.16144,-0.1768 -0.17976,-0.3658 -0.0534,-0.5514 0.11287,-0.1658 0.14607,-0.1742 0.75889,-0.1921 l 0.64085,-0.019 0,-0.5911 0,-0.5911 -1.9265,0 -1.9265,0 0,1.6152 0,1.6152 1.9265,0 1.9265,0 z"
/>
<path
id="path2919-0"
style="fill:#0054a0;fill-opacity:1"
d="m 53.47896,69.0259000000001 c 0,-0.2882 -0.18368,-0.7311 -0.40896,-0.9862 -0.35095,-0.3973 -0.51266,-0.4647 -1.20856,-0.5035 l -0.62417,-0.035 0.56523,-0.2435 c 0.84728,-0.3649 2.44225,-1.3051 3.39225,-1.9996 l 0.84284,-0.6161 0.29933,0.6879 c 0.16463,0.3783 0.32931,0.6879 0.36597,0.6879 0.13445,0 1.95622,-0.5955 2.5331,-0.828 2.44245,-0.9844 4.51284,-2.6088 5.75444,-4.5147 0.18372,-0.282 0.55393,-0.6811 1.07036,-1.1537 0.43422,-0.3975 0.81095,-0.731 0.83717,-0.7412 0.0441,-0.017 2.36184,2.3296 2.4026,2.4327 0.0153,0.039 -0.62554,0.6249 -2.13205,1.9509 l -0.24751,0.2178 -0.27334,-0.5114 c -0.15035,-0.2812 -0.41069,-0.6745 -0.57856,-0.874 l -0.3052,-0.3626 0.11274,0.3626 c 0.062,0.1995 0.24643,0.7928 0.40983,1.3186 0.4237,1.3633 1.01465,3.5735 0.9608,3.5934 -0.69829,0.2584 -1.53595,0.4903 -2.84142,0.7865 -0.43045,0.098 -0.94519,0.2186 -1.14386,0.2687 -0.78829,0.1989 -2.71481,0.5134 -5.05762,0.8257 -0.5632,0.075 -1.82296,0.1902 -2.79946,0.2559 -0.97649,0.066 -1.80931,0.1235 -1.8507,0.1284 -0.0414,0 -0.0752,-0.062 -0.0752,-0.1476 z"
/>
<path
d="m 44.65918,69.0447999999999 c -2.9492,-0.2534 -5.22821,-0.5444 -6.71267,-0.8571 -2.63871,-0.5558 -3.26309,-0.7052 -4.44086,-1.0629 -0.5423,-0.1646 -0.67233,-0.2268 -0.64905,-0.3103 0.016,-0.057 0.0825,-0.3565 0.14772,-0.6647 0.14005,-0.6617 0.58111,-2.2558 0.70227,-2.5382 0.11785,-0.2748 0.69129,-2.161 0.66555,-2.1892 -0.0435,-0.048 -1.09788,2.107 -1.09788,2.107 0,0 -1.39217,-0.9176 -3.25731,-2.2989 0.68017,-1.5491 0.87153,-2.0659 1.20139,-2.8646 0.58085,0.2314 3.01166,1.0697 3.06098,1.1833 0.70072,0.9711 1.23641,1.8406 1.98949,2.6143 0.93774,0.9634 1.75436,1.5604 3.18278,2.327 1.1888,0.6379 1.96014,0.9567 3.07037,1.2687 0.38079,0.107 0.73993,0.2111 0.79809,0.2312 0.0853,0.03 0.16537,-0.098 0.41472,-0.6592 l 0.30897,-0.6959 0.45823,0.3511 c 1.0894,0.8347 2.95218,1.9391 3.96902,2.3531 l 0.46262,0.1883 -0.58892,0 c -0.61402,0 -0.87355,0.078 -1.17555,0.3363 -0.26258,0.2249 -0.4879,0.6467 -0.52965,0.9913 l -0.0387,0.3192 -0.57951,-0.033 c -0.31872,-0.018 -0.93169,-0.063 -1.36214,-0.1001 z"
style="fill:#0054a0;fill-opacity:1"
id="path2917-6"
/>
<path
style="fill:#ffffff;fill-opacity:1"
id="path2915"
d="m 49.35181,67.0471 c -1.59453,-0.595 -3.432,-1.6679 -4.89141,-2.8561 -0.32113,-0.2614 -0.59881,-0.4765 -0.61707,-0.478 -0.0183,0 -0.18082,0.3527 -0.36122,0.787 -0.18041,0.4343 -0.3594,0.7903 -0.39777,0.7911 -0.3451,0.01 -2.78867,-0.9505 -3.68717,-1.446 -1.06266,-0.586 -2.47969,-1.7538 -3.18125,-2.6217 -1.09466,-1.3542 -1.88983,-3.0737 -2.20351,-4.7649 -0.26264,-1.4161 -0.28104,-3.3319 -0.0463,-4.813 0.13098,-0.8262 0.48618,-2.3262 0.67519,-2.8513 0.0653,-0.1815 0.10784,-0.3421 0.0944,-0.3568 -0.0134,-0.015 -0.23113,0.077 -0.48383,0.2027 l -0.45946,0.2293 10e-4,-0.2106 c 0.003,-0.5733 0.31131,-1.7137 0.69371,-2.5648 1.23312,-2.7444 3.82071,-4.6969 7.47632,-5.6412 0.22702,-0.059 0.24882,-0.054 0.20287,0.042 -0.0283,0.059 -0.0954,0.3214 -0.14899,0.5824 -0.45572,2.2175 0.67421,4.384 2.94796,5.6524 1.58369,0.8834 2.98475,1.2204 5.08355,1.2228 1.43345,0 2.4221,-0.1487 3.55041,-0.5402 2.48838,-0.8632 4.10389,-2.4709 4.49099,-4.4691 0.12088,-0.624 0.0848,-1.5855 -0.0806,-2.1499 l -0.11808,-0.4029 0.24693,0.06 c 0.48368,0.1171 1.50463,0.4566 2.07535,0.6901 2.04731,0.8375 3.78355,2.2325 4.8129,3.8669 0.62875,0.9983 1.16021,2.4603 1.25234,3.445 l 0.0402,0.4296 -0.46933,-0.2342 c -0.25813,-0.1289 -0.47857,-0.2241 -0.48986,-0.2118 -0.0113,0.012 0.0615,0.2872 0.16171,0.6107 0.79432,2.5637 0.98504,5.2374 0.53573,7.5106 -0.33592,1.6994 -1.09525,3.3256 -2.1788,4.666 -1.31431,1.626 -3.60616,3.0624 -6.17835,3.8725 -0.34368,0.1082 -0.65523,0.1967 -0.69234,0.1966 -0.0371,0 -0.21564,-0.3562 -0.39671,-0.7912 -0.18108,-0.4349 -0.34052,-0.7909 -0.3543,-0.7909 -0.0138,0 -0.25846,0.1885 -0.54372,0.4188 -1.60324,1.2945 -2.98739,2.1245 -4.56615,2.7381 -0.45593,0.1773 -0.8696,0.3381 -0.91927,0.3575 -0.17121,0.067 -0.27936,0.045 -0.87617,-0.1777 z"
/>
<path
d="m 56.30851,59.1952000000001 c 2.36146,-0.5284 3.83609,-2.5405 4.39586,-5.9979 0.22864,-1.4123 0.3011,-3.5066 0.17555,-5.074 l -0.063,-0.7865 0.2724,-0.2983 0.27239,-0.2983 0.14128,0.1454 c 0.20865,0.2146 0.2414,0.1778 0.10405,-0.1171 -0.16007,-0.3436 -0.4153,-0.4888 -0.7597,-0.4322 -0.30906,0.051 -0.41181,0.1672 -0.14754,0.1672 0.1013,0 0.18417,0.025 0.18417,0.056 0,0.098 -1.09018,1.2149 -1.7459,1.7882 -1.28092,1.12 -2.55095,1.9112 -3.75039,2.3365 -0.33789,0.1198 -0.6978,0.2351 -0.79981,0.2561 l -0.18547,0.038 -0.17262,-0.5914 c -0.10862,-0.3723 -0.19899,-0.5805 -0.24375,-0.5617 -0.0391,0.016 -0.29789,0.2056 -0.57506,0.4203 -1.54717,1.1985 -2.83037,1.9273 -3.39357,1.9273 -0.50488,0 -1.7383,-0.7077 -3.24663,-1.8628 -0.32865,-0.2517 -0.62807,-0.4705 -0.66536,-0.4862 -0.0405,-0.017 -0.13764,0.2108 -0.24106,0.5652 -0.19785,0.678 -0.0862,0.637 -0.97705,0.3583 -1.30678,-0.4089 -2.78758,-1.3465 -4.29183,-2.7175 -0.43051,-0.3924 -1.38468,-1.4043 -1.38468,-1.4686 0,-0.027 0.088,-0.06 0.19566,-0.073 l 0.19566,-0.024 -0.18061,-0.085 c -0.204,-0.096 -0.59037,-0.062 -0.7292,0.064 -0.10949,0.1 -0.34562,0.5872 -0.28431,0.5872 0.0234,0 0.10608,-0.065 0.18378,-0.1453 l 0.14128,-0.1454 0.26983,0.2955 0.26984,0.2955 -0.0683,0.8552 c -0.0829,1.0392 -0.0337,3.4058 0.0911,4.3824 0.41443,3.2413 1.52967,5.3092 3.35643,6.2236 0.98532,0.4932 0.53383,0.4634 7.24488,0.4777 4.80504,0.01 6.09932,0 6.41165,-0.075 z"
style="fill:#808080;fill-opacity:1"
id="path2913-0"
/>
<path
d="m 47.5376,58.4197999999999 c 0.0977,-1.1128 0.65962,-1.8241 1.44415,-1.828 0.32954,0 0.58811,0.1215 0.86996,0.4144 l 0.19566,0.2033 0.19566,-0.2033 c 0.28185,-0.2929 0.54042,-0.4161 0.86996,-0.4144 0.78453,0 1.34644,0.7152 1.44415,1.828 l 0.0362,0.412 -2.54595,0 -2.54595,0 z"
id="path2911-1"
style="fill:#000000;fill-opacity:1"
/>
<path
style="fill:#c0c0cf;fill-opacity:1"
id="path2907"
d="m 66.0773,58.5247999999999 c 0.0467,-0.1031 0.16162,-0.4768 0.25534,-0.8306 l 0.17039,-0.6432 c 0.42906,0.8728 0.47797,0.8533 -0.0176,1.2906 -0.24974,0.2242 -0.46285,0.3993 -0.47357,0.3891 -0.0107,-0.01 0.0187,-0.1028 0.0655,-0.2059 z"
/>
<path
style="fill:#ffccaa;fill-opacity:1"
id="path2905"
d="m 48.12087,47.2285999999999 c -2.08509,-0.4052 -3.44117,-1.1097 -4.50485,-2.3403 -1.20231,-1.3909 -1.46696,-3.0739 -0.73605,-4.6809 0.31435,-0.6911 0.68612,-1.1889 1.26995,-1.7004 1.41958,-1.2438 3.57173,-1.9585 5.89745,-1.9585 3.27847,0 6.0999,1.4072 7.12642,3.5544 0.31936,0.668 0.42295,1.1295 0.42295,1.8846 0,0.7608 -0.10349,1.2164 -0.43272,1.9049 -0.23722,0.4961 -0.98181,1.4082 -1.40891,1.7259 -0.14264,0.1061 -0.29154,0.2261 -0.33089,0.2666 -0.16653,0.1714 -1.1964,0.7005 -1.77331,0.911 -1.67464,0.6111 -3.76912,0.775 -5.53004,0.4327 z"
/>
<path
id="path2903"
style="fill:#ffccaa;fill-opacity:1"
d="m 62.04747,41.3759 c -0.0389,-0.027 -0.10119,-0.3604 -0.13851,-0.7407 -0.0373,-0.3803 -0.0914,-0.7879 -0.12015,-0.9057 -0.0463,-0.1899 -0.0385,-0.2143 0.0692,-0.2143 0.2106,0 0.54086,0.2123 0.65831,0.4232 0.12099,0.2173 0.15164,0.7113 0.0604,0.9734 -0.053,0.1522 -0.35145,0.5162 -0.42166,0.5143 -0.0203,0 -0.0687,-0.023 -0.1076,-0.05 z"
/>
<path
d="m 37.7262500000001,41.2457999999999 c -0.0849,-0.1 -0.17839,-0.25 -0.20784,-0.334 -0.0917,-0.2613 -0.0612,-0.7557 0.06,-0.9734 0.1176,-0.2111 0.44777,-0.4232 0.65896,-0.4232 0.10844,0 0.11604,0.023 0.0677,0.2079 -0.03,0.1144 -0.0852,0.5224 -0.12288,0.9066 -0.0827,0.8443 -0.16595,0.9568 -0.45594,0.6161 z"
id="path2901"
style="fill:#ffccaa;fill-opacity:1"
/>
<path
d="m 60.68866,40.6737000000001 c -0.61855,-0.2773 -1.91674,-0.7084 -2.61436,-0.8682 l -0.49183,-0.1127 -0.27589,-0.4115 c -0.80216,-1.1963 -2.20765,-2.1636 -3.94803,-2.7172 -0.0731,-0.023 -0.0681,-0.043 0.0261,-0.1046 0.30904,-0.2013 0.65241,-0.6234 0.83175,-1.0223 0.18128,-0.4033 0.19566,-0.4838 0.19566,-1.0959 0,-0.541 -0.0239,-0.7174 -0.13208,-0.9738 -0.16042,-0.3804 -0.16716,-0.3788 0.64381,-0.1521 1.23248,0.3446 2.41374,0.906 3.30708,1.5716 0.25059,0.1867 0.71633,0.6223 1.03498,0.9681 1.09382,1.1867 1.73389,2.5554 2.0029,4.2826 0.1181,0.7583 0.12274,0.9541 0.0215,0.9069 -0.0414,-0.019 -0.31214,-0.1412 -0.60167,-0.2709 z"
style="fill:#ffccaa;fill-opacity:1"
id="path2899"
/>
<path
d="m 38.75987,40.4875999999999 c 0.0579,-0.6439 0.27696,-1.571 0.53543,-2.2652 0.64747,-1.7391 1.9886,-3.2392 3.72772,-4.1697 0.54543,-0.2918 2.13606,-0.8972 2.54514,-0.9687 l 0.23488,-0.041 0,0.7804 c 0,0.7433 0.009,0.8007 0.19161,1.2089 0.22704,0.5077 0.64975,0.9929 1.06026,1.2169 0.29519,0.1611 0.29552,0.1616 0.12408,0.2055 -1.98925,0.509 -3.47494,1.4758 -4.44487,2.8924 l -0.22339,0.3263 -1.00279,0.2774 c -1.01415,0.2806 -1.81262,0.5655 -2.37859,0.8489 -0.17044,0.085 -0.33296,0.1576 -0.36115,0.1606 -0.0282,0 -0.0319,-0.2097 -0.008,-0.4726 z"
style="fill:#ffccaa;fill-opacity:1"
id="path2897"
/>
<path
style="fill:#ffffff;fill-opacity:1"
id="path2895"
d="m 51.68547,36.2132999999999 c -0.54249,-0.075 -0.56752,-0.086 -0.83194,-0.3675 -0.39983,-0.4255 -0.59086,-0.9227 -0.59253,-1.542 -10e-4,-0.4301 0.0253,-0.5568 0.19477,-0.9338 0.45104,-1.0033 1.43221,-1.4391 2.42115,-1.0754 0.24859,0.091 0.42198,0.2218 0.69566,0.5231 0.45646,0.5027 0.59856,0.9232 0.55555,1.6443 -0.0332,0.5565 -0.18756,0.9354 -0.55011,1.3501 -0.39004,0.4462 -0.7579,0.62 -1.12252,0.5304 -0.11589,-0.028 -0.4624,-0.087 -0.77003,-0.1292 z"
/>
<path
style="fill:#000000;fill-opacity:1"
id="path2893"
d="m 51.91302,34.6044999999999 c 0.0922,-0.1216 0.0347,-0.401 -0.0935,-0.4548 -0.1439,-0.061 -0.32727,0.077 -0.32727,0.2453 0,0.2793 0.26708,0.4123 0.42077,0.2095 z"
/>
<path
id="path2891"
style="fill:#c0c0cf;fill-opacity:1"
d="m 49.42742,35.8068000000001 c 0.17001,-0.1904 0.36823,-0.4722 0.4405,-0.6263 0.0723,-0.1541 0.14011,-0.2802 0.15076,-0.2802 0.0106,0 0.0522,0.1113 0.0924,0.2472 0.0402,0.136 0.16303,0.3956 0.27306,0.5769 l 0.20005,0.3296 -0.64466,0.036 c -0.35457,0.02 -0.68438,0.042 -0.73292,0.049 -0.0485,0.01 0.0508,-0.1427 0.22084,-0.3331 z"
/>
<path
d="m 47.20593,35.9398000000001 c -1.28706,-0.6453 -1.59366,-2.6416 -0.58901,-3.8351 0.75043,-0.8916 1.95644,-0.8916 2.70687,0 0.13901,0.1651 0.32454,0.4686 0.41229,0.6744 0.13741,0.3222 0.15954,0.461 0.15954,1.0004 0,0.5395 -0.0221,0.6782 -0.15954,1.0005 -0.4975,1.1667 -1.55215,1.6501 -2.53015,1.1598 z"
style="fill:#ffffff;fill-opacity:1"
id="path2889"
/>
<path
style="fill:#000000;fill-opacity:1"
id="path2887"
d="m 48.35862,34.6077 c 0.043,-0.057 0.0608,-0.1705 0.0405,-0.2591 -0.0492,-0.2147 -0.25564,-0.2642 -0.40758,-0.098 -0.10787,0.1182 -0.11138,0.1467 -0.0338,0.2753 0.10701,0.1774 0.29867,0.2165 0.40083,0.082 z"
/>
<path
id="path2885"
style="fill:#ef6b00;fill-opacity:1"
d="m 55.56435,32.8593000000001 c -0.33573,-0.107 -0.92197,-0.2616 -1.30275,-0.3435 -0.4452,-0.096 -0.76588,-0.2032 -0.89836,-0.3011 -0.4871,-0.3598 -1.34805,-0.4418 -1.90808,-0.1816 -0.17899,0.083 -0.40946,0.1067 -0.98276,0.1007 l -0.74893,-0.01 -0.2915,-0.2986 c -0.57182,-0.5857 -1.32045,-0.8063 -2.00114,-0.5896 -0.19264,0.061 -0.42097,0.1593 -0.5074,0.2177 -0.24561,0.1659 -0.60774,0.5537 -0.76098,0.815 -0.11353,0.1936 -0.18818,0.2465 -0.4,0.2832 -0.53517,0.093 -1.68429,0.4378 -2.18675,0.6562 -0.40916,0.1779 -0.5113,0.203 -0.47956,0.1177 0.0222,-0.06 0.23748,-0.7314 0.47844,-1.4928 1.86251,-5.8859 4.57776,-13.3313 5.5513,-15.2221 0.5492,-1.0667 0.80182,-1.3368 1.0915,-1.1671 0.71137,0.417 3.10014,6.6049 6.11049,15.8288 0.3491,1.0696 0.6522,1.9944 0.67355,2.0551 0.0318,0.09 -0.0389,0.076 -0.39392,-0.083 -0.238,-0.1061 -0.70742,-0.2805 -1.04315,-0.3875 z"
/>
<path
d="m 54.41857,31.4735000000001 c 0.16895,-0.075 0.30193,-0.4589 0.38283,-1.1059 0.19318,-1.5451 -0.49493,-2.7533 -1.73178,-3.0407 -1.03129,-0.2396 -1.89416,0.092 -2.33607,0.8982 -0.14211,0.2593 -0.20444,0.4823 -0.26066,0.9328 -0.10468,0.8389 0.008,1.7848 0.2289,1.914 0.0597,0.035 0.4719,0.063 0.91605,0.062 0.83065,0 1.7826,0.1227 2.31264,0.301 0.34154,0.1148 0.31879,0.113 0.48809,0.038 z"
style="fill:#c0c0cf;fill-opacity:1"
id="path2883"
/>
<path
d="m 53.50906,30.8422 c -0.27249,-0.07 -0.80439,-0.1177 -1.50508,-0.1364 l -1.08366,-0.029 -0.0512,-0.2122 c -0.0281,-0.1167 -0.0402,-0.4941 -0.0267,-0.8386 0.0361,-0.9243 0.2652,-1.4216 0.80035,-1.737 0.19831,-0.1169 0.34197,-0.1419 0.81405,-0.1419 0.52532,0 0.60653,0.018 0.97147,0.2147 0.66994,0.3612 0.95373,0.9264 0.95373,1.8995 0,0.3099 -0.031,0.6981 -0.0688,0.8626 -0.0773,0.3364 0.004,0.3244 -0.80413,0.1182 z"
id="path2881"
style="fill:#ffffff;fill-opacity:1"
/>
<path
id="path2879"
style="fill:#c0c0cf;fill-opacity:1"
d="m 46.68614,30.6776 c 0.59445,-0.1739 1.43958,-0.2715 2.18727,-0.2527 0.36423,0.01 0.72092,0 0.79266,-0.031 0.37757,-0.1383 0.41952,-1.8013 0.068,-2.6961 -0.16916,-0.4306 -0.60939,-0.8536 -1.04429,-1.0034 -0.50319,-0.1733 -1.32674,-0.117 -1.80834,0.1235 -0.77895,0.3892 -1.22224,1.1373 -1.27507,2.1518 -0.0349,0.6705 0.10911,1.5167 0.29225,1.7172 0.13596,0.1489 0.25152,0.1476 0.78751,-0.01 z"
/>
<path
style="fill:#ffffff;fill-opacity:1"
id="path2877"
d="m 46.1103000000001,30.2360000000001 c -0.0176,-0.064 -0.0619,-0.3231 -0.0984,-0.5769 -0.19338,-1.3427 0.39742,-2.3853 1.47287,-2.599 0.48288,-0.096 0.67695,-0.09 1.06167,0.035 0.42314,0.1367 0.77187,0.5208 0.91575,1.0086 0.10519,0.3567 0.14148,1.2988 0.066,1.7124 l -0.0376,0.206 -0.88491,0 c -0.82276,0 -1.81667,0.1241 -2.13863,0.2671 -0.19897,0.088 -0.32261,0.07 -0.35665,-0.053 z"
/>
<path
id="path3485"
style="fill:#c0c0cf;fill-opacity:1"
d="m 50.08769,33.1038000000001 c -0.0196,-0.1179 -0.0534,-0.281 -0.0751,-0.3626 -0.0373,-0.1401 -0.0224,-0.1483 0.26857,-0.1483 0.33208,0 0.37268,0.047 0.19313,0.2252 -0.0632,0.063 -0.14776,0.2008 -0.18791,0.3069 -0.0948,0.2506 -0.15454,0.2442 -0.19869,-0.021 z"
/>
<path
d="m 74.40307,54.9123 c 0.21249,-0.056 0.57849,-0.1132 0.81336,-0.1279 0.38718,-0.024 0.47346,-0.047 0.92472,-0.2476 0.67404,-0.2993 1.73785,-0.8321 2.14528,-1.0745 0.75407,-0.4486 1.37415,-1.007 1.61354,-1.4532 0.2306,-0.4297 0.16722,-0.9029 -0.17601,-1.3141 -0.36897,-0.442 -0.75964,-0.4997 -1.44962,-0.2141 -0.5081,0.2102 -0.75032,0.3568 -1.64115,0.9928 -0.41826,0.2986 -0.92704,0.6517 -1.13064,0.7846 -0.20359,0.133 -0.74692,0.4974 -1.20741,0.8098 -0.46048,0.3125 -0.88534,0.5877 -0.94413,0.6117 -0.13648,0.056 -0.30235,0.027 -0.34846,-0.06 -0.049,-0.092 -0.0164,-0.1873 0.31496,-0.9183 0.36238,-0.7993 0.7453,-1.5232 1.45434,-2.7491 0.6585,-1.1386 0.8516,-1.5325 0.97401,-1.9871 0.17463,-0.6485 0.0742,-1.1176 -0.32402,-1.5135 -0.40815,-0.4058 -0.77797,-0.3973 -1.2601,0.029 -0.48108,0.4254 -0.90855,1.1846 -1.59471,2.8323 -0.19753,0.4743 -0.42426,1.0124 -0.50387,1.1957 -0.15562,0.3584 -0.38653,1.0097 -0.45321,1.2784 -0.0334,0.1345 -0.0215,0.2151 0.0637,0.432 0.0576,0.1467 0.17809,0.4016 0.26771,0.5665 0.15434,0.284 0.19072,0.3269 0.68859,0.812 0.66219,0.6452 0.72598,0.7575 0.74417,1.3107 l 0.0119,0.3618 0.31536,-0.1285 c 0.17344,-0.071 0.48919,-0.174 0.70167,-0.2297 z"
style="fill:#ffccaa;fill-opacity:1"
id="path3808"
/>
<path
id="path3806"
style="fill:#ffccaa;fill-opacity:1"
d="m 72.34997,58.2455 c 0.68744,0.2046 1.76926,-0.2087 2.88248,-1.1013 0.80653,-0.6466 1.00539,-1.2389 0.56349,-1.6782 -0.3088,-0.307 -1.00744,-0.3159 -1.71641,-0.022 -0.50534,0.2096 -0.93921,0.4648 -1.20862,0.711 -0.11443,0.1046 -0.29456,0.2374 -0.40029,0.2951 -0.15234,0.083 -0.24302,0.1662 -0.43712,0.4003 -0.23317,0.2813 -0.24607,0.3053 -0.2694,0.501 -0.0348,0.2919 0.0557,0.5387 0.26076,0.7109 0.0875,0.073 0.23376,0.1559 0.32511,0.1831 z"
/>
<path
style="fill:#ffccaa;fill-opacity:1"
id="path3804-5"
d="m 72.95714,59.4321 c 0.43212,0.1195 1.16032,0 1.70432,-0.2842 0.54518,-0.2829 1.22913,-0.859 1.43608,-1.2096 0.20054,-0.3397 0.23824,-0.5573 0.13795,-0.7962 -0.09,-0.2144 -0.10341,-0.2133 -0.36328,0.03 -0.52437,0.491 -1.28023,1.0193 -1.81046,1.2654 -0.5492,0.2549 -1.18637,0.3651 -1.66766,0.2884 l -0.23262,-0.037 0.0539,0.1359 c 0.0383,0.097 0.11763,0.1943 0.27414,0.3374 0.18699,0.1711 0.25763,0.2119 0.46765,0.27 z"
/>
<path
d="m 68.36563,58.713 c 0.42084,0.1465 0.95604,0.036 1.18915,-0.2449 0.0593,-0.072 0.15277,-0.2365 0.20778,-0.3667 0.12461,-0.2949 0.15333,-0.3301 0.26926,-0.3299 0.15031,0 0.17661,0.096 0.10632,0.3855 -0.0564,0.2328 -0.0909,0.3018 -0.24759,0.4957 l -0.18207,0.2253 0.0368,0.445 c 0.0284,0.3438 0.0597,0.4864 0.13767,0.6273 0.19319,0.3489 0.67565,0.7403 0.94995,0.7706 0.0626,0.01 0.14722,0.029 0.18813,0.05 0.15565,0.078 0.6075,-0.014 1.06354,-0.2158 0.35088,-0.1556 1.1875,-0.614 1.24309,-0.681 0.006,-0.01 -0.10452,-0.02 -0.2454,-0.028 -0.44435,-0.026 -0.61976,-0.099 -0.94033,-0.3893 -0.25626,-0.2322 -0.28752,-0.2726 -0.36597,-0.4734 -0.0472,-0.1207 -0.0782,-0.2718 -0.069,-0.3357 0.0148,-0.1025 0.004,-0.123 -0.0897,-0.1737 -0.30597,-0.1651 -0.54871,-0.5597 -0.56474,-0.9179 -0.0106,-0.2363 0.0848,-0.5296 0.22855,-0.703 0.0374,-0.045 0.0616,-0.088 0.0539,-0.096 -0.008,-0.01 -0.11824,-0.022 -0.24557,-0.031 -0.50398,-0.038 -1.13836,-0.3383 -1.52613,-0.7231 -0.4565,-0.453 -0.70687,-1.1089 -0.73764,-1.9325 -0.0162,-0.4348 0.0329,-0.533 0.26186,-0.5236 0.0792,0 0.15653,0.018 0.17181,0.034 0.0153,0.015 0.0539,0.1571 0.0859,0.3153 0.16936,0.8388 0.40255,1.3874 0.75688,1.7809 0.1994,0.2214 0.2603,0.2679 0.50278,0.3841 0.95936,0.4596 1.80482,0.1211 1.99053,-0.797 0.0515,-0.2545 1.4e-4,-0.5514 -0.13713,-0.7931 -0.0435,-0.077 -0.29178,-0.3556 -0.5518,-0.6201 -0.62295,-0.6338 -0.7333,-0.8085 -1.07824,-1.7071 -0.32795,-0.8543 -0.51688,-1.0649 -1.03095,-1.149 -0.45054,-0.074 -0.86416,0.017 -1.18287,0.2593 -0.1977,0.1503 -0.60077,0.653 -0.77895,0.9715 -0.46791,0.8364 -0.78441,2.2045 -0.73655,3.1838 0.0261,0.5344 0.14912,1.3604 0.31187,2.0944 0.10215,0.4607 0.11948,0.5044 0.26667,0.6712 0.26289,0.2979 0.47599,0.4647 0.68827,0.5386 z"
style="fill:#ffccaa;fill-opacity:1"
id="path3802"
/>
<path
d="m 69.45245,60.9006999999999 c 0.10752,0.062 0.25866,0.1225 0.33586,0.135 0.12879,0.021 0.51146,-0.052 0.50947,-0.097 -4e-4,-0.011 -0.0943,-0.073 -0.20847,-0.1396 -0.1451,-0.084 -0.28114,-0.1995 -0.45176,-0.3836 -0.20825,-0.2246 -0.25922,-0.3029 -0.3466,-0.5324 -0.0564,-0.148 -0.11147,-0.3896 -0.12248,-0.537 l -0.02,-0.2679 -0.31643,0 c -0.52377,0 -1.07596,-0.2064 -1.27911,-0.4843 -0.10965,-0.1499 -0.12509,-0.1321 -0.0568,0.065 0.15084,0.4363 0.38755,0.7478 1.15224,1.5161 0.47224,0.4746 0.65235,0.6366 0.80406,0.7238 z"
id="path3800"
style="fill:#c0c0cf;fill-opacity:1"
/>
<path
d="m 24.7146300000001,64.5155999999999 c -0.64641,0.086 -1.04091,-0.114 -1.52967,-0.7747 -0.21637,-0.2925 -0.29025,-0.4374 -0.37204,-0.7297 -0.0715,-0.2557 -0.13325,-0.3882 -0.20636,-0.4431 -0.0574,-0.043 -0.19159,-0.1844 -0.29828,-0.3141 -0.51184,-0.6223 -0.67119,-1.2268 -0.46023,-1.7458 0.0544,-0.1339 0.0533,-0.1646 -0.006,-0.1693 -0.0399,0 -0.22808,-0.1128 -0.4181,-0.2436 -0.46729,-0.3215 -0.72943,-0.7202 -0.86038,-1.3085 -0.0562,-0.2525 -0.0796,-0.4817 -0.0608,-0.5951 0.0353,-0.2122 0.2217,-0.5565 0.3121,-0.5766 0.0338,-0.01 0.0568,-0.035 0.0512,-0.062 -0.006,-0.027 -0.0283,-0.044 -0.0504,-0.04 -0.10701,0.024 -0.60195,-0.3666 -0.79633,-0.628 -0.19206,-0.2584 -0.22632,-0.3402 -0.327,-0.7811 -0.12476,-0.5463 -0.12451,-0.7336 0.001,-1.0516 0.20602,-0.5203 0.58564,-0.7711 1.24167,-0.8202 0.31896,-0.024 0.34022,-0.032 0.38462,-0.1454 0.13023,-0.3327 0.3809,-0.5977 1.18814,-1.2563 1.37444,-1.1214 1.55111,-1.2389 2.87021,-1.9093 0.91775,-0.4665 0.96921,-0.4861 1.26161,-0.4807 0.33449,0.01 0.52089,0.059 0.77313,0.2186 0.23482,0.1486 0.23004,0.1551 0.22174,-0.3013 -0.01,-0.5439 0.22661,-0.8675 0.72747,-0.9954 0.62383,-0.1594 1.64483,0.073 2.12818,0.4845 0.0867,0.074 0.24124,0.2403 0.3433,0.3697 0.81582,1.0349 0.87694,1.8102 0.2808,3.5619 l -0.18675,0.5488 0.0878,0.3639 c 0.0889,0.3685 0.0777,0.6891 -0.0248,0.7134 -0.0291,0.01 -0.078,0.038 -0.1086,0.069 -0.0564,0.057 0.0148,0.2044 0.36945,0.7638 0.33758,0.5325 1.43208,2.3803 1.53865,2.5976 0.16388,0.3342 0.17809,0.4168 0.143,0.8313 -0.0213,0.252 -0.0717,0.4206 -0.18095,0.6056 -0.14155,0.2398 -0.23539,0.313 -1.4467,1.1282 -3.12581,2.1039 -3.09184,2.0831 -3.55044,2.177 -0.22544,0.046 -0.47902,0.1244 -0.5635,0.1739 -0.48688,0.2848 -1.71206,0.6628 -2.47706,0.7643 z"
id="path3629"
style="fill:#c0c0cf;fill-opacity:1;stroke:none"
/>
<path
style="fill:#008751;fill-opacity:1;stroke:none"
id="path3625"
d="m 28.91473,62.5579 c 0.32859,-0.2227 1.22827,-0.8273 1.99928,-1.3437 0.77102,-0.5164 1.45106,-1.0043 1.51121,-1.0843 0.13074,-0.1739 0.18749,-0.3701 0.18982,-0.6561 10e-4,-0.1656 -0.0339,-0.2806 -0.16247,-0.5296 -0.21343,-0.4135 -1.26879,-2.1705 -2.13409,-3.5528 -0.71304,-1.1391 -0.70641,-1.1312 -1.02859,-1.229 -0.74553,-0.2264 -1.13329,-0.6797 -1.46776,-1.716 -0.042,-0.1302 -0.0837,-0.4127 -0.0926,-0.6277 -0.0152,-0.3643 -0.0247,-0.4004 -0.1393,-0.527 -0.33135,-0.3662 -0.71218,-0.5078 -1.09935,-0.4088 -0.44439,0.1137 -2.18432,1.0788 -2.69566,1.4953 -0.15223,0.124 -0.41734,0.3297 -0.58913,0.4571 -0.17179,0.1273 -0.48206,0.3818 -0.68947,0.5655 -0.20741,0.1836 -0.38538,0.3357 -0.39549,0.338 -0.0604,0.013 -0.26636,0.3083 -0.29762,0.4262 -0.035,0.1318 -0.0249,0.1475 0.17172,0.2672 0.45463,0.2769 0.4945,0.2896 0.88886,0.2837 l 0.39318,-0.01 0.17735,-0.1952 c 0.10307,-0.1134 0.74873,-0.5704 1.54151,-1.0911 1.11366,-0.7315 1.41161,-0.907 1.62262,-0.9558 0.42335,-0.098 0.86089,0.083 1.10548,0.4568 0.0637,0.097 0.14364,0.2166 0.17758,0.2648 0.0339,0.048 0.28434,0.4377 0.55645,0.8654 0.2721,0.4278 0.64188,1.0075 0.82173,1.2884 0.17985,0.2808 0.43795,0.6914 0.57357,0.9123 0.13561,0.221 0.49316,0.7824 0.79456,1.2477 0.30141,0.4653 0.57192,0.9302 0.60116,1.033 0.12215,0.4299 0.0254,0.8854 -0.24631,1.1597 -0.0843,0.085 -0.70996,0.5232 -1.39029,0.9734 l -1.23695,0.8185 0.0308,0.2916 c 0.0366,0.3456 -0.0117,0.7992 -0.11,1.0346 -0.0388,0.093 -0.05,0.1643 -0.0249,0.1588 0.0251,-0.01 0.31451,-0.1923 0.6431,-0.415 z"
/>
<path
d="m 29.67183,59.7731000000001 c 0.51538,-0.34 0.83571,-0.4112 0.85812,-0.7785 0.0253,-0.4148 0.10106,-0.2313 -0.47752,-1.1167 -0.27857,-0.4263 -0.69986,-1.0859 -0.93621,-1.4658 -0.23634,-0.3798 -0.63383,-1.0105 -0.88329,-1.4014 -0.24947,-0.3909 -0.58518,-0.9188 -0.74601,-1.173 -0.16084,-0.2543 -0.33306,-0.5128 -0.38271,-0.5744 -0.22453,-0.2786 -0.21532,-0.1533 -0.52975,-0.031 -0.22195,0.086 -2.21213,1.2976 -2.36525,1.4576 -0.0994,0.1038 0.22718,0.1012 0.34794,0.1549 0.0408,0.018 0.42941,0.1385 0.65829,0.8707 0.091,0.291 0.0813,0.5879 -0.0284,0.8675 -0.0648,0.1652 -0.0673,0.216 -0.0118,0.2371 0.0389,0.015 0.085,0.024 0.1025,0.02 0.077,-0.015 0.39001,0.1967 0.50521,0.342 0.22276,0.2811 0.41495,0.6416 0.43046,0.8074 0.008,0.089 -0.0147,0.3314 -0.0512,0.5393 -0.0364,0.2079 -0.0601,0.3798 -0.0527,0.3821 0.007,0 0.0715,0.016 0.14217,0.03 0.0707,0.014 0.2546,0.09 0.40862,0.1675 0.49522,0.2506 0.80126,0.8065 0.74472,1.3528 -0.0102,0.098 -0.01,0.1825 4e-4,0.187 0.28844,0.1264 0.24358,-0.056 0.36787,0.096 0.11011,0.1346 0.17744,0.1795 0.22248,0.1486 0.0355,-0.024 0.45368,-0.3037 0.92925,-0.6204 0.24898,-0.1665 0.49782,-0.3331 0.7467,-0.4998 z"
style="fill:#ffffff;fill-opacity:1;stroke:none"
id="path3621"
/>
<path
id="path3627"
style="fill:#ffccaa;fill-opacity:1;stroke:none"
d="m 26.4584,63.6855 c 0.82683,-0.3231 1.43793,-0.768 1.52882,-1.1131 0.0655,-0.2486 0.0858,-0.5855 0.0467,-0.7721 -0.05,-0.2384 -0.32222,-0.5887 -0.52834,-0.6799 l -0.15665,-0.069 -0.17362,0.2646 c -0.28072,0.4278 -0.79482,0.7542 -1.78872,1.1358 -0.47929,0.184 -1.71297,0.4418 -1.96526,0.4108 l -0.20826,-0.026 0.0733,0.2074 c 0.0827,0.2341 0.49341,0.7898 0.68538,0.9274 0.1497,0.1073 0.38311,0.1796 0.58935,0.1826 0.31271,0 1.33026,-0.2468 1.89731,-0.4684 z"
/>
<path
id="path3623"
style="fill:#ffccaa;fill-opacity:1;stroke:none"
d="m 25.64017,61.9294 c 0.91092,-0.378 1.30203,-0.7458 1.37011,-1.2885 0.0785,-0.6255 -0.14954,-1.0611 -0.65736,-1.2556 -0.29936,-0.1146 -0.46144,-0.064 -0.63075,0.1959 -0.062,0.095 -0.24358,0.2755 -0.4034,0.4005 -0.2621,0.2049 -0.34382,0.2412 -0.83384,0.3705 -0.57105,0.1506 -1.06528,0.1786 -1.71779,0.097 l -0.28547,-0.035 -0.12285,0.1368 c -0.21324,0.2374 -0.21118,0.6439 0.005,1.012 0.29004,0.4936 0.5977,0.7984 0.89756,0.889 0.33896,0.1025 1.47325,-0.1466 2.37866,-0.5224 z"
/>
<path
d="m 24.69051,59.9075 c 0.60052,-0.2775 0.98128,-0.7891 1.10573,-1.4858 0.0776,-0.4347 0.0698,-0.4641 -0.24276,-0.9062 -0.15136,-0.2141 -0.26653,-0.2862 -0.50034,-0.3131 -0.14931,-0.017 -0.18371,0 -0.25149,0.093 -0.0432,0.062 -0.1939,0.1971 -0.33492,0.3 -0.75601,0.5516 -1.51494,0.6207 -2.67638,0.2438 -0.38754,-0.1258 -0.39955,-0.1262 -0.54608,-0.021 -0.32111,0.2302 -0.37769,0.4366 -0.24901,0.9082 0.16398,0.601 0.58507,1.101 1.02527,1.2176 0.26502,0.07 1.03183,0.1546 1.44467,0.1592 0.60303,0.01 0.88489,-0.038 1.22531,-0.1956 z"
id="path3619"
style="fill:#ffccaa;fill-opacity:1;stroke:none"
/>
<path
style="fill:#ffccaa;fill-opacity:1;stroke:none"
id="path3617"
d="m 24.23543,57.2931000000001 c 0.31496,-0.2467 0.60397,-0.7214 0.65925,-1.083 0.0465,-0.3044 -0.15117,-0.8145 -0.37647,-0.9712 -0.16829,-0.1171 -0.6298,-0.1728 -1.19179,-0.144 -0.80969,0.042 -0.97667,0.014 -1.37289,-0.2247 -0.47972,-0.2891 -0.5643,-0.3088 -1.02797,-0.2389 -0.3301,0.05 -0.45151,0.087 -0.54682,0.1686 -0.30446,0.2598 -0.38666,0.6071 -0.27252,1.1513 0.17878,0.8525 0.48182,1.0981 1.89965,1.5399 0.80237,0.25 0.97498,0.265 1.50649,0.1314 0.38462,-0.097 0.48323,-0.1416 0.72307,-0.3294 z"
/>
<path
d="m 30.70263,54.6826000000001 -0.0865,-0.4225 0.2113,-0.6303 c 0.31486,-0.9391 0.40773,-1.4456 0.36841,-2.0093 -0.0254,-0.3646 -0.38389,-0.9697 -0.85254,-1.4391 -0.46575,-0.4664 -1.7739,-0.6452 -2.12685,-0.2905 -0.094,0.094 -0.12845,0.1893 -0.13445,0.3708 -0.0145,0.4367 0.0213,1.558 0.0577,1.8098 0.0572,0.3959 0.25581,0.9194 0.43179,1.1384 0.32545,0.405 0.86388,0.6644 1.34444,0.6477 0.14717,-0.01 0.19717,-0.038 0.35452,-0.2315 0.26459,-0.3258 0.52895,-1.2047 0.52584,-1.7482 -10e-4,-0.2533 -0.0122,-0.2778 -0.31549,-0.7161 -0.34411,-0.4974 -0.35837,-0.527 -0.27712,-0.5765 0.0347,-0.021 0.17609,0.1264 0.37732,0.3938 0.28722,0.3816 0.32837,0.4615 0.38283,0.7437 0.0882,0.4567 -0.0725,1.4663 -0.31388,1.9718 -0.236,0.4943 -0.24503,0.7094 -0.0505,1.2033 0.17188,0.4364 0.21732,0.3417 0.10324,-0.2153 z"
id="path2841"
style="fill:#ffccaa;fill-opacity:1;stroke:none"
/>
<path
d="m 71.7137,36.5558000000001 0.21934,0.7416 -0.64217,-0.431 -0.63753,0.4378 0.21142,-0.7439 -0.61335,-0.4711 0.77282,-0.029 0.25846,-0.7289 0.26622,0.7261 0.77308,0.021 z"
style="fill:#c0c0c0;fill-opacity:1"
id="path3419-4"
/>
<path
d="m 67.38706,26.8976 0.25386,1.3827 -0.93904,-1.0462 -0.92274,1.0606 0.23245,-1.3864 -1.4045,-0.06 1.22889,-0.6827 -0.82864,-1.1356 1.29995,0.5351 0.3712,-1.3559 0.39213,1.35 1.29152,-0.5552 -0.81098,1.1483 1.2393,0.6636 z"
id="path3421-7"
style="fill:#c0c0c0;fill-opacity:1"
/>
<path
d="m 71.88063,43.6621 0.25386,1.3827 -0.93904,-1.0462 -0.92274,1.0606 0.23245,-1.3864 -1.4045,-0.06 1.22889,-0.6827 -0.82864,-1.1356 1.29995,0.5351 0.3712,-1.3559 0.39213,1.35 1.29152,-0.5552 -0.81098,1.1483 1.2393,0.6636 z"
id="path3423-2"
style="fill:#c0c0c0;fill-opacity:1"
/>
<path
style="fill:#c0c0c0;fill-opacity:1"
id="path3425-4"
d="m 74.88253,32.2554 0.25386,1.3827 -0.93904,-1.0462 -0.92274,1.0606 0.23245,-1.3864 -1.4045,-0.06 1.22889,-0.6827 -0.82864,-1.1356 1.29995,0.5351 0.3712,-1.3559 0.39213,1.35 1.29152,-0.5552 -0.81098,1.1483 1.2393,0.6636 z"
/>
<path
id="path3427-1"
style="fill:#c0c0c0;fill-opacity:1"
d="m 64.51275,35.0207 0.25386,1.3827 -0.93904,-1.0462 -0.92274,1.0606 0.23245,-1.3864 -1.4045,-0.06 1.22889,-0.6827 -0.82864,-1.1356 1.29995,0.5351 0.3712,-1.3559 0.39213,1.35 1.29152,-0.5552 -0.81098,1.1483 1.2393,0.6636 z"
/>
</svg>
