<?xml version="1.0" encoding="UTF-8" standalone="no"?>
<svg
xmlns:cc="http://creativecommons.org/ns#"
xmlns:svg="http://www.w3.org/2000/svg"
xmlns="http://www.w3.org/2000/svg"
xmlns:rdf="http://www.w3.org/1999/02/22-rdf-syntax-ns#"
xmlns:dc="http://purl.org/dc/elements/1.1/"
xmlns:sodipodi="http://sodipodi.sourceforge.net/DTD/sodipodi-0.dtd"
xmlns:inkscape="http://www.inkscape.org/namespaces/inkscape"
>
<path
d="m 47.1489999999999,5.15625999999997 -34.5256,0 c -4.1247,0 -7.4675,3.34535 -7.4675,7.47321 l 0,74.73847 c 0,4.1301 3.3428,7.47544 7.4675,7.47544 l 74.6819,0 c 4.1269,0 7.4698,-3.34534 7.4698,-7.47318 l 0,-28.64366"
id="path4161"
style="fill:none;stroke:#606060;stroke-width:10.31230354;stroke-linecap:round;stroke-miterlimit:10;stroke-dasharray:none;stroke-opacity:1"
/>
<line
style="fill:none;stroke:#606060;stroke-width:6.05263233;stroke-linecap:round;stroke-miterlimit:10;stroke-dasharray:none;stroke-opacity:1"
x1="12.6134999999999"
id="line4163"
y2="58.2912"
y1="95.46515"
x2="49.9650999999999"
/>
<line
x2="4.81100000000015"
style="fill:none;stroke:#606060;stroke-width:6.05263233;stroke-linecap:round;stroke-miterlimit:10;stroke-dasharray:none;stroke-opacity:1"
id="line4165"
x1="50.1968000000002"
y1="42.71057"
y2="87.10297"
/>
<line
y2="94.84338"
y1="58.3183"
x1="50.1985"
style="fill:none;stroke:#606060;stroke-width:6.05263233;stroke-linecap:round;stroke-miterlimit:10;stroke-dasharray:none;stroke-opacity:1"
id="line4167"
x2="86.6959999999999"
/>
<line
y2="42.48553"
y1="86.3084700000001"
x1="94.3256999999999"
style="fill:none;stroke:#606060;stroke-width:6.05263233;stroke-linecap:round;stroke-miterlimit:10;stroke-dasharray:none;stroke-opacity:1"
id="line4169"
x2="50.5356000000002"
/>
<path
d="m 78.9571000000001,3.3313 c -9.9368,0 -17.9927,7.85925 -17.9927,17.55365 0,11.9588 12.2578,16.25624 16.7921,33.24978 0.3123,1.16811 0.2076,2.01706 1.2006,2.01706 0.9928,0 0.888,-0.84895 1.2006,-2.01706 4.5343,-16.99354 16.7921,-21.29098 16.7921,-33.24978 0,-9.6944 -8.056,-17.55365 -17.9927,-17.55365 z"
id="path4175"
style="fill:none;stroke:#606060;stroke-width:6.10042953;stroke-linecap:round;stroke-miterlimit:10;stroke-dasharray:none;stroke-opacity:1"
/>
<ellipse
rx="4.8070536"
ry="4.8107009"
id="circle4177"
style="fill:none;stroke:#606060;stroke-width:3.20590234;stroke-linecap:round;stroke-miterlimit:10;stroke-opacity:1"
cx="78.9546"
cy="20.737"
/>
<path
style="fill:#606060;fill-opacity:1;stroke:#606060;stroke-width:1.06015384;stroke-opacity:1"
id="path4179-3"
d="m 25.5711999999999,23.17218 0,5.23548 7.454,0 c -0.9745,3.17267 -3.6228,5.44177 -7.454,5.44177 -4.5617,0 -8.2607,-3.69961 -8.2607,-8.26467 0,-4.56507 3.699,-8.26466 8.2607,-8.26466 2.0521,0 3.9228,0.75336 5.3682,1.99105 l 3.8535,-3.8543 c -2.433,-2.21977 -5.6684,-3.57405 -9.2217,-3.57405 -7.5617,0 -13.6939,6.13462 -13.6939,13.70196 0,7.56735 6.1322,13.70193 13.6939,13.70193 11.9729,0 14.032,-10.75573 12.9073,-16.09658 l -12.9073,-0.0179 z"
/>
</svg>
