<?xml version="1.0" encoding="UTF-8" standalone="no"?>
<svg
xmlns:sodipodi="http://sodipodi.sourceforge.net/DTD/sodipodi-0.dtd"
xmlns:inkscape="http://www.inkscape.org/namespaces/inkscape"
xmlns:cc="http://creativecommons.org/ns#"
xmlns:svg="http://www.w3.org/2000/svg"
xmlns="http://www.w3.org/2000/svg"
xmlns:rdf="http://www.w3.org/1999/02/22-rdf-syntax-ns#"
xmlns:dc="http://purl.org/dc/elements/1.1/"
>
<path
style="fill:#606060"
id="path3981-9"
d="m 12.3674999999998,99.76035 c 2.7408,0 5.5126,-0.91706 7.8001,-2.81338 l 29.6856,-24.45556 29.974,24.69522 c 2.2979,1.886 5.0594,2.81338 7.8001,2.81338 3.5858,0 7.1509,-1.57352 9.5931,-4.60561 4.3172,-5.35584 3.5136,-13.2333 -1.7723,-17.58883 l -37.7845,-31.13473 c -4.5441,-3.75117 -11.0767,-3.75117 -15.6208,0 l -37.4857,30.89507 c -5.2962,4.35553 -6.0896,12.23289 -1.7826,17.58883 2.4524,3.0322 6.0072,4.60561 9.593,4.60561 z"
/>
<path
style="fill:#606060"
id="path3983"
d="m 12.3674999999998,55.90289 c 2.7408,0 5.5126,-0.91695 7.8001,-2.81338 l 29.6856,-24.45556 29.974,24.69522 c 2.2979,1.88611 5.0594,2.81338 7.8001,2.81338 3.5858,0 7.1509,-1.57341 9.5931,-4.60561 4.3172,-5.35573 3.5136,-13.2333 -1.7723,-17.58883 l -37.7845,-31.13473 c -4.5441,-3.75117 -11.0767,-3.75117 -15.6208,0 l -37.4857,30.88466 c -5.2962,4.36594 -6.0896,12.2434 -1.7826,17.59925 2.4524,3.03219 6.0072,4.6056 9.593,4.6056 z"
/>
</svg>
