<?xml version="1.0" encoding="UTF-8" standalone="no"?>
<svg
xmlns:dc="http://purl.org/dc/elements/1.1/"
xmlns="http://www.w3.org/2000/svg"
xmlns:rdf="http://www.w3.org/1999/02/22-rdf-syntax-ns#"
xmlns:svg="http://www.w3.org/2000/svg"
xmlns:cc="http://creativecommons.org/ns#"
xmlns:inkscape="http://www.inkscape.org/namespaces/inkscape"
xmlns:sodipodi="http://sodipodi.sourceforge.net/DTD/sodipodi-0.dtd"
>
<path
d="m 30.9425,67.46824 c -0.1849,-0.11565 -0.1998,-0.33083 -0.033,-0.4715 0.2033,-0.17102 0.512,-0.0244 0.512,0.24316 0,0.0408 -0.038,0.11577 -0.083,0.16671 -0.1106,0.12257 -0.2608,0.14598 -0.3957,0.0616 z m -0.9889,-0.45845 c -0.1034,-0.081 -0.1323,-0.23507 -0.069,-0.35865 0.061,-0.11708 0.1321,-0.1565 0.2845,-0.1565 0.1367,0 0.2651,0.0976 0.2973,0.22585 0.024,0.0969 -0.035,0.24726 -0.1196,0.30701 -0.094,0.0656 -0.2999,0.0563 -0.3939,-0.0177 z m 3.2019,-0.39875 c -0.2618,-0.17789 -0.1345,-0.5721 0.1849,-0.5721 0.2688,0 0.3993,0.3132 0.2155,0.51704 -0.1153,0.1281 -0.263,0.14839 -0.4004,0.055 z m -4.0319,-0.0822 c -0.1153,-0.072 -0.1781,-0.23266 -0.1354,-0.3448 0.04,-0.10638 0.1768,-0.20584 0.2822,-0.20584 0.2794,0 0.4243,0.28776 0.2451,0.48665 -0.1094,0.12114 -0.261,0.14592 -0.3919,0.0639 z m 2.6977,-0.2021 c -0.1141,-0.0963 -0.1433,-0.21818 -0.084,-0.35814 0.052,-0.1265 0.127,-0.17269 0.2776,-0.17269 0.1421,0 0.2161,0.041 0.2732,0.1513 0.074,0.14146 0.057,0.2382 -0.057,0.35302 -0.1307,0.13069 -0.2737,0.13998 -0.4086,0.0265 z m -3.5613,-0.46773 c -0.2264,-0.22629 0.015,-0.58215 0.3273,-0.48056 0.1362,0.0444 0.2369,0.21026 0.2049,0.33767 -0.059,0.23788 -0.3574,0.31779 -0.5322,0.14289 z m 2.4687,-0.0782 c -0.1094,-0.0922 -0.1409,-0.20069 -0.096,-0.33484 0.042,-0.12529 0.1466,-0.19689 0.2894,-0.19689 0.1411,0 0.2152,0.0412 0.2721,0.15128 0.059,0.11471 0.058,0.19857 0,0.30473 -0.097,0.165 -0.3121,0.20033 -0.4602,0.0757 z m -0.7261,-0.40058 c -0.037,-0.007 -0.1022,-0.0548 -0.1443,-0.10507 -0.2606,-0.30955 0.1708,-0.69244 0.4572,-0.40596 0.2045,0.20449 -0.019,0.57023 -0.3129,0.51104 z m 3.6677,-0.0317 c -0.2067,-0.10507 -0.242,-0.3196 -0.08,-0.48221 0.077,-0.0777 0.1295,-0.10329 0.2086,-0.10329 0.2103,0 0.362,0.20971 0.296,0.40941 -0.062,0.18623 -0.2509,0.2647 -0.4252,0.17609 z m -1.3886,-0.0997 c -0.09,-0.0362 -0.1714,-0.1672 -0.1714,-0.27565 0,-0.1289 0.065,-0.23082 0.1831,-0.28681 0.1349,-0.064 0.2596,-0.0357 0.358,0.0813 0.2156,0.25623 -0.055,0.60809 -0.3697,0.48122 z m 2.6455,-0.0295 c -0.1034,-0.0416 -0.194,-0.1807 -0.194,-0.29635 0,-0.1334 0.1645,-0.31186 0.2876,-0.31186 0.1792,0 0.3183,0.13605 0.3193,0.31247 0,0.14458 -0.068,0.25077 -0.1881,0.29287 -0.1082,0.0378 -0.1373,0.0382 -0.2248,0.002 l 0,1e-5 z m -7.5085,-0.18292 c -0.1253,-0.0764 -0.1723,-0.17755 -0.1465,-0.31531 0.042,-0.22223 0.317,-0.3082 0.4983,-0.15563 0.1153,0.0966 0.1402,0.19878 0.083,0.3351 -0.031,0.0736 -0.079,0.12176 -0.1514,0.15216 -0.1382,0.0576 -0.1648,0.0562 -0.2836,-0.0163 z m 3.549,-0.18886 c -0.04,-0.0215 -0.101,-0.0845 -0.1332,-0.14003 -0.051,-0.0882 -0.055,-0.11625 -0.023,-0.22164 0.1,-0.33329 0.5541,-0.29128 0.6006,0.0555 0.014,0.10388 0,0.13607 -0.07,0.21834 -0.1,0.1109 -0.2591,0.14823 -0.374,0.0877 z m 7.0779,-0.0902 c -0.1933,-0.13102 -0.1924,-0.42703 0,-0.52743 0.1426,-0.0737 0.2932,-0.0567 0.3945,0.0447 0.264,0.26398 -0.088,0.69203 -0.3962,0.48277 l 0,0 0,0 z m -8.9585,-0.0711 c -0.1537,-0.12934 -0.154,-0.32431 -7e-4,-0.46714 0.1,-0.0927 0.309,-0.0877 0.4064,0.01 0.2863,0.28628 -0.096,0.71777 -0.4057,0.45749 l 0,0 0,0 z m 10.8444,-0.29815 c -0.095,-0.0549 -0.1529,-0.16284 -0.1542,-0.28888 -7e-4,-0.0761 0.025,-0.12784 0.1022,-0.20507 0.1365,-0.13645 0.2784,-0.14139 0.4203,-0.0146 0.084,0.0756 0.1,0.10912 0.1,0.22717 0,0.10864 -0.017,0.15553 -0.079,0.21742 -0.095,0.0946 -0.282,0.12549 -0.3886,0.0641 z m -3.6209,-0.23034 c -0.1955,-0.19555 -0.047,-0.51879 0.2372,-0.51879 0.173,0 0.3246,0.1942 0.2905,0.37249 -0.024,0.12608 -0.1713,0.23512 -0.3174,0.23512 -0.094,0 -0.1417,-0.0203 -0.2103,-0.0888 z m -3.245,-0.0144 c -0.1643,-0.091 -0.2035,-0.3209 -0.08,-0.46781 0.1905,-0.22645 0.5322,-0.0985 0.5322,0.19929 0,0.24539 -0.2385,0.38701 -0.4523,0.26852 z m -6.3895,-0.16715 c -0.133,-0.11886 -0.1393,-0.29652 -0.015,-0.42083 0.1129,-0.11292 0.3143,-0.11767 0.4286,-0.0107 0.2952,0.2774 -0.1117,0.70126 -0.4136,0.43117 z m 3.1401,-0.0191 c -0.1537,-0.12936 -0.154,-0.32431 -7e-4,-0.46715 0.1,-0.0927 0.309,-0.0877 0.4064,0.01 0.2863,0.28628 -0.096,0.71778 -0.4057,0.45749 l 0,0 0,0 z m 4.4589,-0.012 c -0.07,-0.0697 -0.089,-0.11601 -0.089,-0.215 0,-0.099 0.019,-0.14535 0.089,-0.215 0.07,-0.0696 0.1165,-0.0888 0.2151,-0.0888 0.099,0 0.1453,0.0191 0.215,0.0888 0.07,0.0697 0.089,0.11601 0.089,0.215 0,0.099 -0.019,0.14534 -0.089,0.215 -0.07,0.0697 -0.1165,0.0888 -0.215,0.0888 -0.099,0 -0.1454,-0.0191 -0.2151,-0.0888 z m -2.5822,-0.15191 c -0.1958,-0.19569 -0.062,-0.51879 0.215,-0.51879 0.099,0 0.1453,0.0191 0.2149,0.0888 0.1958,0.19569 0.062,0.51879 -0.2149,0.51879 -0.099,0 -0.1454,-0.0191 -0.215,-0.0888 z m 7.1075,-0.0271 c -0.208,-0.18584 -0.071,-0.52204 0.2128,-0.52204 0.1512,0 0.2686,0.0915 0.2945,0.22967 0.058,0.31165 -0.2723,0.5023 -0.5073,0.29237 z m -10.474,-0.0226 c -0.182,-0.15312 -0.1412,-0.42728 0.077,-0.51852 0.3239,-0.13532 0.5769,0.27661 0.3149,0.51275 -0.1214,0.10947 -0.2662,0.11161 -0.3921,0.006 z m 7.2119,-0.1636 c -0.2759,-0.11292 -0.2313,-0.54128 0.062,-0.59629 0.2145,-0.0403 0.4191,0.18006 0.3597,0.3874 -0.049,0.1714 -0.2592,0.2754 -0.4216,0.20889 z m 5.0312,-0.22467 c -0.095,-0.055 -0.1528,-0.16285 -0.1541,-0.28889 -7e-4,-0.0761 0.025,-0.12785 0.1022,-0.20506 0.1364,-0.13647 0.2784,-0.14141 0.4202,-0.0146 0.084,0.0756 0.099,0.10911 0.099,0.22715 0,0.10864 -0.017,0.15554 -0.078,0.21742 -0.095,0.0946 -0.2821,0.1255 -0.3886,0.0641 z m -11.4026,-0.15853 c -0.1046,-0.0569 -0.1452,-0.13217 -0.1452,-0.27162 0,-0.15059 0.046,-0.22487 0.1727,-0.27772 0.1401,-0.0585 0.2619,-0.0296 0.3582,0.0849 0.1255,0.14916 0.09,0.3635 -0.075,0.4613 -0.1046,0.0617 -0.2014,0.0628 -0.311,0.004 z m -2.876,-0.11494 c -0.1443,-0.0833 -0.2011,-0.30559 -0.1105,-0.43438 0.1081,-0.15525 0.3864,-0.16683 0.5012,-0.0209 0.086,0.10816 0.082,0.28706 -0.012,0.3899 -0.082,0.0959 -0.2743,0.12864 -0.3839,0.0654 z m 4.5645,-0.0197 c -0.246,-0.0994 -0.1922,-0.53571 0.073,-0.5863 0.297,-0.0568 0.4967,0.3146 0.2837,0.52762 -0.093,0.0925 -0.2201,0.11351 -0.3561,0.0587 z m 6.8061,-0.0593 c -0.1896,-0.08 -0.2556,-0.35186 -0.1208,-0.49736 0.1339,-0.14445 0.3105,-0.14528 0.4536,-0.002 0.2164,0.21641 -0.051,0.61827 -0.3328,0.49949 l 0,1e-5 z m -3.779,-0.0232 c -0.1623,-0.0593 -0.2502,-0.27025 -0.1816,-0.43595 0.052,-0.12521 0.141,-0.18058 0.2906,-0.18058 0.2273,0 0.3654,0.21868 0.275,0.43535 -0.064,0.15237 -0.2379,0.23458 -0.384,0.18118 z m 2.4841,-0.18871 c -0.086,-0.0761 -0.1,-0.10864 -0.1,-0.23034 0,-0.12166 0.014,-0.15424 0.1,-0.23034 0.069,-0.0618 0.1311,-0.0887 0.2046,-0.0887 0.074,0 0.1354,0.0269 0.2045,0.0887 0.086,0.0761 0.099,0.10864 0.099,0.23034 0,0.12165 -0.014,0.15423 -0.099,0.23034 -0.069,0.0618 -0.1311,0.0887 -0.2045,0.0887 -0.074,0 -0.1354,-0.0269 -0.2046,-0.0887 z m -3.7202,0.0276 c -0.1621,-0.0652 -0.223,-0.32767 -0.1105,-0.47808 0.1277,-0.17163 0.3928,-0.17082 0.4979,10e-4 0.091,0.15107 0.077,0.28218 -0.044,0.40393 -0.107,0.10673 -0.2062,0.12776 -0.3431,0.0726 l 0,-1e-5 0,2e-5 z m -4.9822,-0.19607 c -0.2107,-0.0916 -0.2441,-0.36661 -0.063,-0.51891 0.08,-0.0667 0.1177,-0.0782 0.2146,-0.0651 0.3058,0.041 0.3942,0.41009 0.1359,0.56757 -0.1164,0.071 -0.1567,0.0732 -0.2874,0.0164 z m 11.5686,-0.2106 c -0.1729,-0.0958 -0.2048,-0.32652 -0.066,-0.48117 0.076,-0.0852 0.1081,-0.0992 0.2303,-0.0992 0.1217,0 0.1543,0.014 0.2304,0.0992 0.2434,0.27238 -0.074,0.659 -0.3941,0.48117 z m 1.689,-0.14036 c -0.2724,-0.21424 -0.064,-0.64434 0.2714,-0.5594 0.353,0.0895 0.2875,0.62065 -0.076,0.62065 -0.071,0 -0.1474,-0.0239 -0.1948,-0.0612 z m -5.8312,-0.0578 c -0.086,-0.0761 -0.1,-0.10876 -0.1,-0.23036 0,-0.12164 0.014,-0.15423 0.1,-0.23034 0.2689,-0.24026 0.6554,0.085 0.4643,0.3906 -0.1117,0.17803 -0.3099,0.20801 -0.4643,0.0701 z m -6.3417,0.0236 c -0.1176,-0.0458 -0.18,-0.11672 -0.2009,-0.22827 -0.071,-0.38026 0.4456,-0.524 0.5941,-0.16522 0.095,0.2291 -0.1599,0.48419 -0.3932,0.39349 z m 1.3074,-0.12536 c -0.04,-0.0207 -0.101,-0.083 -0.1332,-0.13855 -0.051,-0.0882 -0.055,-0.11624 -0.023,-0.22164 0.1,-0.33554 0.554,-0.29102 0.6009,0.059 0.015,0.11327 0.012,0.13559 -0.09,0.23249 -0.1153,0.11553 -0.2214,0.13607 -0.3547,0.0687 z m 1.6814,-0.27747 c -0.1165,-0.11625 -0.1341,-0.23516 -0.057,-0.3834 0.093,-0.17916 0.3256,-0.20992 0.473,-0.0625 0.088,0.0881 0.101,0.12955 0.089,0.27576 -0.012,0.1122 -0.052,0.17612 -0.1515,0.22753 -0.1415,0.0731 -0.2382,0.0574 -0.353,-0.0574 z m -5.9388,-0.0119 c -0.1633,-0.14594 -0.1198,-0.39653 0.083,-0.48153 0.3067,-0.12815 0.5783,0.2457 0.3466,0.4773 -0.122,0.12211 -0.2963,0.12383 -0.4301,0.005 z m 12.212,-0.12218 c -0.089,-0.0797 -0.1034,-0.11101 -0.1034,-0.2339 0,-0.11767 0.014,-0.15429 0.086,-0.21493 0.1165,-0.10031 0.2056,-0.1166 0.3371,-0.0617 0.1255,0.0524 0.2177,0.21994 0.1876,0.34034 -0.032,0.12774 -0.1455,0.2276 -0.2788,0.24547 -0.1081,0.0145 -0.1383,0.005 -0.2278,-0.0753 z m -4.1307,-0.18585 c -0.07,-0.0695 -0.089,-0.11612 -0.089,-0.21466 0,-0.0692 0.014,-0.15215 0.031,-0.1843 0.037,-0.0687 0.1831,-0.15021 0.2697,-0.15021 0.2701,0 0.4074,0.3415 0.2186,0.54362 -0.1227,0.13124 -0.3027,0.13356 -0.4307,0.006 z m 2.9904,0.0283 c -0.101,-0.0409 -0.1627,-0.15328 -0.1627,-0.29796 0,-0.10566 0.018,-0.15013 0.089,-0.22109 0.2005,-0.20054 0.5188,-0.0473 0.5188,0.24985 0,0.065 -0.031,0.12367 -0.1034,0.19603 -0.1069,0.10638 -0.2062,0.12778 -0.3416,0.0732 z m -3.6727,-0.18107 c -0.1435,-0.0581 -0.2174,-0.25686 -0.153,-0.41121 0.1386,-0.33163 0.5946,-0.22365 0.5946,0.14079 0,0.12568 -0.1719,0.3001 -0.2931,0.2974 -0.048,-10e-4 -0.1141,-0.0132 -0.1485,-0.027 z m 2.3556,-0.19203 c -0.042,-0.0208 -0.101,-0.0888 -0.1316,-0.15128 -0.1765,-0.36049 0.3528,-0.63557 0.5431,-0.28223 0.1445,0.26828 -0.1404,0.56834 -0.4115,0.43351 z m 5.6622,-0.0657 c -0.1937,-0.0843 -0.2571,-0.32346 -0.1291,-0.48618 0.09,-0.11458 0.189,-0.1462 0.3346,-0.10697 0.1299,0.0349 0.2383,0.16974 0.2385,0.29654 3e-4,0.11756 -0.089,0.2515 -0.1984,0.2971 -0.1238,0.0517 -0.1257,0.0517 -0.2456,-4.8e-4 l 0,0 0,0 z m -14.032,-0.06 c -0.2946,-0.29447 0.1058,-0.72361 0.4166,-0.44622 0.2118,0.18918 0.071,0.51956 -0.2209,0.51956 -0.089,0 -0.1425,-0.0201 -0.1957,-0.0733 z m 1.3975,-0.0162 c -0.1711,-0.07 -0.2397,-0.28807 -0.1405,-0.44662 0.1265,-0.20196 0.427,-0.19021 0.5361,0.0209 0.1318,0.25468 -0.1287,0.53491 -0.3956,0.42568 z m 10.925,-0.0441 c -0.1728,-0.0958 -0.2048,-0.32653 -0.067,-0.48117 0.076,-0.0852 0.1082,-0.0992 0.2303,-0.0992 0.1217,0 0.1543,0.014 0.2303,0.0992 0.2435,0.27238 -0.074,0.659 -0.394,0.48117 z M 25.7255,60.687 c -0.2841,-0.15623 -0.1847,-0.57234 0.1368,-0.57234 0.3245,0 0.4216,0.42507 0.1311,0.57367 -0.083,0.0426 -0.189,0.0421 -0.2679,-0.001 l 0,0 0,0 z m 12.3319,4.7e-4 c -0.077,-0.0376 -0.1647,-0.17942 -0.1647,-0.26762 0,-0.0359 0.02,-0.10508 0.046,-0.15392 0.1207,-0.23312 0.4683,-0.19965 0.5648,0.0543 0.094,0.24752 -0.1976,0.48769 -0.4459,0.36718 l 0,0 z m -8.1209,-0.038 c -0.1652,-0.0915 -0.2035,-0.3209 -0.079,-0.4695 0.1851,-0.21994 0.5309,-0.0991 0.5309,0.18544 0,0.14942 -0.039,0.2228 -0.1513,0.28057 -0.1082,0.0559 -0.2046,0.0569 -0.3011,0.004 z m 1.6605,-0.0767 c -0.086,-0.0761 -0.1,-0.10864 -0.1,-0.23034 0,-0.12165 0.014,-0.15424 0.1,-0.23034 0.1283,-0.1147 0.2706,-0.11862 0.3986,-0.0107 0.1165,0.0976 0.1484,0.24441 0.082,0.37239 -0.1069,0.20599 -0.3134,0.24869 -0.4807,0.0991 l 0,0 z m 2.3615,0.0231 c -0.1105,-0.061 -0.1657,-0.1577 -0.1664,-0.29366 -5e-4,-0.10531 0.017,-0.14912 0.088,-0.22025 0.196,-0.19598 0.5189,-0.0618 0.5189,0.2157 0,0.10377 -0.019,0.14569 -0.1034,0.23019 -0.1094,0.10887 -0.2216,0.13165 -0.3372,0.068 z m -0.7625,-0.21993 c -0.074,-0.0739 -0.1034,-0.13059 -0.1034,-0.19946 0,-0.29626 0.3179,-0.44727 0.5187,-0.24642 0.1953,0.19522 0.065,0.54918 -0.2005,0.54918 -0.087,0 -0.1349,-0.0233 -0.2149,-0.10329 z m 3.5845,0.0431 c -0.096,-0.039 -0.1941,-0.17972 -0.1941,-0.27962 0,-0.1109 0.074,-0.25619 0.1502,-0.29729 0.087,-0.0468 0.2524,-0.0378 0.3322,0.0182 0.3012,0.21092 0.051,0.69574 -0.2883,0.55867 z m -1.6531,-0.54355 c -0.1129,-0.11327 -0.1361,-0.21229 -0.08,-0.34693 0.1263,-0.3022 0.5436,-0.23677 0.5877,0.0921 0.014,0.10329 0,0.13482 -0.082,0.23082 -0.082,0.0929 -0.1177,0.11126 -0.2184,0.11126 -0.093,0 -0.1411,-0.0204 -0.2079,-0.0873 z m -2.905,-0.0304 c -0.107,-0.0669 -0.179,-0.23688 -0.1462,-0.3451 0.012,-0.0378 0.056,-0.10638 0.099,-0.15238 0.1489,-0.15915 0.4402,-0.082 0.5091,0.13482 0.084,0.26706 -0.2255,0.51068 -0.4619,0.36266 z m -3.69,-0.11938 c -0.2086,-0.18642 -0.079,-0.5224 0.2023,-0.5224 0.1618,0 0.278,0.0877 0.3046,0.22967 0.057,0.30357 -0.2781,0.4971 -0.5069,0.29273 z m 12.6601,-0.0259 c -0.095,-0.0946 -0.1246,-0.19051 -0.096,-0.30664 0.048,-0.19097 0.2591,-0.29579 0.4435,-0.21945 0.1105,0.0459 0.1803,0.16911 0.1803,0.31901 0,0.25659 -0.3438,0.39139 -0.5281,0.20708 z m -1.7167,0.008 c -0.1728,-0.0958 -0.2048,-0.32654 -0.067,-0.48119 0.076,-0.0852 0.1082,-0.0992 0.2304,-0.0992 0.1216,0 0.1541,0.014 0.2303,0.0992 0.2433,0.2724 -0.074,0.659 -0.3941,0.48119 z m -9.2412,-0.13755 c -0.07,-0.0696 -0.089,-0.11601 -0.089,-0.215 0,-0.099 0.019,-0.14535 0.089,-0.215 0.07,-0.0697 0.1165,-0.0888 0.215,-0.0888 0.099,0 0.1454,0.0191 0.215,0.0888 0.1957,0.1957 0.062,0.5188 -0.215,0.5188 -0.099,0 -0.1454,-0.0191 -0.215,-0.0888 z m -2.9533,-0.002 c -0.2407,-0.18928 -0.1205,-0.54635 0.184,-0.54635 0.2512,0 0.3828,0.22855 0.2638,0.4585 -0.08,0.15362 -0.3075,0.19835 -0.4478,0.0878 l 0,0 z m 10.6394,-0.0276 c -0.1956,-0.1957 -0.062,-0.51879 0.215,-0.51879 0.1777,0 0.3038,0.12614 0.3038,0.30379 0,0.099 -0.019,0.14536 -0.089,0.215 -0.07,0.0697 -0.1165,0.0888 -0.215,0.0888 -0.099,0 -0.1454,-0.0191 -0.215,-0.0888 l 0,0 z m -12.138,-0.046 c -0.3532,-0.15368 -0.1798,-0.67089 0.1931,-0.57627 0.2762,0.0701 0.3108,0.4502 0.052,0.57298 -0.1177,0.056 -0.1241,0.0561 -0.2453,0.004 z m 10.8155,-0.0165 c -0.036,-0.0143 -0.095,-0.0647 -0.1321,-0.11197 -0.053,-0.068 -0.065,-0.11327 -0.053,-0.21517 0.017,-0.15234 0.062,-0.21487 0.1966,-0.27096 0.083,-0.0351 0.1141,-0.0347 0.2027,0.002 0.2641,0.1103 0.283,0.45936 0.031,0.57878 -0.1106,0.0522 -0.1512,0.0551 -0.2451,0.0171 l 0,0 0,-10e-6 z m -2.1874,-0.15191 c -0.096,-0.039 -0.194,-0.17979 -0.194,-0.28012 0,-0.28104 0.3009,-0.4288 0.5118,-0.2513 0.2698,0.22697 0.012,0.66338 -0.3178,0.53142 z m -1.1802,-0.0554 c -0.2964,-0.0641 -0.3376,-0.48519 -0.058,-0.60168 0.1322,-0.0553 0.2334,-0.0362 0.3323,0.0626 0.126,0.12601 0.1347,0.30133 0.021,0.43846 -0.06,0.0717 -0.2028,0.12056 -0.2954,0.10056 z m 7.9769,-0.53279 c -0.095,-0.0549 -0.1529,-0.16284 -0.1542,-0.28888 -7e-4,-0.0761 0.025,-0.12786 0.1022,-0.20507 0.1365,-0.13645 0.2784,-0.1414 0.4203,-0.0146 0.084,0.0756 0.1,0.10911 0.1,0.22716 0,0.10863 -0.017,0.15554 -0.078,0.21742 -0.095,0.0946 -0.2822,0.12549 -0.3887,0.0641 z m -9.995,-0.0321 c -0.1729,-0.0958 -0.2048,-0.32654 -0.067,-0.48119 0.076,-0.0852 0.1082,-0.0992 0.2303,-0.0992 0.1216,0 0.1542,0.014 0.2304,0.0992 0.2433,0.2724 -0.074,0.659 -0.3941,0.48119 z m 6.4101,-0.0304 c -0.1728,-0.0958 -0.2048,-0.32653 -0.067,-0.48118 0.076,-0.0852 0.1081,-0.0992 0.2303,-0.0992 0.1216,0 0.1542,0.014 0.2304,0.0992 0.2433,0.27239 -0.074,0.65899 -0.3942,0.48118 z m -2.1265,-0.15189 c -0.173,-0.0958 -0.2048,-0.32655 -0.067,-0.48119 0.076,-0.0852 0.1082,-0.0992 0.2304,-0.0992 0.1217,0 0.1542,0.014 0.2303,0.0992 0.2434,0.27238 -0.074,0.659 -0.394,0.48119 z m -6.228,-0.0304 c -0.1728,-0.0958 -0.2048,-0.32654 -0.066,-0.48119 0.076,-0.0852 0.1081,-0.0992 0.2303,-0.0992 0.1216,0 0.1542,0.014 0.2304,0.0992 0.2433,0.27239 -0.074,0.659 -0.3942,0.48119 z m 10.0255,-0.0607 c -0.1729,-0.0958 -0.2048,-0.32653 -0.067,-0.48118 0.076,-0.0852 0.1082,-0.0993 0.2304,-0.0993 0.1217,0 0.1542,0.014 0.2303,0.0993 0.2434,0.27238 -0.074,0.659 -0.394,0.48118 z m -11.5445,-0.21266 c -0.1728,-0.0958 -0.2047,-0.32654 -0.067,-0.48118 0.076,-0.0852 0.1082,-0.0992 0.2304,-0.0992 0.1217,0 0.1543,0.014 0.2303,0.0992 0.2435,0.27238 -0.074,0.65899 -0.3941,0.48118 z m -1.8544,-0.11459 c -0.2618,-0.17788 -0.1344,-0.57209 0.1849,-0.57209 0.2687,0 0.3993,0.3132 0.2156,0.51704 -0.1153,0.12811 -0.2631,0.14839 -0.4005,0.055 z m 6.7456,-0.0676 c -0.1728,-0.0958 -0.2048,-0.32654 -0.066,-0.48118 0.076,-0.0852 0.1081,-0.0992 0.2303,-0.0992 0.1216,0 0.1542,0.014 0.2303,0.0992 0.2434,0.27238 -0.074,0.659 -0.3941,0.48118 z m 1.5494,-0.0607 c -0.1728,-0.0958 -0.2048,-0.32653 -0.067,-0.48118 0.076,-0.0852 0.1082,-0.0992 0.2304,-0.0992 0.1216,0 0.1541,0.014 0.2303,0.0992 0.2433,0.27239 -0.074,0.659 -0.3941,0.48118 z m 2.795,-0.0912 c -0.1728,-0.0958 -0.2048,-0.32654 -0.067,-0.48117 0.076,-0.0852 0.1082,-0.0992 0.2304,-0.0992 0.1217,0 0.1543,0.014 0.2303,0.0992 0.2435,0.27238 -0.074,0.659 -0.394,0.48117 z m -6.8963,-0.15189 c -0.1728,-0.0958 -0.2048,-0.32654 -0.067,-0.48119 0.076,-0.0852 0.1082,-0.0992 0.2304,-0.0992 0.1216,0 0.1541,0.014 0.2303,0.0992 0.2433,0.27238 -0.074,0.659 -0.3941,0.48119 z m 10.9672,-0.11988 c -0.095,-0.0549 -0.1529,-0.16283 -0.1542,-0.28887 -7e-4,-0.0761 0.025,-0.12786 0.1022,-0.20508 0.1365,-0.13645 0.2784,-0.1414 0.4203,-0.0146 0.084,0.0756 0.1,0.10911 0.1,0.22715 0,0.10864 -0.017,0.15554 -0.078,0.21742 -0.095,0.0946 -0.2822,0.12549 -0.3887,0.0641 z m -2.2482,-0.0928 c -0.1728,-0.0958 -0.2048,-0.32653 -0.067,-0.48117 0.076,-0.0852 0.1081,-0.0992 0.2303,-0.0992 0.1216,0 0.1542,0.014 0.2304,0.0992 0.2433,0.27238 -0.074,0.65899 -0.3942,0.48117 z m -2.7646,-0.36455 c -0.1728,-0.0958 -0.2048,-0.32654 -0.066,-0.48119 0.076,-0.0852 0.1081,-0.0993 0.2303,-0.0993 0.1216,0 0.1543,0.014 0.2304,0.0993 0.2433,0.27238 -0.074,0.659 -0.3942,0.48119 z m -7.6861,-0.0912 c -0.1728,-0.0958 -0.2047,-0.32653 -0.067,-0.48118 0.076,-0.0852 0.1082,-0.0992 0.2304,-0.0992 0.1216,0 0.1543,0.014 0.2303,0.0992 0.2434,0.27239 -0.074,0.659 -0.3941,0.48118 z m 2.6434,-0.0983 c -0.107,-0.0745 -0.159,-0.22393 -0.1237,-0.35191 0.037,-0.13319 0.1141,-0.20415 0.2454,-0.22509 0.3248,-0.0518 0.5083,0.32039 0.2678,0.543 -0.1058,0.0977 -0.2772,0.11268 -0.3895,0.034 z m -4.6193,-0.0467 c -0.2618,-0.17789 -0.1345,-0.57209 0.1848,-0.57209 0.2689,0 0.3994,0.3132 0.2156,0.51703 -0.1153,0.12811 -0.263,0.1484 -0.4004,0.055 z m 8.392,-0.26865 c -0.1537,-0.0619 -0.2043,-0.3541 -0.084,-0.48671 0.1427,-0.1576 0.3937,-0.13656 0.5026,0.0421 0.1716,0.28133 -0.1023,0.57203 -0.4183,0.44462 z m 5.7056,-0.01 c -0.095,-0.0549 -0.1529,-0.16283 -0.1542,-0.28888 -7e-4,-0.0761 0.025,-0.12784 0.1022,-0.20506 0.1365,-0.13646 0.2784,-0.1414 0.4203,-0.0146 0.084,0.0756 0.099,0.10912 0.099,0.22717 0,0.10864 -0.017,0.15553 -0.079,0.21742 -0.095,0.0946 -0.282,0.12549 -0.3885,0.0641 z m -2.6647,-0.0929 c -0.1344,-0.13436 -0.1413,-0.27895 -0.02,-0.41374 0.1153,-0.12811 0.2631,-0.1484 0.4005,-0.055 0.1809,0.12295 0.194,0.35551 0.027,0.49531 -0.1348,0.11352 -0.2779,0.10425 -0.4085,-0.0265 z m -5.6209,-10e-4 c -0.1263,-0.055 -0.1938,-0.15786 -0.1938,-0.29559 0,-0.16525 0.101,-0.27012 0.2806,-0.29033 0.128,-0.0144 0.1508,-0.007 0.2344,0.0765 0.074,0.0733 0.093,0.11862 0.093,0.21844 0,0.16629 -0.04,0.23402 -0.1719,0.289 -0.1294,0.0541 -0.1222,0.054 -0.2419,0.002 l 0,0 0,10e-6 z m 1.2982,-0.12027 c -0.1729,-0.0958 -0.2048,-0.32652 -0.066,-0.48117 0.076,-0.0852 0.1081,-0.0992 0.2303,-0.0992 0.1217,0 0.1543,0.014 0.2304,0.0992 0.2434,0.27238 -0.074,0.659 -0.3941,0.48117 z m -4.3573,-0.0816 c -0.1153,-0.032 -0.1742,-0.0851 -0.2233,-0.20251 -0.077,-0.18418 0.067,-0.39418 0.2905,-0.42418 0.1105,-0.0148 0.1338,-0.006 0.2302,0.0907 0.077,0.0772 0.107,0.13387 0.107,0.20287 0,0.22857 -0.1966,0.39054 -0.4045,0.33314 z m 10.7675,-0.64579 c -0.095,-0.0549 -0.1529,-0.16284 -0.1543,-0.28888 -6e-4,-0.0761 0.025,-0.12784 0.1022,-0.20505 0.1366,-0.13647 0.2785,-0.14141 0.4203,-0.0146 0.084,0.0756 0.099,0.10911 0.099,0.22715 0,0.10864 -0.017,0.15554 -0.079,0.21742 -0.095,0.0946 -0.282,0.12549 -0.3885,0.0641 z m -3.0487,-0.0676 c -0.2887,-0.1567 -0.176,-0.59042 0.1536,-0.59042 0.1864,0 0.3096,0.12342 0.3087,0.30905 0,0.26 -0.2372,0.40351 -0.4623,0.28137 z m -6.3322,-0.32947 c -0.1188,-0.0535 -0.1619,-0.12979 -0.1619,-0.287 0,-0.3245 0.4536,-0.42934 0.5924,-0.13692 0.1336,0.2815 -0.1426,0.55347 -0.4305,0.42392 z m 5.1969,-0.19817 c -0.1702,-0.0725 -0.2386,-0.28368 -0.1483,-0.45833 0.1581,-0.30578 0.6447,-0.1225 0.5808,0.21874 -0.036,0.19073 -0.2582,0.3139 -0.4325,0.23959 z m -3.7858,-0.32115 c -0.3135,-0.17641 -0.074,-0.69059 0.2628,-0.56274 0.1996,0.0758 0.2691,0.34203 0.1314,0.50229 -0.086,0.0994 -0.2737,0.12822 -0.3942,0.0604 z m 2.6228,-0.0271 c -0.2029,-0.11244 -0.2066,-0.44489 -0.012,-0.54855 0.1382,-0.0714 0.2619,-0.0591 0.368,0.0365 0.2792,0.2517 -0.033,0.69408 -0.3618,0.51203 z m 4.6178,10e-4 c -0.095,-0.0549 -0.1528,-0.16282 -0.1542,-0.28888 -7e-4,-0.0761 0.025,-0.12784 0.1022,-0.20505 0.1365,-0.13647 0.2785,-0.14141 0.4203,-0.0146 0.084,0.0756 0.1,0.10911 0.1,0.22715 0,0.10864 -0.017,0.15554 -0.079,0.21742 -0.095,0.0946 -0.282,0.12549 -0.3887,0.0641 z m -6.1987,-0.0555 c -0.2619,-0.17789 -0.1345,-0.57209 0.1848,-0.57209 0.2687,0 0.3994,0.31319 0.2156,0.51703 -0.1153,0.12811 -0.263,0.1484 -0.4004,0.055 z m 5.4393,-0.6736 c -0.095,-0.0549 -0.1529,-0.16284 -0.1543,-0.28888 -6e-4,-0.0761 0.025,-0.12786 0.1022,-0.20507 0.1365,-0.13645 0.2785,-0.1414 0.4203,-0.0146 0.084,0.0756 0.099,0.10911 0.099,0.22716 0,0.10863 -0.017,0.15554 -0.078,0.21742 -0.095,0.0946 -0.2821,0.12549 -0.3886,0.0641 z m -1.006,-0.70997 c -0.063,-0.0325 -0.1287,-0.1002 -0.1618,-0.1681 -0.073,-0.14697 -0.03,-0.29375 0.1176,-0.40589 0.086,-0.0649 0.1227,-0.075 0.2178,-0.0586 0.3186,0.0553 0.424,0.41743 0.1748,0.60147 -0.1105,0.0818 -0.2287,0.0924 -0.3485,0.031 z m -1.096,-0.55328 c -0.1909,-0.1909 -0.061,-0.52709 0.2042,-0.52709 0.1623,0 0.2758,0.0793 0.3187,0.22272 0.067,0.22045 -0.076,0.39317 -0.3239,0.39317 -0.081,0 -0.1335,-0.0233 -0.199,-0.0888 z m -5.7981,-0.22014 c -0.2619,-0.17789 -0.1344,-0.57209 0.1848,-0.57209 0.2688,0 0.3994,0.3132 0.2156,0.51703 -0.1153,0.12811 -0.263,0.1484 -0.4004,0.055 z m 4.6214,-0.19218 c -0.2967,-0.24964 0.025,-0.70866 0.3591,-0.5116 0.182,0.10745 0.2041,0.32837 0.049,0.4841 -0.1301,0.13024 -0.2737,0.13993 -0.4073,0.0275 z m -3.4704,0.0136 c -0.093,-0.0358 -0.181,-0.17502 -0.181,-0.28576 0,-0.33201 0.4371,-0.44577 0.5938,-0.15458 0.1408,0.26129 -0.1295,0.54963 -0.4128,0.44034 z m 1.0593,-0.17208 c -0.2617,-0.16239 -0.1414,-0.58638 0.1662,-0.58586 0.099,1.9e-4 0.2616,0.11007 0.2956,0.19936 0.053,0.14024 0.034,0.22738 -0.074,0.33522 -0.1177,0.11791 -0.2521,0.13561 -0.3881,0.0512 z m 1.0025,-0.006 c -0.1195,-0.0942 -0.1608,-0.24357 -0.1046,-0.37762 0.048,-0.11268 0.1794,-0.20217 0.2986,-0.20198 0.1176,1.9e-4 0.2624,0.10935 0.2915,0.21899 0.057,0.21237 -0.058,0.38623 -0.2714,0.41 -0.1034,0.0119 -0.1502,9.4e-4 -0.2139,-0.0493 z"
style="fill:#000000;fill-opacity:1;stroke:#000000;stroke-width:0.46851614;stroke-opacity:1"
id="path2852-1"
/>
<path
d="m 53.2944,72.03843 c -0.9346,-0.67362 -1.6995,-1.27764 -1.6995,-1.34236 0,-0.12441 3.7496,-2.33557 3.8278,-2.25727 0.081,0.081 -0.2586,4.82436 -0.3453,4.82436 -0.046,0 -0.8483,-0.55115 -1.783,-1.22473 z m 1.6946,-1.24623 c 0.039,-0.88877 0.051,-1.63682 0.026,-1.66229 -0.056,-0.0554 -0.5789,0.30598 -1.6196,1.11825 l -0.7653,0.5971 1.0095,0.77387 c 0.5552,0.42568 1.0699,0.77729 1.1437,0.78148 0.088,0.005 0.1591,-0.55178 0.2061,-1.60841 z m -27.0752,-1.71261 c -0.094,-0.21832 -1.2491,-2.69953 -2.5668,-5.51379 -1.3175,-2.81425 -2.3944,-5.17783 -2.393,-5.25233 0,-0.0745 0.6139,-0.60273 1.3612,-1.17379 0.7473,-0.57105 1.4194,-1.09592 1.4937,-1.16632 0.074,-0.0705 0.8026,-0.63116 1.6184,-1.24604 l 1.4834,-1.11793 1.0818,-2.56832 1.0817,-2.56838 1.9156,-0.002 c 1.7174,-0.002 1.9221,-0.0248 1.9788,-0.21652 0.034,-0.11756 0.1795,-0.84589 0.3215,-1.61846 0.142,-0.77259 0.2849,-1.51549 0.3175,-1.65087 0.057,-0.23861 0.1387,-0.24508 2.6488,-0.2103 1.4243,0.0197 2.7682,0.0643 2.9866,0.099 l 0.397,0.0631 0,1.57436 0,1.57437 1.8779,0.98518 c 1.0329,0.54187 1.9123,0.98522 1.9544,0.98522 0.042,0 0.076,-1.72799 0.076,-3.83997 l 0,-3.83996 0.4581,0.0684 c 0.2519,0.0376 0.548,0.15784 0.658,0.26717 0.1464,0.14551 6.439,8.16036 10.1438,12.92026 0.1525,0.19584 0.019,0.94727 -1.2074,6.8133 l -1.0709,5.1214 -1.8881,0.91535 c -1.2803,0.62063 -1.9047,0.86604 -1.9393,0.76228 -0.029,-0.0842 -0.3223,-0.55871 -0.6539,-1.05452 -2.6197,-3.91682 -8.1406,-5.16809 -13.9301,-3.15712 -2.2006,0.7644 -4.7068,2.13177 -6.9964,3.81735 -0.4688,0.34518 -0.8941,0.62756 -0.945,0.62756 -0.051,0 -0.1696,-0.17863 -0.2636,-0.39699 z m 2.3664,-1.70433 c 3.9618,-2.37751 7.3567,-3.79858 10.1383,-4.24363 1.8711,-0.29935 4.0789,-0.0981 5.5814,0.50882 1.488,0.601 3.0992,1.95524 4.2576,3.57853 0.3107,0.43553 0.629,0.79185 0.7075,0.79185 0.078,0 0.8542,-0.20877 1.7243,-0.46394 l 1.5819,-0.46387 0.5877,-3.84181 c 0.323,-2.11296 0.6893,-4.61136 0.8138,-5.55188 l 0.2262,-1.71006 -0.3913,-0.54966 c -1.161,-1.63101 -8.9004,-12.03662 -8.9734,-12.06486 -0.076,-0.0295 -0.2469,2.20757 -0.4622,6.05529 -0.061,1.08561 -0.098,1.2485 -0.2663,1.18701 -0.1082,-0.0392 -1.198,-0.49547 -2.4229,-1.01394 l -2.2269,-0.94269 0,-1.55018 c 0,-0.85261 -0.044,-1.57434 -0.094,-1.60386 -0.05,-0.0296 -1.1959,-0.0931 -2.5453,-0.14122 l -2.4537,-0.0875 -0.1519,1.99654 c -0.083,1.09809 -0.1666,2.01115 -0.1846,2.02906 -0.018,0.0179 -0.9764,-0.033 -2.1302,-0.11327 -1.2891,-0.0896 -2.1363,-0.1021 -2.1981,-0.0323 -0.055,0.0624 -0.525,1.26961 -1.0439,2.68264 l -0.9434,2.56914 -0.9995,0.7488 c -0.5497,0.41185 -1.7141,1.2806 -2.5874,1.93054 -0.8734,0.64993 -1.6041,1.22553 -1.624,1.27918 -0.02,0.0536 0.8797,2.38695 1.9991,5.18521 1.9982,4.99534 2.0401,5.08474 2.2958,4.9181 0.1434,-0.0933 0.9477,-0.58205 1.7875,-1.08601 z"
id="path3160-5"
style="fill:#000000;fill-opacity:1;stroke:#000000;stroke-width:1.16999996;stroke-opacity:1"
/>
<path
id="path5016"
style="fill:#000000;fill-opacity:1"
d="m 23.8645,74.33684 -1.4854,0 q -1.7726,0 -2.8817,-1.61393 -1.0991,-1.59779 -1.0991,-4.63198 l 0,-2.40476 q 0,-2.72754 -0.822,-4.26077 -0.8219,-1.54937 -2.5152,-1.54937 l -0.5051,0 0,-2.51774 0.5051,0 q 1.6933,0 2.5152,-1.53323 0.822,-1.54937 0.822,-4.27691 l 0,-2.40476 q 0,-3.03419 1.0991,-4.63198 1.1091,-1.61393 2.8817,-1.61393 l 1.4854,0 0,2.22722 -1.1289,0 q -1.3468,0 -1.9607,1.01678 -0.6041,1.01678 -0.6041,3.27628 l 0,2.82438 q 0,2.24336 -0.7625,3.77659 -0.7625,1.5171 -2.1191,2.40476 l 0,0.38734 q 1.3566,0.88766 2.1191,2.4209 0.7625,1.51709 0.7625,3.76046 l 0,2.82437 q 0,2.25951 0.6041,3.27628 0.6139,1.01678 1.9607,1.01678 l 1.1289,0 0,2.22722 z"
/>
<path
id="path5013"
style="fill:#000000;fill-opacity:1"
d="m 57.236,74.59424 1.4854,0 q 1.7726,0 2.8817,-1.61393 1.0991,-1.59779 1.0991,-4.63198 l 0,-2.40476 q 0,-2.72754 0.822,-4.26077 0.8219,-1.54937 2.5152,-1.54937 l 0.5051,0 0,-2.51774 -0.5051,0 q -1.6933,0 -2.5152,-1.53323 -0.822,-1.54937 -0.822,-4.27691 l 0,-2.40476 q 0,-3.03419 -1.0991,-4.63198 -1.1091,-1.61393 -2.8817,-1.61393 l -1.4854,0 0,2.22722 1.1289,0 q 1.3468,0 1.9607,1.01678 0.6041,1.01678 0.6041,3.27628 l 0,2.82438 q 0,2.24336 0.7625,3.77659 0.7625,1.5171 2.1191,2.40476 l 0,0.38734 q -1.3566,0.88766 -2.1191,2.4209 -0.7625,1.51709 -0.7625,3.76046 l 0,2.82437 q 0,2.25951 -0.6041,3.27628 -0.6139,1.01678 -1.9607,1.01678 l -1.1289,0 0,2.22722 z"
/>
<path
d="m 87.6845,56.30589 c -0.059,-9.29692 -6.1456,-15.03654 -13.7354,-16.94187 -1.7352,-11.09287 -10.0256,-19.508 -20.0209,-19.508 -7.022,0 -13.2132,4.15351 -16.8739,10.47104 -1.0616,-0.59335 -2.2347,-0.95188 -3.4921,-0.95188 -4.4996,0 -8.1462,4.26128 -8.1462,9.51917 l 0,0.0793 -1.3634,-0.0793 c -8.2465,0 -14.9348,7.81534 -14.9348,17.45175 0,0.59031 0.027,1.16436 0.076,1.73874 -4.6376,0.73636 -8.222,5.33414 -8.222,10.9536 0,6.13658 4.2551,11.10576 9.5041,11.10576 l 59.4393,0 c 4.9007,0 10.8336,-4.05702 12.5297,-6.09561"
id="path4549-4"
style="fill:none;fill-opacity:1;stroke:#000000;stroke-width:1.94359004;stroke-opacity:1"
/>
<path
d="m 79.7174,70.91421 -3.194,0 -0.8287,-2.42169 -4.4412,0 -0.8286,2.42169 -3.1136,0 4.425,-11.97975 3.5561,0 4.425,11.97975 z m -4.771,-4.61812 -1.4723,-4.2963 -1.4723,4.2963 2.9446,0 z"
id="path5006"
style="fill:#000000;fill-opacity:1"
/>
<path
style="fill:#000000;fill-opacity:1"
id="path5008"
d="m 91.3432,62.71584 q 0,0.80455 -0.2816,1.57693 -0.2816,0.76431 -0.8046,1.28727 -0.716,0.708 -1.601,1.07006 -0.877,0.36204 -2.1884,0.36204 l -1.9229,0 0,3.90207 -3.0895,0 0,-11.97975 5.0848,0 q 1.1425,0 1.9229,0.20114 0.7884,0.19309 1.3918,0.58732 0.7241,0.47468 1.1023,1.21487 0.3862,0.74018 0.3862,1.77805 z m -3.1941,0.0724 q 0,-0.50687 -0.2735,-0.86892 -0.2736,-0.3701 -0.6356,-0.51492 -0.4828,-0.19309 -0.9414,-0.20918 -0.4586,-0.0241 -1.2229,-0.0241 l -0.531,0 0,3.58829 0.885,0 q 0.7885,0 1.2954,-0.0966 0.5149,-0.0966 0.8608,-0.38619 0.2977,-0.25745 0.4264,-0.61146 0.1368,-0.36204 0.1368,-0.87695 z"
/>
<path
id="path5010"
style="fill:#000000;fill-opacity:1"
d="m 100.0001,70.91421 -7.0157,0 0,-2.12401 1.9632,0 0,-7.73172 -1.9632,0 0,-2.12402 7.0157,0 0,2.12402 -1.9631,0 0,7.73172 1.9631,0 0,2.12401 z"
/>
</svg>
