<?xml version="1.0" encoding="UTF-8" standalone="no"?>
<svg
xmlns:inkscape="http://www.inkscape.org/namespaces/inkscape"
xmlns:sodipodi="http://sodipodi.sourceforge.net/DTD/sodipodi-0.dtd"
xmlns="http://www.w3.org/2000/svg"
xmlns:rdf="http://www.w3.org/1999/02/22-rdf-syntax-ns#"
xmlns:dc="http://purl.org/dc/elements/1.1/"
xmlns:cc="http://creativecommons.org/ns#"
xmlns:svg="http://www.w3.org/2000/svg"
>
<path
id="path4665"
style="font-style:normal;font-variant:normal;font-weight:bold;font-stretch:normal;font-size:27.89095688px;line-height:100%;font-family:'Courier New';-inkscape-font-specification:'Courier New Bold';letter-spacing:0px;word-spacing:0px;fill:#ffcc00;fill-opacity:1;stroke:none;stroke-width:1px;stroke-opacity:1"
d="m 4.41499999999996,12.25447 0,4.05342 0.8736,0 q 0.8736,0 1.2396,0.45562 0.3776,0.4399 0.3776,1.16261 0,0.70699 -0.3776,1.16261 -0.366,0.4399 -1.2396,0.4399 l -3.6714,0 q -0.8735,0 -1.2513,-0.4399 Q 0,18.63311 0,17.9104 q 0,-0.70699 0.3777,-1.14689 0.3777,-0.45562 1.2395,-0.45562 l 0.3778,0 0,-12.60015 -0.3778,0 q -0.8735,0 -1.2513,-0.43992 -0.3659,-0.45561 -0.3659,-1.17831 0,-0.7227 0.3659,-1.16261 0.3778,-0.45561 1.2513,-0.45561 l 5.4775,0.0157 q 2.5617,0 3.9665,1.69677 1.4166,1.68107 1.4166,4.10055 0,1.50825 -0.6611,2.74941 -0.661,1.22546 -1.995,2.18382 0.7674,0.89552 1.6409,2.29379 0.543,0.89552 1.4639,2.79655 0.9207,0 1.2159,0.25138 0.5311,0.48703 0.5311,1.36684 0,0.707 -0.3659,1.16261 -0.3659,0.43991 -1.2395,0.43991 l -1.3812,0 q -2.9394,-6.04871 -4.8755,-7.27416 l -2.3964,0 z m 0,-3.22074 1.8888,0 q 1.0507,0 1.877,-0.42419 1.1097,-0.56559 1.4874,-1.19403 0.3896,-0.62843 0.3896,-1.24116 0,-0.91124 -0.7319,-1.68107 -0.7319,-0.78554 -2.1367,-0.78554 l -2.7742,0 0,5.32599 z"
/>
<path
id="path4667"
style="font-style:normal;font-variant:normal;font-weight:bold;font-stretch:normal;font-size:27.89095688px;line-height:100%;font-family:'Courier New';-inkscape-font-specification:'Courier New Bold';letter-spacing:0px;word-spacing:0px;fill:#ffcc00;fill-opacity:1;stroke:none;stroke-width:1px;stroke-opacity:1"
d="m 18.9232999999999,11.5789 0,4.72899 6.1741,0 0,-1.74391 q 0,-1.16261 0.3305,-1.64965 0.3423,-0.50275 0.8854,-0.50275 0.5312,0 0.8617,0.50275 0.3424,0.48704 0.3424,1.64965 l 0,4.96465 -11.3918,0 q -0.8736,0 -1.2514,-0.4399 -0.366,-0.45562 -0.366,-1.17833 0,-0.70699 0.3778,-1.14689 0.3778,-0.45562 1.2396,-0.45562 l 0.3777,0 0,-12.60015 -0.3777,0 q -0.8736,0 -1.2514,-0.43992 -0.366,-0.45561 -0.366,-1.17831 0,-0.7227 0.366,-1.16261 0.3778,-0.45561 1.2514,-0.45561 l 10.8605,0.0157 0,4.9018 q 0,1.1469 -0.3305,1.64965 -0.3305,0.48703 -0.8736,0.48703 -0.543,0 -0.8854,-0.48703 -0.3305,-0.48704 -0.3305,-1.64965 l 0,-1.68107 -5.6428,0 0,4.65043 2.125,0 q 0,-1.25687 0.177,-1.61822 0.3659,-0.76984 1.0389,-0.76984 0.5312,0 0.8617,0.50276 0.3424,0.48703 0.3424,1.64964 l 0,3.70778 q 0,1.05263 -0.1889,1.41398 -0.3778,0.73841 -1.0152,0.73841 -0.673,0 -1.0389,-0.76983 -0.177,-0.36135 -0.177,-1.63394 l -2.125,0 z"
/>
<path
d="m 35.8988999999999,14.83107 3.5061,-11.12333 -0.5548,0 q -0.8736,0 -1.2514,-0.43992 -0.3659,-0.45561 -0.3659,-1.17831 0,-0.7227 0.3659,-1.16261 0.3778,-0.45561 1.2514,-0.45561 l 3.2463,0.0157 q 0.8736,0 1.2395,0.4399 0.3778,0.4399 0.3778,1.16261 0,0.86409 -0.5667,1.36685 -0.2715,0.25137 -1.1096,0.25137 l -4.9699,15.8209 -2.3256,0 -4.958,-15.8209 q -0.85,0 -1.1215,-0.25137 -0.5667,-0.48704 -0.5667,-1.36685 0,-0.72271 0.3778,-1.16261 0.366,-0.45562 1.2395,-0.45562 l 3.27,0.0157 q 0.8618,0 1.2277,0.43991 0.3777,0.4399 0.3777,1.16261 0,0.72269 -0.3659,1.17831 -0.3659,0.43991 -1.2395,0.43991 l -0.5667,0 3.4825,11.12333 z"
style="font-style:normal;font-variant:normal;font-weight:bold;font-stretch:normal;font-size:27.89095688px;line-height:100%;font-family:'Courier New';-inkscape-font-specification:'Courier New Bold';letter-spacing:0px;word-spacing:0px;fill:#ffcc00;fill-opacity:1;stroke:none;stroke-width:1px;stroke-opacity:1"
id="path4669"
/>
<path
d="m 47.9164000000001,11.5789 0,4.72899 6.174,0 0,-1.74391 q 0,-1.16261 0.3305,-1.64965 0.3424,-0.50275 0.8854,-0.50275 0.5312,0 0.8618,0.50275 0.3423,0.48704 0.3423,1.64965 l 0,4.96465 -11.3918,0 q -0.8736,0 -1.2513,-0.4399 -0.366,-0.45562 -0.366,-1.17833 0,-0.70699 0.3778,-1.14689 0.3777,-0.45562 1.2395,-0.45562 l 0.3778,0 0,-12.60015 -0.3778,0 q -0.8736,0 -1.2513,-0.43992 -0.366,-0.45561 -0.366,-1.17831 0,-0.7227 0.366,-1.16261 0.3777,-0.45561 1.2513,-0.45561 l 10.8606,0.0157 0,4.9018 q 0,1.1469 -0.3305,1.64965 -0.3306,0.48703 -0.8736,0.48703 -0.5431,0 -0.8854,-0.48703 -0.3305,-0.48704 -0.3305,-1.64965 l 0,-1.68107 -5.6428,0 0,4.65043 2.1249,0 q 0,-1.25687 0.177,-1.61822 0.366,-0.76984 1.0389,-0.76984 0.5312,0 0.8617,0.50276 0.3424,0.48703 0.3424,1.64964 l 0,3.70778 q 0,1.05263 -0.1889,1.41398 -0.3777,0.73841 -1.0152,0.73841 -0.6729,0 -1.0389,-0.76983 -0.177,-0.36135 -0.177,-1.63394 l -2.1249,0 z"
id="path4671"
style="font-style:normal;font-variant:normal;font-weight:bold;font-stretch:normal;font-size:27.89095688px;line-height:100%;font-family:'Courier New';-inkscape-font-specification:'Courier New Bold';letter-spacing:0px;word-spacing:0px;fill:#ffcc00;fill-opacity:1;stroke:none;stroke-width:1px;stroke-opacity:1"
/>
<path
d="m 62.4011,12.25447 0,4.05342 0.8736,0 q 0.8735,0 1.2395,0.45562 0.3778,0.4399 0.3778,1.16261 0,0.70699 -0.3778,1.16261 -0.366,0.4399 -1.2395,0.4399 l -3.6714,0 q -0.8736,0 -1.2514,-0.4399 -0.3658,-0.45562 -0.3658,-1.17833 0,-0.70699 0.3777,-1.14689 0.3778,-0.45562 1.2395,-0.45562 l 0.3778,0 0,-12.60015 -0.3778,0 q -0.8736,0 -1.2514,-0.43992 -0.3658,-0.45561 -0.3658,-1.17831 0,-0.7227 0.3658,-1.16261 0.3778,-0.45561 1.2514,-0.45561 l 5.4776,0.0157 q 2.5616,0 3.9664,1.69677 1.4166,1.68107 1.4166,4.10055 0,1.50825 -0.6611,2.74941 -0.661,1.22546 -1.995,2.18382 0.7673,0.89552 1.6409,2.29379 0.543,0.89552 1.4638,2.79655 0.9208,0 1.2159,0.25138 0.5312,0.48703 0.5312,1.36684 0,0.707 -0.366,1.16261 -0.3659,0.43991 -1.2394,0.43991 l -1.3812,0 q -2.9395,-6.04871 -4.8755,-7.27416 l -2.3964,0 z m 0,-3.22074 1.8888,0 q 1.0507,0 1.877,-0.42419 1.1096,-0.56559 1.4874,-1.19403 0.3895,-0.62843 0.3895,-1.24116 0,-0.91124 -0.7318,-1.68107 -0.732,-0.78554 -2.1367,-0.78554 l -2.7742,0 0,5.32599 z"
style="font-style:normal;font-variant:normal;font-weight:bold;font-stretch:normal;font-size:27.89095688px;line-height:100%;font-family:'Courier New';-inkscape-font-specification:'Courier New Bold';letter-spacing:0px;word-spacing:0px;fill:#ffcc00;fill-opacity:1;stroke:none;stroke-width:1px;stroke-opacity:1"
id="path4673"
/>
<path
style="font-style:normal;font-variant:normal;font-weight:bold;font-stretch:normal;font-size:27.89095688px;line-height:100%;font-family:'Courier New';-inkscape-font-specification:'Courier New Bold';letter-spacing:0px;word-spacing:0px;fill:#ffcc00;fill-opacity:1;stroke:none;stroke-width:1px;stroke-opacity:1"
id="path4676"
d="m 75.8588,18.7116600000001 q -0.3187,0.50276 -0.5194,0.64414 -0.1889,0.14141 -0.4723,0.14141 -0.5548,0 -0.8971,-0.48705 -0.3305,-0.50274 -0.3305,-1.64963 l 0,-2.16811 q 0,-1.16261 0.3305,-1.64965 0.3423,-0.50275 0.8971,-0.50275 0.4251,0 0.7083,0.29851 0.2952,0.2985 0.4486,1.0055 0.1535,0.69128 0.3187,0.94265 0.3424,0.48704 1.216,0.98979 0.8735,0.50275 1.9124,0.50275 1.6173,0 2.6561,-1.0055 0.6611,-0.61273 0.6611,-1.50825 0,-0.59701 -0.3187,-1.11548 -0.3188,-0.53417 -1.0388,-0.87981 -0.4723,-0.23566 -2.1132,-0.64414 -1.9832,-0.48704 -2.9984,-1.17832 -1.0153,-0.69128 -1.6055,-1.94816 -0.5903,-1.25687 -0.5903,-2.71798 0,-2.30951 1.452,-4.03771 1.4521,-1.74391 3.7777,-1.74391 0.9326,0 1.7235,0.28279 0.8027,0.26709 1.452,0.83268 0.4721,-0.61272 0.9444,-0.61272 0.5312,0 0.8617,0.50274 0.3424,0.48704 0.3424,1.63394 l 0,2.41948 q 0,1.16261 -0.3424,1.66536 -0.3305,0.48704 -0.8617,0.48704 -0.4486,0 -0.7791,-0.36136 -0.2598,-0.26707 -0.3896,-1.06833 -0.1299,-0.80126 -0.3306,-1.1469 -0.3423,-0.59701 -1.027,-1.0055 -0.6847,-0.40848 -1.5819,-0.40848 -1.3103,0 -2.0776,0.81697 -0.7556,0.80125 -0.7556,1.68106 0,0.59702 0.307,1.16261 0.3187,0.54988 0.9208,0.86409 0.4013,0.21997 2.2547,0.707 1.8652,0.48704 2.8568,1.06834 1.0034,0.58131 1.6646,1.82247 0.661,1.24116 0.661,2.95365 0,2.38807 -1.2631,3.81775 -1.6763,1.88532 -4.2734,1.88532 -1.0034,0 -1.9596,-0.32993 -0.9444,-0.31423 -1.8416,-0.95837 z"
/>
<path
id="path4678"
style="font-style:normal;font-variant:normal;font-weight:bold;font-stretch:normal;font-size:27.89095688px;line-height:100%;font-family:'Courier New';-inkscape-font-specification:'Courier New Bold';letter-spacing:0px;word-spacing:0px;fill:#ffcc00;fill-opacity:1;stroke:none;stroke-width:1px;stroke-opacity:1"
d="m 91.4059,11.5789 0,4.72899 6.1741,0 0,-1.74391 q 0,-1.16261 0.3305,-1.64965 0.3423,-0.50275 0.8854,-0.50275 0.5312,0 0.8617,0.50275 0.3424,0.48704 0.3424,1.64965 l 0,4.96465 -11.3918,0 q -0.8736,0 -1.2514,-0.4399 -0.366,-0.45562 -0.366,-1.17833 0,-0.70699 0.3778,-1.14689 0.3778,-0.45562 1.2396,-0.45562 l 0.3777,0 0,-12.60015 -0.3777,0 q -0.8736,0 -1.2514,-0.43992 -0.366,-0.45561 -0.366,-1.17831 0,-0.7227 0.366,-1.16261 0.3778,-0.45561 1.2514,-0.45561 l 10.8605,0.0157 0,4.9018 q 0,1.1469 -0.3305,1.64965 -0.3305,0.48703 -0.8736,0.48703 -0.543,0 -0.8854,-0.48703 -0.3305,-0.48704 -0.3305,-1.64965 l 0,-1.68107 -5.6428,0 0,4.65043 2.125,0 q 0,-1.25687 0.177,-1.61822 0.3659,-0.76984 1.0389,-0.76984 0.5312,0 0.8617,0.50276 0.3424,0.48703 0.3424,1.64964 l 0,3.70778 q 0,1.05263 -0.1889,1.41398 -0.3778,0.73841 -1.0152,0.73841 -0.673,0 -1.0389,-0.76983 -0.177,-0.36135 -0.177,-1.63394 l -2.125,0 z"
/>
<path
d="m 95.5849000000001,39.75454 0,4.05342 -0.8736,0 q -0.8735,0 -1.2395,0.45561 -0.3777,0.43991 -0.3777,1.16261 0,0.70699 0.3777,1.1626 0.366,0.43992 1.2395,0.43992 l 3.6714,0 q 0.8735,0 1.2513,-0.43992 0.366,-0.45561 0.366,-1.17831 0,-0.70699 -0.3778,-1.1469 -0.3777,-0.45561 -1.2395,-0.45561 l -0.3778,0 0,-12.60017 0.3778,0 q 0.8735,0 1.2513,-0.4399 0.366,-0.45562 0.366,-1.17831 0,-0.72271 -0.366,-1.16261 -0.3778,-0.45562 -1.2513,-0.45562 l -5.4775,0.0157 q -2.5617,0 -3.9665,1.69678 -1.4166,1.68106 -1.4166,4.10055 0,1.50825 0.6611,2.74941 0.6611,1.22544 1.995,2.18381 -0.7673,0.89552 -1.6409,2.2938 -0.543,0.89552 -1.4638,2.79655 -0.9208,0 -1.2159,0.25137 -0.5312,0.48703 -0.5312,1.36685 0,0.70698 0.3659,1.1626 0.366,0.43991 1.2396,0.43991 l 1.3811,0 q 2.9395,-6.04871 4.8755,-7.27416 l 2.3964,0 z m 0,-3.22074 -1.8888,0 q -1.0506,0 -1.877,-0.42419 -1.1097,-0.56559 -1.4874,-1.19404 -0.3896,-0.62843 -0.3896,-1.24116 0,-0.91123 0.732,-1.68106 0.7318,-0.78556 2.1366,-0.78556 l 2.7742,0 0,5.32601 z"
style="font-style:normal;font-variant:normal;font-weight:bold;font-stretch:normal;font-size:27.89095688px;line-height:100%;font-family:'Courier New';-inkscape-font-specification:'Courier New Bold';letter-spacing:0px;word-spacing:0px;fill:#008750;fill-opacity:0.99607843;stroke:none;stroke-width:1px;stroke-opacity:1"
id="path4649"
/>
<path
d="m 81.0766000000001,39.07897 0,4.72899 -6.174,0 0,-1.74392 q 0,-1.16261 -0.3305,-1.64965 -0.3424,-0.50274 -0.8854,-0.50274 -0.5313,0 -0.8618,0.50274 -0.3423,0.48704 -0.3423,1.64965 l 0,4.96466 11.3917,0 q 0.8736,0 1.2514,-0.43992 0.366,-0.45561 0.366,-1.17831 0,-0.70699 -0.3778,-1.1469 -0.3778,-0.45561 -1.2396,-0.45561 l -0.3777,0 0,-12.60017 0.3777,0 q 0.8736,0 1.2514,-0.4399 0.366,-0.45562 0.366,-1.17831 0,-0.72271 -0.366,-1.16261 -0.3778,-0.45562 -1.2514,-0.45562 l -10.8605,0.0157 0,4.90181 q 0,1.14689 0.3305,1.64963 0.3305,0.48705 0.8736,0.48705 0.5431,0 0.8854,-0.48705 0.3305,-0.48703 0.3305,-1.64963 l 0,-1.68108 5.6428,0 0,4.65044 -2.1249,0 q 0,-1.25688 -0.1771,-1.61823 -0.3659,-0.76983 -1.0388,-0.76983 -0.5313,0 -0.8618,0.50274 -0.3423,0.48704 -0.3423,1.64965 l 0,3.70778 q 0,1.05264 0.1888,1.41398 0.3778,0.73842 1.0153,0.73842 0.6729,0 1.0388,-0.76984 0.1771,-0.36135 0.1771,-1.63393 l 2.1249,0 z"
style="font-style:normal;font-variant:normal;font-weight:bold;font-stretch:normal;font-size:27.89095688px;line-height:100%;font-family:'Courier New';-inkscape-font-specification:'Courier New Bold';letter-spacing:0px;word-spacing:0px;fill:#008750;fill-opacity:0.99607843;stroke:none;stroke-width:1px;stroke-opacity:1"
id="path4651"
/>
<path
d="m 64.1010000000001,42.33113 -3.5061,-11.12334 0.5549,0 q 0.8736,0 1.2514,-0.4399 0.3658,-0.45562 0.3658,-1.17831 0,-0.72271 -0.3658,-1.16261 -0.3778,-0.45562 -1.2514,-0.45562 l -3.2463,0.0157 q -0.8736,0 -1.2396,0.43991 -0.3778,0.4399 -0.3778,1.16261 0,0.86409 0.5667,1.36684 0.2715,0.25137 1.1096,0.25137 l 4.9699,15.8209 2.3256,0 4.9581,-15.8209 q 0.8499,0 1.1215,-0.25137 0.5666,-0.48704 0.5666,-1.36684 0,-0.72271 -0.3777,-1.16261 -0.366,-0.45562 -1.2396,-0.45562 l -3.27,0.0157 q -0.8617,0 -1.2277,0.4399 -0.3777,0.43991 -0.3777,1.16261 0,0.7227 0.366,1.17831 0.3659,0.43991 1.2394,0.43991 l 0.5667,0 -3.4825,11.12334 z"
id="path4653"
style="font-style:normal;font-variant:normal;font-weight:bold;font-stretch:normal;font-size:27.89095688px;line-height:100%;font-family:'Courier New';-inkscape-font-specification:'Courier New Bold';letter-spacing:0px;word-spacing:0px;fill:#008750;fill-opacity:0.99607843;stroke:none;stroke-width:1px;stroke-opacity:1"
/>
<path
d="m 52.0835999999999,39.07897 0,4.72899 -6.1741,0 0,-1.74392 q 0,-1.16261 -0.3305,-1.64965 -0.3423,-0.50274 -0.8854,-0.50274 -0.5312,0 -0.8618,0.50274 -0.3423,0.48704 -0.3423,1.64965 l 0,4.96466 11.3918,0 q 0.8736,0 1.2514,-0.43992 0.3659,-0.45561 0.3659,-1.17831 0,-0.70699 -0.3778,-1.1469 -0.3777,-0.45561 -1.2395,-0.45561 l -0.3777,0 0,-12.60017 0.3777,0 q 0.8736,0 1.2514,-0.4399 0.3659,-0.45562 0.3659,-1.17831 0,-0.72271 -0.3659,-1.16261 -0.3778,-0.45562 -1.2514,-0.45562 l -10.8606,0.0157 0,4.90181 q 0,1.14689 0.3306,1.64963 0.3305,0.48705 0.8735,0.48705 0.5431,0 0.8854,-0.48705 0.3306,-0.48703 0.3306,-1.64963 l 0,-1.68108 5.6428,0 0,4.65044 -2.125,0 q 0,-1.25688 -0.177,-1.61823 -0.3659,-0.76983 -1.0389,-0.76983 -0.5311,0 -0.8617,0.50274 -0.3424,0.48704 -0.3424,1.64965 l 0,3.70778 q 0,1.05264 0.1889,1.41398 0.3778,0.73842 1.0152,0.73842 0.673,0 1.0389,-0.76984 0.177,-0.36135 0.177,-1.63393 l 2.125,0 z"
id="path4655"
style="font-style:normal;font-variant:normal;font-weight:bold;font-stretch:normal;font-size:27.89095688px;line-height:100%;font-family:'Courier New';-inkscape-font-specification:'Courier New Bold';letter-spacing:0px;word-spacing:0px;fill:#008750;fill-opacity:0.99607843;stroke:none;stroke-width:1px;stroke-opacity:1"
/>
<path
d="m 37.5988,39.75454 0,4.05342 -0.8736,0 q -0.8735,0 -1.2394,0.45561 -0.3778,0.43991 -0.3778,1.16261 0,0.70699 0.3778,1.1626 0.3659,0.43992 1.2394,0.43992 l 3.6714,0 q 0.8736,0 1.2514,-0.43992 0.3659,-0.45561 0.3659,-1.17831 0,-0.70699 -0.3777,-1.1469 -0.3778,-0.45561 -1.2396,-0.45561 l -0.3778,0 0,-12.60017 0.3778,0 q 0.8736,0 1.2514,-0.4399 0.3659,-0.45562 0.3659,-1.17831 0,-0.72271 -0.3659,-1.16261 -0.3778,-0.45562 -1.2514,-0.45562 l -5.4775,0.0157 q -2.5617,0 -3.9665,1.69678 -1.4165,1.68106 -1.4165,4.10055 0,1.50825 0.661,2.74941 0.6611,1.22544 1.9951,2.18381 -0.7673,0.89552 -1.6409,2.2938 -0.5431,0.89552 -1.4638,2.79655 -0.9209,0 -1.2159,0.25137 -0.5313,0.48703 -0.5313,1.36685 0,0.70698 0.366,1.1626 0.3659,0.43991 1.2395,0.43991 l 1.3811,0 q 2.9395,-6.04871 4.8755,-7.27416 l 2.3964,0 z m 0,-3.22074 -1.8888,0 q -1.0506,0 -1.8769,-0.42419 -1.1097,-0.56559 -1.4875,-1.19404 -0.3895,-0.62843 -0.3895,-1.24116 0,-0.91123 0.7319,-1.68106 0.7319,-0.78556 2.1366,-0.78556 l 2.7742,0 0,5.32601 z"
style="font-style:normal;font-variant:normal;font-weight:bold;font-stretch:normal;font-size:27.89095688px;line-height:100%;font-family:'Courier New';-inkscape-font-specification:'Courier New Bold';letter-spacing:0px;word-spacing:0px;fill:#008750;fill-opacity:0.99607843;stroke:none;stroke-width:1px;stroke-opacity:1"
id="path4657"
/>
<path
d="m 24.1412,46.21173 q 0.3187,0.50274 0.5194,0.64414 0.1889,0.1414 0.4722,0.1414 0.5548,0 0.8971,-0.48704 0.3306,-0.50274 0.3306,-1.64964 l 0,-2.16812 q 0,-1.16259 -0.3306,-1.64963 -0.3423,-0.50276 -0.8971,-0.50276 -0.425,0 -0.7083,0.29852 -0.2952,0.2985 -0.4486,1.00549 -0.1534,0.69128 -0.3187,0.94266 -0.3424,0.48703 -1.2159,0.98978 -0.8736,0.50276 -1.9124,0.50276 -1.6174,0 -2.6562,-1.00551 -0.6611,-0.61272 -0.6611,-1.50824 0,-0.59702 0.3187,-1.11548 0.3188,-0.53417 1.0389,-0.87981 0.4722,-0.23566 2.1131,-0.64414 1.9832,-0.48704 2.9984,-1.17832 1.0153,-0.69129 1.6056,-1.94816 0.5902,-1.25687 0.5902,-2.718 0,-2.30949 -1.452,-4.03769 -1.4521,-1.74392 -3.7776,-1.74392 -0.9326,0 -1.7236,0.28279 -0.8026,0.26709 -1.452,0.83269 -0.4721,-0.61273 -0.9443,-0.61273 -0.5313,0 -0.8618,0.50275 -0.3423,0.48704 -0.3423,1.63394 l 0,2.41948 q 0,1.16261 0.3423,1.66535 0.3305,0.48704 0.8618,0.48704 0.4486,0 0.7791,-0.36135 0.2597,-0.26709 0.3895,-1.06835 0.1299,-0.80125 0.3306,-1.14689 0.3424,-0.59701 1.027,-1.0055 0.6847,-0.40848 1.5819,-0.40848 1.3103,0 2.0776,0.81697 0.7556,0.80126 0.7556,1.68107 0,0.59701 -0.307,1.16261 -0.3187,0.54988 -0.9207,0.86409 -0.4014,0.21995 -2.2548,0.70699 -1.8651,0.48705 -2.8568,1.06835 -1.0034,0.5813 -1.6645,1.82247 -0.6611,1.24116 -0.6611,2.95364 0,2.38806 1.2631,3.81776 1.6764,1.88532 4.2735,1.88532 1.0034,0 1.9596,-0.32994 0.9444,-0.31422 1.8416,-0.95836 z"
id="path4660"
style="font-style:normal;font-variant:normal;font-weight:bold;font-stretch:normal;font-size:27.89095688px;line-height:100%;font-family:'Courier New';-inkscape-font-specification:'Courier New Bold';letter-spacing:0px;word-spacing:0px;fill:#008750;fill-opacity:0.99607843;stroke:none;stroke-width:1px;stroke-opacity:1"
/>
<path
d="m 8.59400000000005,39.07897 0,4.72899 -6.174,0 0,-1.74392 q 0,-1.16261 -0.3305,-1.64965 -0.3424,-0.50274 -0.8854,-0.50274 -0.5313,0 -0.8618,0.50274 -0.3423,0.48704 -0.3423,1.64965 l 0,4.96466 11.3917,0 q 0.8736,0 1.2514,-0.43992 0.366,-0.45561 0.366,-1.17831 0,-0.70699 -0.3778,-1.1469 -0.3778,-0.45561 -1.2396,-0.45561 l -0.3776,0 0,-12.60017 0.3776,0 q 0.8736,0 1.2514,-0.4399 0.366,-0.45562 0.366,-1.17831 0,-0.72271 -0.366,-1.16261 -0.3778,-0.45562 -1.2514,-0.45562 l -10.8605,0.0157 0,4.90181 q 0,1.14689 0.3305,1.64963 0.3305,0.48705 0.8736,0.48705 0.5431,0 0.8854,-0.48705 0.3305,-0.48703 0.3305,-1.64963 l 0,-1.68108 5.6428,0 0,4.65044 -2.1249,0 q 0,-1.25688 -0.1771,-1.61823 -0.3659,-0.76983 -1.0388,-0.76983 -0.5313,0 -0.8618,0.50274 -0.3423,0.48704 -0.3423,1.64965 l 0,3.70778 q 0,1.05264 0.1889,1.41398 0.3778,0.73842 1.0152,0.73842 0.6729,0 1.0388,-0.76984 0.1771,-0.36135 0.1771,-1.63393 l 2.1249,0 z"
style="font-style:normal;font-variant:normal;font-weight:bold;font-stretch:normal;font-size:27.89095688px;line-height:100%;font-family:'Courier New';-inkscape-font-specification:'Courier New Bold';letter-spacing:0px;word-spacing:0px;fill:#008750;fill-opacity:0.99607843;stroke:none;stroke-width:1px;stroke-opacity:1"
id="path4662"
/>
<path
id="path4634"
style="font-style:normal;font-variant:normal;font-weight:bold;font-stretch:normal;font-size:27.89095688px;line-height:100%;font-family:'Courier New';-inkscape-font-specification:'Courier New Bold';letter-spacing:0px;word-spacing:0px;fill:#ff5a00;fill-opacity:1;stroke:none;stroke-width:1px;stroke-opacity:1"
d="m 4.41499999999996,64.75454 0,4.05342 0.8736,0 q 0.8736,0 1.2396,0.45562 0.3776,0.4399 0.3776,1.16261 0,0.70699 -0.3776,1.16261 -0.366,0.4399 -1.2396,0.4399 l -3.6714,0 q -0.8735,0 -1.2513,-0.4399 -0.3659,-0.45562 -0.3659,-1.17833 0,-0.70699 0.3777,-1.14689 0.3777,-0.45562 1.2395,-0.45562 l 0.3778,0 0,-12.60015 -0.3778,0 q -0.8735,0 -1.2513,-0.43991 -0.3659,-0.45561 -0.3659,-1.17832 0,-0.7227 0.3659,-1.16261 0.3778,-0.45561 1.2513,-0.45561 l 5.4775,0.0157 q 2.5617,0 3.9665,1.69677 1.4166,1.68108 1.4166,4.10055 0,1.50825 -0.6611,2.74942 -0.661,1.22545 -1.995,2.18381 0.7674,0.89553 1.6409,2.2938 0.543,0.89552 1.4639,2.79654 0.9207,0 1.2159,0.25138 0.5311,0.48704 0.5311,1.36684 0,0.707 -0.3659,1.16261 -0.3659,0.43991 -1.2395,0.43991 l -1.3812,0 q -2.9394,-6.0487 -4.8755,-7.27416 l -2.3964,0 z m 0,-3.22073 1.8888,0 q 1.0507,0 1.877,-0.4242 1.1097,-0.56559 1.4874,-1.19402 0.3896,-0.62844 0.3896,-1.24117 0,-0.91124 -0.7319,-1.68107 -0.7319,-0.78554 -2.1367,-0.78554 l -2.7742,0 0,5.326 z"
/>
<path
id="path4636"
style="font-style:normal;font-variant:normal;font-weight:bold;font-stretch:normal;font-size:27.89095688px;line-height:100%;font-family:'Courier New';-inkscape-font-specification:'Courier New Bold';letter-spacing:0px;word-spacing:0px;fill:#ff5a00;fill-opacity:1;stroke:none;stroke-width:1px;stroke-opacity:1"
d="m 18.9232999999999,64.07897 0,4.72899 6.1741,0 0,-1.74391 q 0,-1.16261 0.3305,-1.64964 0.3423,-0.50276 0.8854,-0.50276 0.5312,0 0.8617,0.50276 0.3424,0.48703 0.3424,1.64964 l 0,4.96465 -11.3918,0 q -0.8736,0 -1.2514,-0.4399 -0.366,-0.45562 -0.366,-1.17833 0,-0.70699 0.3778,-1.14689 0.3778,-0.45562 1.2396,-0.45562 l 0.3777,0 0,-12.60015 -0.3777,0 q -0.8736,0 -1.2514,-0.43991 -0.366,-0.45561 -0.366,-1.17832 0,-0.7227 0.366,-1.16261 0.3778,-0.45561 1.2514,-0.45561 l 10.8605,0.0157 0,4.9018 q 0,1.1469 -0.3305,1.64965 -0.3305,0.48704 -0.8736,0.48704 -0.543,0 -0.8854,-0.48704 -0.3305,-0.48704 -0.3305,-1.64965 l 0,-1.68107 -5.6428,0 0,4.65043 2.125,0 q 0,-1.25687 0.177,-1.61821 0.3659,-0.76985 1.0389,-0.76985 0.5312,0 0.8617,0.50276 0.3424,0.48704 0.3424,1.64964 l 0,3.70778 q 0,1.05263 -0.1889,1.41398 -0.3778,0.73841 -1.0152,0.73841 -0.673,0 -1.0389,-0.76983 -0.177,-0.36136 -0.177,-1.63394 l -2.125,0 z"
/>
<path
d="m 35.8988999999999,67.33114 3.5061,-11.12333 -0.5548,0 q -0.8736,0 -1.2514,-0.43991 -0.3659,-0.45561 -0.3659,-1.17832 0,-0.7227 0.3659,-1.16261 0.3778,-0.45561 1.2514,-0.45561 l 3.2463,0.0157 q 0.8736,0 1.2395,0.4399 0.3778,0.4399 0.3778,1.16261 0,0.86409 -0.5667,1.36685 -0.2715,0.25137 -1.1096,0.25137 l -4.9699,15.8209 -2.3256,0 -4.958,-15.8209 q -0.85,0 -1.1215,-0.25137 -0.5667,-0.48704 -0.5667,-1.36685 0,-0.72271 0.3778,-1.16261 0.366,-0.45562 1.2395,-0.45562 l 3.27,0.0157 q 0.8618,0 1.2277,0.43991 0.3777,0.4399 0.3777,1.16261 0,0.7227 -0.3659,1.17832 -0.3659,0.4399 -1.2395,0.4399 l -0.5667,0 3.4825,11.12333 z"
id="path4638"
style="font-style:normal;font-variant:normal;font-weight:bold;font-stretch:normal;font-size:27.89095688px;line-height:100%;font-family:'Courier New';-inkscape-font-specification:'Courier New Bold';letter-spacing:0px;word-spacing:0px;fill:#ff5a00;fill-opacity:1;stroke:none;stroke-width:1px;stroke-opacity:1"
/>
<path
d="m 47.9164000000001,64.07897 0,4.72899 6.174,0 0,-1.74391 q 0,-1.16261 0.3305,-1.64964 0.3424,-0.50276 0.8854,-0.50276 0.5312,0 0.8618,0.50276 0.3423,0.48703 0.3423,1.64964 l 0,4.96465 -11.3918,0 q -0.8736,0 -1.2513,-0.4399 -0.366,-0.45562 -0.366,-1.17833 0,-0.70699 0.3778,-1.14689 0.3777,-0.45562 1.2395,-0.45562 l 0.3778,0 0,-12.60015 -0.3778,0 q -0.8736,0 -1.2513,-0.43991 -0.366,-0.45561 -0.366,-1.17832 0,-0.7227 0.366,-1.16261 0.3777,-0.45561 1.2513,-0.45561 l 10.8606,0.0157 0,4.9018 q 0,1.1469 -0.3305,1.64965 -0.3306,0.48704 -0.8736,0.48704 -0.5431,0 -0.8854,-0.48704 -0.3305,-0.48704 -0.3305,-1.64965 l 0,-1.68107 -5.6428,0 0,4.65043 2.1249,0 q 0,-1.25687 0.177,-1.61821 0.366,-0.76985 1.0389,-0.76985 0.5312,0 0.8617,0.50276 0.3424,0.48704 0.3424,1.64964 l 0,3.70778 q 0,1.05263 -0.1889,1.41398 -0.3777,0.73841 -1.0152,0.73841 -0.6729,0 -1.0389,-0.76983 -0.177,-0.36136 -0.177,-1.63394 l -2.1249,0 z"
style="font-style:normal;font-variant:normal;font-weight:bold;font-stretch:normal;font-size:27.89095688px;line-height:100%;font-family:'Courier New';-inkscape-font-specification:'Courier New Bold';letter-spacing:0px;word-spacing:0px;fill:#ff5a00;fill-opacity:1;stroke:none;stroke-width:1px;stroke-opacity:1"
id="path4640"
/>
<path
style="font-style:normal;font-variant:normal;font-weight:bold;font-stretch:normal;font-size:27.89095688px;line-height:100%;font-family:'Courier New';-inkscape-font-specification:'Courier New Bold';letter-spacing:0px;word-spacing:0px;fill:#ff5a00;fill-opacity:1;stroke:none;stroke-width:1px;stroke-opacity:1"
id="path4642"
d="m 62.4011,64.75454 0,4.05342 0.8736,0 q 0.8735,0 1.2395,0.45562 0.3778,0.4399 0.3778,1.16261 0,0.70699 -0.3778,1.16261 -0.366,0.4399 -1.2395,0.4399 l -3.6714,0 q -0.8736,0 -1.2514,-0.4399 -0.3658,-0.45562 -0.3658,-1.17833 0,-0.70699 0.3777,-1.14689 0.3778,-0.45562 1.2395,-0.45562 l 0.3778,0 0,-12.60015 -0.3778,0 q -0.8736,0 -1.2514,-0.43991 -0.3658,-0.45561 -0.3658,-1.17832 0,-0.7227 0.3658,-1.16261 0.3778,-0.45561 1.2514,-0.45561 l 5.4776,0.0157 q 2.5616,0 3.9664,1.69677 1.4166,1.68108 1.4166,4.10055 0,1.50825 -0.6611,2.74942 -0.661,1.22545 -1.995,2.18381 0.7673,0.89553 1.6409,2.2938 0.543,0.89552 1.4638,2.79654 0.9208,0 1.2159,0.25138 0.5312,0.48704 0.5312,1.36684 0,0.707 -0.366,1.16261 -0.3659,0.43991 -1.2394,0.43991 l -1.3812,0 q -2.9395,-6.0487 -4.8755,-7.27416 l -2.3964,0 z m 0,-3.22073 1.8888,0 q 1.0507,0 1.877,-0.4242 1.1096,-0.56559 1.4874,-1.19402 0.3895,-0.62844 0.3895,-1.24117 0,-0.91124 -0.7318,-1.68107 -0.732,-0.78554 -2.1367,-0.78554 l -2.7742,0 0,5.326 z"
/>
<path
style="font-style:normal;font-variant:normal;font-weight:bold;font-stretch:normal;font-size:27.89095688px;line-height:100%;font-family:'Courier New';-inkscape-font-specification:'Courier New Bold';letter-spacing:0px;word-spacing:0px;fill:#ff5a00;fill-opacity:1;stroke:none;stroke-width:1px;stroke-opacity:1"
id="path4644"
d="m 75.8588,71.21173 q -0.3187,0.50276 -0.5194,0.64416 -0.1889,0.14139 -0.4723,0.14139 -0.5548,0 -0.8971,-0.48703 -0.3305,-0.50276 -0.3305,-1.64966 l 0,-2.1681 q 0,-1.16261 0.3305,-1.64965 0.3423,-0.50274 0.8971,-0.50274 0.4251,0 0.7083,0.2985 0.2952,0.2985 0.4486,1.0055 0.1535,0.69128 0.3187,0.94265 0.3424,0.48704 1.216,0.98979 0.8735,0.50275 1.9124,0.50275 1.6173,0 2.6561,-1.0055 0.6611,-0.61273 0.6611,-1.50825 0,-0.59701 -0.3187,-1.11547 -0.3188,-0.53418 -1.0388,-0.87982 -0.4723,-0.23566 -2.1132,-0.64414 -1.9832,-0.48704 -2.9984,-1.17832 -1.0153,-0.69128 -1.6055,-1.94816 -0.5903,-1.25687 -0.5903,-2.71798 0,-2.30951 1.452,-4.03771 1.4521,-1.74391 3.7777,-1.74391 0.9326,0 1.7235,0.2828 0.8027,0.26708 1.452,0.83268 0.4721,-0.61273 0.9444,-0.61273 0.5312,0 0.8617,0.50274 0.3424,0.48704 0.3424,1.63394 l 0,2.41948 q 0,1.16261 -0.3424,1.66537 -0.3305,0.48703 -0.8617,0.48703 -0.4486,0 -0.7791,-0.36134 -0.2598,-0.26709 -0.3896,-1.06835 -0.1299,-0.80126 -0.3306,-1.1469 -0.3423,-0.59701 -1.027,-1.00549 -0.6847,-0.40849 -1.5819,-0.40849 -1.3103,0 -2.0776,0.81697 -0.7556,0.80125 -0.7556,1.68106 0,0.59702 0.307,1.16261 0.3187,0.54988 0.9208,0.86411 0.4013,0.21995 2.2547,0.70699 1.8652,0.48703 2.8568,1.06833 1.0034,0.58131 1.6646,1.82247 0.661,1.24117 0.661,2.95366 0,2.38806 -1.2631,3.81774 -1.6763,1.88532 -4.2734,1.88532 -1.0034,0 -1.9596,-0.32993 -0.9444,-0.31421 -1.8416,-0.95837 z"
/>
<path
d="m 91.4059,64.07897 0,4.72899 6.1741,0 0,-1.74391 q 0,-1.16261 0.3305,-1.64964 0.3423,-0.50276 0.8854,-0.50276 0.5312,0 0.8617,0.50276 0.3424,0.48703 0.3424,1.64964 l 0,4.96465 -11.3918,0 q -0.8736,0 -1.2514,-0.4399 -0.366,-0.45562 -0.366,-1.17833 0,-0.70699 0.3778,-1.14689 0.3778,-0.45562 1.2396,-0.45562 l 0.3777,0 0,-12.60015 -0.3777,0 q -0.8736,0 -1.2514,-0.43991 -0.366,-0.45561 -0.366,-1.17832 0,-0.7227 0.366,-1.16261 0.3778,-0.45561 1.2514,-0.45561 l 10.8605,0.0157 0,4.9018 q 0,1.1469 -0.3305,1.64965 -0.3305,0.48704 -0.8736,0.48704 -0.543,0 -0.8854,-0.48704 -0.3305,-0.48704 -0.3305,-1.64965 l 0,-1.68107 -5.6428,0 0,4.65043 2.125,0 q 0,-1.25687 0.177,-1.61821 0.3659,-0.76985 1.0389,-0.76985 0.5312,0 0.8617,0.50276 0.3424,0.48704 0.3424,1.64964 l 0,3.70778 q 0,1.05263 -0.1889,1.41398 -0.3778,0.73841 -1.0152,0.73841 -0.673,0 -1.0389,-0.76983 -0.177,-0.36136 -0.177,-1.63394 l -2.125,0 z"
style="font-style:normal;font-variant:normal;font-weight:bold;font-stretch:normal;font-size:27.89095688px;line-height:100%;font-family:'Courier New';-inkscape-font-specification:'Courier New Bold';letter-spacing:0px;word-spacing:0px;fill:#ff5a00;fill-opacity:1;stroke:none;stroke-width:1px;stroke-opacity:1"
id="path4646"
/>
<path
d="m 95.5849000000001,92.25454 0,4.05342 -0.8736,0 q -0.8735,0 -1.2395,0.45562 -0.3777,0.4399 -0.3777,1.1626 0,0.707 0.3777,1.16261 0.366,0.43991 1.2395,0.43991 l 3.6714,0 q 0.8735,0 1.2513,-0.43991 0.366,-0.45561 0.366,-1.17832 0,-0.70699 -0.3778,-1.14689 -0.3777,-0.45562 -1.2395,-0.45562 l -0.3778,0 0,-12.60016 0.3778,0 q 0.8735,0 1.2513,-0.4399 0.366,-0.45563 0.366,-1.17832 0,-0.72271 -0.366,-1.16261 -0.3778,-0.45562 -1.2513,-0.45562 l -5.4775,0.0157 q -2.5617,0 -3.9665,1.69678 -1.4166,1.68106 -1.4166,4.10055 0,1.50825 0.6611,2.74941 0.6611,1.22546 1.995,2.18381 -0.7673,0.89552 -1.6409,2.2938 -0.543,0.89552 -1.4638,2.79655 -0.9208,0 -1.2159,0.25137 -0.5312,0.48703 -0.5312,1.36685 0,0.70699 0.3659,1.16261 0.366,0.4399 1.2396,0.4399 l 1.3811,0 q 2.9395,-6.0487 4.8755,-7.27415 l 2.3964,0 z m 0,-3.22074 -1.8888,0 q -1.0506,0 -1.877,-0.42419 -1.1097,-0.56559 -1.4874,-1.19404 -0.3896,-0.62843 -0.3896,-1.24116 0,-0.91123 0.732,-1.68106 0.7318,-0.78555 2.1366,-0.78555 l 2.7742,0 0,5.326 z"
style="font-style:normal;font-variant:normal;font-weight:bold;font-stretch:normal;font-size:27.89095688px;line-height:100%;font-family:'Courier New';-inkscape-font-specification:'Courier New Bold';letter-spacing:0px;word-spacing:0px;fill:#0a6b9e;fill-opacity:1;stroke:none;stroke-width:1px;stroke-opacity:1"
id="path4617"
/>
<path
d="m 81.0766000000001,91.57897 0,4.72899 -6.174,0 0,-1.74392 q 0,-1.1626 -0.3305,-1.64965 -0.3424,-0.50274 -0.8854,-0.50274 -0.5313,0 -0.8618,0.50274 -0.3423,0.48705 -0.3423,1.64965 l 0,4.96466 11.3917,0 q 0.8736,0 1.2514,-0.43991 0.366,-0.45561 0.366,-1.17832 0,-0.70699 -0.3778,-1.14689 -0.3778,-0.45562 -1.2396,-0.45562 l -0.3777,0 0,-12.60016 0.3777,0 q 0.8736,0 1.2514,-0.4399 0.366,-0.45563 0.366,-1.17832 0,-0.72271 -0.366,-1.16261 -0.3778,-0.45562 -1.2514,-0.45562 l -10.8605,0.0157 0,4.90181 q 0,1.14689 0.3305,1.64965 0.3305,0.48703 0.8736,0.48703 0.5431,0 0.8854,-0.48703 0.3305,-0.48704 0.3305,-1.64965 l 0,-1.68107 5.6428,0 0,4.65043 -2.1249,0 q 0,-1.25687 -0.1771,-1.61823 -0.3659,-0.76983 -1.0388,-0.76983 -0.5313,0 -0.8618,0.50275 -0.3423,0.48703 -0.3423,1.64964 l 0,3.70778 q 0,1.05264 0.1888,1.41399 0.3778,0.73841 1.0153,0.73841 0.6729,0 1.0388,-0.76983 0.1771,-0.36136 0.1771,-1.63394 l 2.1249,0 z"
id="path4619"
style="font-style:normal;font-variant:normal;font-weight:bold;font-stretch:normal;font-size:27.89095688px;line-height:100%;font-family:'Courier New';-inkscape-font-specification:'Courier New Bold';letter-spacing:0px;word-spacing:0px;fill:#0a6b9e;fill-opacity:1;stroke:none;stroke-width:1px;stroke-opacity:1"
/>
<path
d="m 64.1010000000001,94.83113 -3.5061,-11.12333 0.5549,0 q 0.8736,0 1.2514,-0.4399 0.3658,-0.45563 0.3658,-1.17832 0,-0.72271 -0.3658,-1.16261 -0.3778,-0.45562 -1.2514,-0.45562 l -3.2463,0.0157 q -0.8736,0 -1.2396,0.43991 -0.3778,0.4399 -0.3778,1.16261 0,0.86409 0.5667,1.36684 0.2715,0.25138 1.1096,0.25138 l 4.9699,15.82089 2.3256,0 4.9581,-15.82089 q 0.8499,0 1.1215,-0.25138 0.5666,-0.48704 0.5666,-1.36684 0,-0.72271 -0.3777,-1.16261 -0.366,-0.45562 -1.2396,-0.45562 l -3.27,0.0157 q -0.8617,0 -1.2277,0.4399 -0.3777,0.43991 -0.3777,1.16261 0,0.7227 0.366,1.17832 0.3659,0.43991 1.2394,0.43991 l 0.5667,0 -3.4825,11.12333 z"
style="font-style:normal;font-variant:normal;font-weight:bold;font-stretch:normal;font-size:27.89095688px;line-height:100%;font-family:'Courier New';-inkscape-font-specification:'Courier New Bold';letter-spacing:0px;word-spacing:0px;fill:#0a6b9e;fill-opacity:1;stroke:none;stroke-width:1px;stroke-opacity:1"
id="path4621"
/>
<path
style="font-style:normal;font-variant:normal;font-weight:bold;font-stretch:normal;font-size:27.89095688px;line-height:100%;font-family:'Courier New';-inkscape-font-specification:'Courier New Bold';letter-spacing:0px;word-spacing:0px;fill:#0a6b9e;fill-opacity:1;stroke:none;stroke-width:1px;stroke-opacity:1"
id="path4623"
d="m 52.0835999999999,91.57897 0,4.72899 -6.1741,0 0,-1.74392 q 0,-1.1626 -0.3305,-1.64965 -0.3423,-0.50274 -0.8854,-0.50274 -0.5312,0 -0.8618,0.50274 -0.3423,0.48705 -0.3423,1.64965 l 0,4.96466 11.3918,0 q 0.8736,0 1.2514,-0.43991 0.3659,-0.45561 0.3659,-1.17832 0,-0.70699 -0.3778,-1.14689 -0.3777,-0.45562 -1.2395,-0.45562 l -0.3777,0 0,-12.60016 0.3777,0 q 0.8736,0 1.2514,-0.4399 0.3659,-0.45563 0.3659,-1.17832 0,-0.72271 -0.3659,-1.16261 -0.3778,-0.45562 -1.2514,-0.45562 l -10.8606,0.0157 0,4.90181 q 0,1.14689 0.3306,1.64965 0.3305,0.48703 0.8735,0.48703 0.5431,0 0.8854,-0.48703 0.3306,-0.48704 0.3306,-1.64965 l 0,-1.68107 5.6428,0 0,4.65043 -2.125,0 q 0,-1.25687 -0.177,-1.61823 -0.3659,-0.76983 -1.0389,-0.76983 -0.5311,0 -0.8617,0.50275 -0.3424,0.48703 -0.3424,1.64964 l 0,3.70778 q 0,1.05264 0.1889,1.41399 0.3778,0.73841 1.0152,0.73841 0.673,0 1.0389,-0.76983 0.177,-0.36136 0.177,-1.63394 l 2.125,0 z"
/>
<path
d="m 37.5988,92.25454 0,4.05342 -0.8736,0 q -0.8735,0 -1.2394,0.45562 -0.3778,0.4399 -0.3778,1.1626 0,0.707 0.3778,1.16261 0.3659,0.43991 1.2394,0.43991 l 3.6714,0 q 0.8736,0 1.2514,-0.43991 0.3659,-0.45561 0.3659,-1.17832 0,-0.70699 -0.3777,-1.14689 -0.3778,-0.45562 -1.2396,-0.45562 l -0.3778,0 0,-12.60016 0.3778,0 q 0.8736,0 1.2514,-0.4399 0.3659,-0.45563 0.3659,-1.17832 0,-0.72271 -0.3659,-1.16261 -0.3778,-0.45562 -1.2514,-0.45562 l -5.4775,0.0157 q -2.5617,0 -3.9665,1.69678 -1.4165,1.68106 -1.4165,4.10055 0,1.50825 0.661,2.74941 0.6611,1.22546 1.9951,2.18381 -0.7673,0.89552 -1.6409,2.2938 -0.5431,0.89552 -1.4638,2.79655 -0.9209,0 -1.2159,0.25137 -0.5313,0.48703 -0.5313,1.36685 0,0.70699 0.366,1.16261 0.3659,0.4399 1.2395,0.4399 l 1.3811,0 q 2.9395,-6.0487 4.8755,-7.27415 l 2.3964,0 z m 0,-3.22074 -1.8888,0 q -1.0506,0 -1.8769,-0.42419 -1.1097,-0.56559 -1.4875,-1.19404 -0.3895,-0.62843 -0.3895,-1.24116 0,-0.91123 0.7319,-1.68106 0.7319,-0.78555 2.1366,-0.78555 l 2.7742,0 0,5.326 z"
style="font-style:normal;font-variant:normal;font-weight:bold;font-stretch:normal;font-size:27.89095688px;line-height:100%;font-family:'Courier New';-inkscape-font-specification:'Courier New Bold';letter-spacing:0px;word-spacing:0px;fill:#0a6b9e;fill-opacity:1;stroke:none;stroke-width:1px;stroke-opacity:1"
id="path4625"
/>
<path
d="m 24.1412,98.71173 q 0.3187,0.50275 0.5194,0.64414 0.1889,0.1414 0.4722,0.1414 0.5548,0 0.8971,-0.48704 0.3306,-0.50274 0.3306,-1.64964 l 0,-2.1681 q 0,-1.16261 -0.3306,-1.64965 -0.3423,-0.50276 -0.8971,-0.50276 -0.425,0 -0.7083,0.29852 -0.2952,0.2985 -0.4486,1.00549 -0.1534,0.69128 -0.3187,0.94266 -0.3424,0.48704 -1.2159,0.98978 -0.8736,0.50276 -1.9124,0.50276 -1.6174,0 -2.6562,-1.0055 -0.6611,-0.61273 -0.6611,-1.50825 0,-0.59702 0.3187,-1.11548 0.3188,-0.53417 1.0389,-0.87981 0.4722,-0.23566 2.1131,-0.64414 1.9832,-0.48704 2.9984,-1.17832 1.0153,-0.69129 1.6056,-1.94816 0.5902,-1.25687 0.5902,-2.71798 0,-2.30951 -1.452,-4.03771 -1.4521,-1.74392 -3.7776,-1.74392 -0.9326,0 -1.7236,0.28281 -0.8026,0.26707 -1.452,0.83267 -0.4721,-0.61272 -0.9443,-0.61272 -0.5313,0 -0.8618,0.50274 -0.3423,0.48704 -0.3423,1.63394 l 0,2.41948 q 0,1.16261 0.3423,1.66535 0.3305,0.48704 0.8618,0.48704 0.4486,0 0.7791,-0.36135 0.2597,-0.26708 0.3895,-1.06833 0.1299,-0.80126 0.3306,-1.1469 0.3424,-0.59702 1.027,-1.00551 0.6847,-0.40848 1.5819,-0.40848 1.3103,0 2.0776,0.81697 0.7556,0.80126 0.7556,1.68107 0,0.59701 -0.307,1.16261 -0.3187,0.54988 -0.9207,0.86409 -0.4014,0.21996 -2.2548,0.70699 -1.8651,0.48705 -2.8568,1.06835 -1.0034,0.58131 -1.6645,1.82247 -0.6611,1.24116 -0.6611,2.95365 0,2.38806 1.2631,3.81775 1.6764,1.88529 4.2735,1.88529 1.0034,0 1.9596,-0.3299 0.9444,-0.31423 1.8416,-0.95837 z"
id="path4629"
style="font-style:normal;font-variant:normal;font-weight:bold;font-stretch:normal;font-size:27.89095688px;line-height:100%;font-family:'Courier New';-inkscape-font-specification:'Courier New Bold';letter-spacing:0px;word-spacing:0px;fill:#0a6b9e;fill-opacity:1;stroke:none;stroke-width:1px;stroke-opacity:1"
/>
<path
style="font-style:normal;font-variant:normal;font-weight:bold;font-stretch:normal;font-size:27.89095688px;line-height:100%;font-family:'Courier New';-inkscape-font-specification:'Courier New Bold';letter-spacing:0px;word-spacing:0px;fill:#0a6b9e;fill-opacity:1;stroke:none;stroke-width:1px;stroke-opacity:1"
id="path4631"
d="m 8.59400000000005,91.57897 0,4.72899 -6.174,0 0,-1.74392 q 0,-1.1626 -0.3305,-1.64965 -0.3424,-0.50274 -0.8854,-0.50274 -0.5313,0 -0.8618,0.50274 -0.3423,0.48705 -0.3423,1.64965 l 0,4.96466 11.3917,0 q 0.8736,0 1.2514,-0.43991 0.366,-0.45561 0.366,-1.17832 0,-0.70699 -0.3778,-1.14689 -0.3778,-0.45562 -1.2396,-0.45562 l -0.3776,0 0,-12.60016 0.3776,0 q 0.8736,0 1.2514,-0.4399 0.366,-0.45563 0.366,-1.17832 0,-0.72271 -0.366,-1.16261 -0.3778,-0.45562 -1.2514,-0.45562 l -10.8605,0.0157 0,4.90181 q 0,1.14689 0.3305,1.64965 0.3305,0.48703 0.8736,0.48703 0.5431,0 0.8854,-0.48703 0.3305,-0.48704 0.3305,-1.64965 l 0,-1.68107 5.6428,0 0,4.65043 -2.1249,0 q 0,-1.25687 -0.1771,-1.61823 -0.3659,-0.76983 -1.0388,-0.76983 -0.5313,0 -0.8618,0.50275 -0.3423,0.48703 -0.3423,1.64964 l 0,3.70778 q 0,1.05264 0.1889,1.41399 0.3778,0.73841 1.0152,0.73841 0.6729,0 1.0388,-0.76983 0.1771,-0.36136 0.1771,-1.63394 l 2.1249,0 z"
/>
</svg>
