<?xml version="1.0" encoding="UTF-8" standalone="no"?>
<svg
xmlns:dc="http://purl.org/dc/elements/1.1/"
xmlns="http://www.w3.org/2000/svg"
xmlns:rdf="http://www.w3.org/1999/02/22-rdf-syntax-ns#"
xmlns:svg="http://www.w3.org/2000/svg"
xmlns:cc="http://creativecommons.org/ns#"
xmlns:inkscape="http://www.inkscape.org/namespaces/inkscape"
xmlns:sodipodi="http://sodipodi.sourceforge.net/DTD/sodipodi-0.dtd"
>
<path
style="fill:#606060"
id="path3986"
d="m 96.4203,34.6176400000001 c -2.0523,0 -3.5681,1.66454 -3.5681,3.71319 l 0,3.72484 0,33.47688 0,8.28775 c 0,4.88883 -3.7897,9.05599 -8.6755,9.05599 l -66.4528,0 c -4.8858,0 -10.5761,-4.15551 -10.5761,-9.05599 l 0,-66.55803 c 0,-4.90048 5.6903,-10.11523 10.5761,-10.11523 l 4.5592,0 22.2831,0 11.1358,0 c 2.0522,0 3.7196,-1.51321 3.7196,-3.57351 0,-2.06029 -1.6557,-3.57351 -3.7196,-3.57351 l -11.1358,0 -22.2831,0 -4.5592,0 c -9.7715,0 -17.7239,7.4613 -17.7239,17.25061 l 0,66.55802 c 0,9.78932 7.9524,16.19137 17.7239,16.19137 l 66.4528,0 c 9.7715,0 15.8233,-6.40205 15.8233,-16.19137 l 0,-8.28773 0,-33.46525 0,-3.72484 c -0.011,-2.04865 -1.5275,-3.71319 -3.5797,-3.71319 z"
/>
<path
d="m 93.0912000000001,12.09897 -4.5274,-4.49131 c -3.4416,-3.41648 -9.491,-3.41648 -12.9326,0 l -8.5507,9.9615 -45.5357,43.24328 0,1.05565 -0.039,0.18234 -5.7296,19.26083 4.2075,3.72357 18.381,-6.42988 0.2327,0.048 0.9016,0 43.558,-45.22984 10.0436,-8.12851 c 3.5579,-3.53163 3.5579,-9.6544 -0.011,-13.19562 z m -69.2197,64.98009 2.6758,-8.44521 5.3514,5.30705 -8.0272,3.13816 z m 13.4562,-6.30512 -7.872,-7.81181 40.7271,-40.1723 7.6103,7.56229 -40.4654,40.42182 z m 51.4591,-50.11462 -6.0689,6.01722 -8.8318,-8.77149 6.0689,-6.01722 c 0.5719,-0.5662 1.3378,-0.88291 2.1521,-0.88291 0.8242,0 1.5803,0.31671 2.162,0.88291 l 4.5177,4.49131 c 1.1828,1.18042 1.1828,3.09979 0,4.28018 z"
style="fill:#606060"
id="path3988"
/>
</svg>
