<?xml version="1.0" encoding="UTF-8" standalone="no"?>
<svg
xmlns:cc="http://creativecommons.org/ns#"
xmlns:svg="http://www.w3.org/2000/svg"
xmlns="http://www.w3.org/2000/svg"
xmlns:rdf="http://www.w3.org/1999/02/22-rdf-syntax-ns#"
xmlns:dc="http://purl.org/dc/elements/1.1/"
xmlns:sodipodi="http://sodipodi.sourceforge.net/DTD/sodipodi-0.dtd"
xmlns:inkscape="http://www.inkscape.org/namespaces/inkscape"
>
<path
d="m 2.74387000000002,84.0151 c -3.65849,3.65905 -3.65849,9.58473 0,13.24379 1.82924,1.82953 4.22654,2.74111 6.62405,2.74111 2.39751,0 4.79481,-0.91158 6.62405,-2.74111 l 30.74761,-30.75874 -13.24811,-13.23763 -30.7476,30.75258 z"
style="fill:#ffcc00;fill-opacity:1"
id="path4585"
/>
<path
id="path4587"
style="fill:#ffcc00;fill-opacity:1"
d="m 92.98287,20.09358 7.01097,-13.55601 -6.53656,-6.53757 -13.54774,7.01842 -6.93622,13.38121 -16.28842,16.30964 6.60536,6.61892 16.30095,-16.30964 z"
/>
<path
id="path4589"
style="fill:#ffcc00;fill-opacity:1"
d="m 82.52535,62.56647 -1.26118,-0.12489 c -2.28497,0 -4.45143,0.46832 -6.47413,1.21763 l -38.43939,-38.4515 c 0.7492,-2.02302 1.21745,-4.18982 1.21745,-6.47514 l -0.12487,-1.26138 C 36.78152,7.72397999999998 28.75273,0 18.83863,0 c -2.88445,0 -5.58775,0.70556 -8.0288,1.87327 l 12.44264,12.44457 c 0.65555,0.65565 1.1051,1.42981 1.40474,2.24793 0.81779,2.21035 0.3746,4.79556 -1.40474,6.58133 -1.21744,1.21763 -2.81564,1.82953 -4.41384,1.82953 -0.73667,0 -1.46718,-0.16227 -2.16647,-0.42457 -0.81779,-0.31221 -1.59204,-0.74931 -2.24758,-1.41112 l -12.44243,-12.4384 c -1.16754,2.44142 -1.87299,5.14514 -1.87299,8.03003 0,9.91565 7.72279,17.94568 17.46849,18.60749 l 1.26118,0.12489 c 2.28497,0 4.45143,-0.46832 6.47413,-1.21127 l 38.43302,38.44535 c -0.73667,2.02302 -1.20492,4.18982 -1.20492,6.47513 l 0.13103,1.26138 c 0.64939,9.75338 8.68434,17.4712 18.59844,17.4712 2.88445,0 5.59391,-0.69303 8.0288,-1.87328 L 76.85669,85.5889 c -0.64939,-0.64949 -1.10511,-1.42982 -1.41727,-2.24157 -0.81779,-2.21035 -0.3746,-4.80171 1.41727,-6.58749 1.20491,-1.21763 2.81564,-1.82953 4.41384,-1.82953 0.73667,0 1.46081,0.15611 2.17263,0.42457 0.81779,0.30605 1.5982,0.74315 2.24122,1.40496 l 12.44263,12.44457 c 1.1737,-2.4478 1.87299,-5.14515 1.87299,-8.03004 -0.006,-9.91605 -7.72895,-17.94609 -17.47465,-18.6079 z"
/>
</svg>
