<?xml version="1.0" encoding="UTF-8" standalone="no"?>
<svg
xmlns:sodipodi="http://sodipodi.sourceforge.net/DTD/sodipodi-0.dtd"
xmlns:inkscape="http://www.inkscape.org/namespaces/inkscape"
xmlns:cc="http://creativecommons.org/ns#"
xmlns:svg="http://www.w3.org/2000/svg"
xmlns="http://www.w3.org/2000/svg"
xmlns:rdf="http://www.w3.org/1999/02/22-rdf-syntax-ns#"
xmlns:dc="http://purl.org/dc/elements/1.1/"
>
<path
d="m 9.09179999999992,0 c -5.0227,0 -9.0918,4.15673 -9.0918,9.27734 l 0,61.03711 c 0,5.12061 4.5816,7.02734 9.0918,9.27735 L 50,100 c 0,0 50,-29.12367 50,-31 l 0,-37 -13.6367,14 0,16.75 -36.2403,21.36719 0,-0.0723 -36.4863,-18.36719 0,-51.76367 40.3633,0 14,-13.91406 c -23.6361,0 -35.2721,2e-5 -58.9082,3e-5 z"
id="path3951"
style="fill:#606060"
/>
<path
style="fill:#606060"
id="path3960"
d="m 94.7809,20.51706 c -1.7856,-2.95176 -3.988,-5.84236 -6.6836,-8.52265 -2.7261,-2.70706 -5.6665,-4.9247 -8.6755,-6.70647 L 84.7058999999999,0 c 0,0 7.647,0 11.4705,3.82353 3.8236,3.82353 3.8236,11.47059 3.8236,11.47059 l -5.2191,5.22294 z"
/>
<path
d="m 50.2941000000001,65 -15.2941,0 0,-15.29412 1.8353,-1.83529 c 3.1085,1.47205 6.1979,3.54058 8.9776,6.31647 2.7835,2.78735 4.8483,5.86911 6.3165,8.97764 L 50.2941000000001,65 Z"
id="path3958"
style="fill:#606060"
/>
<path
d="m 90.3647000000001,24.92941 -33.8229,33.81912 c -1.7857,-2.94795 -3.988,-5.84618 -6.6836,-8.52265 -2.7224,-2.71088 -5.6665,-4.9247 -8.6756,-6.70647 l 33.8879,-33.88411 c 3.1086,1.4644 6.198,3.53294 8.9778,6.31264 2.7873,2.78353 4.8519,5.87294 6.3164,8.98147 z"
id="path3956"
style="fill:#606060"
/>
</svg>
