<?xml version="1.0" encoding="UTF-8" standalone="no"?>
<svg
xmlns:sodipodi="http://sodipodi.sourceforge.net/DTD/sodipodi-0.dtd"
xmlns:inkscape="http://www.inkscape.org/namespaces/inkscape"
xmlns:cc="http://creativecommons.org/ns#"
xmlns:svg="http://www.w3.org/2000/svg"
xmlns="http://www.w3.org/2000/svg"
xmlns:rdf="http://www.w3.org/1999/02/22-rdf-syntax-ns#"
xmlns:dc="http://purl.org/dc/elements/1.1/"
>
<path
style="font-style:normal;font-variant:normal;font-weight:bold;font-stretch:normal;font-size:39.37181091px;line-height:100%;font-family:'Courier New';-inkscape-font-specification:'Courier New Bold';letter-spacing:5.24957561px;word-spacing:0px;fill:#ffcc00;fill-opacity:1;stroke:none;stroke-width:1px;stroke-opacity:1"
id="path4214"
d="m 17.8567,19.50037 0,-0.70538 q -1.9366,0.60257 -4.2756,0.8964 -2.339,0.30866 -4.2503,0.30866 -4.1498,0 -6.7402,-1.27852 -2.5905,-1.29313 -2.5905,-2.8508 0,-1.8957 3.2947,-3.51216 3.3197,-1.63114 9.1546,-1.63114 2.339,0 5.4073,0.29391 l 0,-0.72005 q 0,-0.67596 -1.006,-1.10218 -0.9808,-0.42615 -3.7726,-0.42615 -2.2886,0 -5.9353,0.52904 -1.3582,0.19102 -2.1126,0.19102 -1.0312,0 -1.7605,-0.42615 -0.7042,-0.44083 -0.7042,-1.11678 0,-0.38212 0.2514,-0.66127 0.2516,-0.27924 0.7042,-0.44091 0.4528,-0.17634 1.8863,-0.41147 1.9114,-0.30858 3.8983,-0.48493 1.9868,-0.19102 3.5965,-0.19102 4.8035,0 7.4443,1.21966 2.6659,1.20499 2.6659,3.30646 l 0,6.20129 0.8803,0 q 1.8611,0 2.6408,0.42615 0.8047,0.41147 0.8047,1.08742 0,0.66128 -0.8047,1.08742 -0.7797,0.41148 -2.6408,0.41148 l -6.036,0 z m 0,-5.3931 q -3.0935,-0.35269 -5.7091,-0.35269 -3.1437,0 -5.4072,0.8964 -1.4084,0.57315 -1.4084,1.16096 0,0.42615 0.6789,0.69063 1.2576,0.48493 3.4456,0.48493 1.8611,0 4.2001,-0.42615 2.3641,-0.42614 4.2001,-1.16088 l 0,-1.2932 z"
/>
<path
d="m 62.0218,9.59590000000003 -22.0313,0 q -1.8612,0 -2.6659,-0.41147 -0.7797,-0.42615 -0.7797,-1.1021 0,-0.66127 0.7797,-1.07275 0.8047,-0.42615 2.6659,-0.42615 l 22.0313,0 q 1.8611,0 2.6408,0.42615 0.8048,0.41148 0.8048,1.08743 0,0.66127 -0.8048,1.08742 -0.7797,0.41147 -2.6408,0.41147 z m 0,5.67233 -22.0313,0 q -1.8612,0 -2.6659,-0.41147 -0.7797,-0.41147 -0.7797,-1.08743 0,-0.67602 0.7797,-1.08742 0.8047,-0.42623 2.6659,-0.42623 l 22.0313,0 q 1.8611,0 2.6408,0.42623 0.8048,0.4114 0.8048,1.08742 0,0.67596 -0.8048,1.08743 -0.7797,0.41147 -2.6408,0.41147 z"
style="font-style:normal;font-variant:normal;font-weight:bold;font-stretch:normal;font-size:39.37181091px;line-height:100%;font-family:'Courier New';-inkscape-font-specification:'Courier New Bold';letter-spacing:5.24957561px;word-spacing:0px;fill:#ffcc00;fill-opacity:1;stroke:none;stroke-width:1px;stroke-opacity:1"
id="path4216"
/>
<path
id="path4218"
style="font-style:normal;font-variant:normal;font-weight:bold;font-stretch:normal;font-size:39.37181091px;line-height:100%;font-family:'Courier New';-inkscape-font-specification:'Courier New Bold';letter-spacing:5.24957561px;word-spacing:0px;fill:#ffcc00;fill-opacity:1;stroke:none;stroke-width:1px;stroke-opacity:1"
d="m 91.3485000000001,3.00000000379441e-05 0,16.48787 5.2061,0 q 1.8611,0 2.6407,0.42615 0.8048,0.41147 0.8048,1.08742 0,0.66128 -0.8048,1.08742 -0.7796,0.41148 -2.6407,0.41148 l -15.5679,0 q -1.8611,0 -2.6659,-0.41148 -0.7797,-0.42614 -0.7797,-1.1021 0,-0.66127 0.7797,-1.07274 0.8048,-0.42615 2.6659,-0.42615 l 5.2061,0 0,-12.56432 -4.6025,0.70538 q -1.1066,0.17634 -1.6599,0.17634 -0.9809,0 -1.7102,-0.45557 -0.7042,-0.4555 -0.7042,-1.11678 0,-0.6025 0.5281,-0.94051 0.5281,-0.35269 2.2132,-0.61717 l 11.0912,-1.67524 z"
/>
<path
d="m 9.26960000000008,27.9411700000001 0,6.7647 q 1.844,-0.72055 3.7373,-1.07352 1.9178,-0.36766 3.8602,-0.36766 5.2371,0 8.8761,2.16181 3.6388,2.16174 3.6388,5.22059 0,2.92645 -3.4667,4.89701 -3.4669,1.95594 -9.1466,1.95594 -2.0162,0 -3.8848,-0.30881 -1.8687,-0.30889 -3.6143,-0.91181 l 0,0.73532 -5.901,0 q -1.8194,0 -2.6062,-0.41182 -0.7623,-0.42644 -0.7623,-1.10291 0,-0.66177 0.7868,-1.07352 0.7869,-0.42644 2.5817,-0.42644 l 0.8605,0 0,-13.04411 -0.8605,0 q -1.8194,0 -2.6062,-0.41183 -0.7623,-0.42643 -0.7623,-1.10291 0,-0.66177 0.7623,-1.07352 0.7868,-0.42651 2.6062,-0.42651 l 5.901,0 z m 15.072,12.79416 q 0,-1.8677 -2.1883,-3.16178 -2.1882,-1.29409 -5.36,-1.29409 -3.1471,0 -5.3355,1.29409 -2.1882,1.29408 -2.1882,3.11762 0,1.66175 1.967,2.73535 1.967,1.05883 5.5567,1.05883 3.5897,0 5.5568,-1.05883 1.9915,-1.0736 1.9915,-2.69119 z"
style="font-style:normal;font-variant:normal;font-weight:bold;font-stretch:normal;font-size:38.94316864px;line-height:100%;font-family:'Courier New';-inkscape-font-specification:'Courier New Bold';letter-spacing:5.19242239px;word-spacing:0px;fill:#008444;fill-opacity:1;stroke:none;stroke-width:1px;stroke-opacity:1"
id="path4207"
/>
<path
d="m 63.3388,37.10295 -21.5385,0 q -1.8195,0 -2.6063,-0.41175 -0.7622,-0.42651 -0.7622,-1.10298 0,-0.6617 0.7622,-1.07353 0.7868,-0.42643 2.6063,-0.42643 l 21.5385,0 q 1.8194,0 2.5817,0.42643 0.7868,0.41183 0.7868,1.0883 0,0.6617 -0.7868,1.08821 -0.7623,0.41175 -2.5817,0.41175 z m 0,5.67649 -21.5385,0 q -1.8195,0 -2.6063,-0.41175 -0.7622,-0.41182 -0.7622,-1.08829 0,-0.67647 0.7622,-1.08821 0.7868,-0.42644 2.6063,-0.42644 l 21.5385,0 q 1.8194,0 2.5817,0.42644 0.7868,0.41174 0.7868,1.08821 0,0.67647 -0.7868,1.08829 -0.7623,0.41175 -2.5817,0.41175 z"
id="path4209"
style="font-style:normal;font-variant:normal;font-weight:bold;font-stretch:normal;font-size:38.94316864px;line-height:100%;font-family:'Courier New';-inkscape-font-specification:'Courier New Bold';letter-spacing:5.19242239px;word-spacing:0px;fill:#008444;fill-opacity:1;stroke:none;stroke-width:1px;stroke-opacity:1"
/>
<path
d="m 84.7313999999999,44.00005 11.0397,0 q 0.9098,-0.44121 1.7212,-0.44121 1.1555,0 1.8194,0.45591 0.6884,0.45582 0.6884,1.55881 l 0,1.44118 -22.9646,0 0,-3.19117 q 13.6215,-6.72062 16.449,-8.6471 1.4261,-0.98528 1.4261,-1.86762 0,-1.10299 -1.6228,-1.94117 -1.5982,-0.85295 -4.2782,-0.85295 -2.7046,0 -4.4994,0.94119 -0.9344,0.49999 -1.4999,1.48527 -0.3442,0.61761 -0.959,0.88234 -0.59,0.26473 -1.4752,0.26473 -1.0326,0 -1.7948,-0.44121 -0.7376,-0.44114 -0.7376,-1.02937 0,-0.88234 1.3523,-2.20589 1.3768,-1.32355 3.9832,-2.11765 2.6308,-0.79411 5.7042,-0.79411 4.7699,0 7.8187,1.7353 3.0489,1.72061 3.0489,4.17646 0,1.25 -0.8851,2.32352 -0.8607,1.05883 -4.1799,2.94114 -2.6062,1.48535 -10.1546,5.3236 z"
id="path4211"
style="font-style:normal;font-variant:normal;font-weight:bold;font-stretch:normal;font-size:38.94316864px;line-height:100%;font-family:'Courier New';-inkscape-font-specification:'Courier New Bold';letter-spacing:5.19242239px;word-spacing:0px;fill:#008444;fill-opacity:1;stroke:none;stroke-width:1px;stroke-opacity:1"
/>
<path
id="path4200"
style="font-style:normal;font-variant:normal;font-weight:bold;font-stretch:normal;font-size:39.37181091px;line-height:100%;font-family:'Courier New';-inkscape-font-specification:'Courier New Bold';letter-spacing:5.24957561px;word-spacing:0px;fill:#0a6b9e;fill-opacity:1;stroke:none;stroke-width:1px;stroke-opacity:1"
d="m 20.6231,59.201 q 0.9305,-0.51436 1.9114,-0.51436 1.1065,0 1.8107,0.47025 0.7294,0.45558 0.7294,1.52833 l 0,1.93972 q 0,1.08743 -0.7294,1.54301 -0.7042,0.4555 -1.8611,0.4555 -1.0562,0 -1.7856,-0.35269 -0.5281,-0.26448 -0.8299,-1.07275 -0.3018,-0.82287 -1.4588,-1.21967 -2.037,-0.70538 -5.206,-0.70538 -3.6468,0 -5.86,1.2491 -2.1881,1.24909 -2.1881,3.15946 0,1.76338 2.1127,2.79202 2.1125,1.01397 7.0168,1.01397 3.2193,0 5.2563,-0.38205 1.2073,-0.23512 2.2888,-0.79351 1.0814,-0.57315 1.9617,-0.57315 1.0562,0 1.8107,0.45558 0.7797,0.4555 0.7797,1.07275 0,0.99921 -2.339,1.89562 -3.4707,1.3373 -10.1606,1.3373 -6.0108,0 -9.3558,-1.45487 -4.527,-1.95439 -4.527,-5.34898 0,-3.21825 3.672,-5.31964 3.6718,-2.11607 9.5821,-2.11607 2.1377,0 3.9737,0.23513 1.836,0.23513 3.3953,0.70538 z"
/>
<path
d="m 61.393,62.09591 -22.0315,0 q -1.8611,0 -2.6659,-0.41148 -0.7796,-0.42614 -0.7796,-1.1021 0,-0.66127 0.7796,-1.07274 0.8048,-0.42615 2.6659,-0.42615 l 22.0315,0 q 1.861,0 2.6407,0.42615 0.8049,0.41147 0.8049,1.08742 0,0.66128 -0.8049,1.08742 -0.7797,0.41148 -2.6407,0.41148 z m 0,5.67232 -22.0315,0 q -1.8611,0 -2.6659,-0.41147 -0.7796,-0.41147 -0.7796,-1.08742 0,-0.67603 0.7796,-1.08743 0.8048,-0.42622 2.6659,-0.42622 l 22.0315,0 q 1.861,0 2.6407,0.42622 0.8049,0.4114 0.8049,1.08743 0,0.67595 -0.8049,1.08742 -0.7797,0.41147 -2.6407,0.41147 z"
style="font-style:normal;font-variant:normal;font-weight:bold;font-stretch:normal;font-size:39.37181091px;line-height:100%;font-family:'Courier New';-inkscape-font-specification:'Courier New Bold';letter-spacing:5.24957561px;word-spacing:0px;fill:#0a6b9e;fill-opacity:1;stroke:none;stroke-width:1px;stroke-opacity:1"
id="path4202"
/>
<path
style="font-style:normal;font-variant:normal;font-weight:bold;font-stretch:normal;font-size:39.37181091px;line-height:100%;font-family:'Courier New';-inkscape-font-specification:'Courier New Bold';letter-spacing:5.24957561px;word-spacing:0px;fill:#0a6b9e;fill-opacity:1;stroke:none;stroke-width:1px;stroke-opacity:1"
id="path4204"
d="m 95.4477999999999,61.93424 q 2.2887,0.91115 3.4204,2.11614 1.1318,1.19031 1.1318,2.67446 0,1.60178 -1.509,2.96844 -1.4839,1.3519 -4.3259,2.05729 -2.8418,0.6907 -7.4443,0.6907 -5.9857,0 -9.0038,-1.08742 -1.685,-0.61725 -1.685,-1.46955 0,-0.6466 0.7294,-1.08742 0.7544,-0.45558 1.8107,-0.45558 0.7295,0 1.509,0.29391 1.1067,0.4409 2.0874,0.58782 1.5091,0.20569 4.1499,0.20569 4.5018,0 6.5138,-0.67595 2.012,-0.69063 2.012,-1.93972 0,-0.92583 -1.182,-1.77813 -1.157,-0.86697 -3.1186,-1.33723 -1.1318,-0.26455 -3.8228,-0.36737 -1.2827,-0.0443 -1.987,-0.45557 -0.6789,-0.42615 -0.6789,-1.04332 0,-0.6466 0.7544,-1.08743 0.7546,-0.4409 1.9115,-0.4409 2.5653,0 2.7414,-0.0145 1.0059,-0.0589 2.0119,-0.38205 1.006,-0.32333 1.6096,-0.88172 0.6288,-0.57314 0.6288,-1.17564 0,-0.95518 -1.4587,-1.64581 -1.4336,-0.70538 -4.3258,-0.70538 -3.7223,0 -5.684,1.26377 -0.5783,0.36736 -0.9305,0.47025 -0.5282,0.16167 -1.182,0.16167 -1.0564,0 -1.8109,-0.4409 -0.7544,-0.44083 -0.7544,-1.08743 0,-1.01396 2.3137,-1.96915 3.3702,-1.39601 8.4253,-1.39601 4.7785,0 7.6708,1.58703 2.8922,1.58711 2.8922,3.82074 0,1.16096 -0.8551,2.17485 -0.855,0.99929 -2.5653,1.85159 z"
/>
<path
style="font-style:normal;font-variant:normal;font-weight:bold;font-stretch:normal;font-size:39.79800034px;line-height:100%;font-family:'Courier New';-inkscape-font-specification:'Courier New Bold';letter-spacing:5.30639982px;word-spacing:0px;fill:#ff5a00;fill-opacity:1;stroke:none;stroke-width:1px;stroke-opacity:1"
id="path4191"
d="m 25.6896999999999,79.9999800000001 0,16.42104 0.8789,0 q 1.8332,0 2.6368,0.43606 0.8036,0.42111 0.8036,1.11284 0,0.67664 -0.8036,1.11278 -0.7785,0.42104 -2.6368,0.42104 l -6.0269,0 0,-0.75186 q -1.7578,0.61651 -3.6915,0.93232 -1.9085,0.3158 -3.9678,0.3158 -5.8008,0 -9.3416,-2.00005 -3.5409,-2.01498 -3.5409,-5.00747 0,-3.12783 3.7166,-5.33837 3.7167,-2.21053 9.0655,-2.21053 2.009,0 3.9426,0.37593 1.9336,0.36092 3.8171,1.09776 l 0,-3.83457 -0.8788,0 q -1.8585,0 -2.662,-0.42104 -0.7785,-0.43614 -0.7785,-1.11285 0,-0.69173 0.7785,-1.11277 0.8035,-0.43606 2.662,-0.43606 l 6.0268,0 z m -5.148,13.08273 q 0,-1.90982 -2.235,-3.23315 -2.2349,-1.32326 -5.4744,-1.32326 -3.2144,0 -5.4494,1.32326 -2.2349,1.32333 -2.2349,3.18803 0,1.69918 2.0089,2.79694 2.009,1.08275 5.6754,1.08275 3.6412,0 5.6754,-1.08275 2.034,-1.09776 2.034,-2.75182 z"
/>
<path
style="font-style:normal;font-variant:normal;font-weight:bold;font-stretch:normal;font-size:39.79800034px;line-height:100%;font-family:'Courier New';-inkscape-font-specification:'Courier New Bold';letter-spacing:5.30639982px;word-spacing:0px;fill:#ff5a00;fill-opacity:1;stroke:none;stroke-width:1px;stroke-opacity:1"
id="path4193"
d="m 62.6061999999999,89.36839 -21.9981,0 q -1.8584,0 -2.662,-0.42105 -0.7784,-0.43613 -0.7784,-1.12786 0,-0.67664 0.7784,-1.09768 0.8036,-0.43613 2.662,-0.43613 l 21.9981,0 q 1.8583,0 2.6368,0.43613 0.8037,0.42104 0.8037,1.11277 0,0.67664 -0.8037,1.11277 -0.7785,0.42105 -2.6368,0.42105 z m 0,5.80452 -21.9981,0 q -1.8584,0 -2.662,-0.42105 -0.7784,-0.42104 -0.7784,-1.11277 0,-0.69173 0.7784,-1.11277 0.8036,-0.43613 2.662,-0.43613 l 21.9981,0 q 1.8583,0 2.6368,0.43613 0.8037,0.42104 0.8037,1.11277 0,0.69173 -0.8037,1.11277 -0.7785,0.42105 -2.6368,0.42105 z"
/>
<path
style="font-style:normal;font-variant:normal;font-weight:bold;font-stretch:normal;font-size:39.79800034px;line-height:100%;font-family:'Courier New';-inkscape-font-specification:'Courier New Bold';letter-spacing:5.30639982px;word-spacing:0px;fill:#ff5a00;fill-opacity:1;stroke:none;stroke-width:1px;stroke-opacity:1"
id="path4196"
d="m 96.8107,80.0451 0,12.0601 q 1.6324,0 2.4108,0.43613 0.7785,0.42105 0.7785,1.09776 0,0.67664 -0.8037,1.11277 -0.7784,0.43606 -2.3856,0.43606 l 0,1.2331 q 1.6324,0 2.4108,0.43606 0.7785,0.43613 0.7785,1.11284 0,0.67664 -0.8037,1.11278 -0.7784,0.42104 -2.6367,0.42104 l -6.9059,0 q -1.8583,0 -2.6618,-0.42104 -0.7785,-0.43614 -0.7785,-1.12787 0,-0.67664 0.7785,-1.09775 0.8035,-0.43606 2.6618,-0.43606 l 2.0091,0 0,-1.2331 -13.9875,0 0,-2.57145 12.33,-12.57137 6.8054,0 z m -5.1479,12.0601 0,-7.57892 -7.4583,7.57892 7.4583,0 z"
/>
</svg>
