<?xml version="1.0" encoding="UTF-8" standalone="no"?>
<svg
xmlns:inkscape="http://www.inkscape.org/namespaces/inkscape"
xmlns:sodipodi="http://sodipodi.sourceforge.net/DTD/sodipodi-0.dtd"
xmlns:dc="http://purl.org/dc/elements/1.1/"
xmlns="http://www.w3.org/2000/svg"
xmlns:rdf="http://www.w3.org/1999/02/22-rdf-syntax-ns#"
xmlns:svg="http://www.w3.org/2000/svg"
xmlns:cc="http://creativecommons.org/ns#"
>
<path
d="m 14.6864999999998,99.67236 c -1.095,-0.33721 -2.5901,-1.61197 -3.1769,-2.70883 l -0.433,-0.80927 -0.054,-15.63359 -0.054,-15.6336 4.7107,0 4.7109,0 0,12.6049 c 0,9.54243 0.057,12.66203 0.2353,12.84013 0.342,0.34196 59.1915,0.34196 59.5336,0 0.1781,-0.1781 0.2353,-3.2977 0.2353,-12.84013 l 0,-12.6049 4.7107,0 4.7108,0 -0.053,15.6336 -0.054,15.63359 -0.4331,0.80927 c -0.613,1.14577 -2.08,2.37023 -3.2588,2.72022 -1.445,0.42896 -69.9368,0.41802 -71.3312,-0.0114 z m 12.6461,-16.04457 c -0.6491,-0.64895 -0.6667,-0.70862 -0.6667,-2.26412 0,-1.87668 0.288,-2.58026 1.2164,-2.97176 0.9239,-0.38965 44.0541,-0.40816 44.975,-0.0194 0.9519,0.40202 1.263,1.13628 1.263,2.98202 0,1.56577 -0.017,1.62358 -0.6668,2.27314 l -0.6667,0.66651 -22.3938,0 -22.3936,0 -0.6668,-0.66651 z m -25.0802,-2.01163 c -0.91,-0.47962 -1.489,-1.07218 -1.8845,-1.92863 -0.3446,-0.74643 -0.3622,-1.77654 -0.3663,-21.42285 0,-22.59098 -0.065,-21.39175 1.1337,-22.65297 1.1591,-1.21995 1.0337,-1.20211 8.9117,-1.26776 l 7.2065,-0.0601 0,-15.03443 0,-15.03445 0.4586,-0.98016 c 0.2523,-0.53909 0.8607,-1.34917 1.3521,-1.80018 1.625,-1.49137 0.8423,-1.43436 19.6931,-1.43436 l 16.7304,0 0,5.09685 0,5.09683 -14.1927,0 c -12.9612,0 -14.2161,0.0281 -14.4618,0.32411 -0.2213,0.26648 -0.2786,2.75741 -0.3221,14.01632 l -0.053,13.69225 23.9271,0 23.9273,0 0,-4.70478 0,-4.70478 4.6081,0 4.6081,0 0,2.73287 0,2.73289 6.8143,0.0606 c 7.4447,0.0662 7.3663,0.0545 8.5196,1.26829 1.198,1.2608 1.1379,0.0679 1.1379,22.61026 0,22.32256 0.045,21.34965 -1.0389,22.51112 -0.8884,0.95225 -1.7275,1.20882 -3.9537,1.20882 l -2.0667,0 0,-10.09568 0,-10.09568 -42.5521,0 -42.552,0 0,10.09568 0,10.09568 -2.5001,-0.008 c -1.8891,-0.006 -2.644,-0.0836 -3.0885,-0.31788 z m 11.0962,-33.44709 c 0.6025,-0.46248 0.7674,-1.10378 0.7674,-2.98546 0,-1.82789 -0.019,-1.9092 -0.5732,-2.46331 -0.5616,-0.5614 -0.6154,-0.573 -2.6561,-0.573 -1.9501,0 -2.1137,0.0307 -2.5643,0.48116 -0.4532,0.45303 -0.4814,0.60835 -0.4814,2.65536 0,2.04701 0.028,2.20233 0.4814,2.65534 0.4525,0.45238 0.6079,0.48081 2.5982,0.47495 1.354,-0.004 2.229,-0.0923 2.428,-0.24504 z m 13.984,24.48089 c -0.656,-0.65584 -0.6667,-0.6938 -0.6667,-2.37199 0,-1.6782 0.011,-1.71615 0.6667,-2.37199 l 0.6668,-0.66652 22.3936,0 22.3938,0 0.6667,0.66652 c 0.6561,0.65584 0.6668,0.69379 0.6668,2.37199 0,1.67819 -0.011,1.71615 -0.6668,2.37199 l -0.6667,0.66651 -22.3938,0 -22.3936,0 -0.6668,-0.66651 z m 34.7917,-48.02799 c -1.2118,-0.43268 -2.2572,-1.41453 -2.9024,-2.72609 l -0.5974,-1.21414 0.051,-10.24335 0.051,-10.24333 12.3532,12.35068 12.3532,12.3507 -10.2942,-0.009 c -7.9816,-0.007 -10.4561,-0.0664 -11.0149,-0.26588 z"
style="fill:#606060"
id="path4091"
/>
</svg>
