<?xml version="1.0" encoding="UTF-8" standalone="no"?>
<svg
xmlns:inkscape="http://www.inkscape.org/namespaces/inkscape"
xmlns:sodipodi="http://sodipodi.sourceforge.net/DTD/sodipodi-0.dtd"
xmlns:rdf="http://www.w3.org/1999/02/22-rdf-syntax-ns#"
xmlns="http://www.w3.org/2000/svg"
xmlns:dc="http://purl.org/dc/elements/1.1/"
xmlns:cc="http://creativecommons.org/ns#"
xmlns:svg="http://www.w3.org/2000/svg"
>
<circle
id="path8131"
style="fill:#ffffff;fill-opacity:1;stroke:#823a8c;stroke-width:10;stroke-opacity:1"
cy="50"
cx="50"
r="45"
/>
<path
id="path8138"
style="fill:#823a8c;fill-opacity:1"
d="m 71.1997699999999,37.3159000000001 q 0,3.9453 -1.17188,6.9922 -1.13281,3.0078 -3.24219,5.2344 -2.10937,2.2265 -5.07812,3.9843 -2.92969,1.7578 -6.64063,3.2032 l 0,8.9062 -13.75,0 0,-13.1641 q 2.77344,-0.7421 5,-1.5234 2.26563,-0.7812 4.72657,-2.5391 2.30468,-1.5625 3.59375,-3.6328 1.32812,-2.0703 1.32812,-4.6875 0,-3.9062 -2.53906,-5.5468 -2.5,-1.6797 -7.07031,-1.6797 -2.8125,0 -6.36719,1.2109 -3.51563,1.2109 -6.44531,3.125 l -1.5625,0 0,-11.9141 q 2.5,-1.0546 7.69531,-2.1875 5.19531,-1.1718 10.54687,-1.1718 9.64844,0 15.3125,4.2578 5.66407,4.2578 5.66407,11.1328 z m -15.03907,43.9453 -15.78125,0 0,-10.3125 15.78125,0 0,10.3125 z"
/>
</svg>
