<?xml version="1.0" encoding="UTF-8" standalone="no"?>
<svg
xmlns:dc="http://purl.org/dc/elements/1.1/"
xmlns:rdf="http://www.w3.org/1999/02/22-rdf-syntax-ns#"
xmlns="http://www.w3.org/2000/svg"
xmlns:svg="http://www.w3.org/2000/svg"
xmlns:cc="http://creativecommons.org/ns#"
xmlns:inkscape="http://www.inkscape.org/namespaces/inkscape"
xmlns:sodipodi="http://sodipodi.sourceforge.net/DTD/sodipodi-0.dtd"
>
<circle
style="opacity:1;fill:#000000;fill-opacity:1;stroke:none;stroke-width:2;stroke-opacity:1"
id="path4533"
cy="50"
cx="50"
r="50"
/>
<g
id="g4381"
>
<path
style="fill:#00ff00;stroke:#00ff00;stroke-width:2.14329028;stroke-opacity:1"
id="path1295"
d="m 40.00087,4.59289000000001 0,0 c -0.0331,0.1592 -0.0166,0.30071 0.0166,0.45992 l 4.83074,18.11444 -3.07712,-18.539 c -0.0331,-0.15921 -0.0827,-0.30073 -0.16543,-0.42455 l 0,0 c -0.47977,-0.67221 -1.45586,-0.42457 -1.60474,0.38919 z"
/>
<path
id="path1301"
style="fill:#00ff00;stroke:#00ff00;stroke-width:2.14329028;stroke-opacity:1"
d="m 31.03422,10.1652 0,0 c 0.0497,0.1415 0.1158,0.28302 0.23162,0.38916 l 12.65588,13.10819 -11.34895,-14.41724 c -0.0993,-0.12382 -0.21507,-0.21229 -0.3474,-0.26535 l 0,0 c -0.71138,-0.31842 -1.4393,0.40687 -1.19115,1.18524 z"
/>
<path
d="m 25.8726,19.80617 0,0 c 0.1158,0.10614 0.23161,0.17689 0.38051,0.21227 l 17.08957,4.58168 -16.56018,-6.42142 c -0.13235,-0.0531 -0.28124,-0.0709 -0.43013,-0.0531 l 0,0 c -0.76102,0.10614 -1.05879,1.13214 -0.47977,1.68053 z"
style="fill:#00ff00;stroke:#00ff00;stroke-width:2.14329028;stroke-opacity:1"
id="path1307"
/>
<path
d="m 25.90569,30.89772 0,0 c 0.1489,0.0354 0.28123,0.0177 0.43014,-0.0177 l 16.94069,-5.16545 -17.33774,3.29033 c -0.1489,0.0354 -0.28125,0.0884 -0.39705,0.17689 l 0,0 c -0.61211,0.51301 -0.38051,1.55672 0.36396,1.71593 z"
id="path1313"
style="fill:#00ff00;stroke:#00ff00;stroke-width:2.14329028;stroke-opacity:1"
/>
<path
id="path1319"
style="fill:#00ff00;stroke:#00ff00;stroke-width:2.14329028;stroke-opacity:1"
d="m 31.13348,40.48564 0,0 c 0.13236,-0.0531 0.26469,-0.12384 0.36395,-0.24767 l 12.25885,-13.53274 -13.48306,12.11755 c -0.11582,0.10614 -0.19853,0.22998 -0.24816,0.37149 l 0,0 c -0.29779,0.77835 0.3805,1.55671 1.10842,1.29137 z"
/>
<path
id="path1325"
style="fill:#00ff00;stroke:#00ff00;stroke-width:2.14329028;stroke-opacity:1"
d="m 40.14975,46.00486 0,0 c 0.0993,-0.12381 0.16545,-0.24765 0.19853,-0.40685 l 4.28481,-18.27365 -6.00535,17.70756 c -0.0497,0.14154 -0.0662,0.30074 -0.0497,0.45995 l 0,0 c 0.0994,0.81373 1.05878,1.13214 1.57163,0.51299 z"
/>
<path
style="fill:#00ff00;stroke:#00ff00;stroke-width:2.14329028;stroke-opacity:1"
id="path1331"
d="m 50.52262,45.96949 0,0 c 0.0331,-0.15921 0.0166,-0.30073 -0.0166,-0.45993 l -4.83075,-18.11445 3.07712,18.53901 c 0.0331,0.1592 0.0827,0.30072 0.16543,0.42455 l 0,0 c 0.47976,0.65452 1.45584,0.40687 1.60473,-0.38918 z"
/>
<path
style="fill:#00ff00;stroke:#00ff00;stroke-width:2.14329028;stroke-opacity:1"
id="path1337"
d="m 59.48928,40.37949 0,0 c -0.0497,-0.14152 -0.1158,-0.28304 -0.23162,-0.38918 l -12.65588,-13.10819 11.3324,14.41725 c 0.0994,0.12381 0.21505,0.21228 0.34741,0.26534 l 0,0 c 0.72793,0.31842 1.45583,-0.40687 1.20769,-1.18522 z"
/>
<path
style="fill:#00ff00;stroke:#00ff00;stroke-width:2.14329028;stroke-opacity:1"
id="path1343"
d="m 64.65089,30.73851 0,0 c -0.1158,-0.10614 -0.23162,-0.1769 -0.3805,-0.21229 l -17.08958,-4.58166 16.56018,6.42141 c 0.13236,0.0531 0.28124,0.0709 0.43013,0.0531 l 0,0 c 0.76101,-0.10614 1.0588,-1.13214 0.47977,-1.68052 z"
/>
<path
d="m 64.60126,19.64696 0,0 c -0.1489,-0.0354 -0.28124,-0.0177 -0.43014,0.0177 l -16.94068,5.16544 17.33772,-3.29032 c 0.14892,-0.0354 0.28125,-0.0884 0.39706,-0.17689 l 0,0 c 0.62866,-0.51302 0.39705,-1.55672 -0.36396,-1.71593 z"
id="path1349"
style="fill:#00ff00;stroke:#00ff00;stroke-width:2.14329028;stroke-opacity:1"
/>
<path
style="fill:#00ff00;stroke:#00ff00;stroke-width:2.14329028;stroke-opacity:1"
id="path1355"
d="m 59.39001,10.05903 0,0 c -0.13235,0.0531 -0.26469,0.12385 -0.36395,0.24767 l -12.25884,13.53276 13.48307,-12.11756 c 0.11581,-0.10614 0.19852,-0.22999 0.24815,-0.37149 l 0,0 c 0.29779,-0.77836 -0.38051,-1.55672 -1.10843,-1.29138 z"
/>
<path
d="m 50.37373,4.53980999999999 0,0 c -0.0993,0.12382 -0.16544,0.24765 -0.19852,0.40686 l -4.2848,18.27365 6.00534,-17.70757 c 0.0497,-0.14153 0.0662,-0.30073 0.0497,-0.45994 l 0,0 c -0.0994,-0.81373 -1.0588,-1.13215 -1.57165,-0.513 z"
id="path1361"
style="fill:#00ff00;stroke:#00ff00;stroke-width:2.14329028;stroke-opacity:1"
/>
</g>
<g
id="g9151"
>
<path
d="m 28.55012,55.02496 c 0,0 -2.97865,-16.58058 7.59298,-21.83196 0,0 1.4635,-0.72314 1.96281,0.34436 0,0 0.60261,1.32575 -0.96419,1.99724 0.0172,0.0172 -8.17838,2.90978 -8.5916,19.49036 z"
style="fill:#ffff00;stroke:#ffff00;stroke-width:1;stroke-opacity:1"
id="path1367"
/>
<path
style="fill:#ffff00;stroke:#ffff00;stroke-width:1;stroke-opacity:1"
id="path1387"
d="m 28.11968,55.17992 c 0,0 -10.86432,-12.87879 -4.33884,-22.71006 0,0 0.91253,-1.36019 1.87672,-0.6887 0,0 1.18802,0.84366 0.17218,2.22107 0,0 -5.63017,6.61157 2.28994,21.17769 z"
/>
<path
d="m 27.82698,55.52427 c 0,0 -15.84022,-5.71625 -15.09986,-17.49311 0,0 0.1033,-1.63568 1.29132,-1.53237 0,0 1.44628,0.13774 1.25689,1.84229 -0.0344,-0.0172 -1.60124,8.52272 12.55165,17.18319 z"
style="fill:#ffff00;stroke:#ffff00;stroke-width:1;stroke-opacity:1"
id="path1407"
/>
<path
id="path1427"
style="fill:#ffff00;stroke:#ffff00;stroke-width:1;stroke-opacity:1"
d="m 27.72368,55.97193 c 0,0 -16.58058,2.97865 -21.83196,-7.59297 0,0 -0.72314,-1.4635 0.34435,-1.96281 0,0 1.32576,-0.60262 1.99725,0.96418 0.0172,-0.0172 2.90978,8.16116 19.49036,8.5916 z"
/>
<path
id="path1447"
style="fill:#ffff00;stroke:#ffff00;stroke-width:1;stroke-opacity:1"
d="m 27.87863,56.40237 c 0,0 -12.87878,10.86433 -22.71005,4.33884 0,0 -1.36019,-0.91253 -0.68871,-1.87672 0,0 0.84367,-1.18801 2.22108,-0.17217 0,0 6.59435,5.63016 21.17768,-2.28995 z"
/>
<path
d="m 28.20577,56.69507 c 0,0 -5.71625,15.84022 -17.49311,15.09986 0,0 -1.63568,-0.1033 -1.53237,-1.29132 0,0 0.13774,-1.44628 1.84228,-1.25689 0,0.0344 8.53995,1.60124 17.1832,-12.55165 z"
style="fill:#ffff00;stroke:#ffff00;stroke-width:1;stroke-opacity:1"
id="path1467"
/>
<path
d="m 28.65343,56.79838 c 0,0 2.97865,16.58058 -7.59298,21.83195 0,0 -1.4635,0.72314 -1.96281,-0.34435 0,0 -0.60262,-1.32576 0.96419,-1.99724 0,-0.0172 8.17837,-2.90978 8.5916,-19.49036 z"
style="fill:#ffff00;stroke:#ffff00;stroke-width:1;stroke-opacity:1"
id="path1487"
/>
<path
d="m 29.10109,56.64342 c 0,0 10.86432,12.87879 4.33884,22.71005 0,0 -0.91254,1.3602 -1.87672,0.68871 0,0 -1.18802,-0.84367 -0.17218,-2.22108 0,0 5.63017,-6.61157 -2.28994,-21.17768 z"
id="path1507"
style="fill:#ffff00;stroke:#ffff00;stroke-width:1;stroke-opacity:1"
/>
<path
d="m 29.39379,56.31628 c 0,0 15.84022,5.71626 15.09986,17.49312 0,0 -0.10331,1.63567 -1.29132,1.53237 0,0 -1.44629,-0.13775 -1.25689,-1.84229 0.0172,0 1.60124,-8.53995 -12.55165,-17.1832 z"
id="path1527"
style="fill:#ffff00;stroke:#ffff00;stroke-width:1;stroke-opacity:1"
/>
<path
d="m 29.49709,55.86862 c 0,0 16.58058,-2.97865 21.83196,7.59298 0,0 0.72314,1.4635 -0.34436,1.96281 0,0 -1.32575,0.60262 -1.99724,-0.96419 -0.0172,0 -2.90978,-8.17837 -19.49036,-8.5916 z"
id="path1547"
style="fill:#ffff00;stroke:#ffff00;stroke-width:1;stroke-opacity:1"
/>
<path
id="path1567"
style="fill:#ffff00;stroke:#ffff00;stroke-width:1;stroke-opacity:1"
d="m 29.34213,55.42097 c 0,0 12.87879,-10.86433 22.71006,-4.33885 0,0 1.36019,0.91254 0.6887,1.87673 0,0 -0.84366,1.18801 -2.22107,0.17217 0,0 -6.61157,-5.63016 -21.17769,2.28995 z"
/>
<path
id="path1587"
style="fill:#ffff00;stroke:#ffff00;stroke-width:1;stroke-opacity:1"
d="m 28.99778,55.12827 c 0,0 5.71625,-15.84022 17.49311,-15.09987 0,0 1.63568,0.10331 1.53237,1.29133 0,0 -0.13774,1.44628 -1.84228,1.25688 0.0172,-0.0344 -8.52273,-1.60124 -17.1832,12.55166 z"
/>
</g>
<path
style="fill:#ffffff"
id="path4540"
d="m 32.8749,65.05616 -6.4921,0 0,-13.16205 22.08498,0 0,42.98418 -15.59288,0 0,-29.82213 z"
/>
<g
id="g7268"
>
<path
style="fill:#00ffff;stroke:#00ffff;stroke-width:0.94424891;stroke-opacity:1"
id="path11"
d="m 73.46076,43.89487 c 0,0 10.16426,-9.64979 8.437,-21.36402 0,0 -0.0199,-0.26432 -0.12279,-0.57366 -0.39834,-1.27751 -2.34354,-0.87615 -2.16662,0.45309 0.003,0.0187 0.003,0.0187 0.006,0.0374 -0.0187,0.003 3.09073,9.05067 -6.15312,21.44722 z"
/>
<path
style="fill:#00ffff;stroke:#00ffff;stroke-width:0.94424891;stroke-opacity:1"
id="path23"
d="m 73.65981,44.20912 c 0,0 13.6249,-3.26887 17.97406,-14.29467 0,0 0.0977,-0.24347 0.18443,-0.56169 0.30394,-1.30469 -1.58174,-1.92384 -2.10497,-0.68225 0.003,0.0187 -0.0159,0.0215 -0.0132,0.0402 0,0 -1.85932,9.39877 -16.04035,15.49848 z"
/>
<path
d="m 73.65885,44.59105 c 0,0 13.43315,3.9751 22.71299,-3.38724 0,0 0.20767,-0.14515 0.43617,-0.40792 0.9036,-0.99224 -0.41973,-2.45788 -1.48437,-1.65187 -0.0187,0.003 -0.0159,0.0215 -0.0346,0.0242 0.0215,0.0159 -6.28385,7.22597 -21.63018,5.42279 z"
style="fill:#00ffff;stroke:#00ffff;stroke-width:0.94424891;stroke-opacity:1"
id="path35"
/>
<path
d="m 73.47599,44.90434 c 0,0 9.64979,10.16428 21.36401,8.43702 0,0 0.26432,-0.0199 0.57366,-0.1228 1.2775,-0.39835 0.87616,-2.34353 -0.45309,-2.16663 -0.0187,0.003 -0.0187,0.003 -0.0374,0.006 0,0 -9.05068,3.09073 -21.44722,-6.15312 z"
style="fill:#00ffff;stroke:#00ffff;stroke-width:0.94424891;stroke-opacity:1"
id="path47"
/>
<path
d="m 73.16173,45.10339 c 0,0 3.26887,13.62491 14.29466,17.97407 0,0 0.24348,0.0977 0.56169,0.18442 1.3047,0.30394 1.92385,-1.58173 0.68226,-2.10496 -0.0187,0.003 -0.0215,-0.0159 -0.0402,-0.0132 0,0 -9.39602,-1.84063 -15.49849,-16.04035 z"
id="path59"
style="fill:#00ffff;stroke:#00ffff;stroke-width:0.94424891;stroke-opacity:1"
/>
<path
style="fill:#00ffff;stroke:#00ffff;stroke-width:0.94424891;stroke-opacity:1"
id="path71"
d="m 72.78256,45.12112 c 0,0 -3.97511,13.43315 3.38724,22.71299 0,0 0.14515,0.20767 0.40792,0.43617 0.99224,0.9036 2.45787,-0.41972 1.65186,-1.48437 -0.003,-0.0187 -0.0215,-0.0159 -0.0242,-0.0346 -0.0187,0.003 -7.22873,-6.30254 -5.42279,-21.63018 z"
/>
<path
id="path83"
style="fill:#00ffff;stroke:#00ffff;stroke-width:0.94424891;stroke-opacity:1"
d="m 72.46926,44.93826 c 0,0 -10.16427,9.64979 -8.43701,21.36401 0,0 0.0199,0.26432 0.1228,0.57366 0.39834,1.2775 2.34353,0.87616 2.16662,-0.45309 -0.003,-0.0187 -0.003,-0.0187 -0.006,-0.0374 0,0 -3.09348,-9.06936 6.15312,-21.44721 z"
/>
<path
style="fill:#00ffff;stroke:#00ffff;stroke-width:0.94424891;stroke-opacity:1"
id="path95"
d="m 72.26745,44.60532 c 0,0 -13.6249,3.26887 -17.97406,14.29466 0,0 -0.0977,0.24348 -0.18443,0.56169 -0.30393,1.30471 1.58174,1.92385 2.10497,0.68227 -0.003,-0.0187 0.0159,-0.0215 0.0132,-0.0402 0.003,0.0187 1.84338,-9.37734 16.04035,-15.4985 z"
/>
<path
d="m 72.25248,44.24484 c 0,0 -13.43314,-3.97512 -22.71298,3.38723 0,0 -0.20767,0.14515 -0.43617,0.40792 -0.90361,0.99224 0.41963,2.45789 1.48436,1.65186 0.0187,-0.003 0.0159,-0.0215 0.0346,-0.0242 -0.003,-0.0187 6.30254,-7.22873 21.63018,-5.4228 z"
id="path107"
style="fill:#00ffff;stroke:#00ffff;stroke-width:0.94424891;stroke-opacity:1"
/>
<path
d="m 72.4326,43.91285 c 0,0 -9.64979,-10.16427 -21.36403,-8.43701 0,0 -0.26431,0.0199 -0.57365,0.12279 -1.27751,0.39835 -0.87615,2.34354 0.45309,2.16663 0.0187,-0.003 0.0187,-0.003 0.0374,-0.006 0,0 9.06936,-3.09348 21.44722,6.15312 z"
style="fill:#00ffff;stroke:#00ffff;stroke-width:0.94424891;stroke-opacity:1"
id="path119"
/>
<path
id="path131"
style="fill:#00ffff;stroke:#00ffff;stroke-width:0.94424891;stroke-opacity:1"
d="m 72.76554,43.71104 c 0,0 -3.26888,-13.6249 -14.29467,-17.97406 0,0 -0.24348,-0.0977 -0.56169,-0.18443 -1.3047,-0.30394 -1.92385,1.58174 -0.68226,2.10496 0.0187,-0.003 0.0214,0.0159 0.0401,0.0132 -0.0187,0.003 9.3801,1.86206 15.4985,16.04035 z"
/>
<path
d="m 73.12878,43.71475 c 0,0 3.9751,-13.43314 -3.38724,-22.71298 0,0 -0.14515,-0.20767 -0.40792,-0.43617 -0.99224,-0.90361 -2.45789,0.41963 -1.65187,1.48436 0.003,0.0187 0.0215,0.0159 0.0242,0.0346 0.0159,-0.0215 7.22598,6.28386 5.4228,21.63018 z"
id="path143"
style="fill:#00ffff;stroke:#00ffff;stroke-width:0.94424891;stroke-opacity:1"
/>
</g>
<path
style="fill:#ffffff"
id="path4542"
d="m 67.87885,73.50478 q 0,4.68379 0.83003,6.87747 0.85969,2.16403 2.66799,2.16403 1.80829,0 2.63833,-2.1344 0.83006,-2.16401 0.83006,-6.9071 0,-4.71344 -0.83006,-6.87748 -0.83004,-2.16402 -2.63833,-2.16402 -1.83793,0 -2.66799,2.13438 -0.83003,2.13439 -0.83003,6.90712 z m -15.17787,0 q 0,-10.46443 4.98024,-16.45258 5.00989,-6.01778 13.69565,-6.01778 8.74505,0 13.69565,5.95849 4.9506,5.9585 4.9506,16.51187 0,10.55335 -4.9506,16.5415 -4.9506,5.98814 -13.69565,5.98814 -8.65612,0 -13.666,-6.04744 -5.00989,-6.04741 -5.00989,-16.4822 z"
/>
</svg>
