<?xml version="1.0" encoding="UTF-8" standalone="no"?>
<svg
xmlns:svg="http://www.w3.org/2000/svg"
xmlns:cc="http://creativecommons.org/ns#"
xmlns:dc="http://purl.org/dc/elements/1.1/"
xmlns:rdf="http://www.w3.org/1999/02/22-rdf-syntax-ns#"
xmlns="http://www.w3.org/2000/svg"
xmlns:sodipodi="http://sodipodi.sourceforge.net/DTD/sodipodi-0.dtd"
xmlns:inkscape="http://www.inkscape.org/namespaces/inkscape"
>
<circle
r="50"
style="opacity:1;fill:#ffffff;fill-opacity:1;stroke:none;stroke-width:0.40000001;stroke-opacity:1"
id="path4427"
cx="50"
cy="50"
/>
<path
d="m 43.2997,99.674296 c -7.8298,-1.235079 -17.0214,-4.910724 -23.0332,-9.210831 -12.9434,-9.25813 -21.205,-26.954165 -20.181,-43.226894 0.5811,-9.232515 3.2332,-17.15349 8.4484,-25.231833 6.4609,-10.008034 16.606,-17.1676728 29.2108,-20.6148037 4.3174,-1.18073442 5.9829,-1.37312579 12.0274,-1.38939717736 5.1054,-0.0137436726 8.1076,0.23429349736 11.025,0.91084401736 14.6144,3.38911806 27.1935,13.21200486 33.7973,26.39208186 14.5002,28.939704 -1.4267,63.634637 -32.795,71.440072 -4.6352,1.153384 -14.0769,1.628415 -18.4997,0.930761 z m 4.2172,-17.31096 0,-12.307019 -1.8793,0.01752 c -4.5383,0.04229 -13.656,2.195709 -13.656,3.225243 0,1.052118 3.3332,7.153012 5.9128,10.822393 1.9324,2.748747 8.9249,10.548874 9.4566,10.548874 0.091,-4e-6 0.1659,-5.538163 0.1659,-12.307024 z m 13.4806,3.228213 c 3.1003,-4.099224 7.5172,-12.236629 6.9504,-12.804778 -0.6016,-0.603014 -7.98,-2.193281 -11.7761,-2.538087 l -3.6435,-0.330941 0,12.484731 0,12.484727 2.796,-2.745641 c 1.5378,-1.510101 4.0908,-4.457609 5.6732,-6.550011 z m -25.4044,3.427624 c -2.1424,-2.831872 -4.9696,-7.239794 -6.2827,-9.795382 -1.3131,-2.555593 -2.5179,-4.646528 -2.6773,-4.646528 -0.6332,0 -10.1869,5.21208 -10.1869,5.557524 0,1.354182 10.2603,9.094295 14.4134,10.873104 1.4373,0.615596 7.8016,2.957262 8.5086,3.130669 0.066,0.01623 -1.6327,-2.287518 -3.7751,-5.119387 z m 32.017,2.585897 c 4.3796,-1.860861 9.2001,-4.938099 12.711,-8.114391 1.8029,-1.630996 3.278,-3.123386 3.278,-3.316409 0,-0.388038 -9.6182,-5.598128 -10.329,-5.595122 -0.245,8.03e-4 -0.8558,1.00197 -1.3573,2.224297 -1.257,3.064229 -4.5598,8.495717 -7.3124,12.025194 -1.2649,1.621962 -2.698,3.465785 -3.1846,4.097383 l -0.8848,1.148373 2.1852,-0.65921 c 1.2019,-0.362568 3.4042,-1.177118 4.8939,-1.810115 z m -42.8438,-23.055735 c -0.1453,-0.6907 -0.6128,-2.83815 -1.0389,-4.77211 -0.4261,-1.93396 -0.9191,-5.26816 -1.0954,-7.409328 l -0.3207,-3.893037 -8.6957,0 -8.6957,0 0,1.276997 c 0,4.589347 3.2136,14.51396 6.3001,19.456962 l 1.8116,2.901338 5.9995,-3.152502 c 5.566,-2.924763 5.9803,-3.243222 5.7352,-4.40832 z m 65.8879,1.255818 c 2.0285,-4.311536 3.6598,-9.894703 4.2319,-14.48452 l 0.3547,-2.845773 -8.7542,0 -8.7542,0 -0.3181,3.772647 c -0.175,2.074958 -0.8097,5.917525 -1.4105,8.539035 -0.6007,2.621509 -0.998,4.859478 -0.8829,4.973265 0.1151,0.113783 2.8028,1.581467 5.9725,3.261523 l 5.7631,3.054644 0.9535,-1.126101 c 0.5244,-0.619353 1.8043,-2.93448 2.8442,-5.14472 z m -50.905,-3.67956 7.5171,-1.343713 0.1408,-6.15351 0.1406,-6.15351 -10.3115,0 -10.3115,0 0.2483,1.632564 c 0.1366,0.897908 0.3858,2.875824 0.5539,4.395364 0.168,1.51954 0.6577,4.175594 1.0881,5.902346 0.935,3.750336 0.2136,3.636826 10.9342,1.720459 z m 31.5259,-2.222786 c 0.4705,-2.003032 1.0222,-5.393742 1.2261,-7.53491 l 0.3708,-3.893037 -10.1873,0 -10.1872,0 0.1407,6.15351 0.1407,6.15351 7.2665,1.316809 c 10.9832,1.990313 10.211,2.141305 11.2297,-2.195882 z m -48.6262,-20.454692 c 0.1831,-2.201914 0.8614,-6.04258 1.5072,-8.534819 0.845,-3.261173 1.0177,-4.653239 0.616,-4.966205 -0.3071,-0.239176 -2.9899,-1.732157 -5.9619,-3.317735 -4.2892,-2.288282 -5.5494,-2.761635 -6.1103,-2.295061 -1.1998,0.998144 -5.1793,9.606905 -6.236,13.490539 -0.5515,2.026705 -1.1537,5.021834 -1.3381,6.655837 l -0.3353,2.970916 8.7626,0 8.7627,0 0.3331,-4.003472 z m 24.7582,-2.146328 -0.1408,-6.149801 -7.5171,-1.357811 c -9.4824,-1.712819 -9.6818,-1.716171 -10.2673,-0.172676 -0.6032,1.590296 -1.8852,8.353467 -2.1693,11.444033 l -0.2193,2.386055 10.2272,0 10.2272,0 -0.1406,-6.1498 z m 25.1603,3.763745 c -0.01,-2.88587 -1.7504,-11.631811 -2.4588,-12.341921 -0.3426,-0.343403 -3.2815,-0.03777 -9.0439,0.940461 l -8.5364,1.449175 0,6.16917 0,6.16917 10.0228,0 10.0229,0 -0.01,-2.386055 z m 22.3187,-0.459718 c -0.7947,-6.375044 -3.9043,-15.213067 -6.7741,-19.252928 l -1.0593,-1.491117 -5.9865,3.008053 c -4.98,2.502326 -5.9861,3.197422 -5.984,4.134415 0,0.619502 0.5652,3.783256 1.2529,7.030561 0.6876,3.247309 1.2503,6.694529 1.2503,7.660492 l 0,1.756297 8.8277,0 8.8277,0 -0.3547,-2.845773 z m -47.3692,-26.901397 0,-12.1657131 -3.0442,2.9982391 c -3.7324,3.676148 -7.2655,8.319119 -9.9034,13.014422 -2.9994,5.339008 -3.0158,5.556769 -0.4699,6.269186 3.0864,0.863685 9.3483,1.951417 11.5382,2.004246 l 1.8793,0.04533 0,-12.165714 z m 12.3376,11.391157 c 4.4206,-0.769336 8.2092,-1.728753 8.2092,-2.078908 0,-0.100537 -0.8794,-1.935921 -1.9542,-4.07862 -2.3515,-4.688146 -6.9172,-10.902731 -10.7636,-14.650832 l -2.8176,-2.7456408 0,12.1642778 0,12.16428 1.4378,0 c 0.7908,0 3.4406,-0.348551 5.8884,-0.774557 z m -31.0972,-6.865866 c 1.8218,-3.865366 5.2867,-9.250909 8.4648,-13.1569706 l 2.4122,-2.964776 -1.6965,0.336077 c -3.5365,0.7005538 -8.7676,3.0800904 -12.9231,5.8784756 -3.9924,2.68852 -9.0447,7.228482 -8.5372,7.67146 0.6485,0.566159 9.8229,5.340563 10.2752,5.347278 0.2939,0.0044 1.1959,-1.395831 2.0046,-3.111544 z m 49.7853,0.539588 c 2.6432,-1.418938 4.9187,-2.686053 5.0565,-2.81581 0.4739,-0.446229 -6.2026,-6.204427 -9.7992,-8.451425 -3.373,-2.1072835 -10.8606,-5.2413158 -12.5221,-5.2413158 -0.4585,0 0.3844,1.4224343 2.2002,3.712862 3.2211,4.0629758 5.7291,8.0276088 7.8992,12.4871958 0.773,1.588608 1.6202,2.888382 1.8825,2.888382 0.2624,0 2.6397,-1.160951 5.2829,-2.579889 z"
style="fill:#303030"
id="path4418"
/>
</svg>
