<?xml version="1.0" encoding="UTF-8" standalone="no"?>
<svg
xmlns:cc="http://creativecommons.org/ns#"
xmlns:svg="http://www.w3.org/2000/svg"
xmlns:rdf="http://www.w3.org/1999/02/22-rdf-syntax-ns#"
xmlns="http://www.w3.org/2000/svg"
xmlns:dc="http://purl.org/dc/elements/1.1/"
xmlns:sodipodi="http://sodipodi.sourceforge.net/DTD/sodipodi-0.dtd"
xmlns:inkscape="http://www.inkscape.org/namespaces/inkscape"
>
<circle
r="49"
cx="50"
cy="50"
id="circle4631"
style="fill:#000000"
/>
<path
d="m 50.4011,0.401100000000042 0,13.2751 c 19.81579,0.055 35.86767,16.1069 35.92271,35.9227 l 13.27509,0 c -3e-5,-27.172 -22.02576,-49.1978 -49.1978,-49.1978 z m 35.92271,49.1978 0,0.1016 c -3e-5,-0.034 6e-5,-0.067 0,-0.1016 z"
id="path4635"
style="fill:#008751;fill-opacity:1;stroke:#f4ee73;stroke-width:0.80220228;stroke-opacity:1"
/>
<path
id="path4637"
style="fill:#ef6b00;fill-opacity:1;stroke:#f4ee73;stroke-width:0.8062191;stroke-opacity:1"
d="m 99.59689,49.9031 -13.27403,0 c -0.0552,20.0156 -16.10555,36.2292 -35.91975,36.2847 l 0,13.4091 c 27.16981,-10e-5 49.19378,-22.2477 49.19378,-49.6938 z m -49.19378,36.2847 -0.10163,0 c 0.0341,0 0.0675,10e-5 0.10163,0 z"
/>
<path
d="m 50.09487,99.5949000000001 0,-13.408 c -20.01396,-0.055 -36.22636,-16.268 -36.28193,-36.2823 l -13.40783,0 c 1e-5,27.4439 22.24602,49.6903 49.68976,49.6903 z m -36.28193,-49.6903 0,-0.1026 c 2e-5,0.035 -4e-5,0.067 0,0.1026 z"
id="path4639"
style="fill:#0054a0;fill-opacity:1;stroke:#f4ee73;stroke-width:0.81024092;stroke-opacity:1"
/>
<path
style="fill:#fcd116;fill-opacity:1;stroke:#f4ee73;stroke-width:0.80621928;stroke-opacity:1"
id="path4641"
d="m 0.403109999999998,49.5969 13.40893,0 c 0.0554,-19.8142 16.26926,-35.8648 36.28485,-35.9198 l 0,-13.274 c -27.44598,0 -49.69378,22.024 -49.69378,49.1938 z m 49.69378,-35.9198 0.10243,0 c -0.0344,0 -0.0682,0 -0.10243,0 z"
/>
<circle
cx="50"
cy="50"
style="fill:none;stroke:#f4ee73;stroke-width:2"
id="circle4652"
r="49"
/>
<path
d="m 60.44804,22.3377 c 0,-0.3253 -0.84843,-0.7094 -1.39459,-0.6313 -0.26678,0.038 -0.51832,0.2439 -0.55899,0.4573 -0.0617,0.3236 0.094,0.3878 0.93982,0.3878 0.55756,0 1.01376,-0.096 1.01376,-0.2138 z m 2.21665,0.7628 c 0,-0.4169 -0.82887,-0.8407 -1.29189,-0.6606 -0.317,0.1233 -0.28011,0.2224 0.25502,0.6852 0.63529,0.5495 1.03687,0.5399 1.03687,-0.025 z m -17.77327,0.9699 c -0.0973,-0.6537 -0.73504,-1.0328 -1.22139,-0.7261 -0.6178,0.3897 -0.55799,0.6524 0.20556,0.9027 1.06189,0.3482 1.0931,0.3428 1.01583,-0.1766 z m 19.32493,0.3924 c 0,-0.1679 -0.15385,-0.433 -0.34189,-0.589 -0.42135,-0.3498 -0.89303,0.023 -0.69199,0.5471 0.16424,0.4279 1.03388,0.4632 1.03388,0.042 z m -21.50159,-0.4129 c 0,-0.2146 -0.0843,-0.39 -0.18731,-0.39 -0.32903,0 -0.96985,0.8499 -0.82162,1.0898 0.2084,0.3372 1.00893,-0.2181 1.00893,-0.6998 z m 22.60993,1.7395 c 0,-0.1699 -0.16391,-0.3717 -0.36423,-0.4485 -0.46091,-0.1769 -0.56998,-0.068 -0.39311,0.3931 0.16996,0.4429 0.75734,0.4859 0.75734,0.055 z m -24.15143,-0.1535 c 0.28624,-0.5349 0.15613,-0.7573 -0.3331,-0.5696 -0.36965,0.1419 -0.48021,1.0319 -0.12819,1.0319 0.11763,0 0.32521,-0.2081 0.46129,-0.4623 z m 25.34065,2.5662 c 0.14396,-0.3752 -0.16085,-1.3252 -0.49055,-1.5289 -0.71346,-0.4409 -1.28861,0.9631 -0.65435,1.5973 0.36967,0.3697 0.99104,0.3325 1.1449,-0.068 z m -19.7124,-0.4071 c -0.27397,-1.27 -1.32066,-3.1186 -1.65039,-2.9148 -0.22412,0.1386 0.83541,3.4864 1.16852,3.6923 0.43805,0.2708 0.63829,-0.053 0.48187,-0.7775 z m -18.0517,-0.1451 c 0,-0.5688 -0.0836,-0.665 -0.57761,-0.665 l -0.5776,0 0.66022,-0.6168 c 0.36314,-0.3392 0.7346,-0.9626 0.82551,-1.3854 0.0908,-0.4227 0.26539,-0.9594 0.38777,-1.1925 0.20368,-0.3882 0.24741,-0.3647 0.51723,0.277 0.32416,0.7709 0.67325,0.8698 1.32669,0.3755 0.73199,-0.5536 0.79353,-0.3764 0.1874,0.5394 -0.51302,0.7753 -0.55252,0.9627 -0.33465,1.5877 0.30162,0.8652 0.24764,0.9326 -0.51449,0.6429 -0.85829,-0.3263 -0.92971,-0.301 -1.23547,0.4372 -0.1515,0.3657 -0.3631,0.6649 -0.47022,0.6649 -0.10713,0 -0.19478,-0.2992 -0.19478,-0.6649 z m 0.64429,1.8139 c 0.63866,-1.2518 0.96275,-1.4459 2.12452,-1.2716 1.12821,0.1691 1.24312,-0.025 0.66838,-1.1266 -0.48173,-0.9236 -0.4144,-1.4468 0.32709,-2.5412 0.36353,-0.5365 0.66278,-1.1 0.665,-1.2524 0.005,-0.3802 -0.92427,-0.3492 -1.44984,0.049 -0.69286,0.524 -1.09582,0.3982 -1.3976,-0.4363 -0.15429,-0.4267 -0.41498,-0.7759 -0.57931,-0.7759 -0.16695,0 -0.56828,0.7091 -0.90958,1.6071 -0.42883,1.1283 -0.89992,1.8938 -1.58125,2.5695 -1.08638,1.0775 -1.02559,1.5076 0.23023,1.6293 0.6027,0.058 0.71265,0.1639 0.76469,0.7333 0.17234,1.8856 0.47969,2.1061 1.13767,0.8164 z m 3.95403,1.0228 c 0.3791,-0.3147 0.3517,-0.8417 -0.0437,-0.8417 -0.65125,0 -1.45125,0.5216 -1.45125,0.9462 0,0.3602 0.1009,0.4065 0.60834,0.2792 0.33459,-0.084 0.73359,-0.2567 0.88666,-0.3837 z m 22.62859,-0.3063 c -0.0528,-0.4558 -0.22306,-0.6639 -0.61892,-0.7564 -0.53778,-0.1258 -0.53388,-0.1352 0.25707,-0.6241 0.6968,-0.4306 0.82322,-0.6423 0.9548,-1.599 0.14956,-1.0874 0.58348,-1.4782 0.8552,-0.7701 0.14876,0.3876 1.08212,0.4379 1.72673,0.093 0.65905,-0.3527 0.70779,-0.1368 0.17351,0.7688 -0.44754,0.7585 -0.45438,0.8395 -0.11473,1.3579 l 0.36121,0.5513 -0.93784,0 c -0.77892,0 -1.07733,0.1361 -1.76102,0.8038 l -0.82317,0.8038 -0.0728,-0.6289 z m 0.35675,1.9295 c 0.18158,-0.3512 0.59201,-0.9497 0.91206,-1.3301 0.54012,-0.6418 0.68401,-0.6916 2.00304,-0.6916 0.78162,0 1.42113,-0.054 1.42113,-0.1196 0,-0.065 -0.21095,-0.5331 -0.46877,-1.0385 l -0.46877,-0.9189 0.63001,-1.1646 c 0.3465,-0.6406 0.55809,-1.2366 0.4702,-1.3246 -0.088,-0.088 -0.54609,-0.044 -1.01821,0.097 -1.25668,0.3766 -1.59919,0.3243 -2.30753,-0.3524 -0.60705,-0.5798 -0.65273,-0.5898 -0.93643,-0.2036 -0.16404,0.2233 -0.41421,0.8893 -0.55592,1.4801 -0.20052,0.8358 -0.49938,1.2967 -1.34777,2.0782 -1.1754,1.0827 -1.3447,1.4665 -0.64678,1.4665 0.68492,0 1.32999,0.7885 1.32999,1.6256 0,1.2095 0.4661,1.3971 0.98375,0.3961 z m -10.73706,0.016 c 0,-0.3424 -0.14249,-0.8162 -0.31666,-1.0529 -0.29701,-0.4035 -0.3261,-0.4059 -0.46857,-0.038 -0.16593,0.428 0.27707,1.7139 0.59047,1.7139 0.10712,0 0.19476,-0.2802 0.19476,-0.6227 z m -14.90093,0.2776 c 0.60417,-0.4231 0.66128,-1.2066 0.088,-1.2066 -0.5072,0 -1.46593,0.9932 -1.26794,1.3136 0.20571,0.3328 0.60354,0.2967 1.17998,-0.107 z m 23.32425,0.4173 c 0,-0.4871 -0.63056,-0.3309 -1.0115,0.2505 -0.51497,0.786 -0.18045,1.163 0.48072,0.542 0.29192,-0.2743 0.53078,-0.6309 0.53078,-0.7925 z m -25.43845,1.424 c 0.4324,-0.3333 0.59576,-1.0844 0.26143,-1.2021 -0.33123,-0.1167 -1.42289,0.7754 -1.42289,1.1627 0,0.3904 0.67632,0.4133 1.16146,0.039 z m 12.36016,1.2824 c 0,-0.3609 -0.65967,-0.7836 -1.22307,-0.7836 -0.5066,0 -0.294,0.4974 0.35391,0.8279 0.70111,0.3577 0.86916,0.3491 0.86916,-0.044 z m 30.4634,-1.6198 c -0.16833,-1.039 -0.28525,-1.1623 -1.42071,-1.4972 l -0.77137,-0.2275 0.82696,-0.5111 c 1.15576,-0.7142 1.49161,-1.2875 1.49161,-2.5461 0,-1.0854 1.7e-4,-1.0858 0.49875,-0.7249 1.64529,1.1911 1.4377,1.1398 2.50781,0.6199 l 0.97883,-0.4756 -0.60728,1.1006 -0.60729,1.1005 0.50695,0.8932 0.50694,0.8932 -1.28278,-0.058 -1.28277,-0.058 -0.59612,1.2192 -0.59613,1.2191 -0.1534,-0.947 z m 1.02797,0.9688 0.87272,-1.8623 0.94164,0.2775 c 2.60324,0.7671 2.7766,0.6615 1.79529,-1.0942 -0.72265,-1.293 -0.7186,-2.0263 0.0176,-3.1926 0.31325,-0.4962 0.56955,-1.0039 0.56955,-1.1283 0,-0.32 -0.54915,-0.2804 -1.47501,0.1065 -1.0938,0.4569 -1.55088,0.42 -2.63114,-0.2131 -1.17382,-0.688 -1.48951,-0.4791 -1.85167,1.2247 -0.22148,1.0419 -0.45025,1.4191 -1.47465,2.4308 -0.66687,0.6585 -1.2125,1.2744 -1.2125,1.3686 0,0.094 0.41958,0.2382 0.93239,0.3203 1.31237,0.2099 1.87642,0.8585 2.06598,2.3756 0.0859,0.6868 0.25077,1.2488 0.36654,1.2488 0.11578,0 0.60324,-0.838 1.08323,-1.8623 z m -16.84578,2.6194 c 0.25608,-0.3086 0.2142,-0.3424 -0.34368,-0.2771 -0.3494,0.04 -0.67621,0.1989 -0.72626,0.3513 -0.13217,0.4025 0.72355,0.3431 1.06994,-0.075 z m -5.87944,-0.037 c 0.0713,-0.3353 0.47852,-1.8066 0.90493,-3.2696 1.34198,-4.6042 3.63306,-8.8303 5.8847,-10.8547 0.62192,-0.5592 1.06587,-1.0816 0.98655,-1.1609 -0.0794,-0.08 -0.75569,0.1478 -1.50305,0.5049 -2.69558,1.2877 -4.74447,4.4801 -5.95731,9.2824 -0.73123,2.8953 -1.09662,6.1074 -0.69476,6.1074 0.13711,0 0.30765,-0.2743 0.37894,-0.6095 z m -1.35626,-3.1397 c -0.73417,-4.0113 -1.09813,-5.1174 -1.68377,-5.1174 -0.22921,0 -0.11264,0.8231 0.48661,3.4359 0.2237,0.9753 0.47551,2.3717 0.55958,3.1033 0.0841,0.7315 0.30227,1.679 0.48489,2.1057 l 0.33202,0.776 0.18593,-0.646 c 0.12724,-0.4421 0.0119,-1.5966 -0.36526,-3.6575 z m 1.7264,4.4696 c 0.67573,-0.7746 2.36893,-3.9007 2.23243,-4.1215 -0.17917,-0.2899 -1.51651,1.2424 -2.09785,2.4036 -0.87794,1.7538 -0.9482,2.6507 -0.13458,1.7179 z m -3.59465,0.1614 c 0,-0.9053 -2.57372,-5.3432 -4.29527,-7.4063 -1.24857,-1.4963 -3.2539,-2.9328 -4.35342,-3.1186 -1.00305,-0.1694 -2.94916,0.2173 -3.31567,0.6589 -0.18824,0.2269 0.0297,0.3182 1.04193,0.437 0.70398,0.083 1.79853,0.3984 2.43233,0.7019 1.5664,0.7501 4.57711,3.8361 6.51874,6.6816 1.41694,2.0766 1.97136,2.6519 1.97136,2.0455 z m 1.19109,-0.3512 c -0.0401,-0.9161 -0.95538,-4.195 -1.30416,-4.6719 -0.16171,-0.2212 -0.36037,-0.3358 -0.44147,-0.2546 -0.13597,0.136 0.52126,3.3078 1.03955,5.017 0.26559,0.8759 0.74569,0.8142 0.70608,-0.09 z m 4.89955,-0.6167 c 2.88707,-2.9795 7.12856,-5.4555 9.34561,-5.4555 0.95594,0 1.99254,0.5924 2.86664,1.638 1.34725,1.6117 1.87281,1.2005 1.0075,-0.7884 -1.38979,-3.1943 -4.82708,-3.5008 -8.90496,-0.7941 -1.8301,1.2148 -4.71748,3.992 -5.73592,5.5171 -0.49565,0.7423 -0.90119,1.438 -0.90119,1.5459 0,0.5207 0.67399,0.038 2.32232,-1.663 z m -22.86475,1.3644 c 0.52464,-0.7034 0.3989,-0.9456 -0.38828,-0.7481 -0.60176,0.1511 -1.12343,0.8871 -0.89296,1.26 0.22749,0.3681 0.79351,0.142 1.28124,-0.5119 z m 16.32863,1.1047 c -0.006,-0.7485 -3.53513,-4.3701 -4.26492,-4.3765 -0.46599,0 0.0206,0.6556 1.88417,2.5547 2.04675,2.0858 2.38481,2.3444 2.38075,1.8218 z m 5.37376,0.2495 c 0.57782,-0.3094 2.9165,-2.1932 3.00798,-2.4231 0.13307,-0.3345 -0.40098,-0.4459 -0.88793,-0.1853 -0.62667,0.3354 -2.83668,2.414 -2.83668,2.6681 0,0.2522 0.15841,0.239 0.71663,-0.06 z m -6.0366,0.4761 c 0,-0.3656 -2.15315,-1.9428 -4.06222,-2.9755 -3.93942,-2.1312 -6.97643,-2.423 -9.83327,-0.945 -1.34319,0.695 -1.03631,0.7816 2.31157,0.6529 2.70901,-0.1041 3.4998,-0.06 4.58677,0.2561 1.2894,0.3748 4.46758,1.891 5.77798,2.7563 0.73527,0.4857 1.21917,0.5869 1.21917,0.2552 z m 21.08185,-0.01 c 0.25328,-0.9102 0.21639,-2.3301 -0.068,-2.6144 -0.1463,-0.1463 -0.44728,-0.2661 -0.66885,-0.2661 -0.35503,0 -0.39932,0.1908 -0.37317,1.6072 0.0163,0.8838 0.0772,1.6873 0.13534,1.7855 0.20888,0.3528 0.82385,0.03 0.97461,-0.5122 z m -44.70366,-2.0492 c 0.14166,-0.8103 0.12837,-0.8313 -0.52974,-0.8313 -0.89309,0 -0.85238,-0.2469 0.12766,-0.7747 0.51422,-0.277 0.96955,-0.7758 1.26695,-1.3879 0.41043,-0.8448 0.48377,-0.9027 0.6328,-0.4998 0.23225,0.6279 0.76035,0.7815 1.7648,0.5134 0.469,-0.1253 0.85273,-0.2053 0.85273,-0.1781 0,0.027 -0.29312,0.4184 -0.65139,0.8693 l -0.65139,0.8196 0.42185,0.9841 c 0.4972,1.16 0.32805,1.2219 -1.08131,0.396 l -1.0037,-0.5882 -0.64728,0.7544 -0.64728,0.7545 0.1453,-0.8313 z m 0.69135,1.0703 0.67697,-0.8447 1.14441,0.5799 c 1.52191,0.7713 1.91853,0.7644 1.73474,-0.03 -0.43038,-1.8595 -0.4115,-2.2059 0.17474,-3.2062 0.80294,-1.3701 0.76416,-1.5911 -0.25159,-1.4342 -0.45718,0.07 -1.03574,0.19 -1.28568,0.2651 -0.37379,0.1124 -0.53113,-0.033 -0.88667,-0.8196 -0.23772,-0.5261 -0.52885,-0.9564 -0.64695,-0.9564 -0.11811,0 -0.39911,0.4966 -0.62447,1.1036 -0.51534,1.3879 -0.64533,1.5398 -2.13286,2.4913 -1.13972,0.7291 -1.19102,0.7989 -0.7985,1.0859 0.23071,0.1687 0.64978,0.3067 0.93126,0.3067 0.48689,0 0.51217,0.078 0.51918,1.607 0.008,1.8 -0.1277,1.814 1.44542,-0.1488 z m 5.23514,1.7216 c 0.4386,-0.397 0.53763,-1.077 0.18829,-1.2928 -0.3233,-0.1999 -1.06293,0.2663 -1.22304,0.7708 -0.27382,0.8627 0.32466,1.1646 1.03475,0.522 z m 20.53825,0.8102 c 0.23225,0 0.6922,0.2123 1.02213,0.4719 0.71311,0.5608 0.96321,0.3929 1.23964,-0.8327 0.20551,-0.9112 0.13163,-1.0928 -0.98062,-2.41 l -0.56149,-0.6651 -0.008,0.6097 c -0.009,0.7044 -0.43742,0.8214 -0.60874,0.1662 -0.13577,-0.5192 -0.90574,-0.5973 -1.09239,-0.1108 -0.0702,0.1828 -0.25984,0.3324 -0.42144,0.3324 -0.16162,0 -0.3572,0.1997 -0.43464,0.4436 -0.0774,0.244 -0.33352,0.5468 -0.5691,0.6729 -0.51388,0.275 -0.52557,0.4384 -0.10359,1.4483 l 0.32473,0.7771 0.8856,-0.4517 c 0.48709,-0.2485 1.07563,-0.4518 1.30789,-0.4518 z m 2.25538,1.1084 c 0,-0.122 -0.0998,-0.2217 -0.22167,-0.2217 -0.12192,0 -0.22167,0.099 -0.22167,0.2217 0,0.1218 0.0998,0.2215 0.22167,0.2215 0.12192,0 0.22167,-0.099 0.22167,-0.2215 z m -24.20592,0.3989 c 0.31397,-0.314 0.3557,-1.4257 0.0604,-1.6082 -0.11309,-0.07 -0.475,0.1046 -0.80424,0.3878 -0.45279,0.3895 -0.56105,0.6332 -0.44443,1.0007 0.16824,0.5301 0.76719,0.6408 1.18829,0.2197 z m 39.79203,0.5431 c 0.0526,-0.091 0.16449,-0.6408 0.24859,-1.2208 0.12614,-0.8701 0.0884,-1.0794 -0.2158,-1.1961 -0.21012,-0.081 -0.45296,-0.01 -0.56459,0.1679 -0.22936,0.3623 -0.27029,2.0521 -0.0549,2.2675 0.19603,0.196 0.46821,0.1875 0.58672,-0.019 z m -0.0695,1.4691 c 0,-0.4251 -0.11327,-0.6378 -0.33945,-0.6378 -0.44211,0 -0.63156,0.5203 -0.45115,1.2391 0.11853,0.4723 0.20081,0.526 0.46724,0.3049 0.17785,-0.1476 0.32336,-0.5553 0.32336,-0.9062 z m -11.0833,3.1659 c 0,-0.9617 -1.23973,-3.2389 -2.13498,-3.9218 -0.82701,-0.6308 -2.22098,-1.0732 -2.41132,-0.7652 -0.0608,0.098 0.36363,0.5292 0.94326,0.9571 0.68426,0.5053 1.44261,1.405 2.16221,2.5655 0.60959,0.983 1.18315,1.7889 1.27459,1.7906 0.0915,0 0.16624,-0.28 0.16624,-0.6262 z m -8.75902,0.685 c 0.0702,-0.4572 0.37399,-1.6988 0.67503,-2.7591 0.63136,-2.2238 0.70339,-3.2814 0.22349,-3.2814 -0.48719,0 -1.12987,0.7941 -1.4162,1.7498 -0.27204,0.908 -0.35431,4.727 -0.10715,4.9742 0.31693,0.3169 0.5023,0.1141 0.62483,-0.6835 z m 29.28931,3.6137 c 0.21109,-0.5501 -0.37824,-5.2303 -0.93626,-7.4356 -1.33142,-5.2616 -4.18578,-8.6195 -8.09281,-9.5202 -2.77185,-0.6391 -6.46228,-0.068 -9.85969,1.5231 -2.104,0.986 -4.96651,2.8069 -4.96651,3.1593 0,0.1256 0.12468,0.1815 0.27708,0.1243 0.1524,-0.057 0.52646,-0.1755 0.83124,-0.2626 0.43668,-0.1248 0.38969,-0.054 -0.22166,0.3361 -0.45215,0.2882 -0.65863,0.5348 -0.49491,0.591 0.1545,0.053 1.45125,-0.1188 2.88165,-0.382 4.04001,-0.7436 3.71831,-0.6441 3.33203,-1.0303 -0.28603,-0.2862 -0.64012,-0.3015 -2.40539,-0.1044 -1.13851,0.1271 -2.11617,0.185 -2.1726,0.1285 -0.0564,-0.056 0.75928,-0.5008 1.81266,-0.9875 5.29288,-2.4452 8.81392,-2.7248 12.16166,-0.9657 3.61037,1.8973 5.68207,5.7699 6.94672,12.9856 0.35703,2.0371 0.62365,2.5782 0.90679,1.8404 z m -54.00184,-0.4464 c 0,-0.7096 -0.12759,-1.1077 -0.4518,-1.4098 l -0.4518,-0.4209 0.58115,-0.3808 c 0.52129,-0.3415 0.79753,-0.8148 1.30098,-2.229 0.15211,-0.4272 0.17049,-0.4244 0.55632,0.087 0.40501,0.5369 0.58366,0.547 2.00325,0.1129 0.5214,-0.1594 0.51005,-0.1184 -0.25572,0.9248 l -0.8013,1.0916 0.41266,0.7753 c 0.58557,1.1 0.53919,1.1718 -0.43582,0.6744 l -0.86707,-0.4424 -0.7077,1.1029 c -0.38923,0.6065 -0.74717,1.1028 -0.79542,1.1028 -0.0483,0 -0.0877,-0.445 -0.0877,-0.9889 z m 0.87346,1.0913 c 0.69024,-0.865 1.08238,-1.1854 1.32763,-1.0848 1.05603,0.4329 2.26936,0.7975 2.35828,0.7085 0.0561,-0.056 -0.15578,-0.6649 -0.47083,-1.3531 -0.65413,-1.4289 -0.61931,-1.6652 0.50401,-3.4212 0.90944,-1.4217 0.76235,-1.8076 -0.48963,-1.2844 -1.26989,0.5306 -1.8483,0.4506 -2.28448,-0.316 -0.20768,-0.3649 -0.45494,-0.6642 -0.54945,-0.665 -0.0945,0 -0.51216,0.7454 -0.92811,1.6582 -0.63737,1.3986 -0.91528,1.7555 -1.76773,2.2704 -0.55631,0.3361 -1.01147,0.7242 -1.01147,0.8627 0,0.1385 0.30307,0.3774 0.67348,0.5309 0.82674,0.3423 1.03164,0.7057 1.22652,2.1747 0.0837,0.6307 0.21513,1.1467 0.29216,1.1467 0.0771,0 0.58086,-0.5524 1.11962,-1.2276 z m 43.06902,1.4022 c 0.1487,-0.446 -0.0916,-1.3069 -0.34148,-1.2236 -0.38899,0.1297 -0.67702,0.7445 -0.52921,1.1297 0.16224,0.4228 0.74028,0.4852 0.87069,0.094 z m -19.11755,0.2655 c -0.24292,-0.4762 -0.44168,-0.9197 -0.44168,-0.9854 0,-0.065 0.399,-0.1197 0.88667,-0.1197 0.48767,0 0.88667,-0.091 0.88667,-0.2022 0,-0.1112 -0.399,-0.2696 -0.88667,-0.3519 -0.48767,-0.083 -0.88667,-0.2111 -0.88667,-0.286 0,-0.075 0.31737,-0.4637 0.70527,-0.8639 0.72622,-0.7493 0.72541,-1.3164 -8.9e-4,-0.6591 -0.65467,0.5925 -0.91244,0.4564 -0.77221,-0.4077 0.16808,-1.0358 -0.30702,-1.0335 -0.50136,0 -0.20509,1.0932 -0.42263,1.1202 -0.82255,0.1025 -0.19028,-0.4841 -0.45369,-0.8804 -0.58542,-0.8804 -0.32971,0 -0.31391,0.069 0.3088,1.3604 l 0.5483,1.1365 -1.00951,-0.1383 c -1.19294,-0.1636 -1.26609,0.2369 -0.11413,0.6248 l 0.72201,0.2431 -0.79081,0.7196 c -1.01043,0.9195 -1.03284,1.3894 -0.0297,0.6243 0.96209,-0.7338 1.03053,-0.7271 0.86819,0.085 -0.0787,0.3936 -0.0401,0.665 0.0947,0.665 0.12522,0 0.332,-0.2992 0.45951,-0.665 0.1275,-0.3658 0.28485,-0.665 0.34968,-0.665 0.0649,0 0.32321,0.4025 0.57419,0.8944 0.25099,0.492 0.55151,0.8357 0.66785,0.7638 0.12284,-0.076 0.0263,-0.4937 -0.23016,-0.9964 z m 28.81822,0.238 c 0,-0.1148 0.0998,-0.2703 0.22167,-0.3456 0.12191,-0.076 0.22166,0.019 0.22166,0.2085 0,0.1901 -0.0998,0.3456 -0.22166,0.3456 -0.12192,0 -0.22167,-0.094 -0.22167,-0.2085 z m 0.88667,-0.2688 c 0,-1.1848 -0.3861,-1.5817 -1.02389,-1.0524 -0.26179,0.2173 -0.32469,0.5464 -0.24298,1.2714 0.20546,1.8229 1.26687,1.6393 1.26687,-0.219 z m -46.8838,0.09 c 0.27918,-2.8875 0.59179,-4.1717 1.4434,-5.9296 1.73816,-3.588 4.24187,-5.7539 7.68921,-6.6518 1.42235,-0.3705 4.65612,-0.4388 5.16629,-0.109 0.27306,0.1764 0.24979,0.2154 -0.13015,0.2182 -1.03093,0.01 -3.85134,2.5376 -4.55813,4.0889 -0.43629,0.9575 -0.0281,0.9092 1.0828,-0.1282 1.09947,-1.0267 3.19532,-2.5171 4.43674,-3.1551 0.86241,-0.4432 0.91662,-0.7444 0.16778,-0.9325 -0.30395,-0.077 -0.49628,-0.2298 -0.42738,-0.3413 0.194,-0.3139 -1.27164,-0.8333 -3.1324,-1.11 -5.61345,-0.835 -10.58978,2.7042 -12.19781,8.6749 -0.39936,1.4829 -0.57396,5.7344 -0.26626,6.4838 0.31586,0.7692 0.58396,0.3598 0.72591,-1.1083 z m 38.34466,-1.2582 c -0.36026,-2.1545 -1.31425,-5.2299 -2.10233,-6.7773 -0.78567,-1.5426 -2.39323,-3.4723 -3.45663,-4.1492 -1.79852,-1.1449 -3.32592,-1.4682 -6.28403,-1.33 -2.85255,0.1332 -4.88779,0.6321 -4.88779,1.198 0,0.3142 0.27217,0.339 2.28974,0.2086 5.86091,-0.379 8.97975,1.1648 11.52901,5.7064 1.13883,2.0289 1.18977,2.231 0.68857,2.7322 -0.18936,0.1894 -0.31405,0.5485 -0.27708,0.7981 0.0897,0.606 0.62137,0.7664 0.62137,0.1875 0,-0.2468 0.0885,-0.5034 0.19653,-0.5702 0.10808,-0.066 0.52128,1.1991 0.91821,2.8132 0.39694,1.614 0.78232,3.0343 0.8564,3.1563 0.30688,0.505 0.25065,-1.9246 -0.092,-3.9736 z m -9.85913,3.4537 c 0,-1.0663 -0.439,-1.8077 -1.07037,-1.8077 -0.49446,0 -0.25616,-0.4093 0.5162,-0.8866 0.68456,-0.4231 0.77623,-0.5882 0.77923,-1.4035 0.002,-0.5081 0.0956,-1.0698 0.2083,-1.248 0.16858,-0.2664 0.28873,-0.2173 0.67769,0.2771 0.49728,0.6322 1.07283,0.7528 1.78175,0.3735 0.39608,-0.212 0.41657,-0.1625 0.29783,0.7204 -0.10581,0.7866 -0.0279,1.0939 0.4577,1.8053 0.32188,0.4714 0.53711,0.9053 0.47829,0.9641 -0.0588,0.059 -0.46804,-0.012 -0.90939,-0.1579 -1.27242,-0.4199 -1.732,-0.1787 -2.30819,1.2115 -0.27946,0.6741 -0.59831,1.2258 -0.70858,1.2258 -0.11025,0 -0.20046,-0.4833 -0.20046,-1.074 z m 0.34313,2.0127 c 0.12778,-0.09 0.50911,-0.6419 0.84742,-1.2274 0.74761,-1.2939 1.24057,-1.5099 2.76006,-1.2095 0.63819,0.1262 1.23044,0.1593 1.31611,0.074 0.0857,-0.086 -0.0328,-0.4736 -0.26327,-0.8618 -0.23048,-0.3884 -0.62095,-1.0637 -0.86773,-1.5007 l -0.4487,-0.7945 0.51296,-1.2639 c 0.28212,-0.6951 0.44882,-1.3279 0.37043,-1.4064 -0.0784,-0.079 -0.70826,0.092 -1.39971,0.3786 l -1.25717,0.521 -0.83156,-0.937 c -0.78193,-0.8811 -0.84563,-0.9107 -1.06759,-0.496 -0.12982,0.2426 -0.23824,0.722 -0.24092,1.0653 -0.009,1.231 -0.77882,2.4641 -1.86709,2.9927 -0.55533,0.2699 -1.0097,0.5691 -1.0097,0.6651 0,0.096 0.37041,0.3293 0.82314,0.5184 1.1962,0.4999 1.56519,0.9176 1.72607,1.9539 0.26424,1.7023 0.37654,1.8935 0.89725,1.5285 z m -28.77552,0.1142 c 0.43252,-0.5528 0.46315,-1.274 0.0745,-1.7539 -0.50177,-0.6197 -0.90202,-0.36 -0.90202,0.5852 0,1.2789 0.35214,1.7763 0.82751,1.1687 z m 46.61447,0.045 c 0.34861,-0.6514 0.18645,-1.855 -0.26136,-1.9397 -0.51402,-0.097 -0.97498,1.3068 -0.6366,1.939 0.30833,0.5761 0.58987,0.5763 0.89796,0 z m -39.33778,-0.4072 c -0.47926,-0.9267 -0.45885,-0.9603 0.53421,-0.8761 1.15598,0.097 1.16953,-0.3183 0.0179,-0.5483 -0.49389,-0.098 -0.89797,-0.2545 -0.89797,-0.3464 0,-0.092 0.29925,-0.4538 0.665,-0.8043 0.8036,-0.7699 0.87512,-1.1861 0.11862,-0.6904 -0.82232,0.5388 -0.99203,0.448 -0.84592,-0.4523 0.0946,-0.5826 0.0595,-0.7658 -0.12477,-0.6519 -0.14095,0.087 -0.25627,0.2457 -0.25627,0.3525 0,0.1068 -0.11086,0.475 -0.24637,0.8182 l -0.24639,0.6239 -0.40953,-0.9421 c -0.22524,-0.518 -0.51336,-0.942 -0.64028,-0.942 -0.32008,0 -0.30259,0.075 0.31755,1.3605 l 0.5483,1.1365 -1.00951,-0.1384 c -1.18971,-0.1631 -1.26728,0.2365 -0.12084,0.6225 l 0.71531,0.2408 -0.78412,0.7601 c -1.00203,0.9712 -1.01674,1.3464 -0.0231,0.5885 0.41858,-0.3193 0.8113,-0.5805 0.87273,-0.5805 0.0614,0 0.055,0.3491 -0.0142,0.7758 -0.16447,1.0135 0.0871,0.9896 0.5213,-0.05 l 0.34491,-0.8255 0.58352,0.9881 c 0.65088,1.1021 0.97927,0.7394 0.37993,-0.4196 z m 3.29104,-1.0234 c 0.3664,-4.2192 2.52958,-9.7634 5.16099,-13.2277 0.52546,-0.6918 0.95537,-1.3152 0.95537,-1.3853 0,-0.331 -0.69254,-0.058 -1.58842,0.626 -2.8498,2.176 -5.32111,8.4167 -5.3633,13.5437 -0.0309,3.7498 0.52271,4.0436 0.83536,0.4433 z m 28.90314,2.0881 c 0.0863,-1.3263 -0.49327,-2.1718 -1.15588,-1.6863 -0.30885,0.2263 -0.42485,0.5817 -0.42485,1.3015 0,1.2527 0.18967,1.5534 0.92606,1.4682 0.52996,-0.061 0.59524,-0.1694 0.65467,-1.0834 z m -39.10293,2.1054 c 0.152,-0.396 0.18376,-1.6443 0.0419,-1.6443 -0.051,0 -0.23776,-0.056 -0.41504,-0.1237 -0.22102,-0.085 -0.35904,0.068 -0.43917,0.4875 -0.20799,1.0881 0.47381,2.1628 0.81237,1.2805 z m 46.19778,-0.6087 c 0.0682,-1.0454 -0.0903,-1.2567 -0.57739,-0.7696 -0.46964,0.4696 -0.25114,2.0553 0.26005,1.8873 0.13738,-0.046 0.28018,-0.5481 0.31734,-1.1177 z m -6.97781,1.8117 c 0.32411,-0.5138 -0.004,-1.5173 -0.49607,-1.5173 -0.65704,0 -0.94557,1.2019 -0.41572,1.7318 0.3202,0.3201 0.61888,0.2499 0.91179,-0.2145 z m -29.33471,-0.6355 c -0.17967,-0.3356 -0.18902,-0.5572 -0.0302,-0.716 0.1588,-0.1589 0.27626,-0.046 0.37966,0.3666 0.19301,0.7691 -0.0141,0.976 -0.34943,0.3494 z m 0.85891,0.6346 c 0.24078,-0.6509 0.0671,-1.4144 -0.42233,-1.8573 -0.54971,-0.4976 -0.87733,-0.2358 -0.87733,0.701 0,1.4319 0.90113,2.2336 1.29966,1.1563 z m 8.74918,0.1353 0.29918,-0.8642 0.53389,0.9345 c 0.78587,1.3757 1.2414,1.1978 0.51754,-0.202 -0.43943,-0.8497 -0.29632,-0.9914 0.69455,-0.6872 0.68047,0.2088 0.77928,0.1938 0.72024,-0.1093 -0.0376,-0.1932 -0.4519,-0.4601 -0.92055,-0.5929 l -0.8521,-0.2414 1.01835,-0.7617 c 0.56009,-0.4189 1.01835,-0.9041 1.01835,-1.0784 0,-0.2636 -0.093,-0.2567 -0.55417,0.042 -0.30479,0.1969 -0.82119,0.5307 -1.14757,0.7417 -0.59269,0.3833 -0.59321,0.3831 -0.4347,-0.1662 0.0873,-0.3025 0.22026,-0.8896 0.2955,-1.3048 0.19879,-1.097 -0.25297,-0.697 -0.59579,0.5275 -0.15448,0.5517 -0.36598,1.0032 -0.47,1.0032 -0.10402,0 -0.45956,-0.5237 -0.79011,-1.1638 -0.38838,-0.7521 -0.62956,-1.0324 -0.68177,-0.7926 -0.0444,0.2042 0.12459,0.7739 0.37559,1.2658 0.251,0.492 0.45636,0.9496 0.45636,1.0169 0,0.067 -0.399,0.058 -0.88665,-0.02 -1.17092,-0.1872 -1.15511,0.2076 0.0225,0.5604 l 0.90909,0.2724 -0.943,0.6936 c -1.08503,0.7978 -0.81636,1.1006 0.34163,0.3849 l 0.77432,-0.4785 -0.14013,1.0698 c -0.16025,1.2234 0.005,1.2047 0.43952,-0.05 z m -3.8793,0.7022 c 0.0866,-0.4468 -0.369,-1.0731 -0.65301,-0.8976 -0.23192,0.1434 -0.26357,1.0628 -0.0441,1.2822 0.23999,0.24 0.6163,0.032 0.69716,-0.3846 z m -15.08519,0.2861 c 0.10704,-0.5559 -0.35251,-1.5316 -0.72133,-1.5316 -0.24408,0 -0.33798,0.2359 -0.33798,0.8496 0,0.4673 0.0699,0.9197 0.15544,1.0052 0.2557,0.2557 0.83207,0.05 0.90387,-0.3232 z m 38.72972,0.7958 c 0,-0.4319 -0.12407,-0.6828 -0.36003,-0.7283 -0.43259,-0.083 -0.65354,0.3973 -0.48282,1.0502 0.1902,0.7273 0.84285,0.478 0.84285,-0.3219 z m -28.59368,0.5521 c 0.21292,-0.3444 -0.10349,-1.1062 -0.45949,-1.1062 -0.20508,0 -0.31757,0.2355 -0.31757,0.6649 0,0.6591 0.47558,0.9292 0.77706,0.4413 z m 28.63007,1.6497 c 0.1551,-0.4042 -0.22815,-0.8741 -0.55044,-0.6748 -0.26023,0.1607 -0.0796,1.0222 0.21436,1.0222 0.11152,0 0.26275,-0.1563 0.33608,-0.3474 z m -28.74213,0 c 0,-0.3216 -0.0959,-0.5079 -0.22167,-0.4302 -0.12191,0.076 -0.22166,0.3307 -0.22166,0.5673 0,0.2366 0.0998,0.4302 0.22166,0.4302 0.12192,0 0.22167,-0.2553 0.22167,-0.5673 z m 13.9136,0.5255 c 0.11661,-5.5313 -0.21269,-12.3681 -0.74537,-15.4748 -0.42901,-2.5021 -1.26265,-4.972 -2.21665,-6.5673 -0.80889,-1.3529 -2.20313,-2.92 -2.41193,-2.7112 -0.0661,0.066 0.26526,0.9588 0.73626,1.9839 2.46144,5.3572 3.35307,10.8899 3.71187,23.0329 0.081,2.7431 0.19571,5.071 0.2548,5.173 0.39085,0.6752 0.57334,-0.8032 0.67102,-5.4365 z m -13.38315,6.3412 c 0.074,-0.1929 0.13455,-0.6916 0.13455,-1.1083 0,-0.4168 0.0755,-0.7577 0.16786,-0.7577 0.0923,0 0.439,0.4489 0.77037,0.9975 0.33139,0.5486 0.70472,0.9975 0.82964,0.9975 0.34285,0 0.27796,-0.2464 -0.32126,-1.2192 -0.30036,-0.4877 -0.54923,-0.9624 -0.55303,-1.0549 -0.004,-0.092 0.5417,-0.1037 1.21224,-0.025 1.63158,0.1918 1.62295,-0.2458 -0.0115,-0.5852 l -1.2307,-0.2554 0.94077,-1.0206 c 0.51742,-0.5614 0.83053,-1.0574 0.69578,-1.1023 -0.13473,-0.044 -0.65014,0.3477 -1.14535,0.8725 -0.99202,1.0513 -1.06555,0.9531 -0.69685,-0.9301 0.11061,-0.565 0.11175,-1.0834 0.003,-1.1957 -0.1927,-0.1984 -0.26844,0.015 -0.62095,1.7499 l -0.18016,0.8867 -0.45876,-1.0243 c -0.44393,-0.9912 -0.86349,-1.466 -1.09282,-1.2366 -0.061,0.061 0.14508,0.6164 0.45807,1.234 0.313,0.6176 0.56907,1.1762 0.56907,1.2412 0,0.065 -0.399,0.1182 -0.88666,0.1182 -0.48766,0 -0.88666,0.098 -0.88666,0.2191 0,0.1204 0.399,0.2828 0.88666,0.3608 0.48766,0.078 0.88666,0.2209 0.88666,0.3178 0,0.096 -0.40945,0.5266 -0.90989,0.9549 -1.15804,0.9912 -1.05541,1.531 0.11434,0.6014 0.47109,-0.3744 0.89879,-0.6807 0.95046,-0.6807 0.0517,0 0.0266,0.4488 -0.0556,0.9975 -0.14656,0.9774 0.13964,1.4067 0.4312,0.6469 z m 13.32367,1.2372 c 0.18259,-0.5752 -0.0748,-1.3786 -0.40673,-1.2693 -0.14204,0.047 -0.29109,0.3088 -0.33121,0.5824 -0.14767,1.0071 0.45754,1.5705 0.73794,0.6869 z m -0.55417,2.4384 c 0,-0.2439 0.0998,-0.4434 0.22167,-0.4434 0.12192,0 0.22167,0.1995 0.22167,0.4434 0,0.2439 -0.0998,0.4433 -0.22167,0.4433 -0.12192,0 -0.22167,-0.1994 -0.22167,-0.4433 z m 0.65721,0.9013 c 0.34291,-0.6409 0.27698,-1.6943 -0.12703,-2.0295 -0.30289,-0.2515 -0.40287,-0.2325 -0.665,0.126 -0.37872,0.5179 -0.40316,1.7055 -0.0425,2.0662 0.37169,0.3717 0.56911,0.3332 0.83454,-0.1627 z m -0.0982,2.1801 c 0.19864,-0.9044 -0.22943,-1.3838 -0.68473,-0.767 -0.33667,0.4562 -0.41526,1.0607 -0.1698,1.3061 0.33944,0.3395 0.71338,0.1036 0.85453,-0.5391 z"
style="fill:#f4ee73;fill-opacity:1"
id="path4864"
/>
</svg>
