<?xml version="1.0" encoding="UTF-8" standalone="no"?>
<svg
xmlns:dc="http://purl.org/dc/elements/1.1/"
xmlns:rdf="http://www.w3.org/1999/02/22-rdf-syntax-ns#"
xmlns="http://www.w3.org/2000/svg"
xmlns:svg="http://www.w3.org/2000/svg"
xmlns:cc="http://creativecommons.org/ns#"
xmlns:inkscape="http://www.inkscape.org/namespaces/inkscape"
xmlns:sodipodi="http://sodipodi.sourceforge.net/DTD/sodipodi-0.dtd"
>
<path
style="fill:#303030"
id="path2987"
d="m 48.43968,2.2882896 c -0.785,-0.67244 -2.0254,-1.27489 -3.907,-1.7786 -12.0424,-3.2266 -3.0777,9.7954294 -15.12,13.0220394 -12.0414,3.22535 -10.7835,-12.5308294 -19.5962,-3.7184394 -8.8157,8.8148894 6.9433,7.5556194 3.7167,19.5964894 -3.2269,12.04149 -16.25,3.07786 -13.0236,15.11873 3.2269,12.04152 10.0204,-2.23981 18.8359,6.57512 8.8155,8.8148 -5.4669,15.608 6.5754,18.834 12.0423,3.2266 3.0777,-9.7954 15.12,-13.022 12.0423,-3.2266 10.7831,12.5308 19.5987,3.7159 8.8156,-8.8143 -6.9433,-7.5556 -3.7166,-19.59647 3.2268,-12.0415 16.25,-3.07787 13.0235,-15.11874 -3.2268,-12.0415 -10.0203,2.23981 -18.8359,-6.57508 -7.4379,-7.4375 1.5704,-13.4263794 -2.6682,-17.0554494 z m -3.0463,22.7693494 c 5.6138,5.61328 5.6137,14.7144 0,20.32768 -5.6137,5.61331 -14.7154,5.61331 -20.3291,0 -5.6136,-5.61328 -5.6136,-14.7144 0,-20.32768 5.6137,-5.61328 14.7154,-5.61328 20.3291,0 z"
/>
<path
d="m 69.81368,47.229539 c -0.762,-0.14374 -1.7935,-0.0688 -3.2048,0.31247 -9.0315,2.41982 1.6748,7.51692 -4.9368,14.12762 -6.6115,6.6113 -11.7034,-4.096 -14.1231,4.9352 -2.4198,9.0305 7.3433,2.3041 9.7635,11.3353 2.4198,9.0305 -9.4006,8.0918 -2.7892,14.7025 6.6114,6.6107 5.6684,-5.2121 14.7004,-2.7923 9.0315,2.4198 2.3027,12.187801 11.3341,9.7673 9.0315,-2.4191 -1.6748,-7.5162 4.9368,-14.1275 6.6115,-6.6107 11.7034,4.0959 14.1231,-4.9346 2.4198,-9.0311 -7.3433,-2.3042 -9.7635,-11.3353 -2.4198,-9.0305 9.4006,-8.0919 2.7892,-14.7026 -6.6114,-6.6113 -5.6684,5.2121 -14.7004,2.7923 -7.6205,-2.0417 -4.0152,-9.3098 -8.1294,-10.07727 z m 6.5598,15.93489 c 5.7514,1.5411 9.1644,7.4519 7.6232,13.2033 -1.541,5.7508 -7.4526,9.163 -13.2039,7.6225 -5.7513,-1.5411 -9.1643,-7.4525 -7.6231,-13.2033 1.541,-5.7508 7.4526,-9.1636 13.2038,-7.6225 z"
id="path2992"
style="fill:#303030"
/>
</svg>
