<?xml version="1.0" encoding="UTF-8" standalone="no"?>
<svg
xmlns:sodipodi="http://sodipodi.sourceforge.net/DTD/sodipodi-0.dtd"
xmlns:inkscape="http://www.inkscape.org/namespaces/inkscape"
xmlns:svg="http://www.w3.org/2000/svg"
xmlns:cc="http://creativecommons.org/ns#"
xmlns:dc="http://purl.org/dc/elements/1.1/"
xmlns:rdf="http://www.w3.org/1999/02/22-rdf-syntax-ns#"
xmlns="http://www.w3.org/2000/svg"
>
<path
style="fill:#ffffff"
id="path4478"
d="m 8.38560000000007,0.244110000000006 c -3.2613,0.60002 -6.3041,3.59853 -7.7326,7.55646 l -0.653,1.83912 0,40.38236 0,40.38081 0.869,2.27975 c 1.0875,2.8782 3.4167,5.63765 5.5905,6.59706 1.522,0.6797 3.7892,0.72033 43.6964,0.72033 l 42.0811,0 1.7077,-1.03909 c 2.4845,-1.47973 3.8815,-3.23915 5.0308,-6.27673 l 1.0245,-2.6782 0,-39.9808 0,-39.9808 -1.0245,-2.6782 c -1.1178,-2.99852 -2.7333,-4.91732 -5.2178,-6.39705 l -1.522,-0.91878 -41.1488,-0.0407 c -22.6396,-0.0453 -41.8626,0.0751 -42.7013,0.23438 z"
/>
<path
d="m 8.38560000000007,0.244110000000006 c -3.2613,0.60002 -6.3041,3.59853 -7.7326,7.55646 l -0.653,1.83912 0,40.38236 0,40.38081 0.869,2.27975 c 1.0875,2.8782 3.4167,5.63765 5.5905,6.59706 1.522,0.6797 3.7892,0.72033 43.6964,0.72033 l 42.0811,0 1.7077,-1.03909 c 2.4845,-1.47973 3.8815,-3.23915 5.0308,-6.27673 l 1.0245,-2.6782 0,-39.9808 0,-39.9808 -1.0245,-2.6782 c -1.1178,-2.99852 -2.7333,-4.91732 -5.2178,-6.39705 l -1.522,-0.91878 -41.1488,-0.0407 c -22.6396,-0.0453 -41.8626,0.0751 -42.7013,0.23438 z m 81.7698,49.85764 -0.094,37.10258 -40.1246,0.12028 -40.1548,0.0797 0,-37.18228 0,-37.18229 40.218,0 40.218,0 -0.063,37.06197 z"
id="path4480"
style="fill:#404040;fill-opacity:1"
/>
<path
style="fill:#404040;fill-opacity:1"
id="path4482"
d="m 72,33.63792 q 0,4.5214 -1.3148,8.01317 -1.2709,3.447 -3.6375,5.99868 -2.3665,2.55168 -5.6972,4.56616 -3.2868,2.01448 -7.4502,3.67084 l 0,10.20671 -15.4262,0 0,-15.08624 q 3.1116,-0.85056 5.6096,-1.74588 2.5418,-0.89533 5.3028,-2.90981 2.5856,-1.79066 4.0318,-4.16327 1.4901,-2.37261 1.4901,-5.37195 0,-4.47663 -2.8487,-6.35682 -2.8048,-1.92495 -7.9322,-1.92495 -3.1554,0 -7.1434,1.38776 -3.9443,1.38775 -7.2311,3.5813 l -1.753,0 0,-13.65372 q 2.8048,-1.20869 8.6334,-2.50691 Q 42.4621999999999,16 48.4661999999998,16 q 10.8247,0 17.1792,4.87953 6.3546,4.87952 6.3546,12.75839 z M 55.1275000000001,84 l -17.7052,0 0,-11.8183 17.7052,0 0,11.8183 z"
/>
</svg>
