<?xml version="1.0" encoding="UTF-8" standalone="no"?>
<svg
xmlns:sodipodi="http://sodipodi.sourceforge.net/DTD/sodipodi-0.dtd"
xmlns:inkscape="http://www.inkscape.org/namespaces/inkscape"
xmlns:svg="http://www.w3.org/2000/svg"
xmlns:cc="http://creativecommons.org/ns#"
xmlns:dc="http://purl.org/dc/elements/1.1/"
xmlns="http://www.w3.org/2000/svg"
xmlns:rdf="http://www.w3.org/1999/02/22-rdf-syntax-ns#"
>
<circle
style="fill:#b3b3b3;fill-opacity:1"
cy="49.9999"
cx="50"
id="circle6690"
r="49"
/>
<path
d="m 50.40112,0.401100000000042 0,13.2751 c 19.81579,0.055 35.86767,16.1069 35.92271,35.9227 l 13.27509,0 c -3e-5,-27.172 -22.02576,-49.1978 -49.1978,-49.1978 z m 35.92271,49.1978 0,0.1016 c -3e-5,-0.034 6e-5,-0.067 0,-0.1016 z"
style="fill:#008751;fill-opacity:1;stroke:#000000;stroke-width:0.80220228;stroke-opacity:1"
id="path6692"
/>
<path
d="m 99.59691,49.9031 -13.27403,0 c -0.0552,20.0156 -16.10555,36.2292 -35.91975,36.2847 l 0,13.4091 c 27.16981,-10e-5 49.19378,-22.2477 49.19378,-49.6938 z m -49.19378,36.2847 -0.10163,0 c 0.0341,0 0.0675,10e-5 0.10163,0 z"
id="path6694"
style="fill:#ef6b00;fill-opacity:1;stroke:#000000;stroke-width:0.8062191;stroke-opacity:1"
/>
<path
style="fill:#0054a0;fill-opacity:1;stroke:#000000;stroke-width:0.81024092;stroke-opacity:1"
id="path6696"
d="m 50.09489,99.5949000000001 0,-13.408 c -20.01396,-0.055 -36.22636,-16.268 -36.28193,-36.2823 l -13.40783,0 c 1e-5,27.4439 22.24602,49.6903 49.68976,49.6903 z m -36.28193,-49.6903 0,-0.1026 c 2e-5,0.035 -4e-5,0.067 0,0.1026 z"
/>
<path
d="m 0.403129999999976,49.5969 13.40893,0 c 0.0554,-19.8142 16.26926,-35.8648 36.28485,-35.9198 l 0,-13.274 c -27.44598,0 -49.69378,22.024 -49.69378,49.1938 z m 49.69378,-35.9198 0.10243,0 c -0.0344,0 -0.0682,0 -0.10243,0 z"
style="fill:#fcd116;fill-opacity:1;stroke:#000000;stroke-width:0.80621928;stroke-opacity:1"
id="path6698"
/>
<circle
r="49"
cy="49.9999"
id="circle6700"
cx="50"
style="fill:none;stroke:#000000;stroke-width:2;stroke-opacity:1"
/>
<path
style="fill:#00ffff;stroke:#000000;stroke-width:2.04897165;stroke-opacity:1"
id="path4222"
d="m 54.07742,63.8882000000001 c 4.1087,-1.2417 7.36831,-4.0413 9.20286,-7.9046 1.97803,-4.1653 1.90226,-8.4565 -0.22539,-12.7677 -1.71468,-3.4741 -4.57176,-5.9488 -8.42517,-7.2979 -1.58057,-0.5534 -2.07089,-0.6199 -4.54369,-0.6154 -2.41989,0 -3.00349,0.082 -4.59359,0.6112 -9.34639,3.1104 -13.01614,14.3939 -7.29075,22.4172 2.11654,2.9658 5.12985,4.9325 8.89068,5.8021 1.67862,0.3882 5.31238,0.2602 6.98511,-0.2449 z"
/>
<path
style="fill:#000000"
id="path4220-2"
d="m 47.55104,57.0753 c -2.7636,-0.8821 -5.16254,-4.2041 -5.16254,-7.1486 0,-3.0344 2.4102,-6.2945 5.28522,-7.1482 1.92425,-0.5717 2.70746,-0.5769 4.53883,-0.02 6.3009,1.8798 7.10374,10.8209 1.23846,13.7929 -1.85053,0.9379 -4.0206,1.1345 -5.89997,0.5345 z"
/>
<path
style="fill:#ffffff;stroke:#000000;stroke-width:4.16356468;stroke-opacity:1"
id="path4195-6"
d="m 43.86801,65.8961999999999 c -9.70521,-1.4129 -18.67309,-6.0717 -24.44331,-12.6986 -0.82548,-0.948 -1.76201,-2.0978 -2.08149,-2.5552 l -0.58038,-0.8316 0.59641,-0.8604 c 1.9773,-2.8536 5.6045,-6.3127 9.05205,-8.6328 6.0416,-4.0659 13.36621,-6.4866 20.80961,-6.8772 9.94704,-0.5219 18.7802,1.7593 26.39331,6.8161 3.47127,2.3056 7.14979,5.7863 9.10886,8.6191 l 0.65685,0.9497 -1.1067,1.4896 c -1.44985,1.951 -4.99718,5.4018 -7.29623,7.0975 -5.27913,3.8935 -11.77247,6.479 -18.79297,7.4829 -2.71171,0.3877 -9.65527,0.3887 -12.31601,0 z"
/>
<path
style="fill:#00ffff;stroke:#000000;stroke-width:2.04897165;stroke-opacity:1"
id="path4197-0"
d="m 54.07742,63.8882000000001 c 4.1087,-1.2417 7.36831,-4.0413 9.20286,-7.9046 1.97803,-4.1653 1.90226,-8.4565 -0.22539,-12.7677 -1.71468,-3.4741 -4.57176,-5.9488 -8.42517,-7.2979 -1.58057,-0.5534 -2.07089,-0.6199 -4.54369,-0.6154 -2.41989,0 -3.00349,0.082 -4.59359,0.6112 -9.34639,3.1104 -13.01614,14.3939 -7.29075,22.4172 2.11654,2.9658 5.12985,4.9325 8.89068,5.8021 1.67862,0.3882 5.31238,0.2602 6.98511,-0.2449 z"
/>
<path
id="path4199-4"
style="fill:#000000"
d="m 47.55104,57.0753 c -2.7636,-0.8821 -5.16254,-4.2041 -5.16254,-7.1486 0,-3.0344 2.4102,-6.2945 5.28522,-7.1482 1.92425,-0.5717 2.70746,-0.5769 4.53883,-0.02 6.3009,1.8798 7.10374,10.8209 1.23846,13.7929 -1.85053,0.9379 -4.0206,1.1345 -5.89997,0.5345 z"
/>
</svg>
