<?xml version="1.0" encoding="UTF-8" standalone="no"?>
<svg
xmlns:sodipodi="http://sodipodi.sourceforge.net/DTD/sodipodi-0.dtd"
xmlns:inkscape="http://www.inkscape.org/namespaces/inkscape"
xmlns:cc="http://creativecommons.org/ns#"
xmlns:svg="http://www.w3.org/2000/svg"
xmlns:rdf="http://www.w3.org/1999/02/22-rdf-syntax-ns#"
xmlns="http://www.w3.org/2000/svg"
xmlns:dc="http://purl.org/dc/elements/1.1/"
>
<path
d="m 5.92559,44.00927 c -0.95918,-1.64001 -0.89315,-3.91842 0.16018,-5.53069 0.19721,-0.30187 1.37729,-1.54582 3.18351,-3.35564 1.57829,-1.58165 2.90323,-2.95147 2.94426,-3.04385 0.20954,-0.47125 0.2078,-0.47296 -5.78451,-6.47788 -5.51777,-5.52919 -5.6658,-5.67757 -5.95911,-6.2813 -0.56442,-1.14017 -0.61804,-2.2063 -0.17361,-3.45452 l 0.25768,-0.72352 7.29246,-7.30755 7.29261,-7.30786 0.74311,-0.26581 c 0.83272,-0.29782 1.966,-0.34635 2.67876,-0.11478 1.12286,0.36502 1.14547,0.3855 7.17128,6.42392 5.42496,5.43617 5.63086,5.64257 5.94357,5.67063 l 0.31898,0.0341 3.206,-3.1342 c 3.14752,-3.07702 3.21748,-3.13921 3.83198,-3.4063 0.83977,-0.36501 1.78845,-0.54944 2.58625,-0.50251 0.8213,0.048 2.04028,0.472 2.7387,0.95201 1.03499,0.71104 1.88685,2.01654 2.13101,3.26251 0.13291,0.67979 1.53469,30.66165 1.511,32.31754 -0.0448,3.11617 -2.44212,5.83021 -5.49912,6.2252 -1.17323,0.15168 -32.70413,-1.27883 -33.49224,-1.51947 -1.26971,-0.38784 -2.39927,-1.28854 -3.08398,-2.45932 z"
id="path4887"
style="fill:#fcd116;fill-opacity:1"
/>
<path
style="fill:#008751;fill-opacity:1"
id="path4889"
d="m 55.99091,5.92559000000006 c 1.64,-0.95918 3.9184,-0.89315 5.53067,0.16018 0.30186,0.19721 1.54581,1.3773 3.35562,3.18352 1.58165,1.57829 2.9514,2.90323 3.04377,2.94425 0.47126,0.20955 0.47296,0.20781 6.47787,-5.7845 5.5292,-5.51778 5.67754,-5.66581 6.28131,-5.95912 1.1402,-0.56442 2.20625,-0.61804 3.45452,-0.17361 l 0.72344,0.25768 7.30762,7.29247 7.30775,7.29261 0.26586,0.74311 c 0.29783,0.83272 0.34634,1.966 0.11474,2.67876 -0.36498,1.12286 -0.38551,1.14547 -6.42383,7.17129 -5.43622,5.42496 -5.64256,5.63086 -5.6706,5.94357 l -0.0343,0.31898 3.13414,3.20598 c 3.07706,3.14752 3.13919,3.21749 3.40629,3.832 0.36503,0.83979 0.54942,1.78848 0.5025,2.58624 -0.0483,0.82134 -0.47201,2.04033 -0.95195,2.73867 -0.71105,1.0351 -2.01654,1.88694 -3.2625,2.1311 -0.67987,0.1329 -30.66154,1.53459 -32.31743,1.51093 -3.11616,-0.0448 -5.83018,-2.44213 -6.22517,-5.4991 -0.15168,-1.17322 1.27883,-32.70415 1.51947,-33.49225 0.38784,-1.26971 1.28853,-2.39928 2.4593,-3.08398 z"
/>
<path
d="m 94.0744099999999,55.99078 c 0.95918,1.64001 0.89315,3.91841 -0.16018,5.53068 -0.19721,0.30187 -1.3773,1.54582 -3.18352,3.35564 -1.57829,1.58166 -2.90323,2.95137 -2.94425,3.04374 -0.20955,0.47126 -0.20781,0.47296 5.7845,6.47788 5.51778,5.52919 5.66581,5.67757 5.95912,6.2813 0.56442,1.14027 0.61804,2.2063 0.17361,3.45462 l -0.25769,0.72342 -7.29246,7.30765 -7.29261,7.30775 -0.74311,0.26592 c -0.83272,0.29782 -1.966,0.34642 -2.67876,0.11477 -1.12286,-0.36501 -1.14547,-0.3856 -7.17129,-6.42391 -5.42496,-5.43628 -5.63086,-5.64257 -5.94357,-5.67063 l -0.31898,-0.0341 -3.20598,3.1342 c -3.14752,3.07702 -3.2175,3.1392 -3.832,3.4063 -0.83979,0.36501 -1.78848,0.54944 -2.58624,0.50251 -0.82134,-0.048 -2.04033,-0.47201 -2.73867,-0.95201 -1.0351,-0.71104 -1.88694,-2.01654 -2.1311,-3.26251 -0.1329,-0.6799 -1.53461,-30.66163 -1.51093,-32.31753 0.0448,-3.11617 2.44213,-5.8302 5.4991,-6.22519 1.17322,-0.15168 32.70415,1.27883 33.49225,1.51947 1.26971,0.38784 2.39928,1.28854 3.08398,2.45932 z"
id="path4892"
style="fill:#ef6b00;fill-opacity:1"
/>
<path
id="path4896"
style="fill:#0054a0;fill-opacity:1"
d="m 44.00924,94.07437 c -1.64001,0.95926 -3.91841,0.89323 -5.53069,-0.16011 -0.30186,-0.19722 -1.54581,-1.37728 -3.35563,-3.18357 -1.58166,-1.57825 -2.95137,-2.90316 -3.04375,-2.94422 -0.47125,-0.2096 -0.47296,-0.20779 -6.47788,5.78454 -5.52919,5.51777 -5.67757,5.66582 -6.2813,5.95905 -1.14027,0.56444 -2.2063,0.61804 -3.45463,0.17365 l -0.72341,-0.2577 -7.30765,-7.2925 -7.30776,-7.29259 -0.26592,-0.74304 c -0.29781,-0.83275 -0.34635,-1.96609 -0.11477,-2.67884 0.36501,-1.12288 0.3856,-1.14549 6.42391,-7.17131 5.43628,-5.42497 5.64258,-5.63084 5.67063,-5.94359 l 0.0341,-0.31893 -3.13419,-3.20598 c -3.07703,-3.14752 -3.13921,-3.2175 -3.40631,-3.832 -0.36501,-0.83979 -0.54944,-1.78849 -0.5025,-2.58625 0.048,-0.82133 0.472,-2.04032 0.952,-2.73867 0.71104,-1.03509 2.01654,-1.88694 3.26252,-2.1311 0.67989,-0.1329 30.66164,-1.53461 32.31754,-1.51093 3.11617,0.0448 5.8302,2.44214 6.22519,5.4991 0.15168,1.17323 -1.27883,32.70416 -1.51947,33.49232 -0.38784,1.26965 -1.28854,2.39926 -2.45932,3.08395 z"
/>
</svg>
