<?xml version="1.0" encoding="UTF-8" standalone="no"?>
<svg
xmlns:svg="http://www.w3.org/2000/svg"
xmlns:cc="http://creativecommons.org/ns#"
xmlns:dc="http://purl.org/dc/elements/1.1/"
xmlns:rdf="http://www.w3.org/1999/02/22-rdf-syntax-ns#"
xmlns="http://www.w3.org/2000/svg"
xmlns:sodipodi="http://sodipodi.sourceforge.net/DTD/sodipodi-0.dtd"
xmlns:inkscape="http://www.inkscape.org/namespaces/inkscape"
>
<rect
width="50"
style="fill:#0a6b9e;fill-opacity:1;stroke:#ffffff;stroke-width:0;stroke-miterlimit:4;stroke-dasharray:none"
id="logoblue"
y="50"
height="50"
x="0"
/>
<rect
y="0"
style="fill:#ffc000;fill-opacity:1;stroke:#ffffff;stroke-width:0;stroke-opacity:1"
id="logoyellow"
width="50"
height="50"
x="0"
/>
<rect
height="50"
x="50"
width="50"
style="fill:#ff5a00;fill-opacity:1;stroke:#ffffff;stroke-width:0;stroke-miterlimit:4;stroke-dasharray:none"
id="logoorange"
y="50"
/>
<rect
x="50"
height="50"
style="fill:#008444;fill-opacity:1;stroke:#ffffff;stroke-width:0;stroke-miterlimit:4;stroke-dasharray:none"
id="logogreen"
y="0"
width="50"
/>
<path
style="fill:#ffffff;fill-opacity:1"
id="logodots"
d="m 23.81308,76.22075 c -0.51561,-0.3225 -0.55715,-0.92241 -0.091,-1.31463 0.56665,-0.47679 1.42722,-0.068 1.42722,0.67797 0,0.11356 -0.10483,0.32272 -0.23294,0.46483 -0.30804,0.34172 -0.72721,0.407 -1.10323,0.17183 z m -2.75731,-1.27821 c -0.28688,-0.22566 -0.36878,-0.6554 -0.1906,-0.99998 0.16885,-0.32648 0.36851,-0.43631 0.79336,-0.43631 0.38106,0 0.73899,0.27196 0.82878,0.62971 0.0678,0.27025 -0.0953,0.68935 -0.33315,0.85595 -0.26097,0.1828 -0.83609,0.15693 -1.09839,-0.0494 z m 8.92732,-1.11176 c -0.72998,-0.49599 -0.37483,-1.59506 0.51541,-1.59506 0.7493,0 1.11339,0.87323 0.60107,1.44154 -0.322,0.35718 -0.73347,0.41376 -1.11648,0.15352 z m -11.24129,-0.22922 c -0.32054,-0.20071 -0.49647,-0.64864 -0.37759,-0.96135 0.11276,-0.29657 0.49298,-0.57388 0.78682,-0.57388 0.77911,0 1.18307,0.80232 0.68316,1.35681 -0.30446,0.33776 -0.72757,0.40685 -1.09239,0.17842 z m 7.52129,-0.56346 c -0.31902,-0.26844 -0.3995,-0.6083 -0.23644,-0.99852 0.14736,-0.35271 0.35444,-0.48148 0.77429,-0.48148 0.39607,0 0.60242,0.11431 0.76145,0.42182 0.20393,0.3944 0.16008,0.66411 -0.16007,0.98425 -0.3644,0.3644 -0.76326,0.39029 -1.13923,0.0739 z m -9.92938,-1.30407 c -0.63092,-0.63092 0.0449,-1.62312 0.91261,-1.33985 0.37998,0.12404 0.66047,0.58624 0.57133,0.94146 -0.16647,0.66323 -0.99631,0.88601 -1.48394,0.39839 z m 6.88314,-0.218 c -0.3055,-0.25707 -0.39277,-0.55957 -0.26933,-0.9336 0.11528,-0.34931 0.40869,-0.54895 0.80674,-0.54895 0.39352,0 0.60009,0.11482 0.75885,0.4218 0.16533,0.31973 0.16171,0.55363 -0.0131,0.84961 -0.27174,0.46001 -0.87029,0.55851 -1.28314,0.21114 z m -2.02454,-1.1169 c -0.10322,-0.0208 -0.28427,-0.15268 -0.40233,-0.29298 -0.72622,-0.86304 0.47623,-1.93057 1.27494,-1.13186 0.57015,0.57016 -0.0544,1.58989 -0.87261,1.42484 z m 10.22607,-0.0885 c -0.57629,-0.29309 -0.67477,-0.89112 -0.2214,-1.34447 0.2167,-0.21671 0.36064,-0.288 0.58148,-0.288 0.58626,0 1.00897,0.58474 0.82522,1.1415 -0.17135,0.51921 -0.69957,0.738 -1.1853,0.49097 z m -3.87136,-0.27805 c -0.25081,-0.10105 -0.47786,-0.46619 -0.47786,-0.76854 0,-0.35941 0.18133,-0.64354 0.51033,-0.79964 0.3759,-0.1784 0.72363,-0.0994 0.9979,0.22649 0.60113,0.71441 -0.15225,1.69541 -1.03037,1.34169 z m 7.37584,-0.0822 c -0.28713,-0.11599 -0.54109,-0.50379 -0.54109,-0.82624 0,-0.37193 0.45879,-0.86948 0.80177,-0.86948 0.49982,0 0.88751,0.37932 0.8904,0.87119 0.002,0.40308 -0.18783,0.69914 -0.52457,0.81653 -0.30268,0.10549 -0.38269,0.10657 -0.62651,0.008 l 0,2e-5 z m -20.93484,-0.51 c -0.3492,-0.21291 -0.48015,-0.49502 -0.40809,-0.8791 0.11623,-0.61959 0.88377,-0.85931 1.38933,-0.43392 0.32005,0.26932 0.39079,0.55424 0.23198,0.9343 -0.0857,0.20518 -0.21939,0.33947 -0.42223,0.42423 -0.38507,0.1609 -0.45946,0.15661 -0.79099,-0.0455 z m 9.89533,-0.52654 c -0.11391,-0.06 -0.28108,-0.23564 -0.37149,-0.39044 -0.14357,-0.24584 -0.15161,-0.32399 -0.0635,-0.61794 0.27841,-0.92923 1.54476,-0.81211 1.67446,0.15487 0.0388,0.28964 0.01,0.37938 -0.19691,0.60877 -0.27855,0.30909 -0.72227,0.41328 -1.04251,0.24474 z m 19.73378,-0.25142 c -0.53913,-0.36527 -0.53639,-1.19061 0.005,-1.47051 0.39762,-0.20563 0.81728,-0.1581 1.09992,0.12453 0.736,0.73599 -0.24363,1.92946 -1.1048,1.34598 l -5e-5,0 2e-5,0 z m -24.97721,-0.19828 c -0.4286,-0.36064 -0.42941,-0.90423 -0.002,-1.30247 0.27744,-0.25848 0.86156,-0.24461 1.13309,0.0269 0.79819,0.7982 -0.26869,2.00126 -1.13115,1.27555 l 0,0 1e-5,0 z m 30.23524,-0.83126 c -0.26563,-0.15328 -0.42613,-0.45403 -0.42984,-0.80544 -0.002,-0.21212 0.0697,-0.35646 0.28498,-0.57175 0.38047,-0.38046 0.77625,-0.39425 1.17179,-0.0408 0.23577,0.21064 0.27663,0.30419 0.27663,0.63333 0,0.30286 -0.0475,0.43365 -0.22002,0.60618 -0.26379,0.26379 -0.78648,0.34989 -1.08354,0.17849 z m -10.09539,-0.64224 c -0.54521,-0.5452 -0.13331,-1.44644 0.66108,-1.44644 0.48273,0 0.90499,0.54144 0.80997,1.03854 -0.0672,0.35154 -0.47743,0.6555 -0.88464,0.6555 -0.26155,0 -0.39529,-0.0564 -0.58641,-0.2476 z m -9.04728,-0.04 c -0.45798,-0.25382 -0.56742,-0.89467 -0.22275,-1.3043 0.53127,-0.63137 1.48395,-0.27468 1.48395,0.55564 0,0.68418 -0.66516,1.07904 -1.2612,0.74866 z m -17.81468,-0.46604 c -0.3707,-0.33121 -0.38833,-0.82673 -0.0418,-1.17331 0.31464,-0.31463 0.87636,-0.32818 1.19503,-0.0288 0.82323,0.77339 -0.3105,1.95517 -1.15328,1.20213 z m 8.75496,-0.0533 c -0.4286,-0.36063 -0.42941,-0.9042 -0.002,-1.30246 0.27744,-0.25848 0.86156,-0.24459 1.13308,0.027 0.7982,0.79819 -0.26869,2.00124 -1.13115,1.27553 l 0,0 10e-6,0 z m 12.43196,-0.0335 c -0.19418,-0.1942 -0.24759,-0.32351 -0.24759,-0.59944 0,-0.27594 0.0534,-0.40524 0.24759,-0.59943 0.19418,-0.19416 0.32349,-0.24759 0.59943,-0.24759 0.27593,0 0.40524,0.0534 0.59943,0.24759 0.19417,0.19419 0.24759,0.32349 0.24759,0.59943 0,0.27593 -0.0534,0.40525 -0.24759,0.59944 -0.19419,0.19417 -0.3235,0.24757 -0.59943,0.24757 -0.27594,0 -0.40525,-0.0534 -0.59943,-0.24757 z m -7.19968,-0.42352 c -0.54561,-0.54561 -0.17228,-1.44645 0.59943,-1.44645 0.27594,0 0.40525,0.0534 0.59943,0.24759 0.54561,0.54561 0.17229,1.44644 -0.59943,1.44644 -0.27594,0 -0.40525,-0.0534 -0.59943,-0.24758 z m 19.81658,-0.0756 c -0.57987,-0.51812 -0.19793,-1.45549 0.59305,-1.45549 0.42156,0 0.74907,0.25534 0.8213,0.64034 0.163,0.86891 -0.75925,1.40046 -1.41435,0.81515 z m -29.20262,-0.063 c -0.50733,-0.4269 -0.3935,-1.19132 0.21527,-1.44568 0.90301,-0.37728 1.60843,0.77121 0.8781,1.42961 -0.33871,0.30534 -0.74253,0.31127 -1.09337,0.0161 z m 20.10737,-0.45613 c -0.76896,-0.31473 -0.64492,-1.50915 0.17267,-1.66252 0.59828,-0.11224 1.16858,0.50203 1.0028,1.08012 -0.13705,0.47788 -0.72236,0.76785 -1.17547,0.5824 z m 14.02752,-0.62643 c -0.26563,-0.15327 -0.42612,-0.454 -0.42984,-0.80543 -0.002,-0.2121 0.0697,-0.35647 0.28499,-0.57174 0.38047,-0.38045 0.77624,-0.39425 1.17178,-0.0408 0.23577,0.21065 0.27662,0.30419 0.27662,0.63333 0,0.30286 -0.0475,0.43365 -0.22,0.6062 -0.2638,0.2638 -0.78648,0.34989 -1.08355,0.17847 z m -31.79164,-0.44197 c -0.29239,-0.15864 -0.40447,-0.36852 -0.40447,-0.7573 0,-0.41987 0.12877,-0.62696 0.48145,-0.77432 0.39024,-0.16304 0.7301,-0.0825 0.99854,0.23646 0.34994,0.4159 0.25303,1.01348 -0.20858,1.28617 -0.29115,0.17197 -0.56146,0.1748 -0.86694,0.009 z m -8.01834,-0.32034 c -0.40246,-0.23225 -0.56067,-0.85204 -0.30915,-1.21114 0.30316,-0.43281 1.07727,-0.4651 1.39728,-0.0583 0.23711,0.30142 0.22901,0.80033 -0.0176,1.08706 -0.23016,0.26759 -0.76492,0.35867 -1.07049,0.18237 z m 12.72622,-0.0551 c -0.68608,-0.27688 -0.53591,-1.49363 0.20175,-1.63464 0.82813,-0.1583 1.38487,0.87714 0.79096,1.47105 -0.25792,0.2579 -0.6137,0.31655 -0.99271,0.16359 z m 18.97591,-0.16523 c -0.52856,-0.22303 -0.71252,-0.98101 -0.33655,-1.38667 0.37324,-0.40274 0.86539,-0.40506 1.26449,-0.006 0.60338,0.60339 -0.14317,1.72379 -0.92794,1.39265 l 0,3e-5 z m -10.53594,-0.0647 c -0.45269,-0.16548 -0.69759,-0.75349 -0.50623,-1.2155 0.1446,-0.34906 0.39296,-0.50343 0.80999,-0.50343 0.63389,0 1.0189,0.60969 0.7665,1.2138 -0.1775,0.4248 -0.66307,0.65398 -1.07026,0.50513 z m 6.92574,-0.52612 c -0.23749,-0.21222 -0.27662,-0.30307 -0.27662,-0.64224 0,-0.33918 0.0391,-0.43002 0.27662,-0.64222 0.19295,-0.17239 0.36547,-0.24715 0.57039,-0.24715 0.20494,0 0.37746,0.0747 0.57041,0.24715 0.23749,0.2122 0.27662,0.30304 0.27662,0.64222 0,0.33917 -0.0391,0.43002 -0.27662,0.64224 -0.19295,0.17237 -0.36547,0.24714 -0.57041,0.24714 -0.20492,0 -0.37744,-0.0747 -0.57039,-0.24714 z m -10.3724,0.0769 c -0.45183,-0.18196 -0.62172,-0.91357 -0.30953,-1.3329 0.35628,-0.47857 1.09525,-0.47628 1.38827,0.004 0.25683,0.42122 0.21714,0.78672 -0.12231,1.12617 -0.29757,0.29756 -0.57472,0.35623 -0.95643,0.20247 l 0,-2e-5 0,4e-5 z m -13.8906,-0.54665 c -0.58746,-0.25551 -0.6808,-1.02215 -0.17614,-1.44678 0.22095,-0.18592 0.32648,-0.21791 0.59835,-0.18146 0.85275,0.11438 1.09925,1.14337 0.37909,1.58244 -0.32442,0.19781 -0.437,0.20424 -0.8013,0.0459 z m 32.25416,-0.58715 c -0.48189,-0.26709 -0.57093,-0.9104 -0.18568,-1.34157 0.2122,-0.23748 0.30304,-0.27663 0.64221,-0.27663 0.33917,0 0.43002,0.0392 0.64222,0.27663 0.67855,0.75943 -0.20427,1.83735 -1.09875,1.34157 z m 4.7092,-0.39135 c -0.75941,-0.59733 -0.17754,-1.79649 0.75677,-1.55967 0.98428,0.24949 0.80139,1.73043 -0.21369,1.73043 -0.19862,0 -0.41086,-0.0668 -0.54308,-0.17076 z m -16.25785,-0.16112 c -0.23749,-0.21219 -0.27662,-0.30304 -0.27662,-0.64222 0,-0.33916 0.0391,-0.43002 0.27662,-0.6422 0.74972,-0.66989 1.82738,0.23681 1.29439,1.08901 -0.31047,0.49639 -0.86401,0.57995 -1.29439,0.19541 z m -17.68115,0.0658 c -0.3279,-0.12757 -0.50197,-0.32527 -0.56033,-0.6364 -0.19892,-1.0602 1.24212,-1.46098 1.65646,-0.46067 0.26459,0.63877 -0.44602,1.34999 -1.09613,1.09707 z m 3.64509,-0.3495 c -0.11392,-0.0576 -0.28109,-0.23147 -0.3715,-0.38627 -0.14357,-0.24582 -0.15162,-0.32401 -0.0635,-0.61794 0.28028,-0.93554 1.54484,-0.81139 1.67574,0.1645 0.0424,0.31585 0.0182,0.37805 -0.25197,0.64821 -0.32217,0.32216 -0.6175,0.37936 -0.98873,0.1915 z m 4.68785,-0.77359 c -0.32413,-0.32414 -0.37378,-0.65566 -0.16005,-1.06894 0.2583,-0.49955 0.90744,-0.58531 1.31851,-0.17422 0.24569,0.24566 0.283,0.36118 0.24835,0.76881 -0.0266,0.31268 -0.1454,0.49106 -0.42258,0.63441 -0.39437,0.20395 -0.66409,0.16007 -0.98423,-0.16006 z m -16.55792,-0.0325 c -0.4554,-0.4069 -0.33415,-1.10558 0.23297,-1.34254 0.85519,-0.35732 1.61223,0.68501 0.96651,1.33076 -0.34047,0.34044 -0.82628,0.34521 -1.19948,0.0118 z m 34.04821,-0.34062 c -0.24891,-0.22242 -0.2873,-0.30953 -0.2873,-0.65216 0,-0.32797 0.0404,-0.4302 0.23696,-0.59924 0.3251,-0.27965 0.57333,-0.32506 0.93989,-0.1719 0.34969,0.14612 0.60701,0.61323 0.52275,0.94894 -0.0894,0.35615 -0.40553,0.63455 -0.77717,0.68439 -0.30213,0.0405 -0.38559,0.0129 -0.63513,-0.21003 z m -11.51684,-0.5182 c -0.19397,-0.19397 -0.24759,-0.32359 -0.24759,-0.59848 0,-0.19299 0.0392,-0.42421 0.0872,-0.51386 0.10259,-0.19167 0.51021,-0.41881 0.75163,-0.41881 0.75298,0 1.13587,0.95215 0.60947,1.51569 -0.34178,0.36588 -0.84383,0.37236 -1.20071,0.0154 z m 8.33756,0.0788 c -0.28262,-0.11405 -0.45375,-0.42738 -0.45375,-0.83073 0,-0.29474 0.0498,-0.41859 0.24759,-0.61643 0.55912,-0.55913 1.44645,-0.13179 1.44645,0.69658 0,0.18115 -0.0862,0.34485 -0.28799,0.54658 -0.29664,0.29664 -0.57498,0.35627 -0.9523,0.204 z m -10.23978,-0.50483 c -0.40025,-0.16224 -0.60629,-0.71615 -0.42648,-1.14651 0.38633,-0.9246 1.6576,-0.62354 1.6576,0.39254 0,0.35044 -0.47934,0.83671 -0.81737,0.82919 -0.13277,-0.003 -0.31896,-0.0368 -0.41375,-0.0752 z m 6.56735,-0.5354 c -0.11647,-0.0579 -0.28149,-0.2477 -0.36672,-0.42176 -0.49217,-1.00509 0.98366,-1.77204 1.51419,-0.7869 0.40282,0.748 -0.39144,1.58461 -1.14747,1.20866 z m 15.78663,-0.18331 c -0.53959,-0.23484 -0.71659,-0.90182 -0.35973,-1.35548 0.25135,-0.31955 0.52674,-0.40762 0.93272,-0.29831 0.36237,0.0976 0.66461,0.47327 0.66519,0.82681 8e-4,0.32761 -0.24896,0.7012 -0.55316,0.82831 -0.3453,0.14427 -0.35049,0.14425 -0.68502,-0.001 l 0,-10e-6 0,3e-5 z m -39.12246,-0.16746 c -0.82102,-0.82103 0.29626,-2.01749 1.1618,-1.24415 0.59034,0.52747 0.19863,1.4486 -0.61601,1.4486 -0.2479,0 -0.39729,-0.056 -0.54579,-0.20445 z m 3.8967,-0.045 c -0.4773,-0.19535 -0.66854,-0.80319 -0.39176,-1.24524 0.35256,-0.56306 1.19031,-0.53034 1.49476,0.0584 0.36719,0.71008 -0.35891,1.49139 -1.103,1.18682 z m 30.45973,-0.12283 c -0.48189,-0.26706 -0.57093,-0.91039 -0.18568,-1.34156 0.2122,-0.23748 0.30304,-0.27663 0.64222,-0.27663 0.33917,0 0.43001,0.0392 0.6422,0.27663 0.67856,0.75944 -0.20425,1.83735 -1.09874,1.34156 z m -38.42172,-0.82712 c -0.79209,-0.43561 -0.51498,-1.59573 0.38116,-1.59573 0.90482,0 1.17568,1.18513 0.36555,1.59943 -0.23207,0.11868 -0.52683,0.11722 -0.74671,-0.003 l 0,-10e-6 0,-2e-5 z m 34.38229,0.001 c -0.21575,-0.10474 -0.45911,-0.50022 -0.45911,-0.74618 0,-0.1 0.0576,-0.29305 0.12794,-0.4291 0.33609,-0.64996 1.30552,-0.55665 1.5748,0.15158 0.26235,0.69009 -0.55114,1.35971 -1.24363,1.0237 l 0,0 z m -22.64172,-0.10592 c -0.46055,-0.25527 -0.56742,-0.89471 -0.2188,-1.30902 0.51598,-0.6132 1.47999,-0.27643 1.47999,0.51702 0,0.41661 -0.11029,0.62118 -0.42181,0.78227 -0.30103,0.15566 -0.57044,0.15879 -0.83938,0.01 z m 4.62944,-0.21368 c -0.23748,-0.21218 -0.27662,-0.30303 -0.27662,-0.64221 0,-0.33916 0.0391,-0.43002 0.27662,-0.6422 0.35798,-0.31986 0.75462,-0.33067 1.11159,-0.0303 0.32331,0.27206 0.41364,0.68141 0.22911,1.03825 -0.297,0.57432 -0.87414,0.69335 -1.3407,0.27647 l 0,0 z m 6.58425,0.0642 c -0.3092,-0.17005 -0.46204,-0.43971 -0.46398,-0.81875 -0.001,-0.29357 0.0474,-0.41576 0.24571,-0.61408 0.54646,-0.54645 1.44646,-0.17226 1.44646,0.60139 0,0.28943 -0.0524,0.40619 -0.28799,0.64178 -0.30373,0.30372 -0.61766,0.36705 -0.9402,0.18966 z m -2.12602,-0.61318 c -0.20622,-0.20621 -0.28799,-0.36412 -0.28799,-0.55613 0,-0.82599 0.88645,-1.24704 1.44645,-0.68705 0.54427,0.54429 0.18396,1.53117 -0.55903,1.53117 -0.24125,0 -0.37634,-0.0649 -0.59943,-0.28799 z m 9.99383,0.12027 c -0.26866,-0.10854 -0.54108,-0.50107 -0.54108,-0.77963 0,-0.30925 0.20465,-0.71427 0.41882,-0.82888 0.24385,-0.13048 0.70357,-0.10526 0.92651,0.0509 0.83958,0.58806 0.14163,1.9398 -0.80425,1.55761 z m -4.60895,-1.51548 c -0.31576,-0.31575 -0.37926,-0.59187 -0.22242,-0.96727 0.35205,-0.84256 1.51545,-0.66015 1.63844,0.25692 0.0386,0.28799 0.008,0.3759 -0.22746,0.64359 -0.2276,0.25921 -0.32737,0.31002 -0.60876,0.31002 -0.25767,0 -0.39356,-0.0571 -0.5798,-0.24326 z m -8.09932,-0.085 c -0.29815,-0.18669 -0.49887,-0.66043 -0.40768,-0.96219 0.0319,-0.10549 0.15613,-0.29672 0.27608,-0.42483 0.41545,-0.44373 1.22775,-0.22863 1.41963,0.3759 0.23631,0.74458 -0.62894,1.42381 -1.28803,1.01112 z m -10.28795,-0.33285 c -0.58171,-0.51977 -0.21893,-1.45648 0.56408,-1.45648 0.45074,0 0.77486,0.24442 0.84914,0.64033 0.15878,0.84639 -0.7755,1.38594 -1.41322,0.81615 z m 35.29734,-0.0722 c -0.26372,-0.26371 -0.3472,-0.53115 -0.26684,-0.85492 0.13215,-0.53244 0.7227,-0.82467 1.23649,-0.61186 0.3085,0.12779 0.5028,0.47151 0.5028,0.88944 0,0.71541 -0.95854,1.09124 -1.47245,0.57734 z m -4.78617,0.0221 c -0.48189,-0.26709 -0.57093,-0.9104 -0.18568,-1.34158 0.21219,-0.23748 0.30304,-0.27662 0.64221,-0.27662 0.33917,0 0.43002,0.0392 0.64222,0.27662 0.67854,0.75946 -0.20426,1.83736 -1.09875,1.34158 z m -25.76527,-0.38349 c -0.19418,-0.19417 -0.2476,-0.32347 -0.2476,-0.59943 0,-0.27595 0.0534,-0.40524 0.2476,-0.59944 0.19417,-0.19417 0.32349,-0.24758 0.59942,-0.24758 0.27594,0 0.40526,0.0534 0.59943,0.24758 0.54562,0.54563 0.17229,1.44646 -0.59943,1.44646 -0.27593,0 -0.40525,-0.0534 -0.59942,-0.24759 z m -8.23439,-0.008 c -0.67093,-0.52776 -0.33557,-1.52332 0.51314,-1.52332 0.70055,0 1.06732,0.63724 0.73578,1.27839 -0.22147,0.42827 -0.85732,0.55297 -1.24892,0.24493 l 0,0 z m 29.66401,-0.0769 c -0.54561,-0.5456 -0.1723,-1.44645 0.59943,-1.44645 0.49529,0 0.84701,0.35173 0.84701,0.84702 0,0.27594 -0.0534,0.40524 -0.24758,0.59943 -0.19418,0.1942 -0.32349,0.24759 -0.59943,0.24759 -0.27595,0 -0.40526,-0.0534 -0.59943,-0.24759 l 0,0 z m -33.84228,-0.12821 c -0.98443,-0.42846 -0.50098,-1.87051 0.53866,-1.60672 0.77031,0.19543 0.86675,1.25523 0.14538,1.59755 -0.32898,0.15608 -0.34591,0.15633 -0.68404,0.009 z m 30.15477,-0.0461 c -0.0984,-0.0397 -0.26409,-0.18026 -0.36824,-0.31227 -0.14954,-0.18949 -0.1809,-0.31568 -0.14916,-0.59991 0.0474,-0.42471 0.17392,-0.59906 0.54806,-0.75545 0.23391,-0.0978 0.31884,-0.0969 0.56515,0.006 0.73634,0.30767 0.78905,1.28077 0.0874,1.61372 -0.30691,0.14562 -0.42139,0.15365 -0.68322,0.0479 l 0,0 0,-3e-5 z m -6.09855,-0.4235 c -0.26915,-0.10875 -0.54108,-0.50128 -0.54108,-0.781 0,-0.78359 0.8391,-1.19554 1.42721,-0.70069 0.75207,0.63284 0.0244,1.84957 -0.88613,1.48168 z m -3.29037,-0.15444 c -0.82654,-0.17873 -0.94127,-1.35277 -0.16395,-1.67755 0.36885,-0.15413 0.65091,-0.10096 0.9266,0.17476 0.35133,0.35135 0.37563,0.84015 0.0608,1.22248 -0.16447,0.1997 -0.56525,0.33615 -0.82339,0.28031 z m 22.24009,-1.48549 c -0.26562,-0.15326 -0.42611,-0.454 -0.42983,-0.80542 -0.002,-0.21212 0.0697,-0.35646 0.28498,-0.57174 0.38047,-0.38045 0.77625,-0.39424 1.17179,-0.0408 0.23577,0.21067 0.27662,0.30419 0.27662,0.63334 0,0.30286 -0.0475,0.43365 -0.22,0.60618 -0.2638,0.2638 -0.78649,0.34989 -1.08356,0.17846 z m -27.86698,-0.0893 c -0.48189,-0.26709 -0.57093,-0.9104 -0.18567,-1.34157 0.21219,-0.23747 0.30304,-0.2766 0.64221,-0.2766 0.33917,0 0.43001,0.0392 0.64221,0.2766 0.67855,0.75944 -0.20427,1.83735 -1.09875,1.34157 z m 17.87214,-0.0847 c -0.48189,-0.2671 -0.57093,-0.91041 -0.18567,-1.34158 0.21219,-0.2375 0.30303,-0.27662 0.6422,-0.27662 0.33918,0 0.43002,0.0392 0.64222,0.27662 0.67855,0.75944 -0.20426,1.83736 -1.09875,1.34158 z m -5.92915,-0.42351 c -0.48189,-0.26709 -0.57092,-0.91042 -0.18568,-1.34158 0.2122,-0.23749 0.30305,-0.27662 0.64221,-0.27662 0.33918,0 0.43002,0.0391 0.64222,0.27662 0.67856,0.75943 -0.20427,1.83735 -1.09875,1.34158 z m -17.36392,-0.0847 c -0.48188,-0.26709 -0.57093,-0.91041 -0.18568,-1.34157 0.2122,-0.23748 0.30304,-0.27663 0.64222,-0.27663 0.33917,0 0.43001,0.0392 0.6422,0.27663 0.67857,0.75942 -0.20424,1.83734 -1.09874,1.34157 z m 27.95168,-0.1694 c -0.48189,-0.2671 -0.57092,-0.91042 -0.18567,-1.34158 0.21219,-0.23749 0.30304,-0.27662 0.64221,-0.27662 0.33917,0 0.43001,0.0392 0.64221,0.27662 0.67856,0.75943 -0.20426,1.83735 -1.09875,1.34158 z m -32.18679,-0.59292 c -0.48188,-0.2671 -0.57092,-0.91041 -0.18567,-1.34158 0.21219,-0.23748 0.30303,-0.27661 0.64221,-0.27661 0.33918,0 0.43002,0.0391 0.64221,0.27661 0.67857,0.75944 -0.20425,1.83736 -1.09875,1.34158 z m -5.17033,-0.31959 c -0.72998,-0.496 -0.37483,-1.59505 0.5154,-1.59505 0.74931,0 1.11341,0.87322 0.60108,1.44153 -0.32199,0.35719 -0.73347,0.41377 -1.11648,0.15352 z m 18.80737,-0.18862 c -0.48188,-0.26708 -0.57093,-0.91043 -0.18568,-1.34159 0.2122,-0.23748 0.30304,-0.27661 0.64221,-0.27661 0.33918,0 0.43002,0.0391 0.64221,0.27661 0.67856,0.75944 -0.20425,1.83738 -1.09874,1.34159 z m 4.3198,-0.1694 c -0.48188,-0.26711 -0.57093,-0.91042 -0.18567,-1.34159 0.21219,-0.23748 0.30304,-0.27661 0.64221,-0.27661 0.33917,0 0.43002,0.0392 0.64221,0.27661 0.67856,0.75944 -0.20426,1.83736 -1.09875,1.34159 z m 7.7926,-0.25411 c -0.48189,-0.26709 -0.57093,-0.9104 -0.18568,-1.34157 0.2122,-0.23749 0.30304,-0.27662 0.64221,-0.27662 0.33917,0 0.43002,0.0392 0.64221,0.27662 0.67856,0.75943 -0.20426,1.83735 -1.09874,1.34157 z m -19.22737,-0.42351 c -0.48189,-0.26711 -0.57094,-0.9104 -0.18568,-1.34156 0.2122,-0.23751 0.30304,-0.27664 0.64221,-0.27664 0.33917,0 0.43002,0.0392 0.64221,0.27664 0.67857,0.75942 -0.20425,1.83734 -1.09874,1.34156 z m 30.57744,-0.33421 c -0.26562,-0.15327 -0.42612,-0.45399 -0.42983,-0.80541 -0.002,-0.21211 0.0697,-0.35647 0.28498,-0.57174 0.38047,-0.38046 0.77625,-0.39425 1.17179,-0.0409 0.23577,0.21066 0.27662,0.3042 0.27662,0.63334 0,0.30287 -0.0475,0.43365 -0.22001,0.60619 -0.26379,0.2638 -0.78648,0.34989 -1.08355,0.17846 z m -6.26795,-0.2587 c -0.48188,-0.2671 -0.57093,-0.91041 -0.18567,-1.34157 0.21219,-0.2375 0.30304,-0.27662 0.6422,-0.27662 0.33918,0 0.43002,0.0391 0.64221,0.27662 0.67856,0.75944 -0.20426,1.83734 -1.09874,1.34157 z m -7.70789,-1.01643 c -0.48189,-0.26709 -0.57093,-0.9104 -0.18568,-1.34158 0.2122,-0.23749 0.30304,-0.27662 0.64222,-0.27662 0.33917,0 0.43001,0.0392 0.64221,0.27662 0.67855,0.75944 -0.20426,1.83736 -1.09875,1.34158 z m -21.42963,-0.25412 c -0.48188,-0.26708 -0.57092,-0.91039 -0.18567,-1.34156 0.21219,-0.2375 0.30304,-0.27662 0.64221,-0.27662 0.33917,0 0.43002,0.0392 0.64221,0.27662 0.67856,0.75944 -0.20425,1.83734 -1.09875,1.34156 z m 7.36966,-0.27401 c -0.29687,-0.20794 -0.4431,-0.62435 -0.34457,-0.98119 0.10253,-0.37134 0.31822,-0.5692 0.68415,-0.62756 0.90563,-0.14442 1.4174,0.89328 0.74661,1.51394 -0.29452,0.27252 -0.77287,0.31426 -1.08619,0.0948 z m -12.87879,-0.13028 c -0.72998,-0.49597 -0.37484,-1.59504 0.5154,-1.59504 0.7493,0 1.11341,0.87322 0.60108,1.44153 -0.322,0.35719 -0.73347,0.41375 -1.11648,0.15351 z m 23.39756,-0.74902 c -0.4285,-0.17255 -0.56949,-0.98725 -0.23486,-1.357 0.39762,-0.43938 1.09759,-0.38075 1.40132,0.11736 0.47828,0.78438 -0.28436,1.59486 -1.16646,1.23963 z m 15.9077,-0.0279 c -0.26562,-0.15326 -0.42612,-0.454 -0.42983,-0.80542 -0.002,-0.2121 0.0697,-0.35647 0.28498,-0.57174 0.38046,-0.38045 0.77625,-0.39425 1.17179,-0.0409 0.23577,0.21067 0.27662,0.3042 0.27662,0.63336 0,0.30285 -0.0475,0.43365 -0.22001,0.60618 -0.26379,0.2638 -0.78648,0.34987 -1.08355,0.17847 z m -7.42923,-0.2591 c -0.3746,-0.3746 -0.39385,-0.77774 -0.055,-1.15355 0.32199,-0.35717 0.73346,-0.41376 1.11649,-0.15351 0.50453,0.34281 0.54106,0.9912 0.0778,1.381 -0.37596,0.31637 -0.77483,0.29047 -1.13924,-0.0739 z m -15.67172,-0.003 c -0.35222,-0.1533 -0.54025,-0.44013 -0.54025,-0.82414 0,-0.46073 0.28256,-0.75312 0.78225,-0.80944 0.35684,-0.0402 0.42071,-0.0193 0.65365,0.21357 0.20463,0.20465 0.25814,0.33088 0.25814,0.60904 0,0.46361 -0.11232,0.65245 -0.47926,0.80576 -0.36073,0.15073 -0.34052,0.15059 -0.67453,0.005 l 0,0 0,3e-5 z m 3.61948,-0.3353 c -0.48189,-0.26709 -0.57093,-0.9104 -0.18568,-1.34157 0.2122,-0.23748 0.30304,-0.27661 0.64222,-0.27661 0.33916,0 0.43001,0.0392 0.6422,0.27661 0.67855,0.75943 -0.20425,1.83735 -1.09874,1.34157 z m -12.14831,-0.22775 c -0.3226,-0.0891 -0.48612,-0.23729 -0.62294,-0.56458 -0.21465,-0.51353 0.18634,-1.09904 0.80999,-1.18268 0.30829,-0.0413 0.37327,-0.0157 0.64184,0.25281 0.21547,0.21546 0.29882,0.37324 0.29882,0.56561 0,0.63728 -0.54826,1.08887 -1.12771,0.92884 z m 30.02044,-1.80049 c -0.26562,-0.15328 -0.42612,-0.454 -0.42984,-0.80543 -0.002,-0.21211 0.0697,-0.35647 0.285,-0.57173 0.38046,-0.38047 0.77624,-0.39425 1.17178,-0.0409 0.23577,0.21067 0.27662,0.30419 0.27662,0.63334 0,0.30288 -0.0475,0.43366 -0.22001,0.6062 -0.26379,0.26379 -0.78648,0.34987 -1.08355,0.17846 z m -8.49964,-0.1884 c -0.80527,-0.43694 -0.49081,-1.64616 0.4281,-1.64616 0.51964,0 0.86332,0.34409 0.86066,0.86168 -0.004,0.72486 -0.66113,1.12502 -1.28876,0.78448 z m -17.65477,-0.91861 c -0.33134,-0.14911 -0.45137,-0.36189 -0.45137,-0.8002 0,-0.90473 1.2646,-1.19702 1.6515,-0.38172 0.37243,0.78486 -0.39753,1.54312 -1.20013,1.18192 z m 14.48907,-0.55255 c -0.47466,-0.20225 -0.66498,-0.79088 -0.41315,-1.27785 0.44087,-0.85255 1.79761,-0.3415 1.61913,0.60987 -0.0998,0.5318 -0.71971,0.87519 -1.20598,0.66798 z m -10.55497,-0.89539 c -0.87424,-0.49181 -0.20465,-1.92537 0.73282,-1.56895 0.55642,0.21155 0.75038,0.95365 0.36604,1.40045 -0.2383,0.27704 -0.76291,0.3575 -1.09886,0.1685 z m 7.31275,-0.0755 c -0.56567,-0.31353 -0.57607,-1.24041 -0.0172,-1.52942 0.38499,-0.1991 0.73008,-0.16485 1.02588,0.10181 0.77846,0.70179 -0.093,1.93516 -1.00871,1.42762 z m 12.87471,0.004 c -0.26562,-0.15328 -0.42612,-0.454 -0.42983,-0.80543 -0.002,-0.21211 0.0697,-0.35647 0.28499,-0.57175 0.38046,-0.38045 0.77624,-0.39425 1.17178,-0.0408 0.23577,0.21065 0.27662,0.30419 0.27662,0.63335 0,0.30284 -0.0475,0.43364 -0.22001,0.60618 -0.26379,0.26379 -0.78648,0.34988 -1.08355,0.17847 z m -17.28273,-0.15481 c -0.72997,-0.49599 -0.37483,-1.59505 0.51542,-1.59505 0.74929,0 1.1134,0.87322 0.60106,1.44153 -0.32199,0.35719 -0.73346,0.41376 -1.11648,0.15352 z m 15.16518,-1.87806 c -0.26562,-0.15327 -0.42612,-0.454 -0.42984,-0.80541 -0.002,-0.21211 0.0697,-0.35647 0.28499,-0.57175 0.38047,-0.38047 0.77625,-0.39425 1.17179,-0.0408 0.23577,0.21065 0.27662,0.30419 0.27662,0.63334 0,0.30285 -0.0475,0.43366 -0.22001,0.60619 -0.2638,0.2638 -0.78648,0.34988 -1.08355,0.17847 z m -2.80449,-1.97946 c -0.17689,-0.0904 -0.35896,-0.27946 -0.45142,-0.46867 -0.20024,-0.40976 -0.0815,-0.81903 0.32845,-1.13166 0.23732,-0.18102 0.34203,-0.20918 0.60721,-0.16323 0.88857,0.15397 1.18207,1.16386 0.48735,1.677 -0.30873,0.22803 -0.63754,0.25734 -0.97159,0.0866 z m -3.05579,-1.54261 c -0.53224,-0.53224 -0.16917,-1.46956 0.56923,-1.46956 0.4526,0 0.76888,0.22099 0.88871,0.62098 0.18415,0.61464 -0.21261,1.09618 -0.90318,1.09618 -0.22658,0 -0.37213,-0.0649 -0.55476,-0.2476 z m -16.16576,-0.61374 c -0.72997,-0.49599 -0.37483,-1.59507 0.51541,-1.59507 0.7493,0 1.1134,0.87322 0.60107,1.44155 -0.322,0.35717 -0.73347,0.41375 -1.11648,0.15352 z m 12.88491,-0.53582 c -0.82718,-0.69602 0.0712,-1.97583 1.0013,-1.4264 0.50737,0.29971 0.56879,0.91553 0.13463,1.3497 -0.36315,0.36315 -0.7634,0.39017 -1.13593,0.0767 z m -9.67568,0.0379 c -0.25877,-0.0999 -0.50459,-0.488 -0.50459,-0.79675 0,-0.92565 1.21849,-1.24283 1.65569,-0.431 0.39233,0.72851 -0.36144,1.53245 -1.1511,1.22775 z m 2.95346,-0.47981 c -0.7298,-0.45274 -0.39443,-1.63486 0.46341,-1.6334 0.27519,5.4e-4 0.7293,0.30676 0.82397,0.55579 0.14867,0.39101 0.0953,0.63397 -0.2054,0.93464 -0.32864,0.32865 -0.70295,0.37811 -1.08198,0.14297 z m 2.79486,-0.0175 c -0.33282,-0.26268 -0.44842,-0.67908 -0.29225,-1.05284 0.1313,-0.31426 0.50001,-0.56367 0.83248,-0.56313 0.3264,5.4e-4 0.73161,0.30487 0.81289,0.61056 0.15746,0.59211 -0.16347,1.07682 -0.75685,1.14311 -0.28979,0.0324 -0.41838,0.002 -0.59627,-0.1377 z"
/>
<path
id="logomap"
style="fill:#000000"
d="m 86.87213,90.11257 c -2.60605,-1.8781 -4.73832,-3.56216 -4.73832,-3.74259 0,-0.34689 10.45398,-6.5118 10.6722,-6.2935 0.22552,0.22568 -0.7211,13.45076 -0.96269,13.45076 -0.12806,0 -2.36513,-1.53665 -4.97119,-3.41467 z m 4.72457,-3.47461 c 0.11012,-2.47796 0.1422,-4.56359 0.0711,-4.63461 -0.15437,-0.15444 -1.61364,0.85312 -4.51561,3.11778 l -2.13328,1.66476 2.81444,2.15765 c 1.54789,1.18684 2.98288,2.16718 3.18877,2.17882 0.24465,0.0135 0.44368,-1.5384 0.57457,-4.4844 z m -75.4882,-4.77489 c -0.26232,-0.60871 -3.48267,-7.52653 -7.15632,-15.37298 -3.67367,-7.84638 -6.67612,-14.43624 -6.67215,-14.64398 0.003,-0.20785 1.71186,-1.68047 3.79526,-3.27261 2.08344,-1.59216 3.95746,-3.05552 4.16449,-3.25182 0.20725,-0.19637 2.23777,-1.75973 4.51245,-3.47409 l 4.13584,-3.11688 3.01596,-7.16073 3.01605,-7.16085 5.3408,-0.006 c 4.78823,-0.006 5.35902,-0.0693 5.5171,-0.6037 0.097,-0.32788 0.50043,-2.35841 0.89634,-4.51243 0.39604,-2.15404 0.79436,-4.22528 0.88511,-4.60278 0.16026,-0.66528 0.38674,-0.68328 7.38523,-0.58633 3.97095,0.055 7.71805,0.17921 8.32682,0.27607 l 1.10682,0.17607 0,4.38944 0,4.38948 5.23587,2.74682 c 2.87981,1.51076 5.33178,2.74689 5.44907,2.74689 0.11711,0 0.21285,-4.81781 0.21285,-10.70619 l 0,-10.70617 1.27715,0.19059 c 0.70243,0.10484 1.52806,0.44009 1.83469,0.74492 0.40822,0.40571 17.95237,22.75187 28.28172,36.02288 0.42519,0.54601 0.0539,2.64109 -3.36623,18.9961 l -2.98608,14.27897 -5.2642,2.55208 c -3.56925,1.73037 -5.31005,2.41458 -5.4065,2.12529 -0.0781,-0.23466 -0.89873,-1.55774 -1.82332,-2.94013 -7.30403,-10.92044 -22.69668,-14.40907 -38.83842,-8.8023 -6.13572,2.13123 -13.12289,5.94358 -19.50659,10.64312 -1.30721,0.9624 -2.49279,1.74971 -2.63477,1.74971 -0.14198,0 -0.47274,-0.49804 -0.73504,-1.10686 z m 6.59784,-4.75183 c 11.04564,-6.62874 20.51117,-10.59079 28.26645,-11.83163 5.21663,-0.83462 11.37233,-0.27351 15.5615,1.41862 4.14863,1.67566 8.64071,5.4514 11.8704,9.97729 0.86653,1.21427 1.75405,2.20774 1.97264,2.20774 0.21846,0 2.38175,-0.58207 4.80752,-1.29349 l 4.41044,-1.29335 1.63837,-10.71129 c 0.90099,-5.89115 1.92211,-12.8569 2.26909,-15.47917 l 0.63088,-4.7678 -1.09097,-1.53251 c -3.23718,-4.54739 -24.81513,-33.55921 -25.01866,-33.63795 -0.21232,-0.0822 -0.68842,6.15491 -1.28885,16.8827 -0.16943,3.0268 -0.27126,3.48092 -0.74247,3.30949 -0.30052,-0.1093 -3.34007,-1.38141 -6.75503,-2.82696 l -6.20887,-2.62828 -0.006,-4.32206 c -0.002,-2.37716 -0.12127,-4.38942 -0.26186,-4.47172 -0.14045,-0.0824 -3.33388,-0.25958 -7.09642,-0.3937 l -6.84103,-0.24392 -0.42355,5.56653 c -0.23315,3.06157 -0.46462,5.60728 -0.51452,5.65722 -0.05,0.0499 -2.72248,-0.0922 -5.93914,-0.31579 -3.59447,-0.24988 -5.95632,-0.28466 -6.12845,-0.0902 -0.15427,0.17405 -1.46406,3.53979 -2.9108,7.47945 l -2.63015,7.163 -2.78673,2.08773 c -1.5327,1.14826 -4.77899,3.57045 -7.214,5.38253 -2.43499,1.81207 -4.47253,3.41691 -4.5278,3.56648 -0.0554,0.14934 2.45287,6.65504 5.5738,14.45686 5.57119,13.92746 5.6876,14.17671 6.4009,13.71211 0.39956,-0.26022 2.64211,-1.62283 4.9835,-3.02789 z"
/>
<path
d="m 15.51065,24.59583 c -0.26197,-0.78297 -0.51426,-1.48164 -0.56064,-1.55258 -0.0464,-0.071 -0.35888,-0.18738 -0.69446,-0.25878 -2.36638,-0.50339 -4.62097,-2.74922 -5.278,-5.25748 l -0.20134,-0.76863 -1.52503,-0.51729 c -0.83877,-0.28451 -1.4847,-0.55324 -1.4354,-0.59717 0.0493,-0.0439 0.70997,-0.29921 1.46815,-0.56727 0.75817,-0.26805 1.41746,-0.52334 1.46507,-0.56731 0.0476,-0.044 0.16539,-0.38255 0.26173,-0.75243 0.60324,-2.316 2.58938,-4.30978 5.03822,-5.05762 l 0.7915,-0.24171 0.52873,-1.57422 c 0.2908,-0.86582 0.5605,-1.57422 0.59933,-1.57422 0.0388,0 0.31279,0.71383 0.60881,1.58628 l 0.53821,1.58627 0.67341,0.1391 c 1.8606,0.3843 3.91077,2.05743 4.81007,3.92549 0.25855,0.53704 0.50349,1.18778 0.54433,1.4461 l 0.0742,0.46964 1.51039,0.52082 c 0.83071,0.28644 1.49738,0.56618 1.48149,0.62166 -0.0159,0.0554 -0.64553,0.30762 -1.39922,0.56035 -0.75367,0.25273 -1.40057,0.49044 -1.43752,0.52827 -0.037,0.0379 -0.14474,0.37383 -0.23949,0.74669 -0.32985,1.29796 -0.9268,2.30969 -1.99666,3.38404 -1.08886,1.09342 -1.87061,1.55561 -3.21854,1.90284 l -0.79783,0.20553 -0.48016,1.38364 c -0.26409,0.761 -0.51907,1.45563 -0.56662,1.54362 -0.0546,0.10107 -0.262,-0.36469 -0.56276,-1.26363 z m 0.28451,-8.45881 c -0.0726,-0.0726 -2.13566,2.06711 -2.13566,2.21502 0,0.0686 0.26402,0.87112 0.58671,1.78324 0.32268,0.91215 0.80085,2.27876 1.06259,3.03695 l 0.47589,1.37849 0.0302,-4.18192 c 0.0166,-2.30005 0.008,-4.20436 -0.0197,-4.23178 z m -1.01121,6.3879 c -0.0239,-0.0717 -0.43435,-0.26832 -0.91211,-0.43694 -0.47776,-0.16863 -1.12412,-0.47055 -1.43634,-0.67091 -1.2556,-0.80571 -2.4792,-2.37763 -2.87693,-3.69593 -0.25201,-0.83526 -0.42522,-1.02047 -0.32746,-0.35013 0.0415,0.28432 0.28766,0.95502 0.5471,1.49043 0.79202,1.63455 2.39568,2.99347 4.22267,3.57824 0.76544,0.24498 0.83898,0.25299 0.78307,0.0852 z m 3.58544,-0.20834 c 1.36773,-0.42189 2.96537,-1.72914 3.7504,-3.0687 0.33219,-0.56685 0.84461,-1.88872 0.84461,-2.17885 0,-0.38716 -0.28914,-0.0473 -0.46566,0.54718 -0.30227,1.01825 -0.87624,1.96891 -1.66489,2.75755 -0.87525,0.87526 -1.74465,1.42602 -2.78205,1.76242 -0.41765,0.13545 -0.78163,0.31308 -0.80885,0.39473 -0.0332,0.0996 0.0212,0.12666 0.16513,0.0822 0.11804,-0.0365 0.55063,-0.16988 0.96131,-0.29657 z m -3.79088,-0.40199 c 0,-0.0607 -0.71084,-2.05782 -0.75043,-2.10831 -0.0377,-0.0481 -1.90982,0.43533 -2.10154,0.54264 -0.34838,0.19496 1.92734,1.57539 2.65093,1.60804 0.11057,0.005 0.20104,-0.014 0.20104,-0.0424 z m 4.08131,-0.33681 c 0.83204,-0.40336 1.77732,-1.04002 1.77732,-1.19707 0,-0.0808 -2.19265,-0.63522 -2.24411,-0.56748 -0.0115,0.0152 -0.17969,0.50578 -0.37367,1.0902 -0.41738,1.25753 -0.39672,1.2741 0.84046,0.67435 z m -6.86846,-3.62203 c -0.0266,-0.15786 -1.90888,-0.86664 -2.01627,-0.75924 -0.19708,0.19708 0.68393,2.04588 1.27723,2.68032 l 0.24852,0.26574 0.25891,-1.01243 c 0.1424,-0.55683 0.24662,-1.08532 0.23161,-1.17439 z m 7.72678,1.31071 c -0.40703,-0.41068 -0.77526,-0.74669 -0.81829,-0.74669 -0.0862,0 -0.33046,0.64003 -0.33046,0.86583 0,0.10913 0.99311,0.44277 1.83468,0.61639 0.0298,0.006 -0.2789,-0.32485 -0.68593,-0.73553 z m 2.13056,-0.3538 c 0.2686,-0.44839 0.7781,-1.7729 0.70868,-1.84231 -0.0291,-0.0291 -0.90734,0.27344 -1.81954,0.62671 l -0.30137,0.11672 0.26507,1.07097 c 0.14579,0.58902 0.27034,1.09681 0.27678,1.1284 0.0196,0.0961 0.57202,-0.6024 0.87038,-1.10049 z m -8.56357,-0.62958 c 0,-0.0769 -0.92199,-0.37804 -0.97047,-0.31693 -0.0392,0.0495 -0.40804,1.55427 -0.40804,1.66495 0,0.0482 0.31017,-0.21926 0.68926,-0.59439 0.37908,-0.37514 0.68925,-0.71426 0.68925,-0.75363 z m 9.16659,-1.48644 2.78897,-0.97644 -2.12947,-0.0313 c -1.1712,-0.0171 -3.08433,-0.0171 -4.2514,0 l -2.12196,0.0313 1.03473,1.10671 1.03472,1.10672 0.42773,-0.13027 c 0.23525,-0.0716 1.68276,-0.56968 3.21668,-1.10672 z m -6.06496,-1.14875 c 0,-0.12636 -0.0745,-0.22976 -0.16553,-0.22976 -0.20294,0 -0.33269,0.18906 -0.23654,0.34464 0.12493,0.20213 0.40207,0.12295 0.40207,-0.11488 z m -0.71292,-0.21269 c 0.10706,-0.068 -0.14167,-0.38879 -0.88912,-1.147 -0.57077,-0.57897 -1.11389,-1.05269 -1.20693,-1.05269 -0.093,0 -0.4425,0.10009 -0.77657,0.22252 -0.33408,0.12239 -1.66713,0.59334 -2.96235,1.04659 -1.29522,0.45325 -2.43248,0.86848 -2.52725,0.92275 -0.0984,0.0563 1.62663,0.0994 4.02063,0.10042 2.30612,9.4e-4 4.25984,-0.0407 4.34159,-0.0926 z m 2.89555,-2.51318 c 0,-0.21846 -2.08198,-6.15894 -2.20512,-6.29184 -0.0655,-0.0708 -0.0836,0.45898 -0.0469,1.37851 0.0328,0.82137 0.0618,2.7847 0.0645,4.36298 l 0.005,2.86962 1.09131,-1.08678 c 0.60023,-0.59772 1.09132,-1.15236 1.09132,-1.23249 l -1e-5,0 z m -8.73833,0.52342 c 0.61266,-1.87565 2.44804,-3.65753 4.34844,-4.22168 0.35214,-0.10452 0.66057,-0.25101 0.6854,-0.32551 0.062,-0.18585 -0.98861,0.13215 -1.81589,0.54966 -1.72044,0.86828 -3.33488,2.89145 -3.61825,4.53429 -0.11588,0.67183 0.10014,0.38217 0.4003,-0.53676 z m 13.10645,0.12346 c -0.72313,-2.31011 -2.83689,-4.23138 -5.22969,-4.75345 -0.60695,-0.13243 -0.0848,0.21733 0.65893,0.4414 0.78436,0.2363 2.18664,1.14626 2.78208,1.80535 0.6567,0.72688 1.26527,1.73393 1.4966,2.47652 0.18306,0.58767 0.37926,0.90867 0.48858,0.79934 0.0185,-0.0185 -0.0699,-0.36465 -0.1965,-0.76916 z m -11.89245,0.24359 c 0.44227,-0.14344 0.85088,-0.30374 0.90803,-0.35622 0.099,-0.0909 -0.20881,-1.82634 -0.38058,-2.14533 -0.1654,-0.30717 -1.41342,1.67326 -1.58031,2.50773 -0.0588,0.29402 -0.0401,0.36154 0.0869,0.31449 0.089,-0.033 0.52367,-0.17725 0.96594,-0.32067 z m 11.37788,0.0261 c -0.13838,-0.56705 -0.63349,-1.54985 -1.06735,-2.11876 l -0.42499,-0.55728 -0.25088,1.12263 c -0.13798,0.61744 -0.24201,1.13201 -0.23117,1.14349 0.0382,0.0404 1.85561,0.7072 1.95289,0.71645 0.0542,0.005 0.0639,-0.13279 0.0215,-0.30653 z m -2.08203,-1.32873 c 0.23513,-1.01386 0.23033,-1.05957 -0.0771,-0.73544 -0.14216,0.14987 -0.45706,0.48235 -0.69979,0.73882 l -0.44132,0.46633 0.49876,0.16968 c 0.27431,0.0933 0.50761,0.16358 0.51843,0.15614 0.0108,-0.008 0.10128,-0.36542 0.20103,-0.79553 z m -6.48659,-0.67345 c 0.004,-0.14347 -0.16327,-0.22786 -0.6524,-0.3294 -0.36167,-0.0751 -0.73645,-0.16357 -0.83284,-0.19664 -0.0964,-0.0331 0.1349,0.25939 0.51398,0.6499 l 0.68926,0.71003 0.13841,-0.3205 c 0.0761,-0.17627 0.14074,-0.4073 0.14359,-0.51339 z m 0.49844,-1.39349 c 0.17098,-0.52501 0.31087,-0.98796 0.31087,-1.02877 0,-0.11388 -0.86216,0.21596 -1.58864,0.60777 -0.66012,0.35603 -1.23813,0.77739 -1.15592,0.84266 0.0701,0.0557 1.74671,0.50261 1.94547,0.51862 0.1248,0.01 0.26949,-0.2686 0.48822,-0.94028 z m 5.20271,0.70933 0.97776,-0.24523 -0.24838,-0.26438 c -0.51522,-0.54843 -2.74129,-1.52725 -2.59271,-1.14003 0.0337,0.0879 0.19991,0.55015 0.3693,1.02731 0.16939,0.47716 0.35485,0.86757 0.41213,0.86757 0.0573,0 0.54413,-0.11036 1.0819,-0.24524 z"
id="logocompass"
style="fill:#000000"
/>
<rect
height="99.999985"
x="49.58333"
id="logoverticalbar"
style="fill:#ffffff;fill-opacity:1;stroke:#000000;stroke-width:0;stroke-opacity:1"
width="1.6666664"
y="0"
/>
<rect
height="1.6666664"
x="1.00000000031741e-05"
id="logohorizontalbar"
style="fill:#ffffff;fill-opacity:1;stroke:#000000;stroke-width:0;stroke-opacity:1"
width="99.999985"
y="48.74997"
/>
<path
id="logocompassn"
d="m 15.64609,2.94614000000001 0.97998,1.23193 0,-0.854 q 0,-0.17871 -0.0513,-0.24171 -0.0703,-0.085 -0.23584,-0.0821 l 0,-0.0542 0.65625,0 0,0.0542 q -0.12598,0.0161 -0.16992,0.0425 -0.0425,0.0249 -0.0674,0.0835 -0.0234,0.0572 -0.0234,0.19776 l 0,1.6538 -0.0498,0 -1.34326,-1.6538 0,1.2627 q 0,0.17138 0.0776,0.23143 0.0791,0.0601 0.18018,0.0601 l 0.0469,0 0,0.0543 -0.70459,0 0,-0.0543 q 0.16406,-10e-4 0.22851,-0.0674 0.0645,-0.0659 0.0645,-0.22412 l 0,-1.40185 -0.0425,-0.0527 q -0.063,-0.0791 -0.11133,-0.10399 -0.0483,-0.0249 -0.13916,-0.0278 l 0,-0.0542 0.70459,0 z"
/>
<path
id="logocompasss"
d="m 16.60095,26.3269 0.0161,0.66211 -0.0601,0 q -0.0425,-0.24903 -0.20947,-0.3999 -0.16553,-0.15235 -0.35889,-0.15235 -0.14942,0 -0.23731,0.0806 -0.0864,0.0791 -0.0864,0.18311 0,0.0659 0.0308,0.11718 0.0425,0.0688 0.13623,0.13624 0.0688,0.0483 0.31788,0.17138 0.34863,0.1714 0.47021,0.32372 0.12012,0.15235 0.12012,0.34865 0,0.24901 -0.19483,0.42919 -0.19336,0.17871 -0.49219,0.17871 -0.0937,0 -0.17724,-0.0191 -0.0835,-0.0191 -0.20947,-0.0717 -0.0703,-0.0293 -0.11573,-0.0293 -0.0381,0 -0.0806,0.0293 -0.0425,0.0293 -0.0688,0.0893 l -0.0542,0 0,-0.75 0.0542,0 q 0.0645,0.31642 0.24756,0.4834 0.18457,0.16553 0.39697,0.16553 0.16407,0 0.26075,-0.0893 0.0981,-0.0893 0.0981,-0.208 0,-0.0703 -0.0381,-0.13623 -0.0366,-0.0659 -0.1128,-0.12452 -0.0762,-0.0601 -0.26953,-0.15526 -0.27099,-0.1333 -0.38965,-0.22705 -0.11865,-0.0937 -0.1831,-0.20947 -0.063,-0.11573 -0.063,-0.2549 0,-0.2373 0.17432,-0.40428 0.17431,-0.167 0.43945,-0.167 0.0967,0 0.1875,0.0234 0.0688,0.0176 0.16699,0.0659 0.0996,0.0469 0.13916,0.0469 0.0381,0 0.0601,-0.0234 0.022,-0.0234 0.041,-0.11279 l 0.0439,0 z"
/>
<path
id="logocompassw"
d="m 5.60373,14.77617 0,0.0542 q -0.0557,0.004 -0.0937,0.0307 -0.0381,0.0263 -0.0674,0.0806 -0.009,0.0176 -0.0923,0.22705 l -0.62255,1.63916 -0.0571,0 -0.49219,-1.28027 -0.54199,1.28027 -0.0542,0 -0.65332,-1.62158 q -0.0996,-0.24462 -0.13916,-0.2959 -0.0396,-0.0512 -0.1333,-0.0601 l 0,-0.0543 0.86132,0 0,0.0543 q -0.104,0.003 -0.13916,0.0323 -0.0337,0.0278 -0.0337,0.0703 0,0.0557 0.0718,0.23584 l 0.38965,0.96386 0.31201,-0.75292 -0.082,-0.21094 q -0.0674,-0.17284 -0.104,-0.22998 -0.0366,-0.0586 -0.085,-0.0835 -0.0469,-0.0249 -0.13916,-0.0249 l 0,-0.0542 0.96241,0 0,0.0542 q -0.10108,9.9e-4 -0.14502,0.0161 -0.0308,0.0108 -0.0483,0.0352 -0.0176,0.0234 -0.0176,0.0543 0,0.0336 0.0659,0.20655 l 0.36181,0.94043 0.32373,-0.85108 q 0.0513,-0.13183 0.063,-0.18017 0.0117,-0.0483 0.0117,-0.0894 0,-0.0601 -0.041,-0.0937 -0.041,-0.0352 -0.15674,-0.0381 l 0,-0.0542 0.51562,0 z"
/>
<path
d="m 27.46845,14.74561 0,0.8086 0.0395,0 q 0.18897,0 0.27393,-0.11867 0.085,-0.11865 0.1084,-0.35008 l 0.0557,0 0,1.04003 -0.0557,0 q -0.0176,-0.16992 -0.0747,-0.27832 -0.0557,-0.10839 -0.13038,-0.14502 -0.0747,-0.0381 -0.21679,-0.0381 l 0,0.55956 q 0,0.16407 0.0132,0.20068 0.0147,0.0367 0.0527,0.0601 0.0381,0.0234 0.12304,0.0234 l 0.11866,0 q 0.27832,0 0.44531,-0.12892 0.16846,-0.12889 0.2417,-0.39258 l 0.0542,0 -0.0893,0.63137 -1.7168,0 0,-0.0543 0.0659,0 q 0.0864,0 0.13916,-0.0307 0.0381,-0.0205 0.0586,-0.0703 0.0161,-0.0352 0.0161,-0.18457 l 0,-1.30663 q 0,-0.13476 -0.007,-0.16554 -0.0146,-0.0512 -0.0542,-0.0791 -0.0557,-0.041 -0.15234,-0.041 l -0.0659,0 0,-0.0542 1.6626,0 0,0.5874 -0.0557,0 q -0.0425,-0.21533 -0.12012,-0.30908 -0.0762,-0.0937 -0.2168,-0.1377 -0.082,-0.0263 -0.30761,-0.0263 l -0.20508,0 z"
id="logocompasse"
/>
<path
d="m 6.71656,95.97259 q 0,0.60985 -0.27701,0.89544 -0.27701,0.2856 -0.8525,0.2856 -0.19111,0 -0.37364,-0.0279 -0.18037,-0.0257 -0.35646,-0.0752 l 0,-0.4123 0.0215,0 q 0.0988,0.0386 0.31351,0.0945 0.21473,0.058 0.42947,0.058 0.20614,0 0.34143,-0.0494 0.13528,-0.0494 0.21044,-0.13743 0.0751,-0.0837 0.10736,-0.20186 0.0322,-0.1181 0.0322,-0.26412 l 0,-0.21903 q -0.18252,0.14603 -0.35001,0.21903 -0.16535,0.0709 -0.42303,0.0709 -0.42947,0 -0.68286,-0.30921 -0.25124,-0.31137 -0.25124,-0.87613 0,-0.30921 0.0859,-0.53253 0.088,-0.22547 0.23835,-0.38868 0.13958,-0.15245 0.33928,-0.2362 0.19971,-0.0858 0.39726,-0.0858 0.2083,0 0.34787,0.0429 0.14173,0.0408 0.29848,0.1267 l 0.0258,-0.10308 0.37794,0 0,2.12588 z m -0.4037,-0.38652 0,-1.30774 q -0.16106,-0.073 -0.30063,-0.10308 -0.13743,-0.0322 -0.27486,-0.0322 -0.33284,0 -0.52396,0.22332 -0.19111,0.22333 -0.19111,0.6485 0,0.4037 0.14172,0.612 0.14173,0.20829 0.47027,0.20829 0.17609,0 0.35217,-0.0666 0.17823,-0.0687 0.3264,-0.18252 z"
id="logourl1g"
/>
<path
id="logourl2e"
d="m 9.51885,95.08788 -1.76727,0 q 0,0.22117 0.0666,0.38652 0.0666,0.1632 0.18252,0.26842 0.11166,0.10307 0.26413,0.15461 0.1546,0.0516 0.33928,0.0516 0.24479,0 0.49174,-0.0966 0.24909,-0.0988 0.35431,-0.19326 l 0.0215,0 0,0.4402 q -0.20399,0.0859 -0.41658,0.14387 -0.21259,0.058 -0.44665,0.058 -0.59696,0 -0.93195,-0.3221 -0.33499,-0.32425 -0.33499,-0.91907 0,-0.58837 0.31996,-0.93409 0.3221,-0.34572 0.84606,-0.34572 0.4853,0 0.74727,0.28344 0.26413,0.28345 0.26413,0.80526 l 0,0.21903 z m -0.39297,-0.30922 q -0.002,-0.31781 -0.16105,-0.49174 -0.15676,-0.17394 -0.47886,-0.17394 -0.32425,0 -0.51751,0.19112 -0.19111,0.19111 -0.21688,0.47456 l 1.3743,0 z"
/>
<path
d="m 12.17512,95.04708 q 0,0.58622 -0.30063,0.92551 -0.30063,0.33928 -0.80526,0.33928 -0.50892,0 -0.80955,-0.33928 -0.29848,-0.33929 -0.29848,-0.92551 0,-0.58623 0.29848,-0.92551 0.30063,-0.34142 0.80955,-0.34142 0.50463,0 0.80526,0.34142 0.30063,0.33928 0.30063,0.92551 z m -0.41659,0 q 0,-0.46598 -0.18252,-0.69144 -0.18253,-0.22762 -0.50678,-0.22762 -0.32854,0 -0.51107,0.22762 -0.18037,0.22546 -0.18037,0.69144 0,0.45094 0.18252,0.685 0.18253,0.23191 0.50892,0.23191 0.3221,0 0.50463,-0.22976 0.18467,-0.23192 0.18467,-0.68715 z"
id="logourl3o"
/>
<path
d="m 14.57585,96.09498 q -0.20185,0.0966 -0.38437,0.15032 -0.18038,0.0537 -0.38438,0.0537 -0.25983,0 -0.47671,-0.0752 -0.21688,-0.0773 -0.37149,-0.23192 -0.15676,-0.1546 -0.24265,-0.39082 -0.0859,-0.2362 -0.0859,-0.55186 0,-0.58838 0.3221,-0.92336 0.32425,-0.33499 0.85465,-0.33499 0.20614,0 0.4037,0.058 0.1997,0.058 0.36505,0.14173 l 0,0.44879 -0.0215,0 q -0.18467,-0.14388 -0.38223,-0.22118 -0.19541,-0.0773 -0.38223,-0.0773 -0.34358,0 -0.54328,0.23193 -0.19755,0.22975 -0.19755,0.67641 0,0.43376 0.19326,0.66783 0.19541,0.23191 0.54757,0.23191 0.1224,0 0.24909,-0.0322 0.1267,-0.0322 0.22762,-0.0837 0.0881,-0.0451 0.16535,-0.0945 0.0773,-0.0516 0.1224,-0.0881 l 0.0215,0 0,0.4445 z"
id="logourl4c"
/>
<path
d="m 16.95941,96.2453 -0.40155,0 0,-0.25553 q -0.0537,0.0365 -0.14602,0.10307 -0.0902,0.0644 -0.17609,0.10307 -0.10092,0.0494 -0.23191,0.0816 -0.13099,0.0344 -0.30707,0.0344 -0.32425,0 -0.54972,-0.21474 -0.22547,-0.21473 -0.22547,-0.54757 0,-0.27271 0.11595,-0.44021 0.11811,-0.16964 0.33499,-0.26627 0.21903,-0.0966 0.5261,-0.13099 0.30707,-0.0344 0.65924,-0.0516 l 0,-0.0623 q 0,-0.13743 -0.0494,-0.22762 -0.0472,-0.0902 -0.13743,-0.14172 -0.0859,-0.0494 -0.20615,-0.0665 -0.12025,-0.0172 -0.25124,-0.0172 -0.1589,0 -0.35431,0.0429 -0.19541,0.0408 -0.4037,0.12025 l -0.0215,0 0,-0.41014 q 0.1181,-0.0322 0.34143,-0.0709 0.22332,-0.0386 0.4402,-0.0386 0.25339,0 0.44021,0.0429 0.18897,0.0408 0.3264,0.14173 0.13528,0.0988 0.20614,0.25553 0.0709,0.15675 0.0709,0.38867 l 0,1.62769 z m -0.40155,-0.59052 0,-0.66782 q -0.18467,0.0108 -0.43592,0.0322 -0.24909,0.0215 -0.39511,0.0623 -0.17393,0.0494 -0.2813,0.15461 -0.10737,0.10308 -0.10737,0.2856 0,0.20615 0.12455,0.31137 0.12455,0.10307 0.38008,0.10307 0.21259,0 0.38867,-0.0816 0.17608,-0.0837 0.3264,-0.19971 z"
id="logourl5a"
/>
<path
id="logourl6c"
d="m 19.51476,96.09498 q -0.20185,0.0966 -0.38438,0.15032 -0.18038,0.0537 -0.38437,0.0537 -0.25983,0 -0.47672,-0.0752 -0.21688,-0.0773 -0.37149,-0.23192 -0.15675,-0.1546 -0.24265,-0.39082 -0.0859,-0.2362 -0.0859,-0.55186 0,-0.58838 0.32211,-0.92336 0.32424,-0.33499 0.85464,-0.33499 0.20615,0 0.4037,0.058 0.1997,0.058 0.36505,0.14173 l 0,0.44879 -0.0215,0 q -0.18467,-0.14388 -0.38223,-0.22118 -0.19541,-0.0773 -0.38223,-0.0773 -0.34357,0 -0.54328,0.23193 -0.19755,0.22975 -0.19755,0.67641 0,0.43376 0.19326,0.66783 0.19541,0.23191 0.54757,0.23191 0.1224,0 0.2491,-0.0322 0.12669,-0.0322 0.22761,-0.0837 0.0881,-0.0451 0.16535,-0.0945 0.0773,-0.0516 0.1224,-0.0881 l 0.0215,0 0,0.4445 z"
/>
<path
d="m 22.04004,96.2453 -0.4037,0 0,-1.36571 q 0,-0.16535 -0.0193,-0.30922 -0.0193,-0.14602 -0.0709,-0.22762 -0.0537,-0.0902 -0.15461,-0.13314 -0.10093,-0.0451 -0.26198,-0.0451 -0.16534,0 -0.34572,0.0816 -0.18038,0.0816 -0.34573,0.20829 l 0,1.79089 -0.4037,0 0,-3.34127 0.4037,0 0,1.20895 q 0.18897,-0.15675 0.39082,-0.2448 0.20185,-0.0881 0.41444,-0.0881 0.38867,0 0.59267,0.23406 0.204,0.23406 0.204,0.67426 l 0,1.55683 z"
id="logourl7h"
/>
<path
id="logourl8i"
d="m 23.25114,93.44516 -0.45523,0 0,-0.41874 0.45523,0 0,0.41874 z m -0.0258,2.80014 -0.4037,0 0,-2.39859 0.4037,0 0,2.39859 z"
/>
<path
d="m 26.01693,96.2453 -0.4037,0 0,-1.36571 q 0,-0.16535 -0.0193,-0.30922 -0.0193,-0.14602 -0.0709,-0.22762 -0.0537,-0.0902 -0.15461,-0.13314 -0.10093,-0.0451 -0.26198,-0.0451 -0.16535,0 -0.34572,0.0816 -0.18038,0.0816 -0.34572,0.20829 l 0,1.79089 -0.40371,0 0,-2.39859 0.40371,0 0,0.26627 q 0.18896,-0.15675 0.39081,-0.2448 0.20185,-0.0881 0.41444,-0.0881 0.38867,0 0.59267,0.23406 0.204,0.23406 0.204,0.67426 l 0,1.55683 z"
id="logourl9n"
/>
<path
d="m 28.73977,95.97259 q 0,0.60985 -0.27701,0.89544 -0.27701,0.2856 -0.8525,0.2856 -0.19111,0 -0.37364,-0.0279 -0.18037,-0.0257 -0.35646,-0.0752 l 0,-0.4123 0.0215,0 q 0.0988,0.0386 0.31352,0.0945 0.21473,0.058 0.42947,0.058 0.20614,0 0.34142,-0.0494 0.13529,-0.0494 0.21044,-0.13743 0.0752,-0.0837 0.10737,-0.20186 0.0322,-0.1181 0.0322,-0.26412 l 0,-0.21903 q -0.18252,0.14603 -0.35002,0.21903 -0.16534,0.0709 -0.42302,0.0709 -0.42948,0 -0.68286,-0.30921 -0.25124,-0.31137 -0.25124,-0.87613 0,-0.30921 0.0859,-0.53253 0.088,-0.22547 0.23835,-0.38868 0.13958,-0.15245 0.33929,-0.2362 0.1997,-0.0858 0.39726,-0.0858 0.20829,0 0.34787,0.0429 0.14172,0.0408 0.29848,0.1267 l 0.0258,-0.10308 0.37793,0 0,2.12588 z m -0.4037,-0.38652 0,-1.30774 q -0.16106,-0.073 -0.30063,-0.10308 -0.13743,-0.0322 -0.27486,-0.0322 -0.33284,0 -0.52396,0.22332 -0.19111,0.22333 -0.19111,0.6485 0,0.4037 0.14172,0.612 0.14173,0.20829 0.47027,0.20829 0.17609,0 0.35217,-0.0666 0.17823,-0.0687 0.3264,-0.18252 z"
id="logourl10g"
/>
<path
id="logourl11."
d="m 30.19352,96.2453 -0.51321,0 0,-0.612 0.51321,0 0,0.612 z"
/>
<path
d="m 32.90562,96.09498 q -0.20185,0.0966 -0.38437,0.15032 -0.18038,0.0537 -0.38438,0.0537 -0.25983,0 -0.47671,-0.0752 -0.21688,-0.0773 -0.37149,-0.23192 -0.15676,-0.1546 -0.24265,-0.39082 -0.0859,-0.2362 -0.0859,-0.55186 0,-0.58838 0.3221,-0.92336 0.32425,-0.33499 0.85465,-0.33499 0.20614,0 0.4037,0.058 0.1997,0.058 0.36505,0.14173 l 0,0.44879 -0.0215,0 q -0.18467,-0.14388 -0.38223,-0.22118 -0.19541,-0.0773 -0.38223,-0.0773 -0.34357,0 -0.54328,0.23193 -0.19755,0.22975 -0.19755,0.67641 0,0.43376 0.19326,0.66783 0.19541,0.23191 0.54757,0.23191 0.1224,0 0.24909,-0.0322 0.1267,-0.0322 0.22762,-0.0837 0.0881,-0.0451 0.16535,-0.0945 0.0773,-0.0516 0.1224,-0.0881 l 0.0215,0 0,0.4445 z"
id="logourl12c"
/>
<path
id="logourl13o"
d="m 35.46956,95.04708 q 0,0.58622 -0.30063,0.92551 -0.30063,0.33928 -0.80526,0.33928 -0.50892,0 -0.80955,-0.33928 -0.29848,-0.33929 -0.29848,-0.92551 0,-0.58623 0.29848,-0.92551 0.30063,-0.34142 0.80955,-0.34142 0.50463,0 0.80526,0.34142 0.30063,0.33928 0.30063,0.92551 z m -0.41659,0 q 0,-0.46598 -0.18252,-0.69144 -0.18253,-0.22762 -0.50678,-0.22762 -0.32854,0 -0.51107,0.22762 -0.18037,0.22546 -0.18037,0.69144 0,0.45094 0.18252,0.685 0.18253,0.23191 0.50892,0.23191 0.32211,0 0.50463,-0.22976 0.18467,-0.23192 0.18467,-0.68715 z"
/>
<path
d="m 39.59676,96.2453 -0.4037,0 0,-1.36571 q 0,-0.15461 -0.015,-0.29849 -0.0129,-0.14387 -0.058,-0.22977 -0.0494,-0.0924 -0.14172,-0.13957 -0.0923,-0.0472 -0.26628,-0.0472 -0.16964,0 -0.33928,0.0858 -0.16964,0.0837 -0.33928,0.21473 0.006,0.0494 0.0107,0.11596 0.004,0.0644 0.004,0.12885 l 0,1.53535 -0.4037,0 0,-1.36571 q 0,-0.1589 -0.015,-0.30063 -0.0129,-0.14387 -0.058,-0.22977 -0.0494,-0.0924 -0.14172,-0.13743 -0.0923,-0.0472 -0.26627,-0.0472 -0.16535,0 -0.33284,0.0816 -0.16535,0.0816 -0.3307,0.20829 l 0,1.79089 -0.4037,0 0,-2.39859 0.4037,0 0,0.26627 q 0.18897,-0.15675 0.37579,-0.2448 0.18897,-0.088 0.40155,-0.088 0.2448,0 0.41444,0.10307 0.17179,0.10307 0.25554,0.2856 0.2448,-0.20615 0.44665,-0.29634 0.20185,-0.0924 0.43161,-0.0924 0.39512,0 0.58194,0.2405 0.18896,0.23836 0.18896,0.66782 l 0,1.55683 z"
id="logourl14m"
/>
<path
id="logourl15."
d="m 41.03334,96.2453 -0.51322,0 0,-0.612 0.51322,0 0,0.612 z"
/>
<path
id="logourl16a"
d="m 43.83563,96.2453 -0.40156,0 0,-0.25553 q -0.0537,0.0365 -0.14601,0.10307 -0.0902,0.0644 -0.17609,0.10307 -0.10092,0.0494 -0.23191,0.0816 -0.13099,0.0344 -0.30707,0.0344 -0.32425,0 -0.54972,-0.21474 -0.22547,-0.21473 -0.22547,-0.54757 0,-0.27271 0.11595,-0.44021 0.11811,-0.16964 0.33499,-0.26627 0.21903,-0.0966 0.5261,-0.13099 0.30707,-0.0344 0.65923,-0.0516 l 0,-0.0623 q 0,-0.13743 -0.0494,-0.22762 -0.0472,-0.0902 -0.13743,-0.14172 -0.0859,-0.0494 -0.20614,-0.0665 -0.12025,-0.0172 -0.25124,-0.0172 -0.15891,0 -0.35431,0.0429 -0.19541,0.0408 -0.40371,0.12025 l -0.0215,0 0,-0.41014 q 0.11811,-0.0322 0.34143,-0.0709 0.22333,-0.0386 0.44021,-0.0386 0.25339,0 0.44021,0.0429 0.18896,0.0408 0.32639,0.14173 0.13529,0.0988 0.20615,0.25553 0.0709,0.15675 0.0709,0.38867 l 0,1.62769 z m -0.40156,-0.59052 0,-0.66782 q -0.18467,0.0108 -0.43591,0.0322 -0.24909,0.0215 -0.39511,0.0623 -0.17393,0.0494 -0.2813,0.15461 -0.10737,0.10308 -0.10737,0.2856 0,0.20615 0.12455,0.31137 0.12454,0.10307 0.38008,0.10307 0.21259,0 0.38867,-0.0816 0.17608,-0.0837 0.32639,-0.19971 z"
/>
<path
d="m 46.60571,96.2453 -0.4037,0 0,-0.26627 q -0.204,0.16105 -0.39082,0.24694 -0.18682,0.0858 -0.41229,0.0858 -0.37793,0 -0.58837,-0.22975 -0.21044,-0.23193 -0.21044,-0.67857 l 0,-1.55683 0.4037,0 0,1.36571 q 0,0.18253 0.0172,0.31352 0.0172,0.12884 0.073,0.22117 0.058,0.0945 0.15031,0.13743 0.0923,0.0429 0.26842,0.0429 0.15676,0 0.34143,-0.0816 0.18682,-0.0816 0.34787,-0.20829 l 0,-1.79089 0.4037,0 0,2.39859 z"
id="logourl17u"
/>
</svg>
