<?xml version="1.0" encoding="UTF-8" standalone="no"?>
<svg
xmlns:dc="http://purl.org/dc/elements/1.1/"
xmlns:rdf="http://www.w3.org/1999/02/22-rdf-syntax-ns#"
xmlns="http://www.w3.org/2000/svg"
xmlns:svg="http://www.w3.org/2000/svg"
xmlns:cc="http://creativecommons.org/ns#"
xmlns:inkscape="http://www.inkscape.org/namespaces/inkscape"
xmlns:sodipodi="http://sodipodi.sourceforge.net/DTD/sodipodi-0.dtd"
>
<ellipse
rx="49.999992"
ry="50.000004"
cy="50"
style="fill:#000000"
cx="50"
id="circle4112"
/>
<path
d="m 42.20448,49.44597 q 0,1.11863 -0.39722,2.08297 -0.3882,0.95469 -1.13751,1.63937 -0.83056,0.73289 -1.91391,1.0897 -1.07431,0.34717 -2.45557,0.34717 -1.61598,-0.009 -2.73543,-0.27966 -1.11043,-0.26038 -1.8146,-0.58824 l 0,-3.17268 0.37917,0 q 0.82153,0.52075 1.76945,0.8679 0.94792,0.34717 1.88683,0.34717 0.56875,0 1.22778,-0.13501 0.66806,-0.14465 1.05625,-0.5111 0.30696,-0.29895 0.46043,-0.60753 0.1625,-0.30859 0.1625,-0.9547 0,-0.50145 -0.21667,-0.85826 -0.20764,-0.36645 -0.54167,-0.58824 -0.4875,-0.31824 -1.17362,-0.41467 -0.68611,-0.10608 -1.24584,-0.10608 -0.8125,0 -1.56181,0.1543 -0.74029,0.14465 -1.30001,0.2893 l -0.39723,0 0,-8.10043 9.56048,0 0,2.74835 -6.30143,0 0,2.34335 q 0.27987,-0.0193 0.70418,-0.0289 0.43333,-0.0193 0.75834,-0.0193 1.11041,0 1.97709,0.23144 0.87571,0.2218 1.50764,0.62682 0.82154,0.53038 1.28196,1.40793 0.46042,0.8679 0.46042,2.18905 z"
style="font-style:normal;font-variant:normal;font-weight:bold;font-stretch:normal;font-size:medium;line-height:0%;font-family:Verdana;-inkscape-font-specification:'Verdana Bold';text-align:center;letter-spacing:-1.18396723px;word-spacing:0px;text-anchor:middle;fill:#f4ee73;fill-opacity:1;stroke:none;stroke-width:1px;stroke-opacity:1"
id="path6563"
/>
<path
style="fill:#008751;fill-opacity:1;stroke:#f4ee73;stroke-width:0.8022002;stroke-opacity:1"
id="path4114"
d="m 50.40109,0.400690000000054 0,13.2752 c 19.8158,0.055 35.86767,16.10703 35.92271,35.92304 l 13.27509,0 c -3e-5,-27.17229 -22.02576,-49.19824 -49.19779,-49.19824 z m 35.92271,49.19824 0,0.10155 c -3e-5,-0.0341 7e-5,-0.0674 0,-0.10155 z"
/>
<path
d="m 54.40207,47.12191 q 0,1.81296 -0.30695,3.24982 -0.30695,1.42722 -0.95695,2.34335 -0.66806,0.9354 -1.71529,1.41757 -1.04724,0.47253 -2.58197,0.47253 -1.50765,0 -2.57292,-0.48217 -1.06529,-0.48217 -1.72432,-1.42722 -0.66807,-0.94505 -0.96599,-2.34334 -0.29792,-1.40794 -0.29792,-3.22089 0,-1.87081 0.30695,-3.24982 0.30695,-1.379 0.97501,-2.33369 0.66806,-0.94506 1.73335,-1.41758 1.06528,-0.47253 2.54584,-0.47253 1.54376,0 2.59099,0.49182 1.04723,0.48216 1.7153,1.4465 0.65902,0.94506 0.95695,2.33369 0.29792,1.37901 0.29792,3.19196 z m -3.49378,0 q 0,-2.60371 -0.47847,-3.70305 -0.47848,-1.10899 -1.58891,-1.10899 -1.11042,0 -1.58889,1.10899 -0.47849,1.09934 -0.47849,3.72234 0,2.5555 0.48751,3.68377 0.48751,1.12828 1.57987,1.12828 1.09238,0 1.57988,-1.12828 0.4875,-1.12827 0.4875,-3.70306 z"
style="font-style:normal;font-variant:normal;font-weight:bold;font-stretch:normal;font-size:medium;line-height:0%;font-family:Verdana;-inkscape-font-specification:'Verdana Bold';text-align:center;letter-spacing:-1.18396723px;word-spacing:0px;text-anchor:middle;fill:#f4ee73;fill-opacity:1;stroke:none;stroke-width:1px;stroke-opacity:1"
id="path6565"
/>
<path
d="m 99.59836,50.40163 -13.2748,0 c -0.0552,19.81537 -16.10652,35.86691 -35.92188,35.92191 l 0,13.27482 c 27.17141,-3e-5 49.19668,-22.02529 49.19668,-49.19673 z m -49.19668,35.92191 -0.10158,0 c 0.0341,-10e-6 0.0675,7e-5 0.10158,0 z"
id="path4116"
style="fill:#ef6b00;fill-opacity:1;stroke:#f4ee73;stroke-width:0.8022002;stroke-opacity:1"
/>
<path
style="font-style:normal;font-variant:normal;font-weight:bold;font-stretch:normal;font-size:medium;line-height:0%;font-family:Verdana;-inkscape-font-specification:'Verdana Bold';text-align:center;letter-spacing:-1.18396723px;word-spacing:0px;text-anchor:middle;fill:#f4ee73;fill-opacity:1;stroke:none;stroke-width:1px;stroke-opacity:1"
id="path6567"
d="m 66.40103,47.12191 q 0,1.81296 -0.30694,3.24982 -0.30694,1.42722 -0.95695,2.34335 -0.66806,0.9354 -1.71529,1.41757 -1.04723,0.47253 -2.58196,0.47253 -1.50765,0 -2.57294,-0.48217 -1.06528,-0.48217 -1.72432,-1.42722 -0.66805,-0.94505 -0.96597,-2.34334 -0.29793,-1.40794 -0.29793,-3.22089 0,-1.87081 0.30696,-3.24982 0.30694,-1.379 0.975,-2.33369 0.66807,-0.94506 1.73334,-1.41758 1.06529,-0.47253 2.54586,-0.47253 1.54376,0 2.59099,0.49182 1.04723,0.48216 1.71529,1.4465 0.65904,0.94506 0.95694,2.33369 0.29792,1.37901 0.29792,3.19196 z m -3.49376,0 q 0,-2.60371 -0.47849,-3.70305 -0.47846,-1.10899 -1.58889,-1.10899 -1.11043,0 -1.58891,1.10899 -0.47846,1.09934 -0.47846,3.72234 0,2.5555 0.48749,3.68377 0.48751,1.12828 1.57988,1.12828 1.09236,0 1.57987,-1.12828 0.48751,-1.12827 0.48751,-3.70306 z"
/>
<path
style="fill:#0054a0;fill-opacity:1;stroke:#f4ee73;stroke-width:0.8022002;stroke-opacity:1"
id="path4118"
d="m 49.59834,99.59818 0,-13.27492 c -19.81537,-0.0551 -35.86689,-16.10668 -35.92191,-35.92225 l -13.27478,0 c 1e-5,27.17172 22.02527,49.19717 49.19669,49.19717 z m -35.92191,-49.19717 0,-0.10156 c 2e-5,0.0341 -4e-5,0.0674 0,0.10156 z"
/>
<path
style="fill:#fcd116;fill-opacity:1;stroke:#f4ee73;stroke-width:0.8022002;stroke-opacity:1"
id="path4120"
d="m 0.401659999999993,49.59834 13.27478,0 c 0.0549,-19.81539 16.10652,-35.86692 35.92188,-35.92193 l 0,-13.27478 c -27.17142,0 -49.19666,22.02526 -49.19666,49.19671 z m 49.19666,-35.92193 0.10137,0 c -0.0341,2e-5 -0.0675,-6e-5 -0.10137,0 z"
/>
<path
id="path4122"
style="fill:#f4ee73;fill-opacity:1"
d="m 70.25972,72.16401 c -1.66719,-1.20153 -3.0313,-2.27896 -3.0313,-2.39436 0,-0.222 6.68794,-4.16596 6.82753,-4.02629 0.14423,0.14422 -0.46132,8.60518 -0.61588,8.60518 -0.0818,0 -1.51311,-0.98306 -3.18035,-2.18453 z m 3.02259,-2.22294 c 0.0704,-1.58526 0.0909,-2.91955 0.0456,-2.96497 -0.099,-0.0989 -1.03231,0.5458 -2.88887,1.99457 l -1.36475,1.06507 1.80049,1.38036 c 0.99029,0.75931 1.90833,1.38647 2.04007,1.39391 0.15644,0.007 0.28384,-0.98418 0.36757,-2.86894 z m -48.29369,-3.05473 c -0.16778,-0.38942 -2.22806,-4.81514 -4.5783,-9.83492 -2.35023,-5.01976 -4.27104,-9.23566 -4.26851,-9.36857 0.002,-0.13311 1.09515,-1.07511 2.42801,-2.09367 1.33287,-1.01862 2.53181,-1.95478 2.66426,-2.08038 0.13265,-0.12555 1.43159,-1.1258 2.88683,-2.22255 l 2.6459,-1.99405 1.92949,-4.58111 1.9295,-4.58118 3.41681,-0.002 c 3.06328,-0.002 3.42841,-0.0442 3.52957,-0.38617 0.062,-0.20956 0.32014,-1.50885 0.57342,-2.88687 0.25329,-1.37807 0.50822,-2.70314 0.56626,-2.94467 0.10242,-0.4256 0.2476,-0.43709 4.72471,-0.37509 2.54041,0.0353 4.93764,0.11467 5.32714,0.17667 l 0.70804,0.11266 0,2.80814 0,2.8082 3.34969,1.75731 c 1.84237,0.96649 3.41099,1.75732 3.48605,1.75732 0.0748,0 0.13621,-3.08221 0.13621,-6.84934 l 0,-6.8493 0.81708,0.122 c 0.44934,0.0669 0.97756,0.28154 1.17372,0.47656 0.26122,0.25958 11.48507,14.55561 18.09329,23.04579 0.2719,0.34931 0.0344,1.68967 -2.15354,12.15286 l -1.91037,9.13503 -3.36779,1.63269 c -2.28341,1.10703 -3.39712,1.54474 -3.45881,1.35967 -0.05,-0.15 -0.57496,-0.99656 -1.16649,-1.88096 -4.67271,-6.98638 -14.52021,-9.21827 -24.84693,-5.63129 -3.92533,1.36347 -8.39536,3.8024 -12.47937,6.80896 -0.8363,0.61571 -1.59474,1.1194 -1.68563,1.1194 -0.0909,0 -0.3024,-0.3186 -0.47016,-0.70813 z m 4.22096,-3.03998 c 7.06645,-4.24078 13.12205,-6.77554 18.08351,-7.56934 3.33732,-0.53398 7.27546,-0.17489 9.95551,0.90756 2.65408,1.072 5.52789,3.48753 7.59409,6.383 0.55437,0.77682 1.12217,1.4124 1.26199,1.4124 0.13977,0 1.52377,-0.37238 3.07565,-0.82751 l 2.82157,-0.8274 1.04814,-6.85263 c 0.57644,-3.76886 1.22966,-8.22526 1.45165,-9.90286 l 0.40362,-3.05024 -0.69796,-0.9804 c -2.07099,-2.90923 -15.87551,-21.46966 -16.00573,-21.52006 -0.13578,-0.0527 -0.44041,3.93765 -0.82453,10.80078 -0.10845,1.93643 -0.17357,2.22696 -0.47499,2.11727 -0.19221,-0.0698 -2.13683,-0.88373 -4.32156,-1.80856 l -3.97216,-1.68142 -0.002,-2.76507 c -0.001,-1.5208 -0.0776,-2.80815 -0.16754,-2.86082 -0.0898,-0.0527 -2.13287,-0.166 -4.53997,-0.25191 l -4.37656,-0.156 -0.27104,3.56118 c -0.14934,1.95869 -0.29725,3.58731 -0.32917,3.61924 -0.032,0.0318 -1.7417,-0.0589 -3.79958,-0.202 -2.29957,-0.15977 -3.81057,-0.18222 -3.92067,-0.0575 -0.0987,0.11155 -0.93662,2.26458 -1.86218,4.785 l -1.68268,4.58256 -1.7828,1.3356 c -0.98054,0.7346 -3.05736,2.28425 -4.6152,3.44354 -1.55774,1.15926 -2.86131,2.18598 -2.89662,2.28166 -0.0353,0.0956 1.5692,4.25762 3.56581,9.24884 3.56417,8.91019 3.63867,9.06963 4.09499,8.77241 0.25571,-0.16667 1.69033,-1.03825 3.18821,-1.93711 z"
/>
<ellipse
rx="48.999992"
style="fill:none;stroke:#f4ee73;stroke-width:1.99998724"
cy="50"
cx="50"
id="circle4130"
ry="49.000004"
/>
</svg>
