<?xml version="1.0" encoding="UTF-8" standalone="no"?>
<svg
xmlns:sodipodi="http://sodipodi.sourceforge.net/DTD/sodipodi-0.dtd"
xmlns:inkscape="http://www.inkscape.org/namespaces/inkscape"
xmlns:svg="http://www.w3.org/2000/svg"
xmlns:cc="http://creativecommons.org/ns#"
xmlns:dc="http://purl.org/dc/elements/1.1/"
xmlns="http://www.w3.org/2000/svg"
xmlns:rdf="http://www.w3.org/1999/02/22-rdf-syntax-ns#"
>
<path
viewBox="3000 500 100 100"
d="m 7.45339999999987,99.52229 c -2.5902,-0.92287 -5.4756,-3.88564 -6.696,-6.87549 l -0.6321,-1.5488 -0.083,-40.40977 c -0.093,-45.16904 -0.2129,-42.29803 1.899,-45.55711 1.2396,-1.91279 2.6037,-3.16134 4.6069,-4.21641 l 1.4693,-0.77388 16.9607,0 c 16.6906,0 16.9732,0.009 17.7391,0.58061 3.1717,2.36569 2.8554,6.90212 -0.5976,8.57223 -1.1161,0.5398 -1.7457,0.5624 -15.6673,0.5624 -15.9078,0 -15.2711,-0.0666 -16.1817,1.69272 -0.3675,0.70997 -0.4212,5.59215 -0.4212,38.2897 0,40.54936 -0.067,38.76675 1.5018,39.79394 0.6816,0.44619 3.3926,0.47996 38.525,0.47996 33.7537,0 37.883,-0.0471 38.6456,-0.4411 1.6411,-0.84788 1.6543,-0.97944 1.6611,-16.51632 0.01,-13.19957 0.042,-14.23775 0.5308,-15.31377 0.9304,-2.04676 3.4766,-3.23573 5.6674,-2.64635 1.3278,0.35724 2.892,1.64148 3.3527,2.75277 0.2365,0.5704 0.3038,5.21135 0.2461,16.96776 l -0.079,16.18262 -0.655,1.57157 c -1.2951,3.10708 -4.1156,5.96071 -6.7938,6.87349 -1.8264,0.6225 -83.2484,0.6026 -84.998,-0.0208 z m 39.8902,-44.21114 c -1.2882,-0.55824 -1.9272,-1.16111 -2.5751,-2.42929 -0.6583,-1.28882 -0.6983,-3.58137 -0.084,-4.81242 0.2474,-0.49567 8.84,-9.29645 19.0946,-19.5573 l 18.6447,-18.65607 -6.768,0 c -6.0537,0 -6.8709,-0.0551 -7.743,-0.52244 -3.4838,-1.86674 -3.7328,-6.70794 -0.4441,-8.63358 l 1.1956,-0.70002 13.8654,0 c 15.3953,0 15.1233,-0.0304 16.5582,1.84876 l 0.8122,1.06371 0.081,13.96143 c 0.044,7.67878 0.011,14.24422 -0.074,14.58986 -0.2282,0.9238 -1.8341,2.63699 -2.8817,3.07433 -2.0827,0.86942 -4.2813,0.2249 -5.8548,-1.71629 l -0.8526,-1.05185 -0.089,-7.06589 -0.089,-7.06589 -18.6542,18.62726 c -13.0195,13.00053 -18.9709,18.7578 -19.7022,19.05942 -1.3163,0.54285 -3.1687,0.53713 -4.4398,-0.0137 z"
style="fill:#606060"
id="g4985"
/>
</svg>
