<?xml version="1.0" encoding="UTF-8" standalone="no"?>
<svg
xmlns:sodipodi="http://sodipodi.sourceforge.net/DTD/sodipodi-0.dtd"
xmlns:inkscape="http://www.inkscape.org/namespaces/inkscape"
xmlns:svg="http://www.w3.org/2000/svg"
xmlns:cc="http://creativecommons.org/ns#"
xmlns:dc="http://purl.org/dc/elements/1.1/"
xmlns="http://www.w3.org/2000/svg"
xmlns:rdf="http://www.w3.org/1999/02/22-rdf-syntax-ns#"
>
<circle
r="49.108505"
id="path4151-0"
style="fill:#000000;fill-opacity:1;stroke:#c0c0c0;stroke-width:1.78298938;stroke-opacity:1"
cy="50"
cx="50"
/>
<path
id="path4930-0"
style="fill:#c0c0c0;fill-opacity:1"
d="m 3.60760000000001,64.1294 14.9042,-5.2944 2.6512,8.0854 -14.9142,5.0166 -1.6179,-3.9523 z"
/>
<path
style="fill:#000000;fill-opacity:1"
id="path4928-7"
d="m 11.7292,64.5607 c 0.4184,-0.047 3.096,-0.9721 3.2856,-1.1348 0.2784,-0.2389 0.3009,-0.5863 0.078,-1.2104 -0.172,-0.4821 -0.2351,-0.564 -0.5219,-0.6782 -0.2951,-0.1175 -0.4762,-0.081 -1.8951,0.3814 -0.8628,0.2813 -1.6321,0.5648 -1.7095,0.6301 -0.2664,0.2245 -0.3044,0.5275 -0.1368,1.0891 0.2157,0.7228 0.4591,0.9725 0.8995,0.9228 z"
/>
<path
style="fill:#c0c0c0;fill-opacity:1"
id="path4926-06"
d="m 24.1971,68.0278000000001 c -0.1795,-0.5332 -0.3614,-1.0835 -0.4042,-1.2229 l -0.078,-0.2535 -0.8683,0.2949 c -0.4775,0.1622 -0.8841,0.2516 -0.9034,0.1986 -0.019,-0.053 -0.6181,-1.8826 -1.3306,-4.0659 -0.7126,-2.1832 -1.3483,-4.1267 -1.4129,-4.3188 l -0.1173,-0.3493 0.8809,-0.2844 0.8808,-0.2843 -0.3715,-1.1052 c -0.4274,-1.2716 -0.4616,-1.4607 -0.2999,-1.6583 0.1655,-0.202 0.5833,-0.27 0.7616,-0.124 0.2056,0.1684 4.5946,13.635 4.5286,13.895 -0.09,0.3526 -0.3353,0.4882 -0.6545,0.361 -0.2563,-0.102 -0.318,-0.2113 -0.6115,-1.0829 z"
/>
<path
d="m 26.7949,68.221 c -0.1558,-0.1387 -0.2877,-0.2545 -0.293,-0.2574 -0.01,0 -0.9513,-2.886 -2.1021,-6.4069 -1.2783,-3.9105 -2.0977,-6.5712 -2.1058,-6.8376 -0.011,-0.355 0.025,-0.4871 0.1925,-0.7109 0.1993,-0.2663 5.8084,-4.2376 5.9118,-4.1856 0.072,0.036 6.0524,18.4314 6.0346,18.5619 -0.015,0.1075 -6.5662,0.2357 -7.0867,0.1387 -0.1483,-0.028 -0.3944,-0.1625 -0.5513,-0.3022 z"
style="fill:#c0c0c0;fill-opacity:1"
id="path4924-5"
/>
<path
style="fill:#c0c0c0;fill-opacity:1"
id="path4147-8"
d="m 32.4235,59.0355 c -1.6741,-5.1316 -3.0777,-9.4445 -3.119,-9.5842 -0.075,-0.2518 -0.073,-0.2542 0.2232,-0.2834 0.3557,-0.035 0.9738,0.1943 1.2224,0.4535 0.1861,0.1941 5.6982,16.9575 5.7403,17.4577 0.042,0.5004 -0.5465,1.314 -0.9347,1.2918 -0.049,0 -1.458,-4.2037 -3.1322,-9.3354 z"
/>
<path
d="m 41.4772,33.2702999999999 c -5.9723,-2.2814 -10.1051,-8.2016 -10.1014,-14.4704 0,-5.3427 2.5234,-9.9157 7.1158,-12.9112 3.9141,-2.5533 8.0619,-3.2015 12.4963,-1.953 3.6159,1.018 6.4395,3.0733 8.6151,6.2711 7.4756,10.9881 -1.8459,25.689 -15.0877,23.7954 -0.9863,-0.1411 -2.3535,-0.4703 -3.0381,-0.7319 z"
style="fill:#e9ddaf;fill-opacity:1;stroke:#c0c0c0;stroke-width:0.54229009;stroke-opacity:1"
id="path5198"
/>
<path
id="path4172-2"
style="fill:#333333;fill-opacity:1;stroke:#c0c0c0;stroke-width:0.60701799;stroke-opacity:1"
d="m 70.0466,6.25659999999993 -41.7853,43.899 5.5496,17.9791 56.6305,8.0916 c 19.1098,-31.907 1.0276,-61.3121 -20.3948,-69.9697 z"
/>
<path
d="m 84.07814,47.6407999999999 6.06693,-0.5948 0.57839,5.9893 -6.06693,0.5947 z"
id="rect4818"
style="fill:#000000;fill-opacity:1"
/>
<path
d="m 89.9494,55.6066000000001 c 2.5791,-1.3076 4.4707,-3.5456 5.6355,-6.6672 0.6245,-1.6735 0.7762,-2.4551 0.5578,-2.8732 -0.3132,-0.5995 -0.5642,-0.6058 -2.3317,-0.058 -0.9145,0.2831 -2.3309,0.656 -3.1475,0.8285 -0.8167,0.1725 -1.5103,0.3347 -1.5415,0.3603 -0.031,0.026 0.073,0.1874 0.2309,0.3596 1.5364,1.6719 0.4252,4.5171 -1.8402,4.712 -2.1795,0.1875 -3.6437,-2.0348 -2.6692,-4.0509 l 0.3198,-0.6615 -1.3587,0.055 -1.3587,0.055 -0.1161,0.421 c -0.2102,0.7623 -0.1681,2.7478 0.076,3.5733 0.473,1.6006 2.0866,3.6082 3.416,4.2501 0.5947,0.2872 0.8347,0.321 1.9008,0.2681 1.0686,-0.053 1.3451,-0.124 2.2269,-0.5712 z"
style="fill:#e56b15;fill-opacity:1;stroke:#c0c0c0;stroke-width:0.70255005;stroke-opacity:1"
id="path4382-8"
/>
<path
style="fill:#000000;fill-opacity:1"
id="rect4816"
d="m 76.4367,41.9031 4.38806,4.3382 -3.97702,4.4273 -4.38806,-4.3383 z"
/>
<path
id="path4380-9"
style="fill:#e56b15;fill-opacity:1;stroke:#c0c0c0;stroke-width:0.70255005;stroke-opacity:1"
d="m 77.1064,52.2615000000001 c 1.2162,-0.3629 2.2731,-0.9414 3.1318,-1.7144 0.6643,-0.598 1.9871,-2.5621 1.986,-2.9491 -3e-4,-0.1224 -0.2899,-0.4481 -0.6435,-0.7239 -0.3536,-0.2757 -0.853,-0.7238 -1.1098,-0.9957 -0.2567,-0.272 -0.5156,-0.4939 -0.5753,-0.4933 -0.06,7e-4 -0.108,0.2278 -0.1072,0.5047 0,0.6973 -0.3394,1.3822 -0.973,1.9523 -1.2876,1.1588 -3.2497,0.8276 -4.1211,-0.6957 -0.9886,-1.7281 0.04,-3.9246 2.0169,-4.3057 l 0.5101,-0.098 -1.2145,-1.3435 c -1.4007,-1.5494 -2.3642,-2.7557 -3.0662,-3.8388 -0.879,-1.3562 -1.6075,-1.7891 -2.3379,-1.3891 -0.748,0.4096 -1.0898,1.1302 -1.5075,3.1781 -0.5133,2.517 -0.4606,6.2943 0.1156,8.2794 0.5013,1.7274 1.4879,3.2698 2.5877,4.0456 1.3431,0.9474 3.3551,1.1701 5.3079,0.5874 z"
/>
<path
style="fill:#c0c0c0;fill-opacity:1;stroke:#c0c0c0;stroke-width:0.70255005;stroke-opacity:1"
id="path4378-9"
d="m 87.952,49.3871999999999 c 0.2382,-0.4036 -0.4668,-1.0214 -0.9432,-0.8266 -0.4133,0.1691 -0.5358,0.6478 -0.2424,0.9476 0.2552,0.2608 1.0056,0.1843 1.1856,-0.121 z"
/>
<path
style="fill:#c0c0c0;fill-opacity:1;stroke:#c0c0c0;stroke-width:0.70255005;stroke-opacity:1"
id="path4376"
d="m 78.3032,45.3607999999999 c 0,-0.5206 -0.9333,-0.7544 -1.3333,-0.3346 -0.1558,0.1637 -0.1931,0.4472 -0.083,0.63 0.282,0.4673 1.4175,0.2304 1.4161,-0.2954 z"
/>
<path
d="m 77.2533,42.7652 c 2.626,2.5988 2.626,2.5988 2.626,2.5988"
style="fill:none;stroke:#c0c0c0;stroke-width:0.70255005;stroke-opacity:1"
id="path4810-9"
/>
<path
d="m 85.0088,47.5699 c 4.2859,-0.4256 4.2859,-0.4256 4.2859,-0.4256"
style="fill:none;stroke:#c0c0c0;stroke-width:0.70255005;stroke-opacity:1"
id="path4814-8"
/>
<path
style="fill:#000000;fill-opacity:1"
id="rect4832"
d="m 79.39194,61.7190000000001 7.61935,-1.916 1.33867,8.3058 -7.61935,1.9161 z"
/>
<path
d="m 87.6305,71.8569 c 3.1322,-2.2956 5.3,-5.7747 6.4583,-10.365 0.6209,-2.4607 0.7339,-3.5851 0.4151,-4.1332 -0.4572,-0.7859 -0.7755,-0.75 -2.9575,0.3334 -1.1288,0.5605 -2.8839,1.3364 -3.9002,1.7241 -1.0162,0.3878 -1.8779,0.739 -1.9147,0.7806 -0.037,0.042 0.111,0.2501 0.3286,0.4636 2.1141,2.0736 0.9958,6.2662 -1.8522,6.9436 -2.7397,0.6516 -4.8182,-2.2075 -3.7888,-5.2118 l 0.3378,-0.9858 -1.7143,0.319 -1.7144,0.319 -0.1043,0.6117 c -0.1889,1.1078 0.066,3.8878 0.4579,5.0034 0.7608,2.163 3.0066,4.694 4.7545,5.3584 0.7819,0.2971 1.0891,0.3019 2.4331,0.038 1.3473,-0.2649 1.6901,-0.4138 2.7611,-1.1986 z"
style="fill:#f0d91b;fill-opacity:1;stroke:#c0c0c0;stroke-width:0.75993001;stroke-opacity:1"
id="path4834-4"
/>
<path
style="fill:#000000;fill-opacity:1"
id="rect4836"
d="m 69.13829,55.0251000000001 5.99378,5.309 -4.58581,6.9244 -5.99379,-5.309 z"
/>
<path
d="m 71.0349,69.4489000000001 c 1.5027,-0.7263 2.782,-1.7269 3.7906,-2.9651 0.7804,-0.958 2.2558,-3.9513 2.2153,-4.4943 -0.013,-0.1718 -0.4124,-0.5776 -0.8879,-0.9017 -0.4755,-0.3241 -1.153,-0.8642 -1.5055,-1.2003 -0.3525,-0.3361 -0.7028,-0.6015 -0.7783,-0.59 -0.075,0.012 -0.1136,0.339 -0.084,0.7277 0.073,0.9786 -0.2897,2.001 -1.0339,2.9144 -1.5126,1.8564 -4.0297,1.741 -5.287,-0.2424 -1.4265,-2.2501 -0.3465,-5.5173 2.117,-6.4045 l 0.6357,-0.229 -1.6735,-1.6698 c -1.9298,-1.9257 -3.2716,-3.4477 -4.2699,-4.8432 -1.25,-1.7476 -2.2159,-2.2254 -3.1,-1.5338 -0.9054,0.7084 -1.2651,1.781 -1.5864,4.7306 -0.3948,3.6254 0.054,8.9192 0.9847,11.6036 0.8096,2.336 2.2146,4.3256 3.6853,5.2188 1.7961,1.0908 4.3655,1.045 6.7783,-0.121 z"
id="path4838-7"
style="fill:#f0d91b;fill-opacity:1;stroke:#c0c0c0;stroke-width:0.75993001;stroke-opacity:1"
/>
<path
id="path4840"
style="fill:#c0c0c0;fill-opacity:1;stroke:#c0c0c0;stroke-width:0.75993001;stroke-opacity:1"
d="m 84.4723,63.4809 c 0.2606,-0.6092 -0.6943,-1.351 -1.2776,-0.9925 -0.506,0.311 -0.6126,1.0049 -0.2109,1.3735 0.3495,0.3207 1.2915,0.08 1.4885,-0.381 z"
/>
<path
id="path4842"
style="fill:#c0c0c0;fill-opacity:1;stroke:#c0c0c0;stroke-width:0.75993001;stroke-opacity:1"
d="m 71.851,59.5471 c -0.054,-0.7306 -1.2578,-0.8929 -1.7215,-0.2321 -0.1807,0.2575 -0.1992,0.6622 -0.041,0.8992 0.4041,0.6058 1.8176,0.071 1.7625,-0.6671 z"
/>
<path
d="m 70.2592,56.0900999999999 c 3.5871,3.1807 3.5871,3.1807 3.5871,3.1807"
id="path4844-1"
style="fill:none;stroke:#c0c0c0;stroke-width:0.75993001;stroke-opacity:1"
/>
<path
d="m 80.5628,61.4538 c 5.382,-1.3613 5.382,-1.3613 5.382,-1.3613"
style="fill:none;stroke:#c0c0c0;stroke-width:0.75993001;stroke-opacity:1"
id="path4846-0"
/>
<path
d="m 48.57151,52.4702 3.35274,-6.2741 3.8007,5.0761 -3.35274,6.274 z"
style="fill:#000000;fill-opacity:1"
id="rect4886"
/>
<path
id="path4888-9"
style="fill:#94de6d;fill-opacity:1;stroke:#c0c0c0;stroke-width:0.72368503;stroke-opacity:1"
d="m 56.7341,54.4148 c 0.8179,-3.657 0.6815,-7.5396 -0.4064,-11.5667 -0.5832,-2.1588 -0.9409,-3.0353 -1.3146,-3.2219 -0.5359,-0.2676 -0.6924,-0.037 -1.4538,2.1419 -0.394,1.1273 -1.0419,2.8116 -1.44,3.743 -0.3981,0.9313 -0.7272,1.737 -0.7314,1.7904 0,0.053 0.1522,0.1074 0.3476,0.1199 1.8984,0.1217 2.8598,3.8388 1.5922,6.1561 -1.2194,2.2292 -3.3908,1.5231 -3.958,-1.2872 l -0.1862,-0.9221 -0.796,1.3315 -0.796,1.3315 0.1717,0.5045 c 0.3109,0.9135 1.4797,2.7371 2.1036,3.282 1.2097,1.0566 3.3484,1.4205 4.5277,0.7704 0.5275,-0.2908 0.6932,-0.4851 1.312,-1.5392 0.6203,-1.0566 0.7479,-1.3836 1.0276,-2.6341 z"
/>
<path
d="m 40.61383,54.2847999999999 5.17047,-0.063 0.12678,7.9019 -5.17048,0.063 z"
style="fill:#000000;fill-opacity:1"
id="rect4890"
/>
<path
id="path4892-8"
style="fill:#94de6d;fill-opacity:1;stroke:#c0c0c0;stroke-width:0.72368503;stroke-opacity:1"
d="m 46.9857,63.3752999999999 c 0.5319,-1.4864 0.8425,-3.0252 0.9204,-4.5596 0.06,-1.1871 -0.2649,-4.2767 -0.4883,-4.6388 -0.071,-0.1146 -0.4347,-0.1475 -0.8088,-0.073 -0.3741,0.074 -0.9363,0.1243 -1.2492,0.111 -0.313,-0.013 -0.5985,0.022 -0.6344,0.079 -0.036,0.057 0.065,0.3155 0.2253,0.5747 0.4026,0.6526 0.589,1.6169 0.5314,2.7489 -0.117,2.3007 -1.5027,3.8383 -2.9106,3.2297 -1.5971,-0.6904 -2.2351,-3.7212 -1.2506,-5.9411 l 0.2541,-0.5729 -1.5133,-0.1166 c -1.7452,-0.1345 -3.0266,-0.3589 -4.0778,-0.714 -1.3163,-0.4447 -2.0092,-0.1646 -2.2237,0.8989 -0.2198,1.0891 -0.013,2.0875 0.9116,4.4029 1.1366,2.8459 3.3436,6.3413 4.8374,7.6615 1.3,1.1489 2.789,1.6669 3.9055,1.3588 1.3635,-0.3762 2.7172,-2.0628 3.571,-4.4494 z"
/>
<path
style="fill:#c0c0c0;fill-opacity:1;stroke:#c0c0c0;stroke-width:0.72368503;stroke-opacity:1"
id="path4894-8"
d="m 51.9366,50.4597000000001 c -0.087,-0.6032 -0.8725,-0.5188 -1.0504,0.1128 -0.1544,0.5481 0.047,1.1128 0.3979,1.1177 0.3056,0 0.7185,-0.7744 0.6525,-1.2305 z"
/>
<path
d="m 43.7415,55.7714000000001 c -0.3006,-0.4873 -1.0029,0.1712 -1.0047,0.9421 -7e-4,0.3004 0.1398,0.6015 0.3123,0.6692 0.4407,0.1729 0.996,-1.1193 0.6924,-1.6113 z"
style="fill:#c0c0c0;fill-opacity:1;stroke:#c0c0c0;stroke-width:0.72368503;stroke-opacity:1"
id="path4896-3"
/>
<path
style="fill:none;stroke:#c0c0c0;stroke-width:0.72368503;stroke-opacity:1"
id="path4898"
d="m 41.6076,54.3244999999999 c 3.0957,-0.035 3.0957,-0.035 3.0957,-0.035"
/>
<path
id="path4900"
style="fill:none;stroke:#c0c0c0;stroke-width:0.72368503;stroke-opacity:1"
d="m 49.0976,51.527 c 2.3653,-4.4374 2.3653,-4.4374 2.3653,-4.4374"
/>
<path
d="m 18.6887,87.6126999999999 c -0.5115,-0.4142 -0.5698,-0.5259 -0.3025,-0.5789 0.1822,-0.036 0.6707,0.069 1.0857,0.2333 0.4148,0.1645 0.7918,0.2599 0.8374,0.2122 0.047,-0.048 -0.1929,-1.1648 -0.5302,-2.4823 -0.3373,-1.3174 -0.8538,-3.411 -1.1478,-4.6528 l -0.5348,-2.2574 -0.5492,0.1038 c -0.302,0.057 -0.853,0.2044 -1.2246,0.3277 l -0.6753,0.224 -0.2094,-0.7223 c -0.3794,-1.3092 -0.3107,-1.773 0.2912,-1.9658 0.2947,-0.095 0.7891,-0.2746 1.099,-0.4008 l 0.5637,-0.2293 -0.1554,-1.1361 -0.1556,-1.136 1.0431,-0.2748 c 0.5736,-0.1511 1.1122,-0.2706 1.1965,-0.2656 0.084,0 0.2639,0.4331 0.3989,0.9512 0.1349,0.5184 0.325,0.9472 0.4222,0.9529 0.097,0.01 0.6141,-0.111 1.1483,-0.2595 0.5344,-0.1483 1.0677,-0.2194 1.1852,-0.1577 0.2506,0.1315 0.5965,1.7466 0.4323,2.0191 -0.063,0.1026 -0.5929,0.3602 -1.1801,0.5722 -0.5871,0.2121 -1.0722,0.4643 -1.0779,0.5604 -0.029,0.5115 1.892,8.5002 2.1301,8.853 0.08,0.1186 0.1513,-0.028 0.1704,-0.3507 0.044,-0.7471 0.3348,-0.6884 0.4326,0.087 0.1046,0.8287 0.3281,0.8064 0.4052,-0.041 0.033,-0.3734 0.151,-0.9 0.26,-1.1701 l 0.1981,-0.4911 0.1859,0.681 c 0.1621,0.5941 0.4441,0.9388 0.4658,0.5698 0.01,-0.1402 0.9979,-5.7243 1.1908,-6.7195 0.093,-0.4802 0.2562,-0.6705 0.7154,-0.8348 0.3272,-0.1171 0.7149,-0.4404 0.8617,-0.7185 0.2925,-0.5544 0.4255,-0.5494 2.9294,0.1111 0.9891,0.2611 1.1012,0.3457 1.2815,0.9676 0.1087,0.3747 0.3645,0.8364 0.5685,1.0259 l 0.3708,0.3444 -0.4037,2.4123 c -0.2221,1.3268 -0.3794,2.4497 -0.3498,2.4955 0.029,0.046 0.4209,-0.014 0.8691,-0.1332 0.8876,-0.2357 1.0529,-0.4688 2.0538,-2.896 l 0.5096,-1.2362 -0.4032,-0.248 c -0.4085,-0.2513 -0.5332,-0.6766 -0.1924,-0.6565 0.1024,0.01 0.3378,0.1196 0.5235,0.2524 0.2827,0.2023 0.3572,0.1716 0.4603,-0.1898 0.085,-0.2984 0.2356,-0.4056 0.4891,-0.3474 0.2945,0.067 0.3475,0.2009 0.2707,0.6812 -0.071,0.4385 0.01,0.6997 0.2896,0.9823 0.4619,0.4617 0.2943,0.7469 -0.2219,0.3774 -0.2007,-0.1436 -0.3835,-0.2315 -0.4064,-0.1954 -0.1048,0.1665 -1.1414,2.8614 -1.106,2.8756 0.021,0.01 0.8833,0.414 1.914,0.9 1.853,0.8738 2.4763,1.0652 2.4939,0.7655 0,-0.084 -0.1184,-0.6463 -0.2741,-1.2478 l -0.2833,-1.0938 1.3089,-0.7451 c 0.7199,-0.4099 1.3574,-0.6761 1.4166,-0.5919 0.06,0.085 0.2795,0.8825 0.4894,1.7736 0.3994,1.6951 0.6604,2.0646 0.7219,1.0218 0.053,-0.8846 0.3008,-0.7442 0.5092,0.2878 l 0.1791,0.8867 0.1769,-0.7111 c 0.1341,-0.539 0.089,-1.0906 -0.1845,-2.2787 -0.1988,-0.8622 -0.4131,-1.6472 -0.4765,-1.7445 -0.064,-0.097 -0.6265,-0.024 -1.2516,0.1617 -1.2895,0.3842 -1.2729,0.3971 -1.5858,-1.2182 l -0.1724,-0.8895 0.9804,-0.3646 c 0.5391,-0.2004 1.0642,-0.3595 1.1671,-0.3534 0.1053,0.01 0.1577,-0.193 0.1197,-0.4568 -0.2751,-1.9217 -0.2788,-1.9095 0.6531,-2.1542 0.4716,-0.1238 0.9844,-0.2604 1.1396,-0.3038 0.2029,-0.056 0.3674,0.2161 0.5838,0.9673 l 0.3012,1.0459 0.6862,-0.2306 c 0.6299,-0.2116 0.6948,-0.2996 0.7896,-1.0695 0.092,-0.7506 0.151,-0.8361 0.5566,-0.8122 0.303,0.017 0.6934,-0.2371 1.1779,-0.7694 0.7236,-0.7949 0.7264,-0.7959 1.7156,-0.6005 0.5449,0.1075 1.5078,0.3624 2.1396,0.5662 1.0337,0.3333 1.1562,0.4286 1.2221,0.951 0.04,0.3191 0.2896,0.8554 0.5539,1.1915 0.5704,0.7253 0.5701,1.1178 0,4.3143 -0.2178,1.2143 -0.3735,2.2377 -0.3459,2.2745 0.027,0.037 0.5273,-0.076 1.1105,-0.2502 1.016,-0.3037 1.0802,-0.3619 1.5373,-1.3951 0.2622,-0.5932 0.6928,-1.6534 0.9565,-2.356 l 0.4793,-1.2778 -0.5027,-0.2418 c -0.2763,-0.133 -0.4648,-0.345 -0.4185,-0.4711 0.088,-0.2407 0.3125,-0.2316 0.95,0.039 0.3154,0.1338 0.3891,0.083 0.4104,-0.2783 0.032,-0.5295 0.4773,-0.7485 0.8007,-0.393 0.1514,0.1665 0.1872,0.4844 0.1023,0.9116 -0.1096,0.5527 -0.062,0.7049 0.306,0.9678 0.2398,0.1716 0.4288,0.4351 0.4199,0.5856 -0.02,0.3561 -0.2042,0.3348 -0.6455,-0.075 -0.197,-0.1829 -0.4024,-0.2593 -0.4565,-0.1696 -0.082,0.1364 -1.3654,3.483 -1.3709,3.575 0,0.016 0.7094,-0.051 1.5786,-0.1504 1.845,-0.2107 2.3939,-0.023 2.6303,0.8973 0.1414,0.5508 0.2639,0.6375 1.2034,0.8527 0.5754,0.1318 1.0651,0.2297 1.0884,0.2174 0.046,-0.024 -0.6763,-2.8696 -0.765,-3.0131 -0.03,-0.049 -0.2579,0.01 -0.5059,0.1204 -0.3649,0.1691 -0.4474,0.1536 -0.4336,-0.081 0.01,-0.1595 0.1857,-0.3418 0.3915,-0.4053 0.2947,-0.091 0.3659,-0.2437 0.3349,-0.7194 -0.058,-0.8809 0.3978,-1.2186 0.7635,-0.5662 0.2291,0.4087 0.3408,0.4595 0.6437,0.2927 0.3527,-0.1943 0.5816,-0.1019 0.5622,0.2281 0,0.087 -0.1699,0.2068 -0.3661,0.2672 -0.4875,0.1502 -0.4639,0.5195 0.1647,2.5745 l 0.5422,1.7721 0.8512,0.3102 c 0.4681,0.1707 0.8639,0.2923 0.8796,0.2703 0.015,-0.022 -0.023,-1.1319 -0.088,-2.4667 l -0.1164,-2.4269 0.5794,-0.5665 c 0.3188,-0.3115 0.5905,-0.7527 0.6039,-0.9806 0.026,-0.4564 0.7353,-0.6617 2.7987,-0.8111 1.0697,-0.077 1.1007,-0.065 1.513,0.59 0.253,0.4021 0.5856,0.6787 0.8337,0.6934 0.3307,0.019 0.4234,0.1584 0.4656,0.6974 0.071,0.8986 0.3951,6.8502 0.3841,7.0384 -0.024,0.4248 0.3334,0.082 0.4638,-0.4424 0.2673,-1.0765 0.5941,-0.6347 0.5982,0.8083 0,0.8405 0.2401,0.8832 0.4265,0.076 0.1709,-0.7391 0.4584,-0.7933 0.4163,-0.078 -0.039,0.656 0.2388,0.6838 0.416,0.042 0.075,-0.2698 0.5585,-0.9741 1.076,-1.5655 0.9176,-1.0483 1.6388,-2.3674 1.4829,-2.7123 -0.043,-0.095 -0.5391,-0.4031 -1.1034,-0.6855 -0.5999,-0.3006 -1.0186,-0.6357 -1.0085,-0.8069 0.025,-0.4429 0.6563,-1.9131 0.8162,-1.9036 0.077,0 0.6237,0.2186 1.215,0.4757 0.5911,0.2571 1.0878,0.4486 1.1035,0.4258 0.015,-0.022 0.1943,-0.4724 0.3968,-0.9992 0.2024,-0.5265 0.4161,-0.9537 0.475,-0.949 0.1069,0.01 1.6367,0.6368 2.0155,0.8276 0.1506,0.075 0.1244,0.3645 -0.106,1.1678 -0.1683,0.587 -0.2902,1.0842 -0.2711,1.1051 0.019,0.02 0.5126,0.2749 1.0962,0.5648 0.9966,0.4947 1.0525,0.5591 0.9212,1.0589 -0.2803,1.0661 -0.6989,1.8832 -0.91,1.7762 -0.1174,-0.059 -0.6321,-0.2993 -1.1435,-0.5327 l -0.93,-0.4249 -0.7833,0.9033 c -1.0346,1.9705 -1.8106,4.7415 -3.7323,6.161 -23.6211,13.6424 -48.3991,4.695 -58.0749,-3.6964 z"
style="fill:#c0c0c0;fill-opacity:1"
id="path5323"
/>
<path
d="m 64.86326,29.0193999999999 -6.27713,-0.3446 -0.0281,7.9746 6.27713,0.3447 z"
id="rect4188"
style="fill:#000000;fill-opacity:1"
/>
<path
d="m 59.5943,39.9985999999999 c -2.768,-1.5436 -4.9188,-4.3695 -6.4076,-8.4189 -0.7981,-2.1708 -1.0275,-3.1949 -0.8429,-3.7646 0.2645,-0.8169 0.5213,-0.8435 2.3854,-0.2477 0.9644,0.3083 2.4519,0.6987 3.3056,0.8675 0.8536,0.1689 1.5802,0.333 1.6146,0.3646 0.034,0.032 -0.057,0.2536 -0.2028,0.4931 -1.4177,2.3266 -0.01,6.0137 2.3314,6.1064 2.2525,0.089 3.5443,-2.961 2.3548,-5.5601 l -0.3903,-0.8528 1.3984,-0.027 1.3984,-0.027 0.1588,0.5491 c 0.2874,0.9943 0.4315,3.627 0.2592,4.7382 -0.334,2.1545 -1.7992,4.9312 -3.1019,5.8785 -0.5827,0.4237 -0.8256,0.4861 -1.9237,0.4938 -1.1008,0.01 -1.391,-0.066 -2.3374,-0.5937 z"
id="path4190"
style="fill:#a6c2cd;fill-opacity:1;stroke:#c0c0c0;stroke-width:0.82080233;stroke-opacity:1"
/>
<path
d="m 72.15748,20.8620000000001 -4.09029,6.0663 4.49565,5.5731 4.09029,-6.0662 z"
style="fill:#000000;fill-opacity:1"
id="rect4192"
/>
<path
d="m 72.448,34.6302000000001 c -1.2814,-0.3918 -2.4197,-1.0809 -3.3731,-2.0419 -0.7376,-0.7435 -2.2792,-3.2483 -2.3146,-3.7609 -0.011,-0.1621 0.255,-0.6147 0.5916,-1.0057 0.3365,-0.391 0.8063,-1.021 1.0439,-1.3999 0.2376,-0.3789 0.4822,-0.6918 0.5435,-0.6953 0.061,0 0.1322,0.2938 0.1575,0.6606 0.064,0.9237 0.4784,1.8058 1.1818,2.5147 1.4297,1.4407 3.4103,0.8588 4.1602,-1.2224 0.8508,-2.361 -0.4115,-5.195 -2.4743,-5.5553 l -0.5323,-0.093 1.1187,-1.8681 c 1.29,-2.1544 2.1642,-3.8224 2.7819,-5.3081 0.7734,-1.8605 1.4795,-2.487 2.2662,-2.0106 0.8057,0.4878 1.2242,1.4173 1.8456,4.0991 0.7638,3.2961 1.0661,8.3028 0.6625,10.9741 -0.3511,2.3244 -1.2173,4.4393 -2.2718,5.5471 -1.2879,1.3528 -3.33,1.7947 -5.3873,1.1656 z"
id="path4194-3"
style="fill:#a6c2cd;fill-opacity:1;stroke:#c0c0c0;stroke-width:0.82080233;stroke-opacity:1"
/>
<path
id="path4196-5"
style="fill:#c0c0c0;fill-opacity:1;stroke:#c0c0c0;stroke-width:0.82080233;stroke-opacity:1"
d="m 61.0557,31.6155000000001 c -0.2822,-0.5172 0.3824,-1.387 0.8892,-1.1637 0.4398,0.1937 0.6105,0.8188 0.338,1.2373 -0.2371,0.364 -1.0137,0.3174 -1.2272,-0.074 z"
/>
<path
id="path4198-5"
style="fill:#c0c0c0;fill-opacity:1;stroke:#c0c0c0;stroke-width:0.82080233;stroke-opacity:1"
d="m 70.5698,25.578 c -0.048,-0.6896 0.8859,-1.0674 1.3356,-0.5405 0.1752,0.2054 0.2402,0.5781 0.1443,0.8284 -0.245,0.6394 -1.4318,0.4086 -1.4799,-0.2879 z"
/>
<path
d="m 71.4015,22.0636999999999 c -2.4475,3.6337 -2.4475,3.6337 -2.4475,3.6337"
id="path4200-9"
style="fill:none;stroke:#c0c0c0;stroke-width:0.82080233;stroke-opacity:1"
/>
<path
id="path4202-4"
style="fill:none;stroke:#c0c0c0;stroke-width:0.82080233;stroke-opacity:1"
d="m 63.9023,28.9936 c -4.435,-0.2508 -4.435,-0.2508 -4.435,-0.2508"
/>
</svg>
