<?xml version="1.0" encoding="UTF-8" standalone="no"?>
<svg
xmlns:cc="http://creativecommons.org/ns#"
xmlns:svg="http://www.w3.org/2000/svg"
xmlns:rdf="http://www.w3.org/1999/02/22-rdf-syntax-ns#"
xmlns="http://www.w3.org/2000/svg"
xmlns:dc="http://purl.org/dc/elements/1.1/"
xmlns:sodipodi="http://sodipodi.sourceforge.net/DTD/sodipodi-0.dtd"
xmlns:inkscape="http://www.inkscape.org/namespaces/inkscape"
>
<path
d="m 0.980999999999995,82.66803 16.3347,0 0,16.35106 -16.3347,0 z"
style="fill:#ffffff;fill-opacity:1;stroke:#000000;stroke-width:1.9619354;stroke-opacity:1"
id="rect4187"
/>
<path
d="m 17.3158000000001,82.66803 16.3348,0 0,16.35106 -16.3348,0 z"
style="fill:#ffffff;fill-opacity:1;stroke:#000000;stroke-width:1.9619354;stroke-opacity:1"
id="rect5049"
/>
<path
d="m 33.6604,82.66803 16.3348,0 0,16.35106 -16.3348,0 z"
style="fill:#0a6b9e;fill-opacity:1;stroke:#000000;stroke-width:1.9619354;stroke-opacity:1"
id="rect5051"
/>
<path
d="m 50.0048999999999,82.66803 16.3348,0 0,16.35106 -16.3348,0 z"
id="rect5053"
style="fill:#ffcc00;fill-opacity:1;stroke:#000000;stroke-width:1.9619354;stroke-opacity:1"
/>
<path
d="m 66.3397,82.66803 16.3348,0 0,16.35106 -16.3348,0 z"
id="rect5055"
style="fill:#008751;fill-opacity:1;stroke:#000000;stroke-width:1.9619354;stroke-opacity:1"
/>
<path
style="fill:#ff5a00;fill-opacity:1;stroke:#000000;stroke-width:1.9619354;stroke-opacity:1"
id="rect5057"
d="m 82.6841999999999,82.66803 16.3348,0 0,16.35106 -16.3348,0 z"
/>
<path
d="m 0.980999999999995,0.980959999999982 16.3347,0 0,16.35106 -16.3347,0 z"
style="fill:#ffcc00;fill-opacity:1;stroke:#000000;stroke-width:1.9619354;stroke-opacity:1"
id="rect5059"
/>
<path
d="m 17.3158000000001,0.980959999999982 16.3348,0 0,16.35106 -16.3348,0 z"
style="fill:#008444;fill-opacity:1;stroke:#000000;stroke-width:1.9619354;stroke-opacity:1"
id="rect5061"
/>
<path
d="m 33.6604,0.980959999999982 16.3348,0 0,16.35106 -16.3348,0 z"
style="fill:#ff5a00;fill-opacity:1;stroke:#000000;stroke-width:1.9619354;stroke-opacity:1"
id="rect5063"
/>
<path
style="fill:#0a6b9e;fill-opacity:1;stroke:#000000;stroke-width:1.9619354;stroke-opacity:1"
id="rect5065"
d="m 50.0048999999999,0.980959999999982 16.3348,0 0,16.35106 -16.3348,0 z"
/>
<path
d="m 66.3397,0.980959999999982 16.3348,0 0,16.35106 -16.3348,0 z"
id="rect5067"
style="fill:#ffffff;fill-opacity:1;stroke:#000000;stroke-width:1.9619354;stroke-opacity:1"
/>
<path
id="rect5069"
style="fill:#ffffff;fill-opacity:1;stroke:#000000;stroke-width:1.9619354;stroke-opacity:1"
d="m 82.6841999999999,0.980959999999982 16.3348,0 0,16.35106 -16.3348,0 z"
/>
<path
d="m 24.5,18 c 0,0 6.9502,31.47679 23.5,32 18.9413,0.59881 25.5,32 25.5,32"
style="fill:none;stroke:#000000;stroke-width:2;stroke-opacity:1"
id="path5073"
/>
<path
style="fill:none;stroke:#000000;stroke-width:2;stroke-opacity:1"
id="path5077"
d="m 8.5,18 c 0,0 6.9502,31.47679 23.5,32 18.9413,0.59881 25.5,32 25.5,32"
/>
<path
d="m 40.5,18 c 0,0 6.9502,31.47679 23.5,32 18.9413,0.59881 25.5,32 25.5,32"
style="fill:none;stroke:#000000;stroke-width:2;stroke-opacity:1"
id="path5079"
/>
<path
d="m 14.0834,14.4801 -1.5454,0 -1.0694,-3.03955 -4.7168,0 -1.0693,3.03955 -1.4722,0 3.9698,-10.90576 1.9335,0 3.9698,10.90576 z m -3.0615,-4.28467 -1.9117,-5.354 -1.9189,5.354 3.8306,0 z"
style="fill:#000000;fill-opacity:1"
id="path5163"
/>
<path
d="m 30.0634,11.1256100000001 q 0,0.81299 -0.3077,1.43555 -0.3076,0.62256 -0.8276,1.02539 -0.6152,0.4834 -1.355,0.68847 -0.7324,0.20508 -1.8677,0.20508 l -3.8671,0 0,-10.90576 3.2299,0 q 1.1939,0 1.7871,0.0879 0.5933,0.0879 1.1353,0.36621 0.6006,0.31494 0.8716,0.81299 0.271,0.49072 0.271,1.1792 0,0.77637 -0.3955,1.32568 -0.3955,0.542 -1.0547,0.87159 l 0,0.0586 q 1.1059,0.22705 1.7431,0.97412 0.6373,0.73975 0.6373,1.875 z m -2.439,-4.91455 q 0,-0.39551 -0.1318,-0.6665 -0.1319,-0.271 -0.4249,-0.43946 -0.3442,-0.19775 -0.8349,-0.2417 -0.4907,-0.0513 -1.2158,-0.0513 l -1.7285,0 0,3.14942 1.875,0 q 0.6811,0 1.0839,-0.0659 0.4029,-0.0732 0.7471,-0.29297 0.3442,-0.21973 0.4834,-0.56396 0.1465,-0.35157 0.1465,-0.82764 z m 0.9302,4.97314 q 0,-0.65918 -0.1978,-1.04736 -0.1977,-0.38818 -0.7178,-0.65918 -0.3515,-0.1831 -0.8569,-0.23437 -0.498,-0.0586 -1.2158,-0.0586 l -2.2778,0 0,4.05762 1.9189,0 q 0.9521,0 1.5601,-0.0952 0.6079,-0.10253 0.996,-0.36621 0.4102,-0.28564 0.6006,-0.65185 0.1905,-0.36621 0.1905,-0.94483 z"
id="path5160"
style="fill:#000000;fill-opacity:1"
/>
<path
style="fill:#000000;fill-opacity:1"
id="path5157"
d="m 46.6146000000001,13.68909 q -0.4028,0.17578 -0.7324,0.32959 -0.3223,0.15381 -0.8496,0.32226 -0.4468,0.13916 -0.9741,0.23438 -0.52,0.10254 -1.1499,0.10254 -1.1866,0 -2.1607,-0.32959 -0.9668,-0.33692 -1.6845,-1.04737 -0.7032,-0.6958 -1.0987,-1.76513 -0.3955,-1.07666 -0.3955,-2.49756 0,-1.34766 0.3809,-2.40967 0.3808,-1.06201 1.0986,-1.79443 0.6958,-0.71045 1.6773,-1.08399 0.9887,-0.37353 2.1899,-0.37353 0.8789,0 1.7505,0.2124 0.8789,0.2124 1.9482,0.74707 l 0,1.72119 -0.1098,0 q -0.9009,-0.75439 -1.7871,-1.09863 -0.8863,-0.34424 -1.897,-0.34424 -0.8277,0 -1.4942,0.271 -0.6591,0.26367 -1.1792,0.82763 -0.5053,0.54932 -0.791,1.3916 -0.2783,0.83497 -0.2783,1.9336 0,1.1499 0.3076,1.97754 0.315,0.82763 0.8057,1.34765 0.5127,0.542 1.1938,0.80567 0.6885,0.25635 1.4502,0.25635 1.0474,0 1.9629,-0.35889 0.9155,-0.35889 1.7139,-1.07666 l 0.1025,0 0,1.69922 z"
/>
<path
d="m 63.9358999999999,9.03821000000005 q 0,1.48681 -0.6518,2.69531 -0.6446,1.2085 -1.7212,1.875 -0.7471,0.46143 -1.67,0.6665 -0.9155,0.20508 -2.4169,0.20508 l -2.754,0 0,-10.90576 2.7247,0 q 1.5966,0 2.5341,0.23438 0.9449,0.22705 1.5967,0.62988 1.1133,0.6958 1.7359,1.85303 0.6225,1.15722 0.6225,2.74658 z m -1.5161,-0.022 q 0,-1.28174 -0.4468,-2.16065 -0.4468,-0.87891 -1.333,-1.38428 -0.6445,-0.36621 -1.3696,-0.50537 -0.7251,-0.14648 -1.7359,-0.14648 l -1.3623,0 0,8.41553 1.3623,0 q 1.0474,0 1.8238,-0.15381 0.7837,-0.15381 1.4355,-0.57129 0.813,-0.52002 1.2158,-1.36963 0.4102,-0.84961 0.4102,-2.12402 z"
id="path5154"
style="fill:#000000;fill-opacity:1"
/>
<path
style="fill:#000000;fill-opacity:1"
id="path5151"
d="m 78.2606000000001,14.4801 -7.185,0 0,-10.90576 7.185,0 0,1.28906 -5.7348,0 0,2.98828 5.7348,0 0,1.28907 -5.7348,0 0,4.05029 5.7348,0 0,1.28906 z"
/>
<path
d="m 94.2176999999999,4.86339999999996 -5.5152,0 0,3.07618 4.7388,0 0,1.28906 -4.7388,0 0,5.25146 -1.4502,0 0,-10.90576 6.9654,0 0,1.28906 z"
id="path5148"
style="fill:#000000;fill-opacity:1"
/>
<path
id="path5145"
style="fill:#000000;fill-opacity:1"
d="m 14.0834,96.4801 -1.5454,0 -1.0694,-3.03955 -4.7168,0 -1.0693,3.03955 -1.4722,0 3.9698,-10.90576 1.9335,0 3.9698,10.90576 z m -3.0615,-4.28467 -1.9117,-5.354 -1.9189,5.354 3.8306,0 z"
/>
<path
style="fill:#000000;fill-opacity:1"
id="path5142"
d="m 30.0634,93.1256100000001 q 0,0.81299 -0.3077,1.43555 -0.3076,0.62256 -0.8276,1.02539 -0.6152,0.4834 -1.355,0.68847 -0.7324,0.20508 -1.8677,0.20508 l -3.8671,0 0,-10.90576 3.2299,0 q 1.1939,0 1.7871,0.0879 0.5933,0.0879 1.1353,0.36621 0.6006,0.31494 0.8716,0.81299 0.271,0.49072 0.271,1.1792 0,0.77637 -0.3955,1.32568 -0.3955,0.542 -1.0547,0.87159 l 0,0.0586 q 1.1059,0.22705 1.7431,0.97412 0.6373,0.73975 0.6373,1.875 z m -2.439,-4.91455 q 0,-0.39551 -0.1318,-0.6665 -0.1319,-0.271 -0.4249,-0.43946 -0.3442,-0.19775 -0.8349,-0.2417 -0.4907,-0.0513 -1.2158,-0.0513 l -1.7285,0 0,3.14942 1.875,0 q 0.6811,0 1.0839,-0.0659 0.4029,-0.0732 0.7471,-0.29297 0.3442,-0.21973 0.4834,-0.56396 0.1465,-0.35157 0.1465,-0.82764 z m 0.9302,4.97314 q 0,-0.65918 -0.1978,-1.04736 -0.1977,-0.38818 -0.7178,-0.65918 -0.3515,-0.1831 -0.8569,-0.23437 -0.498,-0.0586 -1.2158,-0.0586 l -2.2778,0 0,4.05762 1.9189,0 q 0.9521,0 1.5601,-0.0952 0.6079,-0.10253 0.996,-0.36621 0.4102,-0.28564 0.6006,-0.65185 0.1905,-0.36621 0.1905,-0.94483 z"
/>
<path
style="fill:#000000;fill-opacity:1"
id="path5139"
d="m 46.6146000000001,95.68909 q -0.4028,0.17578 -0.7324,0.32959 -0.3223,0.15381 -0.8496,0.32226 -0.4468,0.13916 -0.9741,0.23438 -0.52,0.10254 -1.1499,0.10254 -1.1866,0 -2.1607,-0.32959 -0.9668,-0.33692 -1.6845,-1.04737 -0.7032,-0.6958 -1.0987,-1.76513 -0.3955,-1.07666 -0.3955,-2.49756 0,-1.34766 0.3809,-2.40967 0.3808,-1.06201 1.0986,-1.79443 0.6958,-0.71045 1.6773,-1.08399 0.9887,-0.37353 2.1899,-0.37353 0.8789,0 1.7505,0.2124 0.8789,0.2124 1.9482,0.74707 l 0,1.72119 -0.1098,0 q -0.9009,-0.75439 -1.7871,-1.09863 -0.8863,-0.34424 -1.897,-0.34424 -0.8277,0 -1.4942,0.271 -0.6591,0.26367 -1.1792,0.82763 -0.5053,0.54932 -0.791,1.3916 -0.2783,0.83497 -0.2783,1.9336 0,1.1499 0.3076,1.97754 0.315,0.82763 0.8057,1.34765 0.5127,0.542 1.1938,0.80567 0.6885,0.25635 1.4502,0.25635 1.0474,0 1.9629,-0.35889 0.9155,-0.35889 1.7139,-1.07666 l 0.1025,0 0,1.69922 z"
/>
<path
d="m 63.9358999999999,91.03821 q 0,1.48681 -0.6518,2.69531 -0.6446,1.2085 -1.7212,1.875 -0.7471,0.46143 -1.67,0.6665 -0.9155,0.20508 -2.4169,0.20508 l -2.754,0 0,-10.90576 2.7247,0 q 1.5966,0 2.5341,0.23438 0.9449,0.22705 1.5967,0.62988 1.1133,0.6958 1.7359,1.85303 0.6225,1.15722 0.6225,2.74658 z m -1.5161,-0.022 q 0,-1.28174 -0.4468,-2.16065 -0.4468,-0.87891 -1.333,-1.38428 -0.6445,-0.36621 -1.3696,-0.50537 -0.7251,-0.14648 -1.7359,-0.14648 l -1.3623,0 0,8.41553 1.3623,0 q 1.0474,0 1.8238,-0.15381 0.7837,-0.15381 1.4355,-0.57129 0.813,-0.52002 1.2158,-1.36963 0.4102,-0.84961 0.4102,-2.12402 z"
style="fill:#000000;fill-opacity:1"
id="path5136"
/>
<path
d="m 78.2606000000001,96.4801 -7.185,0 0,-10.90576 7.185,0 0,1.28906 -5.7348,0 0,2.98828 5.7348,0 0,1.28907 -5.7348,0 0,4.05029 5.7348,0 0,1.28906 z"
style="fill:#000000;fill-opacity:1"
id="path5133"
/>
<path
d="m 94.2176999999999,86.8634 -5.5152,0 0,3.07618 4.7388,0 0,1.28906 -4.7388,0 0,5.25146 -1.4502,0 0,-10.90576 6.9654,0 0,1.28906 z"
id="path5130"
style="fill:#000000;fill-opacity:1"
/>
</svg>
