<?xml version="1.0" encoding="UTF-8" standalone="no"?>
<svg
xmlns:inkscape="http://www.inkscape.org/namespaces/inkscape"
xmlns:sodipodi="http://sodipodi.sourceforge.net/DTD/sodipodi-0.dtd"
xmlns="http://www.w3.org/2000/svg"
xmlns:rdf="http://www.w3.org/1999/02/22-rdf-syntax-ns#"
xmlns:dc="http://purl.org/dc/elements/1.1/"
xmlns:cc="http://creativecommons.org/ns#"
xmlns:svg="http://www.w3.org/2000/svg"
>
<circle
r="49.550262"
style="fill:#cccccc;stroke:#000000;stroke-width:0.89947474;stroke-miterlimit:10"
cx="50"
cy="50"
id="circle13"
/>
<path
d="m 70.3181,17.4136999999999 c -2.3854,-0.097 -4.4439,1.6285 -5.2834,3.7729 -1.2296,2.6306 -0.9066,5.612 -1.0963,8.4257 -4.7324,5.6914 -9.8123,11.0736 -15.1857,16.1621 -0.7145,0.4684 -1.558,1.2343 -0.409,1.8036 1.5503,1.4583 3.0416,2.9857 4.6504,4.3785 0.732,0.011 0.9568,-1.0017 1.4866,-1.4073 4.0633,-4.3883 8.4911,-8.4819 13.5835,-11.6556 2.3179,-1.4832 4.7938,-2.9534 7.602,-3.0861 2.577,-0.3707 5.5695,-1.3685 6.6994,-3.9395 0.6453,-1.8512 -0.7612,-3.6461 -1.9533,-4.9225 -1.3113,-1.3707 -3.133,-2.3137 -4.8226,-2.931 0.7493,0.1744 0.6417,-0.6761 0.3399,-1.0918 -0.7873,-2.1537 -1.9949,-4.5424 -4.2811,-5.3798 -0.4341,-0.108 -0.8844,-0.1369 -1.3304,-0.1292 z"
style="opacity:1;fill:#008751;fill-opacity:1;stroke:none;stroke-width:13.83699989;stroke-opacity:1"
id="path4906"
/>
<path
d="m 46.9981,47.6301000000001 c -4.9428,5.9223 -10.8886,11.093 -17.6887,14.7832 -2.1124,1.1845 -4.5684,1.2701 -6.8733,1.858 -1.9314,0.5969 -4.1278,1.7727 -4.6313,3.8898 -0.099,3.0013 2.4803,5.2688 4.9209,6.5591 0.6755,0.3583 1.3854,0.6503 2.1124,0.8863 -0.6703,-0.1369 -0.8267,0.572 -0.4964,1.0288 0.7926,2.2052 2.0516,4.5972 4.3825,5.4525 2.5677,0.5457 5.4496,-0.8455 6.4087,-3.3421 1.2387,-2.7426 1.1157,-5.8294 1.2597,-8.7677 4.8611,-5.9732 10.1952,-11.5857 15.8583,-16.765 0.7774,-0.7592 -0.9135,-1.3873 -1.2583,-2.0371 -1.2881,-1.1848 -2.431,-2.5994 -3.8097,-3.6411 l -0.1416,0.073 -0.044,0.022 z"
id="path4846"
style="opacity:1;fill:#0054a0;fill-opacity:1;stroke:none;stroke-width:13.83699989;stroke-opacity:1"
/>
<path
d="m 31.1046,17.5615 c -3.2879,0.4529 -5.3308,3.7238 -6.5794,6.5092 -0.2902,0.491 -0.4257,2.6577 -0.3053,1.0445 0.4151,-1.2046 -0.9927,-1.309 -1.6895,-0.7196 -2.9091,0.8971 -5.7052,3.9324 -4.3401,7.1174 1.4861,3.8318 6.2389,4.1753 9.7629,4.4277 2.1424,-0.406 3.4892,1.1397 4.9403,2.43 3.9328,3.3351 7.6333,6.9395 11.3123,10.5588 1.8626,-0.9617 3.2066,-3.1454 4.8762,-4.5613 -0.8961,-1.8152 -2.9586,-3.1242 -4.2151,-4.8389 -3.8053,-4.6848 -8.1297,-9.5518 -8.9393,-15.7723 -0.5663,-2.4442 -1.7074,-6.2002 -4.823,-6.1955 z"
id="path4928-3"
style="opacity:1;fill:#fcd116;fill-opacity:1;stroke:none;stroke-width:13.83699989;stroke-opacity:1"
/>
<path
style="fill:#000000"
id="path4738-6"
d="m 46.9005,46.2845 c -0.5948,0.77 -1.2185,1.5374 -1.8546,2.276 -1.2492,1.4505 -4.9553,5.1533 -6.4928,6.487 -1.4512,1.2589 -3.8123,3.0487 -5.7782,4.3806 -3.553,2.4069 -5.7102,3.4503 -7.4145,3.5859 -2.085,0.1659 -4.0583,0.7407 -5.5007,1.6022 -1.158,0.6916 -2.2153,1.8403 -2.5351,2.7543 -0.2796,0.7991 -0.2527,1.9443 0.066,2.7664 0.7649,1.978 2.8396,3.9539 5.2273,4.9785 0.4645,0.1992 0.91,0.3632 0.9902,0.3632 0.2517,0 0.3306,0.1639 0.5926,1.2216 0.4646,1.8761 1.3261,3.5183 2.415,4.6032 1.0733,1.0694 2.0794,1.4973 3.5181,1.4973 0.9782,0 2.4567,-0.4512 3.3018,-1.0079 2.3461,-1.5457 3.4866,-4.5354 3.5249,-9.2412 l 0.019,-2.2886 0.5367,-0.6344 c 3.5397,-4.1845 6.2444,-7.1396 9.7531,-10.6562 2.6322,-2.6383 4.5906,-4.4503 6.4118,-5.904 -0.1894,-0.2555 -0.364,-0.5207 -0.5356,-0.7883 -0.4576,0.3622 -0.9213,0.7375 -1.3905,1.1338 -1.9508,1.6471 -8.2101,7.9527 -10.5846,10.6626 -1.6258,1.8555 -5.0269,5.8853 -5.0358,5.9668 0,0.016 -0.01,0.9806 -0.019,2.1447 -0.01,1.1641 -0.093,2.6262 -0.1862,3.2491 -0.2214,1.4691 -0.8373,3.2367 -1.4486,4.1569 -0.5672,0.8538 -0.8899,1.1764 -1.6282,1.6268 -0.9618,0.5865 -1.7741,0.8078 -2.9426,0.8015 -1.2629,-0.011 -1.8174,-0.2148 -2.7716,-1.0396 -0.6961,-0.6019 -1.2865,-1.3854 -1.7929,-2.3799 -0.4082,-0.8016 -1.1583,-2.8456 -1.0749,-2.9289 0.033,-0.033 0.1426,-0.018 0.2434,0.035 0.101,0.052 0.6531,0.1088 1.2272,0.1253 1.0912,0.032 1.119,-0.026 0.078,-0.1636 -1.3917,-0.183 -3.4384,-1.1367 -4.9768,-2.3191 -1.9531,-1.5012 -3.1694,-3.7221 -2.869,-5.2381 0.4325,-2.1824 3.556,-3.9488 7.4544,-4.2155 1.0564,-0.072 1.9016,-0.3145 3.1486,-0.9019 1.7863,-0.8415 3.5265,-1.8949 6.1125,-3.6997 4.8774,-3.4039 9.456,-7.7473 12.9333,-12.1858 -0.1949,-0.1915 -0.3836,-0.3934 -0.5671,-0.6057 -0.047,-0.068 -0.1045,-0.1491 -0.1542,-0.2198 z"
/>
<path
d="m 46.8199,46.7109 c 6.4512,6.3425 6.5057,6.3721 6.5057,6.3721"
style="fill:none;stroke:#000000;stroke-width:0.81623966;stroke-opacity:1"
id="path4792-4"
/>
<path
id="path4860"
style="fill:#000000"
d="m 53.3943,53.3178 c 0.5948,-0.7701 1.2185,-1.5374 1.8546,-2.2761 1.2492,-1.4504 4.9553,-5.1534 6.4928,-6.487 1.4511,-1.2588 3.8123,-3.0487 5.7782,-4.3806 3.553,-2.4068 5.7103,-3.4504 7.4145,-3.5858 2.085,-0.166 4.0582,-0.7407 5.5006,-1.6023 1.1581,-0.6916 2.2154,-1.8403 2.5352,-2.7543 0.2796,-0.799 0.2526,-1.9443 -0.066,-2.7664 -0.765,-1.9779 -2.8396,-3.9538 -5.2274,-4.9784 -0.4644,-0.1993 -0.9098,-0.3632 -0.9901,-0.3632 -0.2517,0 -0.3305,-0.164 -0.5926,-1.2216 -0.4646,-1.8762 -1.326,-3.5184 -2.4149,-4.6032 -1.0735,-1.0694 -2.0795,-1.4975 -3.5182,-1.4975 -0.9783,0 -2.4567,0.4514 -3.3018,1.0081 -2.3462,1.5456 -3.4866,4.5353 -3.525,9.2411 l -0.019,2.2886 -0.5367,0.6344 c -3.5397,4.1845 -6.2444,7.1396 -9.753,10.6562 -2.6322,2.6383 -4.5906,4.4504 -6.4118,5.9041 0.1893,0.2554 0.3641,0.5206 0.5356,0.7882 0.4575,-0.3623 0.9212,-0.7375 1.3905,-1.1337 1.9507,-1.6471 8.2101,-7.9527 10.5847,-10.6627 1.6258,-1.8554 5.0268,-5.8852 5.0356,-5.9668 0,-0.016 0.01,-0.9805 0.019,-2.1447 0.01,-1.164 0.093,-2.6262 0.1861,-3.2491 0.2215,-1.469 0.8374,-3.2366 1.4487,-4.1569 0.5671,-0.8539 0.8898,-1.1763 1.6282,-1.6267 0.9617,-0.5865 1.7741,-0.8079 2.9425,-0.8015 1.263,0.011 1.8175,0.2148 2.7716,1.0395 0.6962,0.602 1.2867,1.3854 1.793,2.38 0.4081,0.8015 1.1582,2.8455 1.075,2.9289 -0.033,0.033 -0.1428,0.018 -0.2436,-0.035 -0.101,-0.052 -0.6531,-0.1087 -1.2271,-0.1253 -1.0912,-0.032 -1.119,0.026 -0.078,0.1637 1.3917,0.183 3.4385,1.1367 4.9768,2.3191 1.953,1.5012 3.1695,3.7219 2.869,5.2381 -0.4325,2.1823 -3.556,3.9488 -7.4544,4.2154 -1.0564,0.072 -1.9016,0.3145 -3.1486,0.902 -1.7864,0.8415 -3.5265,1.8948 -6.1126,3.6997 -4.8772,3.4038 -9.4559,7.7472 -12.9333,12.1857 0.1951,0.1915 0.3837,0.3935 0.5672,0.6058 0.047,0.068 0.1045,0.149 0.1542,0.2197 z"
/>
<path
d="m 53.4749,52.8914 c -6.4511,-6.3426 -6.5057,-6.3721 -6.5057,-6.3721"
id="path4862"
style="fill:none;stroke:#000000;stroke-width:0.81623966;stroke-opacity:1"
/>
<path
id="path4918-3"
style="fill:#000000"
d="m 53.664,46.5541000000001 c -0.7701,-0.5947 -1.5373,-1.2185 -2.276,-1.8545 -1.4506,-1.2491 -5.1534,-4.9552 -6.4871,-6.4927 -1.2589,-1.4513 -3.0487,-3.8125 -4.3805,-5.7783 -2.4071,-3.553 -3.4504,-5.7102 -3.586,-7.4144 -0.1659,-2.085 -0.7406,-4.0583 -1.6022,-5.5008 -0.6916,-1.1579 -1.8403,-2.2152 -2.7543,-2.5351 -0.799,-0.2796 -1.9443,-0.2525 -2.7664,0.066 -1.9778,0.765 -3.9538,2.8397 -4.9784,5.2273 -0.1992,0.4645 -0.3633,0.91 -0.3633,0.9902 0,0.2516 -0.1638,0.3305 -1.2216,0.5925 -1.876,0.4647 -3.5183,1.3262 -4.6032,2.415 -1.0693,1.0734 -1.4973,2.0795 -1.4973,3.5183 0,0.9782 0.4512,2.4566 1.0079,3.3018 1.5456,2.3461 4.5355,3.4866 9.2413,3.5249 l 2.2885,0.019 0.6344,0.5367 c 4.1846,3.5395 7.1396,6.2442 10.6563,9.7529 2.6382,2.6323 4.4503,4.5906 5.9041,6.4118 0.2553,-0.1895 0.5205,-0.364 0.7881,-0.5356 -0.3622,-0.4576 -0.7374,-0.9212 -1.1337,-1.3905 -1.6472,-1.9507 -7.9527,-8.2101 -10.6628,-10.5847 -1.8553,-1.6257 -5.8851,-5.0267 -5.9666,-5.0356 -0.016,0 -0.9806,-0.011 -2.1447,-0.019 -1.1642,-0.011 -2.6262,-0.092 -3.2492,-0.1863 -1.4689,-0.2212 -3.2367,-0.8371 -4.1569,-1.4485 -0.8538,-0.5671 -1.1763,-0.8899 -1.6267,-1.6282 -0.5866,-0.9618 -0.8078,-1.774 -0.8015,-2.9425 0.01,-1.263 0.2147,-1.8175 1.0396,-2.7716 0.6019,-0.6961 1.3853,-1.2866 2.3799,-1.793 0.8015,-0.4081 2.8456,-1.1582 2.9289,-1.0749 0.033,0.033 0.018,0.1427 -0.034,0.2434 -0.052,0.1006 -0.1087,0.6532 -0.1253,1.2272 -0.031,1.0912 0.027,1.1189 0.1636,0.078 0.1829,-1.3916 1.1368,-3.4385 2.3192,-4.9767 1.5011,-1.9531 3.7219,-3.1695 5.2379,-2.8691 2.1824,0.4325 3.9489,3.5561 4.2157,7.4544 0.073,1.0564 0.3143,1.9015 0.9018,3.1487 0.8415,1.7862 1.8948,3.5264 3.6997,6.1125 3.4039,4.8772 7.7473,9.4559 12.1858,12.9333 0.1915,-0.1951 0.3934,-0.3837 0.6056,-0.5673 0.068,-0.048 0.1492,-0.1048 0.2199,-0.1541 z"
/>
<path
d="m 53.2375,46.4735000000001 c -6.3424,6.4513 -6.372,6.5058 -6.372,6.5058"
id="path4920-2"
style="fill:none;stroke:#000000;stroke-width:0.81623966;stroke-opacity:1"
/>
<path
style="fill:#000000"
id="path4924"
d="m 46.6308,53.0481 c 0.77,0.5948 1.5373,1.2184 2.2759,1.8545 1.4505,1.2493 5.1535,4.9553 6.4871,6.4928 1.2588,1.4512 3.0486,3.8123 4.3804,5.7783 2.4071,3.553 3.4505,5.7102 3.5861,7.4144 0.1658,2.085 0.7405,4.0583 1.6021,5.5007 0.6916,1.1579 1.8403,2.2153 2.7544,2.5352 0.7991,0.2796 1.9443,0.2526 2.7664,-0.066 1.9778,-0.7649 3.9538,-2.8396 4.9784,-5.2273 0.1992,-0.4644 0.3633,-0.9099 0.3633,-0.9901 0,-0.2517 0.1639,-0.3307 1.2215,-0.5926 1.876,-0.4647 3.5184,-1.3262 4.6032,-2.4149 1.0693,-1.0735 1.4973,-2.0795 1.4973,-3.5183 0,-0.9782 -0.4512,-2.4567 -1.0079,-3.3018 -1.5456,-2.3461 -4.5354,-3.4866 -9.2411,-3.5249 l -2.2887,-0.019 -0.6344,-0.5367 c -4.1844,-3.5396 -7.1396,-6.2443 -10.6563,-9.753 -2.6382,-2.6322 -4.4502,-4.5906 -5.904,-6.4117 -0.2554,0.1893 -0.5205,0.364 -0.7882,0.5355 0.3623,0.4576 0.7375,0.9213 1.1338,1.3905 1.6471,1.9507 7.9526,8.2101 10.6627,10.5848 1.8553,1.6257 5.8851,5.0267 5.9667,5.0356 0.016,0 0.9806,0.011 2.1446,0.019 1.1642,0.011 2.6263,0.092 3.2492,0.1861 1.469,0.2214 3.2367,0.8373 4.157,1.4487 0.8538,0.5671 1.1764,0.8897 1.6266,1.6282 0.5866,0.9617 0.8079,1.774 0.8015,2.9425 -0.01,1.263 -0.2147,1.8175 -1.0395,2.7715 -0.6019,0.6963 -1.3853,1.2867 -2.3799,1.793 -0.8016,0.4082 -2.8457,1.1583 -2.9289,1.0749 -0.033,-0.033 -0.018,-0.1426 0.034,-0.2434 0.052,-0.1006 0.1087,-0.6532 0.1252,-1.2272 0.031,-1.0912 -0.027,-1.119 -0.1634,-0.078 -0.1831,1.3917 -1.1369,3.4385 -2.3193,4.9768 -1.5012,1.9531 -3.722,3.1694 -5.238,2.869 -2.1824,-0.4325 -3.9488,-3.556 -4.2155,-7.4544 -0.073,-1.0563 -0.3145,-1.9015 -0.902,-3.1487 -0.8415,-1.7862 -1.8947,-3.5264 -3.6996,-6.1125 -3.4039,-4.8772 -7.7473,-9.4558 -12.1859,-12.9332 -0.1915,0.1951 -0.3933,0.3836 -0.6056,0.5672 -0.068,0.048 -0.1491,0.1049 -0.2197,0.1542 z"
/>
<path
id="path4926-0"
style="fill:none;stroke:#000000;stroke-width:0.81623966;stroke-opacity:1"
d="m 47.0572,53.1286 c 6.3424,-6.4511 6.3719,-6.5056 6.3719,-6.5056"
/>
<path
d="m 55.689,50.5823 c -1.4083,1.7056 -3.4676,3.1564 -4.4973,5.01 4.898,5.0243 9.8887,10.4764 12.4775,17.1396 0.8726,3.1429 0.9981,7.1291 4.0215,9.0734 2.2912,1.1115 4.5512,-1.1445 5.9427,-2.7416 1.214,-1.498 2.3953,-3.3681 2.4876,-5.2529 -0.117,0.765 0.1932,2.0799 1.2345,1.5475 2.6583,-0.9267 5.837,-3.285 4.9727,-6.501 -0.9281,-3.7022 -5.255,-5.1543 -8.6966,-4.9988 -2.008,0.098 -3.9323,-0.02 -5.2331,-1.7595 -4.3236,-3.6026 -8.2887,-7.5959 -12.3174,-11.5236 l -0.3186,0.011 -0.074,0 z"
id="path4930"
style="opacity:1;fill:#ef6b00;fill-opacity:1;stroke:none;stroke-width:13.83699989;stroke-opacity:1"
/>
<path
style="fill:#663300"
id="path51"
d="m 27.7426,40.9003 c -0.3849,1.0434 -0.6981,2.109 -0.9251,3.1648 -0.275,1.2841 -0.5069,2.6372 -0.6624,3.9926"
/>
<path
id="path53"
style="fill:#9b6743"
d="m 26.8274,44.4772 c -0.3713,1.2408 -0.7833,10.5629 -0.6327,11.4189 0.1997,1.1348 0.7363,2.806 1.9328,3.2402 0.8757,0.4304 2.1177,0.317 2.9786,0.1924 1.9907,-0.285 4.0358,-0.8621 5.7798,-1.8723 1.4961,-0.8721 2.9787,-2.9158 3.7384,-4.4625 2.3164,-0.2924 1.9094,-0.7352 4.3861,-3.1095 2.0734,-3.329 2.0252,0.1197 2.1017,0.2369 -1.7292,0.2725 -2.2719,4.344 -7.6928,6.5049 -0.9164,0.3677 -1.7256,1.2557 -2.1055,2.2054 -0.9718,2.4422 1.7021,5.0522 3.429,6.3657 1.0052,0.7622 2.1707,1.2421 3.3845,0.6315 1.0792,-0.5415 1.3098,-1.8366 0.8103,-2.827 -0.5414,-1.0718 -1.2149,-1.4751 -2.4002,-1.5122 -1.1446,-0.031 -1.1483,-1.2198 -0.3787,-1.6552 0.3294,-0.1837 0.6377,-0.396 0.9745,-0.571 0.8041,-0.4219 1.7021,-1.046 2.6272,-1.1533 0,0.011 0.01,0.014 0.014,0.019 0.4045,0.6129 0.7918,1.2383 1.1446,1.8833 1.0965,2.0106 1.8649,4.1369 2.6074,6.2941 0.3614,1.0534 0.7178,2.1055 1.0644,3.1614 0.1543,0.4637 0.3035,0.9311 0.4477,1.3998 0.2986,0.9596 0.301,1.5554 -0.6524,2.1314 -1.2161,0.7326 -2.6346,1.4838 -1.1656,2.811 1.0311,0.9299 3.0897,0.7338 4.2529,0.2404 1.4911,-0.6315 1.8674,-1.8415 1.6453,-3.3795 -0.3231,-2.2325 -1.0076,-4.4711 -1.6725,-6.6259 -0.5624,-1.8144 -0.9151,-3.709 -1.4801,-5.5171 0.6327,0.1566 1.2655,0.2874 1.8846,0.3948 1.8883,0.3279 3.7854,0.5871 5.6554,0.4106 -0.4404,2.3916 -0.29,4.7648 1.3405,6.7888 0.75,0.9286 1.9847,1.7415 0.734,2.938 -0.6587,0.6265 -1.5899,0.8855 -2.2559,1.5035 -0.9004,0.8337 -1.0398,1.7391 0.076,2.4348 1.1274,0.703 2.6308,0.1196 3.768,-0.1987 1.157,-0.3256 2.4348,-1.2481 3.1095,-2.2398 0.8683,-1.2753 0.8993,-2.4792 0.5502,-3.9457 -0.3948,-1.6553 -0.6993,-3.5449 0.01,-5.1483 0.2258,-0.016 0.4577,-0.045 0.6981,-0.095 1.0411,-0.2059 1.9637,-0.835 3.0589,-0.6364 1.009,0.1899 1.6553,1.1113 2.2474,1.8611 0.9706,1.2212 2.0203,2.8282 3.7607,2.726 3.3301,-0.1974 0.056,-6.4952 -0.6981,-7.6941 -0.9215,-1.4653 -2.2068,-2.4015 -3.8372,-2.8874 -1.2001,-0.3602 -2.1771,-0.7228 -2.6568,-1.9932 -0.2319,-0.6105 -0.056,-1.3852 0,-2.1006 0.1999,-1.1766 0.2048,-2.389 0,-3.5657 -0.2319,-1.3876 -0.9608,-2.5989 -1.9587,-3.5375 0.571,-0.386 1.0842,-0.8659 1.4406,-1.332 1.1323,-1.4863 1.7885,-2.8677 1.8243,-4.7548 0.071,-3.7348 -2.2868,-6.8788 -5.5628,-8.4676 -0.8573,-0.4144 -2.6382,-1.0051 -3.0551,0.2394 -0.1283,0.3798 0.2701,0.8548 0.5513,1.0434 0.8154,0.5465 1.7737,0.8474 2.6136,1.3704 3.6905,2.3041 4.1086,8.7486 -0.073,10.4445 -0.089,-0.037 -0.1775,-0.075 -0.27,-0.1084 -2.7259,-1.0202 -5.469,-0.1678 -8.1961,0.3329 -1.4136,0.2591 -2.8357,0.5391 -4.275,0.5674 -0.5909,0.011 -1.4838,0.089 -2.1462,0.084 -0.078,-0.3454 -0.2885,-0.6858 -0.3613,-0.8708 -0.1444,-0.3626 -0.8141,-1.3074 -1.4666,-1.3802 0.132,-0.7807 0.238,-1.8095 0.2047,-2.6223 1.7084,0.9325 3.5374,1.4554 5.6738,1.2865 2.4681,-0.1948 5.5985,-1.7565 5.8192,-4.5192 0.1172,-1.4899 -0.2849,-2.9146 -1.4863,-3.8557 -1.0742,-0.8424 -2.3977,-0.9053 -3.6336,-0.4168 -1.3937,0.5538 -2.4521,1.5675 -3.4671,2.6369 -0.8388,0.8843 -1.9994,1.96 -3.2711,2.4866 -1.1125,-3.6719 -4.8177,-6.2016 -8.5821,-6.5963 -2.1683,-0.2257 -4.212,0.1357 -6.0547,1.3247 -0.1715,0.111 -0.3355,0.2269 -0.4984,0.3441 0.6303,-2.1449 2.7517,-3.8347 3.0354,-6.1474 0.2985,-2.4347 -1.5677,-3.7248 -3.8519,-3.3487 -2.7505,0.4502 -4.0444,3.1292 -3.7076,5.675 0.1751,1.3297 0.7647,2.6025 1.4628,3.7298 0.3281,0.5268 0.7561,1.2211 1.2791,1.7403 -0.7648,0.8734 -1.4099,1.8515 -2.0031,2.8937 -0.3331,0.5846 -0.6426,1.1952 -0.9275,1.8218"
/>
<path
style="color:#000000;clip-rule:nonzero;display:inline;overflow:visible;visibility:visible;opacity:1;isolation:auto;mix-blend-mode:normal;solid-color:#000000;solid-opacity:1;fill:#ff0033;fill-opacity:1;stroke:none;stroke-width:5;stroke-linecap:butt;stroke-linejoin:round;stroke-dashoffset:0;stroke-opacity:1;color-rendering:auto;image-rendering:auto;shape-rendering:auto;text-rendering:auto;enable-background:accumulate"
id="rect5978"
d="m 48.34369,42.8590999999999 1.65625,1.1562 0.22541,2.2926 -0.33666,1.8707 -1.53049,1.8177 -2.8111,0.6165 -1.13176,-0.3185 1.30144,-1.9961 0.76293,0.1377 0.96774,-1.196 0.53897,-1.44 -0.29197,-1.019 z"
/>
<path
d="m 40.7692500000001,49.8317 0.156,1.903 1.466,0.183 -0.807,-1.796 -0.815,-0.29 0,0"
id="polyline55"
style="fill:#f772b2"
/>
<path
d="m 46.8519,48.6941999999999 c -0.4502,0.087 -0.6426,0.6204 -0.3837,0.9695 0.075,0.1504 0.2073,0.2738 0.3849,0.3343 0.3898,0.1319 0.819,-0.1679 0.8561,-0.565 0.046,-0.4575 -0.4207,-0.8239 -0.8573,-0.7388 z m 0.3194,0.766 c -0.022,0.074 -0.164,0.1184 -0.2589,0.072 -0.034,-0.02 -0.061,-0.048 -0.082,-0.082 0,-0.1147 0.041,-0.2356 0.1579,-0.2356 0.1492,0 0.2207,0.1221 0.1837,0.2455 z"
id="path59-3"
/>
<circle
id="circle61"
cy="49.3416999999999"
cx="47.0158699999999"
style="fill:#ffffff"
r="0.4131943"
/>
<path
id="path65"
d="m 54.9122,57.354 c -1.0373,3.2266 -4.4933,5.0052 -7.7224,3.9666 -3.2266,-1.036 -5.0039,-4.4908 -3.9667,-7.7199 1.0361,-3.2279 4.4922,-5.0065 7.7188,-3.9678 3.2291,1.0335 5.0077,4.4908 3.9703,7.7211"
/>
<path
style="fill:#a7dad0"
id="path67"
d="m 53.6468,56.9457 c -0.8116,2.531 -3.5214,3.9236 -6.0511,3.1107 -2.531,-0.8115 -3.9223,-3.5214 -3.1095,-6.0511 0.8116,-2.5311 3.5201,-3.9235 6.0511,-3.1095 2.5298,0.8129 3.9223,3.5202 3.1095,6.0499"
/>
<path
d="m 49.7517,53.2454 c 1.8427,0.5908 2.9514,2.3978 2.7295,4.2468 0.1208,-0.2184 0.2244,-0.4526 0.3022,-0.6981 0.6697,-2.087 -0.4798,-4.3256 -2.5668,-4.9941 -2.0881,-0.6699 -4.3232,0.4785 -4.9928,2.5666 -0.08,0.248 -0.132,0.4971 -0.1615,0.745 0.8978,-1.6354 2.8502,-2.4582 4.6894,-1.8662"
stroke-miterlimit="10"
style="fill:#ffffff;stroke:#000000;stroke-width:0.61670786;stroke-miterlimit:10"
id="path69"
/>
<path
d="m 44.4985,52.646 -9.131,-2.9305 c -0.6833,-0.2221 -1.4147,0.1554 -1.6342,0.8399 -0.2184,0.6833 0.1579,1.4136 0.8411,1.6319 l 9.1298,2.933 0.7943,-2.4743 z"
id="path71-0"
/>
<path
id="path77"
d="m 65.15207,30.9873 c -0.85722,-0.4144 -2.63828,-1.0052 -3.05517,0.2393 -0.12828,0.3799 0.27012,0.8548 0.55134,1.0435 0.81528,0.5464 1.77365,0.8473 2.6136,1.3703 3.77056,2.3533 4.12825,9.0298 -0.34412,10.5506 0.11841,0.068 0.23312,0.1382 0.34906,0.2072 -0.005,0.041 0.005,0.084 0.0493,0.1111 0.32808,0.2059 0.67591,0.3749 0.99413,0.6006 0.10854,0.078 0.23065,0.1443 0.34535,0.2171 -0.005,0 -0.01,0 -0.0173,0.01 0.16651,0.132 0.32809,0.2726 0.48103,0.4169 0.70428,-0.4132 1.34689,-0.9879 1.77118,-1.5417 1.13228,-1.4863 1.78846,-2.8677 1.82423,-4.7549 0.0691,-3.736 -2.28799,-6.8787 -5.56271,-8.4686 z"
/>
<path
d="m 28.76507,59.029 c -0.62781,-0.4711 -1.13104,-0.7561 -1.54053,-1.469 -0.49584,-0.8609 -0.62411,-1.9426 -0.72895,-2.9108 -0.16775,-1.548 0.0321,-3.091 -0.09,-4.629 -0.01,-0.1246 -0.18255,-0.1555 -0.21955,-0.032 -0.5316,1.8526 -0.32069,4.037 0.009,5.908 0.23065,1.3062 0.90163,3.3204 2.51247,3.3438 0.12334,0 0.14184,-0.148 0.058,-0.2109 z"
id="path79"
/>
<path
d="m 48.57866,38.9205999999999 c -0.58587,-4.3206 -4.67958,-7.3746 -8.84606,-7.8099 -2.16834,-0.2258 -4.21211,0.1356 -6.05483,1.3246 -1.90193,1.2261 -3.18098,2.9467 -4.28489,4.8856 -1.17298,2.0598 -2.08077,4.428 -2.57537,6.7443 -0.5168,2.4224 -0.89916,5.0866 -0.85353,7.5633 0.005,0.2603 0.38976,0.2578 0.40333,0 0.19241,-4.4057 0.98057,-8.6845 2.79122,-12.7128 1.76255,-3.9235 4.90776,-7.4326 9.51334,-7.3734 2.25591,0.028 4.31325,0.8659 6.12391,2.1635 1.86492,1.3358 2.85412,3.1057 3.29198,5.3505 0.44403,2.2732 -0.15541,4.613 -1.14954,6.6494 -0.20104,0.4139 -0.41114,0.8262 -0.63594,1.23 -0.22205,0.3989 -0.45845,0.7896 -0.71465,1.1653 -0.4687,0.6845 -2.23865,3.1859 -2.84919,3.8112 -0.23065,0.2368 0.20721,0.4884 0.43909,0.2578 0.66728,-0.6685 2.50631,-3.3117 3.03791,-4.0888 0.5908,-0.8683 1.10514,-1.8859 1.506,-2.8566 0.85722,-2.0647 1.15818,-4.0826 0.85722,-6.304 z"
id="path81"
/>
<path
d="m 41.098,43.5274999999999 c -0.27012,-0.4564 -0.79926,-0.6217 -1.29879,-0.6427 -0.37373,-0.015 -0.69811,0.2085 -0.90779,0.5168 -0.13321,0.1197 -0.21462,0.3306 -0.27629,0.4872 -0.16774,0.4268 0.006,0.9905 0.29355,1.3223 0.65125,0.7499 1.88713,0.6142 2.30032,-0.3183 0.19735,-0.4428 0.12951,-0.9559 -0.111,-1.3653 z"
id="path83-1"
/>
<path
id="path85"
d="m 31.24547,39.6877999999999 c -0.27012,-0.4576 -0.79925,-0.6216 -1.29755,-0.6426 -0.37496,-0.016 -0.69935,0.2072 -0.9078,0.5168 -0.13321,0.1197 -0.21461,0.3306 -0.27628,0.4872 -0.16898,0.4268 0.005,0.9905 0.29355,1.3235 0.65001,0.7487 1.88713,0.613 2.29909,-0.3182 0.19858,-0.4441 0.12951,-0.9584 -0.11101,-1.3667 z"
/>
<path
id="path87"
d="m 42.7483099999999,51.9540999999999 c -0.10484,-0.349 -0.85846,-2.2127 -1.54054,-2.5285 -0.31699,-0.1455 -0.65618,-0.3996 -1.0151,-0.3379 -0.12211,0.021 -0.12088,0.1875 -0.0308,0.243 0.46623,0.2972 1.33949,0.9102 1.64538,1.5886 0.20228,0.4539 0.35646,1.0102 0.54147,1.2569 0.28369,0.3749 0.54394,0.2565 0.39963,-0.2221 z"
/>
<path
d="m 62.60507,59.9565 c -2.82823,1.2113 -5.63918,0.9337 -8.60801,0.4354 -0.93,-0.1554 -1.83039,-0.3675 -2.71228,-0.6401 0.0888,0.222 0.18994,0.4428 0.26518,0.6685 0.76842,0.2085 1.54424,0.3725 2.30032,0.5032 2.81712,0.4885 5.65768,0.8301 8.39586,-0.2133 0.20722,-0.081 0.41936,-0.169 0.62658,-0.2578 -0.10238,-0.1567 -0.19118,-0.3195 -0.26765,-0.4959 z"
id="path89"
/>
<path
d="m 69.40859,49.0803000000001 c -0.40209,-2.3953 -2.27195,-4.2738 -4.4884,-5.1027 -2.72585,-1.02 -5.46897,-0.1677 -8.19605,0.3331 -1.41349,0.259 -2.83562,0.539 -4.27502,0.5673 -0.67714,0.014 -1.44063,0.054 -2.20411,0.033 0.0197,0.025 0.0333,0.051 0.0456,0.083 0.0382,0.1295 0.0654,0.2565 0.0839,0.386 1.0891,0.089 2.20781,0.072 3.29075,-0.049 2.4656,-0.2726 4.85719,-1.025 7.31909,-1.2803 2.90346,-0.3022 5.45293,0.782 7.14271,3.1428 0.66358,0.9312 0.94603,2.1362 0.96453,3.3857 0.0247,0.037 -0.0925,2.1326 -0.09,2.1893 0.037,0.8868 0.23682,-0.2787 0.25285,0.6044 0.34412,-1.3975 0.39223,-2.8726 0.15418,-4.2923 z"
id="path91"
/>
<path
d="m 45.4161800000001,48.8694 c 0.57724,-0.1012 1.20505,-0.1012 1.67745,-0.6439 0.71415,-0.8153 1.55904,-2.8479 0.65988,-3.5719 -0.0592,-0.047 -0.17021,-0.074 -0.18378,0.025 -0.0197,0.1271 -0.0197,0.153 0.021,0.2763 0.28368,0.8819 0.0296,1.7293 -0.30836,2.2695 -0.74498,1.1939 -0.66111,0.8153 -1.69594,1.1545 -0.13938,0.047 -0.34166,0.3157 -0.32316,0.4563 l 0.15294,0.035 z"
id="path93"
/>
<path
d="m 49.167,44.5722000000001 c -0.43416,-0.1493 -0.86709,0.2158 -0.81652,0.6487 -0.01,0.1665 0.0432,0.3405 0.16651,0.4811 0.27259,0.3096 0.79309,0.2664 1.0262,-0.061 0.26395,-0.3737 0.0444,-0.9238 -0.37619,-1.0693 z m -0.10607,0.8251 c -0.0555,0.052 -0.19982,0.019 -0.26025,-0.072 -0.0197,-0.032 -0.0284,-0.072 -0.0308,-0.1098 0.058,-0.1 0.15665,-0.1838 0.25532,-0.127 0.12951,0.075 0.12951,0.2183 0.0358,0.3083 z"
id="path95-3"
/>
<path
id="path97"
d="m 45.80718,57.5526 c -1.06074,0.099 -2.0302,0.7499 -2.9565,1.2297 -0.57107,0.2911 -1.9377,0.8092 -1.91179,1.6257 0.0259,0.7487 0.47363,1.5047 1.25315,1.633 0.81158,0.1369 1.42089,-0.026 1.97223,0.7734 0.83379,1.2063 0.37989,2.6234 -1.17298,2.7406 -1.5097,0.1135 -3.07737,-1.6762 -3.9531,-2.7098 -0.90409,-1.0694 -1.83779,-2.6518 -1.12857,-4.0345 0.5279,-1.025 1.74775,-1.7403 2.65061,-2.3965 0.82515,-0.597 2.15107,-0.9855 2.68144,-1.8945 0.0617,-0.1074 -0.0617,-0.2319 -0.16898,-0.1678 -1.24328,0.724 -2.48903,1.4283 -3.65337,2.2757 -0.79679,0.5834 -1.72555,1.2556 -2.10544,2.2053 -0.97194,2.4422 1.70211,5.0521 3.42889,6.3657 1.00524,0.7622 2.17081,1.242 3.3845,0.6315 1.07923,-0.5415 1.30988,-1.8366 0.81035,-2.827 -0.54147,-1.0719 -1.21492,-1.4752 -2.40023,-1.5122 -1.14461,-0.031 -1.14831,-1.2198 -0.37866,-1.6552 0.32933,-0.1838 0.63768,-0.396 0.9744,-0.5711 0.81776,-0.4268 1.73172,-1.0657 2.67405,-1.1569 0.35275,-0.037 0.35522,-0.5884 0,-0.5551 z"
/>
<path
id="path99"
d="m 44.66503,63.1647 c -0.35029,0.031 -0.67344,0.1023 -1.0299,0.085 -0.29725,-0.014 -0.56614,-0.1924 -0.86339,-0.1579 -0.0444,0 -0.0777,0.058 -0.0395,0.094 0.57354,0.5353 1.20505,0.486 1.93276,0.4145 0.27629,-0.026 0.27999,-0.4601 0,-0.4354 z"
/>
<path
d="m 43.91265,65.2503999999999 c -0.48226,-0.035 -0.91766,-0.084 -1.31359,-0.3997 -0.18131,-0.148 -0.38976,-0.4021 -0.63274,-0.4181 -0.053,0 -0.0765,0.057 -0.0555,0.096 0.18131,0.391 0.39099,0.6611 0.76841,0.8942 0.36263,0.227 0.8745,0.4009 1.28769,0.2332 0.21708,-0.086 0.18871,-0.3886 -0.0543,-0.4058 z"
id="path101"
/>
<path
d="m 50.4916899999999,73.8386 c -0.35399,-0.1196 -0.79062,0.2924 -1.01633,0.5119 -0.25532,0.2479 -0.43663,0.8042 -0.26025,1.1311 0.058,0.1171 0.23311,0.1097 0.29602,0 0.0913,-0.1641 0.0654,-0.3405 0.10114,-0.5218 0.0555,-0.2553 0.25038,-0.3947 0.43169,-0.56 0.0284,-0.027 0.69811,-0.476 0.44773,-0.5612 z"
id="path103"
/>
<path
d="m 52.1827,74.5391999999999 c -0.32315,-0.1529 -0.68208,0.1801 -0.87449,0.4169 -0.25532,0.3047 -0.39222,0.6944 -0.40456,1.0879 -0.01,0.2886 0.43416,0.2849 0.44526,0 0.01,-0.2738 0.10608,-0.5291 0.24545,-0.7586 0.15418,-0.2503 0.42183,-0.3873 0.60561,-0.6031 0.037,-0.04 0.0407,-0.1172 -0.0173,-0.1431 z"
id="path105"
/>
<path
id="path107-5"
d="m 75.90252,59.6271999999999 c -0.92136,-1.4653 -2.20658,-2.4014 -3.83715,-2.8874 -1.20012,-0.3602 -2.17698,-0.7228 -2.65678,-1.9932 -0.31329,-0.819 0.11347,-1.9254 -0.0185,-2.8023 -0.0308,-0.2097 -0.37249,-0.1604 -0.36263,0.047 0.0234,0.7363 -0.26395,1.4369 -0.26888,2.1769 -0.005,0.687 0.24051,1.173 0.60931,1.7367 0.68454,1.0422 2.0487,1.2445 3.15877,1.5985 1.76872,0.5711 2.95774,2.3743 3.74342,3.9617 0.56614,1.1422 2.4693,6.6 -0.83996,5.0336 -0.73141,-0.3441 -1.24204,-1.2495 -1.75391,-1.8464 -0.44897,-0.5156 -0.87203,-1.0435 -1.32346,-1.5541 -0.78568,-0.8832 -1.9821,-1.1496 -3.09587,-0.8918 -0.73882,0.1702 -1.41966,0.5082 -2.17575,0.6586 -1.24451,0.2504 -2.16217,-0.2762 -2.97623,-1.1581 -1.0077,-1.0904 -1.30002,-2.5248 -2.08571,-3.7151 -0.0876,-0.132 -0.32192,-0.051 -0.26641,0.1098 0.48473,1.3543 0.80048,2.5865 1.73911,3.7496 1.09404,1.3604 2.33116,1.8661 4.04067,1.5195 1.04101,-0.2059 1.9636,-0.835 3.05887,-0.6364 1.00894,0.1899 1.65525,1.1113 2.24729,1.8612 0.9707,1.2211 2.02033,2.8282 3.76068,2.7259 3.33269,-0.1974 0.0592,-6.4952 -0.69688,-7.6941 z"
/>
<path
id="path109"
d="m 66.95532,63.2103 c -0.14801,0 -0.29108,-0.019 -0.44279,-0.01 -0.0259,0 -0.0432,0 -0.0641,0 -0.38976,0.7116 -0.5279,1.411 -0.64014,2.3348 -0.18625,1.5492 0.50076,3.0046 0.65741,4.5168 0.18378,1.7625 -1.36786,3.1501 -2.77765,3.8964 -0.61671,0.328 -1.35799,0.4884 -2.03021,0.6561 -0.68208,0.1702 -3.40669,0.1271 -2.15847,-1.3962 0.78198,-0.9497 2.31882,-1.1224 2.95773,-2.2374 0.5797,-1.0089 0.30835,-1.6861 -0.44033,-2.4693 -1.21368,-1.2593 -1.99197,-2.5001 -2.15848,-4.2763 -0.10237,-1.1051 -10e-4,-2.188 0.0752,-3.2833 -0.0974,0.034 -0.20351,0.059 -0.30589,0.076 -0.0222,0 -0.0419,0 -0.0629,0 -0.51434,2.5002 -0.42306,4.9954 1.28028,7.1057 0.74992,0.9288 1.98457,1.7416 0.73389,2.938 -0.65865,0.6266 -1.58988,0.8856 -2.25592,1.5036 -0.9004,0.8337 -1.03977,1.7391 0.0765,2.4347 1.12734,0.7031 2.63088,0.1197 3.76808,-0.1986 1.15695,-0.3256 2.43477,-1.2482 3.10945,-2.2398 0.86832,-1.2754 0.89916,-2.4792 0.5501,-3.9457 -0.41566,-1.7441 -0.73758,-3.7496 0.12827,-5.4061 z"
/>
<path
id="path111"
d="m 76.29228,67.0327 c -0.0395,-0.153 -0.0888,-0.2097 -0.22448,-0.3035 -0.23188,-0.1603 -0.38483,-0.3552 -0.53283,-0.5908 -0.21462,-0.3503 -0.39716,-0.724 -0.58834,-1.0854 -0.0111,-0.021 -0.0456,-0.021 -0.0567,0 -0.18255,0.3589 0.0703,0.8437 0.22201,1.1742 0.17762,0.3799 0.56861,1.004 1.05334,0.9732 0.0851,-0.01 0.14801,-0.083 0.12704,-0.1677 z"
/>
<path
d="m 77.63424,65.8263999999999 c -0.29109,-0.1912 -0.49707,-0.3774 -0.69071,-0.6685 -0.16775,-0.2504 -0.28246,-0.5181 -0.4576,-0.766 -0.0469,-0.065 -0.16775,-0.068 -0.18748,0.026 -0.0715,0.3318 0.14308,0.7598 0.29355,1.0509 0.16651,0.3182 0.48597,0.7178 0.86093,0.7869 0.26025,0.047 0.40949,-0.28 0.18131,-0.4292 z"
id="path113"
/>
<path
id="path115"
d="m 60.72657,72.8223 c -0.49583,-0.023 -0.98179,0.2899 -1.34442,0.6056 -0.16158,0.1419 -0.5094,0.5551 -0.41936,0.7931 0.0506,0.1295 0.23312,0.2196 0.34412,0.09 0.15171,-0.1788 0.20968,-0.4033 0.3836,-0.5747 0.32068,-0.3207 0.75855,-0.4712 1.0928,-0.7734 0.0555,-0.054 0.009,-0.1332 -0.0567,-0.1406 z"
/>
<path
d="m 61.98466,73.481 c -0.36263,0.076 -0.70551,0.1615 -0.99783,0.4057 -0.28862,0.2418 -0.52174,0.5625 -0.54764,0.9473 -0.0765,0.2997 0.44403,0.3972 0.4724,0.042 0.0271,-0.3515 0.30588,-0.6216 0.58464,-0.8115 0.19858,-0.1431 0.502,-0.2517 0.5501,-0.5255 0.006,-0.037 -0.0247,-0.068 -0.0617,-0.058 z"
id="path117"
/>
<path
id="path119-7"
d="m 55.11823,72.6718000000001 c -0.32315,-2.2324 -1.0077,-4.4711 -1.67251,-6.6259 -0.59327,-1.9142 -0.95096,-3.921 -1.57507,-5.8217 -0.0506,-0.1579 -0.20968,-0.2084 -0.33672,-0.1677 -0.0629,-0.1271 -0.13938,-0.2381 -0.24299,-0.3121 -0.0481,-0.031 -0.10854,0.022 -0.0937,0.074 0.0407,0.1604 0.10114,0.3244 0.16158,0.486 l 0,0.016 c 0,0.051 0.0148,0.091 0.0333,0.127 0.42677,1.5332 0.67962,3.1181 1.13968,4.6513 0.59327,1.9845 1.16558,3.9531 1.64538,5.9759 0.20968,0.8794 0.44033,1.7822 0.43663,2.695 -0.007,1.4221 -1.44557,1.9241 -2.61361,2.0758 -0.4909,0.063 -1.004,0.018 -1.49367,-0.068 -0.41443,-0.069 -1.85259,-0.6624 -1.21121,-1.4049 0.58587,-0.6734 1.5726,-0.9041 2.23618,-1.506 0.85476,-0.7832 -0.13444,-2.7382 -0.39963,-3.5436 -0.60437,-1.8439 -1.21368,-3.6953 -1.90809,-5.5097 -0.61918,-1.617 -1.32839,-3.1735 -2.18931,-4.6783 -0.48104,-0.8387 -1.07431,-1.6195 -1.65771,-2.3891 -0.15665,-0.2011 -0.35523,-0.3935 -0.55998,-0.5859 -0.74004,-0.8486 -1.59234,-1.9476 -2.23248,-2.5211 -0.11347,-0.1024 -0.23928,0.072 -0.18748,0.1862 0.4391,0.9942 1.38636,2.0204 2.10914,2.8098 0.44157,0.4835 0.85723,0.9892 1.27166,1.4949 0.40456,0.613 0.79185,1.2383 1.14461,1.8834 1.0965,2.0105 1.86492,4.1369 2.60744,6.2941 0.36139,1.0533 0.71784,2.1054 1.06443,3.1613 0.15418,0.4637 0.30342,0.9312 0.44773,1.3999 0.29849,0.9596 0.30096,1.5553 -0.65247,2.1313 -1.21615,0.7327 -2.63458,1.4838 -1.16558,2.811 1.03113,0.93 3.08971,0.7339 4.25282,0.2405 1.4875,-0.6303 1.86369,-1.8415 1.64167,-3.3796 z"
/>
<path
d="m 58.6852699999999,33.0001999999999 c -1.0743,-0.8424 -2.39776,-0.9053 -3.63364,-0.4168 -1.39376,0.5538 -2.45203,1.5676 -3.46713,2.637 -1.27165,1.3383 -3.27596,3.1193 -5.29876,2.7579 -0.0802,-0.014 -0.13814,0.034 -0.15911,0.092 -0.0777,0.074 -0.10114,0.1949 0.002,0.2985 0.0123,0.011 0.0234,0.023 0.0345,0.034 0.0247,0.025 0.0518,0.042 0.0777,0.052 2.4286,1.8946 4.93243,3.1699 8.11218,2.9183 2.46806,-0.1949 5.59847,-1.7564 5.81925,-4.5192 0.11594,-1.4888 -0.28615,-2.9134 -1.4875,-3.8545 z"
id="path121"
/>
<path
d="m 32.36171,23.2834 c -2.75052,0.4502 -4.04437,3.1292 -3.70765,5.6749 0.17515,1.3297 0.76472,2.6026 1.46284,3.7299 0.36139,0.5846 0.84859,1.374 1.44926,1.9032 0.0284,-0.044 0.0629,-0.085 0.095,-0.1296 0.0308,0 0.0654,-0.01 0.09,-0.044 0.16528,-0.2429 0.4243,-0.3897 0.64138,-0.5821 0.0617,-0.053 0.1147,-0.111 0.16898,-0.1678 0,0 -10e-4,0.01 -10e-4,0.014 0.15048,-0.086 0.30712,-0.1628 0.47117,-0.2307 0.002,0 0.005,0 0.007,0 0.32315,-2.4767 2.86399,-4.2676 3.17604,-6.8158 0.29726,-2.436 -1.56767,-3.7262 -3.85319,-3.35 z"
id="path123"
/>
<path
id="path125"
style="fill:#9b6743"
d="m 40.5121,51.0722000000001 c 0.6205,4.3207 -3.4129,6.209 -5.1162,6.5865 -2.0068,0.444 -3.1378,-2.4298 -3.1378,-5.4258 0,-2.9948 1.4049,-5.4246 3.1378,-5.4246 1.733,0 4.4267,-0.5378 5.1162,4.2639 z"
/>
<path
id="path127"
d="m 40.4973,49.2283 c -0.122,-0.1825 -0.465,-0.07 -0.3737,0.1553 0.5612,1.3939 0.2603,3.1712 -0.3368,4.4983 -0.6586,1.4715 -1.8673,2.2941 -3.2118,3.0898 -1.3419,0.7955 -2.8442,1.2371 -4.3466,1.6231 -1.5726,0.4058 -3.1895,0.4712 -4.6955,-0.2022 -0.089,-0.038 -0.2245,0.053 -0.1518,0.1529 0.7624,1.0397 2.5421,0.9867 3.678,0.8203 1.9908,-0.285 4.0457,-0.914 5.7885,-1.9267 1.5715,-0.9126 2.801,-1.8859 3.5536,-3.5756 0.5709,-1.2804 0.9311,-3.3981 0.096,-4.6352 z"
/>
<path
id="path129"
d="m 32.0447,52.3462999999999 c -0.9645,-0.6537 -2.177,-1.0545 -3.3315,-1.1742 -0.7572,-0.081 -2.1386,-0.029 -2.5753,0.7167 -0.055,0.093 0.01,0.1775 0.093,0.1898 -0.039,0.4046 0.058,0.8314 0.099,1.2261 0.071,0.6833 0.014,1.3814 0.1456,2.0611 0.2171,1.1273 0.5415,2.5617 1.5147,3.3092 0.893,0.6895 2.373,0.3416 3.3759,0.1467 0.7869,-0.1491 1.5738,-0.2836 2.3546,-0.4588 0.2417,-0.057 0.6265,-0.099 0.8225,-0.2886 0.1592,0.1605 0.5193,0.092 0.5342,-0.2011 0.1,-2.1819 -1.2372,-4.3181 -3.0318,-5.5269 z"
/>
<path
id="path131-3"
d="m 48.1606,47.0427 c -0.3478,0.3009 -0.2481,0.8597 0.1541,1.0323 0.1369,0.091 0.3157,0.1332 0.4958,0.097 0.4071,-0.081 0.629,-0.5537 0.4626,-0.9188 -0.1937,-0.4181 -0.7783,-0.5021 -1.1125,-0.2109 z m 0.6586,0.5044 c 0.018,0.074 -0.084,0.1825 -0.1899,0.1887 -0.039,0 -0.078,-0.011 -0.111,-0.029 -0.06,-0.099 -0.081,-0.2257 0.018,-0.2823 0.1269,-0.075 0.2528,0 0.2836,0.122 z"
/>
<path
style="fill:none;stroke:#000000;stroke-width:0.61670786;stroke-miterlimit:10"
id="path133"
stroke-miterlimit="10"
d="m 48.4467,42.8453999999999 c 0.238,0.044 0.4959,0.2737 0.7055,0.423 0.2455,0.1765 0.4959,0.3774 0.6451,0.6439 0.3059,0.5464 0.5513,1.2211 0.5254,1.871 -0.058,1.3223 -0.041,1.3395 -0.6426,2.5778 -0.1419,0.2949 -0.4909,0.9412 -1.1273,1.5146 -0.4428,0.3665 -0.6587,0.5378 -1.0423,0.6612 -0.2763,0.089 -0.5908,0.091 -0.8967,0.1061 -0.3415,0.015 -0.7375,0.031 -1.0657,-0.02 -0.307,-0.044 -0.8633,-0.2319 -1.1705,-0.2752"
/>
<ellipse
ry="0.41196087"
cx="48.99316"
id="circle135"
cy="45.2271000000001"
style="fill:#ffffff"
rx="0.4119609"
/>
<path
id="path137"
style="fill:#ffffff"
d="m 49.0646,47.5261 c 0,0.2282 -0.1838,0.4132 -0.4108,0.4132 -0.2318,0 -0.4144,-0.185 -0.4144,-0.4132 0,-0.2281 0.1826,-0.4131 0.4144,-0.4131 0.2258,0 0.4108,0.185 0.4108,0.4131 z"
/>
<circle
id="path3769"
style="fill:none;fill-opacity:1;stroke:#000000;stroke-width:3.92156911;stroke-opacity:1"
cx="50"
cy="50"
inkscape:export-xdpi="8.8199997"
r="48.039215"
inkscape:export-ydpi="8.8199997"
/>
</svg>
