<?xml version="1.0" encoding="UTF-8" standalone="no"?>
<svg
xmlns="http://www.w3.org/2000/svg"
xmlns:rdf="http://www.w3.org/1999/02/22-rdf-syntax-ns#"
xmlns:dc="http://purl.org/dc/elements/1.1/"
xmlns:cc="http://creativecommons.org/ns#"
xmlns:svg="http://www.w3.org/2000/svg"
xmlns:inkscape="http://www.inkscape.org/namespaces/inkscape"
xmlns:sodipodi="http://sodipodi.sourceforge.net/DTD/sodipodi-0.dtd"
>
<path
d="m 100,49.99931 -37.2348,-7.75535 6.3682,-11.36648 -11.1636,6.73172 -7.9704,-37.6092 -7.9692,37.6092 -11.1636,-6.73172 6.3683,11.36648 -37.2349,7.75535 0,0 0,0 0,0 37.2349,7.75534 -6.3683,11.36537 11.1636,-6.73061 7.9695,37.61059 7.9704,-37.61059 11.1636,6.73061 -6.3682,-11.36537 37.2345,-7.75534 0,0 0,0 0,0 z m -50.0006,9.55896 c -5.2776,0 -9.5574,-4.27725 -9.5574,-9.55896 0,-5.2781 4.2798,-9.55786 9.5574,-9.55786 5.2832,0 9.5586,4.27976 9.5586,9.55786 0,5.28143 -4.2754,9.55896 -9.5586,9.55896 z"
style="fill:#4d4d4d;fill-opacity:1"
id="path4144"
/>
<path
style="fill:#ffcc00;fill-opacity:1"
id="path4147"
d="m 25.4625000000001,40.18839 c 2.6778,-6.66005 7.9776,-11.98371 14.6237,-14.68623 l 2.7602,-13.03594 c -15.3787,2.92196 -27.4891,15.04568 -30.393,30.43192 l 13.0091,-2.70975 z"
/>
<path
style="fill:#ff5a00;fill-opacity:1"
id="path4149"
d="m 74.6022,59.7954999999999 c -2.6777,6.70561 -8.0122,12.06149 -14.7011,14.7654 l -2.7608,13.02372 c 15.4223,-2.90503 27.5722,-15.06457 30.4532,-30.49637 l -12.9913,2.70725 z"
/>
<path
d="m 59.9091000000001,25.48438 c 6.6728,2.69891 11.9893,8.03451 14.6762,14.71512 l 13.0043,2.70836 c -2.9038,-15.40513 -15.0358,-27.54329 -30.4407,-30.44831 l 2.7602,13.02483 z"
style="fill:#008444;fill-opacity:1"
id="path4151"
/>
<path
style="fill:#0a6b9e;fill-opacity:1"
id="path4153"
d="m 40.0989999999999,74.54423 c -6.6723,-2.70863 -11.9807,-8.05395 -14.6534,-14.73901 l -12.9963,-2.70752 c 2.8816,15.41235 15.0097,27.56051 30.4105,30.47997 l -2.7608,-13.03344 z"
/>
</svg>
