<?xml version="1.0" encoding="UTF-8" standalone="no"?>
<svg
xmlns:svg="http://www.w3.org/2000/svg"
xmlns:cc="http://creativecommons.org/ns#"
xmlns:dc="http://purl.org/dc/elements/1.1/"
xmlns:rdf="http://www.w3.org/1999/02/22-rdf-syntax-ns#"
xmlns="http://www.w3.org/2000/svg"
xmlns:sodipodi="http://sodipodi.sourceforge.net/DTD/sodipodi-0.dtd"
xmlns:inkscape="http://www.inkscape.org/namespaces/inkscape"
>
<path
d="m 8.38559999999995,0.24411 c -3.2613,0.60002 -6.3041,3.59853 -7.7326,7.55646 L 0,9.63969 l 0,40.38236 0,40.38081 0.869,2.27975 c 1.0875,2.8782 3.4167,5.63765 5.5905,6.59706 1.522,0.6797 3.7892,0.72033 43.6964,0.72033 l 42.0811,0 1.7077,-1.03909 c 2.4845,-1.47973 3.88149,-3.23915 5.03079,-6.27673 l 1.0245,-2.6782 0,-39.9808 0,-39.9808 -1.0245,-2.6782 C 97.85769,4.36766 96.2422,2.44886 93.7577,0.96913 l -1.522,-0.91878 -41.1488,-0.0407 c -22.6396,-0.0453 -41.8626,0.0751 -42.7013,0.23438 z"
style="fill:#303030"
id="path4844"
/>
<path
id="path4531"
style="fill:#ffffff"
d="m 11.29914,94.969736 c 0.82674,-0.07674 1.22528,-0.203306 1.22528,-0.390696 0,-0.247264 -0.69674,-0.847141 -1.29498,-1.114868 -0.30316,-0.135664 -0.59074,-0.246696 -0.63906,-0.246696 -0.19738,0 -0.67441,-0.366728 -0.85165,-0.654635 -0.10408,-0.169011 -0.21912,-0.477191 -0.25568,-0.684666 -0.11072,-0.628676 -0.12151,-8.064414 -0.0132,-9.079619 0.22127,-2.073419 0.46821,-3.069297 1.19756,-4.830179 1.1725,-3.680657 1.34597,-4.757429 4.3165,-9.714643 0.43585,-0.179243 0.59481,-0.301454 1.00251,-0.77135 1.13429,-1.307185 2.30385,-2.554212 2.34957,-2.505043 0.13215,0.142106 0.26619,1.389985 0.26342,2.452463 -0.008,2.700675 -0.47439,5.501772 -1.45799,8.738849 l -0.48415,1.593292 c 0.0199,0.02195 -0.013,0.05779 -0.0195,0.08669 l 0.035,0.415328 c 0.0545,0.64573 0.2727,0.991142 2.91652,4.616831 2.01043,2.757139 2.55231,3.548574 3.93375,5.74591 1.11604,1.775187 1.24583,1.960777 1.92668,2.753538 0.72345,0.842404 0.90984,1.143858 0.96888,1.567144 0.0302,0.216948 0.11942,0.442897 0.21563,0.546255 0.15661,0.168443 1.99176,0.178769 3.638,0.228601 2.32168,0.07011 2.76296,-0.04453 2.76296,-0.723035 0,-0.346075 -0.25185,-0.620434 -0.67837,-0.739045 -0.17828,-0.04926 -0.39098,-0.110085 -0.47266,-0.134432 l -0.56239,-0.137464 c -0.47521,-0.09 -1.73176,-1.097531 -2.90618,-2.330537 -0.99552,-1.045236 -1.63396,-1.931882 -2.46681,-3.426078 -0.23475,-0.326796 -0.41413,-0.690037 -0.61628,-1.037941 l -0.12352,-0.239496 c -0.0679,-0.13178 -0.25592,-0.455118 -0.41778,-0.718582 -0.16186,-0.26337 -0.3291,-0.565013 -0.37162,-0.670266 l -0.0773,-0.19118 c -0.0175,0.01806 -0.0482,-0.01434 -0.0724,-0.0215 l -0.2981,-0.743404 c -0.61732,-1.53948 -0.93728,-3.114677 -0.85856,-4.226797 0.17162,-4.393078 0.94436,-9.246552 2.35262,-12.857457 0.80207,-1.357206 1.06679,-1.922693 1.06666,-2.278715 -6e-5,-0.201506 -0.38591,-1.099047 -0.59556,-1.385627 -0.0822,-0.112454 -0.19906,-0.387476 -0.25946,-0.611056 -0.13512,-0.500307 -0.33169,-2.154324 -0.33249,-2.797874 0.004,-0.184424 0.01,-0.375097 0.0149,-0.562645 l -0.0485,-0.459097 c -0.0266,-0.252474 -0.0384,-0.459096 -0.0259,-0.459096 0.055,0 0.52316,0.169958 1.20983,0.439486 2.60248,1.020983 4.67337,1.56468 7.57835,1.989577 2.21826,0.324475 3.48807,0.44356 5.60274,0.525318 2.26604,0.08716 1.98207,0.13718 2.92407,0.515371 0.69921,0.280705 1.63162,0.46658 2.85786,0.569559 0.35851,0.02937 0.66386,0.07674 0.67859,0.103548 0.0146,0.02747 -0.0528,0.533655 -0.1498,1.126426 -0.0971,0.592866 -0.26246,1.616786 -0.36737,2.2754 -0.59444,3.7317 -1.23575,6.606976 -1.81923,8.156309 -0.509,1.351711 -0.66874,1.954146 -0.68474,2.581875 -0.0143,0.562834 0.33911,2.685422 0.50909,3.05755 0.0561,0.12278 0.069,0.201411 0.0286,0.174601 -0.0479,-0.03126 -0.0539,0.277769 -0.0172,0.894414 0.0605,1.015489 0.0717,7.089095 0.0161,8.727386 l -0.0339,0.997962 0.24134,0.392876 c 0.28231,0.459665 0.29972,0.711477 0.0928,1.344416 -0.2559,0.782719 -0.1884,1.06911 0.31808,1.349722 0.28313,0.156695 2.34825,0.178674 3.85897,0.228696 0.91896,0.03032 2.00501,0.02653 2.41343,-0.0095 0.40843,-0.036 0.7651,-0.06632 0.7926,-0.06821 0.0276,0 0.1528,-0.09644 0.27847,-0.210127 0.31487,-0.284875 0.31016,-0.597792 -0.0129,-0.857278 -0.13276,-0.106579 -0.60893,-0.306664 -1.05821,-0.444696 -1.30538,-0.400644 -1.3258,-0.408981 -1.68067,-0.685898 -0.43775,-0.341528 -0.71849,-0.865804 -0.84735,-1.582491 -0.13633,-0.757993 -0.3278,-4.404904 -0.33407,-6.36246 -0.009,-2.501442 0.12852,-3.415562 0.7452,-4.989811 0.52207,-1.332669 0.59457,-1.642744 0.59459,-2.54199 0,-0.930415 0.09,-1.493817 0.56106,-3.513426 0.80493,-3.450995 -0.17491,-2.288282 0.88517,-4.616924 0.42531,-0.934204 0.93206,-4.080431 1.12612,-4.547296 l 0.35281,-0.848846 0.45182,0.190328 c 0.65059,0.274169 1.35256,0.743592 1.91357,1.279995 0.48984,0.468286 0.63631,0.633602 1.93124,2.180188 0.3846,0.459381 1.20051,1.411585 1.81315,2.115957 0.61265,0.704466 1.3144,1.531901 1.55945,1.838661 0.24507,0.306664 0.48578,0.603855 0.53492,0.660318 0.40494,0.464971 1.24558,1.766945 1.41529,2.191936 0.0477,0.119464 0.13951,0.442802 0.20407,0.718582 0.0645,0.275781 0.23621,0.757141 0.38152,1.069584 0.2201,0.473497 0.2706,0.679835 0.30291,1.237553 0.04,0.69035 -0.053,2.630854 -0.24601,5.140159 -0.0608,0.790393 -0.14034,2.550801 -0.17669,3.912081 -0.0895,3.352846 -0.17385,3.929891 -0.66161,4.527209 -0.2794,0.342097 -0.30603,0.727014 -0.0843,1.219364 0.21045,0.467244 0.53956,0.774477 1.2732,1.188194 0.35264,0.198854 2.77461,0.542939 3.09047,0.764719 0.87561,0.614372 1.16572,0.660793 1.91203,0.305244 0.3836,-0.182748 1.29707,-0.284519 1.31751,-0.677513 -0.31579,-1.009803 -1.14052,-1.310004 -1.82488,-1.858319 -0.6757,-0.557529 -0.65262,-0.457297 -0.67877,-2.949455 -0.0126,-1.210079 0.0132,-2.828855 0.0577,-3.597269 0.0443,-0.768509 0.10647,-2.492916 0.13791,-3.832217 0.0644,-2.74577 0.0529,-2.684759 0.66583,-3.497889 0.20894,-0.277106 0.40509,-0.600445 0.43586,-0.718487 0.089,-0.341339 0.0558,-2.236463 -0.0499,-2.849318 -0.12089,-0.700772 -0.45737,-1.284164 -1.24322,-2.155557 -0.68075,-0.754961 -2.7715,-3.464636 -3.41885,-4.431051 -1.37158,-2.047557 -3.9467,-3.474963 -4.97749,-6.325322 l -0.28085,-0.776561 0.39978,-0.375728 c 0.90387,-0.849414 1.41842,-1.53607 2.23688,-2.985455 0.11428,-0.202359 0.1281,-0.204917 1.88665,-0.345128 3.23269,-0.257686 5.13849,-0.490929 6.67261,-0.816825 1.408,-0.298991 3.57348,-1.044004 4.48071,-1.541659 0.14956,-0.08147 0.29825,-0.150443 0.33043,-0.152148 0.10433,-0.0095 1.18722,-0.662403 1.83181,-1.111458 1.41782,-0.987636 2.9052,-2.354884 3.6707,-3.374162 0.67597,-0.900156 1.93573,-2.959526 2.75409,-4.502275 1.31054,-2.470709 2.44391,-4.089589 3.19359,-4.561921 0.38048,-0.239732 2.25462,-1.064875 3.34319,-1.471952 2.00233,-0.748755 2.79852,-0.868276 3.28795,-0.493609 0.52467,0.401714 1.49177,0.545525 1.95107,0.290142 0.17669,-0.09822 0.21914,-0.173748 0.21914,-0.390128 0,-0.254161 0.0171,-0.271081 0.31557,-0.321008 0.54741,-0.09142 0.72401,-0.345961 0.72401,-1.04354 0,-0.318497 -0.0644,-0.617422 -0.22207,-1.02338 -0.12212,-0.315399 -0.27399,-0.787883 -0.33747,-1.049964 -0.0635,-0.262071 -0.17242,-0.545506 -0.24206,-0.629823 -0.18408,-0.222831 -0.67881,-0.446354 -0.99249,-0.448382 -0.20464,-9e-4 -0.36703,-0.08261 -0.65684,-0.328946 -0.66848,-0.568083 -0.84072,-0.616835 -2.50805,-0.709791 -2.10701,-0.117464 -2.22307,-0.147174 -3.71257,-0.949921 -1.22196,-0.658547 -1.5003,-0.727582 -2.93372,-0.727582 -1.17478,0 -1.17857,-5.3e-4 -1.48818,-0.228914 -0.51159,-0.3773 -1.06014,-0.656671 -1.1868,-0.604433 -0.18513,0.07645 -0.31179,0.568462 -0.18854,0.731997 0.0874,0.143416 -0.0238,0.03771 -0.0838,0.13273 0,0.06641 -0.13709,0.239155 -0.30468,0.383951 -0.42406,0.366283 -0.51216,0.590194 -0.51216,1.301122 0,0.796967 -0.095,0.985883 -1.48572,2.954002 -0.75773,1.072303 -1.0012,1.465008 -2.44418,3.942529 -2.04826,3.516751 -1.56819,2.708813 -2.0719,3.526365 -0.68048,0.795455 -0.87929,3.792288 -9.79068,1.269688 -1.3249,-0.375047 -3.11129,-2.28429 -3.94083,-2.871652 -0.98289,-1.2686 -0.67506,-0.987551 -1.69294,-2.264865 -1.40317,-1.254085 -2.09212,-2.531079 -2.58953,-3.527961 -0.11114,-0.222709 -0.4035,-0.670001 -0.64972,-0.993965 -0.39465,-0.519264 -1.10258,-1.849963 -1.10258,-2.072472 -0.18339,-0.389477 0,0 -0.25265,-0.676894 -0.54871,-1.242061 -1.17272,-2.615667 -1.98229,-3.747701 -0.3946,-0.381422 -1.10373,-0.693667 -1.62376,-0.714983 -0.15642,-0.0066 -0.26636,-0.04348 -0.24435,-0.08223 0.0221,-0.03875 -0.0664,-0.05381 -0.19656,-0.03325 -0.13013,0.02056 -0.25285,0.0085 -0.2727,-0.02548 -0.0198,-0.03458 -0.23563,-0.08716 -0.47942,-0.116754 -0.24382,-0.02965 -0.44331,-0.06575 -0.44331,-0.08015 0,-0.09889 0.3838,-3.478193 0.41856,-3.685497 l 0.0436,-0.259466 -0.49095,0 c -0.35004,0 -0.49096,0.02946 -0.49096,0.102439 0,0.244024 -0.44264,3.660089 -0.48345,3.731095 -0.0248,0.0432 -0.15949,0.07844 -0.29925,0.07844 -0.28356,0 -0.28785,-0.0097 -0.37191,-0.836871 -0.0737,-0.725005 -0.21607,-1.00989 -0.80846,-1.617572 -0.42972,-0.440813 -0.61178,-0.70494 -0.8731,-1.266751 -0.29187,-0.627502 -0.48304,-1.09972 -0.54591,-1.348509 -0.11953,-0.473052 -0.19746,-1.469053 -0.21546,-2.75441 -0.0186,-1.320202 -0.0459,-1.640035 -0.18,-2.104153 -0.2006,-0.693893 -0.19843,-0.781412 0.0248,-1.006943 0.16642,-0.168093 0.22561,-0.17984 0.64977,-0.129032 1.24799,0.149504 1.23987,0.149419 1.43116,0.01468 0.12057,-0.08498 0.18655,-0.205315 0.18655,-0.340372 0,-0.114935 0.0744,-0.369115 0.16532,-0.564852 0.15443,-0.33249 0.15696,-0.362436 0.0385,-0.455639 -0.11619,-0.09133 -0.11134,-0.107366 0.0574,-0.190052 0.15055,-0.07371 0.18436,-0.147563 0.18436,-0.402482 0,-0.293563 0.0155,-0.315314 0.25991,-0.364606 0.29258,-0.05902 0.30721,-0.120477 0.14572,-0.612571 -0.0838,-0.255525 -0.10095,-0.49234 -0.0643,-0.891629 0.0478,-0.5210549 0.0602,-0.5482919 0.29622,-0.6543599 0.21,-0.09436 0.26486,-0.178958 0.37142,-0.573065 0.0789,-0.291971 0.12274,-0.724371 0.1188,-1.173236 -0.009,-0.9258578 -0.14454,-1.1624167 -0.99463,-1.7248529 -1.59065,-1.0524267 -3.51204,-1.4141525 -4.58866,-0.8638712 -0.54428,0.2781865 -1.02889,0.7377665 -1.19662,1.134725 -0.23659,0.5600109 -0.14332,1.4378181 0.20491,1.9286711 l 0.1922,0.27092 -0.19706,0.571531 c -0.15856,0.459987 -0.2023,0.744388 -0.22406,1.4572479 -0.0354,1.160389 -0.0762,1.26317 -0.55217,1.394343 -0.87402,0.240831 -1.97341,1.310008 -2.78863,2.712005 -0.8627,1.483652 -1.80283,3.849687 -2.03556,5.122918 -0.14232,0.778731 -0.24047,2.481547 -0.21886,3.796557 l 0.021,1.282146 -0.31415,0.448818 c -0.52578,0.751191 -0.55715,1.425417 -0.0956,2.056585 0.11237,0.153692 0.2292,0.365269 0.25963,0.470181 l 0.0553,0.190734 -0.76943,-0.05078 c -0.4232,-0.02785 -2.18967,-0.07342 -3.92549,-0.101246 -2.90093,-0.04642 -5.01576,0.01431 -6.36452,0.182559 l -0.38662,0.04822 -1.05226,-1.725336 -1.05226,-1.725355 -0.21436,0.164104 -0.21436,0.164095 0.42335,0.852086 c 0.23286,0.468646 0.57908,1.161791 0.76943,1.540333 0.63715,1.267177 0.65091,1.312423 0.72572,2.385503 0.0383,0.548889 0.0634,1.006214 0.0558,1.016275 -0.009,0.01004 -0.61217,0.06395 -1.34353,0.119757 l -1.32974,0.101464 -0.0828,0.31935 c -0.0965,0.372241 0.0494,0.336497 -1.72722,0.423096 -1.35854,0.06622 -1.42119,0.08678 -1.42372,0.467595 -0.003,0.20684 0.17716,0.238131 1.74397,0.305745 0.5718,0.02463 1.22931,0.06518 1.46113,0.09 0.40069,0.04292 0.42086,0.05571 0.40843,0.257572 l -0.0132,0.21241 0.92222,0.03998 c 0.59923,0.02596 0.93214,0.07209 0.95053,0.131742 0.0155,0.0505 0.14621,0.25454 0.29033,0.453431 0.35056,0.483748 0.32523,0.717104 -0.0838,0.772071 -0.29568,0.03979 -0.29715,0.04168 -0.31967,0.419146 l -0.0225,0.379233 0.33826,0 0.33822,0 0,0.647899 c 0,0.644175 -0.003,0.649433 -0.2725,0.916251 -0.16915,0.166567 -0.57742,0.397793 -1.0763,0.609559 l -0.80379,0.341187 -0.003,0.678621 c -0.003,0.805125 -0.15664,1.65831 -0.39046,2.155624 -0.13087,0.278328 -0.30241,0.454161 -0.76138,0.780426 -0.38937,0.276823 -1.08877,0.950168 -2.04051,1.964529 -0.79643,0.848846 -1.66527,1.717691 -1.93075,1.930755 -0.66864,0.536629 -2.25497,2.217231 -2.53374,2.684285 -0.51756,0.867036 -1.04743,2.90995 -1.29038,4.974938 -0.21912,1.862345 -0.35253,2.3942 -0.7409,2.954002 -0.24576,0.354223 -0.45005,0.819383 -0.59085,1.34527 -0.0688,0.256927 -0.25671,0.833593 -0.41763,1.28151 -0.3338,0.929089 -0.45817,1.0837 -1.40802,1.749892 -0.56909,0.399127 -0.83584,0.644592 -0.98775,0.908814 -0.0282,0.04926 0.20119,-0.05116 0.50986,-0.222917 0.42606,-0.237032 0.64528,-0.311306 0.90998,-0.308559 l 0.34875,0 -0.44556,0.224148 c -0.24506,0.123159 -0.59593,0.372128 -0.77972,0.553266 l -0.33417,0.329212 0.41256,-0.148169 c 0.22691,-0.08147 0.56108,-0.172233 0.7426,-0.201885 0.18152,-0.02937 0.42194,-0.07295 0.53424,-0.09587 0.17145,-0.03505 0.20422,-0.01421 0.20422,0.129316 0,0.415044 -0.30001,0.662498 -0.92584,0.763393 -0.31766,0.05116 -0.43725,0.130358 -0.89013,0.589644 -0.57362,0.581592 -0.7369,0.675382 -1.44682,0.830751 -0.5596,0.122496 -0.51012,0.189286 0.2427,0.327697 l 0.53239,0.09786 -0.38661,0.212401 c -0.21267,0.116811 -0.65989,0.297191 -0.99387,0.400834 l -0.60725,0.188527 0.24379,0.09095 c 0.34833,0.130548 1.09288,0.112738 1.5634,-0.03695 0.86343,-0.275496 1.91651,-0.987636 2.71799,-1.838187 0.50799,-0.53915 0.58472,-0.669129 1.17974,-1.99943 0.5713,-1.277342 0.64368,-1.491258 0.70789,-2.092271 0.0853,-0.797783 0.15442,-1.130405 0.40051,-1.925156 l 0.18541,-0.598834 -0.0431,0.878214 c -0.0729,1.487754 -0.21206,2.030598 -0.9004,3.513141 -0.49399,1.063899 -0.72088,1.755386 -1.06079,3.233193 -0.37205,1.617354 -0.66925,2.528253 -1.19833,3.67249 -0.5414,1.171047 -1.93283,3.498457 -2.95061,4.935527 -0.83562,1.179858 -1.09916,1.583154 -1.28546,1.967409 -0.17847,0.368054 -0.1751,-0.338686 -0.036,7.587696 0.053,3.029792 0.073,5.850121 0.0441,6.267249 -0.0288,0.417128 -0.12283,0.986215 -0.20885,1.264553 -0.18725,0.605939 -0.19821,1.031973 -0.0368,1.432522 0.25862,0.641845 0.2573,0.784045 -0.0141,1.540049 -0.2796,0.778361 -0.32911,1.360237 -0.14032,1.650039 0.16626,0.255222 1.26222,0.339254 2.27926,0.339727 0.49833,0 2.31642,0.03316 2.51242,0.07484 0.61531,0.1278 0.78593,0.137748 1.39603,0.08147 z m 10.40713,-69.559565 c 0,-0.01516 0.0751,-0.09599 0.16708,-0.179641 l 0.16708,-0.152091 -0.14147,0.179631 c -0.13294,0.168813 -0.19269,0.215982 -0.19269,0.152101 z"
/>
</svg>
