<?xml version="1.0" encoding="UTF-8" standalone="no"?>
<svg
xmlns:cc="http://creativecommons.org/ns#"
xmlns:svg="http://www.w3.org/2000/svg"
xmlns:rdf="http://www.w3.org/1999/02/22-rdf-syntax-ns#"
xmlns="http://www.w3.org/2000/svg"
xmlns:dc="http://purl.org/dc/elements/1.1/"
xmlns:sodipodi="http://sodipodi.sourceforge.net/DTD/sodipodi-0.dtd"
xmlns:inkscape="http://www.inkscape.org/namespaces/inkscape"
>
<path
id="path3768-2"
style="fill:#c0c0c0;fill-opacity:1;stroke:#c0c0c0;stroke-width:1.60633218;stroke-opacity:1"
d="m 44.0675000000001,98.9434000000001 c -14.4792,-1.8086 -27.2229,-9.6561 -35.0882,-21.6071 -13.3898,-20.3451 -10.0456,-47.3603 7.8832,-63.6805 7.142,-6.5014 15.791,-10.6628 25.5997,-12.3174 3.0288,-0.5109 9.8438,-0.6962 12.8415,-0.3491 11.5946,1.3422 21.6792,6.1203 29.589,14.0195 7.2061,7.1963 11.4954,15.2983 13.6784,25.8363 0.5777,2.7894 0.6188,3.3775 0.6253,8.9562 0.01,6.4802 -0.1389,7.7605 -1.4813,12.9501 -3.3881,13.0969 -12.7421,24.7082 -24.9841,31.013 -4.8131,2.4788 -9.7697,4.067 -15.4783,4.9595 -3.2874,0.514 -9.9409,0.6247 -13.1852,0.2195 z"
/>
<path
style="fill:#000060;fill-opacity:1;stroke:#c0c0c0;stroke-width:1.28506577;stroke-opacity:1"
id="path4265"
d="m 45.2538999999999,89.4185 c -11.5833,-1.4468 -21.7782,-7.7249 -28.0705,-17.2857 -10.7119,-16.2761 -8.0364,-37.8882 6.3065,-50.9443 5.7137,-5.2011 12.6328,-8.5303 20.4799,-9.8539 2.423,-0.4087 7.8749,-0.557 10.273,-0.2794 9.2759,1.0738 17.3435,4.8964 23.6713,11.2156 5.7648,5.7572 9.1964,12.2387 10.9427,20.6692 0.4623,2.2314 0.4951,2.7019 0.5003,7.1649 0.01,5.1841 -0.1111,6.2084 -1.1851,10.36 -2.7104,10.4775 -10.1936,19.7666 -19.9872,24.8104 -3.8505,1.9831 -7.8157,3.2537 -12.3826,3.9676 -2.63,0.4112 -7.9527,0.4998 -10.5483,0.1756 z"
/>
<path
d="m 63.9928,16.5366 c -0.01,0.014 -0.011,0.027 -0.016,0.041 -0.041,0.042 -8.5362,8.6745 -13.7293,13.9599 0.098,6.4822 0.2154,19.3977 0.2162,19.4815 0,6e-4 -0.016,0.041 -0.016,0.041 0,0 0.016,-0.017 0.016,-0.017 0,1e-4 0,0.023 0,0.023 0,0 0.016,-0.04 0.016,-0.041 0.059,-0.06 9.1155,-9.2682 13.6897,-13.8624 -0.063,-7.4094 -0.176,-19.52 -0.1766,-19.579 0.01,-0.014 0.011,-0.027 0.016,-0.041 0,0 -0.016,0.016 -0.016,0.016 0,0 0,-0.023 0,-0.023 z"
id="path4192-9"
style="opacity:1;fill:#00a3e0;fill-opacity:1;stroke:#c0c0c0;stroke-width:0.82433283;stroke-linejoin:round;stroke-opacity:1"
/>
<path
id="path3364"
style="opacity:1;fill:#cb6015;fill-opacity:1;stroke:#c0c0c0;stroke-width:0.82433283;stroke-linejoin:round;stroke-opacity:1"
d="m 83.5563999999999,36.0553 c -0.013,0.01 -0.027,0.012 -0.04,0.017 -0.059,5e-4 -12.1698,0.098 -19.5791,0.163 -4.5141,4.6532 -13.5639,13.8685 -13.6227,13.9284 -10e-5,3e-4 -0.04,0.017 -0.04,0.017 0,0 0.023,-2e-4 0.023,-3e-4 -1e-4,0 -0.016,0.017 -0.016,0.017 0,0 0.04,-0.017 0.04,-0.017 0.084,-7e-4 12.9993,-0.108 19.4823,-0.1221 5.1944,-5.2841 13.6782,-13.9273 13.7195,-13.9693 0.013,-0.01 0.027,-0.012 0.041,-0.017 0,0 -0.023,0 -0.023,1e-4 0,-1e-4 0.016,-0.016 0.016,-0.016 z"
/>
<path
d="m 83.8032000000001,63.8910000000001 c -0.013,-0.01 -0.027,-0.011 -0.041,-0.016 -0.042,-0.041 -8.6745,-8.5363 -13.9598,-13.7294 -6.4822,0.098 -19.3977,0.2154 -19.4815,0.2162 -10e-5,1e-4 -0.041,-0.016 -0.041,-0.016 0,0 0.016,0.016 0.016,0.016 -10e-5,0 -0.023,4e-4 -0.023,4e-4 0,0 0.04,0.016 0.041,0.016 0.06,0.059 9.2682,9.1156 13.8623,13.6898 7.4094,-0.063 19.52,-0.1761 19.579,-0.1766 0.013,0.01 0.027,0.011 0.041,0.016 0,0 -0.016,-0.016 -0.016,-0.016 0,0 0.023,-10e-5 0.023,-10e-5 z"
style="opacity:1;fill:#ffcd00;fill-opacity:1;stroke:#c0c0c0;stroke-width:0.82433283;stroke-linejoin:round;stroke-opacity:1"
id="path3366"
/>
<path
id="path3368"
style="opacity:1;fill:#862633;fill-opacity:1;stroke:#c0c0c0;stroke-width:0.82433283;stroke-linejoin:round;stroke-opacity:1"
d="m 64.5768,83.9023999999999 c -0.01,-0.013 -0.012,-0.027 -0.017,-0.041 0,-0.059 -0.098,-12.1698 -0.1629,-19.5792 -4.6532,-4.5141 -13.8686,-13.5639 -13.9284,-13.6227 -10e-5,10e-5 -0.017,-0.04 -0.017,-0.04 0,0 0,0.023 0,0.023 0,-10e-5 -0.016,-0.016 -0.016,-0.016 0,0 0.017,0.04 0.017,0.04 0,0.084 0.1079,12.9993 0.122,19.4823 5.2841,5.1944 13.9273,13.6782 13.9693,13.7196 0.01,0.013 0.012,0.027 0.017,0.041 0,0 0,-0.023 0,-0.023 0,0 0.016,0.016 0.016,0.016 z"
/>
<path
id="path3370"
style="opacity:1;fill:#006747;fill-opacity:1;stroke:#c0c0c0;stroke-width:0.82433283;stroke-linejoin:round;stroke-opacity:1"
d="m 49.9146000000001,50.0796 c -0.013,0.01 -0.027,0.012 -0.041,0.017 -0.059,6e-4 -12.1698,0.098 -19.5792,0.163 -4.5141,4.6532 -13.5639,13.8686 -13.6227,13.9284 10e-5,10e-5 -0.04,0.017 -0.04,0.017 0,0 0.023,-2e-4 0.023,-3e-4 0,0 -0.016,0.017 -0.016,0.017 0,0 0.04,-0.017 0.04,-0.017 0.084,-7e-4 12.9993,-0.108 19.4823,-0.1221 5.1944,-5.284 13.6782,-13.9272 13.7196,-13.9693 0.013,-0.01 0.027,-0.012 0.04,-0.017 0,0 -0.023,10e-5 -0.023,10e-5 0,0 0.016,-0.016 0.016,-0.016 z"
/>
<path
id="path3374"
style="opacity:1;fill:#d50032;fill-opacity:1;stroke:#c0c0c0;stroke-width:0.82433283;stroke-linejoin:round;stroke-opacity:1"
d="m 36.4730999999999,83.9091000000001 c 0.01,-0.013 0.011,-0.027 0.016,-0.041 0.041,-0.042 8.5363,-8.6745 13.7294,-13.9598 -0.098,-6.4823 -0.2155,-19.3977 -0.2162,-19.4816 -1e-4,0 0.016,-0.041 0.016,-0.041 0,0 -0.016,0.017 -0.016,0.017 0,0 0,-0.023 0,-0.023 0,0 -0.016,0.04 -0.016,0.041 -0.059,0.06 -9.1155,9.2682 -13.6897,13.8623 0.063,7.4094 0.176,19.5201 0.1766,19.5791 -0.01,0.013 -0.011,0.027 -0.016,0.041 0,0 0.016,-0.016 0.016,-0.016 0,0 0,0.023 0,0.023 z"
/>
<path
style="opacity:1;fill:#003c71;fill-opacity:1;stroke:#c0c0c0;stroke-width:0.82433283;stroke-linejoin:round;stroke-opacity:1"
id="path3376"
d="m 50.1614,49.7988 c -0.013,-0.01 -0.027,-0.011 -0.041,-0.016 -0.042,-0.041 -8.6744,-8.5362 -13.9598,-13.7293 -6.4822,0.098 -19.3976,0.2154 -19.4815,0.2161 0,2e-4 -0.041,-0.016 -0.041,-0.016 0,0 0.017,0.016 0.017,0.016 -10e-5,0 -0.023,3e-4 -0.023,3e-4 0,0 0.04,0.016 0.041,0.016 0.06,0.059 9.2682,9.1156 13.8623,13.6897 7.4094,-0.063 19.52,-0.176 19.579,-0.1766 0.013,0.01 0.027,0.011 0.041,0.016 0,0 -0.016,-0.016 -0.017,-0.016 0,0 0.023,0 0.023,0 z"
/>
<path
style="opacity:1;fill:#ffd100;fill-opacity:1;stroke:#c0c0c0;stroke-width:0.82433283;stroke-linejoin:round;stroke-opacity:1"
id="path3378"
d="m 50.1208999999999,50.0590999999999 c -0.01,-0.013 -0.011,-0.027 -0.017,-0.04 0,-0.059 -0.098,-12.1698 -0.1629,-19.5792 -4.6532,-4.5141 -13.8686,-13.564 -13.9284,-13.6227 -10e-5,1e-4 -0.017,-0.04 -0.017,-0.04 0,0 0,0.023 0,0.023 0,-10e-5 -0.017,-0.016 -0.017,-0.016 0,0 0.017,0.04 0.017,0.04 0,0.084 0.108,12.9993 0.1221,19.4823 5.284,5.1944 13.9272,13.6783 13.9693,13.7196 0.01,0.013 0.012,0.027 0.017,0.041 0,0 0,-0.023 0,-0.023 0,10e-5 0.016,0.016 0.016,0.016 z"
/>
</svg>
