<?xml version="1.0" encoding="UTF-8" standalone="no"?>
<svg
xmlns:sodipodi="http://sodipodi.sourceforge.net/DTD/sodipodi-0.dtd"
xmlns:inkscape="http://www.inkscape.org/namespaces/inkscape"
xmlns:svg="http://www.w3.org/2000/svg"
xmlns:cc="http://creativecommons.org/ns#"
xmlns:dc="http://purl.org/dc/elements/1.1/"
xmlns="http://www.w3.org/2000/svg"
xmlns:rdf="http://www.w3.org/1999/02/22-rdf-syntax-ns#"
>
<ellipse
ry="48.521877"
cx="50"
style="fill:#ffffff;fill-opacity:1;stroke:#000000;stroke-width:2.95624232;stroke-opacity:1"
id="ellipse4301-5"
cy="50"
rx="48.521881"
/>
<path
d="m 60.5873999999999,59.3634999999999 c 0.083,-0.092 3.6069,-0.1872 7.8298,-0.2119 8.43,-0.049 9.6014,-0.2104 11.0422,-1.5171 1.6879,-1.5308 1.3926,-3.9655 -0.646,-5.3269 -0.6093,-0.4069 -1.1113,-0.8188 -1.1156,-0.9152 0,-0.097 0.3705,-0.7938 0.8328,-1.5496 1.7323,-2.8323 1.7899,-5.8237 0.1844,-9.5816 -0.5637,-1.3196 -1.0249,-2.4431 -1.0249,-2.4968 0,-0.2337 0.8494,-0.059 2.1442,0.4423 1.8464,0.7139 2.4754,0.6953 2.7438,-0.081 0.7695,-2.2271 -1.7526,-4.6427 -5.6061,-5.3697 -1.1495,-0.217 -1.7386,-0.4579 -1.8136,-0.7418 -0.061,-0.2313 -0.1842,-0.6147 -0.2736,-0.852 -0.1387,-0.3682 0.1411,-0.4572 1.9064,-0.6065 2.9528,-0.2497 5.1248,-1.0525 6.4306,-2.3768 1.2812,-1.2994 1.6725,-2.4598 1.535,-4.5519 -0.1589,-2.4166 -0.8363,-3.2972 -4.7806,-6.2148 -1.8645,-1.3794 -3.7765,-2.8382 -4.2486,-3.242 -2.0966,-1.7927 -3.9833,-1.6568 -6.1023,0.4394 -2.7898,2.7597 -5.9186,10.3633 -5.9186,14.3833 0,1.1499 -0.3275,2.3576 -1.5837,5.8399 -1.9562,5.4229 -2.5868,8.0053 -2.5868,10.5927 0,1.9225 -0.044,2.0716 -1.3371,4.4884 -0.7354,1.375 -1.867,3.0446 -2.5146,3.7102 -1.1857,1.2189 -1.6782,1.4934 -5.4482,3.0372 -2.9948,1.2266 -3.2964,2.178 -0.8316,2.624 1.3956,0.2526 10.9634,0.3196 11.1827,0.078 z"
style="fill:#000000;fill-opacity:1;stroke:#000000;stroke-width:0.25732875;stroke-opacity:1"
id="path4313-0"
/>
<path
id="path4315-5"
style="fill:#ed6a00;fill-opacity:1;stroke:none;stroke-opacity:1"
d="m 49.2327,58.2363 c 0,-0.1179 1.113,-0.6262 2.4735,-1.1294 3.852,-1.4249 4.9403,-2.4501 7.4224,-6.9926 1.2249,-2.2415 1.3671,-2.6507 1.2355,-3.5561 -0.3083,-2.121 0.3647,-5.0526 2.6522,-11.5527 1.1518,-3.2728 1.4755,-4.5236 1.5371,-5.9406 0.09,-2.0638 1.149,-5.7907 2.5004,-8.7977 1.7548,-3.905 3.9605,-6.3535 5.723,-6.3535 0.7824,0 1.576,0.4721 4.826,2.8707 4.7115,3.4771 5.8353,4.6006 6.2012,6.1993 0.4162,1.8188 0.022,3.2692 -1.2227,4.4934 -1.3108,1.2895 -2.8199,1.7876 -6.3632,2.1003 -1.5516,0.1368 -2.8509,0.2517 -2.8874,0.2552 -0.036,0 0.1567,0.4875 0.4293,1.0754 0.6718,1.4488 0.6375,1.5847 -0.4243,1.6815 -0.6204,0.056 -0.92,0.2156 -0.92,0.4886 0,0.326 0.5254,0.4348 2.6986,0.5583 2.061,0.1173 3.0031,0.3006 3.9882,0.7764 1.4019,0.677 2.7582,2.149 2.7582,2.9935 0,0.6414 0.1495,0.644 -1.4506,-0.025 -0.7303,-0.3054 -1.779,-0.57 -2.3306,-0.588 -1.7483,-0.057 -6.0318,0.4053 -6.0318,0.6509 0,0.4705 1.1449,0.6969 2.8472,0.5629 l 1.7386,-0.1368 1.1234,2.5746 c 0.6179,1.4161 1.1936,3.1012 1.2793,3.7447 0.2012,1.5114 -0.5763,4.3339 -1.5449,5.6091 l -0.7066,0.9302 -0.4448,-1.5562 c -0.5502,-1.9247 -1.6308,-3.6103 -2.4614,-3.8397 -0.9042,-0.2498 -1.0688,0.1156 -0.3568,0.7919 1.0557,1.0024 1.6803,2.1916 2.1571,4.1064 0.4434,1.7815 0.4958,1.8604 1.4745,2.2193 1.393,0.5109 2.4994,1.6948 2.4994,2.6743 0,1.1272 -0.5776,1.8644 -1.9009,2.4262 -1.0249,0.4349 -1.9497,0.4948 -7.657,0.4948 l -6.4914,0 -0.2262,-0.8658 c -0.1629,-0.6235 -0.1207,-1.2181 0.1505,-2.1246 0.3744,-1.2511 0.3715,-1.2706 -0.4581,-3.1754 -0.4592,-1.0542 -0.8348,-2.3238 -0.8348,-2.8213 0,-0.7157 -0.09,-0.8859 -0.4294,-0.8151 -0.7522,0.157 -0.6489,1.4712 0.2862,3.6377 0.6702,1.5527 0.8177,2.1425 0.6315,2.5253 -0.1337,0.2748 -0.243,1.2287 -0.243,2.1198 l 0,1.6201 -0.7973,0.1089 c -1.5367,0.2098 -12.4501,0.1931 -12.4501,-0.019 z"
/>
<path
d="m 73.1483000000001,19.1424 c 0.2198,-0.2419 0.338,-0.6162 0.2628,-0.8319 -0.075,-0.2157 -0.1368,-0.443 -0.1368,-0.505 0,-0.3413 -1.4404,-0.053 -1.5683,0.3141 -0.1993,0.5714 -0.2032,0.5544 0.2366,1.0383 0.487,0.5359 0.7071,0.533 1.2057,-0.015 z"
style="fill:#000000;fill-opacity:1;stroke:#000000;stroke-width:0.5146575;stroke-opacity:1"
id="path4317-3"
/>
<path
d="m 68.1203,73.7474999999999 c 0.4661,-0.2185 0.6469,-0.482 0.6435,-0.9383 0,-0.46 0.095,-0.6013 0.3576,-0.5135 0.8513,0.2843 5.1207,0.3639 6.6036,0.123 1.4887,-0.2419 1.5668,-0.2347 1.9696,0.1812 0.8409,0.8682 1.8141,1.1256 4.293,1.1355 2.6151,0.01 3.8265,-0.3583 4.0599,-1.2356 0.1713,-0.6444 0.1117,-0.8786 -0.3871,-1.5195 -0.2247,-0.2888 -0.5655,-0.9253 -0.7571,-1.4145 -0.1917,-0.4891 -0.645,-1.325 -1.0073,-1.8574 l -0.6586,-0.9679 0.8449,-1.7755 c 1.1911,-2.503 2.0919,-5.8863 2.6486,-9.9475 l 0.4786,-3.4913 1.1767,0 c 1.6699,0 2.9501,-0.3662 3.559,-1.0251 0.4363,-0.4719 0.4895,-0.7287 0.3148,-1.5189 -0.5256,-2.3763 -4.1925,-5.2009 -7.2531,-5.587 -0.8167,-0.103 -1.2102,-0.023 -2.0947,0.4261 -1.3768,0.6991 -1.633,1.3257 -2.1369,5.2285 -0.4556,3.5277 -1.0107,5.7462 -1.6163,6.4596 -0.5265,0.6204 -0.9407,0.5658 -3.2905,-0.4333 -2.3794,-1.0119 -4.6993,-1.3985 -7.5939,-1.2657 -5.9907,0.2749 -9.3993,2.4335 -11.054,7.0004 -1.0952,3.0222 -1.7106,4.1388 -3.1567,5.7276 -1.2283,1.3494 -1.8132,1.8271 -4.4673,3.6478 -1.335,0.9158 -1.7077,1.5695 -1.2351,2.1659 0.5327,0.6722 1.1465,0.8398 3.0841,0.8422 2.011,0 7.685,-0.501 8.6593,-0.7684 0.5237,-0.1436 0.7295,-0.085 1.3317,0.3826 1.2508,0.9703 5.3783,1.5492 6.6837,0.9373 z"
style="fill:#000000;fill-opacity:1;stroke:#000000;stroke-width:0.21188527;stroke-opacity:1"
id="path4321-0"
/>
<path
style="fill:#018650;fill-opacity:1;stroke:none;stroke-opacity:1"
id="path4323-8"
d="m 63.7982999999999,72.9872 c -1.8582,-0.3515 -2.2828,-0.7531 -2.7722,-2.6226 -0.3205,-1.2242 -0.4794,-1.5609 -0.7372,-1.5613 -0.2528,-4e-4 -0.2738,0.3147 -0.091,1.3649 l 0.2376,1.3654 -0.9831,0.2154 c -1.5341,0.3362 -7.9552,0.885 -9.0367,0.7724 -2.0666,-0.2153 -1.9063,-0.7077 0.781,-2.3994 1.3269,-0.8352 2.2795,-1.7035 3.7035,-3.3759 1.6721,-1.9635 2.0191,-2.5396 2.7134,-4.5045 0.9796,-2.7722 1.7951,-4.1966 2.917,-5.0947 2.5204,-2.0179 6.7285,-3.0465 10.5471,-2.5784 2.0587,0.2525 2.8893,0.4801 5.2129,1.4283 1.8299,0.7468 2.7434,0.8043 3.4149,0.2152 0.6863,-0.6022 1.4186,-3.284 1.9012,-6.9626 0.4849,-3.696 0.6244,-4.1078 1.5845,-4.6776 1.5192,-0.9016 3.8652,-0.2601 6.2067,1.6975 1.658,1.386 2.2877,2.3504 2.0968,3.2114 -0.1815,0.8192 -1.1661,1.2294 -3.2851,1.3683 l -1.8067,0.1184 -0.4187,3.3009 c -0.6272,4.9446 -1.7672,8.9618 -3.2506,11.4537 l -0.544,0.9139 0.8973,1.1813 c 0.4935,0.6496 0.9652,1.488 1.0481,1.8629 0.083,0.3749 0.3926,1.0128 0.6882,1.4176 0.6549,0.897 0.5374,1.3219 -0.4634,1.6743 -1.0988,0.387 -4.2533,0.3277 -5.257,-0.099 -0.7959,-0.3383 -0.9141,-0.4901 -1.9936,-2.5582 -1.1751,-2.2513 -1.7283,-2.9674 -1.8392,-2.3807 -0.032,0.1702 0.294,0.9912 0.7248,1.8244 0.4307,0.8332 0.7979,1.5816 0.816,1.6632 0.1087,0.4914 -4.3642,0.7679 -7.0143,0.4336 -1.0675,-0.1346 -1.0694,-0.1361 -1.1024,-0.8257 -0.018,-0.38 0.2348,-1.0764 0.5619,-1.5473 0.6843,-0.9854 0.9133,-2.2982 0.4621,-2.6485 -0.2078,-0.1614 -0.384,0.083 -0.6325,0.8765 -0.1894,0.6052 -0.5537,1.3767 -0.8094,1.7144 -0.3474,0.4588 -0.453,1.0031 -0.4172,2.1512 0.026,0.8454 -0.042,1.6047 -0.1528,1.6874 -0.3022,0.2264 -2.5385,0.1828 -3.908,-0.076 z"
/>
<path
d="m 85.2263,47.038 c 0.3764,-0.2559 0.01,-0.9455 -0.5075,-0.9463 -0.3141,-4e-4 -0.4046,0.1372 -0.3256,0.4948 0.121,0.5467 0.4394,0.7192 0.8331,0.4515 z"
style="fill:#000000;fill-opacity:1;stroke:#000000;stroke-width:0.42377055;stroke-opacity:1"
id="path4325-6"
/>
<path
style="fill:#000000;fill-opacity:1;stroke:#000000;stroke-width:0.18961371;stroke-opacity:1"
id="path4329-3"
d="m 53.6378,51.6265000000001 c -0.1869,-0.773 -1.5752,-3.4143 -3.8787,-7.3792 -1.1429,-1.9673 -1.7239,-3.1551 -1.9212,-3.9278 -0.2336,-0.9146 -0.2322,-1.1014 0.01,-1.072 0.5525,0.068 0.6468,10e-4 0.6043,-0.4276 -0.028,-0.2787 -0.4199,-0.7322 -1.114,-1.2878 -0.9419,-0.754 -1.0443,-0.8949 -0.8476,-1.1658 0.128,-0.1763 0.1595,-0.6206 0.074,-1.0382 -0.083,-0.4015 -0.095,-0.7465 -0.027,-0.7667 0.068,-0.02 0.5066,0.028 0.9747,0.1076 0.4681,0.079 1.1545,0.1173 1.5255,0.084 0.5723,-0.051 0.7236,-0.1543 0.9998,-0.6845 0.1939,-0.3722 0.2727,-0.8427 0.195,-1.1638 -0.18,-0.7438 -1.3926,-2.277 -3.2158,-4.0659 -1.8597,-1.8246 -2.7746,-2.992 -2.9697,-3.7888 -0.2127,-0.8689 -0.7601,-1.7134 -1.5267,-2.3554 -0.3698,-0.3098 -0.6955,-0.6585 -0.7236,-0.7749 -0.3475,-1.4373 -5.6088,-4.3314 -7.08,-3.8946 -0.6723,0.1997 -0.4526,0.7223 1.0168,2.4185 0.7972,0.9202 1.4664,1.7433 1.4871,1.8291 0.021,0.086 -0.2261,0.4194 -0.5485,0.7416 -1.1867,1.1855 -1.7284,3.7549 -1.0985,5.2104 0.4115,0.951 0.06,0.825 -0.5782,-0.2074 -0.3118,-0.5041 -1.0377,-1.5163 -1.6131,-2.2493 -0.5754,-0.7329 -1.1114,-1.6022 -1.1911,-1.9318 -0.1449,-0.5994 -1.5522,-2.2722 -2.348,-2.7908 -0.4851,-0.3161 -0.9452,-0.034 -0.8159,0.5012 0.078,0.3224 0.01,0.375 -0.5342,0.399 -0.7973,0.035 -0.5008,0.1363 -5.2055,-1.7736 -4.899,-1.9887 -6.0969,-2.3913 -6.3971,-2.1496 -0.3498,0.2816 -0.2103,0.5285 0.6451,1.1418 0.8974,0.6436 1.1737,1.0256 1.8206,2.517 0.5269,1.2151 1.9901,7.1773 2.2304,9.0887 0.087,0.6905 0.2239,1.2774 0.3046,1.3042 0.081,0.027 0.5289,0.4238 0.9958,0.8822 0.97,0.9522 2.1618,2.7775 2.8949,4.4339 0.468,1.0575 0.4853,1.1715 0.2521,1.6664 -0.1376,0.2923 -0.4608,1.2623 -0.718,2.1557 -0.6564,2.2791 -1.475,3.2595 -4.4242,5.2992 -0.9226,0.6381 -1.7927,1.3775 -1.9335,1.6434 -0.2561,0.4831 -0.2561,0.4831 0.1618,0.6693 0.3196,0.1423 0.6535,0.083 1.4197,-0.2518 l 1.0017,-0.4378 -0.319,0.7555 c -0.6782,1.6062 0.1065,1.6929 1.7588,0.1943 0.4517,-0.4097 0.851,-0.7537 0.8873,-0.7645 0.036,-0.011 0.1589,0.365 0.2726,0.835 0.1695,0.7016 0.2783,0.8584 0.6068,0.875 0.544,0.028 1.1205,-0.812 1.1824,-1.7217 0.027,-0.3952 -0.057,-1.1754 -0.1861,-1.7337 -0.242,-1.0461 -0.162,-1.2025 0.5243,-1.0247 0.2136,0.055 1.0796,-0.071 1.9244,-0.2806 2.2485,-0.5579 2.4623,-0.5361 2.5678,0.262 0.077,0.5796 -0.01,0.7361 -0.725,1.3464 -0.8279,0.7046 -1.4817,1.7665 -1.4192,2.3055 0.1035,0.8938 0.2897,1.1539 0.732,1.0226 0.2455,-0.073 0.5761,-0.2674 0.7346,-0.4322 0.272,-0.2825 0.3063,-0.2248 0.6073,1.0203 0.3266,1.3507 0.8072,2.0715 1.1286,1.6931 0.093,-0.1092 0.2447,-0.5637 0.3378,-1.0102 0.1476,-0.708 0.1945,-0.7665 0.3671,-0.4574 0.8971,1.6067 1.2787,2.1052 1.5914,2.0786 0.1889,-0.016 0.3838,-0.1666 0.4332,-0.3345 0.049,-0.1679 -0.2667,-1.5548 -0.7023,-3.0819 -0.8229,-2.8854 -1.1162,-4.6134 -0.7991,-4.7075 0.4162,-0.1237 3.0843,1.1696 5.4581,2.6458 2.209,1.3736 2.6412,1.5676 3.4129,1.5322 1.9606,-0.09 4.7934,0.61 9.2088,2.2752 2.7127,1.023 2.712,1.0229 2.5128,0.1989 z"
/>
<path
d="m 49.2353000000001,50.0645 c -2.5719,-0.8833 -5.6053,-1.5564 -6.9413,-1.5401 -1.0426,0.013 -1.2951,-0.093 -3.398,-1.4292 -1.2495,-0.7934 -2.904,-1.7119 -3.6768,-2.0407 l -1.405,-0.5979 0.6895,-0.4334 c 0.3793,-0.2383 0.9625,-0.693 1.296,-1.0102 0.7386,-0.7026 2.1969,-3.458 2.4289,-4.5896 0.093,-0.4539 0.2381,-0.8457 0.3223,-0.8707 0.084,-0.025 1.0345,0.308 2.1119,0.7399 2.5749,1.0323 2.4971,0.9504 8.8477,9.2982 2.3566,3.098 2.6057,3.4865 2.1213,3.3093 -0.3019,-0.1103 -1.3804,-0.4864 -2.3965,-0.8356 z"
id="path4331-8"
style="fill:#800080;stroke:none;stroke-opacity:1"
/>
<path
d="m 42.1994,45.4100000000001 c 0.4698,-1.4371 0.8448,-3.1889 0.7021,-3.2801 -0.049,-0.032 -0.363,0.9657 -0.6971,2.216 -0.6725,2.5168 -0.6753,3.1146 -0.01,1.0641 z"
style="fill:none;stroke:#000000;stroke-width:0.18961371;stroke-opacity:1"
id="path4333-2"
/>
<path
style="fill:#800080;stroke:none;stroke-opacity:1"
id="path4335-0"
d="m 48.7937999999999,45.6655000000001 c -5.0261,-6.6295 -5.4104,-7.0045 -8.2892,-8.0908 -2.129,-0.8035 -2.0039,-0.6548 -1.8389,-2.1819 0.079,-0.7297 0.1629,-1.3689 0.1868,-1.4205 0.07,-0.1513 2.3021,0.9314 4.0833,1.9807 0.9059,0.5336 1.9261,1.008 2.2673,1.0541 0.3412,0.046 1.0115,0.395 1.4896,0.7754 0.8848,0.7038 0.8042,0.748 -0.4037,0.2211 -0.7963,-0.3473 -0.8101,-0.2371 -0.067,0.5382 0.3005,0.3137 0.4244,0.5298 0.2753,0.4801 -0.2083,-0.069 -0.2194,0.01 -0.048,0.3393 0.9258,1.7796 2.1241,3.9648 3.8396,7.002 1.8895,3.345 2.2177,3.9776 1.9879,3.8306 -0.053,-0.034 -1.6209,-2.072 -3.4831,-4.5283 z"
/>
<path
d="m 33.173,50.9586999999999 c -0.5493,-0.9785 -0.8721,-1.3255 -1.6565,-1.7814 -1.0881,-0.6322 -1.0945,-0.6325 -1.6082,-0.068 -0.5106,0.561 -0.6427,0.5723 -0.6979,0.059 -0.058,-0.5447 0.7163,-1.5634 1.637,-2.1522 0.616,-0.3938 0.6722,-0.4992 0.5473,-1.0264 -0.201,-0.8484 -0.051,-1.2107 0.506,-1.2205 0.4447,-0.01 0.4688,0.032 0.4622,0.769 0,0.4685 0.3101,1.935 0.7913,3.6918 0.4392,1.603 0.7766,2.921 0.7498,2.929 -0.027,0.01 -0.3557,-0.5323 -0.731,-1.2006 z"
style="fill:#800080;stroke:none;stroke-opacity:1"
id="path4337-8"
/>
<path
id="path4339-8"
style="fill:#800080;stroke:none;stroke-opacity:1"
d="m 31.2172,50.6667 c -0.1689,-0.6984 -0.169,-0.9758 -10e-5,-0.9646 0.3426,0.023 0.5287,0.5599 0.4431,1.28 -0.041,0.3441 -0.1039,0.6345 -0.1402,0.6452 -0.036,0.011 -0.1725,-0.4215 -0.3028,-0.9606 z"
/>
<path
d="m 23.3633,47.4888000000001 c -0.7269,-0.1643 -1.1278,-0.12 -2.2164,0.245 -0.7309,0.2451 -1.2872,0.3733 -1.2363,0.2849 0.051,-0.088 0.739,-0.6044 1.5291,-1.147 1.4774,-1.0147 2.9242,-2.3379 3.6288,-3.319 0.2203,-0.3065 0.5252,-1.0815 0.6776,-1.7221 0.3808,-1.6003 1.5812,-4.5434 2.5143,-6.165 0.9757,-1.6954 2.5452,-3.2034 3.9579,-3.8029 0.5813,-0.2468 1.0473,-0.4885 1.0356,-0.5371 -0.1128,-0.4665 -2.2259,-4.0318 -2.7005,-4.5562 -0.6605,-0.73 -4.0277,-2.923 -8.8981,-5.7954 -1.6664,-0.9827 -3.0134,-1.826 -2.9932,-1.8737 0.02,-0.048 1.482,0.4945 3.2486,1.2051 4.2711,1.7183 7.5671,2.9954 7.6597,2.9679 0.041,-0.012 -0.01,-0.1143 -0.1064,-0.2266 -0.1,-0.1125 0.1866,0.012 0.6366,0.2759 0.6287,0.3691 0.7737,0.3978 0.6262,0.124 -0.1056,-0.1959 -0.3041,-0.6021 -0.4411,-0.9024 -0.1954,-0.428 -0.192,-0.496 0.015,-0.3146 0.6338,0.5541 1.3036,1.503 1.4301,2.0261 0.075,0.3117 0.4811,0.9794 0.9019,1.484 0.4208,0.5046 1.3325,1.778 2.0261,2.8297 0.6936,1.0519 1.3059,1.8263 1.3607,1.7211 0.2816,-0.5405 0.3853,-1.9361 0.1635,-2.1983 -0.1466,-0.1732 -0.2558,-0.6844 -0.2855,-1.3362 -0.058,-1.2803 0.5455,-2.726 1.4935,-3.5748 0.3583,-0.3209 0.634,-0.6557 0.6127,-0.7437 -0.079,-0.3264 -0.9901,-1.5191 -1.9764,-2.5871 -0.5587,-0.605 -0.9897,-1.1504 -0.9576,-1.212 0.097,-0.1869 2.3556,0.6053 3.5974,1.262 1.1534,0.61 2.516,1.806 2.6394,2.3165 0.035,0.1445 0.3662,0.5161 0.7361,0.826 0.7646,0.6403 1.3121,1.4837 1.5287,2.3547 0.2039,0.8198 0.8827,1.6887 2.9795,3.8137 2.2026,2.2322 3.1327,3.4429 3.1419,4.0897 0.01,0.6671 -0.3064,0.8581 -1.3538,0.8179 -1.5207,-0.059 -2.8225,-0.5384 -4.0392,-1.4887 -2.9532,-2.307 -3.1292,-2.399 -1.3726,-0.7173 0.9516,0.9109 1.9753,1.8463 2.275,2.0785 0.6195,0.4803 1.0912,1.8817 0.6749,2.0054 -0.5419,0.161 -3.5894,-2.3452 -5.0195,-4.1278 -0.5109,-0.6371 -3.2268,-2.3566 -3.3496,-2.1208 -0.056,0.108 0.1412,0.3957 0.4389,0.6392 l 0.5412,0.4428 -0.1812,2.5943 c -0.2497,3.5757 -0.5465,4.9582 -1.4738,6.8644 -1.3993,2.8768 -2.636,3.6759 -6.1083,3.9472 -1.0872,0.085 -2.4769,0.3029 -3.0883,0.4845 -1.1022,0.3273 -1.6376,0.2433 -1.1174,-0.1755 0.1487,-0.1197 0.7483,-0.414 1.3325,-0.654 1.0222,-0.4198 1.2962,-0.7414 0.6918,-0.8117 -0.4339,-0.051 -2.1461,0.89 -3.0342,1.6667 -0.7655,0.6696 -0.7791,0.7038 -0.5187,1.3056 0.4006,0.9257 0.4807,2.2888 0.1724,2.9355 l -0.2735,0.5737 -0.3194,-0.9357 c -0.3038,-0.8897 -0.3632,-0.9457 -1.2071,-1.1364 z"
style="fill:#800080;stroke:none;stroke-opacity:1"
id="path4341-6"
/>
<path
d="m 41.7092,25.9371000000001 c 0.1777,-0.3412 -0.1457,-1.0534 -0.5226,-1.1511 -0.5702,-0.1477 -1.0386,0.7515 -0.6381,1.225 0.2647,0.313 0.983,0.2672 1.1607,-0.074 z"
style="fill:#000000;fill-opacity:1;stroke:#000000;stroke-width:0.18961371;stroke-opacity:1"
id="path4343-3"
/>
<path
style="fill:#800080;stroke:none;stroke-opacity:1"
id="path4345-0"
d="m 21.7264,49.2013999999999 c -0.085,-0.3515 0.735,-1.2263 1.1125,-1.187 0.3277,0.034 0.2849,0.1294 -0.3041,0.6746 -0.7973,0.738 -0.7596,0.7141 -0.8084,0.5124 z"
/>
<path
style="fill:#800080;stroke:none;stroke-opacity:1"
id="path4347-5"
d="m 40.3978999999999,33.8918000000001 c -0.7534,-0.3647 -1.4044,-0.6827 -1.4467,-0.7065 -0.042,-0.024 -0.036,-0.482 0.014,-1.0179 0.085,-0.9103 0.116,-0.9603 0.4714,-0.7583 0.2093,0.1189 0.8912,0.7791 1.5152,1.467 0.6242,0.6881 1.5188,1.5792 1.9881,1.9804 0.4694,0.4013 0.8652,0.778 0.8795,0.8374 0.014,0.059 -0.4415,-0.1726 -1.0129,-0.5155 -0.5714,-0.343 -1.6553,-0.9219 -2.4086,-1.2866 z"
/>
<path
id="path4349-5"
style="fill:#800080;stroke:none;stroke-opacity:1"
d="m 26.2364,37.0128 c -0.2044,-0.832 -2.1788,-3.8165 -3.0443,-4.6018 l -0.8823,-0.8007 -0.6178,-3.4205 c -0.4624,-2.5605 -0.7938,-3.9249 -1.3178,-5.4267 -0.385,-1.1033 -0.7705,-2.0829 -0.8567,-2.1768 -0.4992,-0.5442 8.9203,5.1576 10.027,6.0695 0.8034,0.6622 1.3561,1.4859 2.7544,4.1051 0.1259,0.2358 -0.014,0.3744 -0.7031,0.6959 -1.3881,0.6477 -3.1197,2.5035 -4.1034,4.3978 -0.4708,0.9067 -0.9227,1.6333 -1.0042,1.6145 -0.082,-0.019 -0.1948,-0.2242 -0.2518,-0.4563 z"
/>
<path
id="path4351-2"
style="fill:none;stroke:#000000;stroke-width:0.18961371;stroke-opacity:1"
d="m 25.3871999999999,29.2511 c 1.9369,-1.3338 2.0087,-1.4036 1.0566,-1.0283 -1.2646,0.4986 -2.5083,1.3474 -2.9609,2.0209 -0.1886,0.2806 -0.3048,0.4939 -0.2583,0.4742 0.046,-0.02 1.0196,-0.6799 2.1626,-1.4668 z"
/>
<path
id="path4355-2"
style="fill:#000000;fill-opacity:1;stroke:#000000;stroke-width:0.22671068;stroke-opacity:1"
d="m 30.7802999999999,72.8416999999999 c 0.9335,-0.2227 1.3338,-0.5605 1.5124,-1.2757 0.1391,-0.5571 0.1727,-0.5656 1.5484,-0.3897 1.8576,0.2376 4.9975,0.1748 6.2675,-0.1253 0.9793,-0.2313 1.0368,-0.2155 1.5364,0.4235 0.6601,0.8444 1.7051,1.1316 4.1162,1.1316 3.9545,0 5.2041,-1.0285 4.196,-3.454 -0.3189,-0.7675 -0.3104,-0.7983 0.3957,-1.4315 0.397,-0.3558 1.5357,-1.0638 2.5305,-1.5733 1.7921,-0.9177 1.8319,-0.9263 4.2962,-0.9246 2.083,0 2.8501,0.1094 4.7222,0.6648 2.1629,0.6418 2.2451,0.6495 2.5437,0.239 0.5192,-0.7139 0.3729,-2.3592 -0.3455,-3.8859 l -0.6537,-1.3892 0.44,-1.3103 c 0.242,-0.7207 0.4091,-1.5497 0.3712,-1.8422 l -0.069,-0.5318 -1.0844,0.6809 c -0.5964,0.3745 -1.1704,0.6275 -1.2756,0.5621 -0.4073,-0.2531 -4.1245,-5.1594 -4.898,-6.4648 l -0.8158,-1.3766 0.9175,-1.0478 c 1.0434,-1.1917 1.806,-2.649 1.9932,-3.8089 l 0.1279,-0.7925 -2.0044,0.7456 c -3.1179,1.1596 -3.1951,1.1664 -3.6509,0.3199 -1.5849,-2.9427 -3.9679,-3.4232 -6.0713,-1.2242 -0.5139,0.5373 -1.1565,1.0478 -1.428,1.1344 -0.7067,0.2255 -2.0073,1.4288 -2.4361,2.2538 -0.2266,0.4362 -0.3624,1.2376 -0.3561,2.1021 l 0.01,1.3973 -0.7505,-0.3153 c -1.4687,-0.617 -4.8469,-1.0589 -6.8798,-0.8997 -6.1944,0.4848 -8.1326,1.8913 -11.3894,8.2651 -2.6643,5.2145 -4.8937,7.8226 -8.1203,9.4994 -1.5166,0.7882 -2.9128,2.1023 -2.8291,2.6628 0.037,0.2486 0.3521,0.665 0.7,0.9253 0.5514,0.4123 0.9139,0.467 2.8263,0.4266 1.2065,-0.026 3.4007,-0.1924 4.8757,-0.3709 2.5154,-0.3043 2.7258,-0.2989 3.3915,0.087 0.6828,0.3956 3.8677,1.1596 4.6342,1.1116 0.2043,-0.013 0.7015,-0.1021 1.1049,-0.1984 z"
/>
<path
style="fill:#f9ce16;fill-opacity:1;stroke:none;stroke-width:1;stroke-opacity:1"
id="path4357-6"
d="m 27.3130000000001,71.8407999999999 c -1.6473,-0.3556 -1.8213,-0.4527 -2.3373,-1.3059 l -0.3994,-0.6603 -0.5857,0.4631 c -0.4616,0.365 -1.2469,0.5337 -3.7086,0.7963 -3.9273,0.4191 -5.2951,0.4232 -5.8467,0.018 -0.4279,-0.3146 -0.428,-0.329 -0.01,-0.7965 0.2357,-0.2618 1.201,-0.9249 2.145,-1.4734 2.0901,-1.2143 4.4405,-3.3439 5.7911,-5.2468 0.5531,-0.7792 1.631,-2.6847 2.3956,-4.2344 1.8458,-3.7415 2.9199,-5.2469 4.5003,-6.308 1.9946,-1.339 3.6158,-1.7205 7.3441,-1.7284 2.4612,-0.01 3.4812,0.089 4.5846,0.4213 0.7806,0.2354 1.4712,0.5125 1.5347,0.6157 0.063,0.1032 -0.1457,0.5843 -0.4648,1.069 -0.73,1.1091 -0.9411,2.7898 -0.505,4.021 0.3136,0.8853 0.3045,0.93 -0.355,1.7551 -1.316,1.6465 -1.0051,4.3853 0.6651,5.8598 0.4374,0.386 1.0862,0.7604 1.4419,0.832 0.4139,0.083 0.8479,0.4354 1.205,0.978 0.6718,1.0205 1.8697,1.6373 3.2201,1.6578 0.6426,0.01 0.9961,0.1168 0.9961,0.3017 0,0.1575 0.1781,0.5987 0.3957,0.9803 0.3862,0.6772 0.3833,0.706 -0.1188,1.2118 -0.4642,0.4675 -0.7652,0.5255 -3.0837,0.5938 -3.3177,0.098 -3.82,-0.1232 -4.3102,-1.8973 -0.1895,-0.6859 -0.4985,-1.8046 -0.6867,-2.4858 -0.1882,-0.6814 -0.4426,-1.3011 -0.5652,-1.3774 -0.5658,-0.3515 -0.5918,0.2646 -0.089,2.1031 0.299,1.093 0.5437,2.0043 0.5437,2.0252 0,0.021 -0.7376,0.1631 -1.6392,0.3162 -1.5514,0.2635 -5.2763,0.1845 -6.4025,-0.1357 -0.654,-0.1859 -0.4683,-1.3664 0.3557,-2.2611 0.8016,-0.8703 1.6492,-2.5627 1.4911,-2.9771 -0.2216,-0.5806 -0.561,-0.3325 -1.0414,0.7608 -0.2609,0.5939 -0.7713,1.3882 -1.1342,1.7653 -0.5291,0.5499 -0.7195,1.0414 -0.9615,2.4819 -0.235,1.399 -0.3991,1.8346 -0.7418,1.9694 -0.671,0.264 -2.0993,0.2214 -3.6261,-0.1082 z"
/>
<path
d="m 46.4616000000001,67.3918000000001 c -0.5357,-0.2749 -1.0091,-0.7501 -1.2451,-1.2502 -0.2661,-0.5637 -0.5311,-0.8073 -0.879,-0.8079 -0.6573,0 -1.8528,-0.7477 -2.3027,-1.438 -0.9905,-1.5198 -0.8564,-3.1864 0.3692,-4.5898 0.6843,-0.7836 0.6888,-0.8049 0.3296,-1.5657 -0.7686,-1.6286 -0.2874,-3.7241 1.1135,-4.8478 0.7102,-0.5698 0.722,-0.6075 0.4181,-1.3389 -0.6373,-1.5333 -0.2344,-3.1745 1.0446,-4.2565 0.4074,-0.3446 1.0091,-0.6805 1.3372,-0.7465 0.3371,-0.068 0.7565,-0.4001 0.9643,-0.7641 0.4811,-0.8427 1.32,-1.3786 2.3807,-1.5209 1.0381,-0.1391 1.7416,0.3427 2.5102,1.7193 l 0.5232,0.937 -0.7911,0 c -0.4351,0 -1.0662,-0.1051 -1.4024,-0.2336 -0.3363,-0.1286 -0.6559,-0.1889 -0.7103,-0.1343 -0.1654,0.1663 2.9244,5.6296 3.2562,5.7577 0.17,0.066 0.7303,-0.1741 1.2451,-0.5326 0.6122,-0.4263 0.9671,-0.5578 1.0261,-0.3799 0.202,0.6082 1.9413,3.0834 4.2014,5.9793 1.3173,1.6878 2.7657,3.7953 3.2186,4.6832 0.754,1.4785 1.0876,3.0401 0.7268,3.4028 -0.079,0.079 -0.6351,-0.021 -1.2365,-0.2214 -1.5407,-0.5144 -4.4358,-1.0456 -5.6823,-1.0424 -0.5797,0 -1.5629,0.1422 -2.1847,0.3127 -1.3323,0.3654 -4.2472,1.8289 -4.6751,2.3472 -0.3771,0.4568 -1.4961,0.954 -2.1735,0.9657 -0.2848,0 -0.9067,-0.1906 -1.3821,-0.4344 z"
id="path4359-8"
style="fill:#f9ce16;fill-opacity:1;stroke:none;stroke-width:1;stroke-opacity:1"
/>
<path
d="m 55.2072000000001,57.4792 c 0.6366,-0.4483 0.6488,-1.3359 0.024,-1.7756 -0.525,-0.3697 -1.0641,-0.2718 -1.5003,0.2725 -0.3984,0.4971 -0.3524,0.8775 0.1696,1.4023 0.5444,0.5473 0.6596,0.5561 1.3063,0.1008 z"
style="fill:#000000;fill-opacity:1;stroke:#000000;stroke-width:0.45342135;stroke-opacity:1"
id="path4361-9"
/>
<path
d="m 62.6700000000001,59.1552999999999 c 0.3454,-0.3472 0.6003,-0.091 0.4087,0.4109 -0.1131,0.2963 -0.2111,0.3256 -0.4123,0.1234 -0.2011,-0.2022 -0.2003,-0.3293 0,-0.5343 z"
style="fill:#f9ce16;fill-opacity:1;stroke:none;stroke-width:1;stroke-opacity:1"
id="path4363-4"
/>
<path
id="path4365-7"
style="fill:#f9ce16;fill-opacity:1;stroke:none;stroke-width:1;stroke-opacity:1"
d="m 52.471,49.3957 -0.8196,-1.5041 1.6335,-0.2673 c 0.8984,-0.1471 2.3203,-0.501 3.1598,-0.7864 0.8394,-0.2855 1.5262,-0.4816 1.5262,-0.4358 0,0.5152 -1.283,2.3103 -2.5421,3.5565 -1.7991,1.781 -1.6669,1.806 -2.9578,-0.5629 z"
/>
<path
style="fill:#000000;fill-opacity:1;stroke:#000000;stroke-width:0.21602343;stroke-opacity:1"
id="path4369-5"
d="m 42.115,92.3542 c 3.1765,-0.8855 6.5901,-2.5125 8.0537,-3.8384 l 0.8868,-0.8033 3.1923,-0.02 c 1.7558,-0.011 3.1924,0.01 3.1924,0.04 0,0.033 -0.3761,0.8035 -0.8358,1.7123 -0.9768,1.9309 -1.0694,2.7334 -0.3375,2.9236 1.8291,0.475 8.1096,-2.2668 9.7013,-4.2353 0.7736,-0.9566 0.6745,-1.9487 -0.3785,-3.7902 l -0.7486,-1.3092 0.9681,-1.1865 c 1.5187,-1.8615 3.0051,-4.4747 4.3564,-7.6589 l 1.2438,-2.9315 1.586,-0.1283 c 1.8022,-0.1459 2.3482,-0.3372 3.0519,-1.0693 0.9793,-1.019 0.5734,-2.4792 -1.1141,-4.008 -1.551,-1.4049 -3.838,-2.1099 -5.5933,-1.7237 -1.7605,0.3874 -2.5616,1.2959 -3.6234,4.109 -1.0015,2.6533 -2.4307,5.2319 -3.0716,5.5417 -0.3067,0.1482 -0.8063,0.042 -2.0298,-0.4334 -4.1926,-1.6276 -8.7543,-1.5775 -13.1411,0.1441 -2.4991,0.9808 -3.5479,1.8677 -5.6748,4.7994 -1.986,2.7376 -3.4082,4.0771 -5.5881,5.2632 -1.9657,1.0694 -3.073,1.4724 -7.0616,2.5696 -3.1654,0.8707 -4.2449,1.3411 -4.3814,1.9091 -0.2046,0.8514 3.4476,0.8993 11.0615,0.1449 2.2327,-0.2213 4.5161,-0.4461 5.0742,-0.4997 0.7422,-0.071 1.0148,-0.028 1.0148,0.1608 0,0.142 -0.6244,0.9978 -1.3875,1.9016 -1.6212,1.92 -1.8204,2.2827 -1.4527,2.6454 0.3838,0.3785 1.0331,0.3295 3.0366,-0.2291 z"
/>
<path
d="m 39.5308,92.1484 c 0,-0.064 0.6039,-0.8181 1.3418,-1.6751 1.2034,-1.3975 2.2475,-3.2928 1.8107,-3.2869 -0.092,0 -2.9077,0.2641 -6.2568,0.584 -3.349,0.3201 -7.2136,0.5828 -8.5879,0.5841 -2.2562,0 -2.4629,-0.027 -2.1289,-0.3004 0.2034,-0.1665 2.1638,-0.8176 4.3563,-1.4469 2.2148,-0.6355 4.7469,-1.5137 5.6976,-1.976 2.3622,-1.1485 4.5833,-3.0389 6.0356,-5.1373 2.6306,-3.8 3.9291,-4.8157 7.5221,-5.8833 2.1084,-0.6265 5.5374,-0.8589 7.7208,-0.5231 0.7661,0.1178 2.2646,0.5363 3.3302,0.9301 1.775,0.6559 1.9886,0.6931 2.5472,0.4433 0.8207,-0.3669 2.05,-2.4465 3.3092,-5.5979 0.562,-1.4066 1.2502,-2.7952 1.5294,-3.0856 0.5823,-0.6059 1.7758,-1.0672 2.761,-1.0672 1.7406,0 4.7031,1.9203 5.3192,3.4479 0.5849,1.4507 -0.5401,2.2882 -3.3956,2.5275 l -1.5699,0.1317 -1.1296,2.7604 c -1.3301,3.2502 -2.9544,6.1367 -4.519,8.0303 l -1.1248,1.3614 0.8492,1.4809 c 0.5563,0.9702 0.8492,1.7677 0.8492,2.3122 0,0.7314 -0.1362,0.9424 -1.1343,1.7569 -1.2711,1.0374 -3.5461,2.2282 -5.5388,2.8991 -1.3477,0.4538 -2.8786,0.6016 -2.8786,0.2778 0,-0.098 0.3766,-0.898 0.8368,-1.7778 0.4601,-0.8799 0.9029,-1.9389 0.9839,-2.3533 l 0.1472,-0.7534 -0.9214,0.2083 c -0.5245,0.1185 -2.1827,0.1738 -3.8495,0.1285 -2.0956,-0.057 -2.928,-0.016 -2.928,0.1438 0,0.4312 -2.2083,1.9995 -3.991,2.8343 -2.7822,1.3028 -6.9933,2.5202 -6.9933,2.0217 z"
style="fill:#00539e;fill-opacity:1;stroke:none;stroke-opacity:1"
id="path4371-7"
/>
<path
d="m 70.0594000000001,67.2025000000001 c 0.4028,-0.3296 0.3369,-0.6927 -0.1656,-0.9128 -0.4767,-0.2089 -0.9917,0.053 -0.9917,0.5047 0,0.3844 0.8291,0.6768 1.1573,0.4081 z"
style="fill:#000000;fill-opacity:1;stroke:#000000;stroke-width:0.43204686;stroke-opacity:1"
id="path4373-0"
/>
<path
d="m 24.7464,54.8137999999999 c -9.7646,0 -9.7646,0 -9.7646,0"
style="fill:none;stroke:#000000;stroke-width:0.4570471;stroke-opacity:1"
id="path4389-8"
/>
<path
d="m 22.8904,57.4317000000001 c -9.7646,0 -9.7646,0 -9.7646,0"
style="fill:none;stroke:#000000;stroke-width:0.4570471;stroke-opacity:1"
id="path4391-7"
/>
<path
d="m 21.0343,60.1328000000001 c -9.7646,0 -9.7646,0 -9.7646,0"
id="path4393-1"
style="fill:none;stroke:#000000;stroke-width:0.4570471;stroke-opacity:1"
/>
<path
style="fill:none;stroke:#000000;stroke-width:0.53122026;stroke-opacity:1"
id="path4395-3"
d="m 39.8710000000001,76.6180999999999 c -13.1912,0 -13.1912,0 -13.1912,0"
/>
<path
id="path4397-9"
style="fill:none;stroke:#000000;stroke-width:0.53122026;stroke-opacity:1"
d="m 37.3634999999999,79.2360000000001 c -13.1912,0 -13.1912,0 -13.1912,0"
/>
<path
d="m 34.8561,81.9369999999999 c -13.1911,0 -13.1911,0 -13.1911,0"
id="path4399-3"
style="fill:none;stroke:#000000;stroke-width:0.53122026;stroke-opacity:1"
/>
<path
id="path4401-7"
style="fill:none;stroke:#000000;stroke-width:0.42202464;stroke-opacity:1"
d="m 61.5217,32.8488 c -8.3255,0 -8.3255,0 -8.3255,0"
/>
<path
id="path4403-1"
style="fill:none;stroke:#000000;stroke-width:0.42202464;stroke-opacity:1"
d="m 59.9391000000001,35.4666 c -8.3254,0 -8.3254,0 -8.3254,0"
/>
<path
id="path4405-9"
style="fill:none;stroke:#000000;stroke-width:0.42202464;stroke-opacity:1"
d="m 58.3567,38.1677999999999 c -8.3256,0 -8.3256,0 -8.3256,0"
/>
</svg>
