<?xml version="1.0" encoding="UTF-8" standalone="no"?>
<svg
xmlns:sodipodi="http://sodipodi.sourceforge.net/DTD/sodipodi-0.dtd"
xmlns:inkscape="http://www.inkscape.org/namespaces/inkscape"
xmlns:svg="http://www.w3.org/2000/svg"
xmlns:cc="http://creativecommons.org/ns#"
xmlns:dc="http://purl.org/dc/elements/1.1/"
xmlns="http://www.w3.org/2000/svg"
xmlns:rdf="http://www.w3.org/1999/02/22-rdf-syntax-ns#"
>
<path
d="m 41.6668,16.66665 c 13.7877,0 24.9999,11.21217 24.9999,25.00002 0,13.78782 -11.2122,24.99999 -24.9999,24.99999 -13.788,0 -25.0001,-11.21217 -25.0001,-24.99999 0,-13.78785 11.2121,-25.00002 25.0001,-25.00002 z m 0,-16.66665 c -22.879,0 -41.6668,18.78782 -41.6668,41.66667 0,22.87875 18.7878,41.66666 41.6668,41.66666 8.4527,0 16.3218,-2.38291 22.9166,-6.77083 L 88.2813000000001,100 100,88.28124 76.5626,64.58333 c 4.3879,-6.59475 6.7707,-14.46392 6.7707,-22.91666 0,-22.87885 -18.7878,-41.66667 -41.6665,-41.66667 z"
id="path3976"
style="fill:#606060"
/>
</svg>
