<?xml version="1.0" encoding="UTF-8" standalone="no"?>
<svg
xmlns:inkscape="http://www.inkscape.org/namespaces/inkscape"
xmlns:sodipodi="http://sodipodi.sourceforge.net/DTD/sodipodi-0.dtd"
xmlns="http://www.w3.org/2000/svg"
xmlns:rdf="http://www.w3.org/1999/02/22-rdf-syntax-ns#"
xmlns:dc="http://purl.org/dc/elements/1.1/"
xmlns:cc="http://creativecommons.org/ns#"
xmlns:svg="http://www.w3.org/2000/svg"
>
<path
style="fill:#0000ff"
id="path4017"
d="m 61.0011999999999,12.41087 c -22.5746,10.11455 -27.6022,12.46658 -27.4736,12.84903 0.8469,2.23507 0.8469,2.41051 0.8724,22.22791 l 0,19.72851 -0.6153,1.38244 -0.6153,1.38245 0.6929,0.29356 c 0.3592,0.17661 12.9286,5.79177 27.9103,12.49582 28.5766,12.76014 28.1664,12.61394 28.6542,11.14378 0.077,-0.26433 0.1541,-21.31681 0.1541,-46.75054 l 0,-46.27919 -0.5643,-0.44093 c -0.3082,-0.26432 -0.7439,-0.47017 -0.9745,-0.44093 -0.2082,0 -12.8286,5.58592 -28.0409,12.40809 z"
/>
<path
d="m 10.6713999999999,26.43533 c -5.0021,0.88187 -8.9521,5.05727 -10.2613,10.79057 -0.4867,2.0877 -0.5643,17.37647 -0.102,19.84663 0.7183,3.90991 3.2061,7.67363 6.3102,9.58473 2.7449,1.64677 3.9765,1.82337 14.5705,1.82337 8.1837,0 9.5939,-0.0585 10.0816,-0.47017 l 0.5643,-0.44093 0,-20.22909 c 0,-18.46536 -0.026,-20.28757 -0.4357,-20.64078 -0.3337,-0.32398 -2.2827,-0.4117 -9.9276,-0.44094 -5.2337,-0.0292 -10.0816,0.0596 -10.8,0.17661 z"
style="fill:#0000ff"
id="path4019"
/>
<path
style="fill:#0000ff"
id="path4021"
d="m 92.8869999999999,47.45857 c 0,9.70285 0.051,11.61395 0.3592,11.61395 0.6153,0 3.3347,-2.26431 4.2071,-3.52863 3.745,-5.3216 3.3092,-13.05488 -0.9745,-17.40689 -1.1285,-1.14619 -2.7959,-2.29355 -3.3347,-2.29355 -0.1796,0.001 -0.2571,3.76371 -0.2571,11.61512 z"
/>
<path
style="fill:#0000ff"
id="path4023"
d="m 12.0816,85.06414 0,13.96598 0.5643,0.44093 c 0.8469,0.70526 12.3898,0.70526 13.2368,0 l 0.5643,-0.44093 0,-13.96598 0,-13.93674 -7.1827,0 -7.1827,0 0,13.93674 z"
/>
</svg>
