<?xml version="1.0" encoding="UTF-8" standalone="no"?>
<svg
xmlns:cc="http://creativecommons.org/ns#"
xmlns:svg="http://www.w3.org/2000/svg"
xmlns:rdf="http://www.w3.org/1999/02/22-rdf-syntax-ns#"
xmlns="http://www.w3.org/2000/svg"
xmlns:dc="http://purl.org/dc/elements/1.1/"
xmlns:sodipodi="http://sodipodi.sourceforge.net/DTD/sodipodi-0.dtd"
xmlns:inkscape="http://www.inkscape.org/namespaces/inkscape"
>
<path
style="fill:#d4aa00"
id="path3968"
d="m 88.8153,96.95122 c 0,1.68374 -1.4742,3.04878 -3.2925,3.04878 l -71.5584,0 c -1.8184,0 -3.2926,-1.36504 -3.2926,-3.04878 l 0,-6.50406 c 0,-1.68374 1.4742,-3.04878 3.2926,-3.04878 l 71.5584,0 c 1.8183,0 3.2925,1.36504 3.2925,3.04878 l 0,6.50406 z M 100,51.29228 c 0,-13.56911 -11.9218,-24.60813 -26.5759,-24.60813 -1.7885,0 -3.534,0.16951 -5.2237,0.48496 2.7012,5.4752 4.2829,12.27398 4.2829,19.69959 0,6.92927 -1.3806,13.2939 -3.7605,18.57846 l -7.2889,0 c 2.7491,-4.87805 4.4643,-11.47805 4.4643,-18.57846 0,-14.70854 -7.345,-27.1435 -16.0396,-27.1435 -8.6941,0 -16.0392,12.44025 -16.0392,27.14838 0,7.1004 1.7152,13.69553 4.4643,18.57358 l -7.2876,0 c -2.3798,-5.28456 -3.7618,-11.64879 -3.7618,-18.57846 0,-7.44634 1.5905,-14.25366 4.3053,-19.73699 -1.6089,-0.28456 -3.2671,-0.44269 -4.9638,-0.44269 -14.6541,0 -26.5758,11.03659 -26.5758,24.6057 0,7.57235 3.7364,14.35325 9.5655,18.87073 -0.1457,0.51504 -0.2103,1.05122 -0.2103,1.60813 l 0,1.89471 c 0,3.50935 3.0415,6.41301 6.8314,6.41301 l 67.3448,0 c 3.79,0 6.6014,-2.90406 6.6014,-6.41301 l 0,-1.89471 c 0,-0.49228 0.069,-0.96951 -0.046,-1.42968 5.9631,-4.51666 9.9129,-11.37886 9.9129,-19.05162 z M 49.9994999999999,0 c -3.8128,0 -6.9144,2.87195 -6.9144,6.40244 0,3.53049 3.1016,6.40244 6.9144,6.40244 3.8128,0 6.9144,-2.87195 6.9144,-6.40244 0,-3.53049 -3.1016,-6.40244 -6.9144,-6.40244 z"
/>
</svg>
