<?xml version="1.0" encoding="UTF-8" standalone="no"?>
<svg
xmlns="http://www.w3.org/2000/svg"
xmlns:rdf="http://www.w3.org/1999/02/22-rdf-syntax-ns#"
xmlns:dc="http://purl.org/dc/elements/1.1/"
xmlns:cc="http://creativecommons.org/ns#"
xmlns:svg="http://www.w3.org/2000/svg"
xmlns:inkscape="http://www.inkscape.org/namespaces/inkscape"
xmlns:sodipodi="http://sodipodi.sourceforge.net/DTD/sodipodi-0.dtd"
>
<path
id="path3957"
style="fill:#666666"
d="m 20.50371,0.380600000000015 c -4.44711,0.90409 -8.08347,3.73679 -9.79012,7.61543 -0.61525,1.4041 -0.64284,1.47553 -0.72679,18.8248 l -0.084,17.44518 5.48213,0 5.45454,0 0,-16.77884 0,-16.77885 0.81074,-0.76124 0.81075,-0.78573 14.43391,-0.0714 14.43392,-0.0714 0,11.42468 c 0,10.66242 0.0276,11.49509 0.55888,12.89919 1.28688,3.61741 4.58743,6.40215 8.95059,7.63993 1.73423,0.5 2.37707,0.52347 15.18829,0.61837 l 13.34252,0.0949 0,23.53713 c 0,25.86981 0.084,24.53714 -1.67786,25.32286 -0.72679,0.30919 -4.58743,0.35715 -33.03429,0.30919 l -32.19596,-0.0714 -0.81075,-0.78572 c -0.67162,-0.6194 -0.81074,-0.97553 -0.81074,-1.95208 l 0,-1.18981 -5.48213,0 -5.51091,0 0.19549,1.88064 c 0.5313,5.40213 4.50348,9.54301 10.43415,10.85222 2.43344,0.54695 66.5723,0.52348 69.03452,0 5.0072,-1.09492 8.7551,-4.26027 10.06956,-8.47259 0.3634,-1.09492 0.41976,-6.11643 0.41976,-31.86685 l 0,-30.58214 -16.86734,-14.35024 -16.83857,-14.32676 -22.09762,0.0235 c -17.846,0.0245 -22.40584,0.0714 -23.69272,0.35715 z m 56.08417,31.93828 c -9.53825,0.048 -12.69968,-0.0235 -13.17462,-0.23776 -1.4272,-0.64287 -1.45478,-0.78573 -1.45478,-12.25633 l 0,-10.66242 13.5668,11.54305 13.5668,11.54305 -12.5042,0.0704 z"
/>
<path
style="fill:#666666"
id="path3959"
d="m 6.57351000000006,50.19264 c -2.46102,0.64287 -4.86687,2.47453 -5.95826,4.49804 C 0.0275799999999435,55.78559 0,56.07131 0,65.56739 l 0,9.7573 0.78316,1.35716 c 0.97865,1.68983 3.07747,3.33169 5.11873,3.97456 1.50995,0.50001 1.9585,0.50001 32.69848,0.50001 30.74117,0 31.18852,0 32.69968,-0.50001 2.04245,-0.64287 4.14008,-2.28473 5.11873,-3.97456 l 0.78316,-1.35716 0,-9.7573 c 0,-9.49608 -0.0276,-9.7818 -0.61526,-10.87671 -0.81074,-1.49901 -2.68529,-3.18883 -4.41952,-3.95109 l -1.39842,-0.64287 -31.74861,-0.048 c -17.45382,-0.0225 -32.05444,0.049 -32.44662,0.14388 z m 14.93763,11.49509 c 1.03502,1.61839 1.45479,2.09391 1.62269,1.83268 0.14032,-0.19082 0.81075,-1.16634 1.50996,-2.18983 l 1.25929,-1.83268 1.7894,0 c 1.00743,0 1.81818,0.048 1.81818,0.11939 0,0.048 -1.00744,1.47553 -2.26553,3.14189 -1.23051,1.64186 -2.26553,3.06943 -2.29312,3.16535 -0.0276,0.0714 1.03502,1.64187 2.40586,3.47455 1.34324,1.83269 2.43343,3.40312 2.43343,3.49904 0,0.0949 -0.83953,0.16633 -1.87455,0.16633 l -1.90213,0 -1.48237,-2.26126 c -0.81075,-1.23778 -1.51115,-2.26127 -1.56632,-2.26127 -0.0564,0 -0.81075,1.02349 -1.67786,2.26127 l -1.59511,2.26024 -1.84696,0 c -1.39842,0 -1.7906,-0.0714 -1.67786,-0.30919 0.0839,-0.16633 1.14655,-1.68982 2.40585,-3.33169 1.25929,-1.66635 2.26553,-3.14189 2.26553,-3.30822 0,-0.14286 -1.00744,-1.61839 -2.23795,-3.28474 -1.23051,-1.66534 -2.23794,-3.09393 -2.23794,-3.18883 0,-0.0714 0.83953,-0.14286 1.90213,-0.14286 l 1.87455,0 1.37083,2.18983 z m 16.55912,2.90311 c 0.75558,2.80821 1.45479,5.04498 1.53874,4.95008 0.11154,-0.0949 0.50372,-1.4041 0.8947,-2.90311 0.39218,-1.499 1.00744,-3.73679 1.31446,-4.95008 l 0.61526,-2.18983 2.34948,0 2.34949,0 0,6.78276 0,6.78277 -1.53874,0 -1.53874,0 -0.0276,-5.4256 -0.0276,-5.40213 -1.426,5.35519 -1.45478,5.35519 -1.62269,0.0714 c -0.86712,0.048 -1.59391,0.0235 -1.59391,-0.0235 0,-0.28572 -2.8532,-10.75732 -2.96474,-10.85222 -0.0564,-0.048 -0.11154,2.37963 -0.11154,5.42662 l 0,5.52152 -1.45478,-0.0714 -1.48237,-0.0714 -0.084,-6.73481 -0.0564,-6.71133 2.46102,0 2.46102,0 1.39961,5.08988 z m 15.49652,0.38062 0,5.47356 3.91581,0 3.9158,0 0,1.3092 0,1.30921 -5.59486,0 -5.59367,0 0,-6.78277 0,-6.78276 1.67786,0 1.67786,0 0,5.47356 z"
/>
</svg>
