<?xml version="1.0" encoding="UTF-8" standalone="no"?>
<svg
xmlns:sodipodi="http://sodipodi.sourceforge.net/DTD/sodipodi-0.dtd"
xmlns:inkscape="http://www.inkscape.org/namespaces/inkscape"
xmlns:svg="http://www.w3.org/2000/svg"
xmlns:cc="http://creativecommons.org/ns#"
xmlns:dc="http://purl.org/dc/elements/1.1/"
xmlns="http://www.w3.org/2000/svg"
xmlns:rdf="http://www.w3.org/1999/02/22-rdf-syntax-ns#"
>
<path
d="m 92.5264999999999,92.52607 -42.5266,0 -42.5264,0 21.2632,-42.52653 21.2632,-42.52654 21.2634,42.52654 z"
style="fill:#008000;stroke:#008000;stroke-width:14.94785023;stroke-linecap:butt;stroke-linejoin:round;stroke-miterlimit:12"
id="path3863"
/>
<path
id="path4675"
style="fill:#ffffff"
d="m 36.4940999999999,95.33309 c -0.3198,-0.42941 -0.5991,-0.78079 -0.6208,-0.78079 -0.022,0 -0.4037,-0.4793 -0.8491,-1.06514 -0.9098,-1.19639 -1.0922,-1.4256 -1.1357,-1.4256 -0.016,0 -0.3383,-0.41284 -0.7148,-0.91753 -0.3765,-0.50475 -0.7085,-0.91765 -0.7378,-0.91765 -0.029,0 -0.042,-0.025 -0.028,-0.055 0.014,-0.03 -0.029,-0.0894 -0.095,-0.1298 -0.067,-0.04 -0.1211,-0.10316 -0.1211,-0.14049 0,-0.0369 -0.022,-0.0668 -0.049,-0.0668 -0.027,0 -0.4031,-0.47192 -0.8361,-1.04882 -0.4331,-0.57684 -0.8091,-1.04864 -0.8358,-1.04864 -0.027,0 -0.3567,-0.41297 -0.7332,-0.91772 -0.3765,-0.50463 -0.7039,-0.91759 -0.7275,-0.91759 -0.024,0 -0.3888,-0.44986 -0.8115,-0.99956 -0.4226,-0.54977 -0.8812,-1.13217 -1.0189,-1.29449 -0.1377,-0.16224 -0.5254,-0.65624 -0.8616,-1.09794 -0.3362,-0.44154 -0.6429,-0.80286 -0.6817,-0.80286 -0.039,0 -0.07,-0.045 -0.07,-0.10067 0,-0.055 -0.037,-0.11948 -0.083,-0.14274 -0.046,-0.0244 -0.4195,-0.48693 -0.8311,-1.03032 -0.4116,-0.5432 -0.8407,-1.09097 -0.9535,-1.21726 -0.1128,-0.12605 -0.5021,-0.62011 -0.865,-1.09785 -0.363,-0.47762 -0.6799,-0.86845 -0.7044,-0.86845 -0.024,0 -0.3718,-0.43504 -0.7717,-0.96667 -0.3999,-0.53176 -0.8132,-1.05364 -0.9185,-1.15962 -0.1053,-0.10566 -0.5516,-0.67375 -0.9919,-1.26166 -0.4402,-0.58803 -0.821,-1.06896 -0.8462,-1.06896 -0.025,0 -0.3439,-0.39089 -0.7084,-0.86845 -0.3644,-0.47774 -0.7638,-0.98149 -0.8876,-1.11954 -0.1237,-0.13793 -0.2102,-0.28267 -0.1923,-0.32137 0.019,-0.04 0.01,-0.0519 -0.021,-0.0269 -0.031,0.025 -0.3633,-0.36639 -0.7711,-0.9074 -0.3946,-0.52351 -0.7372,-0.95186 -0.7614,-0.95186 -0.024,0 -0.3863,-0.44985 -0.8046,-0.9995 -0.4183,-0.54976 -0.849,-1.08803 -0.957,-1.19625 -0.1081,-0.10823 -0.1975,-0.2344 -0.1988,-0.28073 0,-0.0465 0.219,-0.37771 0.4894,-0.73621 0.2704,-0.35864 0.4857,-0.67463 0.4785,-0.70233 -0.01,-0.0275 0.037,-0.0793 0.097,-0.11448 0.061,-0.035 0.1105,-0.0982 0.1105,-0.14011 0,-0.0419 0.3202,-0.50813 0.7117,-1.0372 0.3914,-0.5292 0.7115,-0.98503 0.7115,-1.01309 0,-0.0276 0.3203,-0.48446 0.7117,-1.01444 0.3914,-0.52981 0.7116,-0.97729 0.7116,-0.99424 0,-0.0493 0.3106,-0.48839 1.0675,-1.51118 0.3846,-0.51971 0.6994,-0.97579 0.6994,-1.01352 0,-0.0376 0.022,-0.0501 0.049,-0.0276 0.027,0.0226 0.049,0 0.049,-0.0601 0,-0.0551 0.066,-0.16575 0.1472,-0.24566 0.081,-0.0802 0.1472,-0.17001 0.1472,-0.20007 0,-0.0301 0.3271,-0.49031 0.7269,-1.02263 0.3999,-0.53223 0.7415,-1.0182 0.7592,-1.07991 0.076,-0.26302 0.2124,-0.12959 1.1629,1.1331 0.2849,0.37859 0.595,0.76595 0.689,0.86089 0.094,0.0944 0.5429,0.66274 0.9974,1.26177 0.4545,0.59903 0.8444,1.08901 0.8665,1.08901 0.022,0 0.3742,0.44255 0.7824,0.9833 0.4082,0.54074 0.7506,0.98305 0.7608,0.98305 0.031,0 0.3792,0.4377 1.1614,1.45841 0.4074,0.53172 0.7593,0.96676 0.7819,0.96676 0.023,0 0.3852,0.45717 0.8059,1.01594 0.4206,0.55877 0.7975,1.01594 0.8375,1.01594 0.04,0 0.073,0.0444 0.073,0.0981 0,0.0544 0.021,0.0982 0.046,0.0982 0.025,0 0.3658,0.4251 0.7571,0.94436 0.3912,0.51938 0.7241,0.9274 0.7396,0.90677 0.016,-0.02 0.028,0.0125 0.028,0.0718 0,0.06 0.023,0.10954 0.049,0.10954 0.07,0 0.273,0.24478 0.9646,1.16324 0.3325,0.44173 0.6187,0.80305 0.6361,0.80305 0.037,0 0.2209,0.23003 1.0186,1.2781 0.3293,0.43254 0.6752,0.8642 0.7686,0.95905 0.093,0.0944 0.4707,0.56965 0.8384,1.05483 0.3677,0.4853 0.7045,0.90083 0.7484,0.92334 0.044,0.0225 0.08,0.0856 0.08,0.14131 0,0.0569 0.043,0.10066 0.098,0.10066 0.056,0 0.098,0.0444 0.098,0.10072 0,0.055 0.039,0.11948 0.086,0.14306 0.048,0.0244 0.1147,0.0969 0.15,0.16181 0.035,0.0651 0.098,0.11954 0.1385,0.11954 0.081,0 0.223,-0.16281 0.2097,-0.24103 -0.01,-0.0275 0.032,-0.0793 0.081,-0.1171 0.1417,-0.10692 0.3132,-0.34507 0.2805,-0.38858 -0.016,-0.0219 -0.01,-0.04 0.027,-0.04 0.031,0 0.509,-0.59728 1.0618,-1.32731 1.0335,-1.36482 1.3518,-1.77016 1.3518,-1.72145 0,0.015 0.4888,-0.61967 1.0863,-1.41109 0.5975,-0.79154 1.1055,-1.43916 1.1291,-1.43916 0.024,0 0.5144,-0.62686 1.091,-1.39283 1.1359,-1.50931 1.644,-2.14661 1.7114,-2.14661 0.024,0 0.03,-0.0275 0.014,-0.0619 -0.016,-0.0344 0.017,-0.0956 0.074,-0.13555 0.056,-0.04 0.5513,-0.6685 1.0999,-1.39608 1.1284,-1.49658 1.3833,-1.81447 1.4552,-1.81447 0.028,0 0.037,-0.0292 0.02,-0.0651 -0.017,-0.0368 -0.01,-0.0651 0.022,-0.0651 0.029,0 0.5498,-0.66458 1.1581,-1.47703 0.6083,-0.81238 1.1277,-1.45892 1.1543,-1.43704 0.027,0.0217 0.043,0 0.035,-0.0368 -0.01,-0.0418 0.029,-0.11073 0.08,-0.15239 0.051,-0.0418 0.571,-0.70992 1.1546,-1.48497 0.5837,-0.77513 1.1214,-1.45115 1.1949,-1.50225 0.074,-0.0518 0.1337,-0.11699 0.1337,-0.14671 0,-0.0718 0.1594,-0.31739 0.206,-0.31739 0.02,0 0.5393,-0.66725 1.1534,-1.48254 0.6141,-0.81546 1.193,-1.56026 1.2864,-1.65503 0.093,-0.0944 0.7196,-0.90244 1.3915,-1.79467 0.6719,-0.89225 1.2531,-1.62228 1.2915,-1.62228 0.038,0 0.064,-0.0264 0.058,-0.0592 -0.01,-0.0328 0.01,-0.0692 0.034,-0.0818 0.026,-0.0126 0.5752,-0.72336 1.2211,-1.57961 0.6458,-0.85613 1.1932,-1.55658 1.2163,-1.55658 0.023,0 0.4705,-0.56782 0.9941,-1.26173 1.281,-1.69791 1.6292,-2.14667 1.6657,-2.14667 0.017,0 0.5195,-0.64885 1.1167,-1.44194 0.5972,-0.79308 1.1169,-1.44193 1.1548,-1.44193 0.038,0 0.069,-0.0315 0.069,-0.0705 0,-0.039 0.033,-0.11452 0.073,-0.16863 0.041,-0.0541 0.074,-0.0818 0.074,-0.063 0,0.0201 0.4947,-0.61967 1.0992,-1.42093 1.3568,-1.7982 1.6492,-2.17372 1.6492,-2.11823 0,0.0239 0.2201,-0.25257 0.4891,-0.61436 0.269,-0.36169 0.5009,-0.65768 0.5153,-0.65768 0.014,0 0.026,0.039 0.026,0.0856 0,0.0478 0.044,0.14926 0.098,0.22664 0.054,0.078 0.098,0.17971 0.098,0.22729 0,0.0478 0.044,0.12911 0.098,0.18108 0.054,0.0516 0.098,0.14045 0.098,0.19658 0,0.0566 0.044,0.14471 0.098,0.19669 0.054,0.0516 0.098,0.14698 0.098,0.21104 0,0.0642 0.018,0.11704 0.041,0.11704 0.023,0 0.072,0.0806 0.1101,0.18034 0.038,0.0994 0.1081,0.2279 0.1555,0.28616 0.048,0.0578 0.086,0.1339 0.086,0.16788 0,0.034 0.039,0.12082 0.086,0.19229 0.047,0.0717 0.11,0.1879 0.1396,0.25824 0.029,0.0705 0.085,0.2011 0.1227,0.29083 0.038,0.0894 0.1076,0.21117 0.1549,0.26994 0.047,0.0592 0.086,0.15479 0.086,0.21368 0,0.0591 0.018,0.10697 0.041,0.10697 0.022,0 0.072,0.0806 0.1101,0.18021 0.038,0.0994 0.1081,0.22803 0.1556,0.2863 0.047,0.0579 0.086,0.15416 0.086,0.21305 0,0.0592 0.018,0.10697 0.041,0.10697 0.023,0 0.072,0.0806 0.1105,0.18021 0.038,0.0994 0.1082,0.23748 0.1555,0.30732 0.047,0.0692 0.086,0.16574 0.086,0.21306 0,0.0478 0.017,0.0856 0.038,0.0856 0.021,0 0.092,0.1183 0.1588,0.26214 0.067,0.14422 0.1382,0.26214 0.1588,0.26214 0.021,0 0.037,0.0591 0.037,0.13113 0,0.0717 0.018,0.13112 0.041,0.13112 0.023,0 0.072,0.0806 0.1105,0.18021 0.038,0.0994 0.1083,0.23747 0.1555,0.30732 0.047,0.0692 0.086,0.16574 0.086,0.21305 0,0.0478 0.022,0.0856 0.049,0.0856 0.027,0 0.049,0.0528 0.049,0.11703 0,0.0642 0.044,0.15908 0.098,0.21106 0.054,0.0516 0.098,0.12458 0.098,0.16195 0,0.0365 0.054,0.15215 0.1213,0.25572 0.067,0.10319 0.1344,0.24364 0.1505,0.31134 0.016,0.068 0.05,0.12333 0.075,0.12333 0.025,0 0.046,0.039 0.046,0.0856 0,0.0478 0.044,0.14925 0.098,0.22665 0.054,0.078 0.098,0.17542 0.098,0.2177 0,0.0428 0.039,0.12459 0.086,0.18298 0.048,0.0578 0.1174,0.18713 0.1555,0.2863 0.038,0.0994 0.088,0.18021 0.1101,0.18021 0.023,0 0.041,0.0528 0.041,0.11703 0,0.0642 0.044,0.15908 0.098,0.21106 0.054,0.0516 0.098,0.14043 0.098,0.19669 0,0.0566 0.044,0.14459 0.098,0.19657 0.054,0.0516 0.098,0.14699 0.098,0.21117 0,0.0642 0.021,0.11703 0.046,0.11703 0.025,0 0.059,0.0553 0.075,0.12333 0.016,0.068 0.084,0.20777 0.1505,0.31134 0.067,0.10319 0.1213,0.22514 0.1213,0.27019 0,0.0453 0.018,0.0818 0.041,0.0818 0.023,0 0.072,0.0806 0.1105,0.18021 0.038,0.0994 0.1083,0.23748 0.1555,0.30732 0.047,0.0692 0.086,0.16575 0.086,0.21306 0,0.0478 0.022,0.0856 0.049,0.0856 0.027,0 0.049,0.039 0.049,0.0856 0,0.0478 0.044,0.14925 0.098,0.22665 0.054,0.078 0.098,0.1714 0.098,0.20902 0,0.0378 0.017,0.068 0.037,0.068 0.021,0 0.068,0.0957 0.1067,0.21294 0.038,0.11703 0.11,0.26074 0.1592,0.31901 0.049,0.0579 0.09,0.13995 0.09,0.18135 0,0.10948 -2.6029,3.54708 -2.6862,3.54708 -0.01,0 -0.418,0.53824 -0.9121,1.19615 -0.4941,0.65793 -1.0384,1.35837 -1.2096,1.55668 -0.1711,0.19823 -0.8179,1.03148 -1.4372,1.85162 -0.6193,0.82005 -1.144,1.49106 -1.1661,1.49106 -0.022,0 -0.569,0.70065 -1.2156,1.55678 -0.6465,0.85621 -1.3339,1.74833 -1.5275,1.98263 -0.1937,0.2343 -0.7713,0.97912 -1.2837,1.65497 -0.5123,0.67602 -0.9495,1.22912 -0.9713,1.22912 -0.022,0 -0.067,0.0668 -0.1001,0.14747 -0.033,0.0802 -0.1357,0.22127 -0.2281,0.31137 -0.092,0.0906 -0.1809,0.21543 -0.1968,0.27847 -0.016,0.0626 -0.061,0.11456 -0.1,0.11456 -0.039,0 -0.5199,0.59715 -1.0691,1.32723 -0.5492,0.73003 -1.1141,1.46005 -1.2554,1.62223 -0.1411,0.16225 -0.7752,0.98068 -1.4089,1.81887 -0.6337,0.83812 -1.1715,1.52388 -1.1952,1.52388 -0.024,0 -0.5616,0.68582 -1.1956,1.524 -1.3596,1.7973 -1.5296,2.01532 -1.5712,2.01532 -0.017,0 -0.5039,0.62685 -1.0815,1.39289 -0.5775,0.76603 -1.1184,1.47355 -1.2021,1.57202 -0.084,0.0982 -0.1521,0.20921 -0.1521,0.24584 0,0.0369 -0.033,0.0668 -0.073,0.0668 -0.04,0 -0.5218,0.59722 -1.0704,1.32731 -0.5485,0.72983 -1.0701,1.40102 -1.159,1.49112 -0.089,0.0906 -0.6958,0.87176 -1.3485,1.73689 -0.6528,0.86526 -1.2656,1.65234 -1.3619,1.74925 -0.096,0.0969 -0.7065,0.87864 -1.3562,1.73709 -1.1507,1.52032 -1.5673,2.05214 -1.6075,2.05214 -0.011,0 -0.463,0.59003 -1.0047,1.31092 -0.5417,0.72096 -1.001,1.3108 -1.0206,1.3108 -0.019,0 -0.09,0.0881 -0.1573,0.1967 -0.067,0.10823 -0.1531,0.19658 -0.1916,0.19658 -0.039,0 -0.056,0.0175 -0.039,0.04 0.037,0.0494 -0.085,0.22165 -0.1578,0.22165 -0.029,0 -0.052,0.045 -0.052,0.10066 0,0.055 -0.036,0.11836 -0.081,0.14174 -0.044,0.0225 -0.4879,0.58215 -0.9859,1.24321 -0.4979,0.66119 -0.9255,1.20207 -0.9501,1.20207 -0.024,0 -0.045,0.0444 -0.045,0.0982 0,0.0544 -0.019,0.0981 -0.043,0.0981 -0.069,0 -0.2959,0.28185 -1.4095,1.75321 -0.5797,0.76604 -1.0704,1.3929 -1.0905,1.3929 -0.02,0 -0.074,0.0594 -0.1204,0.13117 -0.046,0.0718 -0.123,0.12842 -0.1704,0.12586 -0.048,0 -0.348,-0.35726 -0.6678,-0.78661 z"
/>
</svg>
