<?xml version="1.0" encoding="UTF-8" standalone="no"?>
<svg
xmlns:svg="http://www.w3.org/2000/svg"
xmlns:cc="http://creativecommons.org/ns#"
xmlns:dc="http://purl.org/dc/elements/1.1/"
xmlns="http://www.w3.org/2000/svg"
xmlns:rdf="http://www.w3.org/1999/02/22-rdf-syntax-ns#"
xmlns:sodipodi="http://sodipodi.sourceforge.net/DTD/sodipodi-0.dtd"
xmlns:inkscape="http://www.inkscape.org/namespaces/inkscape"
>
<path
id="path4331-1"
style="fill:#fcd116;fill-opacity:1;stroke:#c0c0c0;stroke-width:0.6833685;stroke-opacity:1"
d="m 31.3878999999999,57.3142 7.931,0 0,29.0466 -7.931,-29.0466 z"
/>
<path
id="path4333-6"
style="fill:#0054a0;fill-opacity:1;stroke:#c0c0c0;stroke-width:0.6833685;stroke-opacity:1"
d="m 58.7688000000001,57.3142 -7.9308,0 3.9654,34.5015 3.9654,-34.5015 z"
/>
<path
style="fill:#ef6b00;fill-opacity:1;stroke:#c0c0c0;stroke-width:0.6833685;stroke-opacity:1"
id="path4335"
d="m 68.8703,57.3142 -7.9308,0 0,29.0466 7.9308,-29.0466 z"
/>
<path
style="fill:#008751;fill-opacity:1;stroke:#c0c0c0;stroke-width:0.6833685;stroke-opacity:1"
id="path4337-5"
d="m 49.1186,57.3142 -7.9309,0 3.9656,34.5015 3.9653,-34.5015 z"
/>
<path
style="stroke:#c0c0c0;stroke-width:0.59194434;stroke-opacity:1"
id="path4339-0"
d="m 5.63359999999989,50.7666999999999 0.01,0.031 -0.087,0 c 1.4333,17.0441 10.987,39.9266 41.0206,43.7128 -19.0224,-9.6838 -23.2719,-27.1396 -24.453,-38.5437 l 55.8843,0 c -1.1719,11.4027 -5.4031,28.9049 -24.4598,38.606 29.9767,-3.779 39.5487,-26.5809 41.0102,-43.6147 l 0.032,-0.1915 -88.9535,0 z"
/>
<path
style="fill:#000000;fill-opacity:1;stroke:#c0c0c0;stroke-width:0.59088206px;stroke-opacity:1"
id="path7187"
d="m 13.0599999999999,44.4791 -1.4585,0 0,-3.6915 5.1528,0 q 0.013,0.483 0.019,0.719 0.01,0.2361 0.01,0.4185 0,1.3521 -0.1529,2.4681 -0.1528,1.1159 -0.4459,1.9745 -0.7133,2.0173 -1.8408,3.0904 -1.1272,1.0624 -2.5604,1.0624 -1.0573,0 -1.9682,-0.5903 -0.9043,-0.6008 -1.6051,-1.7598 -0.6942,-1.1589 -1.0508,-2.6505 -0.3567,-1.4916 -0.3567,-3.2407 0,-1.7598 0.3567,-3.2514 0.363,-1.5023 1.0508,-2.6397 0.6944,-1.1482 1.6051,-1.7491 0.9109,-0.601 1.9682,-0.601 1.4332,0 2.5477,1.0624 1.1147,1.0515 1.8217,3.0904 l -2.9872,1.8672 q -0.2357,-0.6546 -0.567,-0.9766 -0.3311,-0.3219 -0.7578,-0.3219 -0.7453,0 -1.1911,0.9551 -0.4395,0.955 -0.4395,2.5646 0,1.6633 0.4459,2.5862 0.4457,0.9121 1.2611,0.9121 0.4841,0 0.7834,-0.3435 0.3057,-0.3433 0.363,-0.9549 z"
/>
<path
d="m 26.9580000000001,45.434 -4.5413,0.01 0,0.1717 q 0,0.8478 0.1782,1.2663 0.1849,0.4078 0.5542,0.4078 0.223,0 0.3886,-0.2147 0.1655,-0.2253 0.2611,-0.6438 l 2.9618,0.3326 q -0.3885,1.8028 -1.3376,2.7793 -0.949,0.9766 -2.3248,0.9766 -0.7644,0 -1.4331,-0.3971 -0.6625,-0.3863 -1.1911,-1.1374 -0.5923,-0.8693 -0.9108,-2.0068 -0.3185,-1.1373 -0.3185,-2.3929 0,-1.2662 0.3185,-2.4037 0.3248,-1.1481 0.9108,-1.9959 0.5286,-0.7618 1.1911,-1.1482 0.6624,-0.3863 1.4331,-0.3863 1.0573,0 1.8981,0.719 0.8407,0.7082 1.4013,2.071 0.2866,0.6975 0.4267,1.5452 0.1465,0.837 0.1465,1.835 0,0.2575 -0.01,0.3863 0,0.1287 -0.01,0.2253 z m -4.5159,-2.4143 1.4459,0.01 q -0.019,-0.6547 -0.1975,-0.9658 -0.1719,-0.3112 -0.5159,-0.3112 -0.3057,0 -0.4968,0.3326 -0.1847,0.3219 -0.2357,0.9336 z"
id="path7189"
style="fill:#000000;fill-opacity:1;stroke:#c0c0c0;stroke-width:0.59088206px;stroke-opacity:1"
/>
<path
id="path7191"
style="fill:#000000;fill-opacity:1;stroke:#c0c0c0;stroke-width:0.59088206px;stroke-opacity:1"
d="m 33.2318,46.0994000000001 q 0.3439,0 0.5605,-0.4185 0.2166,-0.4185 0.2166,-1.0945 0,-0.6869 -0.2166,-1.0946 -0.2102,-0.4185 -0.5605,-0.4185 -0.3566,0 -0.5732,0.4185 -0.2101,0.4077 -0.2101,1.0946 0,0.6867 0.2101,1.1053 0.2166,0.4077 0.5732,0.4077 z m 3.8472,-1.513 q 0,1.2555 -0.3186,2.3929 -0.3184,1.1375 -0.9108,2.0067 -0.5159,0.7511 -1.1847,1.1374 -0.6623,0.3971 -1.4331,0.3971 -0.7706,0 -1.4331,-0.3864 -0.6624,-0.3863 -1.1911,-1.1481 -0.586,-0.837 -0.9108,-1.9853 -0.3184,-1.1588 -0.3184,-2.4143 0,-1.2663 0.3184,-2.4038 0.3248,-1.1481 0.9108,-1.9959 0.5287,-0.7618 1.1911,-1.1482 0.6625,-0.3863 1.4331,-0.3863 0.7708,0 1.4331,0.397 0.6688,0.3864 1.1975,1.1375 0.5796,0.8371 0.898,1.9852 0.3186,1.1482 0.3186,2.4145 z"
/>
<path
d="m 39.1999000000001,49.3079 0.8471,-3.4231 q 0.5287,0.6009 0.9681,0.9121 0.4396,0.3111 0.7516,0.3111 0.2549,0 0.3886,-0.1609 0.1338,-0.1717 0.1338,-0.4721 0,-0.4185 -0.5669,-0.6116 -0.1911,-0.064 -0.2994,-0.1074 -0.9299,-0.3864 -1.3567,-1.1375 -0.4203,-0.7619 -0.4203,-2.0066 0,-1.7492 0.8599,-2.8544 0.8662,-1.1053 2.2546,-1.1053 0.6944,0 1.3249,0.2253 0.6369,0.2146 1.1911,0.6547 l -0.7835,3.3372 q -0.4458,-0.5044 -0.8024,-0.7512 -0.3568,-0.2575 -0.618,-0.2575 -0.2165,0 -0.3503,0.1609 -0.1337,0.1503 -0.1337,0.4078 0,0.4186 0.7515,0.6868 0.1785,0.064 0.2804,0.1073 0.9617,0.3863 1.414,1.1375 0.4522,0.7404 0.4522,1.9423 0,1.8671 -0.8917,3.0475 -0.8917,1.1697 -2.3567,1.1697 -0.7962,0 -1.5605,-0.3113 -0.7643,-0.3004 -1.4777,-0.9013 z"
style="fill:#000000;fill-opacity:1;stroke:#c0c0c0;stroke-width:0.59088206px;stroke-opacity:1"
id="path7193"
/>
<path
d="m 51.8622,46.1851999999999 q 0.363,0 0.5923,-0.4399 0.2293,-0.4507 0.2293,-1.1804 0,-0.7297 -0.2293,-1.1804 -0.2293,-0.4507 -0.5923,-0.4507 -0.3694,0 -0.5988,0.4507 -0.2229,0.4507 -0.2229,1.1804 0,0.7297 0.2229,1.1804 0.2294,0.4399 0.5988,0.4399 z m -3.8726,8.7027 0,-15.8816 3.0509,0 0,1.4701 q 0.4205,-0.9227 0.9236,-1.3735 0.5095,-0.4507 1.121,-0.4507 1.191,0 1.9172,1.6418 0.7324,1.6311 0.7324,4.3567 0,2.5862 -0.7515,4.2173 -0.7453,1.631 -1.8981,1.631 -0.6242,0 -1.1337,-0.4722 -0.5095,-0.4828 -0.8982,-1.4379 0.039,0.3971 0.057,0.88 0.019,0.4721 0.019,1.0516 l 0,4.3674 -3.1401,0 z"
style="fill:#000000;fill-opacity:1;stroke:#c0c0c0;stroke-width:0.59088206px;stroke-opacity:1"
id="path7195"
/>
<path
id="path7197"
style="fill:#000000;fill-opacity:1;stroke:#c0c0c0;stroke-width:0.59088206px;stroke-opacity:1"
d="m 62.1041,46.0994000000001 q 0.3441,0 0.5606,-0.4185 0.2165,-0.4185 0.2165,-1.0945 0,-0.6869 -0.2165,-1.0946 -0.2102,-0.4185 -0.5606,-0.4185 -0.3567,0 -0.5732,0.4185 -0.2102,0.4077 -0.2102,1.0946 0,0.6867 0.2102,1.1053 0.2165,0.4077 0.5732,0.4077 z m 3.8472,-1.513 q 0,1.2555 -0.3185,2.3929 -0.3185,1.1375 -0.9108,2.0067 -0.5159,0.7511 -1.1848,1.1374 -0.6624,0.3971 -1.4331,0.3971 -0.7706,0 -1.4331,-0.3864 -0.6624,-0.3863 -1.191,-1.1481 -0.5861,-0.837 -0.9109,-1.9853 -0.3185,-1.1588 -0.3185,-2.4143 0,-1.2663 0.3185,-2.4038 0.3248,-1.1481 0.9109,-1.9959 0.5286,-0.7618 1.191,-1.1482 0.6625,-0.3863 1.4331,-0.3863 0.7707,0 1.4331,0.397 0.6689,0.3864 1.1975,1.1375 0.5796,0.8371 0.8981,1.9852 0.3185,1.1482 0.3185,2.4145 z"
/>
<path
d="m 68.7664,50.1018999999999 0,-11.0956 3.1019,0 0,1.556 q 0.4141,-0.955 0.9236,-1.4272 0.5095,-0.4829 1.1274,-0.4829 0.096,0 0.1401,0.01 0.051,0 0.089,0.01 l 0,5.3868 q -0.2675,-0.2468 -0.4904,-0.3648 -0.223,-0.118 -0.4077,-0.118 -0.6115,0 -0.949,0.5581 -0.3313,0.5579 -0.3313,1.5667 l 0,4.3995 -3.2038,0 z"
id="path7199"
style="fill:#000000;fill-opacity:1;stroke:#c0c0c0;stroke-width:0.59088206px;stroke-opacity:1"
/>
<path
d="m 77.2886000000001,50.1018999999999 0,-7.0071 -0.8981,0 0,-4.0885 0.8981,0 0,-3.6699 3.1975,0 0,3.6699 0.9108,0 0,4.0885 -0.9108,0 0,7.0071 -3.1975,0 z"
id="path7201"
style="fill:#000000;fill-opacity:1;stroke:#c0c0c0;stroke-width:0.59088206px;stroke-opacity:1"
/>
<path
d="m 83.0082,50.1018999999999 4.1721,-11.0312 -3.2612,0 0,-4.6786 8.5987,0 -4.0573,10.8703 3.5987,0 0,4.8395 -9.051,0 z"
style="fill:#000000;fill-opacity:1;stroke:#c0c0c0;stroke-width:0.59088206px;stroke-opacity:1"
id="path7203"
/>
<path
d="m 21.9994999999999,36.9718 -2.0605,-10.0477 q -0.15,-0.7375 -0.322,-1.1057 -0.1799,-0.3745 -0.449,-0.5878 -0.3402,-0.2698 -0.6807,-0.2304 -0.3484,0.033 -0.6119,0.3655 -0.3136,0.3957 -0.1335,0.8348 0.1802,0.4392 0.8767,0.9913 l -3.0612,3.8617 -0.1345,-0.1066 q -2.2237,-1.7627 -2.483,-4.004 -0.2671,-2.2478 1.4893,-4.4635 1.6748,-2.113 3.8544,-2.4729 2.1857,-0.3677 4.077,1.1315 0.9892,0.784 1.4404,1.8891 0.4576,1.0972 0.4858,2.8334 l 0.044,1.6195 2.3146,-2.9201 3.1891,2.528 -7.8347,9.8839 z"
id="path7211"
style="fill:#000000;fill-opacity:1;stroke:#c0c0c0;stroke-width:0.59088206px;stroke-opacity:1"
/>
<path
id="path7213"
style="fill:#000000;fill-opacity:1;stroke:#c0c0c0;stroke-width:0.59088206px;stroke-opacity:1"
d="m 32.3979999999999,16.9936 q 0.7379,1.4146 1.3341,1.9464 0.6007,0.5181 1.1468,0.2333 0.5462,-0.2849 0.4605,-1.0603 -0.09,-0.7844 -0.8374,-2.2169 -0.7426,-1.4235 -1.3342,-1.9464 -0.5916,-0.5228 -1.1378,-0.238 -0.5551,0.2896 -0.4695,1.065 0.086,0.7754 0.8375,2.2169 z m -4.584,2.3912 q -1.6486,-3.1605 -1.0879,-5.7537 0.565,-2.6067 3.1883,-3.9751 2.6413,-1.3777 5.0751,-0.3581 2.434,1.0197 4.0966,4.207 1.6626,3.1874 1.1108,5.7759 -0.5519,2.5884 -3.1931,3.9661 -2.6143,1.3637 -5.0802,0.3265 -2.4657,-1.0371 -4.1096,-4.1886 z"
/>
<ellipse
ry="48.038563"
style="fill:none;fill-opacity:1;stroke:#c0c0c0;stroke-width:3.92300558;stroke-opacity:1"
cy="49.9999"
cx="50"
id="circle4357"
rx="48.038498"
/>
<path
style="fill:#000000;fill-opacity:1;stroke:#c0c0c0;stroke-width:0.59088206px;stroke-opacity:1"
id="path7206"
d="m 65.559,12.2297 -1.9687,-1.0072 2.0423,-3.9915 6.6973,3.4267 -6.6695,13.0351 -4.7285,-2.4194 4.6271,-9.0437 z"
/>
<path
id="path7208"
style="fill:#000000;fill-opacity:1;stroke:#c0c0c0;stroke-width:0.59088206px;stroke-opacity:1"
d="m 75.9883,28.8481999999999 q 0.3104,0.3853 0.7978,0.3947 0.4952,0 0.9828,-0.3897 0.4796,-0.3864 0.5806,-0.8568 0.1009,-0.4703 -0.2222,-0.8713 -0.3167,-0.3933 -0.8041,-0.4026 -0.4873,-0.01 -0.967,0.3771 -0.4797,0.3864 -0.5821,0.8708 -0.096,0.4925 0.2142,0.8778 z m 4.5091,-3.6583 q 0.2344,0.291 0.6003,0.2945 0.38,0 0.734,-0.2801 0.3695,-0.2978 0.444,-0.656 0.074,-0.3582 -0.1662,-0.657 -0.2344,-0.291 -0.6003,-0.2946 -0.3596,0 -0.7292,0.3022 -0.3538,0.2851 -0.4362,0.6496 -0.074,0.3583 0.1536,0.6414 z m -3.1742,-1.7351 q -0.4659,-1.1417 -0.2532,-2.1171 0.227,-0.9739 1.0998,-1.677 1.4234,-1.1467 3.3571,-0.6296 1.9415,0.5107 3.5443,2.5002 1.6027,1.9896 1.682,3.9875 0.093,1.9994 -1.3299,3.146 -0.8808,0.7095 -1.8727,0.7176 -0.9919,0.01 -2.002,-0.6824 0.5346,1.3719 0.2956,2.5239 -0.2311,1.1457 -1.1984,1.925 -1.6121,1.2985 -3.6578,0.7551 -2.0394,-0.5356 -3.8385,-2.769 -1.7928,-2.2254 -1.8946,-4.3477 -0.088,-2.121 1.5166,-3.4133 0.9673,-0.7791 2.1359,-0.761 1.1829,0.02 2.4158,0.8418 z"
/>
</svg>
