<?xml version="1.0" encoding="UTF-8" standalone="no"?>
<svg
xmlns:inkscape="http://www.inkscape.org/namespaces/inkscape"
xmlns:sodipodi="http://sodipodi.sourceforge.net/DTD/sodipodi-0.dtd"
xmlns:dc="http://purl.org/dc/elements/1.1/"
xmlns="http://www.w3.org/2000/svg"
xmlns:rdf="http://www.w3.org/1999/02/22-rdf-syntax-ns#"
xmlns:svg="http://www.w3.org/2000/svg"
xmlns:cc="http://creativecommons.org/ns#"
>
<path
id="path4696"
style="fill:#5555ff"
d="m 0,100 c 0,-55.22753 14.17991,-100 31.67361,-100 0,0 0,0 0,0 l 28.56536,0 c 13.09323,0 24.82967,25.42858 29.54361,63.96827 l 10.21743,0 L 77.63007,100 l -26.61931,-36.03173 10.21192,0 c -2.82734,-23.10055 -8.26559,-42.06352 -15.26639,-53.22756 l 0,0 C 35.28496,27.75663 28.56525,62.27485 28.56525,100 Z"
/>
<path
d="m 0.189030000000002,100 c 0,-55.22753 14.17989,-100 31.67361,-100 4.96269,0 9.85526,3.68256 14.28267,10.74071 l 0,0 C 35.47398,27.75663 28.75427,62.27485 28.75427,100 Z"
id="path4698"
style="fill:#0000aa"
/>
</svg>
