<?xml version="1.0" encoding="UTF-8" standalone="no"?>
<svg
xmlns:inkscape="http://www.inkscape.org/namespaces/inkscape"
xmlns:sodipodi="http://sodipodi.sourceforge.net/DTD/sodipodi-0.dtd"
xmlns="http://www.w3.org/2000/svg"
xmlns:rdf="http://www.w3.org/1999/02/22-rdf-syntax-ns#"
xmlns:dc="http://purl.org/dc/elements/1.1/"
xmlns:cc="http://creativecommons.org/ns#"
xmlns:svg="http://www.w3.org/2000/svg"
>
<path
d="m 44.77684,99.922962 c -3.62402,-0.2375 -7.86925,-0.8275 -10.11756,-1.4018 -3.16891,-0.8107 -5.90095,-2.23 -5.90095,-3.0663 0,-0.275 0.40002,-1.5506 3.54084,-11.2924 0.6375,-1.9775 1.92761,-5.9868 2.86701,-8.9093 0.94011,-2.9231 2.34272,-7.2843 3.11712,-9.6912 1.69451,-5.2624 3.55392,-11.0886 3.91712,-12.2699 1.21441,-3.9518 2.05511,-5.6106 3.55892,-7.0243 1.73831,-1.63374 3.59592,-2.10374 5.78473,-1.46499 0.7182,0.21249 1.14701,0.49374 2.08451,1.37061 1.83701,1.72128 2.30271,2.73378 4.64033,10.08808 0.7513,2.3643 1.5482,4.8612 1.77071,5.5493 0.2188,0.6875 0.7057,2.2 1.0744,3.3606 0.3688,1.1606 1.31321,4.1143 2.09831,6.5643 0.78501,2.4506 1.78451,5.5806 2.22011,6.9562 0.43751,1.375 1.23321,3.8725 1.77261,5.5487 2.73202,8.4925 3.53832,11.065 3.53832,11.2887 0,0.2937 -0.8969,1.0487 -1.89191,1.5894 -2.36391,1.2837 -7.34114,2.2999 -13.44337,2.7437 -2.04451,0.149988 -8.71744,0.187488 -10.63125,0.062 z m -32.96455,-38.5284 c -1.43447,-0.7325 -4.25339,-4.3425 -6.29664,-8.0631 -2.60078,-4.7381 -4.29213,-9.91868 -5.19219,-15.90489 -0.43128,-2.86748 -0.43128,-10.3818 0,-13.25802 1.06132,-7.0812 3.3002,-13.2224 6.73354,-18.4717399 1.23944,-1.89499 3.22707,-4.36497 4.05587,-5.03934002 1.9645,-1.59874 4.9053,0 4.4209,2.37498002 -0.0625,0.3125 -0.46253,0.93187 -0.95818,1.48249 -0.50004,0.55 -0.79818,1.01687 -0.7263,1.125 0.075,0.11249 0.0625,0.14374 -0.075,0.075 -0.24376,-0.13749 -2.6014,3.16623 -2.4764,3.46685 0.0625,0.1125 0,0.16875 -0.0688,0.11875 -0.53128,-0.3 -3.93962,7.9955699 -4.81905,11.7274099 -1.43821,6.10246 -1.40571,13.9399 0.0813,19.91861 0.5813,2.32248 2.65955,7.8043 3.70836,9.7687 1.13382,2.1231 2.86393,4.6462 4.27089,6.2274 1.00131,1.1256 1.2457,1.745 1.05694,2.6775 -0.13126,0.6325 -0.77755,1.4037 -1.45697,1.7294 -0.55628,0.2687 -1.78199,0.2937 -2.26451,0.062 z m 73.82206,-0.2313 c -0.7738,-0.4625 -1.23321,-1.2119 -1.23321,-2.0037 0,-0.7838 0.2375,-1.2338 1.20881,-2.3144 1.30941,-1.4537 3.06452,-4.0206 4.19152,-6.1312 1.04881,-1.9637 3.13022,-7.44618 3.70832,-9.76804 1.48821,-5.97933 1.52141,-13.81677 0.081,-19.91923 -0.88,-3.73122 -4.29022,-12.0305299 -4.81962,-11.7267799 -0.081,0.0625 -0.1125,-0.006 -0.069,-0.11875 0.125,-0.3 -2.23582,-3.6056 -2.47642,-3.46748 -0.125,0.0688 -0.15,0.0625 -0.075,-0.075 0.075,-0.10625 -0.225,-0.575 -0.7263,-1.125 -0.90821,-1.00811 -1.14321,-1.64936 -0.95071,-2.6006 0.1563,-0.76937 1.16441,-1.70436002 1.99451,-1.84874002 1.52631,-0.2625 2.31832,0.21875 4.23963,2.57748002 4.65962,5.72683 7.69114,13.0036499 8.96864,21.5254699 0.43131,2.87622 0.43131,10.39117 0,13.25865 -0.8994,5.98558 -2.59071,11.16622 -5.19212,15.90422 -2.04641,3.7281 -4.86723,7.3512 -6.24544,8.0231 -0.7388,0.3625 -1.82511,0.2813 -2.61141,-0.1937 z m -60.82314,-9.1268 c -1.08382,-0.3 -3.04831,-2.6569 -4.75091,-5.69871 -2.49641,-4.46059 -3.70773,-8.9768 -3.89775,-14.53676 -0.24376,-7.1337 1.73636,-13.89052 5.6716,-19.34548 2.05514,-2.8493499 3.31271,-3.5374699 5.02531,-2.7499799 0.60629,0.28125 0.89569,0.5437499 1.18195,1.0662399 0.66754,1.22749 0.48128,1.87499 -1.03631,3.65997 -3.93837,4.62372 -6.05662,12.25179 -5.32721,19.18924 0.36878,3.52747 1.31134,6.73932 2.86331,9.77555 0.86005,1.68373 1.34071,2.4006 2.83017,4.22684 1.1307,1.38559 1.28133,2.08689 0.68067,3.16869 -0.61254,1.1082 -1.92199,1.61 -3.24083,1.2444 z m 48.62988,0.062 c -0.61251,-0.2187 -1.34011,-0.8881 -1.58701,-1.46 -0.47501,-1.0994 -0.3125,-1.7337 0.7513,-2.9581 3.09892,-3.56496 5.15283,-8.6043 5.72413,-14.04551 0.72881,-6.93745 -1.38881,-14.56552 -5.32723,-19.18923 -1.5207,-1.78499 -1.70381,-2.43248 -1.0363,-3.65997 0.2875,-0.525 0.575,-0.7881199 1.1819,-1.0662499 1.71261,-0.78749 2.97022,-0.1 5.02533,2.7499799 6.09103,8.44432 7.44294,20.44548 3.43332,30.48103 -1.20001,3.00372 -3.74772,7.03615 -5.33533,8.44435 -0.7756,0.6881 -2.01071,0.9956 -2.83011,0.7037 z m -11.41946,-9.4193 c -2.17452,-0.4625 -2.79332,-2.81936 -1.16691,-4.44559 1.21381,-1.21437 2.25951,-4.0981 2.41131,-6.6512 0.1938,-3.25811 -0.6556,-5.95058 -2.73141,-8.65494 -1.34691,-1.75499 -0.3312,-3.83497 1.93581,-3.96934 1.1194,-0.0688 1.66881,0.19999 2.60511,1.25874 1.46011,1.65123 2.69332,4.26309 3.33652,7.06557 0.3437,1.48811 0.2875,5.8187 -0.088,7.42432 -0.4688,1.97623 -1.21071,3.74184 -2.24461,5.33183 -1.44321,2.21999 -2.57382,2.95623 -4.05522,2.64061 z m -26.09724,-0.15 c -0.76321,-0.2875 -2.10891,-1.89936 -3.07642,-3.68247 -1.90891,-3.5156 -2.43641,-8.65806 -1.3107,-12.76803 0.8438,-3.08061 2.98261,-6.43308 4.46902,-7.0037 0.6694,-0.25625 2.03011,-0.13125 2.55761,0.2375 0.83821,0.58749 1.07011,1.03124 1.07011,2.05436 0,0.76437 -0.081,1.05749 -0.375,1.40686 -3.66212,4.27997 -3.88782,10.93242 -0.51881,15.37614 0.60631,0.80124 0.88631,1.33311 0.94251,1.79748 0.1876,1.55249 -0.92441,2.73686 -2.55572,2.71811 -0.4751,-0.006 -1.0113,-0.0688 -1.197,-0.1375 z m 12.89897,-6.31558 c -4.77663,-0.98187 -6.64794,-6.33745 -3.38772,-9.69618 1.31941,-1.35936 3.78022,-2.16373 5.63903,-1.84311 3.09711,0.53125 5.13413,2.62186 5.30103,5.43371 0.094,1.56999 -0.23131,2.69123 -1.07701,3.7531 -1.53881,1.92686 -4.07022,2.84685 -6.47533,2.35248 z"
style="fill:#303030;fill-opacity:1"
id="path4451"
/>
</svg>
