<?xml version="1.0" encoding="UTF-8" standalone="no"?>
<svg
xmlns:inkscape="http://www.inkscape.org/namespaces/inkscape"
xmlns:sodipodi="http://sodipodi.sourceforge.net/DTD/sodipodi-0.dtd"
xmlns:dc="http://purl.org/dc/elements/1.1/"
xmlns="http://www.w3.org/2000/svg"
xmlns:rdf="http://www.w3.org/1999/02/22-rdf-syntax-ns#"
xmlns:svg="http://www.w3.org/2000/svg"
xmlns:cc="http://creativecommons.org/ns#"
>
<path
d="m 8.38560000000007,0.244110000000006 c -3.2613,0.60002 -6.3041,3.59853 -7.7326,7.55646 l -0.653,1.83912 0,40.38236 0,40.38081 0.869,2.27975 c 1.0875,2.8782 3.4167,5.63765 5.5905,6.59706 1.522,0.6797 3.7892,0.72033 43.6964,0.72033 l 42.0811,0 1.7077,-1.03909 c 2.4845,-1.47973 3.8815,-3.23915 5.0308,-6.27673 l 1.0245,-2.6782 0,-39.9808 0,-39.9808 -1.0245,-2.6782 c -1.1178,-2.99852 -2.7333,-4.91732 -5.2178,-6.39705 l -1.522,-0.91878 -41.1488,-0.0407 c -22.6396,-0.0453 -41.8626,0.0751 -42.7013,0.23438 z"
id="path4391"
style="fill:#ffffff"
/>
<path
d="m 8.38560000000007,0.244110000000006 c -3.2613,0.60002 -6.3041,3.59853 -7.7326,7.55646 l -0.653,1.83912 0,40.38236 0,40.38081 0.869,2.27975 c 1.0875,2.8782 3.4167,5.63765 5.5905,6.59706 1.522,0.6797 3.7892,0.72033 43.6964,0.72033 l 42.0811,0 1.7077,-1.03909 c 2.4845,-1.47973 3.8815,-3.23915 5.0308,-6.27673 l 1.0245,-2.6782 0,-39.9808 0,-39.9808 -1.0245,-2.6782 c -1.1178,-2.99852 -2.7333,-4.91732 -5.2178,-6.39705 l -1.522,-0.91878 -41.1488,-0.0407 c -22.6396,-0.0453 -41.8626,0.0751 -42.7013,0.23438 z m 81.7698,49.85764 -0.094,37.10258 -40.1246,0.12028 -40.1548,0.0797 0,-37.18228 0,-37.18229 40.218,0 40.218,0 -0.063,37.06197 z"
style="fill:#404040;fill-opacity:1"
id="path4394"
/>
<path
id="path4557"
style="fill:#404040;fill-opacity:1"
d="m 41.6766,40.04903 c -0.6524,0.12 -1.2608,0.7197 -1.5466,1.51129 l -0.13,0.36782 0,8.0764 0,8.07611 0.174,0.45594 c 0.2174,0.57564 0.6834,1.12753 1.118,1.31941 0.3044,0.136 0.758,0.144 8.7393,0.144 l 8.4161,0 0.3416,-0.20782 c 0.4968,-0.29594 0.7762,-0.64781 1.006,-1.25533 l 0.205,-0.53563 0,-7.9961 0,-7.9961 -0.205,-0.53564 c -0.2234,-0.59969 -0.5466,-0.98345 -1.0434,-1.27941 l -0.3044,-0.1838 -8.2297,-0.008 c -4.528,-0.01 -8.3725,0.016 -8.5401,0.0468 z"
/>
</svg>
