<?xml version="1.0" encoding="UTF-8" standalone="no"?>
<svg
xmlns:sodipodi="http://sodipodi.sourceforge.net/DTD/sodipodi-0.dtd"
xmlns:inkscape="http://www.inkscape.org/namespaces/inkscape"
xmlns:svg="http://www.w3.org/2000/svg"
xmlns:cc="http://creativecommons.org/ns#"
xmlns:dc="http://purl.org/dc/elements/1.1/"
xmlns:rdf="http://www.w3.org/1999/02/22-rdf-syntax-ns#"
xmlns="http://www.w3.org/2000/svg"
>
<path
d="m 44.1504,99.602768 c -1.1835,-0.324834 -3.6558,-1.604267 -5.4941,-2.843181 -2.7036,-1.822113 -4.0095,-2.298957 -6.8339,-2.495332 -3.0324,-0.210831 -4.4724,0.126041 -10.9489,2.561387 -4.1015,1.542286 -8.3111,2.804156 -9.3547,2.804156 -2.1071,0 -6.4117,-2.469897 -6.9439,-3.984345 -0.2124,-0.604252 0.5792,-2.401238 2.0843,-4.731763 4.8716,-7.543016 7.6213,-14.113311 10.0446,-24.000633 l 1.3394,-5.464728 -2.626,-2.186668 c -10.7289,-8.933925 -16.9001,-21.599 -15.1105,-31.011468 0.7341,-3.860924 2.2505,-5.903682 4.3624,-5.876632 2.2781,0.02921 3.2913,1.192918 6.1455,7.058247 2.692,5.531869 5.1357,8.134136 7.6385,8.134136 1.1513,0 1.291,-0.425806 1.9145,-5.834809 1.8239,-15.82204 7.9957,-25.366531 19.2998,-29.8468122 7.3376,-2.9081749 16.6168,-2.42085538 23.9788,1.2593198 3.8538,1.9264922 8.8655,7.4040224 11.1941,12.2345374 2.2228,4.611291 3.9894,11.564712 4.5049,17.732664 l 0.3979,4.759333 1.669,-0.194636 c 3.1104,-0.362725 4.8873,-2.211202 7.7988,-8.112849 2.9952,-6.071055 4.6319,-7.674582 7.1336,-6.988989 1.9822,0.54322 3.2567,3.396195 3.5993,8.056865 0.6848,9.314763 -4.9084,19.615166 -16.1754,29.788409 l -2.6563,2.398434 1.4196,5.78046 c 1.7952,7.309983 6.0413,16.832184 9.7013,21.755839 1.556,2.0933 2.8292,4.027196 2.8292,4.29756 0,1.010548 -3.217,3.807369 -5.0573,4.396853 -2.4469,0.78374 -5.0847,0.294522 -10.7365,-1.991224 -3.4921,-1.412308 -5.8036,-1.91018 -9.9705,-2.14758 l -5.4244,-0.309048 -4.6826,2.556495 c -3.9421,2.152185 -5.3315,2.594458 -8.7856,2.796552 -2.2567,0.132032 -5.0714,-0.02575 -6.2549,-0.35055 z"
id="path4373"
style="fill:#303030"
/>
<path
style="fill:#ffffff;fill-opacity:1"
id="path4371"
d="m 62.1840999999999,57.153125 2.9255,-1.809092 c 3.3345,-2.061903 5.1542,-4.016628 4.6191,-4.961895 -0.5095,-0.900046 -36.3128,-0.900046 -36.8223,0 -0.5314,0.938983 1.2784,2.896088 4.548,4.918119 l 2.8546,1.765307 c 8.534,11.784586 13.8898,12.427972 21.8751,0.08756 z"
/>
<path
style="fill:#ffffff;fill-opacity:1"
id="path4363"
d="m 41.3948999999998,32.819502 c 3.0648,-3.661677 1.4864,-8.737583 -3.075,-9.888511 -3.5436,-0.89408 -7.3421,2.389744 -7.3421,6.347069 0,0.867936 0.7395,2.461588 1.6432,3.541442 1.3683,1.634758 2.1026,1.963377 4.387,1.963377 2.2844,0 3.0186,-0.328619 4.3869,-1.963377 z"
/>
<path
d="m 67.3948999999998,32.819623 c 3.0648,-3.661677 1.4864,-8.737583 -3.075,-9.888511 -3.5436,-0.89408 -7.3421,2.389744 -7.3421,6.347069 0,0.867936 0.7395,2.461588 1.6432,3.541442 1.3683,1.634758 2.1026,1.963377 4.387,1.963377 2.2844,0 3.0186,-0.328619 4.3869,-1.963377 z"
id="path4384"
style="fill:#ffffff;fill-opacity:1"
/>
</svg>
