<?xml version="1.0" encoding="UTF-8" standalone="no"?>
<svg
xmlns:rdf="http://www.w3.org/1999/02/22-rdf-syntax-ns#"
xmlns="http://www.w3.org/2000/svg"
xmlns:dc="http://purl.org/dc/elements/1.1/"
xmlns:cc="http://creativecommons.org/ns#"
xmlns:svg="http://www.w3.org/2000/svg"
xmlns:inkscape="http://www.inkscape.org/namespaces/inkscape"
xmlns:sodipodi="http://sodipodi.sourceforge.net/DTD/sodipodi-0.dtd"
>
<path
d="m 23.0331000000001,0.188949 c -2.7398,0.464447 -5.2961,2.785443 -6.4962,5.849079 l -0.5486,1.423571 0,31.257967 0,31.256767 0.73,1.764641 c 0.9137,2.227871 2.8704,4.363823 4.6967,5.106454 1.2786,0.526122 3.1833,0.557572 36.7099,0.557572 l 35.3529,0 1.4346,-0.804308 c 2.0873,-1.145385 3.2609,-2.507264 4.2265,-4.858503 l 0.8607,-2.073061 0,-30.94714 0,-30.947138 -0.8607,-2.073062 c -0.9391,-2.321004 -2.2963,-3.806251 -4.3835,-4.951636 l -1.2787,-0.711183 -34.5696,-0.03151 c -19.0199,-0.03506 -35.1694,0.05814 -35.874,0.181422 z"
id="path4910"
style="fill:#ffffff;fill-opacity:1"
/>
<path
id="path4890"
style="fill:#303030"
d="m 23.0332000000001,0.188995 c -2.7399,0.464443 -5.2962,2.785447 -6.4963,5.849075 l -0.5486,1.423565 0,31.257956 0,31.256747 0.73,1.76464 c 0.9137,2.227873 2.8704,4.363825 4.6967,5.10645 1.2786,0.526126 3.1833,0.557572 36.7101,0.557572 l 35.3531,0 1.4346,-0.804308 c 2.0873,-1.145383 3.2609,-2.507264 4.2265,-4.858505 l 0.8607,-2.073059 0,-30.947118 0,-30.947118 -0.8607,-2.073059 c -0.9391,-2.321004 -2.2963,-3.806253 -4.3835,-4.951636 l -1.2787,-0.711178 -34.5698,-0.03145 c -19.02,-0.03508 -35.1695,0.05805 -35.8741,0.181422 z m 68.6962,38.59228 -0.079,28.719245 -33.7093,0.09313 -33.7348,0.06168 0,-28.780929 0,-28.780929 33.7878,0 33.7878,0 -0.053,28.687799 z"
/>
<path
d="m 7.0447999999999,22.783949 c -2.7398,0.464447 -5.2961,2.785443 -6.4962,5.849079 l -0.5486,1.423571 0,31.257967 0,31.256767 0.7301,1.764641 c 0.9136,2.227871 2.8704,4.363823 4.6966,5.106454 1.2787,0.526122 3.1834,0.557572 36.71,0.557572 l 35.3528,0 1.4347,-0.804308 c 2.0872,-1.145385 3.2609,-2.507264 4.2265,-4.858503 l 0.8606,-2.073061 0,-30.94714 0,-30.947138 -0.8606,-2.073062 c -0.9391,-2.321004 -2.2963,-3.806251 -4.3836,-4.951636 l -1.2787,-0.711183 -34.5696,-0.03151 c -19.0198,-0.03506 -35.1694,0.05814 -35.874,0.181422 z"
id="path4882"
style="fill:#ffffff;fill-opacity:1"
/>
<path
style="fill:#303030"
id="path4715"
d="m 7.5471,17.280088 c -2.9352,0.497548 -5.6738,2.983992 -6.9594,6.265993 l -0.5877,1.525036 0,33.486003 0,33.484708 0.7821,1.890422 c 0.9788,2.386675 3.075,4.674876 5.0314,5.470435 1.3699,0.563628 3.4103,0.597315 39.3269,0.597315 l 37.8729,0 1.537,-0.861639 c 2.236,-1.227025 3.4933,-2.68598 4.5278,-5.204816 L 90,91.71272 l 0,-33.153009 0,-33.153008 -0.9219,-2.220826 c -1.0061,-2.486443 -2.46,-4.07756 -4.6961,-5.304585 l -1.3698,-0.76187 -37.034,-0.03369 c -20.3756,-0.03758 -37.6763,0.06219 -38.4311,0.194353 z m 73.5928,41.343113 -0.085,30.766334 -36.1121,0.09977 -36.1393,0.06608 0,-30.832415 0,-30.832415 36.1961,0 36.1962,0 -0.057,30.732646 z"
/>
<path
d="m 14.2099000000001,82.081456 c -0.1342,-0.134959 -0.2439,-6.948665 -0.2439,-15.141569 l 0,-14.896176 1.392,0 c 1.8667,0 55.5589,4.704813 56.1415,4.919443 0.3593,0.13229 0.4373,2.862216 0.3626,12.672757 l -0.095,12.504173 -28.6565,0.09338 c -15.761,0.05139 -28.7661,-0.01701 -28.9002,-0.152006 z"
id="path4749-6"
style="fill:#303030"
/>
<path
d="m 73.6551999999999,66.232455 c -0.1418,-0.142776 -0.2579,-2.038007 -0.2579,-4.211636 0,-3.708846 0.045,-3.952049 0.7248,-3.952049 0.7029,0 0.7249,-0.243202 0.7249,-8.007491 l 0,-8.007501 -2.0838,-0.109402 -2.0838,-0.109402 0,-1.459217 0,-1.459219 3.4427,0 3.4426,0 0,13.680169 0,13.680162 -1.8258,0.107594 c -1.0042,0.05915 -1.9419,-0.0092 -2.0837,-0.151998 z"
style="fill:#303030"
id="path4751-9"
/>
<path
d="m 41.3581999999999,51.108301 c -15.3294,-1.370412 -28.0974,-2.578862 -28.3732,-2.685441 -0.3745,-0.144633 -0.4746,-0.819793 -0.3946,-2.661239 l 0.1075,-2.467434 30.0383,-0.09331 c 21.8917,-0.06805 30.172,0.01833 30.5309,0.318268 0.3646,0.304379 0.4927,1.532477 0.4927,4.714741 0,2.366728 -0.099,4.562813 -0.22,4.880191 -0.3156,0.828649 -0.8439,0.795741 -32.1815,-2.00577 z"
id="path4753-3"
style="fill:#303030"
/>
<path
d="m 14.1146000000001,41.515828 c -0.1115,-0.292182 -0.1497,-0.996551 -0.085,-1.565263 l 0.1176,-1.034033 3.0803,0 3.0803,0 0,1.459219 0,1.459218 -2.9954,0.106048 c -2.3586,0.08349 -3.0386,-0.007 -3.1978,-0.425186 z"
id="path4755-9"
style="fill:#303030"
/>
<path
d="m 28.9806000000001,41.53723 c -0.1064,-0.279802 -0.1448,-1.558485 -0.086,-2.841531 l 0.1096,-2.332798 13.9517,0 13.952,0 0,2.736025 0,2.736034 -3.0493,0.106925 c -3.3077,0.115983 -3.6394,-0.0513 -3.6493,-1.839744 l -0.011,-1.003217 -7.2258,0 -7.2258,0 -0.1127,1.368021 -0.1123,1.368013 -3.1768,0.1055 c -2.4554,0.08158 -3.2208,-0.01008 -3.3708,-0.403227 z"
id="path4757-3"
style="fill:#303030"
/>
</svg>
