<?xml version="1.0" encoding="UTF-8" standalone="no"?>
<svg
xmlns:dc="http://purl.org/dc/elements/1.1/"
xmlns:rdf="http://www.w3.org/1999/02/22-rdf-syntax-ns#"
xmlns="http://www.w3.org/2000/svg"
xmlns:svg="http://www.w3.org/2000/svg"
xmlns:cc="http://creativecommons.org/ns#"
xmlns:inkscape="http://www.inkscape.org/namespaces/inkscape"
xmlns:sodipodi="http://sodipodi.sourceforge.net/DTD/sodipodi-0.dtd"
>
<rect
style="opacity:1;fill:#c0c0c0;fill-opacity:1;stroke:none;stroke-width:2;stroke-opacity:1"
width="100"
id="rect4428"
y="0"
x="0"
height="100"
/>
<rect
id="rect4360"
y="50"
width="44.999996"
style="fill:#0a6b9e;fill-opacity:1;stroke:#ffffff;stroke-width:0;stroke-miterlimit:4;stroke-dasharray:none"
height="44.999996"
x="5"
/>
<rect
height="44.999996"
x="5"
width="44.999996"
y="5"
style="fill:#ffcc00;fill-opacity:1;stroke:#ffffff;stroke-width:0;stroke-opacity:1"
id="rect4362"
/>
<rect
x="50"
height="44.999996"
y="50"
id="rect4364"
width="44.999996"
style="fill:#ff5a00;fill-opacity:1;stroke:#ffffff;stroke-width:0;stroke-miterlimit:4;stroke-dasharray:none"
/>
<rect
width="44.999996"
y="5"
id="rect4366"
style="fill:#008444;fill-opacity:1;stroke:#ffffff;stroke-width:0;stroke-miterlimit:4;stroke-dasharray:none"
height="44.999996"
x="50"
/>
<path
d="m 26.43177,73.59866 c -0.46405,-0.29024 -0.50144,-0.83016 -0.0819,-1.18316 0.50998,-0.4291 1.28449,-0.0612 1.28449,0.61018 0,0.1022 -0.0943,0.29045 -0.20964,0.41834 -0.27724,0.30755 -0.65449,0.3663 -0.99291,0.15464 z m -2.48157,-1.15038 c -0.2582,-0.2031 -0.33191,-0.58986 -0.17155,-0.89997 0.15196,-0.29385 0.33166,-0.39269 0.71402,-0.39269 0.34296,0 0.66509,0.24477 0.7459,0.56673 0.0611,0.24324 -0.0858,0.62043 -0.29983,0.77037 -0.23487,0.16452 -0.75248,0.14122 -0.98854,-0.0445 z m 8.03457,-1.00058 c -0.65697,-0.44639 -0.33734,-1.43556 0.46387,-1.43556 0.67437,0 1.00206,0.78591 0.54097,1.29739 -0.2898,0.32146 -0.66012,0.37238 -1.00484,0.13817 z m -10.11715,-0.2063 c -0.28849,-0.18064 -0.44683,-0.58378 -0.33983,-0.86521 0.10148,-0.26691 0.44368,-0.5165 0.70814,-0.5165 0.7012,0 1.06476,0.72208 0.61484,1.22113 -0.27402,0.30399 -0.65481,0.36618 -0.98315,0.16058 z m 6.76916,-0.50711 c -0.28712,-0.24159 -0.35955,-0.54747 -0.2128,-0.89867 0.13262,-0.31743 0.319,-0.43333 0.69687,-0.43333 0.35646,0 0.54218,0.10288 0.6853,0.37963 0.18354,0.35496 0.14407,0.5977 -0.14406,0.88583 -0.32796,0.32795 -0.68694,0.35127 -1.02531,0.0665 z m -8.93644,-1.17366 c -0.56783,-0.56784 0.0404,-1.46081 0.82135,-1.20588 0.34198,0.11164 0.59442,0.52763 0.51419,0.84731 -0.14982,0.59691 -0.89668,0.79742 -1.33554,0.35857 z m 6.19482,-0.19622 c -0.27494,-0.23135 -0.35349,-0.5036 -0.2424,-0.84023 0.10376,-0.31437 0.36782,-0.49405 0.72607,-0.49405 0.35417,0 0.54008,0.10333 0.68297,0.37961 0.14879,0.28776 0.14554,0.49827 -0.0118,0.76466 -0.24457,0.41401 -0.78326,0.50265 -1.15482,0.19001 z m -1.82208,-1.00521 c -0.0929,-0.0187 -0.25585,-0.13739 -0.3621,-0.26367 -0.6536,-0.77673 0.42861,-1.73751 1.14745,-1.01867 0.51313,0.51315 -0.0489,1.4309 -0.78535,1.28234 z m 9.20346,-0.0796 c -0.51866,-0.26377 -0.6073,-0.80198 -0.19926,-1.21001 0.19503,-0.19504 0.32457,-0.2592 0.52333,-0.2592 0.52764,0 0.90808,0.52627 0.7427,1.02735 -0.15422,0.46729 -0.62962,0.6642 -1.06677,0.44186 z m -3.48423,-0.25022 c -0.22572,-0.091 -0.43007,-0.41958 -0.43007,-0.69169 0,-0.32348 0.1632,-0.57918 0.4593,-0.71967 0.33831,-0.16057 0.65126,-0.0895 0.89811,0.20384 0.54101,0.64295 -0.13702,1.52587 -0.92734,1.20752 z m 6.63826,-0.074 c -0.25841,-0.10439 -0.48698,-0.45342 -0.48698,-0.74362 0,-0.33473 0.41291,-0.78253 0.72159,-0.78253 0.44984,0 0.79877,0.3414 0.80136,0.78408 0.002,0.36276 -0.16905,0.62923 -0.47211,0.73487 -0.27241,0.0949 -0.34442,0.0959 -0.56386,0.007 l 0,1e-5 z m -18.84135,-0.45901 c -0.31428,-0.19161 -0.43214,-0.4455 -0.36729,-0.79117 0.10461,-0.55764 0.7954,-0.77339 1.2504,-0.39053 0.28805,0.24237 0.35171,0.4988 0.20878,0.84086 -0.0772,0.18467 -0.19745,0.30553 -0.38,0.38181 -0.34657,0.14481 -0.41351,0.14096 -0.71189,-0.0409 z m 8.90579,-0.47387 c -0.10251,-0.054 -0.25297,-0.21209 -0.33433,-0.3514 -0.12922,-0.22126 -0.13646,-0.29159 -0.0572,-0.55615 0.25057,-0.83631 1.39028,-0.73089 1.50701,0.13938 0.035,0.26068 0.009,0.34145 -0.17722,0.54791 -0.2507,0.27817 -0.65004,0.37194 -0.93826,0.22026 z m 17.7604,-0.22629 c -0.48521,-0.32874 -0.48274,-1.07153 0.004,-1.32346 0.35786,-0.18506 0.73556,-0.14229 0.98994,0.11207 0.66239,0.6624 -0.21927,1.73653 -0.99433,1.21139 l -5e-5,0 3e-5,0 z m -22.47949,-0.17845 c -0.38573,-0.32457 -0.38646,-0.8138 -0.002,-1.17222 0.24971,-0.23263 0.77541,-0.22014 1.01979,0.0242 0.71837,0.71839 -0.24183,1.80113 -1.01804,1.14799 l 0,0 1e-5,0 z m 27.21172,-0.74814 c -0.23907,-0.13794 -0.38351,-0.40861 -0.38686,-0.72489 -0.002,-0.1909 0.0628,-0.32081 0.25649,-0.51457 0.34242,-0.34242 0.69862,-0.35483 1.05461,-0.0367 0.21219,0.18958 0.24896,0.27377 0.24896,0.56999 0,0.27258 -0.0427,0.3903 -0.19801,0.54558 -0.23741,0.23741 -0.70784,0.3149 -0.97519,0.16064 z m -9.08585,-0.57801 c -0.49069,-0.49068 -0.11998,-1.30178 0.59497,-1.30178 0.43446,0 0.8145,0.48728 0.72897,0.93467 -0.0605,0.31639 -0.42968,0.58996 -0.79617,0.58996 -0.2354,0 -0.35576,-0.0508 -0.52777,-0.22285 z m -8.14256,-0.036 c -0.41217,-0.22844 -0.51067,-0.8052 -0.20046,-1.17387 0.47814,-0.56824 1.33555,-0.24721 1.33555,0.50008 0,0.61576 -0.59864,0.97114 -1.13509,0.67379 z m -16.0332,-0.41942 c -0.33363,-0.29811 -0.3495,-0.74407 -0.0376,-1.05599 0.28318,-0.28318 0.78873,-0.29536 1.07553,-0.0259 0.74091,0.69604 -0.27945,1.75963 -1.03795,1.08191 z m 7.87946,-0.048 c -0.38574,-0.32459 -0.38647,-0.81378 -0.002,-1.17223 0.2497,-0.23264 0.77541,-0.22014 1.01977,0.0243 0.71838,0.71837 -0.24181,1.80112 -1.01803,1.14797 l 0,0 1e-5,0 z m 11.18877,-0.0302 c -0.17477,-0.17478 -0.22284,-0.29116 -0.22284,-0.53951 0,-0.24834 0.0481,-0.36471 0.22284,-0.53948 0.17475,-0.17475 0.29113,-0.22284 0.53948,-0.22284 0.24834,0 0.36472,0.0481 0.53949,0.22284 0.17475,0.17477 0.22283,0.29114 0.22283,0.53948 0,0.24835 -0.0481,0.36473 -0.22283,0.53951 -0.17477,0.17475 -0.29115,0.22281 -0.53949,0.22281 -0.24835,0 -0.36473,-0.0481 -0.53948,-0.22281 z m -6.47971,-0.38117 c -0.49105,-0.49104 -0.15506,-1.30181 0.53948,-1.30181 0.24835,0 0.36473,0.0481 0.53949,0.22284 0.49105,0.49104 0.15506,1.30179 -0.53949,1.30179 -0.24835,0 -0.36473,-0.0481 -0.53948,-0.22282 z m 17.83492,-0.068 c -0.52189,-0.46632 -0.17814,-1.30993 0.53374,-1.30993 0.3794,0 0.67416,0.22979 0.73917,0.5763 0.1467,0.78202 -0.68333,1.26042 -1.27291,0.73363 z m -26.28236,-0.0567 c -0.4566,-0.38422 -0.35415,-1.0722 0.19374,-1.30112 0.81271,-0.33955 1.44759,0.69409 0.79029,1.28665 -0.30484,0.27481 -0.66828,0.28014 -0.98403,0.0145 z m 18.09663,-0.41053 c -0.69207,-0.28325 -0.58043,-1.35822 0.1554,-1.49626 0.53845,-0.10102 1.05173,0.45182 0.90252,0.97211 -0.12334,0.43009 -0.65012,0.69106 -1.05792,0.52415 z m 12.62476,-0.56378 c -0.23906,-0.13796 -0.3835,-0.40861 -0.38685,-0.72489 -0.002,-0.19088 0.0627,-0.32081 0.25649,-0.51457 0.34242,-0.3424 0.69862,-0.35481 1.05461,-0.0367 0.21219,0.18959 0.24895,0.27376 0.24895,0.57 0,0.27258 -0.0427,0.39028 -0.198,0.54559 -0.23742,0.23741 -0.70783,0.31488 -0.9752,0.16062 z m -28.61247,-0.39778 c -0.26315,-0.14277 -0.36403,-0.33166 -0.36403,-0.68158 0,-0.37786 0.1159,-0.56426 0.43332,-0.69687 0.35121,-0.14674 0.65709,-0.0742 0.89868,0.21281 0.31495,0.3743 0.22772,0.91213 -0.18772,1.15755 -0.26204,0.15477 -0.50532,0.15733 -0.78025,0.008 z m -7.21651,-0.2883 c -0.3622,-0.20903 -0.5046,-0.76684 -0.27823,-1.09003 0.27284,-0.38953 0.96955,-0.41859 1.25756,-0.0525 0.21339,0.27129 0.2061,0.72032 -0.0159,0.97836 -0.20714,0.24083 -0.68843,0.32281 -0.96345,0.16413 z m 11.45361,-0.0496 c -0.61748,-0.24919 -0.48233,-1.34427 0.18157,-1.4712 0.74531,-0.14247 1.24638,0.78944 0.71186,1.32396 -0.23212,0.23212 -0.55233,0.28488 -0.89343,0.14724 z m 17.07831,-0.14871 c -0.4757,-0.20074 -0.64127,-0.88292 -0.30289,-1.24802 0.33591,-0.36246 0.77884,-0.36455 1.13804,-0.005 0.54304,0.54305 -0.12886,1.55141 -0.83515,1.25337 l 0,4e-5 z m -9.48234,-0.0582 c -0.40742,-0.14892 -0.62783,-0.67814 -0.45561,-1.09394 0.13014,-0.31414 0.35366,-0.45308 0.72899,-0.45308 0.5705,0 0.91701,0.5487 0.68985,1.09241 -0.15975,0.38231 -0.59677,0.58858 -0.96323,0.45461 z m 6.23317,-0.47351 c -0.21375,-0.19099 -0.24896,-0.27274 -0.24896,-0.57799 0,-0.30527 0.0352,-0.38702 0.24896,-0.57801 0.17365,-0.15515 0.32892,-0.22244 0.51335,-0.22244 0.18444,0 0.33971,0.0672 0.51336,0.22244 0.21374,0.19099 0.24896,0.27274 0.24896,0.57801 0,0.30525 -0.0352,0.387 -0.24896,0.57799 -0.17365,0.15515 -0.32892,0.22244 -0.51336,0.22244 -0.18443,0 -0.3397,-0.0672 -0.51335,-0.22244 z m -9.33517,0.0692 c -0.40665,-0.16377 -0.55954,-0.82221 -0.27857,-1.19961 0.32065,-0.43072 0.98572,-0.42866 1.24944,0.004 0.23114,0.37911 0.19543,0.70807 -0.11009,1.01357 -0.2678,0.26781 -0.51724,0.3206 -0.86078,0.18223 l 0,-2e-5 0,4e-5 z m -12.50154,-0.492 c -0.52871,-0.22995 -0.61271,-0.91993 -0.15852,-1.30208 0.19885,-0.16733 0.29383,-0.19613 0.53851,-0.16332 0.76748,0.10293 0.98933,1.02902 0.34118,1.42419 -0.29197,0.17804 -0.39329,0.18381 -0.72117,0.0413 z m 29.02874,-0.52842 c -0.4337,-0.24039 -0.51384,-0.81937 -0.16711,-1.20742 0.19098,-0.21373 0.27274,-0.24897 0.57799,-0.24897 0.30526,0 0.38702,0.0353 0.578,0.24897 0.6107,0.68348 -0.18384,1.65361 -0.98888,1.20742 z m 4.23828,-0.35222 c -0.68346,-0.5376 -0.15979,-1.61685 0.6811,-1.4037 0.88585,0.22454 0.72125,1.55739 -0.19232,1.55739 -0.17876,0 -0.36977,-0.0601 -0.48878,-0.15369 z m -14.63206,-0.14501 c -0.21374,-0.19097 -0.24895,-0.27274 -0.24895,-0.57799 0,-0.30525 0.0352,-0.38703 0.24895,-0.57799 0.67475,-0.60289 1.64464,0.21314 1.16495,0.98012 -0.27942,0.44673 -0.77761,0.52195 -1.16495,0.17586 z m -15.91303,0.0592 c -0.29511,-0.11482 -0.45178,-0.29275 -0.5043,-0.57277 -0.17903,-0.95418 1.11791,-1.31488 1.49082,-0.4146 0.23813,0.57489 -0.40142,1.21499 -0.98652,0.98737 z m 3.28058,-0.31455 c -0.10253,-0.0518 -0.25299,-0.20834 -0.33435,-0.34764 -0.12921,-0.22125 -0.13646,-0.29161 -0.0572,-0.55617 0.25226,-0.84198 1.39036,-0.73024 1.50817,0.14807 0.0381,0.28427 0.0164,0.34024 -0.22677,0.58339 -0.28996,0.28994 -0.55575,0.34141 -0.88987,0.17235 z m 4.21906,-0.69625 c -0.29171,-0.29172 -0.3364,-0.59009 -0.14405,-0.96205 0.23248,-0.44958 0.8167,-0.52677 1.18667,-0.15679 0.22111,0.2211 0.25469,0.32507 0.22351,0.69194 -0.0239,0.28141 -0.13086,0.44196 -0.38032,0.57096 -0.35493,0.18355 -0.59768,0.14407 -0.88581,-0.14406 z m -14.90212,-0.0292 c -0.40986,-0.36621 -0.30074,-0.99501 0.20967,-1.20829 0.76967,-0.32157 1.45101,0.61651 0.86986,1.19768 -0.30642,0.3064 -0.74366,0.3107 -1.07953,0.0106 z m 30.64338,-0.30656 c -0.22402,-0.20018 -0.25857,-0.27858 -0.25857,-0.58695 0,-0.29517 0.0364,-0.38718 0.21327,-0.53932 0.29259,-0.25166 0.516,-0.29255 0.8459,-0.15469 0.31472,0.13149 0.54631,0.55189 0.47047,0.85404 -0.0804,0.32052 -0.36498,0.5711 -0.69945,0.61595 -0.27192,0.0365 -0.34703,0.0116 -0.57162,-0.18903 z m -10.36515,-0.46637 c -0.17457,-0.17457 -0.22283,-0.29124 -0.22283,-0.53863 0,-0.1737 0.0353,-0.3818 0.0785,-0.46249 0.0923,-0.1725 0.45919,-0.37692 0.67646,-0.37692 0.67769,0 1.02229,0.85693 0.54852,1.36411 -0.3076,0.32929 -0.75944,0.33512 -1.08064,0.0139 z m 7.5038,0.0709 c -0.25436,-0.10266 -0.40838,-0.38465 -0.40838,-0.74767 0,-0.26527 0.0448,-0.37672 0.22284,-0.55478 0.5032,-0.50322 1.3018,-0.11861 1.3018,0.62693 0,0.16302 -0.0776,0.31036 -0.25919,0.49191 -0.26697,0.26698 -0.51748,0.32064 -0.85707,0.1836 z m -9.2158,-0.45436 c -0.36023,-0.14601 -0.54566,-0.64452 -0.38383,-1.03184 0.34769,-0.83215 1.49184,-0.56119 1.49184,0.35327 0,0.31541 -0.43141,0.75304 -0.73564,0.74627 -0.11949,-0.003 -0.28706,-0.0331 -0.37237,-0.0677 z m 5.91061,-0.48186 c -0.10482,-0.0521 -0.25334,-0.22293 -0.33004,-0.37957 -0.44296,-0.90458 0.88529,-1.59485 1.36277,-0.70823 0.36254,0.67322 -0.3523,1.42615 -1.03273,1.0878 z m 14.20797,-0.16498 c -0.48563,-0.21135 -0.64493,-0.81162 -0.32376,-1.21994 0.22622,-0.28758 0.47407,-0.36683 0.83945,-0.26847 0.32613,0.0878 0.59815,0.42595 0.59867,0.74413 7.2e-4,0.29485 -0.22406,0.63108 -0.49784,0.74547 -0.31077,0.12985 -0.31545,0.12984 -0.61652,-9e-4 l 0,-1e-5 0,2e-5 z m -35.21021,-0.15071 c -0.73892,-0.73893 0.26664,-1.81574 1.04562,-1.11973 0.53131,0.47471 0.17876,1.30374 -0.55441,1.30374 -0.22311,0 -0.35756,-0.0504 -0.49121,-0.18401 z m 3.50703,-0.0405 c -0.42957,-0.17581 -0.60169,-0.72288 -0.35259,-1.12072 0.31731,-0.50675 1.07128,-0.4773 1.34529,0.0526 0.33047,0.63907 -0.32302,1.34226 -0.9927,1.06813 z m 27.41375,-0.11056 c -0.4337,-0.24034 -0.51383,-0.81935 -0.16711,-1.2074 0.19098,-0.21373 0.27273,-0.24897 0.57799,-0.24897 0.30526,0 0.38701,0.0353 0.57799,0.24897 0.6107,0.68351 -0.18383,1.65362 -0.98887,1.2074 z m -34.57954,-0.7444 c -0.71289,-0.39204 -0.46348,-1.43615 0.34304,-1.43615 0.81434,0 1.05811,1.06661 0.329,1.43949 -0.20886,0.1068 -0.47415,0.10548 -0.67204,-0.003 l 0,-2e-5 0,-2e-5 z m 30.94405,9e-4 c -0.19417,-0.0943 -0.41319,-0.4502 -0.41319,-0.67156 0,-0.09 0.0518,-0.26375 0.11514,-0.3862 0.30249,-0.58496 1.17497,-0.50098 1.41732,0.13643 0.23612,0.62108 -0.49602,1.22375 -1.11927,0.92133 l 0,0 z m -20.37754,-0.0953 c -0.4145,-0.22974 -0.51068,-0.80523 -0.19692,-1.17811 0.46438,-0.5519 1.33199,-0.24881 1.33199,0.46531 0,0.37495 -0.0993,0.55907 -0.37963,0.70404 -0.27093,0.14011 -0.51339,0.1429 -0.75544,0.009 z m 4.1665,-0.1923 c -0.21374,-0.19098 -0.24896,-0.27273 -0.24896,-0.57799 0,-0.30525 0.0352,-0.38702 0.24896,-0.57799 0.32217,-0.28787 0.67916,-0.29759 1.00043,-0.0273 0.29098,0.24483 0.37228,0.61325 0.2062,0.93442 -0.2673,0.51689 -0.78673,0.62401 -1.20663,0.24883 l 0,0 z m 5.92582,0.0578 c -0.27828,-0.15305 -0.41583,-0.39574 -0.41758,-0.73688 -0.001,-0.26422 0.0427,-0.37418 0.22114,-0.55268 0.49181,-0.4918 1.30181,-0.15503 1.30181,0.54125 0,0.26049 -0.0472,0.36557 -0.25919,0.5776 -0.27336,0.27335 -0.55589,0.33036 -0.84618,0.17071 z m -1.91342,-0.55187 c -0.1856,-0.18559 -0.25919,-0.3277 -0.25919,-0.50052 0,-0.74338 0.79781,-1.12234 1.30181,-0.61834 0.48984,0.48985 0.16556,1.37805 -0.50313,1.37805 -0.21713,0 -0.33871,-0.0584 -0.53949,-0.25919 z m 8.99445,0.10825 c -0.2418,-0.0977 -0.48698,-0.45097 -0.48698,-0.70167 0,-0.27832 0.18419,-0.64285 0.37694,-0.74599 0.21947,-0.11745 0.63322,-0.0947 0.83387,0.0458 0.75562,0.52924 0.12746,1.74581 -0.72383,1.40184 z m -4.14806,-1.36394 c -0.28418,-0.28419 -0.34133,-0.53269 -0.20017,-0.87055 0.31684,-0.75831 1.3639,-0.59413 1.47459,0.23123 0.0348,0.25919 0.007,0.33831 -0.20471,0.57922 -0.20484,0.2333 -0.29464,0.27903 -0.54789,0.27903 -0.2319,0 -0.3542,-0.0514 -0.52182,-0.21893 z m -7.28938,-0.0765 c -0.26834,-0.16804 -0.44899,-0.5944 -0.36692,-0.86597 0.0287,-0.095 0.14052,-0.26706 0.24848,-0.38237 0.3739,-0.39935 1.10497,-0.20575 1.27766,0.33833 0.21268,0.67012 -0.56605,1.28143 -1.15922,0.91001 z m -9.25915,-0.29959 c -0.52355,-0.46777 -0.19705,-1.31082 0.50766,-1.31082 0.40567,0 0.69738,0.21999 0.76423,0.5763 0.14291,0.76175 -0.69795,1.24734 -1.27189,0.73452 z m 31.7676,-0.065 c -0.23735,-0.23734 -0.31249,-0.47804 -0.24017,-0.76944 0.11894,-0.47918 0.65044,-0.7422 1.11285,-0.55067 0.27765,0.11501 0.45252,0.42436 0.45252,0.8005 0,0.64387 -0.86269,0.98211 -1.3252,0.51961 z m -4.30756,0.0199 c -0.4337,-0.24037 -0.51383,-0.81935 -0.16711,-1.20741 0.19098,-0.21373 0.27273,-0.24896 0.57799,-0.24896 0.30525,0 0.38701,0.0353 0.57799,0.24896 0.6107,0.6835 -0.18383,1.65362 -0.98887,1.20741 z m -23.18874,-0.34513 c -0.17476,-0.17476 -0.22283,-0.29113 -0.22283,-0.53949 0,-0.24836 0.0481,-0.36473 0.22283,-0.53949 0.17476,-0.17476 0.29114,-0.22283 0.53948,-0.22283 0.24835,0 0.36473,0.0481 0.53949,0.22283 0.49105,0.49106 0.15506,1.3018 -0.53949,1.3018 -0.24834,0 -0.36472,-0.0481 -0.53948,-0.22282 z m -7.41095,-0.007 c -0.60383,-0.47499 -0.30201,-1.371 0.46183,-1.371 0.63049,0 0.96059,0.57352 0.6622,1.15056 -0.19932,0.38545 -0.77159,0.49766 -1.12403,0.22044 l 0,0 z m 26.69761,-0.0692 c -0.49105,-0.49104 -0.15507,-1.3018 0.53948,-1.3018 0.44577,0 0.76232,0.31655 0.76232,0.76231 0,0.24835 -0.0481,0.36472 -0.22283,0.53949 -0.17476,0.17478 -0.29114,0.22283 -0.53949,0.22283 -0.24835,0 -0.36473,-0.0481 -0.53948,-0.22283 l 0,0 z m -30.45805,-0.11539 c -0.88599,-0.3856 -0.45089,-1.68345 0.4848,-1.44605 0.69327,0.1759 0.78007,1.12972 0.13084,1.43781 -0.29609,0.14047 -0.31132,0.14068 -0.61564,0.008 z m 27.13929,-0.0415 c -0.0885,-0.0357 -0.23769,-0.16224 -0.33142,-0.28105 -0.13458,-0.17054 -0.16281,-0.28411 -0.13424,-0.53992 0.0427,-0.38224 0.15653,-0.53915 0.49325,-0.6799 0.21052,-0.088 0.28696,-0.0872 0.50864,0.005 0.66271,0.27689 0.71014,1.15268 0.0787,1.45234 -0.27622,0.13105 -0.37925,0.13828 -0.6149,0.0431 l 0,0 0,-2e-5 z m -5.48869,-0.38117 c -0.24224,-0.0979 -0.48697,-0.45114 -0.48697,-0.70288 0,-0.70524 0.75518,-1.07598 1.28449,-0.63063 0.67686,0.56957 0.022,1.66461 -0.79752,1.33351 z m -2.96134,-0.13898 c -0.74388,-0.16087 -0.84715,-1.21749 -0.14756,-1.5098 0.33197,-0.13871 0.58582,-0.0909 0.83394,0.15729 0.31621,0.31621 0.33807,0.75614 0.0547,1.10023 -0.14802,0.17974 -0.50873,0.30253 -0.74105,0.25228 z m 20.01608,-1.33693 c -0.23906,-0.13795 -0.3835,-0.40861 -0.38685,-0.72489 -0.002,-0.19091 0.0628,-0.32082 0.25649,-0.51457 0.34242,-0.3424 0.69862,-0.35481 1.05461,-0.0367 0.21219,0.1896 0.24896,0.27377 0.24896,0.57002 0,0.27256 -0.0427,0.39028 -0.19801,0.54555 -0.23742,0.23743 -0.70784,0.3149 -0.9752,0.16061 z m -25.08028,-0.0804 c -0.4337,-0.24039 -0.51383,-0.81937 -0.1671,-1.20743 0.19097,-0.21372 0.27273,-0.24894 0.57798,-0.24894 0.30526,0 0.38701,0.0353 0.57799,0.24894 0.6107,0.6835 -0.18383,1.65362 -0.98887,1.20743 z m 16.08492,-0.0762 c -0.4337,-0.24039 -0.51383,-0.81937 -0.1671,-1.20743 0.19097,-0.21375 0.27273,-0.24894 0.57799,-0.24894 0.30525,0 0.38701,0.0353 0.57799,0.24894 0.6107,0.6835 -0.18383,1.65364 -0.98888,1.20743 z m -5.33623,-0.38115 c -0.4337,-0.24038 -0.51383,-0.81939 -0.16711,-1.20744 0.19098,-0.21373 0.27274,-0.24895 0.57799,-0.24895 0.30526,0 0.38702,0.0352 0.578,0.24895 0.6107,0.68349 -0.18384,1.65363 -0.98888,1.20744 z m -15.62753,-0.0762 c -0.43369,-0.24038 -0.51383,-0.81937 -0.1671,-1.20742 0.19097,-0.21373 0.27272,-0.24895 0.57799,-0.24895 0.30525,0 0.38701,0.0353 0.57798,0.24895 0.61071,0.68349 -0.18382,1.65361 -0.98887,1.20742 z m 25.15652,-0.15245 c -0.4337,-0.2404 -0.51384,-0.81938 -0.16711,-1.20744 0.19097,-0.21373 0.27274,-0.24894 0.57799,-0.24894 0.30526,0 0.38701,0.0353 0.57799,0.24894 0.6107,0.68349 -0.18383,1.65363 -0.98887,1.20744 z m -28.96811,-0.53363 c -0.4337,-0.24039 -0.51383,-0.81937 -0.16711,-1.20743 0.19097,-0.21373 0.27273,-0.24894 0.57799,-0.24894 0.30526,0 0.38702,0.0352 0.57799,0.24894 0.61071,0.6835 -0.18383,1.65362 -0.98887,1.20743 z m -4.6533,-0.28764 c -0.65698,-0.4464 -0.33735,-1.43556 0.46386,-1.43556 0.67437,0 1.00207,0.7859 0.54097,1.29739 -0.28979,0.32146 -0.66012,0.37238 -1.00483,0.13817 z m 16.92663,-0.16976 c -0.4337,-0.24037 -0.51383,-0.81939 -0.16711,-1.20743 0.19098,-0.21373 0.27273,-0.24894 0.57799,-0.24894 0.30526,0 0.38702,0.0352 0.57799,0.24894 0.6107,0.68349 -0.18383,1.65364 -0.98887,1.20743 z m 3.88782,-0.15247 c -0.43369,-0.24039 -0.51383,-0.81937 -0.16711,-1.20741 0.19098,-0.21374 0.27274,-0.24896 0.57799,-0.24896 0.30526,0 0.38702,0.0353 0.578,0.24896 0.6107,0.68348 -0.18384,1.65362 -0.98888,1.20741 z m 7.01334,-0.22868 c -0.4337,-0.24039 -0.51384,-0.81937 -0.16711,-1.20742 0.19098,-0.21373 0.27273,-0.24897 0.57799,-0.24897 0.30525,0 0.38701,0.0353 0.57799,0.24897 0.6107,0.68349 -0.18384,1.65361 -0.98887,1.20742 z m -17.30463,-0.38117 c -0.4337,-0.24039 -0.51384,-0.81936 -0.16712,-1.2074 0.19098,-0.21375 0.27274,-0.24898 0.57799,-0.24898 0.30526,0 0.38702,0.0353 0.57799,0.24898 0.61072,0.68349 -0.18382,1.65361 -0.98886,1.2074 z m 27.51969,-0.30079 c -0.23906,-0.13794 -0.3835,-0.40859 -0.38685,-0.72487 -0.002,-0.1909 0.0627,-0.32081 0.25649,-0.51455 0.34242,-0.34242 0.69862,-0.35485 1.0546,-0.0368 0.2122,0.18959 0.24896,0.27378 0.24896,0.57 0,0.27258 -0.0427,0.39029 -0.198,0.54557 -0.23741,0.23742 -0.70784,0.31491 -0.9752,0.16062 z m -5.64115,-0.23284 c -0.4337,-0.24037 -0.51384,-0.81935 -0.16711,-1.20739 0.19098,-0.21375 0.27274,-0.24896 0.57798,-0.24896 0.30527,0 0.38702,0.0352 0.57799,0.24896 0.61071,0.6835 -0.18383,1.6536 -0.98886,1.20739 z m -6.9371,-0.91477 c -0.4337,-0.24038 -0.51384,-0.81936 -0.16711,-1.20742 0.19098,-0.21375 0.27273,-0.24896 0.57799,-0.24896 0.30525,0 0.38702,0.0353 0.57799,0.24896 0.6107,0.68349 -0.18383,1.65362 -0.98887,1.20742 z m -19.28667,-0.2287 c -0.43369,-0.24038 -0.51383,-0.81936 -0.1671,-1.20742 0.19097,-0.21375 0.27273,-0.24894 0.57799,-0.24894 0.30526,0 0.38702,0.0353 0.57798,0.24894 0.61071,0.68351 -0.18382,1.65361 -0.98887,1.20742 z m 6.6327,-0.24662 c -0.26719,-0.18714 -0.39879,-0.56191 -0.31012,-0.88306 0.0923,-0.33422 0.2864,-0.51229 0.61573,-0.56482 0.81508,-0.12997 1.27567,0.80397 0.67196,1.36255 -0.26507,0.24527 -0.69558,0.28283 -0.97757,0.0853 z m -11.59092,-0.11724 c -0.65698,-0.44639 -0.33735,-1.43556 0.46387,-1.43556 0.67437,0 1.00206,0.78591 0.54097,1.2974 -0.2898,0.32146 -0.66013,0.37236 -1.00484,0.13816 z m 21.05781,-0.67414 c -0.38565,-0.15529 -0.51255,-0.88851 -0.21138,-1.22129 0.35786,-0.39543 0.98783,-0.34267 1.26119,0.10563 0.43045,0.70594 -0.25592,1.43538 -1.04981,1.11566 z m 14.31693,-0.0251 c -0.23906,-0.13793 -0.38351,-0.4086 -0.38685,-0.72488 -0.002,-0.1909 0.0627,-0.32081 0.25648,-0.51455 0.34242,-0.34241 0.69862,-0.35484 1.05461,-0.0368 0.21219,0.18959 0.24896,0.27377 0.24896,0.57001 0,0.27257 -0.0427,0.39029 -0.19801,0.54557 -0.23741,0.2374 -0.70783,0.31487 -0.97519,0.16062 z m -6.68631,-0.23319 c -0.33714,-0.33713 -0.35446,-0.69997 -0.0495,-1.0382 0.28979,-0.32144 0.66011,-0.37237 1.00483,-0.13815 0.45408,0.30853 0.48696,0.89209 0.07,1.24291 -0.33836,0.28471 -0.69734,0.26141 -1.02531,-0.0665 z m -14.10454,-0.003 c -0.31701,-0.13799 -0.48623,-0.39614 -0.48623,-0.74174 0,-0.41465 0.2543,-0.67779 0.70402,-0.72848 0.32116,-0.0362 0.37864,-0.0174 0.58829,0.19221 0.18417,0.18419 0.23232,0.29778 0.23232,0.54814 0,0.41725 -0.10109,0.5872 -0.43133,0.72518 -0.32466,0.13566 -0.30647,0.13552 -0.60707,0.005 l 0,0 0,4e-5 z m 3.25752,-0.30178 c -0.4337,-0.24037 -0.51383,-0.81937 -0.16711,-1.20741 0.19098,-0.21373 0.27274,-0.24896 0.578,-0.24896 0.30525,0 0.38701,0.0353 0.57798,0.24896 0.6107,0.68349 -0.18383,1.65362 -0.98887,1.20741 z M 21.893,45.68722 c -0.29033,-0.0802 -0.4375,-0.21357 -0.56064,-0.50812 -0.19318,-0.46218 0.16771,-0.98913 0.72899,-1.0644 0.27747,-0.0372 0.33594,-0.0141 0.57766,0.22753 0.19392,0.1939 0.26894,0.33592 0.26894,0.50903 0,0.57356 -0.49344,0.97999 -1.01495,0.83596 z m 27.0184,-1.62043 c -0.23906,-0.13795 -0.3835,-0.40861 -0.38685,-0.72489 -0.002,-0.1909 0.0627,-0.32083 0.25649,-0.51457 0.34242,-0.3424 0.69862,-0.35481 1.05461,-0.0368 0.21219,0.1896 0.24896,0.27376 0.24896,0.57 0,0.27258 -0.0427,0.3903 -0.19801,0.54559 -0.23742,0.23741 -0.70784,0.31488 -0.9752,0.1606 z m -7.64968,-0.16956 c -0.72474,-0.39325 -0.44172,-1.48155 0.38529,-1.48155 0.46768,0 0.77699,0.30968 0.7746,0.77551 -0.003,0.65238 -0.59501,1.01252 -1.15989,0.70603 z m -15.88929,-0.82674 c -0.2982,-0.13421 -0.40623,-0.32572 -0.40623,-0.72018 0,-0.81427 1.13814,-1.07733 1.48635,-0.34356 0.33519,0.70637 -0.35777,1.3888 -1.08012,1.06374 z m 13.04017,-0.4973 c -0.4272,-0.18203 -0.59848,-0.71179 -0.37184,-1.15006 0.39678,-0.76731 1.61785,-0.30737 1.45722,0.54886 -0.0898,0.47863 -0.64774,0.78769 -1.08538,0.6012 z m -9.49948,-0.80586 c -0.78682,-0.44263 -0.18418,-1.73282 0.65954,-1.41206 0.50078,0.19041 0.67535,0.85829 0.32944,1.26042 -0.21447,0.24933 -0.68662,0.32174 -0.98898,0.15164 z m 6.58148,-0.0679 c -0.5091,-0.28218 -0.51846,-1.11638 -0.0155,-1.37649 0.3465,-0.17917 0.65708,-0.14835 0.9233,0.0916 0.70061,0.6316 -0.0837,1.74163 -0.90784,1.28486 z m 11.58723,0.004 c -0.23905,-0.13795 -0.3835,-0.4086 -0.38684,-0.7249 -0.002,-0.19088 0.0627,-0.32081 0.25649,-0.51456 0.34241,-0.34241 0.69861,-0.35483 1.0546,-0.0367 0.21219,0.18959 0.24896,0.27377 0.24896,0.57001 0,0.27256 -0.0427,0.39029 -0.19801,0.54557 -0.23741,0.2374 -0.70783,0.31489 -0.9752,0.16062 z m -15.55445,-0.13932 c -0.65697,-0.4464 -0.33734,-1.43555 0.46387,-1.43555 0.67437,0 1.00207,0.78589 0.54097,1.29738 -0.2898,0.32146 -0.66013,0.37238 -1.00484,0.13817 z m 13.64866,-1.69025 c -0.23906,-0.13795 -0.38351,-0.4086 -0.38685,-0.72488 -0.002,-0.1909 0.0627,-0.32083 0.25648,-0.51458 0.34243,-0.34241 0.69863,-0.35481 1.05462,-0.0367 0.21219,0.18959 0.24896,0.27377 0.24896,0.57002 0,0.27255 -0.0427,0.39028 -0.19801,0.54557 -0.23742,0.23741 -0.70784,0.31488 -0.9752,0.16061 z m -2.52404,-1.78152 c -0.1592,-0.0814 -0.32306,-0.25151 -0.40628,-0.42181 -0.18021,-0.36878 -0.0733,-0.73712 0.29561,-1.01849 0.21358,-0.16291 0.30783,-0.18826 0.54648,-0.1469 0.79972,0.13857 1.06387,1.04746 0.43862,1.50928 -0.27786,0.20524 -0.57379,0.2316 -0.87443,0.0779 z m -2.75021,-1.38835 c -0.47902,-0.47902 -0.15225,-1.32261 0.51231,-1.32261 0.40734,0 0.69199,0.19889 0.79983,0.55889 0.16574,0.55316 -0.19134,0.98654 -0.81286,0.98654 -0.20391,0 -0.33492,-0.0584 -0.49928,-0.22282 z m -14.54919,-0.55237 c -0.65697,-0.44639 -0.33734,-1.43556 0.46387,-1.43556 0.67437,0 1.00206,0.7859 0.54097,1.29739 -0.2898,0.32146 -0.66012,0.37238 -1.00484,0.13817 z m 11.59642,-0.48224 c -0.74446,-0.62641 0.0641,-1.77825 0.90117,-1.28377 0.45664,0.26975 0.51192,0.82399 0.12117,1.21474 -0.32684,0.32682 -0.68706,0.35116 -1.02234,0.069 z m -8.70811,0.0341 c -0.23289,-0.0899 -0.45413,-0.4392 -0.45413,-0.71707 0,-0.83308 1.09664,-1.11854 1.49012,-0.3879 0.3531,0.65566 -0.3253,1.37921 -1.03599,1.10497 z m 2.65812,-0.43183 c -0.65683,-0.40747 -0.35499,-1.47137 0.41707,-1.47006 0.24767,4.8e-4 0.65637,0.27608 0.74157,0.50021 0.1338,0.35191 0.0857,0.57057 -0.18486,0.84118 -0.29578,0.29578 -0.63266,0.34029 -0.97378,0.12867 z m 2.51537,-0.0157 c -0.29954,-0.2364 -0.40358,-0.61115 -0.26303,-0.94755 0.11817,-0.28283 0.45002,-0.5073 0.74923,-0.50681 0.29377,4.8e-4 0.65846,0.27438 0.7316,0.54949 0.14172,0.53291 -0.14711,0.96915 -0.68115,1.02881 -0.26081,0.0292 -0.37655,0.002 -0.53665,-0.12394 z"
style="fill:#ffffff;fill-opacity:1"
id="path4368"
/>
<path
d="m 83.18491,86.10131 c -2.34545,-1.69029 -4.26449,-3.20595 -4.26449,-3.36833 0,-0.31219 9.40859,-5.86063 9.60498,-5.66416 0.20297,0.20313 -0.64899,12.10568 -0.86642,12.10568 -0.11525,0 -2.12862,-1.38297 -4.47407,-3.07319 z m 4.25211,-3.12715 c 0.0991,-2.23015 0.12798,-4.10723 0.064,-4.17114 -0.13894,-0.13901 -1.45227,0.76781 -4.06405,2.80599 l -1.91995,1.49829 2.533,1.94189 c 1.39309,1.06815 2.68459,1.95045 2.86989,1.96094 0.22018,0.0121 0.39931,-1.38457 0.51711,-4.03597 z m -67.93937,-4.2974 c -0.23609,-0.54784 -3.13441,-6.77388 -6.44069,-13.83569 -3.3063,-7.06172 -6.00851,-12.99262 -6.00493,-13.17956 0.003,-0.18709 1.54067,-1.51244 3.41573,-2.94535 1.87509,-1.43296 3.56172,-2.74998 3.74804,-2.92665 0.18652,-0.17674 2.01399,-1.58376 4.06121,-3.12667 l 3.72225,-2.8052 2.71437,-6.44466 2.71444,-6.44475 4.80672,-0.005 c 4.30941,-0.005 4.82311,-0.0624 4.96539,-0.54334 0.0873,-0.29508 0.45039,-2.12256 0.80671,-4.06117 0.35643,-1.93865 0.71492,-3.80276 0.79659,-4.1425 0.14424,-0.59875 0.34807,-0.61496 6.64671,-0.5277 3.57386,0.0495 6.94625,0.16128 7.49414,0.24846 l 0.99613,0.15847 0,3.95048 0,3.95053 4.71229,2.47215 c 2.59183,1.35969 4.7986,2.47218 4.90416,2.47218 0.1054,0 0.19156,-4.33601 0.19156,-9.63555 l 0,-9.63555 1.14944,0.17153 c 0.63219,0.0944 1.37526,0.39608 1.65122,0.67041 0.3674,0.36514 16.15714,20.47668 25.45355,32.4206 0.38267,0.4914 0.0485,2.37698 -3.02961,17.09649 l -2.68747,12.85107 -4.73778,2.29686 c -3.21232,1.55734 -4.77905,2.17313 -4.86585,1.91277 -0.0703,-0.21118 -0.80886,-1.40195 -1.64099,-2.64612 -6.57363,-9.82839 -20.42701,-12.96816 -34.95458,-7.92207 -5.52214,1.91811 -11.8106,5.34924 -17.55592,9.57882 -1.17649,0.86615 -2.24352,1.57473 -2.37129,1.57473 -0.12779,0 -0.42547,-0.44824 -0.66154,-0.99617 z m 5.93806,-4.27664 c 9.94107,-5.96587 18.46004,-9.53172 25.43979,-10.64846 4.69497,-0.75117 10.2351,-0.24617 14.00536,1.27675 3.73376,1.50809 7.77664,4.90625 10.68336,8.97956 0.77987,1.09284 1.57864,1.98696 1.77537,1.98696 0.19662,0 2.14358,-0.52386 4.32677,-1.16413 l 3.96939,-1.16403 1.47454,-9.64016 c 0.81089,-5.30203 1.72989,-11.57119 2.04218,-13.93124 l 0.56779,-4.29103 -0.98187,-1.37926 c -2.91347,-4.09266 -22.33362,-30.20329 -22.5168,-30.27415 -0.19109,-0.074 -0.61958,5.53942 -1.15997,15.19444 -0.15248,2.72411 -0.24413,3.13283 -0.66822,2.97853 -0.27046,-0.0984 -3.00605,-1.24326 -6.07952,-2.54425 l -5.58798,-2.36546 -0.005,-3.88986 c -0.002,-2.13943 -0.10914,-3.95048 -0.23567,-4.02455 -0.12641,-0.0742 -3.0005,-0.23362 -6.38679,-0.35433 l -6.15692,-0.21953 -0.38119,5.00988 c -0.20984,2.75542 -0.41816,5.04655 -0.46307,5.09149 -0.045,0.0449 -2.45024,-0.083 -5.34523,-0.28421 -3.23502,-0.22488 -5.36068,-0.25618 -5.5156,-0.0812 -0.13884,0.15664 -1.31766,3.18581 -2.61972,6.7315 l -2.36714,6.4467 -2.50806,1.87896 c -1.37943,1.03344 -4.30108,3.21341 -6.4926,4.84428 -2.19148,1.63086 -4.02527,3.07522 -4.07502,3.20983 -0.0499,0.13441 2.20759,5.98953 5.01642,13.01116 5.01408,12.53472 5.11884,12.75905 5.76081,12.3409 0.35961,-0.2342 2.37791,-1.46054 4.48515,-2.72509 z"
style="fill:#000000"
id="path4370"
/>
<path
d="m 18.95958,27.13625 c -0.23577,-0.70468 -0.46283,-1.33348 -0.50457,-1.39731 -0.0417,-0.0639 -0.32299,-0.16866 -0.62501,-0.23291 -2.12975,-0.45306 -4.15888,-2.47429 -4.7502,-4.73174 l -0.18121,-0.69176 -1.37253,-0.46557 c -0.75489,-0.25605 -1.33623,-0.49791 -1.29186,-0.53744 0.0444,-0.0395 0.63898,-0.2693 1.32133,-0.51054 0.68236,-0.24126 1.27572,-0.47102 1.31857,-0.51058 0.0429,-0.0396 0.14885,-0.34431 0.23555,-0.67719 0.54292,-2.08441 2.33045,-3.87881 4.5344,-4.55186 l 0.71235,-0.21754 0.47586,-1.4168 c 0.26172,-0.77924 0.50445,-1.4168 0.53939,-1.4168 0.0349,0 0.28152,0.64245 0.54793,1.42766 l 0.48439,1.42764 0.60607,0.1252 c 1.67455,0.34586 3.5197,1.85167 4.32907,3.53294 0.23269,0.48332 0.45314,1.06899 0.48989,1.30149 l 0.0668,0.42266 1.35935,0.46875 c 0.74764,0.25779 1.34765,0.50955 1.33334,0.55948 -0.0143,0.0499 -0.58098,0.27686 -1.25929,0.50433 -0.67831,0.22745 -1.26052,0.44138 -1.29378,0.47543 -0.0333,0.0341 -0.13025,0.33646 -0.21553,0.67203 -0.29687,1.16817 -0.83412,2.07872 -1.797,3.04564 -0.97998,0.98408 -1.68355,1.40004 -2.89668,1.71254 l -0.71805,0.18498 -0.43214,1.24529 c -0.23768,0.68489 -0.46716,1.31005 -0.50996,1.38924 -0.0491,0.091 -0.2358,-0.32822 -0.50649,-1.13726 z m 0.25607,-7.61293 c -0.0653,-0.0653 -1.9221,1.86041 -1.9221,1.99352 0,0.0617 0.23762,0.78401 0.52804,1.60491 0.29041,0.82095 0.72077,2.05089 0.95633,2.73325 l 0.4283,1.24066 0.0272,-3.76374 c 0.0149,-2.07004 0.007,-3.78391 -0.0177,-3.8086 z m -0.9101,5.74912 c -0.0215,-0.0645 -0.39091,-0.24149 -0.8209,-0.39326 -0.42998,-0.15177 -1.0117,-0.42349 -1.2927,-0.60381 -1.13004,-0.72513 -2.23128,-2.13988 -2.58924,-3.32633 -0.2268,-0.75174 -0.3827,-0.91843 -0.29471,-0.31513 0.0373,0.2559 0.25889,0.85951 0.49238,1.3414 0.71282,1.47109 2.15612,2.69412 3.80041,3.2204 0.6889,0.22049 0.75509,0.22769 0.70476,0.0767 z m 3.2269,-0.18752 c 1.23095,-0.37969 2.66883,-1.55622 3.37536,-2.76182 0.29897,-0.51016 0.76014,-1.69984 0.76014,-1.96096 0,-0.34846 -0.26022,-0.0426 -0.41909,0.49246 -0.27204,0.91642 -0.78861,1.77202 -1.49839,2.4818 -0.78773,0.78772 -1.57019,1.28341 -2.50385,1.58617 -0.37589,0.12191 -0.70347,0.28177 -0.72797,0.35525 -0.0299,0.0896 0.0191,0.11399 0.14862,0.074 0.10623,-0.0328 0.49557,-0.1529 0.86518,-0.26691 z m -3.4118,-0.36178 c 0,-0.0546 -0.63975,-1.85204 -0.67538,-1.89749 -0.0339,-0.0433 -1.71883,0.39181 -1.89139,0.48838 -0.31354,0.17547 1.73461,1.41786 2.38584,1.44724 0.0995,0.005 0.18093,-0.0126 0.18093,-0.0382 z m 3.67318,-0.30314 c 0.74884,-0.36302 1.5996,-0.936 1.5996,-1.07736 0,-0.0727 -1.97339,-0.5717 -2.01971,-0.51072 -0.0104,0.0137 -0.16172,0.4552 -0.33629,0.98118 -0.37565,1.13178 -0.35706,1.14668 0.7564,0.6069 z m -6.18161,-3.25981 c -0.0239,-0.14209 -1.71799,-0.77998 -1.81464,-0.68332 -0.17737,0.17737 0.61553,1.84129 1.14951,2.41229 l 0.22367,0.23916 0.23301,-0.91119 c 0.12816,-0.50114 0.22196,-0.97678 0.20845,-1.05694 z m 6.95411,1.17964 c -0.36633,-0.36962 -0.69774,-0.67204 -0.73647,-0.67204 -0.0776,0 -0.29741,0.57603 -0.29741,0.77925 0,0.0982 0.8938,0.3985 1.65121,0.55476 0.0268,0.005 -0.25101,-0.29237 -0.61733,-0.66197 z m 1.9175,-0.31842 c 0.24174,-0.40357 0.70029,-1.59562 0.63781,-1.65808 -0.0262,-0.0262 -0.8166,0.24608 -1.63759,0.56403 l -0.27123,0.10505 0.23857,0.96388 c 0.13121,0.53011 0.2433,0.98713 0.2491,1.01555 0.0176,0.0865 0.51481,-0.54216 0.78334,-0.99043 z m -7.70722,-0.56663 c 0,-0.0692 -0.82979,-0.34023 -0.87342,-0.28523 -0.0353,0.0446 -0.36723,1.39884 -0.36723,1.49845 0,0.0434 0.27915,-0.19733 0.62033,-0.53495 0.34118,-0.33763 0.62032,-0.64285 0.62032,-0.67827 z m 8.24994,-1.3378 2.51007,-0.87879 -1.91652,-0.0282 c -1.05408,-0.0154 -2.7759,-0.0154 -3.82627,0 l -1.90975,0.0282 0.93125,0.99604 0.93125,0.99604 0.38495,-0.11725 c 0.21173,-0.0644 1.51449,-0.5127 2.89502,-0.99604 z m -5.45847,-1.03387 c 0,-0.11373 -0.067,-0.20679 -0.14898,-0.20679 -0.18264,0 -0.29942,0.17016 -0.21288,0.31018 0.11244,0.18192 0.36186,0.11066 0.36186,-0.10339 z m -0.64163,-0.19142 c 0.0964,-0.0612 -0.1275,-0.34991 -0.8002,-1.0323 -0.51369,-0.52107 -1.0025,-0.94743 -1.08624,-0.94743 -0.0837,0 -0.39825,0.0901 -0.69892,0.20028 -0.30066,0.11014 -1.50041,0.534 -2.66611,0.94192 -1.16569,0.40792 -2.18923,0.78164 -2.27453,0.83047 -0.0885,0.0507 1.46398,0.0895 3.61857,0.0904 2.07551,8.5e-4 3.83386,-0.0366 3.90743,-0.0833 z m 2.606,-2.26186 c 0,-0.19661 -1.87378,-5.54305 -1.98461,-5.66266 -0.059,-0.0637 -0.0752,0.41309 -0.0422,1.24066 0.0295,0.73923 0.0556,2.50623 0.058,3.92668 l 0.004,2.58266 0.98218,-0.9781 c 0.5402,-0.53795 0.98218,-1.03712 0.98218,-1.10924 l 0,0 z m -7.8645,0.47107 c 0.5514,-1.68808 2.20324,-3.29178 3.9136,-3.7995 0.31692,-0.0941 0.59451,-0.22591 0.61686,-0.29296 0.0558,-0.16727 -0.88975,0.11893 -1.6343,0.49469 -1.54839,0.78145 -3.00139,2.60231 -3.25643,4.08086 -0.10429,0.60465 0.0901,0.34395 0.36027,-0.48309 z m 11.7958,0.11111 c -0.65081,-2.07909 -2.55319,-3.80824 -4.70671,-4.27809 -0.54626,-0.1192 -0.0764,0.19558 0.59304,0.39726 0.70591,0.21267 1.96797,1.03163 2.50386,1.62481 0.59104,0.65419 1.13875,1.56053 1.34694,2.22887 0.16476,0.52889 0.34134,0.81779 0.43973,0.7194 0.0167,-0.0166 -0.0629,-0.32819 -0.17686,-0.69225 z m -10.7032,0.21923 c 0.39805,-0.12908 0.7658,-0.27335 0.81723,-0.32059 0.0891,-0.0818 -0.18793,-1.64371 -0.34252,-1.93079 -0.14886,-0.27645 -1.27208,1.50592 -1.42228,2.25695 -0.0529,0.26462 -0.0361,0.32539 0.0782,0.28305 0.0801,-0.0297 0.4713,-0.15953 0.86934,-0.28862 z m 10.2401,0.0235 c -0.12455,-0.51033 -0.57015,-1.39486 -0.96062,-1.90688 l -0.38249,-0.50154 -0.22579,1.01036 c -0.12419,0.5557 -0.21781,1.01881 -0.20806,1.02914 0.0344,0.0364 1.67006,0.63648 1.7576,0.64481 0.0488,0.005 0.0575,-0.11951 0.0194,-0.27589 z m -1.87384,-1.19584 c 0.21162,-0.91248 0.20731,-0.95362 -0.0694,-0.66191 -0.12795,0.13488 -0.41136,0.43412 -0.62981,0.66494 l -0.39719,0.4197 0.44888,0.15272 c 0.24689,0.084 0.45685,0.14722 0.46659,0.14052 0.01,-0.007 0.0911,-0.32889 0.18092,-0.71597 z m -5.83792,-0.60612 c 0.004,-0.12911 -0.14695,-0.20506 -0.58716,-0.29645 -0.32551,-0.0676 -0.66281,-0.14722 -0.74956,-0.17699 -0.0868,-0.0298 0.12141,0.23347 0.46259,0.58492 l 0.62032,0.63903 0.12457,-0.28845 c 0.0685,-0.15864 0.12668,-0.36657 0.12924,-0.46206 z m 0.4486,-1.25414 c 0.15388,-0.4725 0.27978,-0.88915 0.27978,-0.92589 0,-0.10248 -0.77595,0.19437 -1.42978,0.54699 -0.59411,0.32044 -1.11431,0.69966 -1.04033,0.7584 0.0631,0.0501 1.57204,0.45235 1.75093,0.46676 0.11231,0.009 0.24253,-0.24175 0.4394,-0.84626 z m 4.68243,0.63841 0.87999,-0.22071 -0.22354,-0.23795 c -0.46371,-0.49358 -2.46717,-1.37452 -2.33344,-1.02603 0.0303,0.0791 0.17991,0.49514 0.33236,0.92458 0.15246,0.42944 0.31937,0.78082 0.37092,0.78082 0.0516,0 0.48971,-0.0993 0.97371,-0.22071 z"
id="path4372"
style="fill:#000000"
/>
<rect
y="5"
id="rect4374"
width="1.4999996"
style="fill:#ffffff;fill-opacity:1;stroke:#000000;stroke-width:0;stroke-opacity:1"
x="49.625"
height="89.999977"
/>
<rect
y="48.87497"
width="89.999977"
style="fill:#ffffff;fill-opacity:1;stroke:#000000;stroke-width:0;stroke-opacity:1"
id="rect4376"
x="5"
height="1.4999996"
/>
<path
d="m 19.08148,7.65152 0.88198,1.10875 0,-0.76861 q 0,-0.16083 -0.0461,-0.21753 -0.0633,-0.0765 -0.21226,-0.0739 l 0,-0.0488 0.59062,0 0,0.0488 q -0.11337,0.0145 -0.15293,0.0382 -0.0382,0.0224 -0.0606,0.0752 -0.0211,0.0515 -0.0211,0.17797 l 0,1.48843 -0.0448,0 -1.20894,-1.48843 0,1.13642 q 0,0.15425 0.0699,0.20831 0.0712,0.0541 0.16216,0.0541 l 0.0422,0 0,0.0489 -0.63413,0 0,-0.0489 q 0.14765,-9e-4 0.20566,-0.0607 0.058,-0.0593 0.058,-0.20171 l 0,-1.26168 -0.0382,-0.0474 q -0.0567,-0.0712 -0.10019,-0.0936 -0.0435,-0.0224 -0.12525,-0.025 l 0,-0.0488 0.63413,0 z"
id="path4378"
/>
<path
d="m 19.94085,28.69421 0.0145,0.59589 -0.054,0 q -0.0382,-0.22412 -0.18853,-0.3599 -0.14897,-0.13711 -0.323,-0.13711 -0.13447,0 -0.21357,0.0725 -0.0778,0.0712 -0.0778,0.16481 0,0.0593 0.0277,0.10546 0.0382,0.0619 0.1226,0.12261 0.062,0.0435 0.28609,0.15423 0.31377,0.15426 0.42319,0.29136 0.1081,0.13713 0.1081,0.31378 0,0.22412 -0.17534,0.38628 -0.17402,0.16084 -0.44296,0.16084 -0.0844,0 -0.15953,-0.0172 -0.0752,-0.0172 -0.18852,-0.0645 -0.0633,-0.0264 -0.10415,-0.0264 -0.0343,0 -0.0725,0.0264 -0.0382,0.0264 -0.062,0.0804 l -0.0488,0 0,-0.675 0.0488,0 q 0.058,0.28477 0.2228,0.43506 0.16612,0.14898 0.35728,0.14898 0.14765,0 0.23466,-0.0804 0.0883,-0.0804 0.0883,-0.18721 0,-0.0633 -0.0343,-0.12259 -0.033,-0.0593 -0.10151,-0.11208 -0.0686,-0.0541 -0.24258,-0.13974 -0.2439,-0.11997 -0.35069,-0.20435 -0.10678,-0.0843 -0.16479,-0.18852 -0.0567,-0.10415 -0.0567,-0.2294 0,-0.21357 0.15688,-0.36386 0.15689,-0.1503 0.39551,-0.1503 0.087,0 0.16875,0.0211 0.062,0.0158 0.15029,0.0593 0.0897,0.0422 0.12525,0.0422 0.0343,0 0.054,-0.0211 0.0198,-0.0211 0.0369,-0.10151 l 0.0395,0 z"
id="path4380"
/>
<path
d="m 10.04336,18.29855 0,0.0488 q -0.0501,0.004 -0.0844,0.0276 -0.0343,0.0237 -0.0606,0.0725 -0.008,0.0158 -0.0831,0.20436 l -0.5603,1.47523 -0.0514,0 -0.44297,-1.15224 -0.48779,1.15224 -0.0488,0 -0.58799,-1.45941 q -0.0896,-0.22018 -0.12524,-0.26632 -0.0356,-0.0461 -0.11997,-0.0541 l 0,-0.0489 0.77519,0 0,0.0489 q -0.0936,0.003 -0.12524,0.0291 -0.0303,0.025 -0.0303,0.0633 0,0.0501 0.0646,0.21227 l 0.35068,0.86746 0.28081,-0.67762 -0.0738,-0.18984 q -0.0606,-0.15558 -0.0936,-0.20699 -0.033,-0.0527 -0.0765,-0.0751 -0.0422,-0.0224 -0.12525,-0.0224 l 0,-0.0488 0.86616,0 0,0.0488 q -0.091,9e-4 -0.13051,0.0145 -0.0277,0.01 -0.0435,0.0317 -0.0158,0.0211 -0.0158,0.0489 0,0.0302 0.0593,0.18589 l 0.32563,0.84638 0.29136,-0.76596 q 0.0461,-0.11866 0.0567,-0.16216 0.0105,-0.0435 0.0105,-0.0805 0,-0.0541 -0.0369,-0.0843 -0.0369,-0.0317 -0.14106,-0.0343 l 0,-0.0488 0.46406,0 z"
id="path4382"
/>
<path
id="path4386"
d="m 29.7216,18.27105 0,0.72773 0.0356,0 q 0.17007,0 0.24653,-0.10679 0.0765,-0.10678 0.0976,-0.31508 l 0.0501,0 0,0.93603 -0.0501,0 q -0.0158,-0.15293 -0.0672,-0.25049 -0.0501,-0.0976 -0.11733,-0.13051 -0.0672,-0.0343 -0.19512,-0.0343 l 0,0.50361 q 0,0.14765 0.0119,0.18061 0.0132,0.033 0.0475,0.0541 0.0343,0.0211 0.11074,0.0211 l 0.10679,0 q 0.25049,0 0.40078,-0.11603 0.15161,-0.116 0.21753,-0.35332 l 0.0488,0 -0.0804,0.56822 -1.54511,0 0,-0.0489 0.0593,0 q 0.0778,0 0.12524,-0.0276 0.0343,-0.0185 0.0527,-0.0633 0.0145,-0.0317 0.0145,-0.16611 l 0,-1.17597 q 0,-0.12129 -0.007,-0.14898 -0.0132,-0.0461 -0.0488,-0.0712 -0.0501,-0.0369 -0.13711,-0.0369 l -0.0593,0 0,-0.0488 1.49634,0 0,0.52866 -0.0501,0 q -0.0382,-0.1938 -0.10811,-0.27817 -0.0686,-0.0843 -0.19512,-0.12393 -0.0738,-0.0237 -0.27685,-0.0237 l -0.18457,0 z"
/>
<path
d="m 11.0449,91.37533 q 0,0.54886 -0.24931,0.80589 -0.2493,0.25704 -0.76724,0.25704 -0.17201,0 -0.33628,-0.0251 -0.16234,-0.0231 -0.32081,-0.0677 l 0,-0.37107 0.0193,0 q 0.0889,0.0347 0.28216,0.085 0.19327,0.0522 0.38653,0.0522 0.18553,0 0.30728,-0.0445 0.12176,-0.0445 0.1894,-0.12368 0.0676,-0.0753 0.0966,-0.18168 0.029,-0.10629 0.029,-0.23771 l 0,-0.19712 q -0.16427,0.13142 -0.31502,0.19712 -0.14881,0.0638 -0.38072,0.0638 -0.38653,0 -0.61457,-0.27829 -0.22612,-0.28023 -0.22612,-0.78851 0,-0.27829 0.0773,-0.47928 0.0792,-0.20292 0.21453,-0.34981 0.12562,-0.13721 0.30535,-0.21258 0.17973,-0.0772 0.35753,-0.0772 0.18747,0 0.31309,0.0386 0.12755,0.0367 0.26863,0.11403 l 0.0232,-0.0928 0.34014,0 0,1.91329 z m -0.36333,-0.34787 0,-1.17697 q -0.14495,-0.0657 -0.27057,-0.0928 -0.12368,-0.029 -0.24737,-0.029 -0.29956,0 -0.47156,0.20099 -0.172,0.201 -0.172,0.58365 0,0.36333 0.12755,0.5508 0.12755,0.18746 0.42324,0.18746 0.15848,0 0.31695,-0.0599 0.16041,-0.0618 0.29376,-0.16427 z"
id="path4390"
/>
<path
d="m 13.56696,90.57909 -1.59054,0 q 0,0.19905 0.0599,0.34787 0.0599,0.14688 0.16427,0.24157 0.1005,0.0928 0.23772,0.13915 0.13914,0.0464 0.30535,0.0464 0.22032,0 0.44257,-0.0869 0.22418,-0.0889 0.31888,-0.17393 l 0.0193,0 0,0.39618 q -0.18359,0.0773 -0.37492,0.12948 -0.19133,0.0522 -0.40199,0.0522 -0.53726,0 -0.83875,-0.28989 -0.30149,-0.29182 -0.30149,-0.82716 0,-0.52953 0.28796,-0.84068 0.28989,-0.31115 0.76145,-0.31115 0.43677,0 0.67255,0.2551 0.23771,0.2551 0.23771,0.72473 l 0,0.19713 z m -0.35367,-0.2783 q -0.002,-0.28603 -0.14494,-0.44257 -0.14108,-0.15654 -0.43098,-0.15654 -0.29182,0 -0.46576,0.17201 -0.172,0.17199 -0.19519,0.4271 l 1.23687,0 z"
id="path4392"
/>
<path
id="path4396"
d="m 15.9576,90.54237 q 0,0.5276 -0.27056,0.83296 -0.27057,0.30535 -0.72473,0.30535 -0.45803,0 -0.7286,-0.30535 -0.26863,-0.30536 -0.26863,-0.83296 0,-0.52761 0.26863,-0.83296 0.27057,-0.30728 0.7286,-0.30728 0.45416,0 0.72473,0.30728 0.27056,0.30535 0.27056,0.83296 z m -0.37492,0 q 0,-0.41938 -0.16427,-0.6223 -0.16428,-0.20486 -0.4561,-0.20486 -0.29569,0 -0.45996,0.20486 -0.16234,0.20292 -0.16234,0.6223 0,0.40584 0.16427,0.6165 0.16427,0.20872 0.45803,0.20872 0.28989,0 0.45416,-0.20679 0.16621,-0.20873 0.16621,-0.61843 z"
/>
<path
id="path4399"
d="m 18.11827,91.48548 q -0.18167,0.0869 -0.34594,0.13529 -0.16234,0.0483 -0.34594,0.0483 -0.23384,0 -0.42904,-0.0677 -0.19519,-0.0696 -0.33434,-0.20873 -0.14108,-0.13914 -0.21839,-0.35174 -0.0773,-0.21258 -0.0773,-0.49667 0,-0.52955 0.28989,-0.83103 0.29183,-0.30149 0.76918,-0.30149 0.18554,0 0.36334,0.0522 0.17973,0.0522 0.32854,0.12756 l 0,0.40391 -0.0193,0 q -0.16621,-0.12949 -0.34401,-0.19906 -0.17587,-0.0696 -0.344,-0.0696 -0.30922,0 -0.48896,0.20873 -0.17779,0.20678 -0.17779,0.60877 0,0.39039 0.17393,0.60105 0.17587,0.20872 0.49282,0.20872 0.11016,0 0.22418,-0.029 0.11402,-0.029 0.20486,-0.0753 0.0792,-0.0406 0.14881,-0.085 0.0696,-0.0464 0.11016,-0.0793 l 0.0193,0 0,0.40005 z"
/>
<path
d="m 20.26347,91.62077 -0.3614,0 0,-0.22998 q -0.0483,0.0329 -0.13142,0.0928 -0.0812,0.058 -0.15847,0.0928 -0.0908,0.0445 -0.20872,0.0734 -0.11789,0.031 -0.27637,0.031 -0.29182,0 -0.49475,-0.19326 -0.20292,-0.19326 -0.20292,-0.49281 0,-0.24544 0.10436,-0.39619 0.10629,-0.15268 0.30149,-0.23965 0.19712,-0.0869 0.47349,-0.11789 0.27636,-0.031 0.59331,-0.0464 l 0,-0.0561 q 0,-0.12368 -0.0444,-0.20486 -0.0425,-0.0812 -0.12369,-0.12754 -0.0773,-0.0445 -0.18553,-0.0598 -0.10822,-0.0155 -0.22611,-0.0155 -0.14302,0 -0.31889,0.0386 -0.17586,0.0367 -0.36333,0.10822 l -0.0193,0 0,-0.36912 q 0.10629,-0.029 0.30729,-0.0638 0.20099,-0.0347 0.39618,-0.0347 0.22805,0 0.39619,0.0386 0.17007,0.0367 0.29375,0.12755 0.12176,0.0889 0.18553,0.22998 0.0638,0.14107 0.0638,0.3498 l 0,1.46492 z m -0.3614,-0.53147 0,-0.60104 q -0.1662,0.01 -0.39232,0.029 -0.22418,0.0194 -0.3556,0.0561 -0.15654,0.0445 -0.25317,0.13915 -0.0966,0.0928 -0.0966,0.25704 0,0.18553 0.11209,0.28023 0.11209,0.0928 0.34207,0.0928 0.19133,0 0.3498,-0.0734 0.15848,-0.0753 0.29376,-0.17973 z"
id="path4401"
/>
<path
d="m 22.56328,91.48548 q -0.18167,0.0869 -0.34594,0.13529 -0.16234,0.0483 -0.34594,0.0483 -0.23384,0 -0.42904,-0.0677 -0.19519,-0.0696 -0.33434,-0.20873 -0.14108,-0.13914 -0.21838,-0.35174 -0.0773,-0.21258 -0.0773,-0.49667 0,-0.52955 0.28989,-0.83103 0.29182,-0.30149 0.76918,-0.30149 0.18553,0 0.36333,0.0522 0.17973,0.0522 0.32854,0.12756 l 0,0.40391 -0.0193,0 q -0.1662,-0.12949 -0.344,-0.19906 -0.17587,-0.0696 -0.34401,-0.0696 -0.30922,0 -0.48895,0.20873 -0.1778,0.20678 -0.1778,0.60877 0,0.39039 0.17393,0.60105 0.17587,0.20872 0.49282,0.20872 0.11016,0 0.22418,-0.029 0.11403,-0.029 0.20486,-0.0753 0.0792,-0.0406 0.14881,-0.085 0.0696,-0.0464 0.11016,-0.0793 l 0.0193,0 0,0.40005 z"
id="path4403"
/>
<path
id="path4405"
d="m 24.83603,91.62077 -0.36333,0 0,-1.22914 q 0,-0.14882 -0.0174,-0.2783 -0.0174,-0.13142 -0.0638,-0.20486 -0.0483,-0.0812 -0.13915,-0.11983 -0.0908,-0.0406 -0.23578,-0.0406 -0.14881,0 -0.31115,0.0734 -0.16234,0.0734 -0.31115,0.18747 l 0,1.6118 -0.36333,0 0,-3.00715 0.36333,0 0,1.08806 q 0.17007,-0.14108 0.35174,-0.22032 0.18166,-0.0793 0.37299,-0.0793 0.34981,0 0.5334,0.21065 0.1836,0.21066 0.1836,0.60684 l 0,1.40114 z"
/>
<path
d="m 25.92603,89.10064 -0.40972,0 0,-0.37687 0.40972,0 0,0.37687 z m -0.0232,2.52013 -0.36333,0 0,-2.15874 0.36333,0 0,2.15874 z"
id="path4407"
/>
<path
id="path4409"
d="m 28.41523,91.62077 -0.36333,0 0,-1.22914 q 0,-0.14882 -0.0174,-0.2783 -0.0174,-0.13142 -0.0638,-0.20486 -0.0483,-0.0812 -0.13915,-0.11983 -0.0908,-0.0406 -0.23577,-0.0406 -0.14882,0 -0.31116,0.0734 -0.16233,0.0734 -0.31115,0.18747 l 0,1.6118 -0.36333,0 0,-2.15873 0.36333,0 0,0.23964 q 0.17007,-0.14108 0.35174,-0.22032 0.18167,-0.0793 0.37299,-0.0793 0.34981,0 0.5334,0.21065 0.1836,0.21066 0.1836,0.60684 l 0,1.40114 z"
/>
<path
id="path4411"
d="m 30.86579,91.37533 q 0,0.54886 -0.24931,0.80589 -0.24931,0.25704 -0.76725,0.25704 -0.172,0 -0.33627,-0.0251 -0.16234,-0.0231 -0.32082,-0.0677 l 0,-0.37107 0.0193,0 q 0.0889,0.0347 0.28216,0.085 0.19326,0.0522 0.38652,0.0522 0.18553,0 0.30729,-0.0445 0.12175,-0.0445 0.18939,-0.12368 0.0676,-0.0753 0.0966,-0.18168 0.029,-0.10629 0.029,-0.23771 l 0,-0.19712 q -0.16427,0.13142 -0.31501,0.19712 -0.14882,0.0638 -0.38073,0.0638 -0.38652,0 -0.61457,-0.27829 -0.22612,-0.28023 -0.22612,-0.78851 0,-0.27829 0.0773,-0.47928 0.0792,-0.20292 0.21452,-0.34981 0.12562,-0.13721 0.30535,-0.21258 0.17973,-0.0772 0.35753,-0.0772 0.18747,0 0.31309,0.0386 0.12755,0.0367 0.26863,0.11403 l 0.0232,-0.0928 0.34014,0 0,1.91329 z m -0.36333,-0.34787 0,-1.17697 q -0.14495,-0.0657 -0.27057,-0.0928 -0.12369,-0.029 -0.24737,-0.029 -0.29956,0 -0.47156,0.20099 -0.172,0.201 -0.172,0.58365 0,0.36333 0.12755,0.5508 0.12755,0.18746 0.42324,0.18746 0.15847,0 0.31695,-0.0599 0.16041,-0.0618 0.29376,-0.16427 z"
/>
<path
id="path4413"
d="m 32.17417,91.62077 -0.4619,0 0,-0.5508 0.4619,0 0,0.5508 z"
/>
<path
d="m 34.61506,91.48548 q -0.18167,0.0869 -0.34594,0.13529 -0.16234,0.0483 -0.34594,0.0483 -0.23384,0 -0.42904,-0.0677 -0.19519,-0.0696 -0.33434,-0.20873 -0.14108,-0.13914 -0.21838,-0.35174 -0.0773,-0.21258 -0.0773,-0.49667 0,-0.52955 0.2899,-0.83103 0.29182,-0.30149 0.76918,-0.30149 0.18553,0 0.36333,0.0522 0.17973,0.0522 0.32854,0.12756 l 0,0.40391 -0.0193,0 q -0.16621,-0.12949 -0.34401,-0.19906 -0.17586,-0.0696 -0.344,-0.0696 -0.30922,0 -0.48895,0.20873 -0.1778,0.20678 -0.1778,0.60877 0,0.39039 0.17393,0.60105 0.17587,0.20872 0.49282,0.20872 0.11016,0 0.22418,-0.029 0.11403,-0.029 0.20486,-0.0753 0.0792,-0.0406 0.14881,-0.085 0.0696,-0.0464 0.11016,-0.0793 l 0.0193,0 0,0.40005 z"
id="path4415"
/>
<path
id="path4417"
d="m 36.9226,90.54237 q 0,0.5276 -0.27057,0.83296 -0.27056,0.30535 -0.72473,0.30535 -0.45803,0 -0.72859,-0.30535 -0.26864,-0.30536 -0.26864,-0.83296 0,-0.52761 0.26864,-0.83296 0.27056,-0.30728 0.72859,-0.30728 0.45417,0 0.72473,0.30728 0.27057,0.30535 0.27057,0.83296 z m -0.37493,0 q 0,-0.41938 -0.16427,-0.6223 -0.16427,-0.20486 -0.4561,-0.20486 -0.29569,0 -0.45996,0.20486 -0.16234,0.20292 -0.16234,0.6223 0,0.40584 0.16427,0.6165 0.16428,0.20872 0.45803,0.20872 0.2899,0 0.45417,-0.20679 0.1662,-0.20873 0.1662,-0.61843 z"
/>
<path
d="m 40.63708,91.62077 -0.36333,0 0,-1.22914 q 0,-0.13915 -0.0135,-0.26864 -0.0116,-0.12949 -0.0522,-0.2068 -0.0445,-0.0832 -0.12755,-0.12561 -0.0831,-0.0425 -0.23964,-0.0425 -0.15268,0 -0.30536,0.0772 -0.15267,0.0753 -0.30535,0.19326 0.006,0.0445 0.01,0.10436 0.004,0.058 0.004,0.11597 l 0,1.38181 -0.36333,0 0,-1.22914 q 0,-0.14301 -0.0135,-0.27057 -0.0116,-0.12948 -0.0522,-0.20679 -0.0444,-0.0832 -0.12756,-0.12369 -0.0831,-0.0425 -0.23964,-0.0425 -0.14881,0 -0.29956,0.0734 -0.14881,0.0734 -0.29762,0.18747 l 0,1.6118 -0.36333,0 0,-2.15873 0.36333,0 0,0.23964 q 0.17007,-0.14108 0.33821,-0.22032 0.17007,-0.0792 0.3614,-0.0792 0.22032,0 0.37299,0.0928 0.15461,0.0928 0.22998,0.25704 0.22032,-0.18553 0.40199,-0.2667 0.18166,-0.0832 0.38845,-0.0832 0.3556,0 0.52374,0.21645 0.17007,0.21452 0.17007,0.60103 l 0,1.40115 z"
id="path4419"
/>
<path
d="m 41.93,91.62077 -0.46189,0 0,-0.5508 0.46189,0 0,0.5508 z"
id="path4421"
/>
<path
d="m 44.45206,91.62077 -0.3614,0 0,-0.22998 q -0.0483,0.0329 -0.13141,0.0928 -0.0812,0.058 -0.15848,0.0928 -0.0908,0.0445 -0.20872,0.0734 -0.11789,0.031 -0.27636,0.031 -0.29183,0 -0.49475,-0.19326 -0.20293,-0.19326 -0.20293,-0.49281 0,-0.24544 0.10436,-0.39619 0.1063,-0.15268 0.30149,-0.23965 0.19713,-0.0869 0.47349,-0.11789 0.27637,-0.031 0.59331,-0.0464 l 0,-0.0561 q 0,-0.12368 -0.0445,-0.20486 -0.0425,-0.0812 -0.12369,-0.12754 -0.0773,-0.0445 -0.18553,-0.0598 -0.10822,-0.0155 -0.22611,-0.0155 -0.14302,0 -0.31888,0.0386 -0.17587,0.0367 -0.36333,0.10822 l -0.0193,0 0,-0.36912 q 0.1063,-0.029 0.30729,-0.0638 0.20099,-0.0347 0.39618,-0.0347 0.22805,0 0.39619,0.0386 0.17007,0.0367 0.29376,0.12755 0.12175,0.0889 0.18553,0.22998 0.0638,0.14107 0.0638,0.3498 l 0,1.46492 z m -0.3614,-0.53147 0,-0.60104 q -0.1662,0.01 -0.39232,0.029 -0.22418,0.0194 -0.3556,0.0561 -0.15654,0.0445 -0.25317,0.13915 -0.0966,0.0928 -0.0966,0.25704 0,0.18553 0.11209,0.28023 0.11209,0.0928 0.34207,0.0928 0.19133,0 0.34981,-0.0734 0.15847,-0.0753 0.29375,-0.17973 z"
id="path4424"
/>
<path
id="path4426"
d="m 46.94513,91.62077 -0.36333,0 0,-0.23965 q -0.1836,0.14495 -0.35173,0.22225 -0.16814,0.0772 -0.37106,0.0772 -0.34014,0 -0.52954,-0.20678 -0.1894,-0.20873 -0.1894,-0.61071 l 0,-1.40115 0.36334,0 0,1.22914 q 0,0.16428 0.0155,0.28217 0.0155,0.11596 0.0657,0.19905 0.0522,0.0851 0.13528,0.12369 0.0831,0.0386 0.24158,0.0386 0.14108,0 0.30728,-0.0734 0.16814,-0.0734 0.31308,-0.18746 l 0,-1.6118 0.36334,0 0,2.15873 z"
/>
</svg>
