<?xml version="1.0" encoding="UTF-8" standalone="no"?>
<svg
xmlns:cc="http://creativecommons.org/ns#"
xmlns:svg="http://www.w3.org/2000/svg"
xmlns="http://www.w3.org/2000/svg"
xmlns:rdf="http://www.w3.org/1999/02/22-rdf-syntax-ns#"
xmlns:dc="http://purl.org/dc/elements/1.1/"
xmlns:sodipodi="http://sodipodi.sourceforge.net/DTD/sodipodi-0.dtd"
xmlns:inkscape="http://www.inkscape.org/namespaces/inkscape"
>
<path
id="path4398"
style="fill:#ffffff"
d="m 8.38560000000007,0.244110000000006 c -3.2613,0.60002 -6.3041,3.59853 -7.7326,7.55646 l -0.653,1.83912 0,40.38236 0,40.38081 0.869,2.27975 c 1.0875,2.8782 3.4167,5.63765 5.5905,6.59706 1.522,0.6797 3.7892,0.72033 43.6964,0.72033 l 42.0811,0 1.7077,-1.03909 c 2.4845,-1.47973 3.8815,-3.23915 5.0308,-6.27673 l 1.0245,-2.6782 0,-39.9808 0,-39.9808 -1.0245,-2.6782 c -1.1178,-2.99852 -2.7333,-4.91732 -5.2178,-6.39705 l -1.522,-0.91878 -41.1488,-0.0407 c -22.6396,-0.0453 -41.8626,0.0751 -42.7013,0.23438 z"
/>
<path
d="m 8.38560000000007,0.244110000000006 c -3.2613,0.60002 -6.3041,3.59853 -7.7326,7.55646 l -0.653,1.83912 0,40.38236 0,40.38081 0.869,2.27975 c 1.0875,2.8782 3.4167,5.63765 5.5905,6.59706 1.522,0.6797 3.7892,0.72033 43.6964,0.72033 l 42.0811,0 1.7077,-1.03909 c 2.4845,-1.47973 3.8815,-3.23915 5.0308,-6.27673 l 1.0245,-2.6782 0,-39.9808 0,-39.9808 -1.0245,-2.6782 c -1.1178,-2.99852 -2.7333,-4.91732 -5.2178,-6.39705 l -1.522,-0.91878 -41.1488,-0.0407 c -22.6396,-0.0453 -41.8626,0.0751 -42.7013,0.23438 z m 81.7698,49.85764 -0.094,37.10258 -40.1246,0.12028 -40.1548,0.0797 0,-37.18228 0,-37.18229 40.218,0 40.218,0 -0.063,37.06197 z"
style="fill:#404040;fill-opacity:1"
id="path4400"
/>
<path
id="path4555"
style="fill:#404040;fill-opacity:1"
d="m 45.8382999999999,45.02444 c -0.3262,0.06 -0.6304,0.35985 -0.7733,0.75565 l -0.065,0.18391 0,4.03823 0,4.03809 0.087,0.22797 c 0.1087,0.28782 0.3417,0.56377 0.559,0.65971 0.1522,0.068 0.379,0.072 4.3697,0.072 l 4.2081,0 0.1708,-0.10391 c 0.2484,-0.14797 0.3881,-0.32391 0.503,-0.62767 l 0.1025,-0.26782 0,-3.99808 0,-3.99808 -0.1025,-0.26782 c -0.1117,-0.29985 -0.2733,-0.49173 -0.5217,-0.63971 l -0.1522,-0.0919 -4.1149,-0.004 c -2.264,-0.005 -4.1863,0.008 -4.2701,0.0234 z"
/>
</svg>
