<?xml version="1.0" encoding="UTF-8" standalone="no"?>
<svg
xmlns:dc="http://purl.org/dc/elements/1.1/"
xmlns:rdf="http://www.w3.org/1999/02/22-rdf-syntax-ns#"
xmlns="http://www.w3.org/2000/svg"
xmlns:svg="http://www.w3.org/2000/svg"
xmlns:cc="http://creativecommons.org/ns#"
xmlns:inkscape="http://www.inkscape.org/namespaces/inkscape"
xmlns:sodipodi="http://sodipodi.sourceforge.net/DTD/sodipodi-0.dtd"
>
<circle
id="circle5055"
style="fill:#b3b3b3;fill-opacity:1"
cx="50"
cy="49.9999"
r="49"
/>
<circle
style="fill:#000000;fill-opacity:1"
cy="50.1089999999999"
id="path4384-6"
cx="50.97455"
r="36.257416"
/>
<path
d="m 56.50883,85.7473 c 0.59912,-0.1205 1.14623,-0.276 1.2158,-0.3455 0.12084,-0.1209 0.63292,-11.5221 0.66828,-14.8788 l 0.0169,-1.6047 -0.97594,-0.4588 c -1.39273,-0.6546 -1.76855,-1.8931 -1.10178,-3.6306 0.15607,-0.4067 -0.93071,-0.741 -2.97034,-0.9136 -2.28601,-0.1934 -2.6178,-0.4308 -2.94787,-2.1085 -0.22262,-1.1315 -0.37728,-1.4224 -0.93738,-1.763 -0.36893,-0.2244 -0.76475,-0.3499 -0.87961,-0.2789 -0.12978,0.08 -0.14837,4.4938 -0.0491,11.6577 l 0.15971,11.5286 0.6712,0.8352 c 0.65186,0.8112 0.6826,1.0457 0.26943,2.0551 -0.16731,0.4088 -0.07,0.4183 2.79904,0.2741 1.6348,-0.082 3.46256,-0.2479 4.06168,-0.3683 z"
id="path4332-8"
style="fill:#707845;fill-opacity:1"
/>
<path
d="m 60.72259,84.8692000000001 0.56676,-0.2155 0,-20.3838 0,-20.3837 -0.5585,0 c -0.37424,0 -0.6223,0.1644 -0.75185,0.4983 -0.10634,0.2741 -0.46072,8.4725 -0.78751,18.2187 -0.32679,9.7461 -0.65242,18.8569 -0.72363,20.2462 l -0.12946,2.5259 0.90871,-0.1453 c 0.4998,-0.08 1.16376,-0.2423 1.47548,-0.3608 z"
id="path4330"
style="fill:#ba9e6e;fill-opacity:1"
/>
<path
d="m 38.93344,82.2995000000001 c 0.13041,-1.8064 0.473,-3.0288 1.02964,-3.674 0.21434,-0.2485 0.60104,-2.6723 1.18388,-7.4204 0.47606,-3.8783 1.27134,-10.241 1.76729,-14.1395 1.15941,-9.1136 1.12327,-8.1956 0.32259,-8.1956 l -0.66451,0 -1.15437,8.1956 c -0.6349,4.5076 -1.45451,10.3387 -1.82136,12.9579 -0.40497,2.8915 -1.06095,6.3276 -1.6698,8.7466 -0.55154,2.1914 -1.0028,4.1597 -1.0028,4.3741 0,0.3799 1.19949,1.0756 1.66128,0.9636 0.12182,-0.03 0.2785,-0.8433 0.34816,-1.8083 z"
id="path4328-0"
style="fill:#ba9e6e;fill-opacity:1"
/>
<path
d="m 39.7387,82.1533999999999 c -0.053,-0.2755 -0.0983,-0.1022 -0.1008,0.3851 -0.002,0.4873 0.0409,0.7127 0.0963,0.5009 0.0554,-0.2117 0.0575,-0.6105 0.004,-0.886 z"
id="path4326-1"
style="fill:#000000"
/>
<path
d="m 49.07006,85.2339999999999 c 0.22658,-0.6499 0.18328,-0.7372 -0.87911,-1.772 -0.61458,-0.5986 -1.20373,-1.0884 -1.30923,-1.0884 -0.1055,0 -0.25737,-0.2066 -0.3375,-0.459 -0.0801,-0.2525 -0.27064,-0.4111 -0.42335,-0.3525 -0.19225,0.074 -0.2489,-0.075 -0.18416,-0.4824 0.0648,-0.408 0.0301,-0.4988 -0.11311,-0.2957 -0.13206,0.1874 -0.16875,-0.2969 -0.10167,-1.3421 0.0857,-1.3359 0.0364,-1.704 -0.26955,-2.0099 -0.57245,-0.5724 -1.07407,-0.4558 -2.16321,0.5029 -0.56751,0.4995 -1.32019,0.9322 -1.74784,1.0047 -1.52706,0.2589 -1.67665,0.3958 -1.5378,1.4073 0.0226,0.1645 -0.0653,0.2334 -0.19526,0.1531 -0.25476,-0.1575 -0.28289,0.064 -0.28869,2.2701 -0.002,0.7663 0.0517,1.4487 0.11939,1.5164 0.4471,0.4471 6.03145,1.5608 8.05156,1.6057 1.08484,0.024 1.15299,-0.01 1.37953,-0.6582 z"
style="fill:#2b463d;fill-opacity:1"
id="path4520"
/>
<path
d="m 35.80015,79.7222999999999 c 0.88739,-3.4417 1.6802,-7.8625 2.23589,-12.4676 0.2499,-2.071 0.65015,-5.1583 0.88944,-6.8605 0.23928,-1.7022 0.43506,-3.2146 0.43506,-3.3607 0,-0.1462 -0.33682,-0.377 -0.74848,-0.5128 -1.07571,-0.355 -1.41978,-0.8421 -1.8174,-2.5727 -0.4323,-1.8815 -0.68042,-2.5307 -0.96724,-2.5307 -0.53319,0 -0.89607,2.7208 -1.42576,10.6902 -0.30577,4.6005 -0.61678,8.463 -0.69115,8.5833 -0.29985,0.4852 -1.26303,0.209 -1.94074,-0.5565 -0.55552,-0.6275 -0.84551,-0.7753 -1.5212,-0.7753 -0.45916,0 -1.08094,0.1122 -1.38173,0.2492 -0.80925,0.3687 -2.90862,0.05 -3.57037,-0.5429 -0.50112,-0.4486 -0.52293,-0.5573 -0.31881,-1.5891 0.12051,-0.6091 0.30715,-1.7055 0.41476,-2.4365 0.36184,-2.4578 1.56786,-9.9628 1.68264,-10.4709 0.0788,-0.3487 -0.007,-0.5488 -0.27939,-0.6517 -0.85398,-0.3224 -1.61134,-1.3358 -1.61134,-2.156 0,-0.666 -0.10064,-0.8364 -0.60913,-1.0315 -0.76368,-0.2931 -1.63493,-0.3184 -3.02282,-0.088 l -1.08466,0.1802 0.15234,-1.3465 c 0.13738,-1.2143 0.10384,-1.3917 -0.3415,-1.8066 -0.27161,-0.2531 -0.69948,-0.4601 -0.95083,-0.4601 -0.31589,0 -0.62093,-0.309 -0.98791,-1.0008 -0.292,-0.5504 -0.47956,-1.0521 -0.4168,-1.1148 0.0628,-0.063 2.19569,-0.963 4.73985,-2.0005 2.54416,-1.0375 4.83473,-2.0233 5.09014,-2.1905 0.62125,-0.4069 1.05964,-1.5231 0.87972,-2.24 -0.0926,-0.3689 -0.38483,-0.6713 -0.80035,-0.8281 -0.35999,-0.1359 -0.65452,-0.3561 -0.65452,-0.4893 0,-0.3907 1.14992,-1.3633 2.04891,-1.733 0.81995,-0.3372 0.83063,-0.3575 0.83063,-1.5789 0,-0.7719 -0.13614,-1.4452 -0.36186,-1.7897 -0.35306,-0.5388 -0.3418,-0.5696 0.46344,-1.2658 0.66083,-0.5714 0.82992,-0.8771 0.84848,-1.534 0.0347,-1.229 -0.5279,-1.7269 -1.95128,-1.7269 -0.81867,0 -1.31774,0.1288 -1.71726,0.443 -0.84265,0.6629 -1.19195,0.5626 -1.35088,-0.3876 -0.20203,-1.208 -0.38473,-1.3819 -1.60367,-1.5262 -1.08544,-0.1286 -1.10846,-0.1184 -1.88955,0.8364 -6.66491,8.1477 -9.45222,19.4969 -7.36381,29.9836 0.85758,4.3062 3.09818,9.6157 5.60849,13.2902 1.84103,2.6948 4.78059,5.8602 7.34778,7.9122 2.34136,1.8716 6.57819,4.4421 6.88838,4.1793 0.0858,-0.073 0.45679,-1.2989 0.82449,-2.725 z"
id="path4324-6"
style="fill:#707845;fill-opacity:1"
/>
<path
style="fill:#ba9e6e;fill-opacity:1"
id="path4322-0"
d="m 48.11125,76.9455 c -0.0645,-3.0152 -0.17731,-10.0192 -0.25075,-15.5643 l -0.13351,-10.0822 -1.4357,-0.9532 c -0.78963,-0.5242 -1.5517,-0.9086 -1.69349,-0.8542 -0.16108,0.062 -0.57247,2.6229 -1.09658,6.8267 -0.46133,3.7004 -0.98288,7.8243 -1.15901,9.1644 -0.17613,1.3401 -0.5737,4.4799 -0.88349,6.9774 -0.30978,2.4974 -0.62067,4.8647 -0.69086,5.2607 -0.11739,0.6622 -0.0809,0.7199 0.45575,0.7199 0.37505,0 0.93502,-0.3242 1.56814,-0.9078 0.74584,-0.6875 1.17584,-0.9131 1.77225,-0.93 1.27042,-0.036 1.69592,0.5773 1.88393,2.7157 0.13715,1.5599 0.24186,1.8871 0.78543,2.4545 0.34495,0.36 0.70997,0.6546 0.81115,0.6546 0.10119,0 0.13122,-2.467 0.0667,-5.4822 z"
/>
<path
style="fill:#ba9e6e;fill-opacity:1"
id="path4320-6"
d="m 66.74366,74.7008000000001 0.52814,-1.1925 -0.55233,-5.3418 c -1.22508,-11.8483 -2.32003,-23.4718 -2.32635,-24.6957 -0.002,-0.4725 -0.0743,-0.5117 -0.70645,-0.3853 -0.38706,0.077 -0.75053,0.1876 -0.80772,0.2447 -0.1261,0.1261 -0.11072,0.8495 0.29206,13.7354 0.4766,15.2475 0.56114,17.1668 0.81465,18.4955 0.12784,0.6701 0.27281,1.2861 0.32217,1.369 0.0494,0.083 0.49877,-0.1164 0.99871,-0.443 0.65034,-0.4248 1.05924,-0.933 1.43712,-1.7863 z"
/>
<path
style="fill:#ba9e6e;fill-opacity:1"
id="path4318-3"
d="m 69.57654,70.4625000000001 c 0.35971,-0.6609 0.54335,-1.2772 0.47371,-1.5898 -0.0626,-0.2807 -0.36822,-3.1519 -0.67926,-6.3803 -0.31104,-3.2284 -0.65639,-6.2685 -0.76745,-6.7558 -0.11107,-0.4873 -0.31153,-2.2317 -0.44548,-3.8763 -0.4703,-5.7745 -0.32923,-5.2403 -1.78028,-6.7416 -0.71073,-0.7354 -1.34869,-1.2806 -1.41769,-1.2116 -0.17677,0.1768 2.31805,26.6913 2.6634,28.3062 l 0.11303,0.5286 0.62629,-0.6001 c 0.34447,-0.33 0.89064,-1.0857 1.21373,-1.6793 z"
/>
<path
d="m 64.28693,83.5150000000001 c 0.39594,-0.2414 0.71989,-0.3879 0.71989,-0.3255 0,0.062 0.67929,-0.2381 1.50954,-0.6677 0.83025,-0.4297 1.62766,-0.7812 1.77202,-0.7812 0.14437,0 0.26249,-0.1 0.26249,-0.2215 0,-0.1219 0.10514,-0.2215 0.23366,-0.2215 0.12851,0 0.82077,-0.3987 1.53836,-0.886 0.71759,-0.4874 1.37126,-0.8861 1.4526,-0.8861 0.47503,0 7.40753,-6.5727 7.40753,-7.0231 0,-0.1575 0.0761,-0.2865 0.16921,-0.2865 0.0931,0 0.41563,-0.3987 0.7168,-0.886 0.30117,-0.4873 0.62374,-0.886 0.7168,-0.886 0.0931,0 0.16922,-0.093 0.16922,-0.2058 0,-0.1132 0.40053,-0.8089 0.89007,-1.5459 1.09094,-1.6424 2.91097,-5.46 3.38901,-7.1084 1.62,-5.5865 1.7855,-6.6596 1.79352,-11.6289 0.006,-3.4556 -0.0811,-4.8442 -0.39384,-6.3129 -0.48,-2.2537 -1.34958,-5.4311 -1.83739,-6.7137 -0.59497,-1.5645 -2.69116,-5.6659 -3.39677,-6.6463 -0.36696,-0.5098 -1.03179,-1.4752 -1.4774,-2.1452 -0.44561,-0.67 -1.95935,-2.3533 -3.36386,-3.7405 -2.17711,-2.1502 -2.57785,-2.4605 -2.71773,-2.1042 -0.0902,0.2298 -0.17206,0.3182 -0.18181,0.1964 -0.01,-0.1219 -0.25319,0.2841 -0.54097,0.9021 -0.28778,0.618 -0.49888,1.3656 -0.46911,1.6613 0.0298,0.2957 0.0668,0.8428 0.0824,1.2157 0.0155,0.373 0.21414,0.8777 0.44131,1.1215 0.22718,0.2438 0.52971,0.6613 0.67231,0.9278 0.14259,0.2664 0.38789,0.4844 0.5451,0.4844 0.15722,0 0.52711,0.2568 0.82197,0.5707 0.45504,0.4844 0.54821,0.8368 0.61606,2.3308 0.0653,1.4384 -0.011,1.9842 -0.4177,2.9862 -0.44803,1.1039 -0.67682,1.3453 -2.2953,2.4223 -3.40145,2.2634 -5.12207,5.5748 -4.69068,9.0276 l 0.1503,1.2029 2.21036,-0.5763 c 1.8608,-0.4851 2.24102,-0.5268 2.40421,-0.264 0.33287,0.536 0.0376,0.8181 -1.26961,1.2127 -2.9549,0.8921 -3.05079,1.0138 -2.97607,3.7766 0.0796,2.9448 0.26548,3.7608 0.87668,3.8493 0.39938,0.058 0.49984,-0.069 0.61369,-0.7753 0.26355,-1.6348 0.35495,-1.8841 0.88481,-2.414 0.29407,-0.2941 0.74256,-0.5347 0.99664,-0.5347 0.87384,0 2.64702,2.3797 2.65798,3.5671 0.002,0.2242 -0.98064,1.1948 -1.21703,1.2021 -0.73389,0.023 -1.69686,0.421 -1.88998,0.7819 -0.27333,0.5107 -0.16052,1.0747 0.7202,3.6006 0.66263,1.9003 0.67413,2.0006 0.42852,3.7374 -0.15778,1.1157 -0.45362,2.1273 -0.78918,2.6988 -0.29523,0.5028 -0.96875,1.7514 -1.4967,2.7747 -0.52795,1.0233 -1.24374,2.0699 -1.59064,2.3258 -0.70774,0.522 -1.13706,1.2314 -1.82306,3.0125 -0.30762,0.7987 -0.61433,1.2452 -0.8905,1.2965 -1.1972,0.2223 -1.84148,1.5517 -3.15574,6.5115 -0.25913,0.9778 -0.067,1.0515 1.01782,0.39 z"
style="fill:#2b463d;fill-opacity:1"
id="path4514"
/>
<path
id="path4316"
style="fill:#ba9e6e;fill-opacity:1"
d="m 33.3942,69.5252 c 0.008,-0.396 0.23346,-3.8992 0.5014,-7.785 l 0.48715,-7.0651 -1.51345,-1.2075 c -0.8324,-0.6642 -1.58133,-1.1398 -1.66429,-1.0569 -0.18443,0.1843 -2.68511,16.3349 -2.56133,16.5424 0.0485,0.081 0.447,0.049 0.88555,-0.072 0.93896,-0.2593 1.77204,0.013 2.53843,0.8284 0.74046,0.7882 1.30886,0.7093 1.32654,-0.1839 z"
/>
<path
d="m 28.16678,68.4176 c 0.21787,-1.2753 2.36101,-15.5452 2.40341,-16.0029 0.0289,-0.3115 -0.11393,-0.4644 -0.48296,-0.5171 -0.28816,-0.041 -0.61188,0.013 -0.71938,0.1206 -0.19503,0.195 -2.85334,15.6758 -2.8541,16.6209 -4.1e-4,0.4208 0.11881,0.4984 0.76483,0.4984 0.69043,0 0.77724,-0.07 0.8882,-0.7199 z"
id="path4314"
style="fill:#ba9e6e;fill-opacity:1"
/>
<path
id="path4312"
style="fill:#b6b8ab;fill-opacity:1"
d="m 58.58624,66.6833999999999 c 0.38646,-8.3685 0.60869,-16.7521 0.44951,-16.9574 -0.10725,-0.1383 -0.86509,-0.4193 -1.68411,-0.6244 -0.81901,-0.2052 -1.70398,-0.574 -1.9666,-0.8197 -0.38346,-0.3587 -0.56596,-0.3993 -0.92682,-0.2062 -1.18,0.6316 -2.2854,-0.089 -3.1144,-2.0299 -0.24715,-0.5787 -0.55116,-1.0521 -0.67556,-1.0521 -0.30088,0 -1.40484,2.2128 -1.98383,3.9765 -0.41341,1.2593 -0.42809,1.4548 -0.13362,1.7802 0.29049,0.321 0.29138,0.4177 0.007,0.7931 -0.4899,0.6476 -0.48095,7.0083 0.0106,7.4998 0.19144,0.1914 0.47703,0.3481 0.63464,0.3481 0.73119,0 1.39609,0.8855 1.65571,2.2052 0.16433,0.8352 0.40365,1.407 0.63949,1.5279 0.20729,0.1062 1.19794,0.2534 2.20146,0.3271 1.83762,0.135 3.1603,0.5938 3.15801,1.0954 -6.1e-4,0.1492 -0.10531,0.646 -0.23252,1.1041 -0.17401,0.6265 -0.15998,0.9815 0.0566,1.4333 0.28929,0.6033 1.20392,1.2203 1.61692,1.0907 0.12182,-0.038 0.25106,-0.7095 0.28718,-1.4917 z"
/>
<path
style="fill:#707845;fill-opacity:1"
id="path4310"
d="m 71.29629,67.0881999999999 c 1.25862,-1.997 1.34319,-4.006 0.27738,-6.5893 -0.37784,-0.9158 -0.60756,-1.9084 -0.63124,-2.7275 -0.0247,-0.8535 -0.146,-1.3566 -0.35971,-1.4918 -0.38874,-0.2459 -1.31946,-0.2774 -1.31874,-0.045 2.1e-4,0.091 0.24823,2.6082 0.551,5.5929 0.30277,2.9848 0.55173,5.6013 0.55325,5.8145 0.004,0.6246 0.29416,0.4516 0.92806,-0.5542 z"
/>
<path
d="m 39.76914,54.9059 c 0.74393,-4.4282 1.15733,-7.9919 0.95102,-8.1982 -0.25584,-0.2558 -1.74304,0.2707 -2.71065,0.9597 -0.68701,0.4892 -1.97152,2.3324 -1.97152,2.829 0,0.1827 0.14358,0.4909 0.31906,0.6848 0.17548,0.1939 0.43685,0.8496 0.58083,1.4572 0.53311,2.2497 0.84829,2.895 1.59565,3.267 0.39394,0.1962 0.78078,0.363 0.85965,0.3708 0.0789,0.01 0.24804,-0.6088 0.37596,-1.3703 z"
id="path4308"
style="fill:#b6b8ab;fill-opacity:1"
/>
<path
id="path4306"
style="fill:#5ab6e5;fill-opacity:1"
d="m 73.41665,55.7226000000001 c 0.96688,-0.3971 0.94303,-1.0667 -0.085,-2.3862 -0.54438,-0.6987 -0.97031,-1.0331 -1.31595,-1.0331 -0.65171,0 -0.76753,0.2028 -1.08728,1.9043 -0.22729,1.2096 -0.21571,1.4435 0.0864,1.7456 0.37597,0.376 1.09277,0.3072 2.40183,-0.2306 z"
/>
<path
id="path4304"
style="fill:#80807e;fill-opacity:1"
d="m 27.63742,51.1792 c 0.33804,-2.0233 0.33536,-2.1029 -0.0869,-2.5785 -0.67052,-0.7554 -2.13764,-1.4114 -2.60144,-1.1631 -0.47263,0.2529 -1.58045,2.1793 -1.41098,2.4535 0.067,0.1084 0.34298,0.1971 0.61325,0.1971 0.82502,0 1.47598,0.6108 1.47598,1.3849 0,0.7262 0.98458,2.0139 1.42921,1.8692 0.12763,-0.042 0.38902,-1.0149 0.58087,-2.1631 z"
/>
<path
style="fill:#80807e;fill-opacity:1"
id="path4302"
d="m 34.71752,52.4929999999999 c 0.29652,-1.1012 1.29931,-3.2138 1.97764,-4.1665 0.52331,-0.7349 2.52008,-1.9983 3.16376,-2.0017 1.08456,-0.01 -0.33986,-1.612 -1.64707,-1.8572 -2.5461,-0.4777 -6.23782,2.75 -6.74912,5.9007 -0.11351,0.6995 -0.0385,0.8275 0.95208,1.624 0.59141,0.4756 1.20715,0.9893 1.3683,1.1416 0.48234,0.4558 0.67461,0.324 0.93441,-0.6409 z"
/>
<path
d="m 30.81385,50.9286 c 0.0207,-0.036 0.1582,-0.5409 0.30564,-1.1225 0.68322,-2.6951 3.36625,-5.3543 5.86944,-5.8174 1.08511,-0.2007 2.60947,0.365 3.34777,1.2424 0.30017,0.3567 0.59057,0.6486 0.64533,0.6486 0.0548,0 0.21601,-0.8223 0.35832,-1.8274 0.14231,-1.0051 0.30375,-1.9822 0.35877,-2.1713 0.055,-0.1891 -0.0318,-0.5242 -0.19297,-0.7446 -0.27598,-0.3774 -0.59442,-0.2889 -5.48324,1.5241 -2.85464,1.0586 -5.271,2.0027 -5.3697,2.098 -0.24612,0.2376 -1.29302,5.9836 -1.13637,6.2371 0.10806,0.1749 1.18968,0.119 1.29701,-0.067 z"
id="path4300"
style="fill:#ba9e6e;fill-opacity:1"
/>
<path
d="m 22.1457799999999,50.0075999999999 c 0.49048,-0.2079 0.93813,-0.6992 1.43539,-1.5752 l 0.72263,-1.2731 -0.61187,0.1517 c -0.33653,0.083 -1.02331,0.3327 -1.52618,0.554 -0.80263,0.3532 -0.92737,0.5068 -1.02126,1.2574 -0.16028,1.2813 -0.0867,1.3464 1.00129,0.8852 z"
id="path4298"
style="fill:#ba9e6e;fill-opacity:1"
/>
<path
d="m 47.99916,49.7748999999999 c 0,-0.7199 1.4177,-3.9469 2.23609,-5.0898 0.48564,-0.6782 1.31587,-1.5309 1.84497,-1.8949 1.2728,-0.8757 4.02866,-1.7836 5.41419,-1.7836 0.61092,0 1.1746,-0.1033 1.25262,-0.2295 0.078,-0.1263 -0.24005,-0.6112 -0.70682,-1.0776 -0.63129,-0.6309 -1.14931,-0.9125 -2.02246,-1.0995 -1.6834,-0.3606 -2.39941,-0.31 -4.09874,0.2897 -2.17793,0.7686 -3.81648,2.102 -5.59569,4.5535 -1.11724,1.5393 -1.34993,2.0815 -1.53038,3.5655 l -0.14551,1.1968 1.49761,0.9414 c 1.63014,1.0246 1.85412,1.1005 1.85412,0.628 z"
style="fill:#80807e;fill-opacity:1"
id="path4296"
/>
<path
d="m 59.31786,46.0226 c -0.0162,-4.3328 -0.0189,-4.4222 -0.13987,-4.5431 -0.0615,-0.062 -0.68408,-0.098 -1.38351,-0.081 -2.25221,0.054 -5.19598,1.2288 -6.45383,2.5753 -0.48712,0.5215 -0.50437,0.6073 -0.19342,0.9625 0.18777,0.2144 0.54366,0.8549 0.79086,1.4231 0.62648,1.4401 1.37961,1.7707 2.73053,1.1985 0.22492,-0.095 0.60556,0.058 1.03073,0.4162 0.38839,0.3269 1.16891,0.6611 1.84152,0.7887 0.64207,0.1217 1.21383,0.2678 1.27057,0.3245 0.36943,0.3695 0.51591,-0.517 0.50642,-3.0644 z"
id="path4232-6"
style="fill:#59b4e0;fill-opacity:1"
/>
<path
style="fill:#ba9e6e;fill-opacity:1"
id="path4230-3"
d="m 28.38087,46.9514999999999 c 0.0856,-0.6005 0.057,-1.0883 -0.0686,-1.1659 -0.27621,-0.1707 -2.68497,0.7228 -2.68497,0.996 0,0.1131 0.1246,0.2097 0.27688,0.2147 0.15228,0 0.67558,0.296 1.16289,0.6468 0.48731,0.3508 0.94912,0.571 1.02626,0.4893 0.0771,-0.082 0.20651,-0.6131 0.2875,-1.1809 z"
/>
<path
style="fill:#ba9e6e;fill-opacity:1"
id="path4228"
d="m 44.33107,46.6846 c 0.26536,-2.1239 2.95787,-5.7842 5.36731,-7.2966 2.99904,-1.8825 6.88441,-1.9292 8.65087,-0.1041 0.78822,0.8144 1.38958,2.0871 1.38958,2.9408 0,0.6382 0.54394,0.96 1.066,0.6307 0.28998,-0.1829 0.3331,-0.8076 0.28691,-4.1561 -0.0529,-3.8376 -0.23979,-5.0023 -0.80254,-5.0023 -0.29297,0 -15.52928,5.6426 -16.05083,5.9442 -0.42407,0.2453 -0.68152,1.5346 -1.4558,7.2906 l -0.12663,0.9414 0.76331,0 c 0.7568,0 0.76458,-0.01 0.91182,-1.1886 z"
/>
<path
style="fill:#7b7978;fill-opacity:1"
id="path4226"
d="m 24.32975,46.5395000000001 c 1.62738,-0.6118 3.08572,-1.1577 3.24076,-1.2133 0.22819,-0.082 0.22819,-0.1969 0,-0.6044 -0.15504,-0.2769 -0.30267,-0.5408 -0.32806,-0.5865 -0.0254,-0.046 -1.32118,0.4247 -2.87954,1.0452 -1.55836,0.6206 -3.12064,1.2336 -3.47175,1.3624 -0.61945,0.2271 -0.62664,0.247 -0.24255,0.6714 0.2177,0.2406 0.46928,0.4374 0.55905,0.4374 0.0898,0 1.49472,-0.5005 3.12209,-1.1122 z"
/>
<path
id="path4224-0"
style="fill:#ba9e6e;fill-opacity:1"
d="m 31.75473,41.7657999999999 c 6.68064,-2.6282 13.50536,-5.3162 15.16603,-5.9735 2.57646,-1.0198 6.72395,-2.6512 22.35858,-8.795 l 2.34165,-0.9201 0.2311,-1.2293 c 0.12711,-0.6761 0.211,-1.2545 0.18643,-1.2854 -0.0417,-0.052 -2.54933,0.954 -11.30292,4.5359 -1.94923,0.7976 -5.93629,2.4229 -8.86013,3.6117 -2.92384,1.1889 -10.00087,4.0766 -15.72673,6.4173 -5.72586,2.3406 -12.00547,4.9023 -13.9547,5.6926 -1.94923,0.7904 -3.5727,1.4646 -3.60772,1.4982 -0.15682,0.1508 0.49605,1.226 0.74441,1.226 0.15256,0 5.74336,-2.1503 12.424,-4.7784 z"
/>
<path
style="fill:#ba9e6e;fill-opacity:1"
id="path4222-8"
d="m 29.92295,45.3078 c 0.48122,-1.254 -0.1388,-2.3355 -1.09037,-1.902 -0.69743,0.3178 -0.6878,0.5493 0.0619,1.4889 0.68312,0.8562 0.83501,0.9172 1.02844,0.4131 z"
/>
<path
style="fill:#80807e;fill-opacity:1"
id="path4220-0"
d="m 68.7490299999999,40.5840000000001 c 0.83753,-1.4338 2.84325,-3.4753 4.22697,-4.3024 1.56202,-0.9337 2.04775,-1.9202 2.04316,-4.1497 -0.004,-2.004 -0.16851,-2.3596 -0.90983,-1.9682 -2.44384,1.2904 -6.04531,4.5048 -7.51999,6.7119 -0.87605,1.3111 -1.75593,3.6948 -1.75593,4.7571 0,0.4082 0.37515,0.9584 1.27013,1.8629 l 1.27014,1.2835 0.39058,-1.589 c 0.21482,-0.8739 0.65797,-2.0466 0.98477,-2.6061 z"
/>
<path
id="path4218-2"
style="fill:#7b7978;fill-opacity:1"
d="m 35.82583,42.2293 c 3.32932,-1.2572 4.94501,-1.9714 4.88538,-2.1597 -0.049,-0.1547 -0.0953,-0.4557 -0.10284,-0.6689 -0.008,-0.2132 -0.13096,-0.3876 -0.27422,-0.3876 -0.14326,0 -1.49245,0.4837 -2.99821,1.0749 -1.50574,0.5913 -3.73449,1.4585 -4.95275,1.9272 -1.21827,0.4686 -2.24975,0.8752 -2.29218,0.9034 -0.0541,0.036 0.60494,1.0732 0.75099,1.1821 0.005,0 2.24786,-0.8383 4.98383,-1.8714 z"
/>
<path
id="path4216-8"
style="fill:#5ab6e5;fill-opacity:1"
d="m 74.81094,41.9135000000001 c 0.46347,-0.5768 0.93954,-0.911 1.42795,-1.0027 1.58587,-0.2975 1.34286,-1.4852 -0.29467,-1.4402 -0.44601,0.012 -1.09155,-0.049 -1.43454,-0.1355 -0.49427,-0.125 -0.69215,-0.06 -0.95395,0.3139 -0.18168,0.2594 -0.53169,0.4716 -0.77781,0.4716 -0.65453,0 -1.78914,1.2168 -1.70265,1.826 0.0628,0.442 0.17914,0.4917 1.0065,0.4301 0.51453,-0.038 1.11259,0.033 1.32902,0.1594 0.58695,0.3417 0.64647,0.3152 1.40015,-0.6226 z"
/>
<path
d="m 63.82222,42.1196 c 0.41939,-0.1594 0.5694,-0.377 0.57285,-0.8306 0.007,-0.9675 0.96146,-3.4276 1.84631,-4.7607 1.14905,-1.7311 3.35416,-3.872 5.67596,-5.5108 1.09997,-0.7763 1.96859,-1.5056 1.93026,-1.6206 -0.23106,-0.6932 -0.86699,-0.5531 -5.69219,1.2545 l -4.98328,1.8667 -0.29266,1.3093 c -0.27721,1.2402 -0.37358,7.9255 -0.12016,8.3356 0.14054,0.2274 0.37603,0.2178 1.06291,-0.043 z"
id="path4214-4"
style="fill:#ba9e6e;fill-opacity:1"
/>
<path
id="path4212-4"
style="fill:#ba9e6e;fill-opacity:1"
d="m 43.20799,40.9512 c 0.0734,-0.2741 0.13492,-0.704 0.13658,-0.9553 0.003,-0.4848 -1.05837,-1.6473 -1.50424,-1.6473 -0.48739,0 -0.27916,1.3486 0.34437,2.2303 0.70789,1.0009 0.84178,1.0496 1.02329,0.3723 z"
/>
<path
style="fill:#59b4e0;fill-opacity:1"
id="path4210-8"
d="m 33.60145,38.7067 c 2.49745,-1.0196 5.88645,-2.4046 7.53111,-3.0777 1.64466,-0.6731 4.58512,-1.871 6.53435,-2.662 1.94922,-0.791 7.92981,-3.2289 13.29019,-5.4176 5.36038,-2.1888 10.12999,-4.1168 10.59913,-4.2846 1.03467,-0.3701 1.86858,-1.4163 1.55087,-1.9458 -0.34664,-0.5776 -3.77144,-2.7984 -6.16941,-4.0005 -1.89808,-0.9515 -6.48835,-2.6708 -7.13078,-2.6708 -9.8255,-1.5895 -9.90606,-1.7038 -17.92715,0.03 -0.11465,-0.1561 -3.31956,0.9015 -5.39876,1.7816 -2.43508,1.0307 -5.48186,2.774 -7.50059,4.2917 -1.62507,1.2217 -5.1251,4.4821 -5.1251,4.7742 0,0.1086 0.27411,0.1989 0.60914,0.2007 0.99543,0.01 1.67041,0.4791 1.88877,1.3257 0.25727,0.9975 0.2412,0.9883 0.92989,0.537 0.71261,-0.4669 2.19142,-0.5273 3.14292,-0.1283 1.40095,0.5874 1.52259,2.4235 0.24769,3.7388 -0.54696,0.5644 -0.64484,0.7857 -0.43868,0.9918 0.14999,0.15 0.26537,0.8721 0.26537,1.6609 0,1.1001 -0.0938,1.4892 -0.44301,1.8384 -0.24365,0.2437 -0.5676,0.4464 -0.71988,0.4504 -0.28877,0.01 -1.27365,0.7496 -1.27365,0.9595 0,0.066 0.25943,0.38 0.57651,0.697 0.58186,0.5819 0.65027,1.3612 0.20881,2.3786 -0.0925,0.2132 -0.0828,0.3869 0.0216,0.3861 0.1044,-8e-4 2.23319,-0.8357 4.73064,-1.8554 z"
/>
<path
style="fill:#7b7978;fill-opacity:1"
id="path4208-9"
d="m 51.83969,36.2575999999999 c 4.36608,-1.6329 7.98092,-3.0115 8.03297,-3.0636 0.17211,-0.1721 -0.27936,-1.8237 -0.48552,-1.7762 -0.11114,0.026 -1.99624,0.7556 -4.18912,1.6222 -2.19289,0.8666 -5.87023,2.3135 -8.17188,3.2153 -2.30165,0.9019 -4.23743,1.6923 -4.30173,1.7566 -0.12232,0.1223 0.82776,1.2256 1.04943,1.2187 0.0701,0 3.69976,-1.3401 8.06585,-2.973 z"
/>
<path
style="fill:#ba9e6e;fill-opacity:1"
id="path4204-6"
d="m 62.5029500000001,32.4786999999999 c -0.16845,-0.687 -1.18467,-1.7197 -1.55319,-1.5783 -0.59339,0.2277 -0.42427,0.8338 0.7494,2.6859 l 0.56149,0.886 0.17546,-0.7753 c 0.0965,-0.4264 0.12658,-0.9746 0.0668,-1.2183 z"
/>
<path
d="m 67.82779,30.2643 c 2.43428,-0.9134 4.55057,-1.661 4.70285,-1.6613 0.15228,-2e-4 0.27688,-0.095 0.27688,-0.2094 0,-0.3212 -0.90698,-1.7847 -1.10601,-1.7847 -0.15119,0 -2.53646,0.922 -8.30269,3.2093 -0.72811,0.2888 -1.35827,0.6285 -1.40036,0.7547 -0.11325,0.3398 0.67786,1.3371 1.06701,1.3451 0.18499,0 2.32803,-0.7403 4.76232,-1.6537 z"
id="path4202-0"
style="fill:#7b7978;fill-opacity:1"
/>
<path
d="m 50.40112,0.401100000000042 0,13.2751 c 19.81579,0.055 35.86767,16.1069 35.92271,35.9227 l 13.27509,0 c -3e-5,-27.172 -22.02576,-49.1978 -49.1978,-49.1978 z m 35.92271,49.1978 0,0.1016 c -3e-5,-0.034 6e-5,-0.067 0,-0.1016 z"
style="fill:#008751;fill-opacity:1;stroke:#000000;stroke-width:0.80220228;stroke-opacity:1"
id="path5057"
/>
<path
id="path5059"
style="fill:#ef6b00;fill-opacity:1;stroke:#000000;stroke-width:0.8062191;stroke-opacity:1"
d="m 99.59691,49.9031 -13.27403,0 c -0.0552,20.0156 -16.10555,36.2292 -35.91975,36.2847 l 0,13.4091 c 27.16981,-10e-5 49.19378,-22.2477 49.19378,-49.6938 z m -49.19378,36.2847 -0.10163,0 c 0.0341,0 0.0675,10e-5 0.10163,0 z"
/>
<path
d="m 50.09489,99.5949000000001 0,-13.408 c -20.01396,-0.055 -36.22636,-16.268 -36.28193,-36.2823 l -13.40783,0 c 10e-6,27.4439 22.24602,49.6903 49.68976,49.6903 z m -36.28193,-49.6903 0,-0.1026 c 2e-5,0.035 -4e-5,0.067 0,0.1026 z"
style="fill:#0054a0;fill-opacity:1;stroke:#000000;stroke-width:0.81024092;stroke-opacity:1"
id="path5061"
/>
<path
id="path5063"
style="fill:#fcd116;fill-opacity:1;stroke:#000000;stroke-width:0.80621928;stroke-opacity:1"
d="m 0.403130000000033,49.5969 13.40893,0 c 0.0554,-19.8142 16.26926,-35.8648 36.28485,-35.9198 l 0,-13.274 c -27.44598,0 -49.69378,22.024 -49.69378,49.1938 z m 49.69378,-35.9198 0.10243,0 c -0.0344,0 -0.0682,0 -0.10243,0 z"
/>
<circle
style="fill:none;stroke:#000000;stroke-width:2;stroke-opacity:1"
cy="49.9999"
id="circle5065"
cx="50"
r="49"
/>
</svg>
