<?xml version="1.0" encoding="UTF-8" standalone="no"?>
<svg
xmlns:sodipodi="http://sodipodi.sourceforge.net/DTD/sodipodi-0.dtd"
xmlns:inkscape="http://www.inkscape.org/namespaces/inkscape"
xmlns:cc="http://creativecommons.org/ns#"
xmlns:svg="http://www.w3.org/2000/svg"
xmlns:rdf="http://www.w3.org/1999/02/22-rdf-syntax-ns#"
xmlns="http://www.w3.org/2000/svg"
xmlns:dc="http://purl.org/dc/elements/1.1/"
>
<ellipse
ry="48.03846"
style="fill:#dfe5e6;fill-opacity:1;stroke:#000000;stroke-width:3.92307711;stroke-opacity:1"
id="path3578"
cy="50"
cx="50"
rx="48.038464"
/>
<path
style="fill:#000000;fill-opacity:1"
id="path3580"
class="fil0"
d="m 86.5454,53.5144 c 1.0345,-2.0699 1.5854,-4.2681 0.9716,-6.0231 -0.8044,-2.2997 -3.0638,-3.966 -5.4557,-5.0307 -1.6604,-0.7377 -9.6671,-3.1021 -8.8236,-4.4201 1.4091,-2.2024 -1.3588,-3.3666 -3.009,-4.9527 -4.4016,-4.2298 -5.9932,-6.1811 -10.4398,-8.6015 -4.289,-2.3347 -10.0815,-2.6956 -13.3422,-2.4912 8.6967,1.1025 16.2446,5.0587 12.9932,8.2515 -1.7752,1.7435 -5.5723,1.501 -12.0619,-0.5836 -6.8459,-2.1983 -15.8446,-6.0894 -20.0856,-13.4979 1.9044,8.8087 13.3313,14.1736 21.4342,17.0722 -3.8469,0.9053 -6.1128,1.4812 -10.5386,3.526 -6.1981,-1.43 -12.8685,-1.6726 -18.9253,3.9761 6.3521,-2.8181 11.2937,-3.08 13.0027,-0.9349 -2.8376,1.8776 -4.8234,3.4804 -6.5546,5.7028 -5.8361,1.643 -9.0903,3.3262 -10.6952,7.9659 2.4912,-3.4779 5.4827,-5.0368 8.1918,-4.0056 -1.0637,2.347 -1.5639,4.9318 -1.4412,7.8351 -2.5426,1.8856 -4.3238,4.4152 -4.7497,10.4537 1.4552,-4.9619 3.4426,-6.8849 5.2215,-6.7056 0.034,0.1774 0.071,0.339 0.1085,0.5131 0.5135,2.3108 1.2916,4.2624 2.2552,6.063 -2.1797,2.0425 -3.4091,4.7821 -2.6927,11.7988 0.2006,-4.8139 1.5663,-8.4028 4.4956,-9.0321 1.437,2.024 3.7153,5.1846 5.3839,7.5713 1.0738,1.5345 -1.5925,12.9335 -1.7091,15.4021 l 15.3871,4.1446 16.981,-1.9772 c 2.5362,-13.1028 -10.6336,-28.766 -15.9878,-32.9903 -2.4219,-1.9093 -4.2464,-5.9189 -3.4689,-8.7393 0.9904,-3.5932 3.9549,-6.9162 7.5437,-8.1104 1.5223,1.1953 2.3601,1.7455 2.9522,3.4872 1.8187,5.352 2.8458,7.9171 11.0981,12.2785 2.3009,1.2151 4.6664,0.513 6.7181,0.2562 -1.2857,-0.274 -2.4015,-0.3212 -3.6872,-0.5959 1.1852,-0.2214 2.1157,-1.1953 2.3675,-1.7948 -1.6226,0.8717 -3.5845,0.7179 -5.8864,-0.4616 1.1771,-0.2269 2.7078,-0.7832 3.5814,-1.2112 -1.6912,0.079 -4.185,-0.1774 -4.9636,-0.8954 -0.6376,-0.5877 -1.3629,-1.495 -1.5997,-2.2911 1.3453,0.7357 2.9856,0.079 4.1041,0 -1.8626,-0.3095 -5.102,-1.8106 -5.9111,-3.0687 -1.4459,-2.2501 -2.4912,-4.33 -2.7639,-6.5012 3.0765,2.6931 6.3649,5.7647 9.2735,8.2952 3.4063,2.9634 7.5832,5.1786 11.5641,5.7449 3.1971,0.4536 3.9656,0.7042 6.2271,3.0234 -1.1125,-3.4268 -4.1144,-3.5279 -5.6709,-4.0318 2.298,-0.079 4.5955,0.079 7.2277,1.6114 -2.4834,-2.8219 -5.0738,-2.5511 -7.6727,-2.5205 -2.6849,0.041 -6.6731,-1.213 -9.7852,-4.1321 -3.1438,-2.9507 -5.8056,-5.273 -8.7484,-9.3809 3.3718,0.8657 6.5886,2.6342 7.6748,5.9105 0.3405,-1.7574 0,-3.4138 -1.0149,-4.9678 1.7694,-0.1575 4.5996,2.5293 7.2737,6.6637 0.02,-1.4734 0.2263,-2.5931 -0.4453,-4.7708 2.8569,0.4322 4.4962,1.7693 6.1291,4.7708 0.7196,-1.1697 1.0662,-2.5685 -0.1441,-4.1486 3.2912,0.6465 4.0951,3.1225 5.3403,5.5178 0.3411,-1.3018 0.6208,-2.4276 0.8935,-3.0255 0.7141,-0.014 1.8604,1.0257 1.88,4.0564 l 0,0 -2e-4,0 2e-4,0 0,10e-5 10e-5,-10e-5 z m -3.9551,-9.4508 c 0.5684,0.2542 1.4848,0.8362 1.6274,1.7594 -0.5488,-0.337 -1.0155,-0.041 -1.8661,-0.6487 -0.8059,-0.5802 -0.9987,-1.002 -1.4155,-1.1637 0.5617,-0.099 1.2847,-0.079 1.6542,0.062 l 0,-0.014 0,0.011 0,0 0,2e-4 z m -17.167,-9.4377 c 1.6193,0.7318 1.8809,1.1894 3.0032,3.1667 -1.6808,-1.1755 -2.6072,-0.079 -3.8731,-0.9881 -1.1692,-0.8145 -2.0039,-1.9791 -3.5499,-2.4408 1.5989,-0.361 3.3685,-0.2213 4.4198,0.2643 l 0,0 0,0 0,-10e-5 0,3e-4 z"
/>
<path
style="fill:#fd0000"
id="path4523"
d="m 44.6092000000001,41.0917999999999 c 0.061,0.015 0.1308,0.024 0.1553,0.021 0.025,0 0.1452,0.011 0.2686,0.026 0.4511,0.062 0.9801,0.055 1.4524,-0.022 1.4304,-0.231 2.5112,-1.0842 3.1728,-2.5043 0.1041,-0.2237 0.271,-0.6551 0.3291,-0.8509 0.028,-0.093 0.049,-0.1371 0.068,-0.1375 0.014,-4e-4 0.072,0.025 0.1267,0.058 0.3954,0.2338 0.8216,0.361 0.924,0.2757 0.013,-0.012 0.045,-0.091 0.071,-0.1757 0.044,-0.1503 0.051,-0.1604 0.2231,-0.3389 0.5488,-0.5697 1.6415,-1.4125 2.8384,-2.1895 0.7566,-0.491 1.2893,-0.8017 2.1712,-1.2659 1.413,-0.7438 2.6917,-1.2742 4.0042,-1.6611 2.1593,-0.6365 4.0213,-0.7836 5.8548,-0.4625 0.3624,0.063 1.2928,0.3324 1.6267,0.4701 1.7128,0.7067 3.0902,1.8703 4.2701,3.607 0.1041,0.1533 0.345,0.5525 0.5352,0.887 l 0.3458,0.6082 0.08,-0.04 c 0.1915,-0.096 0.7808,-0.7837 1.056,-1.2328 0.036,-0.059 0.079,-0.1157 0.097,-0.1266 0.023,-0.015 0.1078,-0.2745 0.3061,-0.9291 l 0.2752,-0.909 -0.049,-0.2234 c -0.028,-0.1228 -0.076,-0.2858 -0.1076,-0.3621 -0.077,-0.186 -0.1036,-0.3582 -0.1156,-0.7582 -0.038,-1.2756 -0.051,-1.389 -0.1916,-1.6358 -0.1082,-0.1905 -0.2686,-0.3415 -0.6555,-0.6166 -0.3444,-0.2452 -0.4894,-0.3821 -0.5615,-0.5304 -0.029,-0.059 -0.1586,-0.3989 -0.2888,-0.7553 -0.6502,-1.7799 -1.1516,-2.9 -1.8104,-4.044 -1.3079,-2.2711 -2.8172,-3.7312 -4.5923,-4.4431 -0.5322,-0.2133 -2.1288,-0.5886 -3.4427,-0.8091 -2.5653,-0.4306 -4.5907,-0.3168 -6.4928,0.3648 -0.824,0.2952 -1.6642,0.7317 -2.4424,1.2689 -2.8054,1.9364 -5.3055,5.431 -7.6197,10.6517 -0.1255,0.2828 -0.2517,0.5725 -0.2808,0.6439 -0.086,0.2108 -0.073,0.2047 -0.3274,0.1582 -0.7807,-0.1426 -1.5657,0.046 -2.2183,0.5348 -0.229,0.1713 -0.6353,0.593 -0.8145,0.8454 -0.2947,0.4149 -0.5609,0.9262 -0.8201,1.575 -0.2469,0.6181 -0.3793,1.3639 -0.3543,1.9968 0.021,0.5174 0.1353,0.9349 0.3726,1.3534 0.3345,0.5901 0.8243,1.0071 1.6435,1.3995 0.091,0.043 0.6871,0.2236 0.9191,0.2777 z"
/>
<path
style="fill:#ffffff;fill-opacity:1"
id="path4525-8"
d="m 44.0162,40.7026000000001 c -1.2254,-0.6192 -2.04,-1.8577 -2.1296,-3.2367 -0.089,-1.3677 0.5267,-2.6815 1.6316,-3.4832 1.6138,-1.1711 3.8307,-0.9292 5.1389,0.5611 1.5239,1.736 1.2111,4.4496 -0.67,5.8148 -0.8182,0.5936 -1.8413,0.8461 -2.8418,0.7014 -0.2773,-0.04 -0.8771,-0.23 -1.1291,-0.3574 z"
/>
<path
d="m 50.2022999999999,37.4362000000001 c -0.1599,-0.1269 -0.3078,-0.4971 -0.3957,-0.9907 -0.043,-0.2408 -0.1033,-0.785 -0.1055,-0.9513 -7e-4,-0.041 0.047,-0.074 0.342,-0.231 0.7512,-0.4013 2.1716,-1.2893 4.1975,-2.6245 0.7395,-0.4873 1.5414,-1.022 1.6182,-1.0786 0.071,-0.053 -0.099,0.033 -0.9534,0.4753 -1.4842,0.7698 -2.209,1.0623 -2.5264,1.0192 -0.1038,-0.014 -0.1444,-0.069 -0.1035,-0.1424 0.1398,-0.2489 0.605,-0.8096 1.5043,-1.8127 0.4153,-0.4632 1.5215,-1.667 1.7974,-1.9556 l 0.1365,-0.1429 0.8022,-0.1272 c 4.5726,-0.7241 7.9151,-1.0375 9.5348,-0.8939 l 0.2729,0.024 2.1584,0.6376 c 2.2009,0.6499 2.3894,0.7107 3.0562,0.9875 1.5512,0.6437 2.3838,1.3383 2.5286,2.1094 0.026,0.1393 0.034,0.2618 0.023,0.376 -0.019,0.2031 -0.1192,0.52 -0.167,0.532 -0.018,0 -0.093,-0.031 -0.1793,-0.085 -0.6524,-0.4116 -1.548,-0.866 -2.4091,-1.2223 -0.339,-0.1403 -0.5022,-0.1951 -1.185,-0.3975 -0.851,-0.2525 -1.0841,-0.304 -1.6876,-0.3735 -0.4873,-0.056 -1.0543,-0.072 -0.7692,-0.02 0.051,0.011 0.4337,0.1062 0.8514,0.2157 1.6803,0.4411 3.1977,1.0184 4.2236,1.6069 1.0598,0.6079 1.7182,1.3185 1.7668,1.9064 0.043,0.5215 -0.424,1.3947 -1.1953,2.2348 -0.1601,0.1745 -0.2006,0.1954 -0.2343,0.1207 -0.01,-0.02 -0.059,-0.074 -0.1092,-0.1176 -0.1154,-0.1001 -0.2436,-0.277 -0.5625,-0.775 -0.4445,-0.6942 -0.7826,-1.1391 -1.202,-1.5821 -1.3982,-1.4764 -3.3366,-2.3868 -5.9122,-2.7765 -1.5295,-0.2316 -2.8707,-0.1671 -4.4503,0.2142 -1.9798,0.4778 -4.1794,1.5027 -6.4107,2.9874 -0.9588,0.6378 -1.6328,1.134 -2.9275,2.1551 -0.654,0.5158 -0.8932,0.6957 -0.9748,0.7332 -0.1302,0.06 -0.2485,0.049 -0.3526,-0.035 z"
style="fill:#ffffff;fill-opacity:1"
id="path4527-8"
/>
<path
id="path4529-7"
style="fill:#00000f;fill-opacity:1;stroke:#000000;stroke-width:0.26355484;stroke-opacity:1"
d="m 44.6092000000001,41.0917999999999 c 0.061,0.015 0.1308,0.024 0.1553,0.021 0.025,0 0.1452,0.011 0.2686,0.026 0.4511,0.062 0.9801,0.055 1.4524,-0.022 1.4304,-0.231 2.5112,-1.0842 3.1728,-2.5043 0.1041,-0.2237 0.271,-0.6551 0.3291,-0.8509 0.028,-0.093 0.049,-0.1371 0.068,-0.1375 0.014,-4e-4 0.072,0.025 0.1267,0.058 0.3954,0.2338 0.8216,0.361 0.924,0.2757 0.013,-0.012 0.045,-0.091 0.071,-0.1757 0.044,-0.1503 0.051,-0.1604 0.2231,-0.3389 0.5488,-0.5697 1.6415,-1.4125 2.8384,-2.1895 0.7566,-0.491 1.2893,-0.8017 2.1712,-1.2659 1.413,-0.7438 2.6917,-1.2742 4.0042,-1.6611 2.1593,-0.6365 4.0213,-0.7836 5.8548,-0.4625 0.3624,0.063 1.2928,0.3324 1.6267,0.4701 1.7128,0.7067 3.0902,1.8703 4.2701,3.607 0.1041,0.1533 0.345,0.5525 0.5352,0.887 l 0.3458,0.6082 0.08,-0.04 c 0.1915,-0.096 0.7808,-0.7837 1.056,-1.2328 0.036,-0.059 0.079,-0.1157 0.097,-0.1266 0.023,-0.015 0.1078,-0.2745 0.3061,-0.9291 l 0.2752,-0.909 -0.049,-0.2234 c -0.028,-0.1228 -0.076,-0.2858 -0.1076,-0.3621 -0.077,-0.186 -0.1036,-0.3582 -0.1156,-0.7582 -0.038,-1.2756 -0.051,-1.389 -0.1916,-1.6358 -0.1082,-0.1905 -0.2686,-0.3415 -0.6555,-0.6166 -0.3444,-0.2452 -0.4894,-0.3821 -0.5615,-0.5304 -0.029,-0.059 -0.1586,-0.3989 -0.2888,-0.7553 -0.6502,-1.7799 -1.1516,-2.9 -1.8104,-4.044 -1.3079,-2.2711 -2.8172,-3.7312 -4.5923,-4.4431 -0.5322,-0.2133 -2.1288,-0.5886 -3.4427,-0.8091 -2.5653,-0.4306 -4.5907,-0.3168 -6.4928,0.3648 -0.824,0.2952 -1.6642,0.7317 -2.4424,1.2689 -2.8054,1.9364 -5.3055,5.431 -7.6197,10.6517 -0.1255,0.2828 -0.2517,0.5725 -0.2808,0.6439 -0.086,0.2108 -0.073,0.2047 -0.3274,0.1582 -0.7807,-0.1426 -1.5657,0.046 -2.2183,0.5348 -0.229,0.1713 -0.6353,0.593 -0.8145,0.8454 -0.2947,0.4149 -0.5609,0.9262 -0.8201,1.575 -0.2469,0.6181 -0.3793,1.3639 -0.3543,1.9968 0.021,0.5174 0.1353,0.9349 0.3726,1.3534 0.3345,0.5901 0.8243,1.0071 1.6435,1.3995 0.091,0.043 0.6871,0.2236 0.9191,0.2777 z m -0.468,-0.6746 c -1.1869,-0.5862 -1.9874,-1.7369 -2.0921,-3.0072 -0.1039,-1.2596 0.4703,-2.4602 1.5221,-3.1829 1.5366,-1.0558 3.6724,-0.8032 4.9508,0.5858 1.4894,1.6181 1.2255,4.111 -0.5656,5.3415 -0.7791,0.5353 -1.7599,0.7539 -2.7242,0.6069 -0.2671,-0.041 -0.8467,-0.2233 -1.091,-0.3441 z m 6.0611,-2.981 c -0.1599,-0.1269 -0.3078,-0.4971 -0.3957,-0.9907 -0.043,-0.2408 -0.1033,-0.785 -0.1055,-0.9513 -7e-4,-0.041 0.047,-0.074 0.342,-0.231 0.7512,-0.4013 2.1716,-1.2893 4.1975,-2.6245 0.7395,-0.4873 1.5414,-1.022 1.6182,-1.0786 0.071,-0.053 -0.099,0.033 -0.9534,0.4753 -1.4842,0.7698 -2.209,1.0623 -2.5264,1.0192 -0.1038,-0.014 -0.1444,-0.069 -0.1035,-0.1424 0.1398,-0.2489 0.605,-0.8096 1.5043,-1.8127 0.4153,-0.4632 1.5215,-1.667 1.7974,-1.9556 l 0.1365,-0.1429 0.8022,-0.1272 c 4.5726,-0.7241 7.9151,-1.0375 9.5348,-0.8939 l 0.2729,0.024 2.1584,0.6376 c 2.2009,0.6499 2.3894,0.7107 3.0562,0.9875 1.5512,0.6437 2.3838,1.3383 2.5286,2.1094 0.026,0.1393 0.034,0.2618 0.023,0.376 -0.019,0.2031 -0.1192,0.52 -0.167,0.532 -0.018,0 -0.093,-0.031 -0.1793,-0.085 -0.6524,-0.4116 -1.548,-0.866 -2.4091,-1.2223 -0.339,-0.1403 -0.5022,-0.1951 -1.185,-0.3975 -0.851,-0.2525 -1.0841,-0.304 -1.6876,-0.3735 -0.4873,-0.056 -1.0543,-0.072 -0.7692,-0.02 0.051,0.011 0.4337,0.1062 0.8514,0.2157 1.6803,0.4411 3.1977,1.0184 4.2236,1.6069 1.0598,0.6079 1.7182,1.3185 1.7668,1.9064 0.043,0.5215 -0.424,1.3947 -1.1953,2.2348 -0.1601,0.1745 -0.2006,0.1954 -0.2343,0.1207 -0.01,-0.02 -0.059,-0.074 -0.1092,-0.1176 -0.1154,-0.1001 -0.2436,-0.277 -0.5625,-0.775 -0.4445,-0.6942 -0.7826,-1.1391 -1.202,-1.5821 -1.3982,-1.4764 -3.3366,-2.3868 -5.9122,-2.7765 -1.5295,-0.2316 -2.8707,-0.1671 -4.4503,0.2142 -1.9798,0.4778 -4.1794,1.5027 -6.4107,2.9874 -0.9588,0.6378 -1.6328,1.134 -2.9275,2.1551 -0.654,0.5158 -0.8932,0.6957 -0.9748,0.7332 -0.1302,0.06 -0.2485,0.049 -0.3526,-0.035 z m -1.6615,-2.995 -0.6019,-0.6345 -0.6021,-0.2795 c -0.3312,-0.1539 -0.6086,-0.291 -0.6164,-0.3048 -0.032,-0.056 1.1469,-2.3815 1.8505,-3.6532 2.4841,-4.49 4.7658,-7.1813 7.1407,-8.4234 1.1582,-0.6057 2.354,-0.8952 3.8288,-0.9266 0.6004,-0.013 1.2177,0.012 2.3414,0.092 0.3362,0.024 0.9021,0.061 1.2573,0.081 0.3552,0.02 0.7298,0.047 0.8325,0.061 0.7815,0.1001 1.5279,0.3649 2.3,0.8146 0.5477,0.3191 0.9679,0.6311 1.5359,1.1402 1.0044,0.9003 1.9037,1.9937 2.8661,3.485 0.269,0.4166 0.9153,1.5408 1.1728,2.04 0.448,0.8681 0.8265,1.7013 0.7832,1.7238 -0.02,0.011 -0.098,-0.025 -0.2713,-0.1247 -0.8886,-0.5057 -1.6631,-0.8301 -2.7541,-1.1534 -1.43,-0.4237 -2.8092,-0.6449 -4.5329,-0.7272 -2.55,-0.1216 -5.5484,0.157 -8.1809,0.76 -0.2472,0.057 -0.4597,0.096 -0.472,0.086 -0.03,-0.022 0.01,-0.09 0.1616,-0.31 0.7208,-1.0192 2.3713,-1.7787 4.8226,-2.2192 0.6076,-0.1092 1.4921,-0.2205 2.0626,-0.2596 0.094,-0.011 0.1726,-0.017 0.1743,-0.023 0.01,-0.023 -0.3895,-0.099 -0.6372,-0.123 -0.8486,-0.081 -2.2958,0.086 -3.6226,0.4176 -0.2049,0.052 -0.2404,0.033 -0.1703,-0.092 0.1723,-0.3032 1.3879,-0.9307 3.2261,-1.6649 0.4209,-0.1683 0.4921,-0.2035 0.4129,-0.2043 -0.022,-2e-4 -0.1,0 -0.1719,-0.011 -1.3559,-0.066 -3.3294,0.9309 -5.6608,2.8598 -2.191,1.8125 -4.948,4.6828 -7.3338,7.635 -0.2271,0.2811 -0.4271,0.5279 -0.4444,0.5486 -0.017,0.021 -0.045,0.034 -0.063,0.028 -0.017,0 -0.3024,-0.2948 -0.6335,-0.6437 z"
/>
</svg>
