<?xml version="1.0" encoding="UTF-8" standalone="no"?>
<svg
xmlns:sodipodi="http://sodipodi.sourceforge.net/DTD/sodipodi-0.dtd"
xmlns:inkscape="http://www.inkscape.org/namespaces/inkscape"
xmlns:svg="http://www.w3.org/2000/svg"
xmlns:cc="http://creativecommons.org/ns#"
xmlns:dc="http://purl.org/dc/elements/1.1/"
xmlns="http://www.w3.org/2000/svg"
xmlns:rdf="http://www.w3.org/1999/02/22-rdf-syntax-ns#"
>
<path
d="m 0.0122000000000071,97.987849 c 0,-1.108129 0.036,-2.199549 0.079,-2.42546 0.2333,-1.216329 1.1637,-2.298949 2.4329,-2.83076 0.9325,-0.390709 1.0756,-0.405409 3.9488,-0.406209 l 2.5989,-8e-4 0.035,-2.23676 c 0.039,-2.49036 0.061,-2.62346 0.5639,-3.43648 0.3732,-0.602611 1.1619,-1.271631 1.8549,-1.57334 0.82,-0.357111 1.2281,-0.436611 2.4479,-0.476611 l 1.0977,-0.036 0.052,-0.99042 c 0.3694,-7.227569 1.8729,-12.851009 4.7342,-17.706529 1.5371,-2.60836 3.145,-4.604311 5.4727,-6.79336 1.4593,-1.372331 2.5857,-2.262551 6.2241,-4.91922 2.218,-1.619331 3.0671,-2.399151 3.3838,-3.107671 0.1115,-0.249509 0.1418,-0.486809 0.1418,-1.111829 0,-0.773811 -0.011,-0.80592 -0.2524,-1.228131 -0.3261,-0.560109 -1.3331,-1.45068 -3.0481,-2.695649 -0.7013,-0.50912 -1.714,-1.24486 -2.2503,-1.634971 -4.4885,-3.264869 -7.3817,-6.30186 -9.6464,-10.12584 -2.8666,-4.840149 -4.392,-10.57134 -4.7621,-17.89026 l -0.051,-0.99304 -1.2092,-0.0286 c -1.4225,-0.0336 -1.8278,-0.127989 -2.7215,-0.633649 -0.6453,-0.36512 -1.187,-0.88474 -1.5215,-1.459531 -0.4519,-0.77642 -0.4696,-0.892589 -0.5088,-3.3284595 l -0.036,-2.2331495 -2.7114,-0.019505 -2.7112,-0.019505 -0.561,-0.1731506 c -1.0877,-0.3358294 -1.9956,-0.99652 -2.5069,-1.82426 C 0.0701000000000249,4.81998 0.0625999999999749,4.77358 0.0298999999999978,2.26845 L 0,0 l 49.9996,0 49.9995,0 0,2.20753 c 0,2.41546 -0.027,2.61657 -0.4489,3.34463 -0.4423,0.76334 -1.2278,1.3986305 -2.1907,1.7719105 -0.8541,0.3310895 -1.1035,0.3537695 -3.8899,0.3537695 l -2.5467,0 0,2.1732905 c 0,2.4631405 -0.032,2.6672205 -0.5285,3.4741895 -0.5073,0.82496 -1.3684,1.46438 -2.456,1.823969 -0.4502,0.14886 -0.628,0.168831 -1.7151,0.19266 l -1.2128,0.0266 -0.042,0.517071 c -0.023,0.284389 -0.061,0.931109 -0.085,1.43714 -0.1351,2.878211 -0.6977,6.49002 -1.4232,9.137271 -1.7185,6.270878 -4.7539,11.15116 -9.4869,15.253389 -1.497,1.29746 -2.3819,1.972529 -4.9929,3.80864 -2.5836,1.816769 -3.7124,2.7386 -4.048,3.30572 -0.2155,0.364109 -0.225,0.415209 -0.225,1.206529 0,0.802111 0.01,0.83812 0.2406,1.23732 0.429,0.73322 1.3576,1.52134 4.0724,3.456791 2.4447,1.74294 2.7193,1.95044 4.1526,3.139169 2.5414,2.107251 4.4279,4.1293 6.0109,6.44236 3.301,4.823411 5.2267,10.91726 5.6645,17.92552 0.045,0.71542 0.1,1.53634 0.1219,1.824251 l 0.041,0.523509 0.7996,0 c 1.1056,0 1.8377,0.125902 2.5817,0.432911 0.7698,0.317711 1.2914,0.70282 1.7677,1.305231 0.7043,0.890718 0.7131,0.932818 0.76,3.621489 l 0.041,2.34776 2.7753,0.034 c 2.6163,0.032 2.8003,0.042 3.2131,0.173 1.1252,0.356609 2.0543,1.03462 2.5478,1.85914 0.4853,0.81092 0.5005,0.914529 0.5014,3.406489 l 0,2.236751 -49.9938,0 -49.9937,0 8e-4,-2.014651 z"
style="fill:#ffffff;fill-opacity:1"
id="path4429"
/>
<path
id="path4654"
style="fill:#303030"
d="m 0.0122000000000071,97.987852 c 0,-1.108127 0.036,-2.199553 0.079,-2.425458 0.2333,-1.216329 1.1638,-2.298955 2.4329,-2.830768 0.9325,-0.390709 1.0756,-0.405409 3.9489,-0.406209 l 2.5988,-8e-4 0.035,-2.236754 c 0.039,-2.490359 0.061,-2.623463 0.5639,-3.436482 0.3732,-0.602614 1.1619,-1.27163 1.8549,-1.573338 0.82,-0.357108 1.2281,-0.43661 2.4479,-0.476611 l 1.0978,-0.036 0.051,-0.990424 c 0.3694,-7.227572 1.8729,-12.851007 4.7342,-17.706523 1.5371,-2.608362 3.145,-4.60431 5.4727,-6.793362 1.4593,-1.372333 2.5856,-2.262554 6.2241,-4.919218 2.218,-1.619338 3.0671,-2.399157 3.3837,-3.107674 0.1116,-0.249506 0.1418,-0.486811 0.1418,-1.111826 0,-0.773819 -0.01,-0.80592 -0.2523,-1.22813 -0.3261,-0.560113 -1.3331,-1.450684 -3.0481,-2.695654 -0.7014,-0.509122 -1.714,-1.24486 -2.2503,-1.634969 -4.4885,-3.264868 -7.3817,-6.301861 -9.6464,-10.125842 -2.8666,-4.840146 -4.392,-10.571343 -4.7621,-17.890258 l -0.05,-0.993044 -1.2092,-0.0286 c -1.4225,-0.0336 -1.8278,-0.127983 -2.7215,-0.633645 -0.6453,-0.365119 -1.187,-0.884741 -1.5215,-1.459535 -0.4519,-0.776419 -0.4696,-0.892592 -0.5088,-3.32846 l -0.036,-2.2331433 -2.7114,-0.019501 -2.7112,-0.0195 -0.5609,-0.1731541 c -1.0878,-0.335828 -1.9957,-0.9965238 -2.507,-1.8242636 -0.5119,-0.8287198 -0.5194,-0.8751209 -0.5521,-3.3802508 L 0,0 l 49.9996,0 49.9995,0 0,2.2075328 c 0,2.4154577 -0.027,2.6165625 -0.4489,3.3446299 -0.4423,0.7633382 -1.2278,1.3986234 -2.1907,1.7719123 -0.8541,0.3310879 -1.1035,0.3537685 -3.8899,0.3537685 l -2.5466,0 0,2.1732819 c 0,2.4631486 -0.032,2.6672236 -0.5286,3.4741936 -0.5074,0.824959 -1.3684,1.464385 -2.456,1.823973 -0.4502,0.148854 -0.628,0.168824 -1.7151,0.192655 l -1.2128,0.0266 -0.042,0.517073 c -0.023,0.284387 -0.061,0.931112 -0.085,1.437144 -0.1351,2.878209 -0.6977,6.490015 -1.4232,9.137269 -1.7185,6.270879 -4.7539,11.151156 -9.4869,15.253384 -1.497,1.297461 -2.3819,1.972537 -4.9929,3.808641 -2.5836,1.816774 -3.7124,2.738606 -4.048,3.305719 -0.2155,0.364109 -0.225,0.41521 -0.225,1.206529 0,0.802119 0.01,0.83812 0.2406,1.237329 0.4291,0.733218 1.3576,1.521337 4.0724,3.456783 2.4448,1.742942 2.7193,1.950447 4.1527,3.139175 2.5413,2.10725 4.4279,4.129299 6.0108,6.442354 3.3011,4.823415 5.2267,10.917261 5.6645,17.925528 0.045,0.715418 0.1,1.536337 0.1219,1.824244 l 0.041,0.523513 0.7997,0 c 1.1055,0 1.8376,0.125903 2.5816,0.43291 0.7698,0.317708 1.2914,0.702817 1.7677,1.305231 0.7043,0.890721 0.7131,0.932822 0.76,3.621487 l 0.041,2.347756 2.7753,0.034 c 2.6163,0.032 2.8004,0.042 3.2131,0.173004 1.1253,0.356608 2.0543,1.034624 2.5478,1.859144 0.4853,0.81092 0.5005,0.914522 0.5015,3.406482 L 100,100 l -49.9938,0 -49.9937,0 8e-4,-2.014648 z m 31.9807,-13.698927 c 0.026,-0.161904 0.048,-0.511713 0.049,-0.777319 8e-4,-0.265606 0.05,-0.875821 0.1103,-1.356032 0.5866,-4.675512 2.6543,-8.507204 6.941,-12.862608 0.4059,-0.41241 1.5721,-1.545237 2.5917,-2.51736 2.3583,-2.248754 2.7757,-2.666164 3.6545,-3.654787 1.6297,-1.833544 2.5531,-3.428282 2.9573,-5.107322 0.1841,-0.764619 0.18,-3.32698 -0.01,-4.649212 -0.4093,-2.887669 -0.7455,-5.47263 -1.5641,-8.026981 -1.689,-4.490968 -2.0957,-5.320067 -4.4322,-9.053677 -2.3871,-3.814511 -4.1859,-8.673727 -4.7365,-9.544328 -0.3727,-0.589174 -0.5956,-1.159828 -0.6596,-1.68892 l -0.049,-0.40504 13.5146,0 13.5146,0 -0.045,0.333138 c -3.8123,7.51597 -3.5875,7.257604 -5.3149,10.86355 0,0 -3.986,7.380746 -4.7904,9.373504 -0.8509,2.130911 -0.8342,2.910729 -1.5633,7.637342 -0.053,0.373509 -0.2395,2.054049 -0.2405,2.961171 0,1.326632 0.067,1.803643 0.1788,2.245754 0.4871,1.928946 1.3345,3.729089 3.5702,6.037144 0.4091,0.42241 1.6645,1.652639 2.7896,2.733965 3.1323,3.010072 4.5815,4.59481 5.9155,6.468655 2.2641,3.180376 3.4959,6.632458 3.6469,10.220944 l 0.045,1.062826 4.7516,0 4.7517,0 0,-0.491812 c 0,-0.270407 -0.035,-0.962823 -0.077,-1.538737 -0.5836,-8.005091 -2.9477,-13.880732 -7.404,-18.40144 -1.4297,-1.450034 -2.9973,-2.715365 -6.171,-4.980819 -1.8316,-1.307331 -3.4443,-2.597762 -4.1243,-3.299779 -1.7427,-1.799243 -2.4759,-3.537484 -2.4759,-5.86944 0,-1.988047 0.4945,-3.441782 1.6823,-4.945838 0.9769,-1.23692 2.0443,-2.127081 5.3304,-4.445496 3.0585,-2.157742 4.6607,-3.471243 6.1172,-5.015 3.5835,-3.798161 5.6688,-8.337569 6.6304,-14.433205 0.2713,-1.720071 0.4881,-4.026896 0.4904,-5.219125 l 0,-0.587024 -27.5472,0.0159 -27.5471,0.0159 0.022,0.634535 c 0.2627,7.648693 2.3116,13.885482 6.0388,18.382209 1.7753,2.141822 3.3126,3.479434 7.4036,6.441944 2.2588,1.635739 3.1351,2.335186 3.9112,3.121655 1.8625,1.887205 2.615,3.621106 2.6142,6.023844 -8e-4,1.656439 -0.2891,2.744165 -1.0883,4.102298 -0.267,0.453711 -0.7116,1.081926 -0.9881,1.396033 -0.7343,0.83442 -2.6389,2.413258 -4.8616,4.030197 -2.0972,1.525536 -4.0829,3.134475 -5.1312,4.157699 -3.7327,3.643387 -5.9785,7.93109 -7.1303,13.613425 -0.3786,1.867945 -0.6329,3.933994 -0.7144,5.804539 -0.024,0.556313 -0.06,1.118627 -0.08,1.24943 l -0.035,0.238006 4.7538,0 4.7537,0 0.048,-0.294407 z"
/>
</svg>
