<?xml version="1.0" encoding="UTF-8" standalone="no"?>
<svg
xmlns:svg="http://www.w3.org/2000/svg"
xmlns:cc="http://creativecommons.org/ns#"
xmlns:dc="http://purl.org/dc/elements/1.1/"
xmlns:rdf="http://www.w3.org/1999/02/22-rdf-syntax-ns#"
xmlns="http://www.w3.org/2000/svg"
xmlns:sodipodi="http://sodipodi.sourceforge.net/DTD/sodipodi-0.dtd"
xmlns:inkscape="http://www.inkscape.org/namespaces/inkscape"
>
<rect
x="1"
height="16"
y="17.5"
width="16"
style="fill:#008751;fill-opacity:1"
id="rect4863"
/>
<rect
x="1"
height="16"
style="fill:#fcd116;fill-opacity:1"
id="rect4857"
y="1"
width="16"
/>
<rect
y="50.5"
style="fill:#0054a0;fill-opacity:1"
id="rect4877"
width="16"
height="16"
x="1"
/>
<rect
x="1"
height="16"
y="66.5"
id="rect4859"
width="16"
style="fill:#fcd116;fill-opacity:1"
/>
<rect
x="34"
height="16"
y="1"
style="fill:#ef6b00;fill-opacity:1"
width="16"
id="rect4873"
/>
<rect
y="1"
style="fill:#fcd116;fill-opacity:1"
id="rect4861"
width="16"
height="16"
x="66.5"
/>
<rect
style="fill:#008751;fill-opacity:1"
id="rect4865"
width="16"
y="1"
x="17.5"
height="16"
/>
<rect
x="1"
height="16"
style="fill:#008751;fill-opacity:1"
width="16"
id="rect4867"
y="82.5"
/>
<rect
x="82.5"
height="16"
y="1"
width="16"
id="rect4871"
style="fill:#008751;fill-opacity:1"
/>
<rect
width="16"
y="1"
id="rect4875"
style="fill:#0054a0;fill-opacity:1"
height="16"
x="50.5"
/>
<rect
y="34"
id="rect4879"
width="16"
style="fill:#ef6b00;fill-opacity:1"
x="1"
height="16"
/>
<path
id="path4125"
style="stroke:#000000;stroke-width:2"
d="m 0,1 99.97371,0 M 0,17.33851 l 99.97371,0 M 0,33.66588 l 99.97371,0 M 0,50.01181 l 99.97371,0 M 0,66.33916 l 99.97371,0 m -98.97366,-66.30729 0,99.95698 m 16.33006,-99.95698 0,99.95698 m 16.33519,-99.95698 0,99.95698 m 16.33521,-99.95698 0,99.95698 m 16.33519,-99.95698 0,99.95698 m 16.3352,-99.95698 0,99.95698 M 0,82.65414 l 99.97371,0 M 0,99 l 99.97371,0 m -0.97375,-98.96813 0,99.95698"
/>
</svg>
