<?xml version="1.0" encoding="UTF-8" standalone="no"?>
<svg
xmlns:inkscape="http://www.inkscape.org/namespaces/inkscape"
xmlns:sodipodi="http://sodipodi.sourceforge.net/DTD/sodipodi-0.dtd"
xmlns:dc="http://purl.org/dc/elements/1.1/"
xmlns:rdf="http://www.w3.org/1999/02/22-rdf-syntax-ns#"
xmlns="http://www.w3.org/2000/svg"
xmlns:svg="http://www.w3.org/2000/svg"
xmlns:cc="http://creativecommons.org/ns#"
>
<path
d="m 8.38560000000007,0.244110000000006 c -3.2613,0.60002 -6.3041,3.59853 -7.7326,7.55646 l -0.653,1.83912 0,40.38236 0,40.38081 0.869,2.27975 c 1.0875,2.8782 3.4167,5.63765 5.5905,6.59706 1.522,0.6797 3.7892,0.72033 43.6964,0.72033 l 42.0811,0 1.7077,-1.03909 c 2.4845,-1.47973 3.8815,-3.23915 5.0308,-6.27673 l 1.0245,-2.6782 0,-39.9808 0,-39.9808 -1.0245,-2.6782 c -1.1178,-2.99852 -2.7333,-4.91732 -5.2178,-6.39705 l -1.522,-0.91878 -41.1488,-0.0407 c -22.6396,-0.0453 -41.8626,0.0751 -42.7013,0.23438 z"
style="fill:#ffffff"
id="path4385"
/>
<path
id="path4387"
style="fill:#404040;fill-opacity:1"
d="m 8.38560000000007,0.244110000000006 c -3.2613,0.60002 -6.3041,3.59853 -7.7326,7.55646 l -0.653,1.83912 0,40.38236 0,40.38081 0.869,2.27975 c 1.0875,2.8782 3.4167,5.63765 5.5905,6.59706 1.522,0.6797 3.7892,0.72033 43.6964,0.72033 l 42.0811,0 1.7077,-1.03909 c 2.4845,-1.47973 3.8815,-3.23915 5.0308,-6.27673 l 1.0245,-2.6782 0,-39.9808 0,-39.9808 -1.0245,-2.6782 c -1.1178,-2.99852 -2.7333,-4.91732 -5.2178,-6.39705 l -1.522,-0.91878 -41.1488,-0.0407 c -22.6396,-0.0453 -41.8626,0.0751 -42.7013,0.23438 z m 81.7698,49.85764 -0.094,37.10258 -40.1246,0.12028 -40.1548,0.0797 0,-37.18228 0,-37.18229 40.218,0 40.218,0 -0.063,37.06197 z"
/>
<path
d="m 25,20.14711 c -1.9,0.35999 -3.8,2.15908 -4.6,4.53386 l -0.4,1.10346 0,24.22919 0,24.22835 0.5,1.3678 c 0.7,1.72691 2.1,3.3826 3.4,3.95823 0.9,0.408 2.3,0.432 26.2,0.432 l 25.2,0 1.1,-0.62345 c 1.5,-0.88782 2.3,-1.94345 3,-3.766 l 0.6,-1.6069 0,-23.9883 0,-23.98829 -0.6,-1.60691 c -0.7,-1.79908 -1.7,-2.95035 -3.1,-3.83823 l -1,-0.55139 -24.6,-0.024 c -13.6,-0.03 -25.2,0.048 -25.7,0.1404 z"
style="fill:#404040;fill-opacity:1"
id="path4567"
/>
</svg>
