<?xml version="1.0" encoding="UTF-8" standalone="no"?>
<svg
xmlns:inkscape="http://www.inkscape.org/namespaces/inkscape"
xmlns:sodipodi="http://sodipodi.sourceforge.net/DTD/sodipodi-0.dtd"
xmlns:rdf="http://www.w3.org/1999/02/22-rdf-syntax-ns#"
xmlns="http://www.w3.org/2000/svg"
xmlns:dc="http://purl.org/dc/elements/1.1/"
xmlns:cc="http://creativecommons.org/ns#"
xmlns:svg="http://www.w3.org/2000/svg"
>
<circle
r="50"
cx="50"
style="fill:#000000"
id="path4328"
cy="50"
/>
<path
id="path4332"
style="fill:#008751;fill-opacity:1;stroke:#f4ee73;stroke-width:0.80220532;stroke-opacity:1"
d="m 50.4011,0.400700000000029 0,13.2752 c 19.81579,0.055 35.86767,16.10703 35.92271,35.92304 l 13.27508,0 c -3e-5,-27.17229 -22.02575,-49.19824 -49.19779,-49.19824 z m 35.92271,49.19824 0,0.10155 c -3e-5,-0.0341 6e-5,-0.0674 0,-0.10155 z"
/>
<path
d="m 99.59837,50.40164 -13.2748,0 c -0.0552,19.81536 -16.10652,35.8669 -35.92189,35.9219 l 0,13.27482 c 27.17142,-3e-5 49.19669,-22.02529 49.19669,-49.19672 z m -49.19669,35.9219 -0.10163,0 c 0.0341,-10e-6 0.0675,7e-5 0.10163,0 z"
id="path4334"
style="fill:#ef6b00;fill-opacity:1;stroke:#f4ee73;stroke-width:0.80220532;stroke-opacity:1"
/>
<path
d="m 49.59835,99.59818 0,-13.27492 c -19.81538,-0.0551 -35.86691,-16.10668 -35.92192,-35.92224 l -13.27479,0 c 1e-5,27.17171 22.02528,49.19716 49.19671,49.19716 z m -35.92192,-49.19716 0,-0.10156 c 2e-5,0.0341 -4e-5,0.0674 0,0.10156 z"
style="fill:#0054a0;fill-opacity:1;stroke:#f4ee73;stroke-width:0.80220532;stroke-opacity:1"
id="path4336"
/>
<path
style="fill:#fcd116;fill-opacity:1;stroke:#f4ee73;stroke-width:0.80220532;stroke-opacity:1"
id="path4338"
d="m 0.401650000000004,49.59835 13.27479,0 c 0.0549,-19.81539 16.10652,-35.86692 35.92189,-35.92193 l 0,-13.27478 c -27.17144,0 -49.19668,22.02526 -49.19668,49.19671 z m 49.19668,-35.92193 0.10141,0 c -0.0341,2e-5 -0.0675,-6e-5 -0.10141,0 z"
/>
<path
id="path6347"
style="fill:#f4ee73;fill-opacity:1"
d="m 70.25973,72.16401 c -1.66719,-1.20153 -3.0313,-2.27896 -3.0313,-2.39436 0,-0.222 6.68794,-4.16596 6.82753,-4.02629 0.14423,0.14422 -0.46133,8.60518 -0.61588,8.60518 -0.0818,0 -1.51311,-0.98306 -3.18035,-2.18453 z m 3.02259,-2.22294 c 0.0704,-1.58526 0.0909,-2.91955 0.0456,-2.96497 -0.0989,-0.0989 -1.03231,0.5458 -2.88888,1.99457 l -1.36475,1.06507 1.8005,1.38036 c 0.99029,0.75931 1.90833,1.38647 2.04006,1.39391 0.15645,0.007 0.28385,-0.98418 0.36758,-2.86894 z m -48.2937,-3.05473 c -0.16778,-0.38942 -2.22806,-4.81514 -4.5783,-9.83492 -2.35023,-5.01976 -4.27105,-9.23565 -4.26851,-9.36856 0.002,-0.13311 1.09515,-1.07511 2.42801,-2.09367 1.33288,-1.01862 2.53181,-1.95478 2.66426,-2.08038 0.13266,-0.12555 1.43159,-1.1258 2.88683,-2.22255 l 2.6459,-1.99405 1.92949,-4.58111 1.9295,-4.58118 3.41681,-0.002 c 3.06328,-0.002 3.42841,-0.0442 3.52957,-0.38617 0.062,-0.20956 0.32015,-1.50885 0.57342,-2.88687 0.25329,-1.37807 0.50822,-2.70314 0.56626,-2.94467 0.10245,-0.4256 0.2476,-0.43709 4.72472,-0.37509 2.54041,0.0353 4.93763,0.11467 5.32714,0.17667 l 0.70804,0.11266 0,2.80814 0,2.8082 3.34968,1.75731 c 1.84237,0.96649 3.41099,1.75732 3.48605,1.75732 0.0749,0 0.13622,-3.08221 0.13622,-6.84934 l 0,-6.8493 0.81707,0.122 c 0.44935,0.0669 0.97757,0.28154 1.17373,0.47656 0.26122,0.25958 11.48507,14.55561 18.09329,23.04579 0.27189,0.34931 0.0344,1.68967 -2.15355,12.15285 l -1.91037,9.13503 -3.36779,1.63269 c -2.28341,1.10703 -3.39712,1.54474 -3.45879,1.35967 -0.05,-0.15 -0.57497,-0.99656 -1.1665,-1.88096 -4.67272,-6.98638 -14.52022,-9.21827 -24.84694,-5.63129 -3.92532,1.36347 -8.39537,3.8024 -12.47938,6.80896 -0.83629,0.61571 -1.59473,1.1194 -1.68562,1.1194 -0.0909,0 -0.3024,-0.3186 -0.47017,-0.70813 z m 4.22096,-3.03998 c 7.06645,-4.24078 13.12205,-6.77554 18.08352,-7.56934 3.33732,-0.53398 7.27546,-0.17489 9.9555,0.90756 2.65408,1.072 5.52789,3.48753 7.59411,6.383 0.55435,0.77682 1.12215,1.4124 1.26197,1.4124 0.13978,0 1.52377,-0.37238 3.07566,-0.82751 l 2.82157,-0.8274 1.04813,-6.85263 c 0.57644,-3.76886 1.22968,-8.22525 1.45166,-9.90285 l 0.40362,-3.05024 -0.69796,-0.9804 c -2.07099,-2.90923 -15.87552,-21.46966 -16.00574,-21.52006 -0.13578,-0.0527 -0.4404,3.93765 -0.82453,10.80078 -0.10845,1.93643 -0.17356,2.22696 -0.47498,2.11727 -0.19222,-0.0698 -2.13684,-0.88373 -4.32156,-1.80856 l -3.97217,-1.68142 -0.002,-2.76507 c -0.001,-1.5208 -0.0776,-2.80815 -0.16755,-2.86082 -0.0898,-0.0527 -2.13286,-0.166 -4.53997,-0.25191 l -4.37654,-0.156 -0.27106,3.56118 c -0.14933,1.95869 -0.29725,3.58731 -0.32916,3.61924 -0.032,0.0318 -1.7417,-0.0589 -3.79958,-0.202 -2.29957,-0.15977 -3.81057,-0.18222 -3.92068,-0.0575 -0.0987,0.11155 -0.93662,2.26458 -1.86217,4.785 l -1.68268,4.58256 -1.7828,1.3356 c -0.98055,0.7346 -3.05736,2.28425 -4.6152,3.44354 -1.55775,1.15926 -2.86131,2.18598 -2.89662,2.28166 -0.0353,0.0956 1.5692,4.25761 3.56581,9.24883 3.56417,8.91019 3.63866,9.06963 4.09499,8.77241 0.25571,-0.16667 1.69033,-1.03825 3.18821,-1.93711 z"
/>
<path
d="m 40.51536,53.95272 -8.97356,0 0,-2.50728 2.83471,0 0,-7.58933 -2.83471,0 0,-2.34335 q 0.65,0 1.24583,-0.0771 0.59582,-0.0868 0.99305,-0.28931 0.46944,-0.24108 0.70416,-0.62681 0.23472,-0.38574 0.27084,-0.96434 l 2.98817,0 0,11.89028 2.77151,0 0,2.50728 z"
id="path6556"
style="font-style:normal;font-variant:normal;font-weight:bold;font-stretch:normal;font-size:medium;line-height:0%;font-family:Verdana;-inkscape-font-specification:'Verdana Bold';text-align:center;letter-spacing:-1.18396723px;word-spacing:0px;text-anchor:middle;fill:#f4ee73;fill-opacity:1;stroke:none;stroke-width:1px;stroke-opacity:1"
/>
<path
style="font-style:normal;font-variant:normal;font-weight:bold;font-stretch:normal;font-size:medium;line-height:0%;font-family:Verdana;-inkscape-font-specification:'Verdana Bold';text-align:center;letter-spacing:-1.18396723px;word-spacing:0px;text-anchor:middle;fill:#f4ee73;fill-opacity:1;stroke:none;stroke-width:1px;stroke-opacity:1"
id="path6558"
d="m 53.27251,46.7684 q 0,1.81296 -0.30694,3.24982 -0.30695,1.42722 -0.95694,2.34335 -0.66806,0.9354 -1.71527,1.41757 -1.04722,0.47253 -2.58193,0.47253 -1.50763,0 -2.5729,-0.48218 -1.06527,-0.48216 -1.72429,-1.42722 -0.66806,-0.94504 -0.96598,-2.34333 -0.29791,-1.40794 -0.29791,-3.22089 0,-1.87082 0.30694,-3.24982 0.30695,-1.37901 0.975,-2.33369 0.66805,-0.94506 1.73332,-1.41758 1.06527,-0.47253 2.54582,-0.47253 1.54374,0 2.59096,0.49182 1.04721,0.48216 1.71527,1.4465 0.65902,0.94505 0.95694,2.33369 0.29791,1.37901 0.29791,3.19196 z m -3.49373,0 q 0,-2.60371 -0.47847,-3.70305 -0.47847,-1.10899 -1.58888,-1.10899 -1.11041,0 -1.58888,1.10899 -0.47847,1.09934 -0.47847,3.72234 0,2.5555 0.4875,3.68377 0.48749,1.12828 1.57985,1.12828 1.09236,0 1.57985,-1.12828 0.4875,-1.12827 0.4875,-3.70306 z"
/>
<path
id="path6560"
style="font-style:normal;font-variant:normal;font-weight:bold;font-stretch:normal;font-size:medium;line-height:0%;font-family:Verdana;-inkscape-font-specification:'Verdana Bold';text-align:center;letter-spacing:-1.18396723px;word-spacing:0px;text-anchor:middle;fill:#f4ee73;fill-opacity:1;stroke:none;stroke-width:1px;stroke-opacity:1"
d="m 65.27133,46.7684 q 0,1.81296 -0.30695,3.24982 -0.30693,1.42722 -0.95693,2.34335 -0.66805,0.9354 -1.71527,1.41757 -1.04721,0.47253 -2.58193,0.47253 -1.50763,0 -2.5729,-0.48218 -1.06528,-0.48216 -1.7243,-1.42722 -0.66804,-0.94504 -0.96596,-2.34333 -0.29792,-1.40794 -0.29792,-3.22089 0,-1.87082 0.30694,-3.24982 0.30695,-1.37901 0.975,-2.33369 0.66805,-0.94506 1.73332,-1.41758 1.06527,-0.47253 2.54582,-0.47253 1.54374,0 2.59096,0.49182 1.04722,0.48216 1.71526,1.4465 0.65903,0.94505 0.95694,2.33369 0.29792,1.37901 0.29792,3.19196 z m -3.49373,0 q 0,-2.60371 -0.47847,-3.70305 -0.47847,-1.10899 -1.58888,-1.10899 -1.11041,0 -1.58888,1.10899 -0.47847,1.09934 -0.47847,3.72234 0,2.5555 0.4875,3.68377 0.4875,1.12828 1.57985,1.12828 1.09235,0 1.57985,-1.12828 0.4875,-1.12827 0.4875,-3.70306 z"
/>
<circle
r="49"
cy="50"
style="fill:none;stroke:#f4ee73;stroke-width:2"
id="path6443"
cx="50"
/>
</svg>
