<?xml version="1.0" encoding="UTF-8" standalone="no"?>
<svg
xmlns:cc="http://creativecommons.org/ns#"
xmlns:svg="http://www.w3.org/2000/svg"
xmlns="http://www.w3.org/2000/svg"
xmlns:rdf="http://www.w3.org/1999/02/22-rdf-syntax-ns#"
xmlns:dc="http://purl.org/dc/elements/1.1/"
xmlns:sodipodi="http://sodipodi.sourceforge.net/DTD/sodipodi-0.dtd"
xmlns:inkscape="http://www.inkscape.org/namespaces/inkscape"
>
<path
d="m 0.000800000000026557,79.1266 0,-20.8733 5.1413,5.1368 5.1413,5.1368 9.3415,-9.3441 9.3414,-9.3441 -9.3594,-9.16782 -9.3596,-9.16787 -5.1232,5.12333 -5.1233,5.12333 0,-20.87487 0,-20.87484 20.7151,0 20.715,0 -5.1054,5.29811 -5.1053,5.29811 9.3281,9.13728 9.3282,9.13728 9.4828,-9.29636 9.4828,-9.29639 -5.2965,-5.12788 -5.2965,-5.12787 20.8754,-0.0112 20.8755,-0.0112 0,20.74642 0,20.74639 -5.1414,-5.13677 -5.1412,-5.13679 -9.3878,9.39037 -9.3877,9.39034 9.3894,9.4044 9.3896,9.4043 5.1291,-5.28 5.1292,-5.28 0.01,20.8757 0.01,20.8756 -20.8755,-0.011 -20.8754,-0.011 5.2809,-5.1128 5.2808,-5.1128 -9.4673,-9.47 -9.4674,-9.47 -9.3134,9.3109 -9.3133,9.3109 5.0907,5.283 5.0909,5.283 -20.7151,0 -20.7151,0 0,-20.8733 z"
style="fill:#303030"
id="path4230"
/>
</svg>
