<?xml version="1.0" encoding="UTF-8" standalone="no"?>
<svg
xmlns:dc="http://purl.org/dc/elements/1.1/"
xmlns="http://www.w3.org/2000/svg"
xmlns:rdf="http://www.w3.org/1999/02/22-rdf-syntax-ns#"
xmlns:svg="http://www.w3.org/2000/svg"
xmlns:cc="http://creativecommons.org/ns#"
xmlns:inkscape="http://www.inkscape.org/namespaces/inkscape"
xmlns:sodipodi="http://sodipodi.sourceforge.net/DTD/sodipodi-0.dtd"
>
<path
id="path8272"
style="fill:#ed6a00;fill-opacity:1;stroke:#000000;stroke-width:0.99995005;stroke-opacity:1"
d="M 99.5,50.2488000000001 A 49.251286,49.251259 0 0 1 50.24872,99.5 l 0,-49.2512 z"
/>
<path
d="M 49.75128,99.5 A 49.251286,49.251259 0 0 1 0.5,50.2488000000001 l 49.25128,0 z"
style="fill:#00539e;fill-opacity:1;stroke:#000000;stroke-width:0.99995005;stroke-opacity:1"
id="path8274"
/>
<path
style="fill:#f9ce16;fill-opacity:1;stroke:#000000;stroke-width:0.99995005;stroke-opacity:1"
id="path8276"
d="M 0.5,49.7511999999999 A 49.251286,49.251259 0 0 1 49.75128,0.5 l 0,49.2512 z"
/>
<path
id="path8278"
style="fill:#018650;fill-opacity:1;stroke:#000000;stroke-width:0.99995005;stroke-opacity:1"
d="M 50.24872,0.5 A 49.251286,49.251259 0 0 1 99.5,49.7511999999999 l -49.25128,0 z"
/>
<circle
cy="50"
cx="50"
id="circle8282"
style="fill:none;fill-opacity:1;stroke:#c0c0c0;stroke-width:9.80000019;stroke-opacity:1"
r="44.099998"
/>
<path
d="m 27.18938,63.8271 c -0.38532,-0.241 -0.41636,-0.6893 -0.068,-0.9824 0.42345,-0.3563 1.06656,-0.051 1.06656,0.5067 0,0.085 -0.0783,0.2411 -0.17407,0.3473 -0.23021,0.2554 -0.54345,0.3042 -0.82446,0.1284 z m -2.06055,-0.9552 c -0.21439,-0.1686 -0.2756,-0.4898 -0.14244,-0.7473 0.12618,-0.244 0.27539,-0.326 0.59288,-0.326 0.28477,0 0.55225,0.2032 0.61935,0.4705 0.0507,0.202 -0.0712,0.5152 -0.24896,0.6397 -0.19503,0.1366 -0.62482,0.1173 -0.82083,-0.037 z m 6.67144,-0.8308 c -0.54551,-0.3707 -0.28011,-1.192 0.38517,-1.192 0.55996,0 0.83205,0.6526 0.44919,1.0773 -0.24063,0.2669 -0.54813,0.3092 -0.83436,0.1147 z m -8.40069,-0.1713 c -0.23954,-0.15 -0.37102,-0.4848 -0.28218,-0.7184 0.0843,-0.2217 0.36841,-0.4289 0.588,-0.4289 0.58224,0 0.88411,0.5996 0.51053,1.014 -0.22753,0.2524 -0.54372,0.304 -0.81635,0.1333 z m 5.62071,-0.4211 c -0.2384,-0.2006 -0.29855,-0.4546 -0.17669,-0.7462 0.11012,-0.2636 0.26488,-0.3598 0.57863,-0.3598 0.29599,0 0.4502,0.085 0.56904,0.3152 0.1524,0.2948 0.11962,0.4963 -0.11962,0.7356 -0.27232,0.2723 -0.5704,0.2916 -0.85136,0.055 z M 21.6,60.4742000000001 c -0.4715,-0.4715 0.0335,-1.213 0.682,-1.0013 0.28396,0.093 0.49357,0.4381 0.42695,0.7035 -0.1244,0.4957 -0.74455,0.6622 -1.10895,0.2978 z m 5.14381,-0.163 c -0.22829,-0.1921 -0.29351,-0.4181 -0.20127,-0.6976 0.0862,-0.2611 0.30542,-0.4103 0.60288,-0.4103 0.29408,0 0.44846,0.086 0.5671,0.3152 0.12355,0.239 0.12085,0.4138 -0.01,0.635 -0.20308,0.3437 -0.65037,0.4173 -0.9589,0.1577 z m -1.51295,-0.8346 c -0.0771,-0.016 -0.21244,-0.1141 -0.30066,-0.219 -0.54271,-0.6449 0.35589,-1.4427 0.95277,-0.8458 0.42608,0.4261 -0.0406,1.1881 -0.65211,1.0648 z m 7.64202,-0.066 c -0.43067,-0.219 -0.50427,-0.6659 -0.16546,-1.0047 0.16194,-0.162 0.26951,-0.2153 0.43455,-0.2153 0.43812,0 0.75401,0.437 0.61669,0.8531 -0.12805,0.388 -0.52279,0.5515 -0.88578,0.3669 z m -2.8931,-0.2078 c -0.18743,-0.076 -0.35711,-0.3484 -0.35711,-0.5743 0,-0.2686 0.13552,-0.4809 0.38138,-0.5976 0.28091,-0.1333 0.54077,-0.074 0.74574,0.1693 0.44922,0.5338 -0.11378,1.267 -0.77001,1.0026 z m 5.51202,-0.061 c -0.21457,-0.087 -0.40436,-0.3765 -0.40436,-0.6175 0,-0.2779 0.34286,-0.6497 0.59917,-0.6497 0.37352,0 0.66325,0.2834 0.6654,0.651 0.002,0.3012 -0.14037,0.5225 -0.39201,0.6102 -0.22619,0.079 -0.28599,0.08 -0.4682,0.01 l 0,0 z m -15.64476,-0.3811 c -0.26095,-0.1592 -0.35882,-0.37 -0.30497,-0.657 0.0869,-0.463 0.66045,-0.6422 1.03826,-0.3243 0.23917,0.2013 0.29204,0.4142 0.17336,0.6982 -0.0641,0.1534 -0.16395,0.2537 -0.31553,0.3171 -0.28777,0.1202 -0.34336,0.117 -0.59112,-0.034 z m 7.39485,-0.3935 c -0.0851,-0.045 -0.21005,-0.1761 -0.27761,-0.2918 -0.10729,-0.1837 -0.1133,-0.2421 -0.0475,-0.4618 0.20805,-0.6944 1.1544,-0.6069 1.25133,0.1157 0.029,0.2165 0.007,0.2835 -0.14715,0.455 -0.20817,0.231 -0.53976,0.3088 -0.77908,0.1829 z m 14.7472,-0.1879 c -0.40289,-0.273 -0.40084,-0.8898 0.004,-1.099 0.29715,-0.1536 0.61076,-0.1181 0.82199,0.093 0.55001,0.55 -0.18207,1.4419 -0.82563,1.0059 l -4e-5,0 2e-5,0 z m -18.66565,-0.1482 c -0.3203,-0.2695 -0.3209,-0.6757 -10e-4,-0.9733 0.20734,-0.1932 0.64385,-0.1828 0.84677,0.02 0.59649,0.5965 -0.2008,1.4955 -0.84532,0.9532 l 0,0 10e-6,0 z m 22.59502,-0.6212 c -0.19851,-0.1146 -0.31845,-0.3393 -0.32123,-0.6019 -0.002,-0.1585 0.0521,-0.2664 0.21298,-0.4273 0.28432,-0.2843 0.58009,-0.2946 0.87568,-0.031 0.1762,0.1574 0.20672,0.2273 0.20672,0.4733 0,0.2263 -0.0355,0.3241 -0.16441,0.453 -0.19713,0.1971 -0.58775,0.2615 -0.80974,0.1334 z m -7.54436,-0.4799 c -0.40744,-0.4075 -0.0996,-1.081 0.49403,-1.081 0.36075,0 0.67631,0.4046 0.60529,0.7761 -0.0502,0.2627 -0.35678,0.4899 -0.66109,0.4899 -0.19546,0 -0.29541,-0.042 -0.43823,-0.185 z m -6.7611,-0.03 c -0.34225,-0.1896 -0.42404,-0.6686 -0.16646,-0.9747 0.39702,-0.4718 1.10897,-0.2052 1.10897,0.4153 0,0.5112 -0.49708,0.8063 -0.94251,0.5594 z m -13.31304,-0.3482 c -0.27703,-0.2476 -0.29021,-0.6179 -0.0312,-0.8769 0.23514,-0.2351 0.65491,-0.2452 0.89306,-0.022 0.61521,0.578 -0.23204,1.4611 -0.86185,0.8984 z m 6.54264,-0.04 c -0.32029,-0.2695 -0.3209,-0.6757 -10e-4,-0.9733 0.20734,-0.1932 0.64386,-0.1828 0.84677,0.02 0.5965,0.5965 -0.2008,1.4956 -0.84532,0.9532 l 0,0 1e-5,0 z m 9.2905,-0.025 c -0.14511,-0.1452 -0.18503,-0.2418 -0.18503,-0.448 0,-0.2062 0.0399,-0.3028 0.18503,-0.448 0.14511,-0.1451 0.24174,-0.185 0.44796,-0.185 0.20621,0 0.30284,0.04 0.44795,0.185 0.14511,0.1452 0.18503,0.2418 0.18503,0.448 0,0.2062 -0.0399,0.3028 -0.18503,0.448 -0.14511,0.1451 -0.24174,0.185 -0.44795,0.185 -0.20622,0 -0.30285,-0.04 -0.44796,-0.185 z m -5.38037,-0.3165 c -0.40774,-0.4078 -0.12875,-1.081 0.44796,-1.081 0.20621,0 0.30284,0.04 0.44795,0.1851 0.40774,0.4077 0.12876,1.0809 -0.44795,1.0809 -0.20622,0 -0.30285,-0.04 -0.44796,-0.185 z m 14.80907,-0.057 c -0.43334,-0.3872 -0.14791,-1.0877 0.44319,-1.0877 0.31504,0 0.55979,0.1908 0.61376,0.4786 0.12182,0.6493 -0.56739,1.0465 -1.05695,0.6091 z m -21.82333,-0.047 c -0.37913,-0.319 -0.29407,-0.8902 0.16087,-1.0803 0.67483,-0.282 1.202,0.5763 0.65621,1.0683 -0.25312,0.2282 -0.5549,0.2326 -0.81708,0.012 z m 15.02638,-0.3408 c -0.57465,-0.2352 -0.48195,-1.1278 0.12904,-1.2424 0.4471,-0.084 0.87329,0.3751 0.7494,0.8071 -0.10241,0.3572 -0.53982,0.5739 -0.87844,0.4353 z m 10.48287,-0.4682 c -0.19851,-0.1145 -0.31844,-0.3393 -0.32122,-0.6019 -0.002,-0.1585 0.0521,-0.2664 0.21298,-0.4272 0.28432,-0.2844 0.58009,-0.2947 0.87568,-0.031 0.17619,0.1574 0.20672,0.2273 0.20672,0.4733 0,0.2263 -0.0355,0.324 -0.16441,0.453 -0.19714,0.1971 -0.58774,0.2614 -0.80975,0.1333 z m -23.75812,-0.3302 c -0.21851,-0.1186 -0.30227,-0.2755 -0.30227,-0.566 0,-0.3138 0.0962,-0.4685 0.3598,-0.5786 0.29163,-0.1219 0.54561,-0.062 0.74621,0.1767 0.26152,0.3108 0.18909,0.7573 -0.15587,0.9611 -0.21758,0.1285 -0.41959,0.1307 -0.64787,0.01 z m -5.99217,-0.2395 c -0.30075,-0.1735 -0.41899,-0.6367 -0.23103,-0.905 0.22655,-0.3235 0.80506,-0.3476 1.0442,-0.044 0.17719,0.2253 0.17114,0.5981 -0.0132,0.8124 -0.172,0.1999 -0.57164,0.268 -0.79999,0.1362 z m 9.5104,-0.041 c -0.51271,-0.2069 -0.40049,-1.1162 0.15077,-1.2216 0.61887,-0.1183 1.03493,0.6555 0.59109,1.0993 -0.19274,0.1927 -0.45863,0.2366 -0.74186,0.1223 z m 14.18084,-0.1235 c -0.395,-0.1667 -0.53247,-0.7331 -0.25151,-1.0363 0.27892,-0.3009 0.64671,-0.3027 0.94496,0 0.45091,0.4509 -0.10699,1.2882 -0.69345,1.0407 l 0,10e-5 z m -7.87359,-0.048 c -0.3383,-0.1236 -0.52131,-0.5631 -0.3783,-0.9083 0.10805,-0.2609 0.29365,-0.3762 0.6053,-0.3762 0.47372,0 0.76144,0.4556 0.57281,0.907 -0.13264,0.3175 -0.49551,0.4888 -0.79981,0.3775 z m 5.17566,-0.3931 c -0.17748,-0.1586 -0.20672,-0.2265 -0.20672,-0.48 0,-0.2535 0.0292,-0.3213 0.20672,-0.4799 0.1442,-0.1289 0.27312,-0.1847 0.42626,-0.1847 0.15315,0 0.28207,0.056 0.42627,0.1847 0.17747,0.1586 0.20672,0.2264 0.20672,0.4799 0,0.2535 -0.0292,0.3214 -0.20672,0.48 -0.1442,0.1288 -0.27312,0.1846 -0.42627,0.1846 -0.15314,0 -0.28206,-0.056 -0.42626,-0.1846 z m -7.75138,0.057 c -0.33765,-0.136 -0.46461,-0.6827 -0.2313,-0.9961 0.26625,-0.3576 0.81849,-0.3559 1.03746,0 0.19193,0.3148 0.16227,0.588 -0.0914,0.8416 -0.22237,0.2224 -0.42948,0.2662 -0.71475,0.1513 l 0,0 0,10e-5 z m -10.38054,-0.4085 c -0.43901,-0.1909 -0.50876,-0.7639 -0.13163,-1.0812 0.16511,-0.1389 0.24398,-0.1628 0.44715,-0.1356 0.63727,0.085 0.82148,0.8545 0.28329,1.1826 -0.24243,0.1478 -0.32656,0.1526 -0.59881,0.034 z m 24.10377,-0.4388 c -0.36012,-0.1996 -0.42666,-0.6803 -0.13876,-1.0025 0.15858,-0.1775 0.22647,-0.2068 0.47993,-0.2068 0.25347,0 0.32136,0.029 0.47993,0.2068 0.50709,0.5675 -0.15265,1.373 -0.8211,1.0025 z m 3.51922,-0.2924 c -0.56751,-0.4464 -0.13268,-1.3426 0.56554,-1.1656 0.73556,0.1865 0.59889,1.2932 -0.15969,1.2932 -0.14843,0 -0.30704,-0.05 -0.40585,-0.1276 z m -12.14961,-0.1204 c -0.17748,-0.1586 -0.20672,-0.2265 -0.20672,-0.48 0,-0.2534 0.0292,-0.3213 0.20672,-0.4799 0.56027,-0.5006 1.36562,0.177 0.9673,0.8138 -0.23201,0.371 -0.64567,0.4334 -0.9673,0.1461 z m -13.21325,0.049 c -0.24504,-0.095 -0.37513,-0.2431 -0.41874,-0.4756 -0.14866,-0.7923 0.92825,-1.0918 1.23789,-0.3443 0.19773,0.4774 -0.33332,1.0089 -0.81915,0.8199 z m 2.724,-0.2612 c -0.0851,-0.043 -0.21006,-0.173 -0.27762,-0.2887 -0.10729,-0.1837 -0.11331,-0.2421 -0.0475,-0.4618 0.20946,-0.6991 1.15447,-0.6063 1.25229,0.123 0.0317,0.236 0.0136,0.2825 -0.18829,0.4844 -0.24077,0.2407 -0.46147,0.2835 -0.73889,0.1431 z m 3.50326,-0.5781 c -0.24222,-0.2422 -0.27932,-0.49 -0.11961,-0.7989 0.19304,-0.3733 0.67814,-0.4374 0.98534,-0.1302 0.1836,0.1836 0.21148,0.27 0.18559,0.5746 -0.0199,0.2337 -0.10866,0.367 -0.31579,0.4741 -0.29472,0.1524 -0.49628,0.1196 -0.73553,-0.1196 z m -12.37385,-0.024 c -0.34032,-0.3041 -0.24972,-0.8262 0.1741,-1.0033 0.63909,-0.267 1.20483,0.5119 0.72228,0.9945 -0.25443,0.2544 -0.61749,0.258 -0.89638,0.01 z m 25.44448,-0.2546 c -0.18602,-0.1662 -0.2147,-0.2313 -0.2147,-0.4873 0,-0.2451 0.0302,-0.3215 0.17708,-0.4478 0.24295,-0.209 0.42845,-0.243 0.70238,-0.1285 0.26133,0.1092 0.45363,0.4583 0.39066,0.7091 -0.0668,0.2662 -0.30306,0.4742 -0.58079,0.5115 -0.22578,0.03 -0.28815,0.01 -0.47463,-0.157 z m -8.60662,-0.3872 c -0.14495,-0.145 -0.18503,-0.2418 -0.18503,-0.4473 0,-0.1442 0.0293,-0.317 0.0652,-0.384 0.0767,-0.1432 0.38128,-0.313 0.5617,-0.313 0.56271,0 0.84884,0.7116 0.45546,1.1327 -0.25541,0.2734 -0.6306,0.2783 -0.8973,0.012 z m 6.23072,0.059 c -0.21121,-0.085 -0.33909,-0.3193 -0.33909,-0.6208 0,-0.2202 0.0372,-0.3128 0.18502,-0.4606 0.41784,-0.4179 1.08094,-0.099 1.08094,0.5205 0,0.1354 -0.0644,0.2577 -0.21521,0.4085 -0.22168,0.2217 -0.42969,0.2662 -0.71166,0.1524 z m -7.65227,-0.3772 c -0.29911,-0.1213 -0.45308,-0.5352 -0.3187,-0.8568 0.2887,-0.691 1.23873,-0.466 1.23873,0.2933 0,0.2619 -0.35822,0.6253 -0.61083,0.6197 -0.0992,0 -0.23836,-0.027 -0.3092,-0.056 z m 4.90783,-0.4001 c -0.087,-0.043 -0.21036,-0.1851 -0.27405,-0.3152 -0.3678,-0.7511 0.73509,-1.3243 1.13157,-0.5881 0.30103,0.559 -0.29253,1.1842 -0.85752,0.9033 z m 11.79747,-0.137 c -0.40324,-0.1755 -0.53552,-0.674 -0.26883,-1.013 0.18783,-0.2388 0.39363,-0.3046 0.69702,-0.2229 0.27081,0.073 0.49668,0.3537 0.49711,0.6179 6e-4,0.2448 -0.18605,0.524 -0.41338,0.619 -0.25805,0.1078 -0.26193,0.1078 -0.51192,-10e-4 l 0,0 0,0 z m -29.2365,-0.1252 c -0.61356,-0.6135 0.22139,-1.5077 0.86822,-0.9297 0.44116,0.3942 0.14843,1.0825 -0.46035,1.0825 -0.18526,0 -0.2969,-0.042 -0.40787,-0.1528 z m 2.91203,-0.034 c -0.35669,-0.146 -0.49961,-0.6002 -0.29277,-0.9306 0.26348,-0.4208 0.88953,-0.3963 1.11705,0.044 0.2744,0.5306 -0.26822,1.1145 -0.82428,0.8869 z m 22.76278,-0.092 c -0.36012,-0.1996 -0.42666,-0.6804 -0.13876,-1.0026 0.15857,-0.1774 0.22646,-0.2067 0.47993,-0.2067 0.25347,0 0.32135,0.029 0.47992,0.2067 0.5071,0.5676 -0.15263,1.3731 -0.82109,1.0026 z m -28.71284,-0.6181 c -0.59193,-0.3255 -0.38484,-1.1925 0.28485,-1.1925 0.67618,0 0.87859,0.8856 0.27318,1.1952 -0.17343,0.089 -0.39371,0.088 -0.55803,0 l 0,0 0,0 z m 25.69414,0 c -0.16123,-0.078 -0.34309,-0.3738 -0.34309,-0.5576 0,-0.075 0.043,-0.219 0.0956,-0.3207 0.25116,-0.4857 0.97562,-0.416 1.17685,0.1133 0.19607,0.5157 -0.41186,1.0161 -0.92937,0.765 l 0,0 z m -16.92032,-0.079 c -0.34418,-0.1908 -0.42404,-0.6686 -0.16352,-0.9782 0.3856,-0.4583 1.10602,-0.2066 1.10602,0.3863 0,0.3114 -0.0824,0.4642 -0.31522,0.5846 -0.22497,0.1164 -0.4263,0.1187 -0.62728,0.01 z m 3.45962,-0.1597 c -0.17748,-0.1586 -0.20673,-0.2264 -0.20673,-0.4799 0,-0.2535 0.0293,-0.3214 0.20673,-0.4799 0.26751,-0.2391 0.56393,-0.2471 0.83069,-0.023 0.24162,0.2033 0.30912,0.5092 0.17122,0.7759 -0.22195,0.4292 -0.65325,0.5181 -1.00191,0.2066 l 0,0 z m 4.92045,0.048 c -0.23107,-0.1271 -0.34528,-0.3286 -0.34673,-0.6119 -0.001,-0.2194 0.0354,-0.3107 0.18362,-0.4589 0.40837,-0.4084 1.08095,-0.1287 1.08095,0.4494 0,0.2163 -0.0392,0.3036 -0.21522,0.4796 -0.22698,0.227 -0.46158,0.2743 -0.70262,0.1418 z m -1.58879,-0.4583 c -0.15411,-0.1541 -0.21521,-0.2721 -0.21521,-0.4156 0,-0.6172 0.66245,-0.9319 1.08094,-0.5134 0.40673,0.4067 0.13747,1.1442 -0.41777,1.1442 -0.18029,0 -0.28124,-0.048 -0.44796,-0.2152 z m 7.46847,0.09 c -0.20078,-0.081 -0.40436,-0.3745 -0.40436,-0.5826 0,-0.2311 0.15293,-0.5338 0.31298,-0.6194 0.18224,-0.098 0.52579,-0.079 0.6924,0.038 0.62742,0.4394 0.10584,1.4496 -0.60102,1.164 z m -3.44431,-1.1325 c -0.23597,-0.236 -0.28342,-0.4423 -0.16621,-0.7229 0.26309,-0.6296 1.1325,-0.4933 1.22442,0.192 0.0289,0.2152 0.006,0.2809 -0.16999,0.481 -0.17008,0.1937 -0.24465,0.2317 -0.45493,0.2317 -0.19256,0 -0.29411,-0.043 -0.43329,-0.1818 z m -6.05268,-0.064 c -0.22281,-0.1395 -0.37281,-0.4935 -0.30466,-0.719 0.0238,-0.079 0.11668,-0.2218 0.20631,-0.3175 0.31047,-0.3316 0.91751,-0.1709 1.0609,0.2809 0.1766,0.5564 -0.47001,1.064 -0.96255,0.7556 z m -7.68826,-0.2487 c -0.43472,-0.3885 -0.16361,-1.0885 0.42154,-1.0885 0.33684,0 0.57906,0.1827 0.63457,0.4785 0.11866,0.6325 -0.57953,1.0358 -1.05611,0.61 z m 26.37796,-0.054 c -0.19708,-0.1971 -0.25947,-0.3969 -0.19941,-0.6389 0.0987,-0.3979 0.54008,-0.6163 0.92403,-0.4572 0.23055,0.096 0.37575,0.3523 0.37575,0.6647 0,0.5346 -0.71632,0.8155 -1.10037,0.4314 z m -3.57674,0.016 c -0.36012,-0.1996 -0.42666,-0.6803 -0.13876,-1.0025 0.15858,-0.1775 0.22646,-0.2068 0.47993,-0.2068 0.25346,0 0.32135,0.029 0.47993,0.2068 0.50709,0.5675 -0.15264,1.373 -0.8211,1.0025 z m -19.25458,-0.2865 c -0.14511,-0.1452 -0.18502,-0.2418 -0.18502,-0.448 0,-0.2062 0.0399,-0.3029 0.18502,-0.448 0.14511,-0.1451 0.24175,-0.185 0.44796,-0.185 0.20621,0 0.30285,0.04 0.44796,0.185 0.40774,0.4078 0.12875,1.081 -0.44796,1.081 -0.20621,0 -0.30285,-0.04 -0.44796,-0.185 z m -6.15361,-0.01 c -0.50139,-0.3944 -0.25077,-1.1384 0.38347,-1.1384 0.52352,0 0.79761,0.4762 0.54985,0.9553 -0.1655,0.3201 -0.64068,0.4133 -0.93332,0.1831 l 0,0 z m 22.16813,-0.058 c -0.40774,-0.4077 -0.12876,-1.0809 0.44795,-1.0809 0.37014,0 0.63299,0.2628 0.63299,0.633 0,0.2062 -0.0399,0.3028 -0.18503,0.4479 -0.14511,0.1451 -0.24174,0.185 -0.44796,0.185 -0.20621,0 -0.30284,-0.04 -0.44795,-0.185 l 0,0 z m -25.29058,-0.096 c -0.73568,-0.3202 -0.37439,-1.3978 0.40254,-1.2007 0.57566,0.146 0.64773,0.938 0.10864,1.1939 -0.24585,0.1166 -0.2585,0.1168 -0.51118,0.01 z m 22.53487,-0.034 c -0.0735,-0.03 -0.19735,-0.1347 -0.27518,-0.2333 -0.11175,-0.1417 -0.13519,-0.236 -0.11147,-0.4484 0.0355,-0.3174 0.12997,-0.4476 0.40957,-0.5645 0.1748,-0.073 0.23827,-0.072 0.42234,0 0.55027,0.2299 0.58966,0.9571 0.0653,1.2059 -0.22936,0.1088 -0.31491,0.1148 -0.51058,0.036 l 0,0 0,0 z m -4.55748,-0.3165 c -0.20114,-0.081 -0.40436,-0.3746 -0.40436,-0.5836 0,-0.5856 0.62707,-0.8935 1.06657,-0.5236 0.56202,0.4729 0.0182,1.3822 -0.66221,1.1072 z m -2.45892,-0.1154 c -0.61768,-0.1336 -0.70343,-1.0109 -0.12253,-1.2536 0.27565,-0.1152 0.48643,-0.076 0.69246,0.1306 0.26255,0.2625 0.28071,0.6278 0.0454,0.9135 -0.1229,0.1493 -0.42241,0.2512 -0.61532,0.2095 z m 16.62018,-1.1101 c -0.1985,-0.1145 -0.31844,-0.3393 -0.32122,-0.6019 -0.002,-0.1585 0.0521,-0.2664 0.21297,-0.4273 0.28433,-0.2843 0.58009,-0.2946 0.87569,-0.031 0.17619,0.1575 0.20672,0.2274 0.20672,0.4733 0,0.2264 -0.0355,0.3241 -0.16441,0.453 -0.19714,0.1972 -0.58775,0.2615 -0.80975,0.1334 z m -20.8252,-0.067 c -0.36012,-0.1996 -0.42666,-0.6804 -0.13876,-1.0026 0.15858,-0.1775 0.22647,-0.2067 0.47993,-0.2067 0.25347,0 0.32135,0.029 0.47993,0.2067 0.50709,0.5675 -0.15265,1.3731 -0.8211,1.0026 z m 13.35598,-0.063 c -0.36012,-0.1996 -0.42666,-0.6804 -0.13876,-1.0026 0.15858,-0.1775 0.22647,-0.2067 0.47993,-0.2067 0.25347,0 0.32135,0.029 0.47993,0.2067 0.50709,0.5675 -0.15264,1.3731 -0.8211,1.0026 z m -4.43089,-0.3165 c -0.36012,-0.1996 -0.42666,-0.6804 -0.13877,-1.0026 0.15858,-0.1775 0.22647,-0.2067 0.47993,-0.2067 0.25348,0 0.32136,0.029 0.47994,0.2067 0.50709,0.5675 -0.15265,1.3731 -0.8211,1.0026 z m -12.97619,-0.063 c -0.36012,-0.1996 -0.42666,-0.6804 -0.13876,-1.0026 0.15858,-0.1775 0.22646,-0.2067 0.47993,-0.2067 0.25347,0 0.32135,0.029 0.47993,0.2067 0.50709,0.5675 -0.15264,1.3731 -0.8211,1.0026 z m 20.8885,-0.1266 c -0.36012,-0.1996 -0.42666,-0.6804 -0.13876,-1.0026 0.15857,-0.1775 0.22646,-0.2067 0.47993,-0.2067 0.25347,0 0.32135,0.029 0.47993,0.2067 0.50709,0.5675 -0.15264,1.3731 -0.8211,1.0026 z m -24.05343,-0.4431 c -0.36012,-0.1996 -0.42665,-0.6804 -0.13876,-1.0026 0.15858,-0.1774 0.22647,-0.2067 0.47993,-0.2067 0.25348,0 0.32136,0.029 0.47993,0.2067 0.5071,0.5676 -0.15264,1.3731 -0.8211,1.0026 z m -3.86383,-0.2388 c -0.54551,-0.3707 -0.28011,-1.192 0.38517,-1.192 0.55996,0 0.83206,0.6525 0.44919,1.0772 -0.24063,0.267 -0.54813,0.3092 -0.83436,0.1148 z m 14.05489,-0.141 c -0.36012,-0.1996 -0.42666,-0.6804 -0.13876,-1.0026 0.15858,-0.1775 0.22646,-0.2067 0.47993,-0.2067 0.25347,0 0.32136,0.029 0.47993,0.2067 0.50709,0.5676 -0.15264,1.3731 -0.8211,1.0026 z m 3.22822,-0.1266 c -0.36012,-0.1996 -0.42666,-0.6804 -0.13876,-1.0026 0.15858,-0.1775 0.22647,-0.2067 0.47993,-0.2067 0.25347,0 0.32136,0.029 0.47993,0.2067 0.50709,0.5676 -0.15264,1.3731 -0.8211,1.0026 z m 5.82347,-0.1899 c -0.36012,-0.1996 -0.42667,-0.6804 -0.13877,-1.0026 0.15858,-0.1774 0.22647,-0.2067 0.47993,-0.2067 0.25347,0 0.32136,0.029 0.47993,0.2067 0.50709,0.5676 -0.15264,1.3731 -0.82109,1.0026 z m -14.36876,-0.3165 c -0.36012,-0.1996 -0.42666,-0.6803 -0.13876,-1.0025 0.15858,-0.1775 0.22646,-0.2068 0.47993,-0.2068 0.25347,0 0.32135,0.029 0.47993,0.2068 0.5071,0.5675 -0.15264,1.373 -0.8211,1.0025 z m 22.85075,-0.2497 c -0.1985,-0.1146 -0.31845,-0.3393 -0.32122,-0.6019 -0.002,-0.1585 0.0521,-0.2664 0.21297,-0.4273 0.28433,-0.2843 0.5801,-0.2946 0.87568,-0.03 0.1762,0.1574 0.20672,0.2273 0.20672,0.4733 0,0.2263 -0.0355,0.3241 -0.16441,0.453 -0.19713,0.1971 -0.58774,0.2615 -0.80974,0.1334 z m -4.68409,-0.1934 c -0.36011,-0.1996 -0.42666,-0.6803 -0.13875,-1.0025 0.15857,-0.1775 0.22646,-0.2068 0.47992,-0.2068 0.25347,0 0.32136,0.029 0.47993,0.2068 0.50709,0.5675 -0.15265,1.373 -0.8211,1.0025 z m -5.76016,-0.7596 c -0.36012,-0.1996 -0.42666,-0.6803 -0.13876,-1.0025 0.15858,-0.1775 0.22646,-0.2067 0.47993,-0.2067 0.25347,0 0.32136,0.029 0.47993,0.2067 0.50709,0.5675 -0.15264,1.373 -0.8211,1.0025 z m -16.01452,-0.1899 c -0.36011,-0.1995 -0.42666,-0.6803 -0.13875,-1.0025 0.15857,-0.1775 0.22646,-0.2067 0.47993,-0.2067 0.25346,0 0.32135,0.029 0.47992,0.2067 0.5071,0.5675 -0.15263,1.373 -0.8211,1.0025 z m 5.5074,-0.2047 c -0.22185,-0.1554 -0.33113,-0.4666 -0.2575,-0.7333 0.0766,-0.2775 0.23781,-0.4253 0.51127,-0.469 0.67679,-0.1079 1.05923,0.6676 0.55795,1.1314 -0.2201,0.2037 -0.57757,0.2349 -0.81172,0.071 z m -9.62442,-0.097 c -0.54552,-0.3706 -0.28012,-1.192 0.38517,-1.192 0.55996,0 0.83206,0.6526 0.44919,1.0773 -0.24063,0.2669 -0.54813,0.3092 -0.83436,0.1147 z m 17.48517,-0.5597 c -0.32022,-0.129 -0.42558,-0.7378 -0.17551,-1.0141 0.29714,-0.3284 0.82024,-0.2846 1.04722,0.088 0.35742,0.5861 -0.21251,1.1918 -0.87171,0.9264 z m 11.88795,-0.021 c -0.1985,-0.1145 -0.31845,-0.3393 -0.32122,-0.6019 -0.002,-0.1585 0.0521,-0.2664 0.21297,-0.4273 0.28432,-0.2843 0.58009,-0.2946 0.87568,-0.031 0.1762,0.1575 0.20672,0.2274 0.20672,0.4733 0,0.2264 -0.0355,0.3241 -0.16441,0.453 -0.19713,0.1972 -0.58774,0.2615 -0.80974,0.1334 z m -5.55192,-0.1936 c -0.27994,-0.28 -0.29433,-0.5812 -0.0411,-0.8621 0.24063,-0.2669 0.54812,-0.3092 0.83435,-0.1147 0.37705,0.2562 0.40434,0.7407 0.0581,1.032 -0.28095,0.2365 -0.57903,0.2171 -0.85135,-0.055 z m -11.71159,0 c -0.26322,-0.1146 -0.40374,-0.3289 -0.40374,-0.6159 0,-0.3443 0.21116,-0.5628 0.58458,-0.6049 0.26667,-0.03 0.3144,-0.014 0.48848,0.1596 0.15292,0.1529 0.19291,0.2473 0.19291,0.4551 0,0.3465 -0.0839,0.4876 -0.35816,0.6022 -0.26957,0.1126 -0.25447,0.1125 -0.50407,0 l 0,0 0,0 z m 2.70486,-0.2506 c -0.36012,-0.1996 -0.42666,-0.6803 -0.13876,-1.0026 0.15858,-0.1774 0.22646,-0.2067 0.47993,-0.2067 0.25346,0 0.32135,0.029 0.47993,0.2067 0.50708,0.5676 -0.15264,1.3731 -0.8211,1.0026 z m -9.07853,-0.1702 c -0.24107,-0.067 -0.36327,-0.1773 -0.46552,-0.4219 -0.16041,-0.3838 0.13925,-0.8213 0.60531,-0.8838 0.23039,-0.031 0.27895,-0.012 0.47965,0.1889 0.16102,0.161 0.22331,0.2789 0.22331,0.4227 0,0.4762 -0.40971,0.8137 -0.84275,0.6941 z m 22.4345,-1.3455 c -0.1985,-0.1146 -0.31844,-0.3393 -0.32122,-0.6019 -0.002,-0.1585 0.0521,-0.2664 0.21298,-0.4273 0.28432,-0.2843 0.58009,-0.2946 0.87569,-0.031 0.17619,0.1574 0.20672,0.2273 0.20672,0.4733 0,0.2263 -0.0355,0.3241 -0.16442,0.453 -0.19714,0.1972 -0.58775,0.2615 -0.80975,0.1334 z m -6.35184,-0.1408 c -0.60179,-0.3265 -0.36678,-1.2302 0.31992,-1.2302 0.38833,0 0.64517,0.2571 0.64318,0.644 -0.003,0.5417 -0.49407,0.8407 -0.9631,0.5862 z m -13.19354,-0.6865 c -0.24761,-0.1114 -0.33731,-0.2704 -0.33731,-0.598 0,-0.6761 0.94504,-0.8945 1.23417,-0.2852 0.27833,0.5865 -0.29707,1.1531 -0.89686,0.8832 z m 10.82779,-0.4129 c -0.35472,-0.1511 -0.49694,-0.591 -0.30875,-0.955 0.32947,-0.6371 1.34337,-0.2552 1.20999,0.4558 -0.0746,0.3974 -0.53785,0.654 -0.90124,0.4992 z m -7.88781,-0.6691 c -0.65333,-0.3676 -0.15294,-1.4389 0.54765,-1.1725 0.41581,0.1581 0.56076,0.7126 0.27354,1.0465 -0.17809,0.2071 -0.57013,0.2672 -0.82119,0.126 z m 5.46487,-0.056 c -0.42272,-0.2343 -0.4305,-0.927 -0.0128,-1.143 0.28771,-0.1488 0.5456,-0.1232 0.76665,0.076 0.58175,0.5244 -0.0695,1.4462 -0.75382,1.0669 z m 9.62137,0 c -0.1985,-0.1146 -0.31844,-0.3393 -0.32122,-0.6019 -0.002,-0.1586 0.0521,-0.2664 0.21298,-0.4273 0.28432,-0.2843 0.58009,-0.2946 0.87568,-0.03 0.17619,0.1574 0.20672,0.2273 0.20672,0.4733 0,0.2263 -0.0355,0.3241 -0.16441,0.453 -0.19713,0.1971 -0.58775,0.2615 -0.80975,0.1334 z m -12.91551,-0.1157 c -0.54551,-0.3707 -0.28011,-1.192 0.38517,-1.192 0.55996,0 0.83206,0.6525 0.44919,1.0773 -0.24064,0.2669 -0.54813,0.3092 -0.83436,0.1147 z m 11.33305,-1.4035 c -0.1985,-0.1145 -0.31844,-0.3393 -0.32122,-0.6019 -0.002,-0.1585 0.0521,-0.2664 0.21297,-0.4273 0.28433,-0.2843 0.5801,-0.2946 0.87569,-0.031 0.17619,0.1575 0.20672,0.2273 0.20672,0.4733 0,0.2263 -0.0355,0.3241 -0.16442,0.453 -0.19713,0.1972 -0.58774,0.2615 -0.80974,0.1334 z m -2.09582,-1.4793 c -0.13219,-0.067 -0.26825,-0.2088 -0.33735,-0.3502 -0.14963,-0.3062 -0.0609,-0.6121 0.24545,-0.8457 0.17736,-0.1353 0.25561,-0.1563 0.45378,-0.122 0.66404,0.1151 0.88337,0.8698 0.3642,1.2532 -0.23072,0.1705 -0.47644,0.1924 -0.72608,0.065 z m -2.28361,-1.1528 c -0.39775,-0.3977 -0.12642,-1.0982 0.42539,-1.0982 0.33823,0 0.57459,0.1652 0.66414,0.4641 0.13761,0.4593 -0.15889,0.8192 -0.67496,0.8192 -0.16932,0 -0.27809,-0.049 -0.41457,-0.1851 z m -12.0808,-0.4586 c -0.54551,-0.3707 -0.28011,-1.192 0.38518,-1.192 0.55995,0 0.83205,0.6525 0.44918,1.0772 -0.24063,0.267 -0.54813,0.3092 -0.83436,0.1148 z m 9.62899,-0.4004 c -0.61815,-0.5202 0.0532,-1.4766 0.74828,-1.066 0.37917,0.224 0.42507,0.6842 0.10061,1.0086 -0.27138,0.2714 -0.57049,0.2916 -0.84889,0.057 z m -7.2307,0.028 c -0.19338,-0.075 -0.37708,-0.3646 -0.37708,-0.5954 0,-0.6917 0.91058,-0.9287 1.2373,-0.3221 0.29319,0.5445 -0.27011,1.1453 -0.86022,0.9175 z m 2.20714,-0.3585 c -0.54539,-0.3384 -0.29476,-1.2218 0.34631,-1.2207 0.20566,0 0.54501,0.2293 0.61576,0.4154 0.1111,0.2922 0.0712,0.4737 -0.1535,0.6984 -0.24559,0.2456 -0.52532,0.2826 -0.80857,0.1069 z m 2.08862,-0.013 c -0.24872,-0.1963 -0.33511,-0.5074 -0.2184,-0.7867 0.0981,-0.2349 0.37366,-0.4213 0.62212,-0.4209 0.24392,0 0.54674,0.2279 0.60747,0.4563 0.11767,0.4425 -0.12216,0.8047 -0.56559,0.8543 -0.21656,0.024 -0.31266,0 -0.4456,-0.103 z"
id="path2852"
style="fill:#000000;fill-opacity:1"
/>
<path
d="m 73.6953,74.365 c -1.91306,-1.3787 -3.47833,-2.6149 -3.47833,-2.7474 0,-0.2546 7.67411,-4.7802 7.8343,-4.6199 0.16555,0.1656 -0.52935,9.8739 -0.7067,9.8739 -0.094,0 -1.73621,-1.128 -3.64927,-2.5066 z m 3.46823,-2.5507 c 0.0808,-1.819 0.10438,-3.35 0.0522,-3.4022 -0.11332,-0.1133 -1.18455,0.6263 -3.31484,2.2888 l -1.566,1.222 2.06603,1.5839 c 1.13628,0.8713 2.18968,1.5909 2.34082,1.5995 0.1796,0.01 0.32571,-1.1293 0.42179,-3.292 z m -55.41469,-3.5051 c -0.19257,-0.4469 -2.55658,-5.5251 -5.25334,-11.2851 -2.69679,-5.7599 -4.90084,-10.5974 -4.89792,-10.7499 0.003,-0.1526 1.25665,-1.2336 2.78604,-2.4024 1.52941,-1.1688 2.90511,-2.243 3.05708,-2.3871 0.15214,-0.1442 1.64271,-1.2918 3.31252,-2.5503 l 3.03606,-2.288 2.21397,-5.2566 2.21403,-5.2567 3.9206,-0.01 c 3.51496,0 3.93397,-0.051 4.05001,-0.4431 0.0712,-0.2407 0.36736,-1.7313 0.65799,-3.3125 0.29072,-1.5813 0.58313,-3.1018 0.64975,-3.3789 0.11764,-0.4883 0.2839,-0.5016 5.42138,-0.4304 2.91501,0.04 5.6657,0.1316 6.11258,0.2027 l 0.8125,0.1292 0,3.2222 0,3.2223 3.84357,2.0164 c 2.11402,1.109 3.91398,2.0164 4.00007,2.0164 0.086,0 0.15625,-3.5366 0.15625,-7.8592 l 0,-7.8592 0.93755,0.1399 c 0.51564,0.077 1.12172,0.323 1.34681,0.5468 0.29967,0.2978 13.17855,16.7018 20.76116,26.4438 0.31213,0.4008 0.0395,1.9388 -2.47109,13.9448 l -2.19203,10.4819 -3.86438,1.8735 c -2.62012,1.2702 -3.89802,1.7725 -3.96882,1.5601 -0.0573,-0.1722 -0.65974,-1.1435 -1.33847,-2.1583 -5.36178,-8.0165 -16.66128,-10.5775 -28.51067,-6.4616 -4.50413,1.5645 -9.63331,4.3631 -14.31948,7.8129 -0.9596,0.7065 -1.82992,1.2845 -1.93414,1.2845 -0.10423,0 -0.34703,-0.3656 -0.53958,-0.8126 z m 4.84337,-3.4883 c 8.10843,-4.866 15.05692,-7.7745 20.74995,-8.6854 3.82945,-0.6127 8.34825,-0.2008 11.42346,1.0414 3.04543,1.2301 6.343,4.0018 8.71387,7.3242 0.6361,0.8914 1.28762,1.6206 1.44808,1.6206 0.16037,0 1.74841,-0.4273 3.52913,-0.9495 l 3.23762,-0.9494 1.20271,-7.863 c 0.6614,-4.3246 1.41099,-9.4381 1.6657,-11.363 l 0.46312,-3.5 -0.80086,-1.125 c -2.37637,-3.3382 -18.2164,-24.6353 -18.36581,-24.6931 -0.15586,-0.06 -0.50536,4.5183 -0.94612,12.3934 -0.12438,2.2219 -0.19913,2.5552 -0.54504,2.4294 -0.2206,-0.08 -2.45189,-1.0141 -4.95875,-2.0752 l -4.55784,-1.9294 -0.004,-3.1728 c -0.002,-1.745 -0.089,-3.2222 -0.19223,-3.2826 -0.1031,-0.061 -2.44735,-0.1905 -5.20937,-0.289 l -5.02189,-0.1791 -0.31092,4.0864 c -0.17115,2.2474 -0.34107,4.1162 -0.3777,4.1528 -0.0367,0.037 -1.99853,-0.068 -4.35983,-0.2318 -2.63864,-0.1834 -4.37244,-0.209 -4.4988,-0.066 -0.11324,0.1277 -1.07474,2.5985 -2.13677,5.4905 l -1.93075,5.2583 -2.0457,1.5325 c -1.12513,0.843 -3.50818,2.621 -5.29568,3.9513 -1.78748,1.3302 -3.28321,2.5083 -3.32379,2.6181 -0.0407,0.1096 1.80062,4.8853 4.09164,10.6125 4.08972,10.2239 4.17518,10.4069 4.6988,10.0658 0.29331,-0.191 1.93954,-1.1912 3.65831,-2.2227 z"
id="path3160"
style="fill:#000000"
/>
<circle
style="fill:none;fill-opacity:1;stroke:#00000f;stroke-width:1;stroke-opacity:1"
id="circle8307"
cx="50"
cy="50"
r="39.5"
/>
</svg>
