<?xml version="1.0" encoding="UTF-8" standalone="no"?>
<svg
xmlns:rdf="http://www.w3.org/1999/02/22-rdf-syntax-ns#"
xmlns="http://www.w3.org/2000/svg"
xmlns:dc="http://purl.org/dc/elements/1.1/"
xmlns:cc="http://creativecommons.org/ns#"
xmlns:svg="http://www.w3.org/2000/svg"
xmlns:inkscape="http://www.inkscape.org/namespaces/inkscape"
xmlns:sodipodi="http://sodipodi.sourceforge.net/DTD/sodipodi-0.dtd"
>
<rect
width="86.267029"
y="31.410643"
style="opacity:1;fill:#ffffff;fill-opacity:1;stroke:#ffffff;stroke-width:2;stroke-opacity:1"
id="rect5027"
height="63.63961"
x="6.99560000000019"
/>
<path
d="m 88.8888999999999,10 -5.5556,0 0,-10 -11.1111,0 0,10 -44.4444,0 0,-10 -11.1111,0 0,10 -5.5556,0 c -6.1338,0 -11.0544,4.479592 -11.0544,10.000001 L 0,90.000003 C 0,95.520412 4.97730000000001,100 11.1111000000001,100 l 77.7778,0 C 95.0227,100 100,95.520412 100,90.000003 l 0,-70.000002 C 100,14.479592 95.0227,10 88.8888999999999,10 l 0,0 z"
id="path5035"
style="fill:#303030"
/>
<path
id="path5029"
style="fill:#ffffff"
d="m 88.8888999999999,90.000003 -77.7778,0 0,-70.202798 77.7778,0 0,70.202798 z"
/>
<path
d="m 50.2721000000001,47.689652 -4.5113,-5.992951 -20.7433,27.609151 -9.0138,-11.997452 -4.5026,5.992953 13.5164,18.001951 25.2546,-33.613652 0,0 z"
id="path5037"
style="fill:#303030"
/>
<path
d="m 68.8316,47.689652 -4.5113,-5.992951 -20.7432,27.609151 -9.0139,-11.997452 -4.5026,5.992953 13.5165,18.001951 25.2545,-33.613652 0,0 z"
id="path5039"
style="fill:#303030"
/>
<path
d="m 87.3910999999998,47.689652 -4.5113,-5.992951 -20.7432,27.609151 -9.0139,-11.997452 -4.5026,5.992953 13.5165,18.001951 25.2545,-33.613652 0,0 z"
id="path5041"
style="fill:#303030"
/>
<path
d="m 30.8701000000001,38.022772 -2.1753,0 0,-14.095459 -4.5483,9.591064 -1.2964,0 -4.5154,-9.591064 0,14.095459 -2.0325,0 0,-16.358643 2.9664,0 4.3615,9.107666 4.2188,-9.107666 3.0212,0 0,16.358643 z"
id="path5169"
style="fill:#303030;fill-opacity:1;stroke:#303030;stroke-opacity:1"
/>
<path
id="path5171"
style="fill:#303030;fill-opacity:1;stroke:#303030;stroke-opacity:1"
d="m 47.0641999999998,38.022772 -10.7776,0 0,-16.358643 10.7776,0 0,1.933594 -8.6023,0 0,4.482422 8.6023,0 0,1.933594 -8.6023,0 0,6.075439 8.6023,0 0,1.933594 z"
/>
<path
style="fill:#303030;fill-opacity:1;stroke:#303030;stroke-opacity:1"
id="path5253"
d="m 67.1698999999999,36.814276 q -1.3403,0.615234 -2.9333,1.07666 -1.5821,0.450439 -3.0652,0.450439 -1.9116,0 -3.5047,-0.527343 -1.593,-0.527344 -2.7136,-1.582032 -1.1316,-1.065673 -1.7468,-2.658691 -0.6152,-1.604004 -0.6152,-3.746338 0,-3.922119 2.2851,-6.185303 2.2962,-2.27417 6.2952,-2.27417 1.3953,0 2.8454,0.340577 1.4612,0.329589 3.1421,1.131591 l 0,2.581787 -0.1977,0 q -0.3406,-0.263671 -0.9888,-0.692138 -0.6482,-0.428467 -1.2744,-0.714112 -0.7581,-0.340576 -1.7249,-0.560302 -0.9558,-0.230713 -2.1752,-0.230713 -2.7466,0 -4.3506,1.768799 -1.5931,1.757812 -1.5931,4.768066 0,3.175049 1.67,4.943848 1.6699,1.757812 4.5483,1.757812 1.0547,0 2.0984,-0.20874 1.0547,-0.20874 1.8457,-0.53833 l 0,-4.01001 -4.3835,0 0,-1.911621 6.5368,0 0,7.020264 z"
/>
<path
style="fill:#303030;fill-opacity:1;stroke:#303030;stroke-opacity:1"
id="path5175"
d="m 86.8690999999999,38.022772 -2.3181,0 -1.604,-4.559326 -7.0752,0 -1.604,4.559326 -2.2082,0 5.9546,-16.358643 2.9004,0 5.9545,16.358643 z m -4.5922,-6.427002 -2.8675,-8.031006 -2.8784,8.031006 5.7459,0 z"
/>
</svg>
