<?xml version="1.0" encoding="UTF-8" standalone="no"?>
<svg
xmlns:sodipodi="http://sodipodi.sourceforge.net/DTD/sodipodi-0.dtd"
xmlns:inkscape="http://www.inkscape.org/namespaces/inkscape"
xmlns:cc="http://creativecommons.org/ns#"
xmlns:svg="http://www.w3.org/2000/svg"
xmlns="http://www.w3.org/2000/svg"
xmlns:rdf="http://www.w3.org/1999/02/22-rdf-syntax-ns#"
xmlns:dc="http://purl.org/dc/elements/1.1/"
>
<path
id="path4553"
style="font-style:normal;font-variant:normal;font-weight:bold;font-stretch:normal;font-size:36.30218887px;line-height:100%;font-family:'Courier New';-inkscape-font-specification:'Courier New Bold';letter-spacing:0px;word-spacing:0px;fill:#ff5a00;fill-opacity:1;stroke:none;stroke-width:1px;stroke-opacity:1"
d="m 9.69499999999994,5.84959000000003 0,1.92482 q 2.6953,-1.3985 4.2415,-1.86467 1.5671,-0.46617 2.9252,-0.46617 2.0895,0 4.0535,1.11278 1.3372,0.75189 1.3372,1.5339 0,0.66163 -0.6477,1.1278 -0.6268,0.45115 -1.5252,0.45115 -0.794,0 -1.6716,-0.57144 -0.8776,-0.57145 -1.567,-0.57145 -0.8985,0 -2.6954,0.81204 -1.776,0.81204 -4.4505,2.43604 l 0,4.64667 6.1011,0 q 1.5462,0 2.1939,0.43605 0.6686,0.42104 0.6686,1.11278 0,0.67673 -0.6686,1.11279 -0.6477,0.42103 -2.1939,0.42103 l -12.9335,0 q -1.5462,0 -2.2148,-0.42103 -0.6477,-0.43606 -0.6477,-1.1278 0,-0.67673 0.6477,-1.09777 0.6686,-0.43605 2.2148,-0.43605 l 2.549,0 0,-7.48873 -1.5461,0 q -1.5462,0 -2.2148,-0.42104 -0.6477,-0.43614 -0.6477,-1.1278 0,-0.67673 0.6477,-1.09776 0.6686,-0.43614 2.2148,-0.43614 l 5.8295,0 z"
/>
<path
d="m 46.9911999999999,14.24063 -17.5721,0 q 0.6688,1.20296 2.3611,1.93984 1.7133,0.73679 4.6177,0.73679 2.3819,0 6.3309,-0.73679 1.6298,-0.30074 2.2567,-0.30074 0.8566,0 1.4416,0.43605 0.5851,0.43605 0.5851,1.09777 0,0.60148 -0.6268,1.02251 -0.8358,0.55644 -4.0744,1.06765 -3.2387,0.49629 -6.2266,0.49629 -5.1399,0 -8.2323,-2.09025 -3.0715,-2.09017 -3.0715,-5.14288 0,-3.24808 3.3222,-5.27818 3.3431,-2.04512 7.6892,-2.04512 2.6118,0 4.7848,0.66171 2.1938,0.66163 3.2595,1.42854 1.5043,1.11278 2.4863,2.75188 0.6686,1.1429 0.6686,2.6466 l 0,1.30833 z m -4.7429,-3.08274 q -0.9821,-1.32334 -2.5701,-1.96995 -1.5879,-0.66163 -3.7818,-0.66163 -2.173,0 -3.7609,0.66163 -1.588,0.64661 -2.5909,1.96995 l 12.7037,0 z"
style="font-style:normal;font-variant:normal;font-weight:bold;font-stretch:normal;font-size:36.30218887px;line-height:100%;font-family:'Courier New';-inkscape-font-specification:'Courier New Bold';letter-spacing:0px;word-spacing:0px;fill:#ff5a00;fill-opacity:1;stroke:none;stroke-width:1px;stroke-opacity:1"
id="path4556"
/>
<path
style="font-style:normal;font-variant:normal;font-weight:bold;font-stretch:normal;font-size:36.30218887px;line-height:100%;font-family:'Courier New';-inkscape-font-specification:'Courier New Bold';letter-spacing:0px;word-spacing:0px;fill:#ff5a00;fill-opacity:1;stroke:none;stroke-width:1px;stroke-opacity:1"
id="path4558"
d="m 57.4802,-4.00000000126965e-05 0,6.57149 q 1.3373,-0.57145 2.6953,-0.84216 1.3791,-0.28572 2.7791,-0.28572 2.2147,0 3.9489,0.54142 1.7342,0.54133 2.8625,1.71426 1.1492,1.15791 1.1492,2.93232 l 0,5.78949 q 1.6297,0 2.1313,0.22558 1.0029,0.46617 1.0029,1.32325 0,0.67673 -0.6477,1.11279 -0.6478,0.42103 -2.194,0.42103 l -4.8892,0 q -1.5253,0 -2.1939,-0.42103 -0.6477,-0.43606 -0.6477,-1.1278 0,-0.84207 1.0029,-1.30824 0.5224,-0.2406 2.1311,-0.22558 l 0,-5.57893 q 0,-1.18803 -0.7521,-1.66921 -0.982,-0.64661 -2.9042,-0.64661 -1.4209,0 -2.5284,0.40602 -1.0864,0.391 -2.946,1.71426 l 0,5.77447 q 1.6507,0 2.1312,0.22558 1.0238,0.46617 1.0238,1.32325 0,0.67673 -0.6686,1.11279 -0.6477,0.42103 -2.1939,0.42103 l -4.8683,0 q -1.5462,0 -2.2148,-0.42103 -0.6477,-0.43606 -0.6477,-1.1278 0,-0.84207 1.0237,-1.30824 0.5016,-0.2406 2.1313,-0.22558 l 0,-13.33837 -0.7313,0 q -1.5462,0 -2.2149,-0.42103 -0.6477,-0.43614 -0.6477,-1.1278 0,-0.67673 0.6477,-1.09777 0.6687,-0.43613 2.2149,-0.43613 l 5.0146,0 z"
/>
<path
d="m 86.5024000000001,8.93232999999998 0,6.18049 q 0,0.9924 0.5641,1.30824 0.8776,0.4962 3.1341,0.4962 3.2805,0 6.0594,-1.0075 1.0656,-0.39101 1.6715,-0.39101 0.8358,0 1.4417,0.45116 0.6269,0.45115 0.6269,1.09776 0,0.60148 -0.6686,1.03762 -1.0239,0.70676 -4.0535,1.30824 -3.0088,0.58647 -5.0774,0.58647 -3.9908,0 -5.9966,-1.23308 -1.985,-1.24809 -1.985,-3.05262 l 0,-6.78197 -1.5462,0 q -1.5462,0 -2.2147,-0.42104 -0.6478,-0.43614 -0.6478,-1.1278 0,-0.67673 0.6478,-1.09776 0.6685,-0.43614 2.2147,-0.43614 l 1.5462,0 0,-2.78191 q 0,-1.11278 0.585,-1.57895 0.606,-0.48119 1.5672,-0.48119 0.9401,0 1.5252,0.48119 0.606,0.46617 0.606,1.57895 l 0,2.78191 7.9189,0 q 1.5461,0 2.1939,0.43614 0.6686,0.42103 0.6686,1.11278 0,0.67664 -0.6686,1.11278 -0.6478,0.42104 -2.1939,0.42104 l -7.9189,0 z"
style="font-style:normal;font-variant:normal;font-weight:bold;font-stretch:normal;font-size:36.30218887px;line-height:100%;font-family:'Courier New';-inkscape-font-specification:'Courier New Bold';letter-spacing:0px;word-spacing:0px;fill:#ff5a00;fill-opacity:1;stroke:none;stroke-width:1px;stroke-opacity:1"
id="path4560"
/>
<path
id="path4544"
style="font-style:normal;font-variant:normal;font-weight:bold;font-stretch:normal;font-size:35.71259689px;line-height:100%;font-family:'Courier New';-inkscape-font-specification:'Courier New Bold';letter-spacing:0px;word-spacing:0px;fill:#0a6b9e;fill-opacity:1;stroke:none;stroke-width:1px;stroke-opacity:1"
d="m 22.0353,39.83532 q 0,1.7277 -1.3707,3.35289 -1.3499,1.61049 -4.0499,2.57682 -2.679,0.95172 -5.6075,0.95172 -2.9074,0 -5.5659,-0.93702 -2.6583,-0.95172 -4.0498,-2.57691 -1.3915,-1.62519 -1.3915,-3.39681 0,-1.80083 1.4123,-3.52854 1.4123,-1.74231 4.0499,-2.73786 2.6583,-0.99564 5.545,-0.99564 2.9076,0 5.5868,1.02486 2.6999,1.01032 4.0706,2.73794 1.3707,1.71302 1.3707,3.52855 z m -4.2575,0.0143 q 0,-1.44954 -1.4745,-2.66473 -2.0146,-1.63988 -5.2961,-1.63988 -2.8867,0 -4.8182,1.3031 -1.9314,1.30311 -1.9314,3.01612 0,1.40554 1.9522,2.63543 1.9523,1.2152 4.7974,1.2152 2.8662,0 4.8184,-1.2152 1.9522,-1.22989 1.9522,-2.65004 z"
/>
<path
d="m 43.1152999999999,33.481 q 0.7685,-0.51243 1.5783,-0.51243 0.9139,0 1.4955,0.46852 0.6023,0.4539 0.6023,1.52267 l 0,1.93266 q 0,1.08345 -0.6023,1.53736 -0.5816,0.4539 -1.5369,0.4539 -0.8723,0 -1.4746,-0.35138 -0.4361,-0.26356 -0.6854,-1.06885 -0.2492,-0.8199 -1.2046,-1.2152 -1.6822,-0.70285 -4.299,-0.70285 -3.0115,0 -4.8391,1.24458 -1.8068,1.2445 -1.8068,3.14786 0,1.75692 1.7446,2.78186 1.7445,1.01024 5.7943,1.01024 2.6584,0 4.3406,-0.38069 0.997,-0.23425 1.89,-0.79068 0.893,-0.57095 1.6199,-0.57095 0.8723,0 1.4954,0.45382 0.6437,0.45391 0.6437,1.06885 0,0.99564 -1.9314,1.88875 -2.866,1.33232 -8.3905,1.33232 -4.9636,0 -7.7258,-1.44945 -3.7383,-1.94735 -3.7383,-5.32946 0,-3.20647 3.0322,-5.30017 3.0321,-2.10831 7.9127,-2.10831 1.7653,0 3.2815,0.23426 1.516,0.23426 2.8037,0.70277 z"
id="path4546"
style="font-style:normal;font-variant:normal;font-weight:bold;font-stretch:normal;font-size:35.71259689px;line-height:100%;font-family:'Courier New';-inkscape-font-specification:'Courier New Bold';letter-spacing:0px;word-spacing:0px;fill:#0a6b9e;fill-opacity:1;stroke:none;stroke-width:1px;stroke-opacity:1"
/>
<path
d="m 72.6686999999999,41.10912 -17.4661,0 q 0.6645,1.17128 2.3467,1.88875 1.703,0.71738 4.5899,0.71738 2.3676,0 6.2928,-0.71738 1.62,-0.29287 2.243,-0.29287 0.8515,0 1.433,0.4246 0.5816,0.42461 0.5816,1.06885 0,0.58565 -0.6231,0.99555 -0.8308,0.54173 -4.0498,1.03955 -3.2192,0.4832 -6.1891,0.4832 -5.109,0 -8.1828,-2.03517 -3.0528,-2.0351 -3.0528,-5.0073 0,-3.16255 3.3021,-5.13912 3.3229,-1.99119 7.6428,-1.99119 2.596,0 4.7559,0.64425 2.1807,0.64417 3.2399,1.39093 1.4954,1.08338 2.4714,2.67934 0.6646,1.11268 0.6646,2.57683 l 0,1.2738 z m -4.7143,-3.00142 q -0.9762,-1.2885 -2.5546,-1.91805 -1.5784,-0.64425 -3.759,-0.64425 -2.16,0 -3.7384,0.64425 -1.5784,0.62955 -2.5753,1.91805 l 12.6273,0 z"
style="font-style:normal;font-variant:normal;font-weight:bold;font-stretch:normal;font-size:35.71259689px;line-height:100%;font-family:'Courier New';-inkscape-font-specification:'Courier New Bold';letter-spacing:0px;word-spacing:0px;fill:#0a6b9e;fill-opacity:1;stroke:none;stroke-width:1px;stroke-opacity:1"
id="path4548"
/>
<path
d="m 92.1703,33.83239 0,-0.89312 4.9844,0 q 1.5369,0 2.1808,0.4246 0.6645,0.40999 0.6645,1.08346 0,0.65886 -0.6645,1.08346 -0.6439,0.40999 -2.1808,0.40999 l -0.7268,0 0,10.92241 q 0,1.58119 -0.9554,2.75255 -0.9346,1.1859 -2.8868,2.0351 -1.9523,0.8492 -4.4029,0.8492 l -4.8183,0 q -1.5369,0 -2.2014,-0.4246 -0.6439,-0.40991 -0.6439,-1.06877 0,-0.67355 0.6439,-1.09815 0.6645,-0.4099 2.2014,-0.4099 l 4.6937,0 q 1.9522,0 3.0322,-0.74677 1.0799,-0.74668 1.0799,-1.88866 l 0,-1.46415 q -1.4122,0.64416 -2.8868,0.96633 -1.4538,0.32208 -2.9907,0.32208 -4.3406,0 -7.2689,-2.03509 -2.9283,-2.04979 -2.9283,-5.0513 0,-3.01612 2.9283,-5.05121 2.9283,-2.04979 7.2689,-2.04979 1.62,0 3.0737,0.33678 1.4746,0.32208 2.8038,0.99555 z m -0.02,5.75406 q 0,-1.65449 -1.7445,-2.86968 -1.7238,-1.21528 -4.1537,-1.21528 -2.43,0 -4.1744,1.21528 -1.7239,1.21519 -1.7239,2.86968 0,1.6691 1.7239,2.8843 1.7444,1.20058 4.1744,1.20058 2.4299,0 4.1537,-1.20058 1.7445,-1.2152 1.7445,-2.8843 z"
id="path4550"
style="font-style:normal;font-variant:normal;font-weight:bold;font-stretch:normal;font-size:35.71259689px;line-height:100%;font-family:'Courier New';-inkscape-font-specification:'Courier New Bold';letter-spacing:0px;word-spacing:0px;fill:#0a6b9e;fill-opacity:1;stroke:none;stroke-width:1px;stroke-opacity:1"
/>
<path
d="m 21.1750999999999,58.3452600000001 0,10.56346 q 1.3494,0 1.9929,0.43577 0.6436,0.43577 0.6436,1.11196 0,0.67611 -0.6644,1.11188 -0.6435,0.42079 -2.1798,0.42079 l -4.048,0 0,-0.70623 q -1.827,0.60099 -3.4877,0.90157 -1.6608,0.30049 -3.1555,0.30049 -2.0968,0 -3.633,-0.6311 -1.5362,-0.64608 -2.4288,-1.7731 -0.6436,-0.81138 -0.6436,-2.0285 l 0,-6.6266 -0.7266,0 q -1.5363,0 -2.2006,-0.42079 -0.6435,-0.43576 -0.6435,-1.12693 0,-0.6762 0.6435,-1.09691 0.6643,-0.43576 2.2006,-0.43576 l 4.9823,0 0,9.16598 q 0,0.97669 0.6436,1.44257 0.6642,0.45074 2.0137,0.45074 1.2871,0 2.761,-0.36064 1.4948,-0.37562 3.6746,-1.33733 l 0,-6.28093 -1.5363,0 q -1.5362,0 -2.2006,-0.42079 -0.6435,-0.43576 -0.6435,-1.12693 0,-0.6762 0.6435,-1.09691 0.6644,-0.43576 2.2006,-0.43576 l 5.792,0 z"
style="font-style:normal;font-variant:normal;font-weight:bold;font-stretch:normal;font-size:36.17159271px;line-height:100%;font-family:'Courier New';-inkscape-font-specification:'Courier New Bold';letter-spacing:0px;word-spacing:0px;fill:#ffcc00;fill-opacity:1;stroke:none;stroke-width:1px;stroke-opacity:1"
id="path4535"
/>
<path
id="path4537"
style="font-style:normal;font-variant:normal;font-weight:bold;font-stretch:normal;font-size:36.17159271px;line-height:100%;font-family:'Courier New';-inkscape-font-specification:'Courier New Bold';letter-spacing:0px;word-spacing:0px;fill:#ffcc00;fill-opacity:1;stroke:none;stroke-width:1px;stroke-opacity:1"
d="m 39.1531,52.50001 0,3.26068 -5.0654,0 0,-3.26068 5.0654,0 z m 0.5813,5.84525 0,10.56346 5.1068,0 q 1.5363,0 2.1798,0.43577 0.6643,0.42071 0.6643,1.11196 0,0.67611 -0.6643,1.11188 -0.6435,0.42079 -2.1798,0.42079 l -14.4695,0 q -1.5362,0 -2.2006,-0.42079 -0.6435,-0.43577 -0.6435,-1.12694 0,-0.67619 0.6435,-1.0969 0.6644,-0.43577 2.2006,-0.43577 l 5.1069,0 0,-7.48307 -3.4254,0 q -1.5154,0 -2.1797,-0.42079 -0.6644,-0.43576 -0.6644,-1.12693 0,-0.6762 0.6435,-1.09691 0.6644,-0.43576 2.2006,-0.43576 l 7.6812,0 z"
/>
<path
style="font-style:normal;font-variant:normal;font-weight:bold;font-stretch:normal;font-size:36.17159271px;line-height:100%;font-family:'Courier New';-inkscape-font-specification:'Courier New Bold';letter-spacing:0px;word-spacing:0px;fill:#ffcc00;fill-opacity:1;stroke:none;stroke-width:1px;stroke-opacity:1"
id="path4539"
d="m 62.2380000000001,58.3452600000001 0,1.92334 q 2.678,-1.39748 4.2143,-1.86328 1.5569,-0.4658 2.9063,-0.4658 2.0759,0 4.0275,1.11196 1.3285,0.75132 1.3285,1.53267 0,0.66114 -0.6435,1.12694 -0.6229,0.45082 -1.5155,0.45082 -0.7889,0 -1.6608,-0.57104 -0.8719,-0.57095 -1.5569,-0.57095 -0.8928,0 -2.6781,0.81138 -1.7646,0.81147 -4.4218,2.43432 l 0,4.6431 6.0619,0 q 1.5362,0 2.1797,0.43577 0.6644,0.42071 0.6644,1.11196 0,0.67611 -0.6644,1.11188 -0.6435,0.42079 -2.1797,0.42079 l -12.8503,0 q -1.5363,0 -2.2006,-0.42079 -0.6435,-0.43577 -0.6435,-1.12694 0,-0.67619 0.6435,-1.0969 0.6643,-0.43577 2.2006,-0.43577 l 2.5326,0 0,-7.48307 -1.5362,0 q -1.5362,0 -2.2005,-0.42079 -0.6435,-0.43576 -0.6435,-1.12693 0,-0.6762 0.6435,-1.09691 0.6643,-0.43576 2.2005,-0.43576 l 5.792,0 z"
/>
<path
style="font-style:normal;font-variant:normal;font-weight:bold;font-stretch:normal;font-size:36.17159271px;line-height:100%;font-family:'Courier New';-inkscape-font-specification:'Courier New Bold';letter-spacing:0px;word-spacing:0px;fill:#ffcc00;fill-opacity:1;stroke:none;stroke-width:1px;stroke-opacity:1"
id="path4541"
d="m 95.2460000000001,58.90124 q 0.7682,-0.52595 1.5779,-0.52595 0.9134,0 1.4946,0.48086 0.6021,0.4658 0.6021,1.5627 l 0,1.98349 q 0,1.11197 -0.6021,1.57776 -0.5812,0.4658 -1.5362,0.4658 -0.8719,0 -1.474,-0.36064 -0.4359,-0.27046 -0.685,-1.0969 -0.2492,-0.8415 -1.2041,-1.24715 -1.6815,-0.72129 -4.2972,-0.72129 -3.0102,0 -4.837,1.27718 -1.8062,1.27727 -1.8062,3.23073 0,1.80313 1.7439,2.85494 1.7438,1.03684 5.7919,1.03684 2.6573,0 4.3388,-0.39067 0.9965,-0.24043 1.8891,-0.81147 0.8928,-0.58601 1.6193,-0.58601 0.8719,0 1.4947,0.4658 0.6436,0.46588 0.6436,1.09698 0,1.02178 -1.9306,1.93832 -2.865,1.36745 -8.387,1.36745 -4.9616,0 -7.7227,-1.48758 -3.7367,-1.99855 -3.7367,-5.46962 0,-3.29071 3.0309,-5.43951 3.031,-2.16378 7.9095,-2.16378 1.7646,0 3.28,0.24043 1.5155,0.24043 2.8025,0.72129 z"
/>
<path
style="font-style:normal;font-variant:normal;font-weight:bold;font-stretch:normal;font-size:35.89555359px;line-height:100%;font-family:'Courier New';-inkscape-font-specification:'Courier New Bold';letter-spacing:0px;word-spacing:0px;fill:#008444;fill-opacity:1;stroke:none;stroke-width:1px;stroke-opacity:1"
id="path4525"
d="m 8.82850000000008,83.62843 0,5.94938 q 0,0.95537 0.5729,1.2593 0.8915,0.47768 3.1834,0.47768 3.332,0 6.1546,-0.96983 1.0822,-0.37635 1.6977,-0.37635 0.8489,0 1.4644,0.43425 0.6366,0.43425 0.6366,1.05671 0,0.57902 -0.6791,0.99882 -1.0399,0.68027 -4.1171,1.2593 -3.056,0.56457 -5.1571,0.56457 -4.0535,0 -6.0908,-1.18696 -2.0162,-1.20148 -2.0162,-2.93847 l 0,-6.5284 -1.5704,0 q -1.5705,0 -2.2496,-0.40526 -0.6579,-0.41979 -0.6579,-1.0857 0,-0.65137 0.6579,-1.05671 0.6791,-0.41971 2.2496,-0.41971 l 1.5704,0 0,-2.678 q 0,-1.07116 0.5943,-1.51986 0.6155,-0.46323 1.5916,-0.46323 0.955,0 1.5493,0.46323 0.6155,0.4487 0.6155,1.51986 l 0,2.678 8.0433,0 q 1.5704,0 2.2283,0.41971 0.6791,0.40534 0.6791,1.07125 0,0.65137 -0.6791,1.07116 -0.6579,0.40526 -2.2283,0.40526 l -8.0433,0 z"
/>
<path
style="font-style:normal;font-variant:normal;font-weight:bold;font-stretch:normal;font-size:35.89555359px;line-height:100%;font-family:'Courier New';-inkscape-font-specification:'Courier New Bold';letter-spacing:0px;word-spacing:0px;fill:#008444;fill-opacity:1;stroke:none;stroke-width:1px;stroke-opacity:1"
id="path4527"
d="m 30.5601999999999,92.16883 0,4.86368 2.6104,0 q 1.5704,0 2.2284,0.40534 0.679,0.4198 0.679,1.08562 0,0.65145 -0.679,1.05671 -0.658,0.4198 -2.2284,0.4198 l -7.7037,0 q -1.5705,0 -2.2496,-0.4198 -0.658,-0.40526 -0.658,-1.05671 0,-0.66582 0.6792,-1.08562 0.6791,-0.40534 2.2284,-0.40534 l 0.7427,0 0,-13.40408 -0.7427,0 q -1.5705,0 -2.2496,-0.40526 -0.658,-0.41979 -0.658,-1.0857 0,-0.65137 0.658,-1.05671 0.6791,-0.41971 2.2496,-0.41971 l 5.0933,0 0,1.01327 q 1.528,-0.70935 3.1621,-1.05671 1.6342,-0.34745 3.3532,-0.34745 4.4567,0 7.5976,2.06998 3.1409,2.05553 3.1409,4.7189 0,2.93856 -3.7139,4.84923 -3.0985,1.59229 -6.9821,1.59229 -1.6766,0 -3.3108,-0.33291 -1.6341,-0.33291 -3.247,-0.99882 z m 12.9033,-5.09525 q 0,-0.62247 -0.7217,-1.57784 -0.7215,-0.96983 -2.2283,-1.60675 -1.4855,-0.65137 -3.5017,-0.65137 -3.247,0 -5.1571,1.66464 -1.2945,1.14351 -1.2945,2.20022 0,1.18704 1.8463,2.3161 1.8676,1.1146 4.6053,1.1146 2.7589,0 4.6053,-1.1146 1.8464,-1.11461 1.8464,-2.345 z"
/>
<path
d="m 65.9380000000001,93.80457 0,-0.69481 q -1.6342,0.59347 -3.6078,0.88294 -1.9737,0.30401 -3.5866,0.30401 -3.5017,0 -5.6877,-1.2593 -2.1859,-1.27383 -2.1859,-2.80823 0,-1.86731 2.7802,-3.45961 2.8014,-1.60674 7.725,-1.60674 1.9737,0 4.5628,0.28947 l 0,-0.70927 q 0,-0.66582 -0.8489,-1.08561 -0.8278,-0.4198 -3.1834,-0.4198 -1.9312,0 -5.0085,0.52113 -1.146,0.18814 -1.7826,0.18814 -0.8702,0 -1.4856,-0.4198 -0.5943,-0.43424 -0.5943,-1.10007 0,-0.37635 0.2123,-0.65145 0.2121,-0.27502 0.5942,-0.43425 0.382,-0.17368 1.5917,-0.40525 1.6128,-0.30401 3.2895,-0.47769 1.6765,-0.18822 3.0347,-0.18822 4.0535,0 6.2819,1.20149 2.2495,1.18695 2.2495,3.25693 l 0,6.10853 0.7428,0 q 1.5705,0 2.2283,0.41979 0.6792,0.40534 0.6792,1.07116 0,0.65137 -0.6792,1.07117 -0.6578,0.40534 -2.2283,0.40534 l -5.0933,0 z m 0,-5.31246 q -2.6103,-0.34737 -4.8176,-0.34737 -2.6528,0 -4.5627,0.88295 -1.1885,0.56457 -1.1885,1.14359 0,0.4198 0.573,0.68036 1.0612,0.47761 2.9074,0.47761 1.5705,0 3.5443,-0.41971 1.9948,-0.4198 3.5441,-1.1436 l 0,-1.27383 z"
id="path4529"
style="font-style:normal;font-variant:normal;font-weight:bold;font-stretch:normal;font-size:35.89555359px;line-height:100%;font-family:'Courier New';-inkscape-font-specification:'Courier New Bold';letter-spacing:0px;word-spacing:0px;fill:#008444;fill-opacity:1;stroke:none;stroke-width:1px;stroke-opacity:1"
/>
<path
d="m 91.9991,93.80457 0,-0.69481 q -1.6342,0.59347 -3.6078,0.88294 -1.9737,0.30401 -3.5866,0.30401 -3.5017,0 -5.6877,-1.2593 -2.1859,-1.27383 -2.1859,-2.80823 0,-1.86731 2.7802,-3.45961 2.8014,-1.60674 7.725,-1.60674 1.9737,0 4.5628,0.28947 l 0,-0.70927 q 0,-0.66582 -0.8489,-1.08561 -0.8276,-0.4198 -3.1834,-0.4198 -1.9312,0 -5.0085,0.52113 -1.1459,0.18814 -1.7826,0.18814 -0.8701,0 -1.4856,-0.4198 -0.5942,-0.43424 -0.5942,-1.10007 0,-0.37635 0.2122,-0.65145 0.2121,-0.27502 0.5942,-0.43425 0.382,-0.17368 1.5917,-0.40525 1.6129,-0.30401 3.2895,-0.47769 1.6765,-0.18822 3.0348,-0.18822 4.0534,0 6.2818,1.20149 2.2496,1.18695 2.2496,3.25693 l 0,6.10853 0.7428,0 q 1.5704,0 2.2284,0.41979 0.679,0.40534 0.679,1.07116 0,0.65137 -0.679,1.07117 -0.658,0.40534 -2.2284,0.40534 l -5.0934,0 z m 0,-5.31246 q -2.6103,-0.34737 -4.8176,-0.34737 -2.6526,0 -4.5627,0.88295 -1.1885,0.56457 -1.1885,1.14359 0,0.4198 0.573,0.68036 1.0612,0.47761 2.9075,0.47761 1.5704,0 3.5442,-0.41971 1.9948,-0.4198 3.5441,-1.1436 l 0,-1.27383 z"
style="font-style:normal;font-variant:normal;font-weight:bold;font-stretch:normal;font-size:35.89555359px;line-height:100%;font-family:'Courier New';-inkscape-font-specification:'Courier New Bold';letter-spacing:0px;word-spacing:0px;fill:#008444;fill-opacity:1;stroke:none;stroke-width:1px;stroke-opacity:1"
id="path4532"
/>
</svg>
