<?xml version="1.0" encoding="UTF-8" standalone="no"?>
<svg
xmlns:cc="http://creativecommons.org/ns#"
xmlns:svg="http://www.w3.org/2000/svg"
xmlns="http://www.w3.org/2000/svg"
xmlns:rdf="http://www.w3.org/1999/02/22-rdf-syntax-ns#"
xmlns:dc="http://purl.org/dc/elements/1.1/"
xmlns:sodipodi="http://sodipodi.sourceforge.net/DTD/sodipodi-0.dtd"
xmlns:inkscape="http://www.inkscape.org/namespaces/inkscape"
>
<circle
r="49"
cx="50"
cy="50"
id="circle4539"
style="fill:#000000"
/>
<path
style="fill:#008751;fill-opacity:1;stroke:#c0c0c0;stroke-width:0.80220228;stroke-opacity:1"
id="path4543"
d="m 50.40111,0.401100000000042 0,13.2751 c 19.81579,0.055 35.86767,16.1069 35.92271,35.9227 l 13.27509,0 c -3e-5,-27.172 -22.02576,-49.1978 -49.1978,-49.1978 z m 35.92271,49.1978 0,0.1016 c -3e-5,-0.034 6e-5,-0.067 0,-0.1016 z"
/>
<path
id="path4545"
style="fill:#ef6b00;fill-opacity:1;stroke:#c0c0c0;stroke-width:0.8062191;stroke-opacity:1"
d="m 99.5969,49.9031 -13.27403,0 c -0.0552,20.0156 -16.10555,36.2292 -35.91975,36.2847 l 0,13.4091 c 27.16981,-10e-5 49.19378,-22.2477 49.19378,-49.6938 z m -49.19378,36.2847 -0.10163,0 c 0.0341,0 0.0675,10e-5 0.10163,0 z"
/>
<path
d="m 50.09488,99.5949000000001 0,-13.408 c -20.01396,-0.055 -36.22636,-16.268 -36.28193,-36.2823 l -13.40783,0 c 10e-6,27.4439 22.24602,49.6903 49.68976,49.6903 z m -36.28193,-49.6903 0,-0.1026 c 2e-5,0.035 -4e-5,0.067 0,0.1026 z"
id="path4549"
style="fill:#0054a0;fill-opacity:1;stroke:#c0c0c0;stroke-width:0.81024092;stroke-opacity:1"
/>
<path
style="fill:#fcd116;fill-opacity:1;stroke:#c0c0c0;stroke-width:0.80621928;stroke-opacity:1"
id="path4551"
d="m 0.403120000000001,49.5969 13.40893,0 c 0.0554,-19.8142 16.26926,-35.8648 36.28485,-35.9198 l 0,-13.274 c -27.44598,0 -49.69378,22.024 -49.69378,49.1938 z m 49.69378,-35.9198 0.10243,0 c -0.0344,0 -0.0682,0 -0.10243,0 z"
/>
<path
style="fill:#c0c0c0;fill-opacity:1"
id="path4116-2"
d="m 22.54793,71.4550999999999 c 0.0294,-0.2623 0.61916,-0.365 2.58995,-0.4513 0.70177,-0.031 2.08968,-0.1061 3.08424,-0.1674 0.99456,-0.061 2.02907,-0.1155 2.29893,-0.1202 0.26986,0 1.17524,-0.018 2.01197,-0.03 0.83673,-0.012 1.56276,-0.053 1.61341,-0.092 0.23048,-0.1787 -8.85085,-0.4892 -12.10993,-0.414 -0.81008,0.019 -1.30096,-0.033 -1.39491,-0.1475 -0.23833,-0.29 0.11793,-0.3504 2.23291,-0.3783 1.09681,-0.014 2.07327,-0.086 2.16991,-0.1592 0.0966,-0.073 0.33753,-0.1147 0.5353,-0.092 0.19778,0.022 0.60802,-0.014 0.91165,-0.08 0.4465,-0.097 0.51971,-0.1683 0.38288,-0.3705 -0.10346,-0.1529 -0.24794,-0.2027 -0.37198,-0.1281 -0.30978,0.1863 -1.94531,0.1661 -2.03878,-0.025 -0.13373,-0.2736 0.30579,-0.3729 1.1665,-0.2633 0.80809,0.1028 0.80973,0.1019 0.50042,-0.2485 -0.33144,-0.3756 -0.32493,-1.3087 0.0138,-1.9788 0.10025,-0.1984 0.20633,-0.9875 0.23574,-1.7537 0.10617,-2.7658 0.80041,-3.5718 5.66379,-6.5758 1.06183,-0.6558 1.5338,-1.0702 1.97142,-1.7307 0.31646,-0.4777 1.01715,-1.2419 1.55709,-1.6982 0.73692,-0.6229 0.99559,-0.9536 1.03732,-1.3263 0.0729,-0.6507 0.74896,-2.5184 1.0933,-3.0202 0.27622,-0.4025 1.30308,-1.1839 4.32087,-3.2881 0.93283,-0.6504 1.83693,-1.3882 2.00912,-1.6397 0.38057,-0.5557 1.97316,-3.395 1.99033,-3.5484 0.007,-0.06 -0.14673,-0.1698 -0.3411,-0.2431 -0.43163,-0.1629 -2.12176,0.65 -4.68032,2.251 -0.61753,0.3864 -1.42658,0.8773 -1.79791,1.0908 -0.58221,0.3348 -2.01225,1.689 -2.03937,1.9311 -0.005,0.045 -0.18524,0.3769 -0.40033,0.7365 -0.60787,1.0163 -1.6393,3.4262 -1.68108,3.9277 -0.0253,0.303 -0.17601,0.5196 -0.45771,0.6575 -0.35558,0.1742 -1.94167,1.5073 -3.37117,2.8335 -1.63163,1.5137 -3.64853,4.3513 -4.91956,6.9214 -0.86058,1.7401 -1.80452,3.318 -2.14096,3.5789 -1.0374,0.8045 -0.51551,-1.9851 0.90886,-4.858 0.25209,-0.5084 0.43166,-0.9569 0.39904,-0.9966 -0.0852,-0.1037 -2.48639,3.0843 -3.80114,5.0466 -0.60641,0.905 -0.90646,1.2153 -1.14883,1.1881 -0.26182,-0.029 -0.32478,-0.1694 -0.31189,-0.6934 0.029,-1.178 0.57319,-2.4153 2.34483,-5.3313 0.53065,-0.8734 0.53911,-0.9078 0.15785,-0.6414 -0.22157,0.1548 -0.83587,0.6961 -1.36511,1.2029 -1.40097,1.3414 -1.76429,1.1727 -0.9165,-0.4254 0.99359,-1.873 2.00068,-3.1305 4.179,-5.2178 1.07483,-1.0299 1.52069,-1.3412 5.22382,-3.647 1.88988,-1.1767 1.65477,-0.8039 2.8612,-4.5363 0.90126,-2.7882 1.90296,-4.2171 5.02729,-7.1714 1.13406,-1.0723 1.17305,-1.1351 1.38444,-2.2311 0.27557,-1.4289 0.95132,-2.918 1.83307,-4.0395 0.3788,-0.4818 0.66676,-0.9679 0.63991,-1.0803 -0.25305,-1.0589 0.24852,-2.4 1.14573,-3.0633 0.7763,-0.5739 2.53126,-1.2259 3.40473,-1.2649 0.54793,-0.024 1.07073,-0.3009 2.69899,-1.4273 2.22687,-1.5405 4.01569,-2.3129 5.07944,-2.1934 0.60093,0.068 0.66632,0.024 1.33395,-0.8789 1.22803,-1.6615 4.20513,-3.6014 5.33265,-3.4747 0.71508,0.08 1.28326,0.37 1.68507,0.8591 l 0.32015,0.3897 0.90776,-0.3135 c 0.80052,-0.2764 1.00426,-0.2846 1.72464,-0.07 0.44929,0.134 0.89465,0.3731 0.98968,0.5314 0.13282,0.2212 0.51157,0.3354 1.63766,0.4935 1.72665,0.2425 3.28454,0.7954 4.15595,1.4749 0.90579,0.7062 1.89182,2.0067 2.27695,3.003 0.40846,1.0567 0.24059,2.182 -0.43044,2.8855 -0.23667,0.2481 -0.49265,0.6775 -0.56884,0.9543 -0.35545,1.2911 -2.10082,2.5123 -4.46527,3.1242 -0.43151,0.1117 -1.14505,0.3608 -1.58565,0.5537 l -0.80108,0.3506 0.99403,0.1939 c 1.02988,0.201 1.77557,0.166 4.03724,-0.1897 1.49118,-0.2346 3.68832,-0.019 3.77389,0.3707 0.0294,0.1338 -0.5506,0.4021 -1.54798,0.7162 -0.87724,0.2762 -1.60089,0.555 -1.60812,0.6195 -0.007,0.064 0.20332,0.2339 0.46786,0.3766 0.52858,0.2852 0.72502,0.9355 0.38012,1.2584 -0.11783,0.1104 -0.63008,0.1875 -1.13833,0.1716 -0.50825,-0.016 -0.96464,0 -1.0142,0.041 -0.0496,0.038 0.0261,0.3684 0.16822,0.7332 0.30796,0.7908 0.0744,1.1654 -0.57757,0.9265 -0.28135,-0.1031 -0.50132,-0.061 -0.747,0.1442 -0.30043,0.2505 -0.42024,0.2577 -0.87297,0.052 -0.28862,-0.1309 -0.75535,-0.4575 -1.03719,-0.7256 -0.98517,-0.9372 -1.32383,-1.1396 -2.23598,-1.3364 -0.50539,-0.109 -1.17207,-0.2588 -1.48152,-0.333 -0.50582,-0.1211 -0.66758,-0.052 -1.60214,0.6889 -2.25123,1.7838 -4.82303,3.2562 -6.78782,3.8863 -1.07111,0.3436 -1.51174,0.5657 -1.53507,0.7739 -0.0446,0.3988 -2.73236,2.7597 -4.06739,3.5729 -1.47406,0.8979 -4.72992,2.5544 -6.28905,3.1998 -1.32297,0.5475 -2.05813,1.1015 -2.60943,1.9661 -0.17659,0.277 -0.38237,0.4967 -0.4573,0.4883 -0.0749,-0.01 -0.1488,0.097 -0.16417,0.2342 -0.0215,0.192 0.0472,0.2206 0.29784,0.124 0.46755,-0.1803 1.7194,-0.4586 2.71862,-0.6045 1.77784,-0.2595 5.55479,-0.1348 6.57815,0.2172 0.17931,0.062 0.68224,0.2051 1.11761,0.3187 0.43538,0.1137 1.03751,0.4117 1.33807,0.6623 0.51371,0.4283 0.606,0.4511 1.53895,0.379 1.53801,-0.1189 3.67352,0.5816 4.71857,1.5476 l 0.77953,0.7207 0.57926,-0.2388 c 1.40944,-0.5811 4.16023,-0.4037 4.96764,0.3202 0.59683,0.5351 0.89101,1.4241 0.78511,2.3725 -0.0838,0.7499 -0.0491,0.8494 0.41436,1.1895 1.50194,1.1023 2.64122,3.1178 2.79688,4.9478 0.0726,0.8532 0.0281,1.1563 -0.274,1.8666 -0.39245,0.9228 -1.47051,2.0261 -2.08818,2.137 -0.7552,0.1356 -0.90029,0.334 -0.50974,0.6968 0.44066,0.4094 0.21479,0.7861 -0.62824,1.0477 -0.63607,0.1975 -0.67847,0.5273 -0.0699,0.5437 2.02079,0.055 3.85231,0.2171 3.83844,0.341 -0.009,0.082 -0.98586,0.1298 -2.17046,0.1068 -1.1846,-0.023 -2.68797,-0.034 -3.34082,-0.024 -0.65285,0.01 -1.91039,0.014 -2.79452,0.01 -4.02494,-0.017 -4.89565,-0.014 -5.96928,0.02 -0.63045,0.02 -1.19605,0.099 -1.2569,0.1744 -0.0608,0.076 -0.47886,0.096 -0.92893,0.045 l -0.81831,-0.092 0.23055,0.5165 c 0.32854,0.7362 0.022,1.0492 -1.03225,1.0544 -1.5533,0.01 -4.3766,-0.027 -6.40698,-0.078 -3.89154,-0.098 -5.60782,-0.091 -9.9117,0.036 -0.51603,0.015 -1.24599,0.071 -1.62212,0.1235 -2.45301,0.3437 -2.63203,0.3338 -2.38526,-0.1317 0.0645,-0.1217 0.48923,-0.2584 0.94373,-0.3037 1.36778,-0.1364 4.71835,-0.3655 5.1718,-0.3537 0.23316,0.01 0.91968,0.01 1.52561,-2e-4 0.60592,-0.01 1.15684,0.01 1.22426,0.033 0.0674,0.024 0.82952,0.022 1.69357,-0.01 0.86406,-0.028 1.75971,-0.034 1.99034,-0.015 0.23064,0.019 1.23488,0.043 2.23167,0.053 0.99679,0.01 1.97896,0.083 2.1826,0.1627 0.29665,0.1158 0.32,0.1053 0.11746,-0.053 -0.13904,-0.1086 -0.46699,-0.2413 -0.72879,-0.2949 -0.79788,-0.1635 -6.50334,-0.3453 -8.5824,-0.2735 -0.56083,0.019 -1.63086,0.05 -2.37783,0.069 -2.64575,0.066 -6.33515,0.2216 -8.59,0.363 -0.6095,0.038 -1.29901,0.072 -1.53223,0.075 -0.23323,0 -1.1048,0.043 -1.93683,0.09 -1.84465,0.1035 -1.80951,0.1072 -1.77676,-0.1853 z"
/>
<path
id="path4291-4"
style="fill:#008800;fill-opacity:1"
d="m 21.22532,64.4280000000001 c 0.40063,-0.921 4.13726,-5.7147 5.83967,-7.4916 0.33279,-0.3474 0.70913,-0.6199 0.83633,-0.6056 0.12719,0.014 0.22703,0.064 0.22186,0.1099 -0.005,0.046 -0.43203,0.7575 -0.94857,1.5806 -1.22214,1.9476 -2.35847,4.3754 -2.61547,5.5879 l -0.20444,0.9647 0.50588,-1.0131 c 0.27823,-0.5572 0.85175,-1.721 1.27447,-2.5863 0.79297,-1.6231 2.02373,-3.5005 3.31564,-5.0577 0.83435,-1.0056 3.42397,-3.3954 4.27694,-3.9468 0.30884,-0.1997 0.64834,-0.5919 0.75446,-0.8714 0.4308,-1.1351 1.20472,-2.9167 1.61715,-3.7228 0.97363,-1.9028 2.35059,-3.0295 6.40083,-5.2372 2.07141,-1.1291 2.07836,-1.1349 1.73574,-1.4506 -0.31963,-0.2946 -0.32156,-0.3226 -0.0273,-0.3963 0.17418,-0.044 0.73008,0.09 1.23532,0.2971 1.45211,0.5949 2.9522,0.9048 4.42088,0.9132 1.73922,0.01 2.42173,-0.023 3.03945,-0.1465 0.27614,-0.055 0.65142,-0.084 0.83395,-0.063 0.59008,0.066 3.50735,-1.0405 4.74728,-1.8011 0.66324,-0.4068 1.72903,-1.0635 2.36842,-1.4591 0.63939,-0.3957 1.50375,-1.1023 1.92078,-1.5702 0.67999,-0.7629 0.76772,-0.814 0.84992,-0.4947 0.0758,0.2942 0.23152,0.3717 0.89787,0.4466 1.3262,0.149 2.62613,0.7283 3.46808,1.5456 0.85955,0.8343 1.21724,0.9711 1.13545,0.4343 -0.0454,-0.2981 9.9e-4,-0.3319 0.29374,-0.2139 1.18928,0.4792 1.13213,0.5173 0.73074,-0.4862 -0.34747,-0.8687 -0.19068,-0.9919 1.08457,-0.8523 0.80678,0.088 1.26068,-0.065 1.02885,-0.3469 -0.0542,-0.066 -0.48465,-0.202 -0.95654,-0.3022 -1.14601,-0.2436 -1.07277,-0.5268 0.24231,-0.9372 0.5789,-0.1806 1.29205,-0.4263 1.58479,-0.5459 l 0.53224,-0.2175 -0.45718,-0.058 c -0.25145,-0.032 -1.02709,0.027 -1.72364,0.1319 -1.26717,0.19 -4.94438,0.1359 -5.51957,-0.081 -0.17768,-0.067 -0.4836,0.014 -0.73178,0.1931 -0.59117,0.4274 -2.13823,1.0575 -3.21299,1.3087 -1.14298,0.2671 -2.22347,0.141 -3.08351,-0.36 -0.81774,-0.4763 -0.88886,-0.8546 -0.10609,-0.5643 0.29055,0.1077 1.01496,0.236 1.60979,0.2852 1.32927,0.1098 2.82904,-0.3706 5.09785,-1.633 0.84203,-0.4685 2.24233,-1.0677 3.11178,-1.3316 0.86945,-0.2639 1.86503,-0.6367 2.21239,-0.8284 0.60014,-0.3313 1.64784,-1.109 1.66179,-1.2336 0.004,-0.032 -0.44955,0.1028 -1.00699,0.2996 -0.55742,0.1967 -1.3605,0.3951 -1.78462,0.4407 -0.9792,0.1053 -4.39257,-0.2657 -5.16559,-0.5614 -0.32286,-0.1236 -1.05509,-0.3886 -1.62717,-0.589 -0.57208,-0.2004 -1.1731,-0.5107 -1.3356,-0.6895 -0.28433,-0.313 -0.30884,-0.3124 -0.6514,0.016 -0.36033,0.3457 -0.69721,0.2809 -0.65171,-0.1254 0.0338,-0.3015 1.13705,-1.1394 1.36371,-1.0356 0.10007,0.046 0.16237,0.258 0.13844,0.4717 -0.0353,0.3153 0.0645,0.421 0.5297,0.561 0.31527,0.095 1.16186,0.3583 1.88133,0.5853 3.05284,0.9633 6.31778,0.8876 7.94803,-0.1843 1.62051,-1.0655 2.08,-2.2596 1.39007,-3.6122 -1.4641,-2.8703 -4.48495,-4.132 -9.05946,-3.7839 -0.74766,0.057 -0.95647,0.021 -1.13231,-0.1927 -0.22208,-0.2703 0.0308,-0.3419 1.77153,-0.5015 0.38876,-0.036 0.45262,-0.087 0.27884,-0.2223 -0.70877,-0.5538 -2.54526,-0.046 -2.787,0.7703 -0.19469,0.6576 -0.44379,0.5605 -0.6106,-0.238 -0.0775,-0.3708 -0.28354,-0.8199 -0.45794,-0.9979 -0.4652,-0.4749 -1.4338,-0.5281 -2.17412,-0.1195 -2.01221,1.1107 -3.76373,2.7023 -3.85324,3.5016 -0.0383,0.3416 -0.27952,0.4048 -1.99303,0.5224 -0.83042,0.057 -1.37291,0.2244 -2.23576,0.6899 -0.62661,0.3381 -1.14282,0.6462 -1.14714,0.6848 -0.004,0.038 0.18638,0.045 0.42378,0.015 1.38096,-0.177 0.99655,1.6832 -0.42018,2.0333 -0.24361,0.06 -0.50722,0.06 -0.58579,2e-4 -0.19342,-0.1479 -0.0285,-1.5132 0.19513,-1.6156 0.0982,-0.045 0.18553,-0.1449 0.19419,-0.2222 0.009,-0.077 -0.5476,0.2979 -1.23613,0.8339 -1.01616,0.791 -1.41363,0.9957 -2.11095,1.0871 -1.77694,0.2329 -3.31824,0.9684 -3.94389,1.882 -0.41404,0.6047 -0.49965,1.7201 -0.18258,2.379 0.31782,0.6604 1.77766,1.5892 4.37093,2.781 0.96503,0.4434 1.83496,0.9283 1.9332,1.0774 0.46479,0.7056 1.63656,1.2719 2.01867,0.9756 0.065,-0.05 -0.0118,-0.3183 -0.17059,-0.5953 -0.27065,-0.4722 -0.26973,-0.5012 0.0146,-0.4638 0.16683,0.022 0.4797,0.1656 0.69528,0.3192 0.54137,0.3858 1.80299,0.529 1.83885,0.2088 0.0149,-0.1329 -0.22428,-0.3782 -0.53148,-0.5451 -0.77088,-0.4189 -0.67858,-0.759 0.21619,-0.7967 0.84495,-0.035 1.57983,-0.3493 1.44833,-0.6183 -0.0592,-0.1211 -0.45996,-0.1937 -1.1253,-0.2038 -1.04164,-0.016 -1.66651,-0.2579 -1.31522,-0.5095 0.10038,-0.072 0.58705,-0.21 1.08147,-0.3069 1.22973,-0.2412 1.86681,-0.6349 1.69609,-1.0484 -0.19731,-0.4778 -0.91537,-0.7492 -1.63318,-0.6172 -0.83309,0.1532 -2.63331,0.9897 -2.66718,1.2394 -0.0415,0.3056 -0.39019,0.2064 -1.24839,-0.355 -0.42679,-0.2791 -1.2116,-0.6994 -1.74401,-0.9339 -1.10069,-0.4847 -1.99161,-1.1123 -1.96144,-1.3816 0.0117,-0.1046 0.13617,-0.1237 0.29203,-0.045 0.14939,0.076 0.6392,0.2937 1.08847,0.4845 1.24568,0.5291 2.49553,1.187 2.57881,1.3573 0.14457,0.2959 0.56587,0.2004 1.85232,-0.4198 1.14831,-0.5536 1.40975,-0.615 2.25029,-0.529 0.83089,0.085 1.00906,0.1649 1.4105,0.6324 0.5739,0.6683 0.54092,1.3171 -0.0861,1.6939 l -0.44582,0.2679 0.39028,0.2281 c 0.74469,0.4351 0.1646,1.4357 -0.95559,1.6481 -0.30296,0.058 -0.30765,0.087 -0.0921,0.5694 0.3455,0.7742 0.0207,1.0562 -1.1369,0.9868 -0.66465,-0.04 -1.02519,0.026 -1.26169,0.2286 -0.64346,0.5525 -1.77138,0.1532 -2.78861,-0.9872 -0.35474,-0.3977 -0.81585,-0.7431 -1.0247,-0.7675 -0.93344,-0.1093 -4.13335,-1.761 -4.96213,-2.5613 -0.32429,-0.3132 -0.61373,-0.5447 -0.64321,-0.5145 -0.7711,0.7909 -1.9674,3.0138 -2.05819,3.8244 -0.0597,0.5327 -0.0596,0.5327 0.39372,0.3107 0.47809,-0.2341 0.71882,-0.142 0.49919,0.191 -0.17894,0.2713 -0.96125,1.0697 -2.31399,2.3617 -3.59289,3.4315 -4.24131,4.4425 -5.64852,8.8077 -0.30981,0.9611 -0.6226,1.8297 -0.69508,1.9303 -0.0725,0.1006 -0.5835,0.4506 -1.13556,0.7777 -2.90506,1.7214 -5.62595,3.6781 -6.79384,4.8857 -0.86853,0.898 -2.75282,3.272 -2.67361,3.3684 0.0311,0.038 1.11957,-0.7817 2.41888,-1.8212 1.29932,-1.0395 2.47336,-1.8775 2.609,-1.8622 0.3396,0.038 0.16322,0.3167 -0.84335,1.3319 -1.2177,1.2281 -2.72448,3.1838 -3.45697,4.4869 -0.69533,1.237 -1.45642,3.2458 -1.23898,3.2703 0.0767,0.01 0.20849,-0.1433 0.29297,-0.3375 z"
/>
<path
d="m 58.1916,25.4002 c -0.41332,-0.4233 -0.45615,-0.5779 -0.37098,-1.3384 0.1624,-1.4501 0.84935,-2.4028 2.04637,-2.8381 0.88731,-0.3227 1.11959,-0.2697 1.65081,0.3769 0.42811,0.5211 0.44385,0.6101 0.26253,1.4842 -0.22302,1.0752 -0.58133,1.6584 -1.46714,2.3878 -0.78253,0.6444 -1.44386,0.6219 -2.12159,-0.072 z"
id="path4301-5"
style="fill:#c0c0c0;fill-opacity:1"
/>
<path
style="fill:#005500;fill-opacity:1"
id="path4263-5"
d="m 33.24169,68.9354000000001 c 1.83858,0.2112 3.97616,0.5114 4.75018,0.667 1.54115,0.31 6.02953,0.5809 6.05367,0.3653 0.008,-0.074 -0.041,-0.1441 -0.10953,-0.1557 -0.0685,-0.012 -0.45462,-0.1355 -0.85798,-0.2752 -0.40335,-0.1397 -2.00087,-0.4456 -3.55004,-0.6797 -2.01633,-0.3048 -2.8298,-0.4855 -2.86289,-0.6357 -0.0647,-0.2939 0.58534,-0.4205 1.95568,-0.3809 0.64509,0.019 1.63251,0.012 2.19426,-0.016 0.56175,-0.027 2.07552,0.061 3.36394,0.1959 2.82968,0.297 3.8623,0.2173 1.80463,-0.1393 -1.57124,-0.2723 -6.70405,-0.6549 -7.45721,-0.5559 -0.41497,0.055 -0.47554,0.02 -0.39773,-0.2251 0.10653,-0.3359 0.99553,-0.4733 3.33306,-0.5151 2.42364,-0.043 4.55102,-0.1459 4.65216,-0.2243 0.26525,-0.2057 -4.27063,-0.5248 -7.86629,-0.5534 -0.93543,-0.01 -3.93062,0.4626 -4.9112,0.7707 -0.68577,0.2155 -2.34324,0.6347 -2.45842,0.6218 -0.0493,-0.01 -0.0526,-0.1213 -0.007,-0.2572 0.10697,-0.3207 2.67686,-1.101 5.11854,-1.5542 2.42227,-0.4496 4.46026,-1.3517 6.3714,-2.8203 1.67924,-1.2905 2.04491,-1.9365 1.90637,-3.3678 -0.0464,-0.4795 -0.19962,-1.0707 -0.34048,-1.3137 -0.79221,-1.367 -5.51859,-1.7509 -7.14734,-0.5805 -0.4315,0.3101 -0.5354,0.3284 -0.64071,0.1129 -0.32991,-0.675 1.28601,-1.2929 3.65888,-1.3991 1.13718,-0.051 1.5955,7e-4 2.63946,0.2966 1.52012,0.4317 2.14819,0.9081 2.54075,1.9275 0.65294,1.6954 -0.1638,3.8658 -1.9604,5.2096 -0.46914,0.3509 -0.85926,0.694 -0.86693,0.7626 -0.0124,0.1103 0.80195,0.7184 0.99036,0.7396 0.0403,0 0.0763,-0.1131 0.08,-0.2614 0.0108,-0.4348 0.34971,-0.3885 0.7902,0.1081 0.2253,0.2539 0.43457,0.4645 0.46506,0.4679 0.0305,0 -0.0184,-0.3103 -0.10854,-0.6972 -0.17584,-0.7544 -0.0736,-1.5454 0.19576,-1.5151 0.0907,0.01 0.17267,0.1675 0.18217,0.3497 0.009,0.1821 0.12672,0.7242 0.2605,1.2047 l 0.24323,0.8736 1.07516,0.2355 c 0.59134,0.1295 1.10823,0.2098 1.14864,0.1785 0.0404,-0.031 0.0383,-0.5105 -0.005,-1.0648 -0.0789,-1.0173 0.0448,-1.5282 0.36141,-1.4926 0.0948,0.011 0.14909,0.2279 0.12054,0.4828 -0.0498,0.4444 0.0433,1.0642 0.31278,2.0835 0.20312,0.7683 0.9932,1.0992 2.81505,1.1791 1.47343,0.065 1.5572,0.087 1.97263,0.5259 0.38037,0.4018 0.4035,0.4965 0.18757,0.768 -0.13547,0.1704 -0.24844,0.329 -0.25106,0.3526 -0.003,0.024 1.59459,0.2171 3.54933,0.4301 3.21966,0.3509 3.66637,0.3649 4.7475,0.1492 0.65638,-0.1309 1.63921,-0.4594 2.18408,-0.7301 l 0.99067,-0.4921 -3.97726,-0.6424 c -4.45446,-0.7194 -5.20136,-0.9209 -6.55973,-1.7695 -1.35366,-0.8456 -2.00917,-1.5749 -2.65113,-2.9497 -0.30916,-0.662 -0.60512,-1.2085 -0.65768,-1.2144 -0.0526,-0.01 -0.28534,0.1271 -0.51729,0.2957 -0.37502,0.2725 -0.43013,0.2754 -0.49754,0.026 -0.11385,-0.4206 0.10601,-0.7149 0.75623,-1.0123 0.6269,-0.2867 1.52344,-0.2074 1.59928,0.1414 0.0252,0.1161 -0.11683,0.2498 -0.31571,0.2971 -0.35073,0.083 -0.3472,0.1127 0.11775,0.9757 0.62713,1.1642 1.73192,2.3449 2.77001,2.9604 0.5378,0.3189 1.46238,0.6428 2.60645,0.913 2.49966,0.5906 7.54367,1.3115 8.35337,1.1939 1.61131,-0.234 2.70975,-1.3428 2.88558,-2.9128 0.14528,-1.2972 -0.71748,-3.3673 -1.83176,-4.3949 -0.95801,-0.8835 -3.27725,-2.4874 -3.66597,-2.5352 -0.14315,-0.018 -0.39407,-0.1581 -0.55754,-0.3124 -0.29139,-0.2749 -0.28856,-0.286 0.14431,-0.5675 0.34309,-0.2231 0.6285,-0.2552 1.28014,-0.1441 0.74399,0.1269 0.8747,0.2102 1.15856,0.7382 l 0.31996,0.5953 0.0505,-0.4713 c 0.0925,-0.864 -0.061,-1.2338 -0.67657,-1.6304 -0.74979,-0.483 -2.20262,-0.6716 -3.4853,-0.4524 -1.0631,0.1816 -1.31229,0.3427 -1.37334,0.8878 -0.065,0.5805 -0.40651,0.549 -0.58728,-0.054 -0.34724,-1.1586 -2.19884,-2.3849 -3.88758,-2.5747 -1.01006,-0.1135 -2.80369,0.4874 -3.77588,1.2649 -0.42572,0.3405 -0.72318,0.4775 -0.78079,0.3596 -0.1893,-0.3873 0.20055,-0.9139 0.99698,-1.3467 0.84171,-0.4574 0.94173,-0.7366 0.29009,-0.8098 -0.204,-0.023 -0.50945,-0.1606 -0.67878,-0.3061 -0.16933,-0.1454 -0.86551,-0.421 -1.54708,-0.6125 -1.04873,-0.2945 -1.56307,-0.3441 -3.34619,-0.3226 -2.45181,0.029 -4.06729,0.321 -6.62196,1.1949 -1.58626,0.5426 -2.02986,0.7836 -3.20533,1.7418 -0.75035,0.6117 -1.66476,1.5418 -2.03201,2.067 -0.50828,0.7269 -0.9794,1.1433 -1.97287,1.7438 -4.2967,2.5969 -5.25831,3.5868 -5.48948,5.6509 l -0.13442,1.2003 1.00087,-0.6881 c 0.93326,-0.6416 3.47915,-1.8666 4.01142,-1.9301 0.12976,-0.015 0.25771,0.056 0.28433,0.159 0.0266,0.103 -0.65219,0.5447 -1.50845,0.9817 -0.85627,0.4369 -1.90916,1.0335 -2.33976,1.3256 -0.89369,0.6063 -1.9707,1.7922 -2.01896,2.2231 -0.0394,0.352 0.52304,1.0281 0.79972,0.9612 0.10913,-0.026 0.53029,0.05 0.93589,0.1695 0.40561,0.1195 0.97037,0.1785 1.25502,0.1311 0.28465,-0.047 2.02183,0.087 3.86042,0.2978 z"
/>
<path
d="m 53.46693,59.9758999999999 c -0.73716,-0.343 -1.42949,-1.5547 -1.32201,-2.3137 0.16452,-1.1618 1.79061,-2.4466 3.39851,-2.6852 1.69765,-0.252 2.64659,0.5546 2.47326,2.1023 -0.17593,1.571 -2.39427,3.4158 -3.82696,3.1827 -0.0914,-0.015 -0.4167,-0.1436 -0.7228,-0.2861 z"
id="path4265-1"
style="fill:#c0c0c0;fill-opacity:1"
/>
<path
id="path4323-7"
style="fill:#c0c0c0;fill-opacity:1"
d="m 20.15653,51.4690000000001 c 1.4574,-4.7095 4.45756,-10.0809 8.35953,-14.9667 2.78283,-3.4845 8.16392,-8.1255 11.4081,-9.8391 0.84037,-0.4439 1.61008,-0.8602 1.71048,-0.9253 0.23111,-0.1497 3.26663,-1.4048 3.36964,-1.3933 0.0421,0 0.5209,-0.132 1.0639,-0.3039 1.49699,-0.474 5.14498,-0.9775 5.34223,-0.7374 0.15596,0.1898 0.0189,0.2402 -0.72986,0.2682 -0.90222,0.034 -1.04374,0.061 -3.37414,0.6509 -4.19744,1.0625 -7.37541,2.6392 -11.02971,5.4723 -4.7577,3.6884 -7.98743,7.3444 -11.57968,13.108 -1.21617,1.9512 -2.75943,4.8782 -3.07245,5.8273 -0.0288,0.087 -0.26294,0.6535 -0.52034,1.2583 -0.25739,0.6048 -0.54454,1.3318 -0.63811,1.6155 -0.0936,0.2837 -0.2375,0.5083 -0.31985,0.499 -0.0823,-0.01 -0.0777,-0.2494 0.0103,-0.5338 z"
/>
<path
d="m 19.72919,55.248 c 0.41991,-1.6929 2.42573,-6.0383 3.83359,-8.3052 0.7829,-1.2606 2.89771,-4.06 3.65934,-4.844 2.2639,-2.3304 5.49411,-4.9702 7.77521,-6.3542 1.62391,-0.9852 1.79697,-0.8363 0.24492,0.2108 -6.91149,4.6627 -10.85175,9.374 -14.25705,17.047 -0.45923,1.0348 -0.96992,2.1255 -1.13487,2.4238 l -0.29989,0.5424 0.17875,-0.7206 z"
id="path4321-1"
style="fill:#c0c0c0;fill-opacity:1"
/>
<path
d="m 68.99009,68.6958999999999 c 0.32307,-0.089 2.75095,-0.1995 4.7639,-0.2163 0.466,0 0.98311,-0.03 1.14914,-0.057 0.16603,-0.028 0.29468,0.014 0.28588,0.093 -0.0167,0.1494 -0.99627,0.2974 -2.58309,0.3901 -1.26846,0.074 -4.05739,-0.087 -3.61583,-0.2093 z"
id="path4319-1"
style="fill:#c0c0c0;fill-opacity:1"
/>
<path
d="m 65.91975,69.6525999999999 c 0.32997,-0.036 1.17362,-0.087 1.87478,-0.112 0.70115,-0.025 1.69613,-0.066 2.21105,-0.091 0.51492,-0.025 1.46066,-0.027 2.10164,0 0.64098,0.022 1.66895,0.027 2.28439,0.01 1.50683,-0.042 3.04612,0.1316 2.68973,0.3039 -0.14764,0.071 -0.68735,0.083 -1.19935,0.027 -0.51204,-0.056 -1.34766,-0.077 -1.85702,-0.046 -0.50936,0.03 -1.38109,0.037 -1.93718,0.014 -1.09806,-0.045 -3.35037,-0.015 -4.81815,0.066 -0.50748,0.028 -1.15381,0.017 -1.43629,-0.024 l -0.5136,-0.075 0.59994,-0.066 z"
style="fill:#c0c0c0;fill-opacity:1"
id="path4317-52"
/>
<path
d="m 52.80713,71.8592000000001 c 0.009,-0.075 0.2064,-0.3083 0.43901,-0.5188 0.3982,-0.3602 0.98817,-0.4812 2.83573,-0.5815 0.26974,-0.015 0.60695,-0.047 0.74934,-0.071 0.14239,-0.024 0.78588,-0.028 1.42998,-0.01 0.64409,0.02 1.2377,0.01 1.31913,-0.031 0.0814,-0.037 1.13601,0.01 2.34351,0.1 1.75571,0.1341 2.17633,0.2085 2.09991,0.3713 -0.064,0.1364 -0.62065,0.1853 -1.68427,0.1481 -3.54597,-0.1241 -5.51437,-0.1203 -6.25188,0.012 -0.42761,0.077 -0.58478,0.1197 -0.34928,0.095 0.74634,-0.077 4.74559,0.2141 4.812,0.3503 0.035,0.072 -0.073,0.1204 -0.24005,0.1078 -0.48403,-0.036 -2.83728,0 -5.05563,0.082 -2.21407,0.08 -2.46301,0.074 -2.4475,-0.057 z"
style="fill:#c0c0c0;fill-opacity:1"
id="path4315-7"
/>
<path
style="fill:#c0c0c0;fill-opacity:1"
id="path4313-6"
d="m 21.48419,68.8602000000001 c 0.0233,-0.2083 0.17494,-0.2357 0.73435,-0.1327 0.38773,0.071 0.69677,0.203 0.68676,0.2924 -0.01,0.089 -0.34047,0.1491 -0.73436,0.1327 -0.5683,-0.024 -0.71008,-0.084 -0.68675,-0.2924 z"
/>
<path
d="m 42.40186,73.2597000000001 c -0.16903,-0.3458 1.98309,-0.5079 5.68223,-0.4278 0.84787,0.018 1.21825,0.082 1.20436,0.2056 -0.011,0.099 -0.0393,0.1809 -0.0628,0.1831 -0.0235,0 -0.61418,0 -1.31256,0 -0.69838,4e-4 -1.95904,0.033 -2.80147,0.072 -2.25167,0.1056 -2.64216,0.1001 -2.70973,-0.038 z"
style="fill:#c0c0c0;fill-opacity:1"
id="path4311-1"
/>
<path
style="fill:#008800;fill-opacity:1"
id="path4309-4"
d="m 38.39797,52.6587999999999 c 1.13576,-0.5032 1.39594,-0.699 1.81407,-1.3651 0.26848,-0.4278 0.60451,-0.8518 0.74672,-0.9424 0.14221,-0.091 0.3415,-0.3224 0.44288,-0.515 0.10137,-0.1927 0.5289,-0.5098 0.95006,-0.7046 1.41949,-0.6567 5.59051,-2.8262 7.46647,-3.8836 0.82991,-0.4678 3.57591,-2.824 3.60618,-3.0943 0.007,-0.06 -0.23728,-0.092 -0.54222,-0.071 -0.30494,0.021 -0.89773,0.042 -1.31732,0.047 -0.41959,0.01 -1.17925,0.022 -1.68815,0.038 -0.50889,0.016 -1.4241,-0.054 -2.03379,-0.1549 l -1.10854,-0.1835 -0.81227,1.51 c -1.47752,2.7468 -1.52691,2.7991 -4.66645,4.9449 -2.98576,2.0407 -3.42665,2.4835 -3.79067,3.8072 -0.0914,0.3323 -0.24791,0.7247 -0.34783,0.8718 -0.0999,0.1473 -0.15094,0.2711 -0.11337,0.2754 0.0376,0 0.66497,-0.2567 1.39423,-0.5798 z"
/>
<path
d="m 64.19309,57.1936000000001 c -0.1638,-0.1513 -0.37774,-0.2817 -0.47543,-0.2898 -0.0977,-0.01 -0.0436,0.1091 0.1202,0.2604 0.1638,0.1513 0.37774,0.2817 0.47542,0.2898 0.0977,0.01 0.0436,-0.1091 -0.12019,-0.2604 z"
style="fill:#c0c0c0;fill-opacity:1"
id="path4307-2"
/>
<path
style="fill:#ff0000;fill-opacity:1"
id="path4303-3"
d="m 60.44215,24.5274999999999 c 0.575,-0.6638 0.64656,-0.8404 0.70183,-1.7318 0.0602,-0.9714 0.051,-0.9948 -0.43489,-1.0949 -1.2013,-0.2474 -2.79441,1.9961 -2.21078,3.1134 0.17624,0.3374 0.3451,0.4351 0.76486,0.4427 0.43188,0.01 0.66566,-0.1369 1.17898,-0.7294 z"
/>
<path
d="m 59.77808,23.7921 c -0.19696,-0.7276 0.55652,-1.1698 0.83677,-0.4911 0.11425,0.2767 0.0961,0.4185 -0.074,0.5777 -0.28974,0.2713 -0.67783,0.2273 -0.76279,-0.086 z"
id="path4305-22"
style="fill:#c0c0c0;fill-opacity:1"
/>
<path
id="path4299-1"
style="fill:#c0c0c0;fill-opacity:1"
d="m 52.72965,26.2671 c -0.0865,-0.609 0.22543,-0.9468 0.81339,-0.8807 0.45244,0.051 0.47869,0.096 0.41052,0.7045 -0.0687,0.6133 -0.10365,0.6497 -0.61611,0.6403 -0.46918,-0.01 -0.55208,-0.072 -0.6078,-0.4641 z"
/>
<path
d="m 52.60879,28.9756 c -0.1435,-0.2936 0.18004,-0.9581 0.45164,-0.9275 0.25469,0.029 0.27768,0.4629 0.0475,0.8971 -0.15015,0.2832 -0.36901,0.2965 -0.49911,0.03 z"
style="fill:#c0c0c0;fill-opacity:1"
id="path4297-68"
/>
<path
id="path4295-5"
style="fill:#c0c0c0;fill-opacity:1"
d="m 50.18113,29.9960000000001 c 0.56112,-0.4351 0.15819,-0.5964 -0.47624,-0.1906 -0.41266,0.2639 -0.41632,0.2771 -0.0884,0.3192 0.18817,0.024 0.44225,-0.034 0.56461,-0.1286 z"
/>
<path
style="fill:#c0c0c0;fill-opacity:1"
id="path4293-7"
d="m 49.00485,30.5223000000001 c -0.33891,-0.4125 -0.12461,-0.9566 0.48494,-1.2312 0.68622,-0.3092 1.22412,-0.2812 1.46603,0.076 0.53264,0.7871 -1.3416,1.8966 -1.95097,1.1549 z"
/>
<path
d="m 64.15182,69.6505 c -0.0683,-0.33 0.33889,-0.5414 1.20328,-0.6247 0.50939,-0.049 0.6812,-0.3447 0.22984,-0.3954 -0.31108,-0.035 -2.44747,0.7977 -2.63072,1.0253 -0.0698,0.087 0.16544,0.1791 0.57132,0.2247 0.59172,0.066 0.68084,0.034 0.62628,-0.2299 z"
style="fill:#c0c0c0;fill-opacity:1"
id="path4289-6"
/>
<path
d="m 56.03351,69.9448 c -0.16059,-0.1679 -1.94506,-0.4643 -1.96058,-0.3257 -0.0207,0.1846 0.81388,0.3918 1.53123,0.3803 0.26085,0 0.45405,-0.029 0.42935,-0.055 z"
style="fill:#c0c0c0;fill-opacity:1"
id="path4287-1"
/>
<path
d="m 43.38885,68.6510000000001 c -0.29481,-0.07 -0.78384,-0.1246 -1.08673,-0.1221 -0.30289,0 -0.0617,0.06 0.53602,0.1266 0.59771,0.067 0.84553,0.065 0.55071,0 z"
id="path4285-8"
style="fill:#c0c0c0;fill-opacity:1"
/>
<path
d="m 45.67455,69.0269000000001 c 0.01,-0.089 -0.0615,-0.1715 -0.15885,-0.1824 -0.0974,-0.011 -0.13875,0.058 -0.0919,0.1542 0.0468,0.096 0.11831,0.1779 0.15886,0.1825 0.0405,0 0.0819,-0.065 0.0919,-0.1543 z"
style="fill:#c0c0c0;fill-opacity:1"
id="path4283-9"
/>
<path
d="m 46.8425,70.6913 c 0.0164,-0.1464 -0.59855,-0.942 -0.74048,-0.9579 -0.0606,-0.01 -0.13476,0.207 -0.1648,0.4752 -0.0478,0.4271 0.004,0.4943 0.4191,0.5409 0.26053,0.029 0.47932,0 0.48618,-0.058 z"
id="path4281-2"
style="fill:#c0c0c0;fill-opacity:1"
/>
<path
id="path4279-7"
style="fill:#c0c0c0;fill-opacity:1"
d="m 44.23833,53.4659999999999 c -0.18878,-0.1622 -0.33206,-0.3947 -0.31838,-0.5168 0.0433,-0.3862 2.09943,-1.0021 3.00586,-0.9002 0.72851,0.082 0.8049,0.1273 0.76572,0.4563 -0.0653,0.5483 -0.2495,0.6948 -1.30221,1.0357 -1.11019,0.3595 -1.66774,0.34 -2.15099,-0.075 z"
/>
<path
id="path4277-9"
style="fill:#c0c0c0;fill-opacity:1"
d="m 41.27819,53.8631 c 0.009,-0.083 -0.22152,-0.063 -0.51292,0.045 -0.2914,0.1077 -0.53327,0.2267 -0.5375,0.2644 -0.004,0.038 0.22658,0.018 0.51292,-0.045 0.28634,-0.063 0.52821,-0.1816 0.5375,-0.2645 z"
/>
<path
d="m 39.5501,54.4793 c -0.30925,-0.3764 -0.1553,-0.6252 0.60869,-0.9836 0.89588,-0.4203 1.50569,-0.4434 1.97306,-0.075 0.5013,0.3954 0.41922,0.551 -0.52568,0.9967 -0.87327,0.4119 -1.74679,0.4381 -2.05607,0.062 z"
id="path4275-54"
style="fill:#c0c0c0;fill-opacity:1"
/>
<path
id="path4273-3"
style="fill:#c0c0c0;fill-opacity:1"
d="m 44.77196,55.4908 c -0.16786,-0.2042 -0.0508,-0.8059 0.19376,-0.9955 0.31479,-0.2442 0.92478,-0.141 1.20846,0.2043 0.21007,0.2556 0.2058,0.3339 -0.0335,0.6135 -0.27077,0.3162 -1.16005,0.4317 -1.36872,0.1777 z"
/>
<path
d="m 42.36035,55.7279000000001 c -0.16356,-0.6042 -0.0177,-0.9019 0.41812,-0.8529 0.48219,0.054 0.67185,0.483 0.37427,0.8463 -0.27553,0.3363 -0.70218,0.3399 -0.79239,0.01 z"
id="path4271-1"
style="fill:#c0c0c0;fill-opacity:1"
/>
<path
id="path4267-2"
style="fill:#ff0000;fill-opacity:1"
d="m 55.80062,59.1256000000001 c 0.69717,-0.4409 1.4839,-1.5552 1.55667,-2.205 0.0255,-0.2277 -0.0475,-0.5936 -0.16229,-0.8133 -0.47969,-0.9183 -2.94011,-0.363 -3.86219,0.8717 -0.59759,0.8002 -0.63376,1.3245 -0.13125,1.9029 0.6906,0.7948 1.59357,0.8795 2.59906,0.2437 z"
/>
<path
d="m 55.14688,57.1085 c -0.23033,-0.5578 -0.11475,-0.8539 0.38115,-0.9764 0.65902,-0.1628 1.00595,0.2635 0.70765,0.8696 -0.26424,0.5369 -0.88603,0.5979 -1.0888,0.1068 z"
style="fill:#c0c0c0;fill-opacity:1"
id="path4269-3"
/>
<path
id="path4261-3"
style="fill:#005500;fill-opacity:1"
d="m 51.8433,71.3878999999999 c 0.009,-0.077 -0.26784,-0.372 -0.61449,-0.6543 -0.89167,-0.7262 -0.73883,-1.1013 0.36921,-0.906 0.45482,0.08 1.03021,0.2014 1.27864,0.2695 0.24844,0.068 0.45955,0.054 0.46914,-0.032 0.0335,-0.2987 -0.67381,-0.7458 -1.28935,-0.8149 -0.4856,-0.055 -0.63637,-0.1475 -0.69436,-0.4278 -0.0799,-0.3862 0.20132,-0.6084 0.70386,-0.5562 0.33692,0.035 0.42255,-0.2116 0.12493,-0.3597 -0.11025,-0.055 -0.62018,-0.093 -1.13318,-0.085 -1.01963,0.016 -2.13421,-0.202 -2.25035,-0.4396 -0.0405,-0.083 -0.2134,-0.1664 -0.38422,-0.1856 -0.17082,-0.019 -0.32945,-0.1198 -0.35251,-0.2235 -0.0293,-0.132 -0.4266,-0.1396 -1.32331,-0.025 l -1.28138,0.1634 0.74817,0.1218 c 1.31504,0.2143 2.99277,0.7608 3.05634,0.9956 0.12652,0.4675 -0.37039,0.6294 -1.79513,0.5851 l -1.42598,-0.044 0.72198,0.7011 c 0.39709,0.3857 0.84773,0.8742 1.00142,1.0857 0.36376,0.5005 0.52446,0.5042 0.7802,0.018 0.23075,-0.4386 0.36476,-0.415 1.57299,0.2766 1.09531,0.627 1.68664,0.8121 1.71738,0.5375 z"
/>
<path
style="fill:#c0c0c0;fill-opacity:1"
id="path4259-4"
d="m 33.89931,69.7399 c 0.042,-0.029 -0.45836,-0.1123 -1.11194,-0.1858 -0.66416,-0.075 -1.24572,-0.062 -1.31845,0.028 -0.0908,0.1128 0.24503,0.1689 1.11194,0.1858 0.68313,0.013 1.27643,7e-4 1.31845,-0.028 z"
/>
<path
id="path4257-1"
style="fill:#c0c0c0;fill-opacity:1"
d="m 50.43262,71.8909000000001 c 0.009,-0.076 -0.28373,-0.2924 -0.6494,-0.4812 -0.62211,-0.3212 -0.68056,-0.3268 -0.90941,-0.086 -0.22161,0.2331 -0.16428,0.2754 0.61057,0.45 0.47033,0.106 0.87262,0.2067 0.89398,0.2239 0.0213,0.017 0.0458,-0.031 0.0543,-0.1067 z"
/>
<circle
id="circle4553"
cy="50"
cx="50"
style="fill:none;stroke:#c0c0c0;stroke-width:2;stroke-opacity:1"
r="49"
/>
</svg>
