<?xml version="1.0" encoding="UTF-8" standalone="no"?>
<svg
xmlns="http://www.w3.org/2000/svg"
xmlns:rdf="http://www.w3.org/1999/02/22-rdf-syntax-ns#"
xmlns:dc="http://purl.org/dc/elements/1.1/"
xmlns:cc="http://creativecommons.org/ns#"
xmlns:svg="http://www.w3.org/2000/svg"
xmlns:inkscape="http://www.inkscape.org/namespaces/inkscape"
xmlns:sodipodi="http://sodipodi.sourceforge.net/DTD/sodipodi-0.dtd"
>
<path
d="m 70.7020000000002,98.18926 c -10.8382,-2.01256 -19.5411,-11.32046 -21.5458,-23.04358 -1.2201,-7.13503 -2.9185,-11.01424 -6.5769,-15.02221 -3.2367,-3.54591 -7.2867,-5.82765 -11.7878,-6.6411 -2.0924,-0.37812 -6.3774,-0.16187 -8.444,0.42615 -5.5092,1.56749 -9.8956,5.45375 -12.2815,10.88143 -4.1803,9.50905 0.031,20.48794 9.051,23.59837 2.2855,0.78807 5.4385,0.77701 7.7831,-0.0273 4.6274,-1.58744 7.785,-5.64187 8.0737,-10.36662 0.1878,-3.07493 -0.6422,-5.65935 -2.4292,-7.56422 -3.0141,-3.21316 -7.7815,-3.18401 -9.7545,0.0596 -0.9623,1.58197 -0.9603,3.1078 0.01,4.33142 0.7052,0.89343 1.629,0.8915 2.5092,-0.005 0.3561,-0.36268 0.7921,-0.65944 0.9689,-0.65944 0.6507,0 1.4922,0.66202 1.843,1.4497 0.7654,1.71963 -0.1967,4.04888 -2.1607,5.23126 -1.027,0.61828 -1.2997,0.682 -2.8869,0.6747 -1.5104,-0.007 -1.917,-0.0956 -2.9417,-0.64181 -3.5388,-1.88659 -5.4042,-6.48766 -4.374,-10.78914 1.3442,-5.61263 6.0187,-9.3188 11.7676,-9.32999 5.1102,-0.01 9.9682,3.20028 12.5779,8.31164 4.0203,7.87385 1.3731,18.42196 -5.9622,23.7575 -1.3777,1.00211 -4.067,2.31442 -5.9125,2.88519 -2.2051,0.68196 -6.707,0.84626 -9.0931,0.33186 -7.6763,-1.65492 -13.9749,-7.63551 -16.4466,-15.61622 -2.3757,-7.67089 -1.3225,-15.53495 3.0311,-22.63361 1.2411,-2.02366 4.6805,-5.70005 6.6327,-7.08961 4.6877,-3.33681 9.5163,-4.8972 15.1542,-4.8972 3.3871,0 6.1501,0.51217 9.4853,1.75831 4.5492,1.69971 6.0054,2.00977 9.4854,2.01981 2.1655,0.006 3.5259,-0.099 4.5364,-0.35095 6.3199,-1.57574 11.2378,-5.2416 14.1814,-10.57108 5.6464,-10.22309 2.437,-23.03343 -7.0189,-28.01532 -2.4823,-1.3078 -4.0031,-1.65678 -7.1625,-1.6436 -2.5572,0.0108 -3.0752,0.0788 -4.5364,0.59701 -2.3442,0.83129 -4.096,1.99075 -5.879,3.89126 -1.7989,1.91743 -2.8949,3.95085 -3.5091,6.51069 -1.4298,5.95952 1.2816,11.95968 6.4024,14.16814 1.6216,0.69934 4.5862,0.70156 6.1816,0.005 3.1138,-1.36016 4.9891,-4.63074 4.3494,-7.58491 -0.6068,-2.80315 -3.1289,-4.30599 -4.7643,-2.83906 -0.6719,0.60277 -0.6814,0.67409 -0.3035,2.28023 0.1984,0.84259 -0.7321,1.75021 -1.7942,1.75021 -2.0527,0 -3.4687,-1.85943 -3.4651,-4.55017 0,-2.66424 1.4644,-4.87553 4.0859,-6.18519 1.0367,-0.51787 1.4174,-0.58412 3.3354,-0.58045 2.0624,0.004 2.2412,0.0425 3.7689,0.81261 4.7306,2.38475 7.1228,8.47691 5.5852,14.22388 -1.2917,4.82793 -5.2603,8.78159 -10.1795,10.14083 -1.501,0.41478 -2.0972,0.46467 -4.3241,0.36186 -4.5382,-0.20948 -8.1225,-1.93635 -11.1724,-5.38272 -3.3981,-3.83996 -4.9775,-8.14461 -4.9775,-13.56662 0,-2.97325 0.3468,-4.97689 1.301,-7.51722 4.5927,-12.2267 18.2694,-17.58287 29.8787,-11.70149 8.8607,4.48883 14.4023,14.41787 13.9773,25.04374 -0.3524,8.81069 -3.8834,15.97454 -10.9368,22.1886 -3.7955,3.34384 -6.3469,7.5443 -7.6846,12.65163 -0.5191,1.98134 -0.5762,2.54499 -0.58,5.71512 0,2.98674 0.069,3.81525 0.4782,5.49531 0.5858,2.40169 1.961,5.60905 3.1964,7.45457 1.245,1.85984 4.1702,4.76557 5.9008,5.86161 7.6737,4.85976 17.3707,3.29986 22.7568,-3.66071 4.8692,-6.29284 4.6164,-15.48393 -0.5696,-20.71247 -2.4035,-2.42297 -5.0099,-3.56051 -8.158,-3.56051 -4.1037,0 -7.3972,2.13089 -9.0268,5.84035 -0.5065,1.15277 -0.5727,1.55775 -0.5725,3.50167 1e-4,1.95782 0.06,2.31978 0.551,3.31112 0.6226,1.2578 1.9398,2.62571 2.9705,3.08476 0.8909,0.39688 2.8351,0.39661 3.5509,0 1.4768,-0.819 2.1571,-2.71124 1.3026,-3.62225 -0.24,-0.25582 -0.6647,-0.46515 -0.9438,-0.46515 -0.8216,0 -1.4021,-0.83256 -1.2795,-1.83506 0.2798,-2.28793 3.0166,-3.28894 5.4532,-1.99455 1.2568,0.66759 1.9777,1.51355 2.7016,3.17017 0.433,0.99096 0.5264,1.52609 0.5178,2.96747 -0.017,2.95234 -1.2211,5.38026 -3.5858,7.23599 -4.9973,3.92159 -12.3781,2.09204 -16.1039,-3.99183 -4.135,-6.7523 -2.1426,-16.28707 4.443,-21.26317 7.0829,-5.35175 16.9244,-4.25137 23.3257,2.60811 3.8672,4.14397 5.8617,9.39974 5.8618,15.44654 1e-4,6.37197 -2.1827,12.01725 -6.4179,16.59808 -2.8034,3.03226 -5.6183,4.91474 -9.2795,6.20566 -4.0182,1.41683 -8.2911,1.79818 -12.14,1.08346 z"
id="path4788"
style="fill:#606060;stroke:#606060;stroke-width:2.91297245"
/>
</svg>
