<?xml version="1.0" encoding="UTF-8" standalone="no"?>
<svg
xmlns:dc="http://purl.org/dc/elements/1.1/"
xmlns="http://www.w3.org/2000/svg"
xmlns:rdf="http://www.w3.org/1999/02/22-rdf-syntax-ns#"
xmlns:svg="http://www.w3.org/2000/svg"
xmlns:cc="http://creativecommons.org/ns#"
xmlns:inkscape="http://www.inkscape.org/namespaces/inkscape"
xmlns:sodipodi="http://sodipodi.sourceforge.net/DTD/sodipodi-0.dtd"
>
<path
id="path3804"
style="fill:#000080"
d="m 39.5646999999999,89.56304 -10.437,-10.43669 5.1392,-0.002 9.1392,-0.002 -10e-4,-9.34284 0,-13.34278 -13.2639,0.0958 -9.264,0.0959 10e-5,9.12328 0,5.12333 -10.4378,-10.43747 -10.4385,-10.43773 10.3578,-10.35759 10.3579,-10.35754 0.096,5.20178 0.096,9.20172 9.2329,-0.0954 13.2331,-0.0955 0.093,-13.38961 0.093,-9.38963 -9.2124,0.0843 -5.2124,0.0843 10.4325,-10.44333 10.4324,-10.44334 10.3735,10.37326 10.3735,10.37323 -5.1393,0.002 -9.1391,0.002 10e-4,9.38912 0,13.38906 13.3972,0.007 9.3972,0.007 -0.075,-9.20458 -0.075,-5.20461 10.4432,10.43288 10.443,10.43284 -10.4435,10.43229 -10.4436,10.43223 0.084,-5.19687 0.084,-9.19681 -9.4688,-0.001 -13.4691,-10e-4 -10e-4,13.31218 -10e-4,9.31214 9.187,0.0961 5.1872,0.0961 -10.3579,10.35759 L 50.0009,100 39.5643,89.5635 Z"
/>
</svg>
