<?xml version="1.0" encoding="UTF-8" standalone="no"?>
<svg
xmlns:dc="http://purl.org/dc/elements/1.1/"
xmlns:rdf="http://www.w3.org/1999/02/22-rdf-syntax-ns#"
xmlns="http://www.w3.org/2000/svg"
xmlns:svg="http://www.w3.org/2000/svg"
xmlns:cc="http://creativecommons.org/ns#"
xmlns:inkscape="http://www.inkscape.org/namespaces/inkscape"
xmlns:sodipodi="http://sodipodi.sourceforge.net/DTD/sodipodi-0.dtd"
>
<path
d="m 77.5931999999998,0 -38.568,0 c 6.8466,5.4194962 11.2914,14.093424 11.2914,23.853247 l 0,39.70146 49.6834,0 0,-39.70146 C 100,10.679742 89.9679999999998,0 77.5931999999998,0 Z m -31.6208,100 17.1936,0 0,-31.56408 -17.1936,0 0,31.56408 z M 23.3762000000002,0 21.4384,0 C 9.59819999999991,0 0,10.217396 0,22.822243 l 0,40.732464 44.814,0 0,-40.732464 C 44.8139999999999,10.217396 35.2161999999998,0 23.3762000000002,0 Z m 8.778,27.289926 -19.4946,0 0,-6.505391 19.4946,0 0,6.505391 z"
style="fill:#303030;fill-opacity:1"
id="path4395"
/>
</svg>
