<?xml version="1.0" encoding="UTF-8" standalone="no"?>
<svg
xmlns:dc="http://purl.org/dc/elements/1.1/"
xmlns="http://www.w3.org/2000/svg"
xmlns:rdf="http://www.w3.org/1999/02/22-rdf-syntax-ns#"
xmlns:svg="http://www.w3.org/2000/svg"
xmlns:cc="http://creativecommons.org/ns#"
xmlns:inkscape="http://www.inkscape.org/namespaces/inkscape"
xmlns:sodipodi="http://sodipodi.sourceforge.net/DTD/sodipodi-0.dtd"
>
<path
d="m 23.8661,0.505980000000022 c -0.5744,0.48152 -0.605,0.83561 -0.605,6.56113 l 0,6.05513 -0.7247,0.37982 c -1.0579,0.58321 -1.7827,2.07678 -1.6014,3.3694 0.181,1.44332 1.1484,2.50806 2.7791,3.01408 4.4713,1.44456 8.0367,-3.16601 4.7125,-6.05389 l -0.9366,-0.81111 0,-6.00365 c 0,-5.67407 -0.031,-6.02939 -0.605,-6.51091 -0.3318,-0.27813 -0.9966,-0.50603 -1.5109,-0.50603 -0.5146,0 -1.1748,0.2279 -1.508,0.50603 z"
style="fill:#4d4d4d"
id="path4690"
/>
<path
d="m 48.6395,0.505980000000022 c -0.5742,0.48152 -0.6033,0.83561 -0.6033,6.56113 l 0,6.05513 -0.7249,0.37982 c -1.0578,0.58321 -1.7826,2.07678 -1.6015,3.3694 0.1813,1.44332 1.1485,2.50806 2.7793,3.01408 4.4714,1.44456 8.0367,-3.16601 4.7125,-6.05389 l -0.9366,-0.81111 0,-6.00365 c 0,-5.67407 -0.03,-6.02939 -0.605,-6.51091 -0.3318,-0.27813 -0.9967,-0.50603 -1.511,-0.50603 -0.5142,0 -1.1777,0.2279 -1.5095,0.50603 z"
style="fill:#4d4d4d"
id="path4692"
/>
<path
id="path4694"
style="fill:#4d4d4d"
d="m 73.7140999999999,0.505980000000022 c -0.5743,0.48152 -0.6034,0.83561 -0.6034,6.56113 l 0,6.05513 -0.7248,0.37982 c -1.0579,0.58321 -1.7827,2.07678 -1.6014,3.3694 0.1811,1.44332 1.1485,2.50806 2.7793,3.01408 4.4712,1.44456 8.0366,-3.16601 4.7123,-6.05389 l -0.9367,-0.81111 0,-6.00365 c 0,-5.67407 -0.03,-6.02939 -0.6034,-6.51091 -0.3316,-0.27813 -0.9967,-0.50603 -1.5109,-0.50603 -0.5143,0 -1.1792,0.2279 -1.511,0.50603 z"
/>
<path
d="m 5.64899999999989,5.15882999999997 c -2.085,0.57391 -3.9569,1.74334 -4.8643,3.01974 l -0.7847,1.10567 0,42.74232 0,42.7629 0.8767,1.27639 c 1.0579,1.55204 2.6579,2.65771 4.8642,3.38075 l 1.6616,0.55335 43.0812,0 43.0506,0 1.5707,-0.55335 c 1.8732,-0.65928 3.5054,-1.97784 4.3208,-3.48771 0.5435,-1.02029 0.5742,-1.76495 0.5742,-15.69321 l 0,-32.75125 -4.1441,2.8706 -4.1135,2.87061 -0.1534,29.73254 c -0.088,9.8643 0.4684,9.89645 -3.0511,9.89645 l -37.572,0.0638 c -46.3734,0.0638 -36.2329,0.17541 -38.7535,0.17541 -3.6592,0 -3.9634,0.0114 -3.9634,-3.04602 0,-1.56816 0.1591,-8.87615 0.2206,-38.49761 l 0.09,-37.68919 c 0,-2.23322 -0.017,-2.10539 4.5207,-2.10539 l 5.3481,-0.0854 0,-5.49952 0,-1.4677 -5.6492,0 c -4.8044,0.0216 -5.8916,0.0854 -7.1307,0.42581 z"
style="fill:#4d4d4d"
id="path4696-5"
/>
<path
d="m 32.3251,7.20660999999996 0,2.51988 5.4386,0 5.4372,0 0,-2.51988 0,-2.51988 -5.4372,0 -5.4386,0 0,2.51988 z"
style="fill:#4d4d4d"
id="path4698-4"
/>
<path
id="path4700"
style="fill:#4d4d4d"
d="m 57.0987,7.20660999999996 0,2.51988 5.5892,0 5.589,0 0,-2.51988 0,-2.51988 -5.589,0 -5.5892,0 0,2.51988 z"
/>
<path
d="m 82.1732,10.2109400000001 0,1.48827 5.3773,0.0854 c 3.9906,0.0371 3.9771,0.0433 3.9771,4.0277 l 0.1201,5.56738 8.3269,0.50397 -0.039,-7.24075 c -0.091,-5.65687 -0.1213,-6.01788 -0.7554,-6.82629 -0.7555,-0.99973 -2.2358,-2.02003 -3.7159,-2.57338 -0.906,-0.34043 -1.9026,-0.40421 -7.16,-0.46797 l -6.1326,-0.0638 0,5.49952 z"
id="path4702"
style="fill:#4d4d4d"
/>
<path
d="m 15.2248,27.84187 0,2.51988 30.6695,0 30.6696,0 0,-2.51988 0,-2.51988 -30.6696,0 -30.6695,0 0,2.51988 z"
style="fill:#4d4d4d"
id="path4706-3"
/>
<path
d="m 15.2248,40.48891 0,2.52162 27.0117,0 27.0116,0 0,-2.51988 0,-2.51988 -27.0116,0 -27.0117,0 0,2.51814 z"
style="fill:#4d4d4d"
id="path4710"
/>
<path
d="m 15.2248,52.58434 0,2.52162 22.6221,0 22.6224,0 0,-2.51988 0,-2.51988 -22.6224,0 -22.6221,0 0,2.51814 z"
style="fill:#4d4d4d"
id="path4792"
/>
<path
d="m 15.2248,64.67977 0,2.52162 20.6559,0 20.6563,0 0,-2.51988 0,-2.51988 -20.6563,0 -20.6559,0 0,2.51814 z"
style="fill:#4d4d4d"
id="path4794"
/>
<path
d="m 15.2248,76.7752 0,2.52162 17.7297,0 17.7297,0 0,-2.51988 0,-2.51988 -17.7297,0 -17.7297,0 0,2.51814 z"
id="path4796"
style="fill:#4d4d4d"
/>
<path
style="fill:#4d4d4d"
id="path4820-3"
d="m 88.7072000000001,25.75149 c -1.0691,0.21908 -1.6963,0.85799 -2.789,2.93299 -0.8836,1.65614 -1.2083,2.075 -1.4872,1.97559 -1.5569,-0.5588 -1.6725,-0.57907 -2.2774,-0.27892 -0.4643,0.23935 -2.1144,3.03336 -7.5304,12.671 -3.8118,6.80405 -6.9256,12.61116 -6.9492,12.89007 0,0.97766 1.2781,1.51716 2.0919,0.87826 0.2328,-0.17952 3.2072,-5.30814 6.6233,-11.43372 3.4161,-6.10628 6.4614,-11.33431 6.7402,-11.59296 0.6743,-0.59837 0.3483,-0.69874 7.3437,2.23521 l 5.5082,2.29504 1.7434,-3.13277 c 0.9533,-1.71597 1.8132,-3.31227 1.9054,-3.57189 0.209,-0.59837 -0.2327,-1.6764 -0.8835,-2.17537 -0.6048,-0.45842 -8.1577,-3.57189 -8.994,-3.71087 -0.3249,-0.0415 -0.7903,-0.0415 -1.0454,0.0183 z"
/>
<path
d="m 82.7808,39.79971 c -0.9993,1.79608 -3.6488,6.52514 -5.9027,10.53519 -2.2312,4.01102 -4.3457,7.58291 -4.6942,7.9622 -0.6745,0.71804 -2.1852,1.39652 -3.1149,1.41679 -0.5339,0 -0.906,0.57906 -4.393,6.84459 -2.092,3.75141 -3.7882,6.90443 -3.7882,7.02411 0,0.0994 2.7427,1.33669 6.1129,2.7139 l 6.1352,2.53439 0.6273,-1.1176 c 0.3485,-0.6389 5.1822,-9.21878 10.7139,-19.09576 l 10.0866,-17.95886 -4.8808,-2.05473 c -2.6956,-1.1176 -4.927,-2.03543 -4.973,-2.03543 -0.07,-0.002 -0.9297,1.45443 -1.9291,3.23121 z"
id="path4824-3"
style="fill:#4d4d4d"
/>
<path
d="m 59.3072999999999,76.21543 c 0,0.0994 -0.2092,2.75347 -0.4643,5.94607 -0.5576,7.14378 -0.5812,8.14074 -0.1158,8.48046 0.2552,0.17951 0.5115,0.19978 0.8836,0.0599 0.6969,-0.27892 12.1313,-9.19851 12.1313,-9.45813 0,-0.22004 -11.7368,-5.16819 -12.2247,-5.16819 -0.1169,0 -0.2101,0.0599 -0.2101,0.13995 z"
id="path4830-5"
style="fill:#4d4d4d"
/>
</svg>
