<?xml version="1.0" encoding="UTF-8" standalone="no"?>
<svg
xmlns:sodipodi="http://sodipodi.sourceforge.net/DTD/sodipodi-0.dtd"
xmlns:inkscape="http://www.inkscape.org/namespaces/inkscape"
xmlns:svg="http://www.w3.org/2000/svg"
xmlns:cc="http://creativecommons.org/ns#"
xmlns:dc="http://purl.org/dc/elements/1.1/"
xmlns="http://www.w3.org/2000/svg"
xmlns:rdf="http://www.w3.org/1999/02/22-rdf-syntax-ns#"
>
<path
d="m 53.5785999999998,99.9484200000001 c 0.3829,-0.045 1.5461,-0.178 2.5851,-0.2966 8.3215,-0.94982 16.9044,-4.39558 23.7923,-9.55188 10.7795,-8.06945 17.7274,-19.80687 19.6918,-33.26583 0.469,-3.21316 0.4702,-10.608 0,-13.67565 -1.4262,-9.34928 -4.9219,-17.44933 -10.6105,-24.58557 -1.7282,-2.16804 -5.4542,-5.89191 -7.6209,-7.61654 -7.16,-5.69931 -15.2284,-9.17817 -24.5976,-10.606 -3.0691,-0.46771 -10.4677,-0.46651 -13.6824,0 -8.5271,1.24332 -16.381,4.47429 -23.0962,9.50128 -10.8028,8.08695 -17.6105,19.60017 -19.6927,33.30453 -0.4168,2.74255 -0.4715,10.27439 -0.094,12.98004 1.3177,9.45558 4.9774,18.06474 10.7303,25.24257 7.8514,9.79629 19.3786,16.32291 32.153,18.20465 1.9173,0.2825 9.0115,0.52901 10.44,0.3628 z"
id="path4985"
style="fill:#000000"
/>
<path
d="m 44.0333999999998,97.06247 c -10.5765,-1.36833 -20.0489,-6.05441 -27.6481,-13.67776 -5.2125,-5.2291 -9.1252,-11.53111 -11.4245,-18.40144 -0.7156,-2.13804 -1.783,-6.43602 -1.6351,-6.58383 0.041,-0.041 0.3531,0.27211 0.6937,0.69572 1.3894,1.72803 4.5151,3.60396 7.132,4.28038 8.3311,2.15334 21.6166,-1.58763 36.0175,-10.14199 l 2.4393,-1.44913 0.4649,0.73601 c 1.0244,1.62213 3.1368,5.4642 4.5025,8.18956 6.9302,13.82796 8.6358,24.52486 4.908,30.78057 -1.4189,2.38095 -4.5848,4.59189 -7.993,5.58211 -1.177,0.34191 -1.7453,0.38721 -3.6788,0.29351 -1.2578,-0.061 -2.9581,-0.19761 -3.7784,-0.30371 z"
id="path4983"
style="fill:#bea000"
/>
<path
style="fill:#ffff00"
id="path4980"
d="m 59.2105999999999,95.86155 c 1.2509,-1.07172 2.7414,-3.21066 3.485,-5.0015 1.8016,-4.33838 1.7331,-10.46989 -0.1936,-17.33012 -1.7749,-6.31952 -5.4336,-14.46197 -9.6092,-21.38511 l -1.0756,-1.78323 0.7316,-0.46151 c 1.6478,-1.03962 5.4862,-3.14436 8.309,-4.55608 13.6849,-6.84413 24.4604,-8.54676 30.6754,-4.84679 2.4546,1.46122 4.6488,4.66018 5.6161,8.18775 0.4178,1.52373 0.426,1.71853 0.1982,4.66739 -0.2681,3.47106 -0.9257,7.12203 -1.8224,10.11779 -4.9035,16.38241 -18.4536,29.06624 -35.057,32.81601 -2.2758,0.51401 -2.3313,0.49531 -1.2575,-0.4246 z"
/>
<path
id="path4978"
style="fill:#008000"
d="m 13.6579999999999,61.1905 c -1.5353,-0.15541 -3.8693,-0.95242 -5.2578,-1.79544 -2.464,-1.49613 -4.5919,-4.61089 -5.5443,-8.11575 -0.4549,-1.67403 -0.4482,-3.31446 0.029,-7.16584 1.9521,-15.74379 11.8893,-29.68635 26.1344,-36.66849 4.054,-1.98703 8.4208,-3.47416 11.9315,-4.06347 l 0.7954,-0.1335 -0.9588,0.83281 c -2.0354,1.76803 -3.7429,4.87209 -4.4185,8.03235 -0.4486,2.09864 -0.4543,6.47202 -0.012,9.14297 1.2209,7.36934 5.0699,16.98942 10.3199,25.79249 l 1.5133,2.53755 -0.7363,0.46461 c -3.0247,1.90823 -9.1973,5.10839 -13.2537,6.87112 -3.2433,1.40943 -8.2677,3.07576 -11.1468,3.69667 -3.6779,0.79332 -5.8826,0.92752 -9.3959,0.57192 z"
/>
<path
d="m 48.5153,45.03379 c -9.3151,-16.2818 -12.2086,-29.50875 -8.0005,-36.57049 1.4784,-2.48094 4.6121,-4.62768 8.1919,-5.6119 1.5258,-0.41941 1.7164,-0.42761 4.6696,-0.19971 13.336,1.02932 25.1175,7.19504 33.5854,17.57673 3.003,3.68157 5.988,8.93607 7.6701,13.50166 0.6929,1.88053 1.7133,5.5822 1.9856,7.20323 l 0.1336,0.79502 -0.8333,-0.95832 c -1.0936,-1.25782 -3.2338,-2.74425 -5.0153,-3.48336 -4.3405,-1.80064 -10.475,-1.73214 -17.3386,0.1936 -6.3259,1.77483 -14.7526,5.5622 -21.2777,9.56318 -1.3391,0.82101 -1.8478,1.04072 -2.0202,0.87252 -0.1267,-0.12361 -0.9145,-1.42063 -1.7506,-2.88216 z"
id="path4974"
style="fill:#0000ff"
/>
<ellipse
cx="50.1601999999998"
style="fill:#ffffff"
id="path5004"
cy="49.8840300000001"
ry="29.624992"
rx="29.625"
/>
<path
d="m 50,80 c -11.7969,0.16359 -23.1733,-7.41941 -27.6423,-18.32316 -4.666,-10.71179 -2.2511,-24.01828 5.9267,-32.37459 7.868,-8.46788 20.8305,-11.55868 31.6845,-7.60586 11.2504,3.82238 19.546,14.87385 19.9921,26.75992 0.7467,11.55467 -5.9515,23.10334 -16.304,28.26148 -4.2057,2.1614 -8.9295,3.28941 -13.657,3.28221 z m 24.3121,-32.51634 c 0.4818,1.52504 3.3857,-0.49027 0.975,-1.23636 -1.4324,1.06487 -0.7409,-0.91444 -0.975,1.23636 z m -43.0774,-0.28162 c -0.8058,-1.11141 -2.916,-3.3044 -1.1108,-0.7523 1.657,3.32757 -1.7317,-0.83124 -1.5721,-2.12019 -2.236,-0.53154 -2.0296,-4.46778 -2.4939,-5.06437 -4.5603,9.79819 -2.1702,22.26792 5.7597,29.63577 2.6194,2.51597 5.7641,4.48318 9.176,5.72965 0.1276,-2.68606 1.0463,-5.0858 1.2201,-7.77313 1.325,-2.80814 -1.2234,-4.24006 -1.824,-6.65662 -2.1555,-1.81699 -0.1765,-3.966 -0.065,-5.32738 0.4274,-2.3074 -1.8598,-0.0211 -2.215,-2.07322 -1.1172,-1.7694 -3.4242,-2.23678 -5.3461,-2.89171 -1.2185,-0.42213 -0.411,-2.23521 -1.5286,-2.7065 z m 40.1754,-5.88367 c -0.5419,-1.73996 -2.4569,-0.84715 -3.2448,-1.92851 -1.7635,2.21269 0.3333,2.12822 1.8015,2.14246 -0.051,-0.33159 1.8102,0.78214 1.4433,-0.21395 z m 0.091,9.56938 c -0.089,-1.89117 -2.8116,-4.77634 -2.2723,-5.55153 0.5502,-1.04682 0.9268,-2.77459 -1.2201,-2.16585 -0.9647,0.20402 -1.8329,-3.1526 -1.8702,-0.71326 -0.7393,1.59288 -1.1481,-2.15226 -2.6704,-2.25995 -2.0284,-0.66912 2.2043,1.91194 0.6753,1.75787 0,1.51749 -1.6832,-2.48518 -2.9648,-1.30266 -1.6918,-0.46293 -1.985,4.49699 -4.2073,1.88139 -1.1354,-2.85768 2.2631,-1.3395 2.1762,-2.17061 0.3084,-1.32568 -1.5251,-1.68211 0.043,-1.84285 1.2148,0.23588 0.9028,-1.47272 2.6583,-1.7511 -0.7486,-1.45625 0.6643,-1.23239 0.9966,-0.59086 0.5273,-1.73695 -3.9863,-1.08338 -1.8203,-2.45193 2.1323,-0.5161 2.6739,-3.42455 5.6888,-2.99557 2.518,0.39629 -1.8226,-2.19892 -2.6625,-2.86866 -9.5045,-6.31185 -23.0574,-5.19775 -31.4441,2.5212 2.3229,0.67089 -2.5024,0.46743 0.06,1.23317 1.5489,0.56474 1.4065,-0.51085 1.5075,-0.72234 0.8132,-0.33723 1.525,-1.59742 2.3114,0.13625 0.7601,-0.37974 1.2253,1.78553 1.4989,-0.19286 0.681,-0.75209 1.7813,0.87456 0.3805,1.53148 2.2812,0.76051 -0.7451,0.80835 -0.5817,0.57303 0.8157,-1.69309 -1.8043,0.45358 -2.4796,0.69356 -0.1705,2.55211 3.2396,1.7516 4.014,3.24414 0.5121,1.92145 0.681,-0.18617 0.8984,-0.50724 1.2113,-0.61155 -1.4352,-3.44575 1.309,-2.58434 1.1477,-0.44793 2.0075,2.46243 2.9442,0.67421 0.2184,1.72068 3.1875,2.05952 1.8602,3.0465 -0.9316,0.32025 -4.4684,0.46047 -3.7083,1.85011 1.6243,-1.30166 1.6201,-0.63896 1.8779,0.69227 -1.2491,0.8235 0.097,-0.8964 -1.592,0.17663 -1.185,1.94844 -3.9453,3.76769 -3.3437,6.21505 -0.154,1.67727 -0.7945,-1.68031 -2.1502,-1.09292 -0.6087,0.3753 -1.1016,0.3957 -2.2733,0.33242 -2.2689,1.44293 0.7643,5.95095 1.5362,3.54739 2.3942,-2.09811 -1.1987,2.98561 1.5072,1.49877 0.4193,1.19819 0.6587,3.08769 2.204,2.48571 0.4131,1.00381 0.957,-1.57456 2.2217,-0.89701 0.9525,0.40006 2.7904,0.42163 3.6049,1.75266 1.9016,-0.21883 1.9416,2.02742 2.6136,2.82392 1.4411,-0.15694 1.0931,1.71153 3.0255,0.56951 2.4751,0.0159 2.2929,3.61578 0.043,3.94898 0.945,3.16509 -3.0488,3.42134 -3.0378,5.95102 -1.683,0.99095 -1.9183,3.36508 -3.9,3.83877 -0.3412,0.60789 -1.8128,2.70047 -1.2148,2.9316 -1.7865,1.97292 2.8207,1.61534 4.4366,2.01171 9.3308,0.7512 18.7935,-4.03148 23.8036,-11.9229 1.1458,-1.78139 0.6963,-1.2816 1.5393,-2.9166 1.8582,-3.44084 2.7524,-7.72487 2.6726,-11.74056 -0.888,0.95128 -3.9656,3.43008 -4.6944,1.32228 z m 3.8081,-10.26123 c -1.631,0.58732 -1.2318,-2.51948 -2.1389,-0.15262 -0.8036,0.48872 -0.6906,2.07135 0.7379,2.25233 1.469,1.25023 0.865,-0.39422 2.2607,-0.80604 0.2713,-0.59056 -0.2079,-1.31878 -0.8597,-1.29367 z m -2.7306,12.18981 c 3.5268,-1.03546 0.315,2.95611 -0.9001,4.06542 -2.225,1.55425 0.5105,4.41213 -1.1598,6.12858 -1.4057,1.94982 -1.2802,5.89991 -4.4417,6.27923 -2.2976,0.60813 -2.2032,-3.40793 -3.0438,-5.03719 -1.0862,-2.45492 0.614,-5.25747 -1.2184,-7.48087 1.1763,-3.42226 -3.8096,-1.09049 -5.4373,-2.39885 -1.8823,-1.75554 -2.2959,-4.3725 -1.3219,-6.68686 1.3491,-1.29261 1.5761,-3.58581 3.3975,-3.87932 1.9001,-1.23195 4.3388,-1.11886 4.9482,0.91848 1.9155,0.65119 3.2407,-0.38173 5.07,0.89505 1.0804,1.7861 2.2398,3.68948 3.0483,5.70995 0.2942,0.57124 0.7155,1.33762 1.059,1.48638 z M 56.8499999999999,36.87346 c 0.086,-1.39586 2.0147,0.0213 -0.049,0.63066 -0.2295,-0.16601 -0.01,-0.46344 0.049,-0.63066 z m 1.6715,-1.84285 c 0,0.47401 0.9363,1.18614 1.3704,2.31496 0.7781,0.30799 -3.2293,0.52633 -1.0216,-0.37614 -0.3203,-0.77419 -1.688,-1.24533 -0.3488,-1.93882 z m -0.141,2.92041 c -0.1823,0.34493 -0.4775,-0.13031 0,0 z m -3.6918,-4.8245 c -1.2153,0.2984 -3.9475,-0.25069 -2.2368,-1.79942 1.1379,-0.19049 3.9167,-0.37344 2.898,1.52391 l -0.2979,0.20147 -0.3633,0.074 z"
style="fill:#000000;fill-opacity:1"
id="path4995"
/>
</svg>
