<?xml version="1.0" encoding="UTF-8" standalone="no"?>
<svg
xmlns:inkscape="http://www.inkscape.org/namespaces/inkscape"
xmlns:sodipodi="http://sodipodi.sourceforge.net/DTD/sodipodi-0.dtd"
xmlns="http://www.w3.org/2000/svg"
xmlns:rdf="http://www.w3.org/1999/02/22-rdf-syntax-ns#"
xmlns:dc="http://purl.org/dc/elements/1.1/"
xmlns:cc="http://creativecommons.org/ns#"
xmlns:svg="http://www.w3.org/2000/svg"
>
<path
d="m 24.9999,24.99994 25.0001,25.00004 -25,25 -25.0001,-25.00004 z"
style="fill:#0a6b9e;fill-opacity:1"
id="rect4117"
/>
<path
d="m 49.9999,-4.9999999987449e-05 25.0001,25.00004 -25,24.99999 -25.0001,-25.00004 z"
style="fill:#ffcc00;fill-opacity:1"
id="rect4119"
/>
<path
d="m 50,49.9999800000001 25,24.99997 -25,25 -25,-24.99997 z"
id="rect4121"
style="fill:#ff5a00;fill-opacity:1"
/>
<path
id="rect4123"
style="fill:#008444;fill-opacity:1"
d="m 75,24.99999 25,24.99997 -25,24.99999 -25,-24.99997 z"
/>
<path
d="m 23.7962,50.01685 c -0.097,-0.419 0.1826,-0.7397 0.6117,-0.7028 0.5218,0.045 0.7476,0.6796 0.3747,1.0526 -0.057,0.057 -0.2138,0.1089 -0.3489,0.1159 -0.3249,0.017 -0.5671,-0.1601 -0.6376,-0.4657 z m -0.7396,-2.0177 c -0.031,-0.2563 0.1433,-0.5121 0.4047,-0.5953 0.2477,-0.079 0.4024,-0.034 0.6148,0.1785 0.1906,0.1906 0.2336,0.5055 0.1,0.7293 -0.1012,0.169 -0.3923,0.297 -0.5946,0.2614 -0.2219,-0.039 -0.4965,-0.3396 -0.5245,-0.5739 z m 5.0196,3.9078 c -0.117,-0.613 0.6101,-0.985 1.0552,-0.5399 0.3746,0.3747 0.1201,0.9934 -0.4202,1.0213 -0.3396,0.018 -0.5737,-0.1598 -0.635,-0.4814 z m -5.5061,-5.7353 c -0.06,-0.2606 0.076,-0.5725 0.2919,-0.6695 0.2047,-0.092 0.5334,-0.04 0.6804,0.1065 0.3895,0.3896 0.1903,0.9927 -0.3369,1.02 -0.3211,0.017 -0.5672,-0.1604 -0.6354,-0.457 z m 4.0424,3.4789 c -0.025,-0.2937 0.1044,-0.5039 0.381,-0.6175 0.2501,-0.1026 0.418,-0.064 0.6279,0.1465 0.1981,0.198 0.2441,0.3583 0.1698,0.5916 -0.095,0.2992 -0.252,0.4121 -0.5721,0.4121 -0.3644,0 -0.5768,-0.1865 -0.6066,-0.5327 z m -4.3127,-5.6167 c 0,-0.6309 0.8341,-0.7891 1.1263,-0.2136 0.1279,0.252 0.037,0.6233 -0.1851,0.7564 -0.4148,0.2484 -0.9411,-0.055 -0.9412,-0.5428 z m 3.5506,3.3326 c -0.024,-0.2813 0.083,-0.4762 0.3322,-0.6015 0.2322,-0.117 0.4788,-0.07 0.6778,0.1289 0.1968,0.1968 0.2426,0.3575 0.1685,0.5903 -0.077,0.2426 -0.1959,0.3577 -0.4313,0.4183 -0.3659,0.094 -0.7144,-0.1559 -0.7472,-0.536 z m -0.4538,-1.5707 c -0.041,-0.062 -0.066,-0.2185 -0.055,-0.3477 0.068,-0.7946 1.2034,-0.7272 1.2034,0.072 0,0.5702 -0.8221,0.7678 -1.1487,0.2762 z m 5.1573,5.0687 c -0.1416,-0.4347 0.1082,-0.7829 0.5615,-0.7829 0.2167,0 0.3243,0.036 0.4348,0.1467 0.2931,0.2932 0.2121,0.7969 -0.1582,0.9834 -0.3453,0.1739 -0.7188,0.019 -0.8381,-0.3472 z m -1.7967,-2.0747 c -0.075,-0.1759 -0.01,-0.472 0.1454,-0.6232 0.1797,-0.1797 0.4124,-0.2311 0.655,-0.1446 0.2771,0.099 0.4115,0.3121 0.3857,0.6122 -0.057,0.6577 -0.9239,0.7716 -1.1861,0.1556 z m 3.729,3.6469 c -0.086,-0.2016 -0.019,-0.5225 0.1426,-0.6837 0.186,-0.186 0.6642,-0.2054 0.8356,-0.034 0.25,0.2499 0.2541,0.6334 0.01,0.8808 -0.2006,0.2026 -0.4435,0.2557 -0.6706,0.146 -0.2041,-0.099 -0.2446,-0.1381 -0.3173,-0.3092 l 0,0 z m -10.2124,-10.7225 c -0.068,-0.281 0.01,-0.4876 0.2355,-0.6436 0.3679,-0.2516 0.8716,0.012 0.9117,0.4777 0.025,0.2947 -0.082,0.4726 -0.3512,0.5832 -0.1454,0.06 -0.2794,0.06 -0.4232,10e-4 -0.273,-0.1121 -0.3081,-0.1514 -0.3728,-0.4183 z m 5.211,4.6844 c -0.027,-0.087 -0.023,-0.2583 0.01,-0.3809 0.051,-0.1947 0.086,-0.2378 0.2772,-0.3408 0.6038,-0.3254 1.1784,0.3663 0.7598,0.9147 -0.1254,0.1642 -0.1847,0.1946 -0.4028,0.2059 -0.2939,0.015 -0.5678,-0.1545 -0.6437,-0.3989 z m 9.9926,9.7412 c -0.087,-0.4522 0.3271,-0.8635 0.7377,-0.7327 0.3016,0.096 0.4877,0.3295 0.4877,0.6122 0,0.736 -1.0865,0.8429 -1.2254,0.1206 l 0,-10e-5 0,10e-5 z m -12.3895,-12.5877 c -0.034,-0.3947 0.2374,-0.6669 0.6502,-0.6523 0.268,0.01 0.5531,0.3085 0.5531,0.58 0,0.7982 -1.1349,0.8663 -1.2033,0.072 l 0,0 0,0 z m 15.5332,14.702 c -0.056,-0.2095 0.014,-0.4401 0.1878,-0.6177 0.1051,-0.107 0.2131,-0.1434 0.4284,-0.1434 0.3805,0 0.5853,0.191 0.6063,0.5655 0.013,0.2232 -0.014,0.2904 -0.1783,0.455 -0.1515,0.1514 -0.2406,0.1931 -0.4131,0.1931 -0.2638,0 -0.5682,-0.2183 -0.6311,-0.4525 z m -4.7265,-5.3689 c 0,-0.5452 0.6565,-0.7898 1.0537,-0.3926 0.2414,0.2413 0.1818,0.7232 -0.1143,0.9242 -0.2093,0.1422 -0.5664,0.089 -0.77,-0.1146 -0.1308,-0.1307 -0.1695,-0.2258 -0.1694,-0.417 z m -4.5037,-4.5436 c -0.102,-0.3559 0.1637,-0.731 0.5408,-0.7635 0.5813,-0.05 0.8793,0.6046 0.4642,1.0198 -0.3421,0.3421 -0.8721,0.2069 -1.005,-0.2563 z m -8.6743,-9.1404 c -0.02,-0.3509 0.2192,-0.6075 0.5658,-0.6075 0.3146,0 0.6022,0.2741 0.6119,0.5831 0.025,0.7983 -1.1329,0.8223 -1.1777,0.024 z m 4.4041,4.3509 c -0.034,-0.3946 0.2374,-0.6668 0.6503,-0.6523 0.2679,0.01 0.553,0.3085 0.553,0.5801 0,0.7982 -1.135,0.8663 -1.2033,0.072 l 0,0 0,0 z m 6.2328,6.1992 c 0,-0.1942 0.038,-0.2856 0.1759,-0.4235 0.138,-0.138 0.2293,-0.1759 0.4235,-0.1759 0.1942,0 0.2855,0.038 0.4235,0.1759 0.138,0.1379 0.1759,0.2293 0.1759,0.4235 0,0.1942 -0.038,0.2855 -0.1759,0.4235 -0.1379,0.138 -0.2293,0.1759 -0.4235,0.1759 -0.1942,0 -0.2855,-0.038 -0.4235,-0.1759 -0.138,-0.138 -0.1759,-0.2293 -0.1759,-0.4235 z m -3.3881,-3.8116 c 0,-0.5456 0.6371,-0.8094 1.0229,-0.4235 0.138,0.138 0.176,0.2293 0.176,0.4235 0,0.5456 -0.6371,0.8094 -1.023,0.4235 -0.138,-0.138 -0.1759,-0.2293 -0.1759,-0.4235 z m 9.9461,9.8705 c -0.031,-0.549 0.6288,-0.8267 1.0243,-0.4312 0.2107,0.2107 0.2468,0.5022 0.09,0.7308 -0.3529,0.5159 -1.0798,0.3206 -1.1147,-0.2996 z m -14.5698,-14.6328 c -0.04,-0.4671 0.3989,-0.7924 0.8304,-0.6152 0.6402,0.2628 0.4187,1.1898 -0.2757,1.1538 -0.322,-0.017 -0.5269,-0.2156 -0.5547,-0.5386 z m 10.2817,9.8256 c -0.2271,-0.5418 0.4321,-1.077 0.9176,-0.7449 0.3553,0.243 0.3333,0.8353 -0.039,1.0414 -0.3075,0.1704 -0.7451,0.023 -0.879,-0.2965 z m 7.327,6.7005 c -0.056,-0.2094 0.014,-0.44 0.1878,-0.6176 0.105,-0.107 0.2131,-0.1434 0.4284,-0.1434 0.3804,0 0.5852,0.191 0.6062,0.5655 0.013,0.2232 -0.014,0.2904 -0.1783,0.455 -0.1514,0.1514 -0.2406,0.1931 -0.4131,0.1931 -0.2638,0 -0.5682,-0.2183 -0.631,-0.4525 z m -15.6748,-16.1168 c -0.067,-0.2255 -0.018,-0.3865 0.1764,-0.5809 0.2099,-0.2099 0.3778,-0.249 0.6279,-0.1464 0.2766,0.1136 0.4063,0.3238 0.381,0.6175 -0.033,0.3829 -0.3802,0.6333 -0.7474,0.5388 -0.2315,-0.06 -0.3681,-0.1933 -0.4379,-0.429 z m -3.849,-4.1693 c -0.085,-0.3174 0.1456,-0.7064 0.451,-0.7601 0.3679,-0.065 0.7711,0.306 0.7277,0.6694 -0.032,0.2693 -0.2856,0.5147 -0.5523,0.5348 -0.2489,0.019 -0.5618,-0.2032 -0.6264,-0.4441 z m 6.3906,6.3356 c -0.2046,-0.4815 0.4789,-1.0148 0.9182,-0.7165 0.4932,0.3349 0.2539,1.131 -0.34,1.131 -0.2579,0 -0.4652,-0.1486 -0.5782,-0.4145 z m 9.5706,9.4053 c -0.1528,-0.3758 0.1342,-0.8468 0.5251,-0.8616 0.3879,-0.015 0.6352,0.2302 0.6352,0.6292 0,0.6034 -0.9335,0.7903 -1.1603,0.2324 l 0,0 z m -5.2356,-5.3003 c -0.1436,-0.3091 0.028,-0.7256 0.3546,-0.8609 0.2468,-0.1022 0.4482,-0.055 0.6567,0.1533 0.317,0.3169 0.2046,0.8143 -0.2236,0.9901 -0.3012,0.1237 -0.6586,0 -0.7877,-0.2825 z m 3.7259,3.1998 c -0.013,-0.2249 0.013,-0.2899 0.1828,-0.4594 0.1696,-0.1696 0.2346,-0.1955 0.4594,-0.1828 0.1827,0.01 0.3063,0.059 0.4088,0.1616 0.1025,0.1024 0.1514,0.2261 0.1616,0.4088 0.013,0.2248 -0.013,0.2898 -0.1828,0.4594 -0.1696,0.1696 -0.2345,0.1954 -0.4594,0.1828 -0.1827,-0.01 -0.3063,-0.059 -0.4088,-0.1616 -0.1024,-0.1025 -0.1513,-0.2261 -0.1616,-0.4088 z m -5.2246,-5.1478 c -0.135,-0.3169 0.1459,-0.7676 0.5116,-0.8212 0.4175,-0.061 0.7858,0.3095 0.6922,0.6962 -0.082,0.339 -0.2848,0.5019 -0.6243,0.5019 -0.2975,0 -0.4654,-0.1093 -0.5794,-0.377 l 0,0 0,0 z m -6.672,-7.2186 c -0.166,-0.4215 0.1707,-0.8515 0.6353,-0.8114 0.2034,0.017 0.2722,0.054 0.3899,0.2084 0.3692,0.4836 -0.022,1.1213 -0.6017,0.9808 -0.2611,-0.063 -0.3206,-0.1164 -0.4236,-0.3777 z m 16.4206,15.8335 c -0.1074,-0.3745 0.1698,-0.7406 0.578,-0.7636 0.2248,-0.013 0.2898,0.013 0.4594,0.1828 0.1696,0.1696 0.1954,0.2346 0.1828,0.4594 -0.04,0.719 -1.0208,0.8165 -1.2202,0.1214 z m 2.5503,2.1589 c -0.081,-0.6783 0.8095,-0.987 1.1582,-0.4014 0.3674,0.6169 -0.4645,1.2659 -0.972,0.7584 -0.099,-0.099 -0.1721,-0.2389 -0.1862,-0.357 z m -8.0484,-8.2094 c -0.013,-0.2249 0.013,-0.2899 0.1828,-0.4595 0.1696,-0.1695 0.2346,-0.1954 0.4595,-0.1828 0.7098,0.04 0.7952,1.0321 0.1026,1.1917 -0.4034,0.093 -0.7219,-0.142 -0.7449,-0.5494 z m -8.8734,-8.8077 c -0.1002,-0.2278 -0.088,-0.4136 0.038,-0.5984 0.4306,-0.6295 1.3516,-0.1094 1.0586,0.5979 -0.1871,0.4517 -0.898,0.452 -1.0966,5e-4 z m 1.9973,1.6478 c -0.028,-0.086 -0.025,-0.2563 0.01,-0.3789 0.051,-0.1947 0.086,-0.2378 0.2773,-0.3407 0.6079,-0.3277 1.1781,0.3667 0.7556,0.9201 -0.1367,0.1791 -0.1799,0.1981 -0.4501,0.1981 -0.3222,0 -0.4984,-0.1191 -0.5901,-0.3986 z m 2.7307,1.9571 c 0,-0.3241 0.1409,-0.5147 0.4544,-0.6145 0.379,-0.1206 0.7464,0.1611 0.7464,0.5722 0,0.2456 -0.039,0.322 -0.2602,0.5085 -0.1697,0.1431 -0.3183,0.1729 -0.5285,0.106 -0.2992,-0.095 -0.4121,-0.2521 -0.4121,-0.5722 z m -8.2627,-8.2952 c -0.024,-0.4312 0.3857,-0.7199 0.7877,-0.5548 0.6063,0.2489 0.4636,1.1486 -0.1821,1.1486 -0.3405,0 -0.5857,-0.2405 -0.6056,-0.5938 z m 17.1944,16.8538 c -0.013,-0.2357 0.011,-0.2984 0.1824,-0.4697 0.164,-0.164 0.2353,-0.1949 0.4181,-0.1812 0.3024,0.023 0.4492,0.1242 0.5559,0.384 0.1018,0.2479 0,0.6101 -0.2131,0.7359 -0.2228,0.1333 -0.52,0.1145 -0.7308,-0.046 -0.1713,-0.1308 -0.1992,-0.1864 -0.2125,-0.4226 z m -5.4993,-6.0175 c 0,-0.194 0.038,-0.2856 0.1754,-0.4231 0.097,-0.096 0.2317,-0.1925 0.3005,-0.2133 0.1472,-0.045 0.4646,0.046 0.5853,0.1664 0.3765,0.3765 0.092,1.044 -0.4531,1.0626 -0.3539,0.012 -0.6081,-0.2357 -0.6081,-0.5927 z m 4.1293,4.2082 c -0.084,-0.1984 -0.013,-0.4406 0.1885,-0.6423 0.1474,-0.1474 0.2342,-0.1844 0.432,-0.1844 0.5592,0 0.7892,0.6573 0.375,1.0715 -0.091,0.091 -0.2155,0.1293 -0.4173,0.1293 -0.2966,0 -0.4656,-0.1094 -0.5782,-0.3741 z m -4.8674,-5.3724 c -0.119,-0.2812 0.055,-0.6612 0.36,-0.7864 0.6555,-0.2692 1.1406,0.517 0.6325,1.025 -0.1752,0.1752 -0.658,0.1787 -0.8233,0.01 -0.065,-0.068 -0.141,-0.1778 -0.1692,-0.2444 z m 3.5513,3.016 c -0.029,-0.087 -0.017,-0.2646 0.028,-0.3942 0.2564,-0.7486 1.3778,-0.3942 1.1505,0.3636 -0.1726,0.5754 -0.988,0.5966 -1.1781,0.031 z m 7.985,7.8017 c -0.1524,-0.3872 0.093,-0.8092 0.4979,-0.8576 0.2854,-0.034 0.4672,0.06 0.6155,0.3172 0.1324,0.23 0.096,0.5689 -0.081,0.746 -0.1634,0.1642 -0.4751,0.2261 -0.6907,0.1376 -0.2448,-0.1006 -0.2474,-0.1032 -0.342,-0.3431 l 0,0 -10e-5,1e-4 z m -19.4775,-19.645 c 0,-0.821 1.1569,-0.8606 1.203,-0.041 0.031,0.559 -0.625,0.8237 -1.0323,0.4163 -0.124,-0.1239 -0.1707,-0.2266 -0.1707,-0.3751 z m 1.9709,1.9259 c -0.141,-0.3364 0.067,-0.7359 0.4267,-0.8185 0.4578,-0.1053 0.8603,0.33 0.7182,0.7766 -0.1715,0.5386 -0.9252,0.5662 -1.1449,0.042 z m 15.2912,15.1684 c -0.1074,-0.3745 0.1698,-0.7406 0.578,-0.7636 0.2248,-0.013 0.2898,0.013 0.4594,0.1828 0.1696,0.1696 0.1954,0.2346 0.1828,0.4594 -0.04,0.719 -1.0208,0.8166 -1.2202,0.1214 z m -18.7973,-19.6244 c -0.1782,-0.6138 0.5404,-1.0554 0.9885,-0.6073 0.4524,0.4524 0,1.1804 -0.6169,0.9825 -0.1754,-0.057 -0.3221,-0.2048 -0.3719,-0.3748 l 0,-1e-4 0,0 z m 17.1907,17.1916 c -0.056,-0.1602 0.02,-0.4796 0.1435,-0.6026 0.05,-0.05 0.1754,-0.1177 0.2785,-0.1506 0.4931,-0.1569 0.9311,0.3745 0.7117,0.8632 -0.2139,0.4762 -0.9555,0.4043 -1.1337,-0.11 l 0,0 z m -11.2679,-11.3738 c -0.1026,-0.3579 0.1636,-0.731 0.5451,-0.7639 0.5646,-0.049 0.8782,0.6018 0.4815,0.9985 -0.2083,0.2083 -0.3657,0.2555 -0.6021,0.1803 -0.2283,-0.073 -0.3646,-0.2059 -0.4246,-0.4147 z m 2.4216,2.2079 c -0.013,-0.2248 0.013,-0.2898 0.1827,-0.4594 0.1696,-0.1696 0.2346,-0.1955 0.4595,-0.1828 0.3389,0.019 0.5426,0.212 0.5709,0.5406 0.026,0.2977 -0.1339,0.5476 -0.4046,0.6337 -0.4356,0.1387 -0.7837,-0.09 -0.8086,-0.5321 l 0,0 z m 3.26,3.3242 c -0.07,-0.2396 -0.011,-0.4508 0.1774,-0.6413 0.1462,-0.1473 0.2315,-0.1842 0.4299,-0.1842 0.5464,0 0.8093,0.6371 0.4225,1.0239 -0.1447,0.1447 -0.2293,0.1769 -0.4649,0.1769 -0.3037,0 -0.4923,-0.1253 -0.5649,-0.3753 z m -0.7564,-1.3696 c 0,-0.2062 0.038,-0.326 0.134,-0.422 0.413,-0.413 1.0668,-0.1803 1.0668,0.3797 0,0.5443 -0.6736,0.8575 -1.0451,0.486 -0.1206,-0.1206 -0.1557,-0.2206 -0.1557,-0.4437 z m 4.9367,5.0571 c -0.08,-0.1886 -0.02,-0.5211 0.1193,-0.6604 0.1546,-0.1546 0.4595,-0.2548 0.6239,-0.205 0.1871,0.057 0.4044,0.2992 0.4378,0.4887 0.1257,0.7138 -0.8991,1.0407 -1.181,0.3767 z m -1.5467,-3.0622 c 0,-0.3158 0.1063,-0.4856 0.3724,-0.5949 0.5973,-0.2452 1.0878,0.4277 0.6908,0.9477 -0.1247,0.1633 -0.184,0.192 -0.4355,0.2081 -0.2434,0.016 -0.3187,-0.01 -0.4594,-0.1494 -0.1289,-0.1288 -0.1683,-0.2253 -0.1683,-0.4115 z m -4.0072,-4.0922 c -0.056,-0.2424 0.081,-0.5796 0.2773,-0.6849 0.069,-0.037 0.2264,-0.07 0.3505,-0.074 0.4295,-0.014 0.7281,0.4996 0.5218,0.8978 -0.2541,0.4904 -1.0264,0.3974 -1.1496,-0.1385 z m -4.9775,-5.3104 c -0.031,-0.5507 0.6188,-0.8377 1.0103,-0.4462 0.2253,0.2254 0.2652,0.5096 0.1044,0.7447 -0.3438,0.5026 -1.0807,0.3053 -1.1147,-0.2985 z m 17.6848,17.6126 c 0,-0.2637 0.092,-0.4392 0.294,-0.5609 0.3323,-0.2001 0.7737,-0.051 0.9242,0.3123 0.09,0.2182 0.016,0.4872 -0.1933,0.6961 -0.3577,0.3577 -1.0249,0.066 -1.0249,-0.4475 z m -2.4042,-2.3821 c -0.1074,-0.3744 0.1698,-0.7406 0.578,-0.7636 0.2248,-0.013 0.2898,0.013 0.4594,0.1828 0.1696,0.1696 0.1954,0.2346 0.1828,0.4594 -0.041,0.719 -1.0208,0.8166 -1.2202,0.1214 z m -12.6909,-13.0743 c 0,-0.1942 0.038,-0.2856 0.176,-0.4236 0.1379,-0.1379 0.2293,-0.1759 0.4235,-0.1759 0.1941,0 0.2855,0.038 0.4235,0.1759 0.1379,0.138 0.1759,0.2294 0.1759,0.4236 0,0.5456 -0.6371,0.8093 -1.0229,0.4235 -0.138,-0.138 -0.176,-0.2294 -0.176,-0.4235 z m -4.1132,-4.1212 c -0.072,-0.5994 0.5939,-0.9295 1.0183,-0.5051 0.3502,0.3503 0.215,0.8523 -0.2713,1.0071 -0.3249,0.1034 -0.7052,-0.1522 -0.747,-0.502 l 0,0 z m 14.8705,14.7935 c 0,-0.5456 0.6371,-0.8094 1.0229,-0.4235 0.2477,0.2477 0.2477,0.5994 0,0.847 -0.1379,0.138 -0.2293,0.1759 -0.4235,0.176 -0.1942,0 -0.2855,-0.038 -0.4235,-0.176 -0.138,-0.1379 -0.1759,-0.2293 -0.1759,-0.4235 l 0,0 z m -16.857,-16.9852 c -0.278,-0.7065 0.6847,-1.1858 1.0727,-0.5341 0.2874,0.4829 -0.1943,1.061 -0.7261,0.8715 -0.2426,-0.086 -0.2512,-0.095 -0.3466,-0.3375 z m 15.1004,15.0543 c -0.029,-0.069 -0.042,-0.2222 -0.028,-0.3402 0.02,-0.1696 0.067,-0.2483 0.2254,-0.3746 0.236,-0.1886 0.3865,-0.2125 0.6517,-0.1037 0.1659,0.068 0.2079,0.111 0.2796,0.2856 0.2144,0.522 -0.2458,1.0349 -0.7631,0.8506 -0.2263,-0.081 -0.2876,-0.1339 -0.3656,-0.3177 l 0,0 0,0 z m -2.8375,-3.261 c -0.08,-0.189 -0.02,-0.5212 0.1199,-0.6611 0.3918,-0.3917 1.0174,-0.1782 1.064,0.3633 0.06,0.6925 -0.9126,0.937 -1.1839,0.2978 z m -1.568,-1.7224 c -0.3239,-0.5027 0.2058,-1.147 0.7568,-0.9208 0.2615,0.1074 0.3759,0.275 0.3759,0.5507 0,0.3514 -0.2322,0.6079 -0.5808,0.6417 -0.1821,0.018 -0.4507,-0.1146 -0.5519,-0.2716 z m 11.8628,10.3773 c -0.056,-0.2095 0.014,-0.4401 0.1878,-0.6176 0.105,-0.1071 0.2131,-0.1434 0.4283,-0.1434 0.3805,0 0.5853,0.191 0.6063,0.5655 0.013,0.2232 -0.014,0.2904 -0.1783,0.455 -0.1514,0.1514 -0.2406,0.193 -0.4131,0.193 -0.2638,0 -0.5682,-0.2183 -0.631,-0.4525 z m -13.8888,-13.9782 c -0.1074,-0.3744 0.1697,-0.7406 0.5779,-0.7636 0.2248,-0.013 0.2898,0.013 0.4594,0.1828 0.1696,0.1696 0.1954,0.2346 0.1828,0.4594 -0.04,0.719 -1.0208,0.8166 -1.2201,0.1214 z m 8.9784,8.8938 c -0.1074,-0.3745 0.1697,-0.7407 0.5779,-0.7637 0.2249,-0.013 0.2899,0.013 0.4594,0.1828 0.1696,0.1696 0.1955,0.2346 0.1828,0.4594 -0.04,0.719 -1.0208,0.8166 -1.2201,0.1215 z m -2.7528,-3.1764 c -0.1074,-0.3745 0.1697,-0.7406 0.5779,-0.7636 0.2249,-0.013 0.2898,0.013 0.4594,0.1828 0.1696,0.1696 0.1955,0.2346 0.1828,0.4594 -0.04,0.719 -1.0208,0.8166 -1.2201,0.1214 z m -8.6397,-8.7243 c -0.1073,-0.3745 0.1698,-0.7406 0.578,-0.7636 0.2248,-0.013 0.2898,0.013 0.4594,0.1828 0.1696,0.1696 0.1954,0.2346 0.1828,0.4594 -0.04,0.719 -1.0208,0.8166 -1.2202,0.1214 z m 14.0606,13.8912 c -0.1074,-0.3745 0.1697,-0.7407 0.5779,-0.7637 0.2249,-0.013 0.2899,0.013 0.4595,0.1828 0.1695,0.1696 0.1954,0.2346 0.1828,0.4594 -0.041,0.719 -1.0209,0.8166 -1.2202,0.1215 z m -15.7969,-16.3899 c -0.1074,-0.3745 0.1697,-0.7407 0.5779,-0.7636 0.2248,-0.013 0.2898,0.013 0.4594,0.1828 0.1696,0.1696 0.1955,0.2345 0.1828,0.4594 -0.04,0.719 -1.0208,0.8165 -1.2201,0.1214 z m -2.4254,-2.745 c -0.117,-0.6129 0.6101,-0.9849 1.0552,-0.5398 0.3747,0.3747 0.1201,0.9933 -0.4202,1.0213 -0.3396,0.018 -0.5736,-0.1598 -0.635,-0.4815 z m 9.498,9.3094 c -0.1074,-0.3745 0.1697,-0.7407 0.5779,-0.7636 0.2249,-0.013 0.2899,0.013 0.4594,0.1828 0.1696,0.1696 0.1955,0.2345 0.1828,0.4594 -0.04,0.719 -1.0208,0.8166 -1.2201,0.1214 z m 2.2446,2.0752 c -0.1074,-0.3745 0.1697,-0.7407 0.5779,-0.7636 0.2249,-0.013 0.2899,0.013 0.4594,0.1828 0.1696,0.1696 0.1955,0.2346 0.1828,0.4594 -0.04,0.719 -1.0208,0.8166 -1.2201,0.1214 z m 4.0233,3.7693 c -0.1074,-0.3745 0.1698,-0.7407 0.578,-0.7637 0.2248,-0.013 0.2898,0.013 0.4594,0.1828 0.1696,0.1696 0.1954,0.2346 0.1828,0.4595 -0.04,0.7189 -1.0208,0.8165 -1.2202,0.1214 z m -9.4019,-9.8255 c -0.1074,-0.3745 0.1697,-0.7406 0.5779,-0.7636 0.2249,-0.013 0.2899,0.013 0.4595,0.1828 0.1696,0.1696 0.1954,0.2346 0.1828,0.4594 -0.04,0.719 -1.0208,0.8166 -1.2202,0.1214 z m 15.4558,15.1216 c -0.056,-0.2094 0.014,-0.44 0.1878,-0.6176 0.1051,-0.107 0.2131,-0.1434 0.4284,-0.1434 0.3804,0 0.5852,0.191 0.6063,0.5655 0.013,0.2232 -0.014,0.2904 -0.1783,0.455 -0.1515,0.1514 -0.2406,0.193 -0.4131,0.1931 -0.2638,0 -0.5682,-0.2183 -0.631,-0.4526 z m -3.0046,-3.2633 c -0.1074,-0.3745 0.1697,-0.7407 0.578,-0.7636 0.2248,-0.013 0.2898,0.013 0.4594,0.1828 0.1696,0.1696 0.1954,0.2345 0.1828,0.4594 -0.04,0.719 -1.0208,0.8165 -1.2202,0.1214 z m -3.3457,-4.3621 c -0.1074,-0.3745 0.1697,-0.7407 0.5779,-0.7637 0.2249,-0.013 0.2899,0.013 0.4594,0.1828 0.1696,0.1696 0.1954,0.2346 0.1828,0.4594 -0.04,0.719 -1.0208,0.8166 -1.2201,0.1215 z m -10.5878,-10.8419 c -0.1074,-0.3745 0.1698,-0.7407 0.578,-0.7636 0.2248,-0.013 0.2898,0.013 0.4594,0.1828 0.1696,0.1695 0.1954,0.2346 0.1828,0.4594 -0.041,0.719 -1.0208,0.8165 -1.2202,0.1214 z m 3.8219,3.5478 c -0.044,-0.2524 0.091,-0.5337 0.3183,-0.6629 0.2369,-0.1344 0.4437,-0.1255 0.6558,0.028 0.525,0.3806 0.2621,1.1554 -0.3836,1.1303 -0.2836,-0.011 -0.5436,-0.2293 -0.5905,-0.4957 z m -6.3743,-6.5045 c -0.117,-0.613 0.6101,-0.985 1.0552,-0.5398 0.3747,0.3746 0.1201,0.9933 -0.4202,1.0213 -0.3396,0.018 -0.5736,-0.1599 -0.635,-0.4815 z m 12.0733,11.3242 c -0.128,-0.3005 0.2089,-0.7783 0.5611,-0.7959 0.4185,-0.021 0.7391,0.3584 0.6419,0.7594 -0.153,0.6313 -0.9396,0.6552 -1.203,0.036 z m 7.9678,7.9399 c -0.056,-0.2094 0.014,-0.44 0.1878,-0.6176 0.105,-0.107 0.2131,-0.1434 0.4283,-0.1434 0.3805,0 0.5853,0.191 0.6064,0.5655 0.013,0.2232 -0.014,0.2904 -0.1784,0.455 -0.1514,0.1514 -0.2406,0.193 -0.4131,0.1931 -0.2638,0 -0.5682,-0.2183 -0.631,-0.4526 z m -3.5851,-3.8441 c 0,-0.3746 0.192,-0.5858 0.5493,-0.6043 0.3396,-0.018 0.5736,0.1599 0.635,0.4815 0.081,0.4237 -0.2251,0.7661 -0.6516,0.7294 -0.3462,-0.03 -0.5327,-0.2422 -0.5327,-0.6066 z m -7.8343,-7.8374 c -0.1,-0.2527 -0.05,-0.4902 0.1419,-0.6822 0.2304,-0.2303 0.5178,-0.2353 0.7959,-0.014 0.1985,0.1583 0.22,0.2007 0.22,0.4336 0,0.2047 -0.036,0.2945 -0.1755,0.4336 -0.2318,0.2318 -0.3823,0.2701 -0.6425,0.1633 -0.2557,-0.105 -0.2455,-0.095 -0.3397,-0.3348 l 0,0 0,0 z m 1.9774,1.6421 c -0.1074,-0.3745 0.1697,-0.7407 0.5779,-0.7636 0.2248,-0.013 0.2898,0.013 0.4594,0.1828 0.1696,0.1696 0.1954,0.2346 0.1828,0.4594 -0.04,0.719 -1.0208,0.8165 -1.2201,0.1214 z m -5.9603,-6.188 c -0.1168,-0.2059 -0.1244,-0.3617 -0.029,-0.5938 0.1494,-0.3641 0.6427,-0.4563 0.9963,-0.1863 0.1748,0.1335 0.1945,0.1788 0.1945,0.4473 0,0.2155 -0.037,0.336 -0.1334,0.4322 -0.3186,0.3187 -0.8185,0.2703 -1.0282,-0.099 z m 15.9104,14.11 c -0.056,-0.2095 0.014,-0.4401 0.1878,-0.6177 0.1051,-0.107 0.2131,-0.1434 0.4284,-0.1433 0.3805,-10e-5 0.5852,0.1909 0.6063,0.5654 0.013,0.2232 -0.014,0.2904 -0.1783,0.455 -0.1515,0.1514 -0.2406,0.1931 -0.4131,0.1931 -0.2638,0 -0.5682,-0.2183 -0.631,-0.4526 z m -4.1556,-4.3441 c -0.1841,-0.6211 0.5777,-1.0685 1.0371,-0.609 0.2599,0.2598 0.2597,0.6037 -5e-4,0.8612 -0.3644,0.3604 -0.893,0.2319 -1.0366,-0.2522 z m -8.3681,-9.2867 c -0.091,-0.2402 -0.045,-0.4066 0.1745,-0.6257 0.4523,-0.4524 1.2308,0.034 1.0166,0.6348 -0.2063,0.5787 -0.9704,0.5728 -1.1911,-0.01 z m 7.5208,6.9683 c -0.1362,-0.3385 0.063,-0.7279 0.4324,-0.8455 0.6467,-0.2058 1.0696,0.7281 0.5046,1.1145 -0.3158,0.216 -0.7974,0.078 -0.937,-0.269 z m -4.8297,-5.7252 c -0.1913,-0.683 0.8603,-1.065 1.1508,-0.418 0.1725,0.3839 -0.1016,0.852 -0.5172,0.8832 -0.2576,0.019 -0.5602,-0.2027 -0.6336,-0.4652 z m 3.6941,3.6186 c -0.1261,-0.4396 0.3322,-0.9082 0.7561,-0.7733 0.292,0.093 0.4475,0.2827 0.462,0.5639 0.038,0.7401 -1.0141,0.9211 -1.2181,0.2094 z m 6.4353,6.4394 c -0.056,-0.2094 0.014,-0.4401 0.1878,-0.6176 0.1051,-0.1071 0.2131,-0.1434 0.4284,-0.1434 0.3805,0 0.5852,0.191 0.6063,0.5655 0.013,0.2232 -0.014,0.2904 -0.1784,0.455 -0.1514,0.1514 -0.2405,0.193 -0.4131,0.1931 -0.2638,0 -0.5681,-0.2183 -0.631,-0.4526 z m -8.5639,-8.7188 c -0.117,-0.6129 0.6101,-0.9849 1.0552,-0.5398 0.3747,0.3747 0.1201,0.9933 -0.4202,1.0213 -0.3396,0.018 -0.5736,-0.1598 -0.635,-0.4815 z m 8.5216,6.6436 c -0.056,-0.2095 0.014,-0.4401 0.1878,-0.6176 0.105,-0.1071 0.2131,-0.1434 0.4283,-0.1434 0.3805,0 0.5853,0.191 0.6063,0.5655 0.013,0.2232 -0.014,0.2904 -0.1783,0.455 -0.1514,0.1514 -0.2406,0.193 -0.4131,0.1931 -0.2638,0 -0.5682,-0.2183 -0.631,-0.4526 z m -0.4125,-2.392 c -0.043,-0.1336 -0.04,-0.3192 0.01,-0.46 0.1048,-0.305 0.3688,-0.4503 0.7301,-0.4016 0.2091,0.028 0.2756,0.066 0.3852,0.222 0.3673,0.5212 0.01,1.1729 -0.5948,1.0821 -0.2684,-0.04 -0.4475,-0.1901 -0.5291,-0.4425 z m -0.7566,-2.2992 c 0,-0.5322 0.6502,-0.8193 1.0194,-0.4501 0.2263,0.2263 0.2739,0.4949 0.1338,0.7548 -0.2152,0.3994 -0.6543,0.4418 -0.9996,0.096 -0.1133,-0.1133 -0.1536,-0.2185 -0.1536,-0.4012 z m -7.776,-8.3897 c -0.117,-0.613 0.6101,-0.985 1.0552,-0.5399 0.3747,0.3747 0.1201,0.9933 -0.4202,1.0213 -0.3396,0.018 -0.5736,-0.1598 -0.635,-0.4814 z m 6.7103,6.1745 c -0.065,-0.7616 1.0236,-0.9523 1.2139,-0.2125 0.1038,0.4035 -0.1734,0.7421 -0.6075,0.7421 -0.3632,0 -0.5768,-0.1866 -0.6064,-0.5296 z m -4.8567,-4.8189 c -0.08,-0.1793 -0.01,-0.4963 0.146,-0.6506 0.4629,-0.4629 1.2307,-0.012 1.0434,0.6123 -0.1681,0.5604 -0.947,0.5855 -1.1894,0.038 z m 1.7166,1.2368 c -0.1385,-0.5912 0.6202,-1.0146 1.0484,-0.5849 0.1373,0.1378 0.2113,0.518 0.1341,0.6898 -0.1212,0.2699 -0.2693,0.3647 -0.57,0.3647 -0.3287,0 -0.5406,-0.1625 -0.6125,-0.4696 z m 1.4062,1.3887 c -0.035,-0.2977 0.1153,-0.5637 0.3803,-0.6725 0.2227,-0.091 0.5318,-0.032 0.6978,0.1347 0.1629,0.1634 0.2133,0.5182 0.1011,0.7117 -0.2173,0.3748 -0.6201,0.4567 -0.9499,0.1931 -0.1611,-0.1287 -0.2102,-0.2082 -0.2293,-0.367 z"
id="path4131"
style="fill:#ffffff;fill-opacity:1"
/>
<path
d="m 48.3797999999999,88.49235 c -0.364,-2.2421 -0.5881,-4.1503 -0.4979,-4.2405 0.1735,-0.1734 8.4829,1.9711 8.4829,2.1894 -10e-5,0.2256 -7.086,6.3648 -7.2068,6.244 -0.064,-0.064 -0.4142,-1.9509 -0.7782,-4.1929 z m 4.0996,0.625 c 1.294,-1.184 2.3529,-2.2107 2.3528,-2.2818 10e-5,-0.1544 -1.2334,-0.3803 -3.8167,-0.6989 l -1.899,-0.2343 0.3284,2.4861 c 0.1805,1.3673 0.4079,2.575 0.505,2.6838 0.1156,0.129 0.991,-0.5474 2.5295,-1.9549 z m -35.3567,-40.1316 c 0.1732,-0.4355 2.022,-5.5046 4.1084,-11.2646 2.0863,-5.7601 3.88,-10.5562 3.9859,-10.6581 0.1054,-0.1024 1.6961,0.016 3.5339,0.2613 1.8378,0.2457 3.5065,0.451 3.7082,0.4564 0.2018,0.01 1.9987,0.239 3.9932,0.5191 l 3.6264,0.5095 5.0883,-2.0724 5.0885,-2.0724 2.6734,2.6674 c 2.3971,2.3912 2.7141,2.6449 3.0604,2.4567 0.2124,-0.1154 1.4294,-0.929 2.7044,-1.808 1.275,-0.879 2.5098,-1.7155 2.7439,-1.8588 0.4128,-0.2526 0.535,-0.1483 3.9858,3.3994 1.958,2.013 3.7694,3.9486 4.0254,4.3015 l 0.4653,0.6414 -2.1947,2.1947 -2.1947,2.1948 1.2445,3.9913 c 0.6845,2.1953 1.2924,4.0393 1.3511,4.098 0.058,0.059 2.5153,-2.3025 5.4595,-5.2467 l 5.3531,-5.3531 0.5433,0.7339 c 0.2988,0.4036 0.544,0.9841 0.5449,1.2898 0,0.407 -2.3998,20.3521 -3.8706,32.1523 -0.06,0.4856 -1.2936,1.3475 -11.1812,7.8149 l -8.6325,5.6465 -3.9081,-1.3561 c -2.6499,-0.9194 -3.8624,-1.4477 -3.7659,-1.6406 0.078,-0.1564 0.3295,-1.2282 0.5584,-2.3817 1.8082,-9.1122 -4.1438,-18.5529 -15.0181,-23.8204 -4.1335,-2.0022 -9.5332,-3.5896 -15.0748,-4.4317 -1.1349,-0.1724 -2.1213,-0.3715 -2.1923,-0.4425 -0.071,-0.071 0.013,-0.4854 0.1859,-0.921 z m 5.6749,0.923 c 8.8371,2.2085 15.5509,4.9602 20.049,8.2174 3.0256,2.191 5.8229,5.5494 7.0714,8.4901 1.2365,2.9121 1.5947,7.046 0.9466,10.9238 -0.1739,1.0404 -0.2269,1.9809 -0.1176,2.0902 0.1093,0.1093 1.4819,0.8999 3.0505,1.757 l 2.8519,1.5586 6.1749,-4.5365 c 3.396,-2.4951 7.3895,-5.4674 8.8741,-6.605 l 2.6993,-2.0685 0.2208,-1.3117 c 0.6551,-3.8923 4.372,-29.1872 4.3097,-29.3283 -0.065,-0.1473 -3.4217,2.7332 -9.0858,7.7969 -1.5981,1.4287 -1.8761,1.6048 -2.026,1.2835 -0.096,-0.2049 -0.9793,-2.3607 -1.964,-4.791 l -1.7903,-4.4186 2.158,-2.164 c 1.1876,-1.1896 2.1341,-2.2553 2.1049,-2.3668 -0.029,-0.1114 -1.5371,-1.7967 -3.3513,-3.745 l -3.2986,-3.5425 -2.995,2.5715 c -1.6474,1.4142 -3.036,2.5713 -3.0859,2.5713 -0.05,0 -1.3151,-1.4073 -2.8117,-3.1274 -1.6723,-1.9222 -2.8358,-3.1205 -3.0191,-3.1094 -0.1642,0.01 -2.5019,1.0379 -5.1951,2.2844 l -4.8966,2.2664 -2.4372,-0.3495 c -1.3405,-0.1922 -4.1747,-0.6043 -6.2983,-0.9157 -2.1235,-0.3115 -3.9447,-0.5279 -4.0471,-0.4807 -0.1024,0.047 -2.1011,4.554 -4.4416,10.0153 -4.1781,9.7494 -4.2445,9.9322 -3.6556,10.0565 0.3299,0.07 2.1325,0.5097 4.0057,0.9778 z"
style="fill:#000000"
id="path4135"
/>
<path
style="fill:#ffffff;fill-opacity:1"
id="rect4137"
d="m 74.7916,24.7916 0.8333,0.83333 -50,49.99999 -0.8333,-0.83333 z"
/>
<path
d="m 25.625,24.37465 50,50.00002 -0.8333,0.83333 -50.0001,-50.00001 z"
id="rect4139"
style="fill:#ffffff;fill-opacity:1"
/>
</svg>
